<svg xmlns="http://www.w3.org/2000/svg" width="139.713" height="159" viewBox="0 0 139.713 159">
  <g id="cajero" transform="translate(-31.051)">
    <path id="Trazado_103968" data-name="Trazado 103968" d="M301.924,7.5a4.823,4.823,0,0,0-4.823,4.823v4.823l9.647-.006V12.324A4.823,4.823,0,0,0,301.924,7.5Z" transform="translate(-183.425 -5.171)" fill="#c9f0fe"/>
    <path id="Trazado_103969" data-name="Trazado 103969" d="M301.759,12.324A4.822,4.822,0,0,1,304.254,8.1a4.825,4.825,0,0,0-7.152,4.225v4.823l4.658,0Z" transform="translate(-183.425 -5.171)" fill="#9be8fd"/>
    <path id="Trazado_103970" data-name="Trazado 103970" d="M243.044,279.207l-27.653-9.459v-22.7H188.153v22.7L160.5,279.207a12.81,12.81,0,0,0-8.664,12.12V327h99.872V291.328A12.809,12.809,0,0,0,243.044,279.207Z" transform="translate(-83.274 -170.326)" fill="#fed2a4"/>
    <path id="Trazado_103971" data-name="Trazado 103971" d="M169.816,279.208l24.5-8.381a4.658,4.658,0,0,0,3.151-4.408V247.051h-9.317v22.7L160.5,279.208a12.81,12.81,0,0,0-8.664,12.12V327h9.317V291.328A12.811,12.811,0,0,1,169.816,279.208Z" transform="translate(-83.273 -170.327)" fill="#ffbd86"/>
    <path id="Trazado_103972" data-name="Trazado 103972" d="M243.044,329.6l-27.653-9.459-13.543,9.015-13.695-9.015L160.5,329.6a12.81,12.81,0,0,0-8.664,12.12v35.669h80.382v-14.47h19.491v-21.2a12.809,12.809,0,0,0-8.664-12.12Z" transform="translate(-83.274 -220.716)" fill="#f24141"/>
    <path id="Trazado_103973" data-name="Trazado 103973" d="M344.041,323.09l-7.777,9.292-10.342-5.926,9.491-6.317Z" transform="translate(-203.296 -220.716)" fill="#c9f0fe"/>
    <path id="Trazado_103974" data-name="Trazado 103974" d="M241.23,323.064l7.784,9.3,10.342-5.926-9.571-6.3Z" transform="translate(-144.906 -220.716)" fill="#c9f0fe"/>
    <path id="Trazado_103975" data-name="Trazado 103975" d="M387.878,150.149h4.677a6.49,6.49,0,0,1,6.49,6.49V161.5a6.49,6.49,0,0,1-6.49,6.49h-4.677Z" transform="translate(-246.01 -103.519)" fill="#fed2a4"/>
    <path id="Trazado_103976" data-name="Trazado 103976" d="M212.591,150.149h-4.677a6.49,6.49,0,0,0-6.49,6.49V161.5a6.49,6.49,0,0,0,6.49,6.49h4.677Z" transform="translate(-117.462 -103.519)" fill="#fed2a4"/>
    <path id="Trazado_103977" data-name="Trazado 103977" d="M237.382,116.847V145.2a21.585,21.585,0,0,0,21.585,21.585h3.568A21.585,21.585,0,0,0,284.12,145.2V116.847a6.61,6.61,0,0,0-6.61-6.61H243.992A6.61,6.61,0,0,0,237.382,116.847Z" transform="translate(-142.253 -76.002)" fill="#fff3de"/>
    <path id="Trazado_103978" data-name="Trazado 103978" d="M246.7,145.2V116.847a6.61,6.61,0,0,1,6.61-6.61h-9.317a6.61,6.61,0,0,0-6.61,6.61V145.2a21.585,21.585,0,0,0,21.585,21.585h3.568a21.78,21.78,0,0,0,2.875-.19A21.59,21.59,0,0,1,246.7,145.2Z" transform="translate(-142.253 -76.002)" fill="#ffe5c2"/>
    <path id="Trazado_103979" data-name="Trazado 103979" d="M277.66,68.653V61.861a23.326,23.326,0,0,0-23.323-23.323H243.253A23.324,23.324,0,0,0,219.93,61.861v6.689Z" transform="translate(-130.221 -26.57)" fill="#f24141"/>
    <path id="Trazado_103980" data-name="Trazado 103980" d="M235.458,68.551V61.861a23.326,23.326,0,0,1,21.1-23.218q-1.1-.1-2.222-.1H243.253A23.324,23.324,0,0,0,219.93,61.861v6.689l57.73.1v-.028Z" transform="translate(-130.221 -26.57)" fill="#d83939"/>
    <path id="Trazado_103981" data-name="Trazado 103981" d="M268.184,127.08a4.639,4.639,0,0,1-2.873-.994c-6.12-4.8-15.259-7.557-25.075-7.557s-18.956,2.754-25.075,7.557a4.659,4.659,0,0,1-5.752-7.33c7.729-6.065,18.965-9.544,30.827-9.544s23.1,3.479,30.827,9.544a4.659,4.659,0,0,1-2.879,8.323Z" transform="translate(-121.738 -75.296)" fill="#c9f0fe"/>
    <path id="Trazado_103982" data-name="Trazado 103982" d="M224.938,118.757c6.016-4.721,14.156-7.875,23.063-9.041a59.881,59.881,0,0,0-7.764-.5c-11.862,0-23.1,3.479-30.827,9.544a4.659,4.659,0,0,0,5.752,7.33,31.953,31.953,0,0,1,8.072-4.516A4.641,4.641,0,0,1,224.938,118.757Z" transform="translate(-121.738 -75.296)" fill="#9be8fd"/>
    <path id="Trazado_103983" data-name="Trazado 103983" d="M112.619,440.237H41.657a3.106,3.106,0,0,1-3.106-3.106V414.406a3.106,3.106,0,0,1,3.106-3.106h70.963a3.106,3.106,0,0,1,3.106,3.106v22.726A3.105,3.105,0,0,1,112.619,440.237Z" transform="translate(-5.171 -283.566)" fill="#33518e"/>
    <path id="Trazado_103984" data-name="Trazado 103984" d="M48.2,430.593v-9.647h5.881v-6.541a3.106,3.106,0,0,1,3.106-3.106H41.657a3.106,3.106,0,0,0-3.106,3.106v22.726a3.106,3.106,0,0,0,3.106,3.106H57.185a3.106,3.106,0,0,1-3.106-3.106v-6.538H48.2Z" transform="translate(-5.171 -283.566)" fill="#26476d"/>
    <path id="Trazado_103985" data-name="Trazado 103985" d="M147.269,349.165h9.647v9.647h-9.647Z" transform="translate(-80.125 -240.728)" fill="#33518e"/>
    <path id="Trazado_103986" data-name="Trazado 103986" d="M136.157,306.341H103.782a3.106,3.106,0,0,1-3.106-3.106V290.156a3.106,3.106,0,0,1,3.106-3.106h32.376a3.106,3.106,0,0,1,3.106,3.106v13.079A3.106,3.106,0,0,1,136.157,306.341Z" transform="translate(-48.002 -197.903)" fill="#425f99"/>
    <path id="Trazado_103987" data-name="Trazado 103987" d="M113.1,303.235V290.156a3.106,3.106,0,0,1,3.106-3.106H103.782a3.106,3.106,0,0,0-3.106,3.106v13.079a3.106,3.106,0,0,0,3.106,3.106H116.2A3.106,3.106,0,0,1,113.1,303.235Z" transform="translate(-48.002 -197.903)" fill="#33518e"/>
    <path id="Trazado_103988" data-name="Trazado 103988" d="M131.738,380.227h19.294v9.65H131.738Z" transform="translate(-69.418 -262.143)" fill="#425f99"/>
    <path id="Trazado_103989" data-name="Trazado 103989" d="M131.738,380.227h9.317v9.65h-9.317Z" transform="translate(-69.418 -262.143)" fill="#33518e"/>
    <path id="Trazado_103990" data-name="Trazado 103990" d="M69.613,442.362H108.2v9.647H69.613Z" transform="translate(-26.586 -304.982)" fill="#c9f0fe"/>
    <path id="Trazado_103991" data-name="Trazado 103991" d="M69.613,442.362h5.881v9.647H69.613Z" transform="translate(-26.586 -304.982)" fill="#9be8fd"/>
    <circle id="Elipse_465" data-name="Elipse 465" cx="4.823" cy="4.823" r="4.823" transform="translate(91.261 137.38)" fill="#ffe02f"/>
    <g id="Grupo_56898" data-name="Grupo 56898" transform="translate(31.051 0)">
      <path id="Trazado_103992" data-name="Trazado 103992" d="M160.525,106.678l-26.077-8.921v-9.3c6.838-5.043,10.1-13.322,9.749-21.659h2.348a8.828,8.828,0,0,0,8.82-8.817V53.121a8.847,8.847,0,0,0-1.945-5.522c.185-2.8-1.513-5.159-3.65-6.723V35.292A25.686,25.686,0,0,0,125.651,9.685V7.153a7.153,7.153,0,0,0-14.305,0V9.694a25.686,25.686,0,0,0-23.965,25.6v5.474c-2.2,1.594-3.995,3.933-3.8,6.834a8.849,8.849,0,0,0-1.945,5.522v4.863A8.827,8.827,0,0,0,90.451,66.8H92.8a24.944,24.944,0,0,0,9.752,21.661v9.3l-8.96,3.065V92.252a5.441,5.441,0,0,0-5.435-5.435h-11.1a2.329,2.329,0,1,0,0,4.658h11.1a.777.777,0,0,1,.776.776v13.081a.777.777,0,0,1-.776.776H55.78a.777.777,0,0,1-.776-.776V92.252a.777.777,0,0,1,.776-.776H66.9a2.329,2.329,0,1,0,0-4.658H55.78a5.441,5.441,0,0,0-5.435,5.435v13.081a5.441,5.441,0,0,0,5.435,5.435h9.035v4.987H62.321a2.329,2.329,0,0,0-2.329,2.329V125.4H36.486a5.441,5.441,0,0,0-5.435,5.435v22.726A5.441,5.441,0,0,0,36.486,159H126.83a2.329,2.329,0,0,0,0-4.658h-14a5.434,5.434,0,0,0,.056-.777V130.839a5.441,5.441,0,0,0-5.435-5.435H83.943v-7.321a2.329,2.329,0,0,0-2.329-2.329H79.12v-4.987h9.036a5.442,5.442,0,0,0,5.419-5.016l1.99-.681,6.757,8.073a2.341,2.341,0,0,0,2.944.526l9.1-5.214,2.928,1.927a2.329,2.329,0,0,0,2.571-.007l2.853-1.9,9.093,5.21a2.341,2.341,0,0,0,2.944-.526L141.5,105.1l17.511,5.99a10.482,10.482,0,0,1,7.09,9.914v18.871H151.272V127.734a2.329,2.329,0,0,0-4.658,0v26.609h-9.635a2.329,2.329,0,1,0,0,4.658h31.457a2.329,2.329,0,0,0,2.329-2.329V121a15.139,15.139,0,0,0-10.239-14.322Zm-91.052,4.089h4.989v4.987H69.473Zm37.975,19.3a.777.777,0,0,1,.776.776v22.726a.777.777,0,0,1-.776.776H36.486a.777.777,0,0,1-.776-.776V130.839a.777.777,0,0,1,.776-.776Zm-28.164-9.649V125.4H64.65v-4.991Zm71.4-67.724c.014.142.022,5.295.022,5.295a4.165,4.165,0,0,1-4.161,4.158H144.2v-8.4A7.025,7.025,0,0,0,150.684,52.69ZM116,7.153a2.494,2.494,0,0,1,4.988,0V9.639H116V7.153ZM113.033,14.3q5.541,0,11.084,0c12.794,0,21.869,11.3,20.994,23.638A56.407,56.407,0,0,0,118.5,31.587a56.476,56.476,0,0,0-26.459,6.267c-.66-11.738,7.419-23.559,20.994-23.556ZM92.8,62.143H90.45a4.163,4.163,0,0,1-4.158-4.158s.007-5.155.022-5.3A7.024,7.024,0,0,0,92.8,53.742v8.4ZM97.457,69.2V50.836a39.022,39.022,0,0,1,16.358-5.051,2.329,2.329,0,1,0-.442-4.637c-8.394.8-15.99,3.575-21.388,7.812A2.329,2.329,0,1,1,89.109,45.3c8.143-6.389,19.226-9.05,29.388-9.05,10.192,0,21.253,2.664,29.392,9.049a2.33,2.33,0,0,1-2.878,3.665c-5.307-4.168-12.774-6.93-21.027-7.777a2.329,2.329,0,1,0-.476,4.634,38.933,38.933,0,0,1,16.03,5.02V69.2c0,25.592-42.081,25.561-42.081,0Zm7.186,39.453-4.355-5.2L104.552,102,110,105.585Zm13.924-3.014-11.358-7.477v-7.02a31.145,31.145,0,0,0,22.581,0v7.027Zm13.867,3.031-5.381-3.084,5.4-3.594,4.331,1.482Zm33.673,45.667H151.273V144.53h14.834Z" transform="translate(-31.051 0)"/>
      <path id="Trazado_103993" data-name="Trazado 103993" d="M275.077,178.843a2.329,2.329,0,0,0,2.329-2.329v-3.057a2.329,2.329,0,1,0-4.658,0v3.057A2.329,2.329,0,0,0,275.077,178.843Z" transform="translate(-197.686 -117.982)"/>
      <path id="Trazado_103994" data-name="Trazado 103994" d="M339.694,178.843a2.329,2.329,0,0,0,2.329-2.329v-3.057a2.329,2.329,0,0,0-4.658,0v3.057A2.329,2.329,0,0,0,339.694,178.843Z" transform="translate(-242.236 -117.982)"/>
      <path id="Trazado_103995" data-name="Trazado 103995" d="M294.491,232.253a8.18,8.18,0,0,0,8.171-8.171,2.329,2.329,0,1,0-4.658,0,3.512,3.512,0,1,1-7.024,0,2.329,2.329,0,1,0-4.658,0A8.18,8.18,0,0,0,294.491,232.253Z" transform="translate(-207.043 -152.885)"/>
      <path id="Trazado_103996" data-name="Trazado 103996" d="M124.238,312.937a2.329,2.329,0,0,0,2.329,2.329h19.294a2.329,2.329,0,0,0,0-4.658H126.567a2.329,2.329,0,0,0-2.329,2.329Z" transform="translate(-95.298 -214.145)"/>
      <path id="Trazado_103997" data-name="Trazado 103997" d="M64.443,449.167H103.03a2.329,2.329,0,0,0,2.329-2.329v-9.647a2.329,2.329,0,0,0-2.329-2.329H64.443a2.329,2.329,0,0,0-2.329,2.329v9.647A2.329,2.329,0,0,0,64.443,449.167Zm2.329-9.647H100.7v4.988H66.772Z" transform="translate(-52.467 -299.811)"/>
      <path id="Trazado_103998" data-name="Trazado 103998" d="M224.578,449.167a7.153,7.153,0,1,0-7.153-7.153A7.161,7.161,0,0,0,224.578,449.167Zm0-9.647a2.494,2.494,0,1,1-2.494,2.494A2.5,2.5,0,0,1,224.578,439.52Z" transform="translate(-159.544 -299.811)"/>
    </g>
  </g>
</svg>
