<svg xmlns="http://www.w3.org/2000/svg" width="118.605" height="142.327" viewBox="0 0 118.605 142.327">
  <g id="cotizacion" transform="translate(-56 -16)">
    <path id="Trazado_103999" data-name="Trazado 103999" d="M177.861,161.582H64V24H168.373a9.488,9.488,0,0,1,9.488,9.488Z" transform="translate(-5.628 -5.628)" fill="#fbe9d8"/>
    <ellipse id="Elipse_468" data-name="Elipse 468" cx="21.5" cy="21" rx="21.5" ry="21" transform="translate(68 28.327)" fill="#ffe76c"/>
    <path id="Trazado_104000" data-name="Trazado 104000" d="M397.349,33.488v9.488H383.116V31.116A7.118,7.118,0,0,0,376,24h11.861A9.488,9.488,0,0,1,397.349,33.488Z" transform="translate(-225.116 -5.628)" fill="#e3d3c2"/>
    <path id="Trazado_104001" data-name="Trazado 104001" d="M56,155.954a2.372,2.372,0,0,0,2.372,2.372H172.233a2.372,2.372,0,0,0,2.372-2.372V27.861A11.874,11.874,0,0,0,162.745,16H58.372A2.372,2.372,0,0,0,56,18.372ZM169.861,27.861v7.116h-9.488V25.488a9.429,9.429,0,0,0-1.275-4.744h3.647a7.125,7.125,0,0,1,7.116,7.116ZM60.744,20.744h90.14a4.75,4.75,0,0,1,4.744,4.744V37.349A2.372,2.372,0,0,0,158,39.721h11.861V153.582H60.744Z"/>
    <path id="Trazado_104002" data-name="Trazado 104002" d="M349.349,416H330.372a2.372,2.372,0,0,0,0,4.744h18.977a2.372,2.372,0,0,0,0-4.744Z" transform="translate(-191.348 -281.395)"/>
    <path id="Trazado_104003" data-name="Trazado 104003" d="M304.326,448H266.372a2.372,2.372,0,1,0,0,4.744h37.954a2.372,2.372,0,0,0,0-4.744Z" transform="translate(-146.325 -303.906)"/>
    <path id="Trazado_104004" data-name="Trazado 104004" d="M151.116,87.116a2.375,2.375,0,0,1,2.372,2.372,2.372,2.372,0,0,0,4.744,0,7.128,7.128,0,0,0-4.744-6.708v-.408a2.372,2.372,0,1,0-4.744,0v.408A7.116,7.116,0,0,0,151.116,96.6a2.372,2.372,0,1,1-2.372,2.372,2.372,2.372,0,1,0-4.744,0,7.128,7.128,0,0,0,4.744,6.708v.408a2.372,2.372,0,1,0,4.744,0v-.408a7.116,7.116,0,0,0-2.372-13.825,2.372,2.372,0,1,1,0-4.744Z" transform="translate(-61.907 -45.023)"/>
    <path id="Trazado_104005" data-name="Trazado 104005" d="M135.442,71.721a23.721,23.721,0,1,0-23.721,23.721A23.721,23.721,0,0,0,135.442,71.721ZM111.721,90.7A18.977,18.977,0,1,1,130.7,71.721,18.977,18.977,0,0,1,111.721,90.7Z" transform="translate(-22.512 -22.512)"/>
    <path id="Trazado_104006" data-name="Trazado 104006" d="M115.861,240h-9.488a2.372,2.372,0,1,0,0,4.744h9.488a2.372,2.372,0,1,0,0-4.744Z" transform="translate(-33.767 -157.581)"/>
    <path id="Trazado_104007" data-name="Trazado 104007" d="M224.326,240H186.372a2.372,2.372,0,0,0,0,4.744h37.954a2.372,2.372,0,0,0,0-4.744Z" transform="translate(-90.046 -157.581)"/>
    <path id="Trazado_104008" data-name="Trazado 104008" d="M383.116,240h-4.744a2.372,2.372,0,1,0,0,4.744h4.744a2.372,2.372,0,0,0,0-4.744Z" transform="translate(-225.116 -157.581)"/>
    <path id="Trazado_104009" data-name="Trazado 104009" d="M115.861,272h-9.488a2.372,2.372,0,1,0,0,4.744h9.488a2.372,2.372,0,1,0,0-4.744Z" transform="translate(-33.767 -180.092)"/>
    <path id="Trazado_104010" data-name="Trazado 104010" d="M224.326,272H186.372a2.372,2.372,0,0,0,0,4.744h37.954a2.372,2.372,0,0,0,0-4.744Z" transform="translate(-90.046 -180.092)"/>
    <path id="Trazado_104011" data-name="Trazado 104011" d="M383.116,272h-4.744a2.372,2.372,0,1,0,0,4.744h4.744a2.372,2.372,0,0,0,0-4.744Z" transform="translate(-225.116 -180.092)"/>
    <path id="Trazado_104012" data-name="Trazado 104012" d="M115.861,304h-9.488a2.372,2.372,0,0,0,0,4.744h9.488a2.372,2.372,0,0,0,0-4.744Z" transform="translate(-33.767 -202.604)"/>
    <path id="Trazado_104013" data-name="Trazado 104013" d="M224.326,304H186.372a2.372,2.372,0,0,0,0,4.744h37.954a2.372,2.372,0,0,0,0-4.744Z" transform="translate(-90.046 -202.604)"/>
    <path id="Trazado_104014" data-name="Trazado 104014" d="M383.116,304h-4.744a2.372,2.372,0,1,0,0,4.744h4.744a2.372,2.372,0,0,0,0-4.744Z" transform="translate(-225.116 -202.604)"/>
    <path id="Trazado_104015" data-name="Trazado 104015" d="M115.861,336h-9.488a2.372,2.372,0,1,0,0,4.744h9.488a2.372,2.372,0,1,0,0-4.744Z" transform="translate(-33.767 -225.116)"/>
    <path id="Trazado_104016" data-name="Trazado 104016" d="M224.326,336H186.372a2.372,2.372,0,0,0,0,4.744h37.954a2.372,2.372,0,0,0,0-4.744Z" transform="translate(-90.046 -225.116)"/>
    <path id="Trazado_104017" data-name="Trazado 104017" d="M383.116,336h-4.744a2.372,2.372,0,1,0,0,4.744h4.744a2.372,2.372,0,1,0,0-4.744Z" transform="translate(-225.116 -225.116)"/>
    <path id="Trazado_104018" data-name="Trazado 104018" d="M115.861,368h-9.488a2.372,2.372,0,1,0,0,4.744h9.488a2.372,2.372,0,1,0,0-4.744Z" transform="translate(-33.767 -247.627)"/>
    <path id="Trazado_104019" data-name="Trazado 104019" d="M226.7,370.372A2.372,2.372,0,0,0,224.326,368H186.372a2.372,2.372,0,0,0,0,4.744h37.954A2.372,2.372,0,0,0,226.7,370.372Z" transform="translate(-90.046 -247.627)"/>
    <path id="Trazado_104020" data-name="Trazado 104020" d="M383.116,368h-4.744a2.372,2.372,0,1,0,0,4.744h4.744a2.372,2.372,0,0,0,0-4.744Z" transform="translate(-225.116 -247.627)"/>
    <path id="Trazado_104021" data-name="Trazado 104021" d="M338.093,128H314.372a2.372,2.372,0,0,0,0,4.744h23.721a2.372,2.372,0,0,0,0-4.744Z" transform="translate(-180.092 -78.79)"/>
    <path id="Trazado_104022" data-name="Trazado 104022" d="M309.954,160H274.372a2.372,2.372,0,0,0,0,4.744h35.582a2.372,2.372,0,1,0,0-4.744Z" transform="translate(-151.953 -101.302)"/>
    <path id="Trazado_104023" data-name="Trazado 104023" d="M309.954,192H274.372a2.372,2.372,0,0,0,0,4.744h35.582a2.372,2.372,0,1,0,0-4.744Z" transform="translate(-151.953 -123.814)"/>
  </g>
</svg>
