<svg xmlns="http://www.w3.org/2000/svg" width="143.725" height="143.732" viewBox="0 0 143.725 143.732">
  <g id="lupa" transform="translate(-0.999 -0.997)">
    <path id="Trazado_104024" data-name="Trazado 104024" d="M0,0H21.07V10.193H0Z" transform="translate(38.738 99.756) rotate(-45)" fill="#f4a01e"/>
    <g id="Grupo_56899" data-name="Grupo 56899" transform="translate(3.171 97.402)">
      <path id="Trazado_104025" data-name="Trazado 104025" d="M46.689,56.739,35.675,45.725a1.557,1.557,0,0,0-2.2,0L4.733,74.464a9.346,9.346,0,0,0,0,13.216h0a9.346,9.346,0,0,0,13.216,0L46.689,58.941a1.558,1.558,0,0,0,0-2.2Z" transform="translate(-1.996 -45.269)" fill="#c7cad0"/>
    </g>
    <g id="Grupo_56900" data-name="Grupo 56900" transform="translate(3.172 103.591)">
      <path id="Trazado_104026" data-name="Trazado 104026" d="M46.672,55.6,17.942,84.33A9.34,9.34,0,0,1,2.809,73.911c19.966-2.533,32.915-18.113,38.576-25.8L46.672,53.4A1.542,1.542,0,0,1,46.672,55.6Z" transform="translate(-1.997 -48.111)" fill="#a3a6a8"/>
    </g>
    <circle id="Elipse_470" data-name="Elipse 470" cx="51.321" cy="51.321" r="51.321" transform="translate(39.893 3.185)" fill="#fac41d"/>
    <g id="Grupo_56901" data-name="Grupo 56901" transform="translate(53.109 16.401)">
      <circle id="Elipse_471" data-name="Elipse 471" cx="38.105" cy="38.105" r="38.105" fill="#fff"/>
    </g>
    <g id="Grupo_56902" data-name="Grupo 56902" transform="translate(54.057 25.607)">
      <path id="Trazado_104027" data-name="Trazado 104027" d="M89.459,68.146A38.108,38.108,0,0,1,25.365,49.662a38.117,38.117,0,0,0,62-37.364c.712.628,1.424,1.277,2.093,1.947A38.116,38.116,0,0,1,89.459,68.146Z" transform="translate(-25.365 -12.299)" fill="#dfe1e6"/>
    </g>
    <g id="Grupo_56903" data-name="Grupo 56903" transform="translate(0.999 0.997)">
      <path id="Trazado_104028" data-name="Trazado 104028" d="M129.043,16.678A53.5,53.5,0,0,0,48.595,86.84l-9.842,9.842-.364-.364a3.822,3.822,0,0,0-5.281,0L4.369,125.057a11.523,11.523,0,1,0,16.3,16.3L49.4,112.614a3.734,3.734,0,0,0,0-5.281l-.364-.364,9.842-9.842a53.5,53.5,0,0,0,70.161-80.448ZM17.585,138.274a7.34,7.34,0,0,1-10.137,0,7.163,7.163,0,0,1,0-10.137l28.3-28.3,10.137,10.136ZM45.96,103.89l-4.129-4.129,9.548-9.548c.649.722,1.314,1.432,2.005,2.123s1.4,1.357,2.123,2.005Zm80-14.634a49.143,49.143,0,1,1,0-69.5A49.132,49.132,0,0,1,125.963,89.256Z" transform="translate(-0.999 -0.997)" fill="#231f20"/>
      <path id="Trazado_104029" data-name="Trazado 104029" d="M92.686,18.875a40.283,40.283,0,1,0,0,56.969,40.26,40.26,0,0,0,0-56.969Zm-3.079,53.89a35.928,35.928,0,1,1,0-50.81A35.922,35.922,0,0,1,89.607,72.764Z" transform="translate(26.013 6.15)" fill="#231f20"/>
      <path id="Trazado_104030" data-name="Trazado 104030" d="M43.606,13.516a2.178,2.178,0,0,0,0,4.355A21.919,21.919,0,0,1,65.5,39.766a2.178,2.178,0,1,0,4.355,0A26.279,26.279,0,0,0,43.606,13.516Z" transform="translate(46.61 13.745)" fill="#231f20"/>
    </g>
  </g>
</svg>
