<svg xmlns="http://www.w3.org/2000/svg" width="145.675" height="121.395" viewBox="0 0 145.675 121.395">
  <g id="financiar" transform="translate(-16 -56)">
    <path id="Trazado_104052" data-name="Trazado 104052" d="M144,200h97.116v55.842H144Z" transform="translate(-89.154 -100.298)" fill="#00b55b"/>
    <path id="Trazado_104053" data-name="Trazado 104053" d="M248,224h33.991v48.558H248Z" transform="translate(-161.591 -117.014)" fill="#ffb401"/>
    <path id="Trazado_104054" data-name="Trazado 104054" d="M24,296H72.558v46.13H24Z" transform="translate(-5.572 -167.163)" fill="#548aff"/>
    <path id="Trazado_104055" data-name="Trazado 104055" d="M184,279.284h7.284l17-7.284h30.707a5.711,5.711,0,0,1,1.952,11.079l-22.947,8.345,24.279,14.567h28.455a5.536,5.536,0,0,1,1.521,10.859l-29.976,8.564H184Z" transform="translate(-117.014 -150.447)" fill="#ffceb6"/>
    <rect id="Rectángulo_5910" data-name="Rectángulo 5910" width="97" height="49" rx="16" transform="translate(55.273 58)" fill="#02c26a"/>
    <path id="Trazado_104056" data-name="Trazado 104056" d="M430.567,176h-7.284A7.284,7.284,0,0,0,416,183.284v7.284h9.712a4.856,4.856,0,0,0,4.856-4.856Z" transform="translate(-278.605 -83.581)" fill="#e0edff"/>
    <path id="Trazado_104057" data-name="Trazado 104057" d="M248,64h33.991v48.558H248Z" transform="translate(-161.591 -5.572)" fill="#ffc431"/>
    <g id="Grupo_56908" data-name="Grupo 56908" transform="translate(54.846 58.428)">
      <path id="Trazado_104058" data-name="Trazado 104058" d="M430.567,78.567h-7.284A7.284,7.284,0,0,1,416,71.284V64h9.712a4.856,4.856,0,0,1,4.856,4.856Z" transform="translate(-333.451 -64)" fill="#e0edff"/>
      <path id="Trazado_104059" data-name="Trazado 104059" d="M144,176h7.284a7.284,7.284,0,0,1,7.284,7.284v7.284h-9.712A4.856,4.856,0,0,1,144,185.712Z" transform="translate(-144 -142.009)" fill="#e0edff"/>
      <path id="Trazado_104060" data-name="Trazado 104060" d="M144,78.567h7.284a7.284,7.284,0,0,0,7.284-7.284V64h-9.712A4.856,4.856,0,0,0,144,68.856Z" transform="translate(-144 -64)" fill="#e0edff"/>
    </g>
    <path id="Trazado_104061" data-name="Trazado 104061" d="M154.391,153.147V63.284A7.292,7.292,0,0,0,147.107,56H59.7a7.292,7.292,0,0,0-7.284,7.284v63.126H18.428A2.428,2.428,0,0,0,16,128.837v46.13a2.428,2.428,0,0,0,2.428,2.428H125.256a2.43,2.43,0,0,0,.667-.093l29.976-8.564a7.963,7.963,0,0,0-1.508-15.59ZM57.274,109a7.249,7.249,0,0,0,2.428.418H83.981v4.856H57.274ZM62.13,89.991H57.274V75.423H62.13a9.723,9.723,0,0,0,9.712-9.712V60.856h12.14V80.279H71.842v4.856h12.14v19.423H71.842V99.7A9.723,9.723,0,0,0,62.13,89.991Zm82.549-14.567h4.856V89.991h-4.856a9.723,9.723,0,0,0-9.712,9.712v4.856h-12.14V85.135h12.14V80.279h-12.14V60.856h12.14v4.856A9.723,9.723,0,0,0,144.679,75.423Zm-21.851,63.126h26.707V143.4H122.828Zm26.707-24.279H122.828v-4.856h24.279a7.249,7.249,0,0,0,2.428-.418Zm-31.563-9.712H88.837v-43.7h29.135Zm-29.135,4.856h29.135v9.712H91.265a2.427,2.427,0,0,0-.956.2l-1.472.631Zm33.991,9.712h26.707v4.856H129.417a8.157,8.157,0,0,0-6.59-4.811Zm7.123,9.712h19.584v4.856H126.959A8.184,8.184,0,0,0,129.951,128.837Zm-11.979,19.505L106.6,141.517l11.376-4.137Zm4.856-.082h26.707v4.856H125.928l-3.1-1.86Zm26.707-46.13a2.431,2.431,0,0,1-2.428,2.428h-7.284V99.7a4.861,4.861,0,0,1,4.856-4.856h4.856Zm0-38.846v7.284h-4.856a4.861,4.861,0,0,1-4.856-4.856V60.856h7.284A2.431,2.431,0,0,1,149.535,63.284ZM59.7,60.856h7.284v4.856a4.861,4.861,0,0,1-4.856,4.856H57.274V63.284A2.431,2.431,0,0,1,59.7,60.856ZM57.274,94.846H62.13A4.861,4.861,0,0,1,66.986,99.7v4.856H59.7a2.431,2.431,0,0,1-2.428-2.428Zm7.284,77.693h-43.7V131.265h43.7Zm-7.284-46.13v-7.284H83.981v2.908l-10.21,4.376Zm97.29,37.659-29.649,8.471h-55.5V131.265H74.27a2.428,2.428,0,0,0,.956-.2l16.537-7.087h30.209a3.283,3.283,0,0,1,1.122,6.369l-22.947,8.345a2.428,2.428,0,0,0-.419,4.364l24.279,14.567a2.427,2.427,0,0,0,1.249.346H153.71a3.108,3.108,0,0,1,.854,6.1Z"/>
    <path id="Trazado_104062" data-name="Trazado 104062" d="M287.282,112.279H280v4.856h4.856v4.856h4.856v-5.273a7.283,7.283,0,0,0-2.428-14.15,2.428,2.428,0,1,1,0-4.856h7.284V92.856H289.71V88h-4.856v5.273a7.283,7.283,0,0,0,2.428,14.15,2.428,2.428,0,1,1,0,4.856Z" transform="translate(-183.878 -22.288)"/>
  </g>
</svg>
