<svg id="recibir" xmlns="http://www.w3.org/2000/svg" width="133.151" height="127.95" viewBox="0 0 133.151 127.95">
  <path id="Trazado_104063" data-name="Trazado 104063" d="M136.283,161.34H11.667A5.174,5.174,0,0,0,10,165.152V239.53a5.2,5.2,0,0,0,5.2,5.2H132.749a5.2,5.2,0,0,0,5.2-5.2V165.152A5.174,5.174,0,0,0,136.283,161.34Zm0,0" transform="translate(-7.399 -119.382)" fill="#ffdf8e"/>
  <path id="Trazado_104064" data-name="Trazado 104064" d="M137.492,156H19.944a5.174,5.174,0,0,0-3.534,1.389l55.268,49.357a10.406,10.406,0,0,0,14.08,0l55.268-49.357A5.174,5.174,0,0,0,137.492,156Zm0,0" transform="translate(-12.143 -115.431)" fill="#ffb64c"/>
  <path id="Trazado_104065" data-name="Trazado 104065" d="M217.61,58.371,196.8,84.377,176,58.371h10.4V10h20.8V58.371Zm0,0" transform="translate(-130.229 -7.399)" fill="#90e36a"/>
  <path id="Trazado_104066" data-name="Trazado 104066" d="M168.6,432a2.6,2.6,0,1,0,2.6,2.6A2.6,2.6,0,0,0,168.6,432Zm0,0" transform="translate(-122.83 -319.654)"/>
  <path id="Trazado_104067" data-name="Trazado 104067" d="M125.349,37.969H79.579V2.6a2.6,2.6,0,0,0-2.6-2.6h-20.8a2.6,2.6,0,0,0-2.6,2.6V37.969H7.8a7.813,7.813,0,0,0-7.8,7.8v74.377a7.807,7.807,0,0,0,7.8,7.8H125.349a7.807,7.807,0,0,0,7.8-7.8V45.771A7.812,7.812,0,0,0,125.349,37.969ZM5.2,46.279l43.332,38.7L5.2,119.923Zm47.264,42.21,5.326,4.755a13.007,13.007,0,0,0,17.568,0l5.326-4.755,42.482,34.26H9.983Zm32.153-3.511,43.332-38.7v73.645ZM58.774,5.2h15.6V50.972a2.6,2.6,0,0,0,2.6,2.6H81.97L66.576,72.815,51.181,53.572h4.992a2.6,2.6,0,0,0,2.6-2.6Zm-5.2,43.17h-7.8A2.6,2.6,0,0,0,43.74,52.6L64.545,78.6a2.6,2.6,0,0,0,4.061,0L89.411,52.6a2.6,2.6,0,0,0-2.031-4.225h-7.8v-5.2h44.044L71.883,89.375c-.009.007-.018.016-.027.024a7.761,7.761,0,0,1-10.561,0l-.027-.024L9.529,43.17H53.572Zm0,0"/>
  <path id="Trazado_104068" data-name="Trazado 104068" d="M239.808,432H208.6a2.6,2.6,0,1,0,0,5.2h31.207a2.6,2.6,0,1,0,0-5.2Zm0,0" transform="translate(-152.428 -319.654)"/>
</svg>
