<svg id="caja-registradora_1_" data-name="caja-registradora (1)" xmlns="http://www.w3.org/2000/svg" width="122.863" height="122.863" viewBox="0 0 122.863 122.863">
  <g id="Grupo_56909" data-name="Grupo 56909" transform="translate(49.913 38.395)">
    <path id="Trazado_104069" data-name="Trazado 104069" d="M336,224h7.679v7.679H336Zm0,0" transform="translate(-305.284 -208.642)" fill="#a4b0c0"/>
    <path id="Trazado_104070" data-name="Trazado 104070" d="M336,160h7.679v7.679H336Zm0,0" transform="translate(-305.284 -160)" fill="#a4b0c0"/>
    <path id="Trazado_104071" data-name="Trazado 104071" d="M272,160h7.679v7.679H272Zm0,0" transform="translate(-256.642 -160)" fill="#a4b0c0"/>
    <path id="Trazado_104072" data-name="Trazado 104072" d="M272,224h7.679v7.679H272Zm0,0" transform="translate(-256.642 -208.642)" fill="#a4b0c0"/>
    <path id="Trazado_104073" data-name="Trazado 104073" d="M208,224h7.679v7.679H208Zm0,0" transform="translate(-208 -208.642)" fill="#a4b0c0"/>
    <path id="Trazado_104074" data-name="Trazado 104074" d="M208,160h7.679v7.679H208Zm0,0" transform="translate(-208 -160)" fill="#a4b0c0"/>
  </g>
  <path id="Trazado_104075" data-name="Trazado 104075" d="M80,224h23.037v7.679H80Zm0,0" transform="translate(-60.803 -170.248)" fill="#f1f2f2"/>
  <path id="Trazado_104076" data-name="Trazado 104076" d="M80,192h23.037v7.679H80Zm0,0" transform="translate(-60.803 -145.926)" fill="#a4b0c0"/>
  <path id="Trazado_104077" data-name="Trazado 104077" d="M400,152h7.679v24.956H400Zm0,0" transform="translate(-304.014 -115.525)" fill="#f1f2f2"/>
  <path id="Trazado_104078" data-name="Trazado 104078" d="M103.037,53.438V68.8H80V40h23.037Zm0,0" transform="translate(-60.803 -30.401)" fill="#fed049"/>
  <path id="Trazado_104079" data-name="Trazado 104079" d="M261.752,29.117v3.839a1.92,1.92,0,0,1-1.92,1.92H209.92a1.92,1.92,0,0,1-1.92-1.92V9.92A1.92,1.92,0,0,1,209.92,8h49.913a1.92,1.92,0,0,1,1.92,1.92Zm-7.679-1.92V15.679H215.679V27.2Zm0,0" transform="translate(-158.087 -6.08)" fill="#a4b0c0"/>
  <path id="Trazado_104080" data-name="Trazado 104080" d="M240,40h38.395V51.518H240Zm0,0" transform="translate(-182.408 -30.401)" fill="#49aaee"/>
  <path id="Trazado_104081" data-name="Trazado 104081" d="M55.993,375.358l-1.92-7.679H8V360H127.023v7.679H80.95l-1.92,7.679Zm0,0" transform="translate(-6.08 -273.612)" fill="#f1f2f2"/>
  <path id="Trazado_104082" data-name="Trazado 104082" d="M127.023,392v23.037a3.852,3.852,0,0,1-3.839,3.839H11.839A3.852,3.852,0,0,1,8,415.037V392H54.074l1.92,7.679H79.03L80.95,392Zm0,0" transform="translate(-6.08 -297.933)" fill="#d0d7df"/>
  <path id="Trazado_104083" data-name="Trazado 104083" d="M135.344,299.839v3.839H24v-3.839L27.839,296H131.5Zm0,0" transform="translate(-18.241 -224.97)" fill="#fed049"/>
  <path id="Trazado_104084" data-name="Trazado 104084" d="M135.344,328v7.679H24V328Zm0,0" transform="translate(-18.241 -249.291)" fill="#f6b445"/>
  <path id="Trazado_104085" data-name="Trazado 104085" d="M80.312,111.355v7.679h7.679v-7.679Zm-7.679,0V96h7.679v3.839a1.92,1.92,0,0,0,1.92,1.92h49.913a1.92,1.92,0,0,0,1.92-1.92V96h5.759a3.76,3.76,0,0,1,3.839,3.839v44.154H40V99.837A3.76,3.76,0,0,1,43.837,96H49.6v15.358Zm61.431,23.037V109.435h-7.679v24.956Zm-15.358,0v-7.679h-7.679v7.679Zm0-15.358v-7.679h-7.679v7.679Zm-15.358,15.358v-7.679H95.67v7.679Zm0-15.358v-7.679H95.67v7.679ZM87.991,134.392v-7.679H80.312v7.679Zm-15.358,0V119.034H49.6v15.358Zm0,0" transform="translate(-30.399 -72.961)" fill="#d0d7df"/>
  <path id="Trazado_104086" data-name="Trazado 104086" d="M120.943,84.468h-1.92v-9.6a1.92,1.92,0,0,0-.562-1.357l-3.277-3.277V26.876a5.6,5.6,0,0,0-5.759-5.759h-3.839V3.839A3.84,3.84,0,0,0,101.746,0H51.833a3.84,3.84,0,0,0-3.839,3.839V21.117H44.154V9.6a1.92,1.92,0,0,0-1.92-1.92H19.2a1.92,1.92,0,0,0-1.92,1.92V21.117H13.438a5.6,5.6,0,0,0-5.759,5.759V70.235L4.4,73.512a1.92,1.92,0,0,0-.562,1.357v9.6H1.92A1.92,1.92,0,0,0,0,86.388V117.1a5.759,5.759,0,0,0,5.759,5.759H117.1a5.759,5.759,0,0,0,5.759-5.759V86.388A1.92,1.92,0,0,0,120.943,84.468ZM51.833,3.839h49.913V26.876H51.833ZM40.314,11.518V36.475h-19.2V11.518ZM13.438,24.956h3.839V36.475h-1.92v3.839H46.074V36.475h-1.92V24.956h3.839v1.92a3.84,3.84,0,0,0,3.839,3.839h49.913a3.84,3.84,0,0,0,3.839-3.839v-1.92H109.4a1.762,1.762,0,0,1,1.943,1.92V69.11H11.518V26.9a1.762,1.762,0,0,1,1.92-1.943ZM7.679,75.664l2.715-2.715H112.469l2.715,2.715v8.8H7.679ZM119.023,88.308v3.839H74.869A1.92,1.92,0,0,0,73.007,93.6l-1.556,6.224H51.412L49.856,93.6a1.92,1.92,0,0,0-1.863-1.455H3.839V88.308Zm-1.92,30.716H5.759a1.92,1.92,0,0,1-1.92-1.92V95.986H46.494l1.556,6.224a1.92,1.92,0,0,0,1.863,1.455H72.95a1.92,1.92,0,0,0,1.863-1.455l1.556-6.224h42.655V117.1A1.92,1.92,0,0,1,117.1,119.023Zm0,0"/>
  <path id="Trazado_104087" data-name="Trazado 104087" d="M272.314,32H233.92A1.92,1.92,0,0,0,232,33.92V45.438a1.92,1.92,0,0,0,1.92,1.92h38.395a1.92,1.92,0,0,0,1.92-1.92V33.92A1.92,1.92,0,0,0,272.314,32Zm-1.92,11.518H235.839V35.839h34.555Zm0,0" transform="translate(-176.328 -24.321)"/>
  <path id="Trazado_104088" data-name="Trazado 104088" d="M224,384h15.358v3.839H224Zm0,0" transform="translate(-170.248 -291.853)"/>
  <path id="Trazado_104089" data-name="Trazado 104089" d="M217.6,161.6V153.92a1.92,1.92,0,0,0-1.92-1.92H208v3.839h5.759v3.839H208v3.839h7.679A1.92,1.92,0,0,0,217.6,161.6Zm0,0" transform="translate(-158.087 -115.525)"/>
  <path id="Trazado_104090" data-name="Trazado 104090" d="M265.92,163.518H273.6a1.92,1.92,0,0,0,1.92-1.92V153.92A1.92,1.92,0,0,0,273.6,152H265.92a1.92,1.92,0,0,0-1.92,1.92V161.6A1.92,1.92,0,0,0,265.92,163.518Zm1.92-7.679h3.839v3.839h-3.839Zm0,0" transform="translate(-200.649 -115.525)"/>
  <path id="Trazado_104091" data-name="Trazado 104091" d="M329.92,163.518H337.6a1.92,1.92,0,0,0,1.92-1.92V153.92A1.92,1.92,0,0,0,337.6,152H329.92a1.92,1.92,0,0,0-1.92,1.92V161.6A1.92,1.92,0,0,0,329.92,163.518Zm1.92-7.679h3.839v3.839h-3.839Zm0,0" transform="translate(-249.291 -115.525)"/>
  <path id="Trazado_104092" data-name="Trazado 104092" d="M329.92,227.518H337.6a1.92,1.92,0,0,0,1.92-1.92V217.92A1.92,1.92,0,0,0,337.6,216H329.92a1.92,1.92,0,0,0-1.92,1.92V225.6A1.92,1.92,0,0,0,329.92,227.518Zm1.92-7.679h3.839v3.839h-3.839Zm0,0" transform="translate(-249.291 -164.167)"/>
  <path id="Trazado_104093" data-name="Trazado 104093" d="M265.92,227.518H273.6a1.92,1.92,0,0,0,1.92-1.92V217.92A1.92,1.92,0,0,0,273.6,216H265.92a1.92,1.92,0,0,0-1.92,1.92V225.6A1.92,1.92,0,0,0,265.92,227.518Zm1.92-7.679h3.839v3.839h-3.839Zm0,0" transform="translate(-200.649 -164.167)"/>
  <path id="Trazado_104094" data-name="Trazado 104094" d="M201.92,227.518H209.6a1.92,1.92,0,0,0,1.92-1.92V217.92A1.92,1.92,0,0,0,209.6,216H201.92a1.92,1.92,0,0,0-1.92,1.92V225.6A1.92,1.92,0,0,0,201.92,227.518Zm1.92-7.679h3.839v3.839h-3.839Zm0,0" transform="translate(-152.007 -164.167)"/>
  <path id="Trazado_104095" data-name="Trazado 104095" d="M48,320h3.839v3.839H48Zm0,0" transform="translate(-36.482 -243.211)"/>
  <path id="Trazado_104096" data-name="Trazado 104096" d="M448,320h3.839v3.839H448Zm0,0" transform="translate(-340.495 -243.211)"/>
  <path id="Trazado_104097" data-name="Trazado 104097" d="M80,320h84.468v3.839H80Zm0,0" transform="translate(-60.803 -243.211)"/>
  <path id="Trazado_104098" data-name="Trazado 104098" d="M73.92,203.2H96.956a1.92,1.92,0,0,0,1.92-1.92V185.92a1.92,1.92,0,0,0-1.92-1.92H73.92A1.92,1.92,0,0,0,72,185.92v15.358A1.92,1.92,0,0,0,73.92,203.2Zm1.92-3.839v-3.839h19.2v3.839Zm19.2-11.518v3.839h-19.2v-3.839Zm0,0" transform="translate(-54.722 -139.846)"/>
  <path id="Trazado_104099" data-name="Trazado 104099" d="M393.92,172.8H401.6a1.92,1.92,0,0,0,1.92-1.92V145.92A1.92,1.92,0,0,0,401.6,144H393.92a1.92,1.92,0,0,0-1.92,1.92v24.956A1.92,1.92,0,0,0,393.92,172.8Zm1.92-24.956h3.839v21.117H395.84Zm0,0" transform="translate(-297.933 -109.445)"/>
  <path id="Trazado_104100" data-name="Trazado 104100" d="M104,64h11.518v3.839H104Zm0,0" transform="translate(-79.044 -48.642)"/>
  <path id="Trazado_104101" data-name="Trazado 104101" d="M104,96h3.839v3.839H104Zm0,0" transform="translate(-79.044 -72.963)"/>
  <path id="Trazado_104102" data-name="Trazado 104102" d="M136,96h3.839v3.839H136Zm0,0" transform="translate(-103.365 -72.963)"/>
  <path id="Trazado_104103" data-name="Trazado 104103" d="M35.837,440H32v5.759a3.76,3.76,0,0,0,3.839,3.839H41.6v-3.839H35.837Zm0,0" transform="translate(-24.318 -334.415)"/>
</svg>
