<svg xmlns="http://www.w3.org/2000/svg" width="121.848" height="139.144" viewBox="0 0 121.848 139.144">
  <g id="auditoria" transform="translate(-31.821)">
    <g id="Grupo_56910" data-name="Grupo 56910" transform="translate(33.862 2.038)">
      <path id="Trazado_104104" data-name="Trazado 104104" d="M157.1,19.458V130.607a11.961,11.961,0,0,1-11.96,11.96H51.293a11.96,11.96,0,0,1-11.958-11.96v-83.8a14.946,14.946,0,0,1,4.378-10.569L68.071,11.878A14.937,14.937,0,0,1,78.64,7.5h66.5A11.958,11.958,0,0,1,157.1,19.458Z" transform="translate(-39.334 -7.5)" fill="#f4fbff"/>
      <path id="Trazado_104105" data-name="Trazado 104105" d="M180.639,64.917v88.09a10.828,10.828,0,0,1-10.827,10.827h-68.08a10.828,10.828,0,0,1-10.827-10.827V74.543L110,54.09h59.81a10.828,10.828,0,0,1,10.827,10.827Z" transform="translate(-76.889 -41.428)" fill="#e4f6ff"/>
      <path id="Trazado_104106" data-name="Trazado 104106" d="M140.432,214.223h76.275V230.78H140.432Z" transform="translate(-112.956 -158.043)" fill="#d3effb"/>
      <path id="Trazado_104107" data-name="Trazado 104107" d="M140.432,336.066h76.275v16.557H140.432Z" transform="translate(-112.956 -246.773)" fill="#d3effb"/>
      <path id="Trazado_104108" data-name="Trazado 104108" d="M276.385,153.3H288.6v82.783H276.385Z" transform="translate(-211.962 -113.677)" fill="#e27f83"/>
      <path id="Trazado_104109" data-name="Trazado 104109" d="M107.534,153.3v82.783h-5.8A10.828,10.828,0,0,1,90.9,225.255V153.3Z" transform="translate(-76.889 -113.677)" fill="#b3e59f"/>
      <path id="Trazado_104110" data-name="Trazado 104110" d="M90.9,214.22h16.629v16.556H90.9Z" transform="translate(-76.889 -158.041)" fill="#95d6a4"/>
      <path id="Trazado_104111" data-name="Trazado 104111" d="M90.9,336.066h16.629v16.556H90.9Z" transform="translate(-76.889 -246.773)" fill="#95d6a4"/>
      <path id="Trazado_104112" data-name="Trazado 104112" d="M276.385,214.22H288.6v16.556H276.385Z" transform="translate(-211.962 -158.041)" fill="#c8646d"/>
      <path id="Trazado_104113" data-name="Trazado 104113" d="M276.385,336.07H288.6v16.556H276.385Z" transform="translate(-211.962 -246.776)" fill="#c8646d"/>
      <path id="Trazado_104114" data-name="Trazado 104114" d="M180.639,64.917V81.052H90.9V64.917a10.785,10.785,0,0,1,2.367-6.756l1.7-1.7a10.785,10.785,0,0,1,6.756-2.367h68.08A10.828,10.828,0,0,1,180.639,64.917Z" transform="translate(-76.889 -41.428)" fill="#fff"/>
      <path id="Trazado_104115" data-name="Trazado 104115" d="M39.33,46.809v2.552a8.746,8.746,0,0,1,8.745-8.745H60.487A11.958,11.958,0,0,0,72.445,28.658V16.246A8.746,8.746,0,0,1,81.19,7.5H78.638a14.959,14.959,0,0,0-10.572,4.378L43.708,36.238A14.959,14.959,0,0,0,39.33,46.809Z" transform="translate(-39.33 -7.501)" fill="#e4f6ff"/>
    </g>
    <g id="Grupo_56911" data-name="Grupo 56911" transform="translate(31.821)">
      <path id="Trazado_104116" data-name="Trazado 104116" d="M139.672,0H73.166A16.874,16.874,0,0,0,61.155,4.975c-.023.023-.045.045-.066.069L36.795,29.335a16.89,16.89,0,0,0-4.974,12.014v83.8a14.013,14.013,0,0,0,14,14h93.855a14.013,14.013,0,0,0,14-14V14a14.013,14.013,0,0,0-14-14ZM64.037,7.86,64.1,7.8a12.748,12.748,0,0,1,1.814-1.482,10.718,10.718,0,0,0-.973,4.469V23.2a9.806,9.806,0,0,1-2.056,6.046,2.038,2.038,0,1,0,3.226,2.491,13.847,13.847,0,0,0,2.906-8.537V16.738h57.77a8.8,8.8,0,0,1,8.789,8.789v14.1H49.917V37.191h5.1a14.127,14.127,0,0,0,3.148-.356,2.038,2.038,0,0,0-.909-3.974,10.047,10.047,0,0,1-2.239.253H42.608a10.718,10.718,0,0,0-4.483.98,13.054,13.054,0,0,1,1.553-1.878Zm71.537,81.433H112.539V76.813h23.035ZM49.917,60.257H62.469v12.48H49.917Zm46.331,12.48h-29.7V60.257h29.7v12.48Zm4.076-12.48h8.138v12.48h-8.138ZM96.248,76.813v12.48h-29.7V76.813Zm-46.331,0H62.469v12.48H49.917Zm0,16.556H62.469V105.85H49.917Zm16.629,0h29.7V105.85h-29.7Zm33.779,0h8.138V105.85h-8.138Zm0-4.076V76.813h8.138v12.48Zm35.25-16.556H112.539V60.257h23.035Zm0-16.557H112.539V43.7h23.035Zm-27.112,0h-8.138V43.7h8.138Zm-12.215,0h-29.7V43.7h29.7V56.18Zm-33.779,0H49.916V43.7H62.469ZM49.917,109.927H62.469v12.479H58.705a8.8,8.8,0,0,1-8.789-8.789Zm16.629,0h29.7v12.479h-29.7Zm33.779,0h8.138v12.479h-8.138Zm12.215,0h6.9a2.038,2.038,0,0,0,0-4.076h-6.9V93.369h23.035V105.85h-7.988a2.038,2.038,0,1,0,0,4.076h7.988v3.691a8.8,8.8,0,0,1-8.789,8.789H112.539Zm37.054,15.221a9.932,9.932,0,0,1-9.921,9.92H45.818a9.931,9.931,0,0,1-9.92-9.92V43.964c0-.022,0-.043,0-.066a6.715,6.715,0,0,1,6.707-6.707H45.84v76.426a12.88,12.88,0,0,0,12.865,12.865h68.08a12.88,12.88,0,0,0,12.865-12.865V25.527a12.88,12.88,0,0,0-12.865-12.865H69.015V10.784a6.715,6.715,0,0,1,6.707-6.707h63.95A9.932,9.932,0,0,1,149.593,14Z" transform="translate(-31.821)"/>
      <path id="Trazado_104117" data-name="Trazado 104117" d="M170.478,90.587a2.038,2.038,0,0,0,2.63-1.179l.659-1.731h4.665l.651,1.725a2.038,2.038,0,0,0,3.814-1.439l-4.612-12.222-.022-.055a2.311,2.311,0,0,0-2.145-1.437h0a2.312,2.312,0,0,0-2.145,1.441l-.018.046L169.3,87.957A2.038,2.038,0,0,0,170.478,90.587Zm6.416-6.987H175.32l.791-2.075Z" transform="translate(-131.84 -54.07)"/>
      <path id="Trazado_104118" data-name="Trazado 104118" d="M334.188,90.72a2.038,2.038,0,0,0,2.038-2.038v-12.4a2.038,2.038,0,0,0-4.076,0v12.4A2.038,2.038,0,0,0,334.188,90.72Z" transform="translate(-250.531 -54.07)"/>
      <path id="Trazado_104119" data-name="Trazado 104119" d="M279.182,88.689a2.038,2.038,0,0,0,2.038,2.031h.008c.106,0,2.613-.01,3.616-.027,4-.07,6.906-3.522,6.906-8.209,0-4.926-2.831-8.236-7.044-8.236H281.2a2.038,2.038,0,0,0-2.038,2.042Zm5.524-10.365c2.754,0,2.967,3.184,2.967,4.16,0,2.032-.9,4.1-2.9,4.133-.36.006-.937.012-1.522.016,0-1.416-.012-6.832-.015-8.308Z" transform="translate(-211.94 -54.07)"/>
      <path id="Trazado_104120" data-name="Trazado 104120" d="M227.528,89.747a6.189,6.189,0,0,0,3.379.974h.011a6.508,6.508,0,0,0,2.957-.686,5.738,5.738,0,0,0,3.458-5.227V76.286a2.038,2.038,0,0,0-4.076,0v8.521c0,.506-.147,1.048-1.215,1.586a2.437,2.437,0,0,1-1.123.251h0a2.149,2.149,0,0,1-1.19-.333c-.927-.592-1-1.045-1-1.495v-8.53a2.038,2.038,0,1,0-4.076,0v8.53A5.642,5.642,0,0,0,227.528,89.747Z" transform="translate(-172.24 -54.07)"/>
      <path id="Trazado_104121" data-name="Trazado 104121" d="M358.368,78.324h1.371V88.682a2.038,2.038,0,1,0,4.076,0V78.324h1.4a2.038,2.038,0,0,0,0-4.076h-6.846a2.038,2.038,0,0,0,0,4.076Z" transform="translate(-268.14 -54.07)"/>
    </g>
  </g>
</svg>
