<svg xmlns="http://www.w3.org/2000/svg" xmlns:xlink="http://www.w3.org/1999/xlink" width="628.392" height="540" viewBox="0 0 628.392 540">
  <defs>
    <clipPath id="clip-path">
      <rect id="Rectángulo_5443" data-name="Rectángulo 5443" width="624" height="434" rx="20" transform="translate(555.09 90)" fill="#ffb74d"/>
    </clipPath>
    <linearGradient id="linear-gradient" x1="0.357" y1="1.23" x2="0.864" y2="0.342" gradientUnits="objectBoundingBox">
      <stop offset="0" stop-color="#fbe785" stop-opacity="0"/>
      <stop offset="1" stop-color="#ffcf70"/>
    </linearGradient>
    <linearGradient id="linear-gradient-2" x1="0.205" y1="1.607" x2="0.79" y2="0.196" gradientUnits="objectBoundingBox">
      <stop offset="0" stop-color="#f6e8b7" stop-opacity="0"/>
      <stop offset="1" stop-color="#ffdf88"/>
    </linearGradient>
    <linearGradient id="linear-gradient-3" y1="0.5" x2="1" y2="0.5" gradientUnits="objectBoundingBox">
      <stop offset="0" stop-color="#a667c2"/>
      <stop offset="1" stop-color="#cdabdd"/>
    </linearGradient>
    <linearGradient id="linear-gradient-4" y1="0.5" x2="1" y2="0.5" gradientUnits="objectBoundingBox">
      <stop offset="0" stop-color="#a667c2"/>
      <stop offset="1" stop-color="#63247d"/>
    </linearGradient>
    <linearGradient id="linear-gradient-7" x1="0.511" y1="0.25" x2="0.486" y2="1.009" xlink:href="#linear-gradient-4"/>
    <clipPath id="clip-path-2">
      <rect id="Rectángulo_5599" data-name="Rectángulo 5599" width="281" height="474" transform="translate(-11692.617 -12156.645)" fill="#fff" stroke="#707070" stroke-width="1"/>
    </clipPath>
    <linearGradient id="linear-gradient-13" x1="0.733" y1="0.136" x2="0.231" y2="0.9" gradientUnits="objectBoundingBox">
      <stop offset="0.008" stop-color="#fff"/>
      <stop offset="0.145" stop-color="#e8e7e7"/>
      <stop offset="0.279" stop-color="#fff"/>
      <stop offset="0.867" stop-color="#ededed"/>
      <stop offset="0.97" stop-color="#e6e6e6"/>
    </linearGradient>
    <linearGradient id="linear-gradient-14" x1="0.645" y1="0.118" x2="0.334" y2="0.819" gradientUnits="objectBoundingBox">
      <stop offset="0.008" stop-color="#fff"/>
      <stop offset="0.145" stop-color="#f2f1f1"/>
      <stop offset="0.279" stop-color="#fff"/>
      <stop offset="0.766" stop-color="#ededed"/>
      <stop offset="0.861" stop-color="#e6e6e6"/>
    </linearGradient>
    <linearGradient id="linear-gradient-15" x1="0.568" y1="0.252" x2="0.366" y2="0.663" gradientUnits="objectBoundingBox">
      <stop offset="0.008" stop-color="#fff"/>
      <stop offset="0.766" stop-color="#ededed"/>
      <stop offset="0.861" stop-color="#e6e6e6"/>
    </linearGradient>
  </defs>
  <g id="Grupo_56921" data-name="Grupo 56921" transform="translate(-831.941 -78)">
    <g id="Enmascarar_grupo_1" data-name="Enmascarar grupo 1" transform="translate(281.243 94)" clip-path="url(#clip-path)">
      <g id="Grupo_55493" data-name="Grupo 55493" transform="translate(459.758 130.643)">
        <g id="Grupo_55368" data-name="Grupo 55368" transform="translate(0 0)">
          <path id="Trazado_101071" data-name="Trazado 101071" d="M834.607,120.691C672.633,60.65,686.775,257.417,525.4,196.045,387.033,143.426,335.044,263.5,353.445,340.85c20,84.068-54.312,53.086-117.606,61.259-88,11.363-129.974,74.217-118.79,116.375,0,0,532.709.014,717.558.029Z" transform="translate(-115.275 -109.149)" fill="url(#linear-gradient)"/>
          <path id="Trazado_101072" data-name="Trazado 101072" d="M811.389,229.28c-25.107-16.784-56.3-11.579-71.546-7.3-55.7,15.619-60.817,82.647-255.008,47.088-96.082-17.592-50.832,39.273-54.3,103.712-4.062,75.582-94.4,50.691-159.5,46.732-56.147-3.413-83.431,43.132-63.91,70.816H811.389Z" transform="translate(-92.057 -96.194)" fill="url(#linear-gradient-2)"/>
        </g>
      </g>
    </g>
    <g id="Grupo_55875" data-name="Grupo 55875">
      <g id="Grupo_55807" data-name="Grupo 55807" transform="translate(-3681.427 -219.94)">
        <g id="Grupo_55788" data-name="Grupo 55788" transform="translate(4477.437 297.94)">
          <g id="Grupo_55768" data-name="Grupo 55768" transform="translate(178.643 111.076)">
            <g id="Grupo_55761" data-name="Grupo 55761">
              <circle id="Elipse_380" data-name="Elipse 380" cx="21.662" cy="21.662" r="21.662" fill="#ff9800"/>
              <path id="Trazado_101733" data-name="Trazado 101733" d="M5570.653,977.459a19.591,19.591,0,0,1-37.106,8.794,18.436,18.436,0,0,1-1.227-3.033,19.154,19.154,0,0,1-.663-2.98,19.586,19.586,0,0,1,17.757-22.306q.812-.069,1.646-.069a19.449,19.449,0,0,1,7.72,1.585,19.329,19.329,0,0,1,5.312,3.384,19.5,19.5,0,0,1,6.562,14.625Z" transform="translate(-5529.395 -955.8)" fill="#f2edf4"/>
              <rect id="Rectángulo_5540" data-name="Rectángulo 5540" width="1.175" height="6.478" transform="translate(21.093 3.696)" fill="#d1c6c1"/>
              <rect id="Rectángulo_5541" data-name="Rectángulo 5541" width="1.175" height="6.478" transform="translate(21.093 32.751)" fill="#d1c6c1"/>
              <rect id="Rectángulo_5542" data-name="Rectángulo 5542" width="1.175" height="6.478" transform="translate(3.914 22.05) rotate(-90)" fill="#d1c6c1"/>
              <rect id="Rectángulo_5543" data-name="Rectángulo 5543" width="1.175" height="6.478" transform="translate(32.969 22.05) rotate(-90)" fill="#d1c6c1"/>
              <rect id="Rectángulo_5544" data-name="Rectángulo 5544" width="1.175" height="3.572" transform="matrix(-0.838, -0.546, 0.546, -0.838, 13.272, 35.454)" fill="#d1c6c1"/>
              <rect id="Rectángulo_5545" data-name="Rectángulo 5545" width="1.175" height="3.572" transform="matrix(-0.838, -0.546, 0.546, -0.838, 29.438, 10.625)" fill="#d1c6c1"/>
              <rect id="Rectángulo_5546" data-name="Rectángulo 5546" width="1.175" height="3.572" transform="translate(6.995 28.681) rotate(-114.655)" fill="#d1c6c1"/>
              <rect id="Rectángulo_5547" data-name="Rectángulo 5547" width="1.175" height="3.572" transform="translate(33.923 16.321) rotate(-114.656)" fill="#d1c6c1"/>
              <rect id="Rectángulo_5548" data-name="Rectángulo 5548" width="1.175" height="3.572" transform="matrix(0.398, -0.918, 0.918, 0.398, 6.372, 15.159)" fill="#d1c6c1"/>
              <rect id="Rectángulo_5549" data-name="Rectángulo 5549" width="1.175" height="3.572" transform="translate(33.557 26.943) rotate(-66.566)" fill="#d1c6c1"/>
              <rect id="Rectángulo_5550" data-name="Rectángulo 5550" width="1.175" height="3.572" transform="translate(12.791 7.291) rotate(-30.97)" fill="#d1c6c1"/>
              <rect id="Rectángulo_5551" data-name="Rectángulo 5551" width="1.175" height="3.572" transform="translate(28.037 32.695) rotate(-30.971)" fill="#d1c6c1"/>
              <circle id="Elipse_381" data-name="Elipse 381" cx="3.181" cy="3.181" r="3.181" transform="translate(18.481 18.481)" fill="#63247d"/>
              <path id="Trazado_101734" data-name="Trazado 101734" d="M5558.78,959.45l-27.123,20.79a19.636,19.636,0,0,1,.96-9.427l16.8-12.879q.812-.069,1.646-.069A19.449,19.449,0,0,1,5558.78,959.45Z" transform="translate(-5529.395 -955.8)" fill="#fff" opacity="0.53"/>
              <path id="Trazado_101735" data-name="Trazado 101735" d="M5568.254,977.345l-30.545,23.419a18.432,18.432,0,0,1-1.227-3.033l29.165-22.352A18.246,18.246,0,0,1,5568.254,977.345Z" transform="translate(-5533.557 -970.311)" fill="#fff" opacity="0.53"/>
              <path id="Trazado_101736" data-name="Trazado 101736" d="M5619.049,1042.1a19.6,19.6,0,0,1-29.181,17.1c10.067-1.387,25.233-6.318,28.175-23.32A19.517,19.517,0,0,1,5619.049,1042.1Z" transform="translate(-5577.79 -1020.437)" opacity="0.07" style="mix-blend-mode: multiply;isolation: isolate"/>
              <g id="Grupo_55760" data-name="Grupo 55760" transform="translate(13.451 10.654)">
                <path id="Trazado_101737" data-name="Trazado 101737" d="M5605.935,1020.061l-7.917-10.892a.764.764,0,0,1,1.236-.9l6.976,9.6,6.529-5.2a.762.762,0,0,1,.95,1.193Z" transform="translate(-5597.873 -1007.96)" fill="#63247d"/>
              </g>
            </g>
            <g id="Grupo_55763" data-name="Grupo 55763" transform="translate(195.762)">
              <circle id="Elipse_382" data-name="Elipse 382" cx="21.662" cy="21.662" r="21.662" fill="#ff9800"/>
              <path id="Trazado_101738" data-name="Trazado 101738" d="M6712.484,977.459a19.591,19.591,0,0,1-37.106,8.794,18.436,18.436,0,0,1-1.227-3.033,19.266,19.266,0,0,1-.663-2.98,19.587,19.587,0,0,1,17.757-22.306q.812-.069,1.646-.069a19.449,19.449,0,0,1,7.72,1.585,19.329,19.329,0,0,1,5.312,3.384,19.49,19.49,0,0,1,6.562,14.625Z" transform="translate(-6671.226 -955.8)" fill="#f2edf4"/>
              <rect id="Rectángulo_5552" data-name="Rectángulo 5552" width="1.175" height="6.478" transform="translate(21.093 3.696)" fill="#d1c6c1"/>
              <rect id="Rectángulo_5553" data-name="Rectángulo 5553" width="1.175" height="6.478" transform="translate(21.093 32.751)" fill="#d1c6c1"/>
              <rect id="Rectángulo_5554" data-name="Rectángulo 5554" width="1.175" height="6.478" transform="translate(3.914 22.05) rotate(-90)" fill="#d1c6c1"/>
              <rect id="Rectángulo_5555" data-name="Rectángulo 5555" width="1.175" height="6.478" transform="translate(32.969 22.05) rotate(-90)" fill="#d1c6c1"/>
              <rect id="Rectángulo_5556" data-name="Rectángulo 5556" width="1.175" height="3.572" transform="matrix(-0.838, -0.546, 0.546, -0.838, 13.272, 35.454)" fill="#d1c6c1"/>
              <rect id="Rectángulo_5557" data-name="Rectángulo 5557" width="1.175" height="3.572" transform="matrix(-0.838, -0.546, 0.546, -0.838, 29.438, 10.624)" fill="#d1c6c1"/>
              <rect id="Rectángulo_5558" data-name="Rectángulo 5558" width="1.175" height="3.572" transform="translate(6.995 28.681) rotate(-114.655)" fill="#d1c6c1"/>
              <rect id="Rectángulo_5559" data-name="Rectángulo 5559" width="1.175" height="3.572" transform="translate(33.923 16.321) rotate(-114.656)" fill="#d1c6c1"/>
              <rect id="Rectángulo_5560" data-name="Rectángulo 5560" width="1.175" height="3.572" transform="matrix(0.398, -0.918, 0.918, 0.398, 6.373, 15.159)" fill="#d1c6c1"/>
              <rect id="Rectángulo_5561" data-name="Rectángulo 5561" width="1.175" height="3.572" transform="translate(33.557 26.943) rotate(-66.566)" fill="#d1c6c1"/>
              <rect id="Rectángulo_5562" data-name="Rectángulo 5562" width="1.175" height="3.572" transform="translate(12.791 7.291) rotate(-30.97)" fill="#d1c6c1"/>
              <rect id="Rectángulo_5563" data-name="Rectángulo 5563" width="1.175" height="3.572" transform="translate(28.038 32.695) rotate(-30.971)" fill="#d1c6c1"/>
              <circle id="Elipse_383" data-name="Elipse 383" cx="3.181" cy="3.181" r="3.181" transform="translate(18.481 18.481)" fill="#63247d"/>
              <path id="Trazado_101739" data-name="Trazado 101739" d="M6700.611,959.45l-27.123,20.79a19.63,19.63,0,0,1,.96-9.427l16.8-12.879q.812-.069,1.646-.069A19.449,19.449,0,0,1,6700.611,959.45Z" transform="translate(-6671.226 -955.8)" fill="#fff" opacity="0.53"/>
              <path id="Trazado_101740" data-name="Trazado 101740" d="M6710.085,977.345l-30.545,23.419a18.477,18.477,0,0,1-1.227-3.033l29.166-22.352A18.246,18.246,0,0,1,6710.085,977.345Z" transform="translate(-6675.388 -970.311)" fill="#fff" opacity="0.53"/>
              <path id="Trazado_101741" data-name="Trazado 101741" d="M6760.88,1042.1a19.6,19.6,0,0,1-29.181,17.1c10.067-1.387,25.233-6.318,28.175-23.32A19.517,19.517,0,0,1,6760.88,1042.1Z" transform="translate(-6719.621 -1020.437)" opacity="0.07" style="mix-blend-mode: multiply;isolation: isolate"/>
              <g id="Grupo_55762" data-name="Grupo 55762" transform="translate(11.314 19.701)">
                <path id="Trazado_101742" data-name="Trazado 101742" d="M6735.546,1075.559a.676.676,0,0,1-.1-.007.76.76,0,0,1-.66-.85l1.473-11.781-8.321-.668a.764.764,0,0,1-.7-.822.738.738,0,0,1,.822-.7l9.908.8-1.672,13.363A.761.761,0,0,1,6735.546,1075.559Z" transform="translate(-6727.241 -1060.732)" fill="#63247d"/>
              </g>
            </g>
            <g id="Grupo_55765" data-name="Grupo 55765" transform="translate(97.881)">
              <circle id="Elipse_384" data-name="Elipse 384" cx="21.662" cy="21.662" r="21.662" fill="#ff9800"/>
              <path id="Trazado_101743" data-name="Trazado 101743" d="M6141.569,977.459a19.591,19.591,0,0,1-37.106,8.794,18.436,18.436,0,0,1-1.227-3.033,19.266,19.266,0,0,1-.663-2.98,19.586,19.586,0,0,1,17.757-22.306q.812-.069,1.646-.069a19.449,19.449,0,0,1,7.72,1.585,19.321,19.321,0,0,1,5.312,3.384,19.5,19.5,0,0,1,6.562,14.625Z" transform="translate(-6100.31 -955.8)" fill="#f2edf4"/>
              <rect id="Rectángulo_5564" data-name="Rectángulo 5564" width="1.175" height="6.478" transform="translate(21.093 3.696)" fill="#d1c6c1"/>
              <rect id="Rectángulo_5565" data-name="Rectángulo 5565" width="1.175" height="6.478" transform="translate(21.093 32.751)" fill="#d1c6c1"/>
              <rect id="Rectángulo_5566" data-name="Rectángulo 5566" width="1.175" height="6.478" transform="translate(3.914 22.05) rotate(-90)" fill="#d1c6c1"/>
              <rect id="Rectángulo_5567" data-name="Rectángulo 5567" width="1.175" height="6.478" transform="translate(32.969 22.05) rotate(-90)" fill="#d1c6c1"/>
              <rect id="Rectángulo_5568" data-name="Rectángulo 5568" width="1.175" height="3.572" transform="matrix(-0.838, -0.546, 0.546, -0.838, 13.272, 35.454)" fill="#d1c6c1"/>
              <rect id="Rectángulo_5569" data-name="Rectángulo 5569" width="1.175" height="3.572" transform="matrix(-0.838, -0.546, 0.546, -0.838, 29.438, 10.624)" fill="#d1c6c1"/>
              <rect id="Rectángulo_5570" data-name="Rectángulo 5570" width="1.175" height="3.572" transform="translate(6.995 28.681) rotate(-114.655)" fill="#d1c6c1"/>
              <rect id="Rectángulo_5571" data-name="Rectángulo 5571" width="1.175" height="3.572" transform="translate(33.923 16.321) rotate(-114.656)" fill="#d1c6c1"/>
              <rect id="Rectángulo_5572" data-name="Rectángulo 5572" width="1.175" height="3.572" transform="matrix(0.398, -0.918, 0.918, 0.398, 6.372, 15.159)" fill="#d1c6c1"/>
              <rect id="Rectángulo_5573" data-name="Rectángulo 5573" width="1.175" height="3.572" transform="translate(33.557 26.943) rotate(-66.566)" fill="#d1c6c1"/>
              <rect id="Rectángulo_5574" data-name="Rectángulo 5574" width="1.175" height="3.572" transform="translate(12.791 7.291) rotate(-30.97)" fill="#d1c6c1"/>
              <rect id="Rectángulo_5575" data-name="Rectángulo 5575" width="1.175" height="3.572" transform="translate(28.037 32.695) rotate(-30.971)" fill="#d1c6c1"/>
              <circle id="Elipse_385" data-name="Elipse 385" cx="3.181" cy="3.181" r="3.181" transform="translate(18.481 18.481)" fill="#63247d"/>
              <path id="Trazado_101744" data-name="Trazado 101744" d="M6129.7,959.45l-27.123,20.79a19.636,19.636,0,0,1,.96-9.427l16.8-12.879q.812-.069,1.646-.069A19.449,19.449,0,0,1,6129.7,959.45Z" transform="translate(-6100.31 -955.8)" fill="#fff" opacity="0.53"/>
              <path id="Trazado_101745" data-name="Trazado 101745" d="M6139.17,977.345l-30.545,23.419a18.432,18.432,0,0,1-1.227-3.033l29.165-22.352A18.246,18.246,0,0,1,6139.17,977.345Z" transform="translate(-6104.473 -970.311)" fill="#fff" opacity="0.53"/>
              <path id="Trazado_101746" data-name="Trazado 101746" d="M6189.964,1042.1a19.6,19.6,0,0,1-29.18,17.1c10.067-1.387,25.232-6.318,28.175-23.32A19.517,19.517,0,0,1,6189.964,1042.1Z" transform="translate(-6148.706 -1020.437)" opacity="0.07" style="mix-blend-mode: multiply;isolation: isolate"/>
              <g id="Grupo_55764" data-name="Grupo 55764" transform="translate(20.475 7.84)">
                <path id="Trazado_101747" data-name="Trazado 101747" d="M6219.717,1005.954h-.019l-9.937-.266.955-13.434a.805.805,0,0,1,.813-.706.763.763,0,0,1,.708.815l-.841,11.842,8.34.223a.763.763,0,0,1-.019,1.525Z" transform="translate(-6209.762 -991.548)" fill="#63247d"/>
              </g>
            </g>
          </g>
          <g id="Grupo_55777" data-name="Grupo 55777" transform="translate(227.931 20.627)">
            <g id="Grupo_55770" data-name="Grupo 55770" transform="translate(64.88)">
              <path id="Trazado_101753" data-name="Trazado 101753" d="M6207.782,418.252l6.936,14.055,15.511,2.254-11.223,10.94,2.649,15.448-13.873-7.293-13.873,7.293,2.649-15.448-11.223-10.94,15.51-2.254Z" transform="translate(-6185.335 -418.252)" fill="#ff9800"/>
              <path id="Trazado_101754" data-name="Trazado 101754" d="M6260.416,519.925l2.64,15.471-13.864-7.311L6235.3,535.4l1.092-6.4,10.042-5.248,13.863,7.281-2.639-15.441,7.675-7.493,6.31.91Z" transform="translate(-6226.732 -492.691)" opacity="0.81" style="mix-blend-mode: overlay;isolation: isolate"/>
              <g id="Grupo_55769" data-name="Grupo 55769" transform="translate(10.836 9.599)" opacity="0.53">
                <path id="Trazado_101755" data-name="Trazado 101755" d="M6248.539,483.622c1.675.226,3.328.435,4.955.534,1.559.007,3.4.1,4.293-.7l.15-.135.094-.009a4.618,4.618,0,0,0,.729-1.644,24.27,24.27,0,0,0,.485-2.412c.325-1.642.542-3.32.9-5.01a23.625,23.625,0,0,1,.341,5.151,19.454,19.454,0,0,1-.347,2.606c-.308.845-.155,1.861-1.631,2.687l.243-.143a4.621,4.621,0,0,1-2.772.9,10.086,10.086,0,0,1-2.616-.217A18.784,18.784,0,0,1,6248.539,483.622Z" transform="translate(-6248.539 -474.24)" fill="#fff"/>
              </g>
            </g>
            <g id="Grupo_55772" data-name="Grupo 55772">
              <path id="Trazado_101756" data-name="Trazado 101756" d="M5829.353,418.252l6.937,14.055,15.511,2.254-11.224,10.94,2.649,15.448-13.873-7.293-13.873,7.293,2.649-15.448-11.223-10.94,15.51-2.254Z" transform="translate(-5806.906 -418.252)" fill="#ff9800"/>
              <path id="Trazado_101757" data-name="Trazado 101757" d="M5881.987,519.925l2.639,15.471-13.863-7.311-13.894,7.311,1.092-6.4L5868,523.748l13.863,7.281-2.639-15.441,7.675-7.493,6.31.91Z" transform="translate(-5848.303 -492.691)" opacity="0.81" style="mix-blend-mode: overlay;isolation: isolate"/>
              <g id="Grupo_55771" data-name="Grupo 55771" transform="translate(10.836 9.599)" opacity="0.53">
                <path id="Trazado_101758" data-name="Trazado 101758" d="M5870.109,483.622c1.675.226,3.328.435,4.956.534,1.559.007,3.4.1,4.293-.7l.15-.135.094-.009a4.623,4.623,0,0,0,.729-1.644,24.132,24.132,0,0,0,.485-2.412c.324-1.642.543-3.32.9-5.01a23.685,23.685,0,0,1,.34,5.151,19.371,19.371,0,0,1-.346,2.606c-.308.845-.157,1.861-1.631,2.687l.243-.143a4.622,4.622,0,0,1-2.772.9,10.093,10.093,0,0,1-2.617-.217A18.79,18.79,0,0,1,5870.109,483.622Z" transform="translate(-5870.109 -474.24)" fill="#fff"/>
              </g>
            </g>
            <g id="Grupo_55774" data-name="Grupo 55774" transform="translate(191.038)">
              <path id="Trazado_101759" data-name="Trazado 101759" d="M6943.635,418.252l6.937,14.055,15.511,2.254-11.224,10.94,2.649,15.448-13.873-7.293-13.873,7.293,2.649-15.448-11.224-10.94,15.511-2.254Z" transform="translate(-6921.188 -418.252)" fill="#ff9800"/>
              <path id="Trazado_101760" data-name="Trazado 101760" d="M6996.27,519.925l2.64,15.471-13.864-7.311-13.894,7.311,1.092-6.4,10.041-5.248,13.863,7.281-2.639-15.441,7.675-7.493,6.31.91Z" transform="translate(-6962.586 -492.691)" opacity="0.81" style="mix-blend-mode: overlay;isolation: isolate"/>
              <g id="Grupo_55773" data-name="Grupo 55773" transform="translate(10.836 9.599)" opacity="0.53">
                <path id="Trazado_101761" data-name="Trazado 101761" d="M6984.392,483.622c1.674.226,3.327.435,4.956.534,1.558.007,3.4.1,4.292-.7l.15-.135.095-.009a4.623,4.623,0,0,0,.729-1.644,24.27,24.27,0,0,0,.484-2.412c.324-1.642.543-3.32.905-5.01a23.685,23.685,0,0,1,.34,5.151A19.375,19.375,0,0,1,6996,482c-.308.845-.155,1.861-1.631,2.687l.243-.143a4.621,4.621,0,0,1-2.772.9,10.087,10.087,0,0,1-2.616-.217A18.778,18.778,0,0,1,6984.392,483.622Z" transform="translate(-6984.392 -474.24)" fill="#fff"/>
              </g>
            </g>
            <g id="Grupo_55776" data-name="Grupo 55776" transform="translate(126.159)">
              <path id="Trazado_101762" data-name="Trazado 101762" d="M6565.207,418.252l6.937,14.055,15.51,2.254-11.223,10.94,2.649,15.448-13.873-7.293-13.873,7.293,2.649-15.448-11.224-10.94,15.511-2.254Z" transform="translate(-6542.76 -418.252)" fill="#ff9800"/>
              <path id="Trazado_101763" data-name="Trazado 101763" d="M6617.841,519.925l2.639,15.471-13.863-7.311-13.894,7.311,1.092-6.4,10.041-5.248,13.863,7.281-2.639-15.441,7.675-7.493,6.31.91Z" transform="translate(-6584.158 -492.691)" opacity="0.81" style="mix-blend-mode: overlay;isolation: isolate"/>
              <g id="Grupo_55775" data-name="Grupo 55775" transform="translate(10.836 9.599)" opacity="0.53">
                <path id="Trazado_101764" data-name="Trazado 101764" d="M6605.965,483.622c1.674.226,3.328.435,4.955.534,1.559.007,3.4.1,4.293-.7l.15-.135.095-.009a4.63,4.63,0,0,0,.729-1.644,23.994,23.994,0,0,0,.484-2.412c.325-1.642.543-3.32.9-5.01a23.564,23.564,0,0,1,.34,5.151,19.215,19.215,0,0,1-.346,2.606c-.308.845-.156,1.861-1.631,2.687l.243-.143a4.622,4.622,0,0,1-2.772.9,10.089,10.089,0,0,1-2.616-.217A18.778,18.778,0,0,1,6605.965,483.622Z" transform="translate(-6605.965 -474.24)" fill="#fff"/>
              </g>
            </g>
          </g>
          <g id="Grupo_55782" data-name="Grupo 55782" transform="translate(35.932)">
            <g id="Grupo_55778" data-name="Grupo 55778" transform="translate(47.782)">
              <rect id="Rectángulo_5590" data-name="Rectángulo 5590" width="2.537" height="88.898" fill="#ff9800"/>
            </g>
            <g id="Grupo_55779" data-name="Grupo 55779" transform="translate(49.083)" opacity="0.997" style="mix-blend-mode: overlay;isolation: isolate">
              <rect id="Rectángulo_5591" data-name="Rectángulo 5591" width="1.235" height="88.898" fill="#ff9800"/>
            </g>
            <path id="Trazado_101765" data-name="Trazado 101765" d="M4942.959,811.716h-15.741c0-7.762,3.526-9.323,7.864-9.323S4942.959,803.953,4942.959,811.716Z" transform="translate(-4886.037 -715.907)" fill="url(#linear-gradient-3)"/>
            <path id="Trazado_101766" data-name="Trazado 101766" d="M4976.639,811.716c.419-8.042-3.551-9.323-3.551-9.323,4.351,0,7.877,1.56,7.877,9.323Z" transform="translate(-4924.042 -715.907)" opacity="0.2" style="mix-blend-mode: overlay;isolation: isolate"/>
            <g id="Grupo_55780" data-name="Grupo 55780" transform="translate(43.431 87.573)" opacity="0.57">
              <path id="Trazado_101767" data-name="Trazado 101767" d="M4944.747,808.731a11.609,11.609,0,0,0-4.229,6.659,5.226,5.226,0,0,1-.105-2.168,6,6,0,0,1,.779-2.079A5.254,5.254,0,0,1,4944.747,808.731Z" transform="translate(-4940.341 -808.731)" fill="#fff"/>
            </g>
            <path id="Trazado_101768" data-name="Trazado 101768" d="M4924.938,975.687a11.284,11.284,0,0,0,11.086-11.472h-22.172A11.284,11.284,0,0,0,4924.938,975.687Z" transform="translate(-4874.962 -849.985)" fill="#fff"/>
            <path id="Trazado_101769" data-name="Trazado 101769" d="M4792.691,868.523h-94.154c0-13.965,21.068-25.292,47.083-25.292a84.936,84.936,0,0,1,13.572,1.066h.013C4778.586,847.43,4792.691,857.095,4792.691,868.523Z" transform="translate(-4696.562 -749.743)" fill="#ff9800"/>
            <path id="Trazado_101770" data-name="Trazado 101770" d="M5020.232,868.523h-8.067c-4.236-17.035-37.9-25.038-38.978-25.279-.013,0-.013-.013-.025-.013a84.927,84.927,0,0,1,13.572,1.066h.013C5006.128,847.43,5020.232,857.095,5020.232,868.523Z" transform="translate(-4924.104 -749.743)" opacity="0.2" style="mix-blend-mode: overlay;isolation: isolate"/>
            <path id="Trazado_101771" data-name="Trazado 101771" d="M5006.289,868.584H4997a90.422,90.422,0,0,0-23.694-25.279C4974.186,843.7,5000.479,855.723,5006.289,868.584Z" transform="translate(-4924.227 -749.805)" opacity="0.2" style="mix-blend-mode: overlay;isolation: isolate"/>
            <g id="Grupo_55781" data-name="Grupo 55781" transform="translate(11 96.24)" opacity="0.57">
              <path id="Trazado_101772" data-name="Trazado 101772" d="M4751.176,878.154c3.046-5.709,8.307-9.945,13.861-13.144a51.9,51.9,0,0,1,8.91-3.736,54.79,54.79,0,0,1,9.414-1.988,72.231,72.231,0,0,0-17.834,6.611,49.056,49.056,0,0,0-7.841,5.326A35.313,35.313,0,0,0,4751.176,878.154Z" transform="translate(-4751.176 -859.286)" fill="#fff"/>
            </g>
            <rect id="Rectángulo_5592" data-name="Rectángulo 5592" width="97.648" height="1.657" transform="translate(0 118.308)" fill="url(#linear-gradient-4)"/>
          </g>
          <g id="Grupo_55829" data-name="Grupo 55829" transform="translate(493.932)">
            <g id="Grupo_55778-2" data-name="Grupo 55778" transform="translate(47.782)">
              <rect id="Rectángulo_5590-2" data-name="Rectángulo 5590" width="2.537" height="88.898" fill="#ff9800"/>
            </g>
            <g id="Grupo_55779-2" data-name="Grupo 55779" transform="translate(49.083)" opacity="0.997" style="mix-blend-mode: overlay;isolation: isolate">
              <rect id="Rectángulo_5591-2" data-name="Rectángulo 5591" width="1.235" height="88.898" fill="#ff9800"/>
            </g>
            <path id="Trazado_101765-2" data-name="Trazado 101765" d="M4942.959,811.716h-15.741c0-7.762,3.526-9.323,7.864-9.323S4942.959,803.953,4942.959,811.716Z" transform="translate(-4886.037 -715.907)" fill="url(#linear-gradient-3)"/>
            <path id="Trazado_101766-2" data-name="Trazado 101766" d="M4976.639,811.716c.419-8.042-3.551-9.323-3.551-9.323,4.351,0,7.877,1.56,7.877,9.323Z" transform="translate(-4924.042 -715.907)" opacity="0.2" style="mix-blend-mode: overlay;isolation: isolate"/>
            <g id="Grupo_55780-2" data-name="Grupo 55780" transform="translate(43.431 87.573)" opacity="0.57">
              <path id="Trazado_101767-2" data-name="Trazado 101767" d="M4944.747,808.731a11.609,11.609,0,0,0-4.229,6.659,5.226,5.226,0,0,1-.105-2.168,6,6,0,0,1,.779-2.079A5.254,5.254,0,0,1,4944.747,808.731Z" transform="translate(-4940.341 -808.731)" fill="#fff"/>
            </g>
            <path id="Trazado_101768-2" data-name="Trazado 101768" d="M4924.938,975.687a11.284,11.284,0,0,0,11.086-11.472h-22.172A11.284,11.284,0,0,0,4924.938,975.687Z" transform="translate(-4874.962 -849.985)" fill="#fff"/>
            <path id="Trazado_101769-2" data-name="Trazado 101769" d="M4792.691,868.523h-94.154c0-13.965,21.068-25.292,47.083-25.292a84.936,84.936,0,0,1,13.572,1.066h.013C4778.586,847.43,4792.691,857.095,4792.691,868.523Z" transform="translate(-4696.562 -749.743)" fill="#ff9800"/>
            <path id="Trazado_101770-2" data-name="Trazado 101770" d="M5020.232,868.523h-8.067c-4.236-17.035-37.9-25.038-38.978-25.279-.013,0-.013-.013-.025-.013a84.927,84.927,0,0,1,13.572,1.066h.013C5006.128,847.43,5020.232,857.095,5020.232,868.523Z" transform="translate(-4924.104 -749.743)" opacity="0.2" style="mix-blend-mode: overlay;isolation: isolate"/>
            <path id="Trazado_101771-2" data-name="Trazado 101771" d="M5006.289,868.584H4997a90.422,90.422,0,0,0-23.694-25.279C4974.186,843.7,5000.479,855.723,5006.289,868.584Z" transform="translate(-4924.227 -749.805)" opacity="0.2" style="mix-blend-mode: overlay;isolation: isolate"/>
            <g id="Grupo_55781-2" data-name="Grupo 55781" transform="translate(11 96.24)" opacity="0.57">
              <path id="Trazado_101772-2" data-name="Trazado 101772" d="M4751.176,878.154c3.046-5.709,8.307-9.945,13.861-13.144a51.9,51.9,0,0,1,8.91-3.736,54.79,54.79,0,0,1,9.414-1.988,72.231,72.231,0,0,0-17.834,6.611,49.056,49.056,0,0,0-7.841,5.326A35.313,35.313,0,0,0,4751.176,878.154Z" transform="translate(-4751.176 -859.286)" fill="#fff"/>
            </g>
            <rect id="Rectángulo_5592-2" data-name="Rectángulo 5592" width="97.648" height="1.657" transform="translate(0 118.308)" fill="url(#linear-gradient-4)"/>
          </g>
        </g>
        <g id="Grupo_55794" data-name="Grupo 55794" transform="translate(4904.524 428.761)">
          <path id="Trazado_101781" data-name="Trazado 101781" d="M7024.855,2872.5s2.919-2.458,6.146-9.986,4.763-10.907,5.224-13.365.921-10.754.921-10.754l13.98-.922s-2.133,9.394-.154,11.676-2.3,13.519-2.3,13.519l-16.745,14.133-8.6,2.458Z" transform="translate(-7013.927 -2532.901)" fill="#f29651"/>
          <path id="Trazado_101782" data-name="Trazado 101782" d="M7458.732,2910.106c0,3.244-4.608,6.766-8.756,7.687-3.227.608-10.288-1.088-12.592-4.775-1.383-2.212.166-9.549,1.622-16.039v-.019c.977-4.332,1.917-8.277,1.917-10.047a58.952,58.952,0,0,0-1.548-10.914h11.982v7.982a27.314,27.314,0,0,0,2.3,12.149c.295.645.626,1.327.977,2.028C7456.465,2901.847,7458.751,2906.234,7458.732,2910.106Z" transform="translate(-7356.557 -2564.825)" fill="#f29651"/>
          <path id="Trazado_101783" data-name="Trazado 101783" d="M7458.732,3011.493c0,3.245-4.608,6.766-8.756,7.688-3.227.608-10.288-1.088-12.592-4.775-1.383-2.212.166-9.549,1.622-16.038a24.665,24.665,0,0,1,.534,4.83c.147,3.54,5.531,5.678,11.062,4.609s3.171-6.858,4.037-8.259C7456.465,3003.234,7458.751,3007.621,7458.732,3011.493Z" transform="translate(-7356.557 -2666.212)" fill="#63247d"/>
          <path id="Trazado_101784" data-name="Trazado 101784" d="M6979.467,2928.922s-10.139,2.612-10.907,7.682,20,2.7,21.2,2.458c3.841-.768,8.6-15.363,11.522-15.977v15.823h4.762s-1.075-14.594,0-19.51,5.07-9.064-.461-13.826c0,0-5.223,6.606-7.066,8.3s-7.6,12.29-10.023,14.9S6979.16,2930.919,6979.467,2928.922Z" transform="translate(-6968.539 -2589.325)" fill="#63247d"/>
          <path id="Trazado_101785" data-name="Trazado 101785" d="M7110.5,1869.8s-12.683,53.43-14.065,77.52-3.227,93.391-3.227,93.391H7110.5s14.183-39.668,12.051-71.743c1.775-10.337,14.675-54.691,14.675-54.691s4.391,40.788,6.218,56.841c1.985,17.442,8.564,69.592,8.564,69.592h16.507s-1.2-66.491,0-85.455,4.934-54.516,3.65-68.448-6.36-18.88-6.36-18.88S7115.353,1860.435,7110.5,1869.8Z" transform="translate(-7071.837 -1727.23)" fill="url(#linear-gradient-7)"/>
          <path id="Trazado_101786" data-name="Trazado 101786" d="M7275.99,1291.42c-24.26,16.168-39.874,0-39.874,0s8.757-13.494,9.992-14.342a2.354,2.354,0,0,0,.682-.774,4.5,4.5,0,0,0,.387-.848c1.42-3.927.443-12.573.443-12.573h14.435c-.425,6.415.46,10.213,1.807,12.352.092.147.184.295.294.442a.057.057,0,0,0,.019.037l.222.276C7265.133,1276.857,7275.99,1291.42,7275.99,1291.42Z" transform="translate(-7190.241 -1228.268)" fill="#f4b47a"/>
          <path id="Trazado_101787" data-name="Trazado 101787" d="M7262.4,1340.422l9.028,10.652,9.26-11.74s12.853,25.8,11.58,33.287-19.93,22.121-19.93,22.121-15.165-16.129-16.421-22.121S7262.4,1340.422,7262.4,1340.422Z" transform="translate(-7206.537 -1291.612)" fill="#fff"/>
          <g id="Grupo_55789" data-name="Grupo 55789" transform="translate(63.702 58.998)">
            <path id="Trazado_101788" data-name="Trazado 101788" d="M7341.675,1446.184a.463.463,0,0,1-.461-.425c-.019-.295-2.229-29.458-.38-40.265a.463.463,0,0,1,.913.157c-1.834,10.695.366,39.744.39,40.036a.461.461,0,0,1-.428.494A.152.152,0,0,1,7341.675,1446.184Z" transform="translate(-7340.097 -1405.108)" fill="#63247d"/>
          </g>
          <path id="Trazado_101789" data-name="Trazado 101789" d="M7217.4,1390.475c.055,4.978,8.7,42.142,6.95,47.452-12.093,3.613-42.437,7.743-62.365-1.677,0-8.259,11.835-30.8,13.015-37.681,1.18-6.895-19.006-48.078-15.356-52.189,4.627-5.235,22.73-7.319,22.73-7.319s-4.184,19.781-.239,28.519c3.834,8.48,9.144,18.675,9.476,19.3,0,.018,0,.018.018.037l.037-.037c.516-.9,9.7-16.739,10.194-21.219.516-4.609-1.419-27.984-1.419-27.984s17.532,3.153,24.187,9.273C7222.983,1351.079,7217.342,1385.5,7217.4,1390.475Z" transform="translate(-7126.511 -1290.239)" fill="#ff9300"/>
          <path id="Trazado_101790" data-name="Trazado 101790" d="M7317.316,1275.235a33.793,33.793,0,0,1-8.278,1.346,36.53,36.53,0,0,1-8.406-1.125c1.42-3.927.442-12.573.442-12.573h14.435C7315.085,1269.3,7315.97,1273.1,7317.316,1275.235Z" transform="translate(-7243.696 -1228.268)" opacity="0.32" style="mix-blend-mode: overlay;isolation: isolate"/>
          <path id="Trazado_101791" data-name="Trazado 101791" d="M7300.037,1729.935a189.757,189.757,0,0,1-20.241-1.419c-12.628-1.456-24.61-3.632-27.874-4.535l2.747-9.623s10.563,1.125,20.905,1.364c1.327.037,2.636.037,3.927.037,7.577-.018,14.269-.682,15.559-2.8.019-.018.019-.055.037-.074A127.767,127.767,0,0,0,7300.037,1729.935Z" transform="translate(-7203.337 -1601.118)" opacity="0.32" style="mix-blend-mode: overlay;isolation: isolate"/>
          <path id="Trazado_101792" data-name="Trazado 101792" d="M7494.273,1430.123c-.608-4.406,2.876-26.381,5.862-25.791a4.324,4.324,0,0,1,.5.313c-.535,4.48-2.655,12.591-3.687,20.518-.313,2.378-.7,4.609-1.125,6.858a.431.431,0,0,0-.037.147c0,.037-.019.074-.019.111-.2,1.143-.369,2.268-.516,3.355C7494.808,1433.239,7494.421,1431.248,7494.273,1430.123Z" transform="translate(-7404.081 -1345.458)" opacity="0.32" style="mix-blend-mode: overlay;isolation: isolate"/>
          <path id="Trazado_101793" data-name="Trazado 101793" d="M7312.416,1447.35c-3.462,8.135-53.122,3.1-60.538,1.068l2.746-9.613s10.565,1.117,20.911,1.355c9.064.2,17.981-.275,19.482-2.765a10.068,10.068,0,0,0,1.117-4.395c.6-7.324-2.16-19.226-2.637-22.779-.622-4.413.831-28.512,3.763-27.688,5.769,1.621,7.256,2.593,11.344,14.267C7311.856,1406.085,7317.563,1435.252,7312.416,1447.35Z" transform="translate(-7203.301 -1327.388)" fill="#ffee58"/>
          <path id="Trazado_101794" data-name="Trazado 101794" d="M7405.6,1673.38a10.082,10.082,0,0,1-1.117,4.395c-1.5,2.49-10.419,2.966-19.482,2.765l-1.007-2.619a41.387,41.387,0,0,0,8.862-.806c2.362-.513,6.445-3.424,6.94-3.937C7400.51,1672.007,7403.714,1673.032,7405.6,1673.38Z" transform="translate(-7312.766 -1567.768)" fill="#f29651"/>
          <path id="Trazado_101795" data-name="Trazado 101795" d="M7215.289,1511.932c-3.162,3.837-7.74,4.7-11.183,5.893-10.327,3.625-18.279,3.482-24.762,3.445a35.13,35.13,0,0,0,1.355-7.471c.019-.146,2.527-.714,2.527-.842v-.091c.055-11.115-1.868-24.61-2.839-27.832-.806-2.673-3.149-14.649-4.98-24.207,5.566.989,7.563,12.451,7.416,17.029-.146,4.889,1.959,18.219,5.163,19.281,1.759.586,9.431,1.886,15.968,2.929,5.328.861,9.924,1.557,9.924,1.557A99.183,99.183,0,0,1,7215.289,1511.932Z" transform="translate(-7139.941 -1392.276)" opacity="0.32" style="mix-blend-mode: overlay;isolation: isolate"/>
          <path id="Trazado_101796" data-name="Trazado 101796" d="M7196.669,1610.228s-8.068-1.183-7.568-4.827,4.1-13.425,3.99-17.049-.038-9.62.865-10.6,3.474,6.206,4.877,9.708-.287,9.218-1.841,12.85c-.1,2.346,2.861,3.843,2.861,3.843Z" transform="translate(-7151.268 -1489.082)" fill="#f29651"/>
          <path id="Trazado_101797" data-name="Trazado 101797" d="M7101.992,1388.383s-2.441,1.454-4.327,6.561c-2.251,6.1-13.831,54.322-4.371,59.2s22.558,5.609,51.782-2.479c0,0-1.313-5.494-2.27-10.072,0,0-28.445-.675-31.649-1.743s1.108-2.435-.342-22.684C7110.375,1411.025,7108.4,1387.925,7101.992,1388.383Z" transform="translate(-7068.869 -1332.246)" fill="#ffee58"/>
          <path id="Trazado_101798" data-name="Trazado 101798" d="M7300.26,1148.756c0,8.136-5.044,16.74-12.208,16.74s-12.209-8.6-12.209-16.74,5.045-12.053,12.209-12.053S7300.26,1140.62,7300.26,1148.756Z" transform="translate(-7223.157 -1123.721)" fill="#f4b47a"/>
          <path id="Trazado_101799" data-name="Trazado 101799" d="M7292.816,1339.089l8.874,10,9.194-11.364s.237,12.9-2.99,16.817l-6.068-3.793-5.819,3.793S7291.223,1342.988,7292.816,1339.089Z" transform="translate(-7236.951 -1290.277)" fill="#cdabdd"/>
          <path id="Trazado_101800" data-name="Trazado 101800" d="M7257.011,1374.261c3.834,8.48,9.144,18.675,9.476,19.3-15.3-16.02-13.07-26.307-13.07-26.307l-3.54,3.3c-2.1-7.614,7.374-24.813,7.374-24.813S7253.065,1365.523,7257.011,1374.261Z" transform="translate(-7201.39 -1296.922)" fill="#63247d"/>
          <path id="Trazado_101801" data-name="Trazado 101801" d="M7365.438,1364.758l-2.987-4.185c.793,13.789-13.052,25.606-13.9,26.307.516-.9,9.7-16.739,10.194-21.219.517-4.609-1.419-27.984-1.419-27.984C7362.71,1341,7365.438,1364.758,7365.438,1364.758Z" transform="translate(-7283.4 -1290.239)" fill="#63247d"/>
          <path id="Trazado_101802" data-name="Trazado 101802" d="M7413.4,1196.2s3.55-4.858,3.323-.23-2.056,8.823-3.793,5.972Z" transform="translate(-7336.744 -1171.171)" fill="#f4b47a"/>
          <path id="Trazado_101803" data-name="Trazado 101803" d="M7265.476,1196.2s-3.551-4.858-3.324-.23,2.056,8.823,3.794,5.972Z" transform="translate(-7211.805 -1171.171)" fill="#f4b47a"/>
          <path id="Trazado_101804" data-name="Trazado 101804" d="M7291.358,1076.566l-17.642-.829s-4.092-1.991-5.641-4.9h-.019c-.977-1.88-.922-4.148,1.973-6.489,0,0,3-4.148,12.683-3.226a23.9,23.9,0,0,1,7.319,1.659c2.857,1.272,3.226,2.71,3.226,2.71S7300,1071.515,7291.358,1076.566Z" transform="translate(-7216.234 -1060.984)" fill="#111e61"/>
          <path id="Trazado_101805" data-name="Trazado 101805" d="M7294.2,1085.23l-17.643-.83s-4.092-1.991-5.641-4.9c2.3-3.042,8.58-4.876,12.875-4.194,5.77.922,9.8,3.065,10.91,1.037.793-1.419-.833-3.3-1.829-4.9,2.857,1.272,3.226,2.71,3.226,2.71S7302.846,1080.179,7294.2,1085.23Z" transform="translate(-7219.075 -1069.648)" opacity="0.29" style="mix-blend-mode: overlay;isolation: isolate"/>
          <path id="Trazado_101806" data-name="Trazado 101806" d="M7274.074,1115.46s-.308.933-4.85,4.9c-3.561,3.111-10.225,3.51-11.1,5.348a21.029,21.029,0,0,1-2.335-6.407c0-4.554,1.594-6.026,1.594-6.026s-1.521-4.219,3.722-6.683c8.2-3.856,18.992-4.473,23.831,3.64s0,16.836,0,16.836a28.149,28.149,0,0,0-4.784-4.741C7275.437,1118.82,7276.259,1118.126,7274.074,1115.46Z" transform="translate(-7206.538 -1096.502)" fill="#111e61"/>
          <g id="Grupo_55791" data-name="Grupo 55791" transform="translate(52.225 30.827)">
            <path id="Trazado_101807" data-name="Trazado 101807" d="M7276.112,1242.6a1.675,1.675,0,0,1-1.479,1.812,1.306,1.306,0,0,1-.388-.062,1.8,1.8,0,0,1-1.091-1.75,1.669,1.669,0,0,1,1.479-1.812,1.314,1.314,0,0,1,.875.348v.008A1.949,1.949,0,0,1,7276.112,1242.6Z" transform="translate(-7273.155 -1240.791)" fill="#662d91"/>
            <path id="Trazado_101808" data-name="Trazado 101808" d="M7281.388,1244.324a1.675,1.675,0,0,1-1.479,1.812,1.3,1.3,0,0,1-.387-.062,3.3,3.3,0,0,0,1.262-3.205A1.947,1.947,0,0,1,7281.388,1244.324Z" transform="translate(-7278.43 -1242.512)" opacity="0.5" style="mix-blend-mode: overlay;isolation: isolate"/>
            <g id="Grupo_55790" data-name="Grupo 55790" transform="translate(0.452 0.738)" opacity="0.59" style="mix-blend-mode: soft-light;isolation: isolate">
              <path id="Trazado_101809" data-name="Trazado 101809" d="M7276.987,1245.13c-.182.441-.461.593-.453.893-.229.193-.131.442-.257.913-.471-.172-.55-.734-.448-1.228C7276.147,1245.326,7276.5,1244.991,7276.987,1245.13Z" transform="translate(-7275.79 -1245.098)" fill="#fff"/>
            </g>
          </g>
          <path id="Trazado_101810" data-name="Trazado 101810" d="M7279.922,1183.276c-1.292,3.632-1.726,7.6.41,10.445,1.012,1.382,2.493,3.873,1.413,6.068a11.521,11.521,0,0,1-1.731,2.519,2.707,2.707,0,0,0-1,2.436c-.67-.856-.177-2.105.245-2.932a11.054,11.054,0,0,0,1.148-2.492c.461-1.643-.354-2.989-1.6-4.573a8.917,8.917,0,0,1-1.372-6.062A10.438,10.438,0,0,1,7279.922,1183.276Z" transform="translate(-7224.402 -1162.31)" fill="#63247d"/>
          <g id="Grupo_55793" data-name="Grupo 55793" transform="translate(74.71 30.24)">
            <path id="Trazado_101811" data-name="Trazado 101811" d="M7407.265,1239.178a1.675,1.675,0,0,1-1.479,1.812,1.311,1.311,0,0,1-.387-.062,1.8,1.8,0,0,1-1.092-1.75,1.67,1.67,0,0,1,1.479-1.812,1.312,1.312,0,0,1,.875.348v.008A1.948,1.948,0,0,1,7407.265,1239.178Z" transform="translate(-7404.307 -1237.366)" fill="#662d91"/>
            <path id="Trazado_101812" data-name="Trazado 101812" d="M7412.54,1240.9a1.675,1.675,0,0,1-1.479,1.812,1.31,1.31,0,0,1-.388-.062,3.3,3.3,0,0,0,1.262-3.205A1.946,1.946,0,0,1,7412.54,1240.9Z" transform="translate(-7409.583 -1239.087)" opacity="0.5" style="mix-blend-mode: overlay;isolation: isolate"/>
            <g id="Grupo_55792" data-name="Grupo 55792" transform="translate(0.452 0.739)" opacity="0.59" style="mix-blend-mode: soft-light;isolation: isolate">
              <path id="Trazado_101813" data-name="Trazado 101813" d="M7408.141,1241.706c-.183.44-.461.592-.452.893-.23.193-.131.442-.258.913-.472-.172-.55-.734-.448-1.228C7407.3,1241.9,7407.651,1241.567,7408.141,1241.706Z" transform="translate(-7406.943 -1241.674)" fill="#fff"/>
            </g>
          </g>
          <path id="Trazado_101814" data-name="Trazado 101814" d="M7412.788,1183.276c-1.291,3.632-1.726,7.6.41,10.445,1.012,1.382,2.492,3.873,1.413,6.068a11.522,11.522,0,0,1-1.731,2.519,2.7,2.7,0,0,0-1,2.436c-.672-.856-.177-2.105.244-2.932a10.99,10.99,0,0,0,1.148-2.492c.461-1.643-.354-2.989-1.6-4.573a8.911,8.911,0,0,1-1.372-6.062A10.43,10.43,0,0,1,7412.788,1183.276Z" transform="translate(-7334.488 -1162.31)" fill="#63247d"/>
        </g>
        <g id="Grupo_55806" data-name="Grupo 55806" transform="translate(4550.012 512.796)">
          <g id="Grupo_55796" data-name="Grupo 55796" transform="translate(357.335)">
            <path id="Trazado_101815" data-name="Trazado 101815" d="M7069.352,1618.375h-77.937a3.718,3.718,0,0,1-3.712-3.5l-2.687-45.471a5.755,5.755,0,0,1,5.856-5.988h79.022a5.753,5.753,0,0,1,5.855,5.988l-2.687,45.471A3.718,3.718,0,0,1,7069.352,1618.375Z" transform="translate(-6985.006 -1561.313)" fill="#b2b0a1"/>
            <path id="Trazado_101816" data-name="Trazado 101816" d="M7075.8,1557.133l-2.918,48.991h-84.935l-2.886-48.991a5.762,5.762,0,0,1,5.834-5.991h79.039a5.854,5.854,0,0,1,4.517,2.1A5.426,5.426,0,0,1,7075.8,1557.133Z" transform="translate(-6985.041 -1551.142)" fill="url(#linear-gradient-4)"/>
            <path id="Trazado_101817" data-name="Trazado 101817" d="M6997,1612.137l-2.8-47.515a3.97,3.97,0,0,1,1.1-2.977,4.361,4.361,0,0,1,3.166-1.354H7077.5a4.262,4.262,0,0,1,3.308,1.535,3.88,3.88,0,0,1,.993,2.787l-2.831,47.525Z" transform="translate(-6992.615 -1558.722)" fill="url(#linear-gradient-3)"/>
            <circle id="Elipse_388" data-name="Elipse 388" cx="3.169" cy="3.169" r="3.169" transform="matrix(0.23, -0.973, 0.973, 0.23, 40.734, 30.567)" fill="#fff"/>
            <path id="Trazado_101818" data-name="Trazado 101818" d="M7113.583,1567.289l-2.917,48.991h-80.011c18.38-7.747,81.893-35.912,81.579-52.88A5.422,5.422,0,0,1,7113.583,1567.289Z" transform="translate(-7022.83 -1561.298)" opacity="0.17" style="mix-blend-mode: overlay;isolation: isolate"/>
            <g id="Grupo_55795" data-name="Grupo 55795" transform="translate(6.579 3.591)" opacity="0.5" style="mix-blend-mode: soft-light;isolation: isolate">
              <path id="Trazado_101819" data-name="Trazado 101819" d="M7023.657,1583.411a15.651,15.651,0,0,1,.106-6.361,7,7,0,0,1,1.542-2.961,5.26,5.26,0,0,1,3.1-1.5c4.28-.5,8.457-.406,12.677-.5,8.418.105,16.828.289,25.221,1.129-8.419.465-16.823.361-25.222.437-4.183-.037-8.43-.093-12.53.13a4.487,4.487,0,0,0-4.056,3.492A17.156,17.156,0,0,0,7023.657,1583.411Z" transform="translate(-7023.383 -1572.088)" fill="#fff"/>
            </g>
          </g>
          <g id="Grupo_55798" data-name="Grupo 55798" transform="translate(0 54.627)">
            <rect id="Rectángulo_5596" data-name="Rectángulo 5596" width="437.494" height="67.181" transform="translate(55.711)" fill="#ff9800"/>
            <rect id="Rectángulo_5597" data-name="Rectángulo 5597" width="437.494" height="26.446" transform="translate(55.711 14.518)" opacity="0.1" style="mix-blend-mode: multiply;isolation: isolate"/>
            <path id="Trazado_101820" data-name="Trazado 101820" d="M5504.554,1983.117l-1.688,8.193-5.456,26.446-33.82,163.921H5027.734l-33.82-163.921-5.456-26.446-1.688-8.193Z" transform="translate(-4972.023 -1963.684)" fill="#ff9800"/>
            <path id="Trazado_101821" data-name="Trazado 101821" d="M7626.146,1983.117l-1.688,8.193L7619,2017.756l-33.82,163.921h-37.818l39.669-198.56Z" transform="translate(-7093.615 -1963.684)" opacity="0.2" style="mix-blend-mode: overlay;isolation: isolate"/>
            <g id="Grupo_55797" data-name="Grupo 55797" transform="translate(405.674 19.433)" opacity="0.2" style="mix-blend-mode: overlay;isolation: isolate">
              <path id="Trazado_101822" data-name="Trazado 101822" d="M7331.923,1983.117l-38.276,198.56h-26.691l38.26-198.56Z" transform="translate(-7266.955 -1983.117)"/>
            </g>
            <path id="Trazado_101823" data-name="Trazado 101823" d="M5511.023,2030.9l-5.457,26.447h-503.5l-5.457-26.447Z" transform="translate(-4980.18 -2003.277)" opacity="0.2" style="mix-blend-mode: overlay;isolation: isolate"/>
            <path id="Trazado_101824" data-name="Trazado 101824" d="M5433.285,2009.549H4915.5l-14.748-26.449h547.278Z" transform="translate(-4900.754 -1963.67)" fill="#ffd494"/>
            <path id="Trazado_101825" data-name="Trazado 101825" d="M4986.77,2009.549s480.916-9.831,494.025-12.289,38.506-14.16,38.506-14.16l-14.747,26.449Z" transform="translate(-4972.023 -1963.67)" opacity="0.11" style="mix-blend-mode: multiply;isolation: isolate"/>
          </g>
          <g id="Grupo_55800" data-name="Grupo 55800" transform="translate(66.822 41.67)">
            <path id="Trazado_101826" data-name="Trazado 101826" d="M5410.84,1796.835h-1.146v-2.069a.572.572,0,0,1,.572-.573h0a.573.573,0,0,1,.573.573Z" transform="translate(-5396.261 -1794.193)" fill="url(#linear-gradient-3)"/>
            <path id="Trazado_101827" data-name="Trazado 101827" d="M5407.162,1800.636H5404.1v-1.11a1.533,1.533,0,0,1,1.533-1.532h0a1.533,1.533,0,0,1,1.532,1.532Z" transform="translate(-5391.624 -1797.342)" fill="url(#linear-gradient-3)"/>
            <path id="Trazado_101828" data-name="Trazado 101828" d="M5375.691,1812.24a3.34,3.34,0,0,1-1.927,3.027,3.288,3.288,0,0,1-1.413.313h-12.5a3.348,3.348,0,0,1-3.348-3.339,4.8,4.8,0,0,1,4.794-4.794h9.6a4.792,4.792,0,0,1,4.793,4.794Z" transform="translate(-5352.193 -1805.174)" fill="url(#linear-gradient-3)"/>
            <path id="Trazado_101829" data-name="Trazado 101829" d="M5422.518,1812.24a3.339,3.339,0,0,1-1.928,3.027c.009-.592.034-1.4.06-2.5.11-4.151-7.626-5.318-7.626-5.318h4.7a4.792,4.792,0,0,1,4.794,4.794Z" transform="translate(-5399.019 -1805.174)" opacity="0.68" style="mix-blend-mode: overlay;isolation: isolate"/>
            <path id="Trazado_101830" data-name="Trazado 101830" d="M5358.43,1843.851h-26.339a.705.705,0,0,1-.646-1.061l2.184-3.383a.775.775,0,0,1,.646-.354h21.972a.774.774,0,0,1,.646.354l2.168,3.383A.694.694,0,0,1,5358.43,1843.851Z" transform="translate(-5331.341 -1831.363)" fill="#8430a7"/>
            <path id="Trazado_101831" data-name="Trazado 101831" d="M5362.055,1845.561h-26.339s22.356-1.215,23.417-1.83c1.046-.6,1.384-2.614,1.384-2.614l2.168,3.383A.694.694,0,0,1,5362.055,1845.561Z" transform="translate(-5334.966 -1833.072)" opacity="0.21" style="mix-blend-mode: overlay;isolation: isolate"/>
            <path id="Rectángulo_5598" data-name="Rectángulo 5598" d="M1.618,0H21.58A1.619,1.619,0,0,1,23.2,1.619v0a0,0,0,0,1,0,0H0a0,0,0,0,1,0,0v0A1.618,1.618,0,0,1,1.618,0Z" transform="translate(2.309 6.341)" fill="#8430a7"/>
            <g id="Grupo_55799" data-name="Grupo 55799" transform="translate(6.327 2.88)" opacity="0.5" style="mix-blend-mode: soft-light;isolation: isolate">
              <path id="Trazado_101832" data-name="Trazado 101832" d="M5368.261,1814.028c-.176-1.258,1.009-2.236,2.04-2.717a6.335,6.335,0,0,1,3.456-.136,16.584,16.584,0,0,0-3.168.87A3.479,3.479,0,0,0,5368.261,1814.028Z" transform="translate(-5368.243 -1810.989)" fill="#fff"/>
            </g>
          </g>
          <g id="Grupo_55805" data-name="Grupo 55805" transform="translate(98.087 28.597)">
            <path id="Trazado_101833" data-name="Trazado 101833" d="M5720.457,1744.088H5607.026l6.436-26.145h100.559Z" transform="translate(-5607.026 -1717.943)" fill="#111e61"/>
            <path id="Trazado_101834" data-name="Trazado 101834" d="M5736.244,1756.5H5631.051l4.827-19.693h95.539Z" transform="translate(-5626.932 -1733.572)" fill="#111e61"/>
            <path id="Trazado_101835" data-name="Trazado 101835" d="M5630.983,1756.422s85.806-1.626,92.027-4.519c8.447-3.928,8.337-15.19,8.337-15.19l4.853,19.709Z" transform="translate(-5626.875 -1733.494)" opacity="0.17" style="mix-blend-mode: overlay;isolation: isolate"/>
            <g id="Grupo_55804" data-name="Grupo 55804" transform="translate(18.078 7.85)">
              <g id="Grupo_55802" data-name="Grupo 55802" transform="translate(0.903 0.114)">
                <g id="Grupo_55801" data-name="Grupo 55801">
                  <path id="Trazado_101838" data-name="Trazado 101838" d="M5717.739,1765.231a15.467,15.467,0,0,1,2.542-.214,4.247,4.247,0,0,1,2.97.837,2.619,2.619,0,0,1,.808,1.965,2.693,2.693,0,0,1-1.92,2.6v.048a2.571,2.571,0,0,1,1.492,2.069,16.382,16.382,0,0,0,.793,2.816h-1.374a13.07,13.07,0,0,1-.67-2.45c-.3-1.416-.865-1.948-2.067-2h-1.25v4.446h-1.326Zm1.326,4.674h1.354c1.416,0,2.314-.777,2.314-1.948,0-1.326-.96-1.9-2.356-1.9a5.76,5.76,0,0,0-1.312.107Z" transform="translate(-5717.739 -1764.91)" fill="#b2a1a1"/>
                  <path id="Trazado_101839" data-name="Trazado 101839" d="M5775.19,1770.912h-3.973v3.7h4.443v1.112h-5.783v-10.26h5.556v1.112h-4.215v3.241h3.973Z" transform="translate(-5760.938 -1765.278)" fill="#b2a1a1"/>
                  <path id="Trazado_101840" data-name="Trazado 101840" d="M5822.3,1774.6a6.5,6.5,0,0,1-2.709.487c-2.894,0-5.056-1.825-5.056-5.2a5.1,5.1,0,0,1,5.361-5.389,5.521,5.521,0,0,1,2.433.456l-.333,1.081a4.7,4.7,0,0,0-2.058-.427c-2.4,0-4,1.537-4,4.232,0,2.528,1.444,4.125,3.925,4.125a5.315,5.315,0,0,0,2.176-.425Z" transform="translate(-5797.936 -1764.474)" fill="#b2a1a1"/>
                  <path id="Trazado_101841" data-name="Trazado 101841" d="M5879.271,1770.912H5875.3v3.7h4.443v1.112h-5.783v-10.26h5.555v1.112H5875.3v3.241h3.973Z" transform="translate(-5847.175 -1765.278)" fill="#b2a1a1"/>
                  <path id="Trazado_101842" data-name="Trazado 101842" d="M5922.159,1765.214a15.614,15.614,0,0,1,2.543-.2,4.214,4.214,0,0,1,2.88.853,2.817,2.817,0,0,1,.9,2.146,3.025,3.025,0,0,1-.793,2.193,4.267,4.267,0,0,1-3.137,1.126,4.559,4.559,0,0,1-1.064-.093v4.111h-1.326Zm1.326,4.947a4.354,4.354,0,0,0,1.1.107c1.6,0,2.571-.791,2.571-2.177,0-1.369-.974-2.024-2.418-2.024a5.5,5.5,0,0,0-1.25.107Z" transform="translate(-5887.112 -1764.91)" fill="#b2a1a1"/>
                  <path id="Trazado_101843" data-name="Trazado 101843" d="M5970.152,1766.587h-3.117v-1.126h7.594v1.126h-3.136v9.134h-1.34Z" transform="translate(-5924.294 -1765.278)" fill="#b2a1a1"/>
                  <path id="Trazado_101844" data-name="Trazado 101844" d="M6023.672,1765.461v10.26h-1.34v-10.26Z" transform="translate(-5970.111 -1765.278)" fill="#b2a1a1"/>
                  <path id="Trazado_101845" data-name="Trazado 101845" d="M6053.91,1769.6c0,3.517-2.144,5.4-4.762,5.4-2.728,0-4.614-2.115-4.614-5.22,0-3.258,2.01-5.389,4.752-5.389C6052.1,1764.394,6053.91,1766.542,6053.91,1769.6Zm-7.974.152c0,2.207,1.188,4.172,3.289,4.172s3.289-1.934,3.289-4.263c0-2.055-1.065-4.187-3.274-4.187S6045.936,1767.516,6045.936,1769.752Z" transform="translate(-5988.507 -1764.394)" fill="#b2a1a1"/>
                  <path id="Trazado_101846" data-name="Trazado 101846" d="M6113.746,1775.721v-10.26h1.464l3.274,5.192a28.581,28.581,0,0,1,1.824,3.334l.048-.017c-.124-1.369-.152-2.619-.152-4.215v-4.293h1.245v10.26h-1.34l-3.255-5.206a29.872,29.872,0,0,1-1.906-3.424l-.042.014c.076,1.295.09,2.528.09,4.232v4.384Z" transform="translate(-6045.853 -1765.278)" fill="#b2a1a1"/>
                </g>
              </g>
              <g id="Grupo_55803" data-name="Grupo 55803">
                <path id="Trazado_101847" data-name="Trazado 101847" d="M5712.473,1764.566a15.487,15.487,0,0,1,2.542-.214,4.246,4.246,0,0,1,2.97.836,2.621,2.621,0,0,1,.809,1.965,2.694,2.694,0,0,1-1.92,2.6v.048a2.568,2.568,0,0,1,1.491,2.07,16.512,16.512,0,0,0,.794,2.816h-1.373a13.027,13.027,0,0,1-.67-2.45c-.3-1.416-.865-1.948-2.067-2h-1.25v4.446h-1.326Zm1.326,4.674h1.354c1.416,0,2.314-.777,2.314-1.948,0-1.326-.96-1.9-2.357-1.9a5.768,5.768,0,0,0-1.312.107Z" transform="translate(-5712.473 -1764.245)" fill="#fff"/>
                <path id="Trazado_101848" data-name="Trazado 101848" d="M5769.924,1770.247h-3.973v3.7h4.443v1.112h-5.784V1764.8h5.555v1.112h-4.215v3.241h3.973Z" transform="translate(-5755.672 -1764.613)" fill="#fff"/>
                <path id="Trazado_101849" data-name="Trazado 101849" d="M5817.029,1773.93a6.5,6.5,0,0,1-2.709.487c-2.894,0-5.056-1.825-5.056-5.2a5.1,5.1,0,0,1,5.36-5.389,5.526,5.526,0,0,1,2.433.456l-.333,1.081a4.69,4.69,0,0,0-2.058-.427c-2.4,0-4,1.537-4,4.231,0,2.528,1.445,4.125,3.925,4.125a5.321,5.321,0,0,0,2.176-.425Z" transform="translate(-5792.67 -1763.808)" fill="#fff"/>
                <path id="Trazado_101850" data-name="Trazado 101850" d="M5874,1770.247h-3.973v3.7h4.443v1.112h-5.783V1764.8h5.556v1.112h-4.216v3.241H5874Z" transform="translate(-5841.909 -1764.613)" fill="#fff"/>
                <path id="Trazado_101851" data-name="Trazado 101851" d="M5916.893,1764.549a15.66,15.66,0,0,1,2.542-.2,4.215,4.215,0,0,1,2.88.853,2.816,2.816,0,0,1,.9,2.146,3.025,3.025,0,0,1-.793,2.193,4.267,4.267,0,0,1-3.137,1.126,4.562,4.562,0,0,1-1.064-.093v4.111h-1.326Zm1.326,4.947a4.339,4.339,0,0,0,1.1.107c1.6,0,2.571-.791,2.571-2.176,0-1.369-.975-2.024-2.419-2.024a5.515,5.515,0,0,0-1.25.107Z" transform="translate(-5881.846 -1764.245)" fill="#fff"/>
                <path id="Trazado_101852" data-name="Trazado 101852" d="M5964.886,1765.922h-3.117V1764.8h7.594v1.126h-3.137v9.134h-1.34Z" transform="translate(-5919.028 -1764.613)" fill="#fff"/>
                <path id="Trazado_101853" data-name="Trazado 101853" d="M6018.406,1764.8v10.26h-1.34V1764.8Z" transform="translate(-5964.845 -1764.613)" fill="#fff"/>
                <path id="Trazado_101854" data-name="Trazado 101854" d="M6048.644,1768.934c0,3.517-2.143,5.4-4.762,5.4-2.728,0-4.614-2.115-4.614-5.22,0-3.258,2.01-5.389,4.751-5.389C6046.833,1763.728,6048.644,1765.876,6048.644,1768.934Zm-7.974.152c0,2.207,1.188,4.172,3.289,4.172s3.289-1.934,3.289-4.263c0-2.055-1.065-4.187-3.274-4.187S6040.67,1766.85,6040.67,1769.086Z" transform="translate(-5983.241 -1763.728)" fill="#fff"/>
                <path id="Trazado_101855" data-name="Trazado 101855" d="M6108.48,1775.056V1764.8h1.463l3.274,5.192a28.427,28.427,0,0,1,1.825,3.334l.047-.017c-.123-1.369-.152-2.619-.152-4.215V1764.8h1.245v10.26h-1.34l-3.255-5.206a29.734,29.734,0,0,1-1.906-3.424l-.042.014c.076,1.295.09,2.528.09,4.232v4.384Z" transform="translate(-6040.586 -1764.613)" fill="#fff"/>
              </g>
            </g>
          </g>
        </g>
      </g>
      <g id="Enmascarar_grupo_32" data-name="Enmascarar grupo 32" transform="translate(12871.95 12281.645)" clip-path="url(#clip-path-2)">
        <g id="Grupo_55874" data-name="Grupo 55874" transform="translate(-11665.386 -12147.543)">
          <g id="Grupo_55830" data-name="Grupo 55830" transform="translate(114.71 0)">
            <path id="Trazado_101909" data-name="Trazado 101909" d="M2511.984,1090.695l.054.03c.089.052.18.1.27.149s.172.1.26.141.184.093.276.139.176.088.265.13.188.085.283.127.179.081.27.12.193.078.29.116.183.074.275.108.2.071.3.106.187.067.281.1.2.063.3.094.19.06.287.087.2.055.306.082.194.053.293.077.207.047.312.07.2.045.3.066.212.04.318.059.2.038.3.054.215.032.323.047.2.03.308.043.219.024.328.035.208.023.313.032.223.016.334.023.21.016.316.021.227.008.341.011.212.008.319.01.229,0,.344,0,.217,0,.325,0,.231-.008.347-.013.22-.007.331-.013.235-.016.352-.025.223-.015.335-.025.238-.025.358-.037.224-.022.338-.036.242-.033.364-.05.225-.03.339-.047.247-.042.371-.062.227-.037.341-.059.251-.05.376-.076.228-.045.343-.07.251-.058.377-.088.233-.053.35-.082.253-.066.379-.1.237-.061.355-.094.258-.076.386-.113.236-.069.355-.105.262-.085.394-.128.236-.075.354-.116c.134-.046.27-.1.4-.144.117-.042.233-.081.35-.125.135-.05.271-.1.406-.156.118-.046.236-.089.355-.137.136-.054.273-.113.409-.17.119-.05.238-.1.358-.149.138-.059.276-.123.414-.184.12-.053.239-.1.359-.16.144-.066.29-.137.435-.206.114-.054.228-.107.343-.163.154-.076.309-.156.465-.234.107-.054.213-.106.319-.161.171-.089.342-.181.513-.274.092-.049.183-.1.275-.147q.4-.217.794-.447c16.928-9.774,30.655-33.55,30.6-53l-.508-178.867c-.074-26.152,18.382-58.119,41.141-71.258l36.043-21.071-101.669-59.083-36.044,20.81c-22.886,13.213-41.442,45.355-41.367,71.651l.507,178.867c.055,19.306-13.57,42.906-30.373,52.607-.1.058-.2.113-.3.17l-30.269-17.59c0,.089,0,.177,0,.265l-.231-.134c.027,9.694,3.474,16.512,9.02,19.7l-.054-.03Z" transform="translate(-2401.351 -705.292)" fill="url(#linear-gradient-13)"/>
          </g>
          <g id="Grupo_55860" data-name="Grupo 55860" transform="translate(177.931 84.049)">
            <path id="Trazado_101910" data-name="Trazado 101910" d="M2654.567,1234.45a3.253,3.253,0,0,1,1.478,2.559l0,1.874c0,.941-.668,1.321-1.488.848l-36.77-21.229a3.259,3.259,0,0,1-1.479-2.561l.005-1.873c0-.942.669-1.32,1.489-.847Z" transform="translate(-2608.689 -1129.754)" fill="#a6a6a6"/>
            <path id="Trazado_101911" data-name="Trazado 101911" d="M2631.2,1252.549a3.261,3.261,0,0,1,1.478,2.559l-.006,1.874c0,.941-.669,1.32-1.488.848l-13.492-7.79a3.259,3.259,0,0,1-1.479-2.561l.005-1.874c0-.942.669-1.32,1.489-.847Z" transform="translate(-2608.631 -1150.901)" fill="#a6a6a6"/>
            <g id="Grupo_55831" data-name="Grupo 55831" transform="translate(19.325 196.849)">
              <path id="Trazado_101912" data-name="Trazado 101912" d="M2708.491,1589.757a3.261,3.261,0,0,1,1.479,2.561c0,.94-.668,1.32-1.488.848l-55.156-31.844a3.26,3.26,0,0,1-1.479-2.56c0-.941.669-1.321,1.488-.848Z" transform="translate(-2651.847 -1557.709)" fill="#a6a6a6"/>
            </g>
            <g id="Grupo_55832" data-name="Grupo 55832" transform="translate(7.517 117.167)">
              <path id="Trazado_101913" data-name="Trazado 101913" d="M2632.333,1324.667a3.257,3.257,0,0,1,1.478,2.56l-.005,1.874c0,.942-.669,1.32-1.487.848l-14.827-8.56a3.257,3.257,0,0,1-1.479-2.56l0-1.874c0-.941.67-1.32,1.489-.847Z" transform="translate(-2616.012 -1315.902)" fill="#a6a6a6"/>
            </g>
            <g id="Grupo_55833" data-name="Grupo 55833" transform="translate(34.77 143.311)">
              <path id="Trazado_101914" data-name="Trazado 101914" d="M2706.287,1398.953a3.256,3.256,0,0,1,1.477,2.559l0,1.874c0,.941-.669,1.32-1.487.848l-6.08-3.51a3.255,3.255,0,0,1-1.478-2.559l.006-1.874c0-.941.668-1.321,1.487-.848Z" transform="translate(-2698.714 -1395.239)" fill="#a6a6a6"/>
            </g>
            <g id="Grupo_55834" data-name="Grupo 55834" transform="translate(25.143 181.788)">
              <path id="Trazado_101915" data-name="Trazado 101915" d="M2714.6,1537.374a3.259,3.259,0,0,1,1.477,2.561l-.019,6.474c0,.94-.669,1.32-1.487.848l-43.593-25.167a3.257,3.257,0,0,1-1.477-2.559l.019-6.474c0-.942.668-1.322,1.487-.849Z" transform="translate(-2669.5 -1512.003)" fill="#a6a6a6"/>
            </g>
            <g id="Grupo_55835" data-name="Grupo 55835" transform="translate(8.371 184.553)">
              <path id="Trazado_101916" data-name="Trazado 101916" d="M2697.192,1565.11a3.257,3.257,0,0,1,1.478,2.559c0,.94-.668,1.321-1.488.848l-77.1-44.514a3.26,3.26,0,0,1-1.477-2.559c0-.941.669-1.32,1.487-.848Z" transform="translate(-2618.604 -1520.393)" fill="#a6a6a6"/>
            </g>
            <g id="Grupo_55836" data-name="Grupo 55836" transform="translate(68.829 173.393)">
              <path id="Trazado_101917" data-name="Trazado 101917" d="M2821.37,1497a3.254,3.254,0,0,1,1.478,2.559l-.017,6.133c0,.94-.668,1.321-1.487.848l-17.792-10.273a3.26,3.26,0,0,1-1.479-2.56l.018-6.134c0-.942.668-1.32,1.489-.846Z" transform="translate(-2802.072 -1486.527)" fill="#a6a6a6"/>
            </g>
            <g id="Grupo_55837" data-name="Grupo 55837" transform="translate(0 151.421)">
              <path id="Trazado_101918" data-name="Trazado 101918" d="M2690.173,1475.835l0,1.021-96.969-55.985,0-1.021Z" transform="translate(-2593.202 -1419.85)" fill="#a6a6a6"/>
            </g>
            <g id="Grupo_55838" data-name="Grupo 55838" transform="translate(78.658 168.649)">
              <path id="Trazado_101919" data-name="Trazado 101919" d="M2841.4,1476.959a3.253,3.253,0,0,1,1.478,2.56l0,1.874c0,.942-.668,1.321-1.488.848l-8.007-4.623a3.255,3.255,0,0,1-1.477-2.559l.005-1.874c0-.941.668-1.321,1.487-.847Z" transform="translate(-2831.897 -1472.133)" fill="#a6a6a6"/>
            </g>
            <g id="Grupo_55839" data-name="Grupo 55839" transform="translate(71.421 154.062)">
              <path id="Trazado_101920" data-name="Trazado 101920" d="M2826.7,1436.885a3.257,3.257,0,0,1,1.478,2.56l-.006,1.874c0,.941-.667,1.32-1.487.847l-15.273-8.817a3.259,3.259,0,0,1-1.477-2.559l.006-1.874c0-.942.669-1.32,1.487-.848Z" transform="translate(-2809.937 -1427.865)" fill="#a6a6a6"/>
            </g>
            <g id="Grupo_55840" data-name="Grupo 55840" transform="translate(7.446 137.953)">
              <path id="Trazado_101921" data-name="Trazado 101921" d="M2643.248,1394.165l-25.946-14.98c-.82-.473-1.486-.095-1.489.847l-.017,6.134a3.261,3.261,0,0,0,1.479,2.56l25.947,14.98c.82.473,1.485.093,1.487-.848l.018-6.133A3.255,3.255,0,0,0,2643.248,1394.165Z" transform="translate(-2615.796 -1378.981)" fill="#a6a6a6"/>
            </g>
            <g id="Grupo_55841" data-name="Grupo 55841" transform="translate(0.14 102.011)">
              <path id="Trazado_101922" data-name="Trazado 101922" d="M2690.6,1325.9l0,1.023-96.969-55.985,0-1.023Z" transform="translate(-2593.627 -1269.911)" fill="#a6a6a6"/>
            </g>
            <g id="Grupo_55842" data-name="Grupo 55842" transform="translate(78.753 134.745)">
              <path id="Trazado_101923" data-name="Trazado 101923" d="M2841.687,1374.073a3.254,3.254,0,0,1,1.478,2.559l-.005,1.874c0,.942-.667,1.321-1.487.848l-8.007-4.623a3.255,3.255,0,0,1-1.478-2.559l.005-1.874c0-.941.668-1.321,1.487-.847Z" transform="translate(-2832.188 -1369.247)" fill="#a6a6a6"/>
            </g>
            <path id="Trazado_101924" data-name="Trazado 101924" d="M2644.276,1040a3.257,3.257,0,0,1,1.479,2.561l-.005,1.874c0,.94-.669,1.321-1.488.848l-25.947-14.981a3.261,3.261,0,0,1-1.479-2.56l.005-1.874c0-.942.67-1.321,1.49-.849Z" transform="translate(-2609.048 -1003.575)" fill="#a6a6a6"/>
            <path id="Trazado_101925" data-name="Trazado 101925" d="M2638.767,1359.972a3.258,3.258,0,0,1,1.478,2.56l-.006,1.874c0,.941-.669,1.32-1.488.847l-21.35-12.327a3.256,3.256,0,0,1-1.479-2.56l0-1.874c0-.942.67-1.32,1.489-.847Z" transform="translate(-2608.436 -1219.882)" fill="#a6a6a6"/>
            <path id="Trazado_101926" data-name="Trazado 101926" d="M2699.179,1363.26a3.252,3.252,0,0,1,1.478,2.56l0,1.874c0,.941-.669,1.321-1.488.847l-18.682-10.786a3.255,3.255,0,0,1-1.478-2.56l.005-1.874c0-.941.668-1.321,1.488-.847Z" transform="translate(-2650.73 -1223.119)" fill="#a6a6a6"/>
            <path id="Trazado_101927" data-name="Trazado 101927" d="M2841.863,1312.029a3.257,3.257,0,0,1,1.478,2.56l-.005,1.875c0,.94-.668,1.321-1.488.848l-8.006-4.623a3.256,3.256,0,0,1-1.478-2.56l.005-1.875c0-.94.668-1.321,1.487-.847Z" transform="translate(-2753.553 -1192.903)" fill="#a6a6a6"/>
            <path id="Trazado_101928" data-name="Trazado 101928" d="M2841.777,1342.534a3.254,3.254,0,0,1,1.478,2.56l-.005,1.873c0,.941-.668,1.321-1.488.848l-8.007-4.622a3.256,3.256,0,0,1-1.477-2.56l.005-1.874c0-.941.668-1.321,1.488-.847Z" transform="translate(-2753.495 -1213.356)" fill="#a6a6a6"/>
            <g id="Grupo_55843" data-name="Grupo 55843" transform="translate(7.641 73.21)">
              <path id="Trazado_101929" data-name="Trazado 101929" d="M2639.234,1195.042a3.259,3.259,0,0,1,1.478,2.56l0,1.875c0,.94-.67,1.32-1.488.848L2617.869,1188a3.26,3.26,0,0,1-1.479-2.56l.005-1.875c0-.94.669-1.32,1.489-.847Z" transform="translate(-2616.39 -1182.511)" fill="#a6a6a6"/>
            </g>
            <g id="Grupo_55844" data-name="Grupo 55844" transform="translate(7.671 62.818)">
              <path id="Trazado_101930" data-name="Trazado 101930" d="M2632.8,1159.74a3.257,3.257,0,0,1,1.478,2.559l-.005,1.874c0,.941-.67,1.32-1.488.848l-14.826-8.56a3.257,3.257,0,0,1-1.479-2.56l.005-1.874c0-.942.67-1.32,1.489-.847Z" transform="translate(-2616.479 -1150.976)" fill="#a6a6a6"/>
            </g>
            <g id="Grupo_55845" data-name="Grupo 55845" transform="translate(34.923 88.961)">
              <path id="Trazado_101931" data-name="Trazado 101931" d="M2706.753,1234.023a3.258,3.258,0,0,1,1.478,2.559l0,1.875c0,.94-.67,1.32-1.488.848l-6.08-3.51a3.258,3.258,0,0,1-1.478-2.56l.005-1.875c0-.94.668-1.321,1.488-.848Z" transform="translate(-2699.18 -1230.309)" fill="#a6a6a6"/>
            </g>
            <g id="Grupo_55846" data-name="Grupo 55846" transform="translate(7.7 52.425)">
              <path id="Trazado_101932" data-name="Trazado 101932" d="M2644.009,1134.621a3.255,3.255,0,0,1,1.478,2.559l-.006,1.874c0,.941-.668,1.321-1.488.847l-25.947-14.98a3.255,3.255,0,0,1-1.479-2.561l.005-1.874c0-.941.67-1.32,1.488-.846Z" transform="translate(-2616.569 -1119.437)" fill="#a6a6a6"/>
            </g>
            <g id="Grupo_55847" data-name="Grupo 55847" transform="translate(28.429 74.803)">
              <path id="Trazado_101933" data-name="Trazado 101933" d="M2699.648,1198.333a3.256,3.256,0,0,1,1.478,2.559l-.005,1.874c0,.942-.668,1.321-1.488.847l-18.682-10.786a3.256,3.256,0,0,1-1.478-2.559l.006-1.874c0-.942.668-1.321,1.487-.848Z" transform="translate(-2679.472 -1187.344)" fill="#a6a6a6"/>
            </g>
            <g id="Grupo_55848" data-name="Grupo 55848" transform="translate(7.759 31.639)">
              <path id="Trazado_101934" data-name="Trazado 101934" d="M2633.068,1065.123a3.26,3.26,0,0,1,1.478,2.56l-.006,1.875c0,.94-.669,1.32-1.488.848l-14.826-8.56a3.258,3.258,0,0,1-1.479-2.561l.005-1.875c0-.94.669-1.32,1.489-.847Z" transform="translate(-2616.747 -1056.36)" fill="#a6a6a6"/>
            </g>
            <g id="Grupo_55849" data-name="Grupo 55849" transform="translate(35.012 57.783)">
              <path id="Trazado_101935" data-name="Trazado 101935" d="M2707.022,1139.41a3.258,3.258,0,0,1,1.477,2.559l-.005,1.874c0,.941-.67,1.32-1.488.847l-6.079-3.51a3.253,3.253,0,0,1-1.478-2.56l.006-1.874c0-.941.668-1.321,1.487-.847Z" transform="translate(-2699.449 -1135.696)" fill="#a6a6a6"/>
            </g>
            <g id="Grupo_55850" data-name="Grupo 55850" transform="translate(28.517 43.623)">
              <path id="Trazado_101936" data-name="Trazado 101936" d="M2699.915,1103.717a3.256,3.256,0,0,1,1.478,2.559l-.005,1.875c0,.94-.668,1.321-1.488.847l-18.682-10.786a3.26,3.26,0,0,1-1.478-2.56l.006-1.875c0-.94.668-1.321,1.487-.848Z" transform="translate(-2679.741 -1092.727)" fill="#a6a6a6"/>
            </g>
            <g id="Grupo_55851" data-name="Grupo 55851" transform="translate(78.841 103.908)">
              <path id="Trazado_101937" data-name="Trazado 101937" d="M2841.953,1280.494a3.254,3.254,0,0,1,1.478,2.559l-.005,1.874c0,.941-.668,1.321-1.487.848l-8.006-4.622a3.255,3.255,0,0,1-1.478-2.559l.005-1.874c0-.942.668-1.321,1.488-.848Z" transform="translate(-2832.454 -1275.667)" fill="#a6a6a6"/>
            </g>
            <g id="Grupo_55852" data-name="Grupo 55852" transform="translate(78.87 93.515)">
              <path id="Trazado_101938" data-name="Trazado 101938" d="M2842.042,1248.955a3.256,3.256,0,0,1,1.478,2.559l-.006,1.874c0,.942-.668,1.321-1.487.848l-8.006-4.622a3.254,3.254,0,0,1-1.478-2.56l0-1.874c0-.942.668-1.32,1.488-.848Z" transform="translate(-2832.543 -1244.128)" fill="#a6a6a6"/>
            </g>
            <g id="Grupo_55853" data-name="Grupo 55853" transform="translate(78.9 83.122)">
              <path id="Trazado_101939" data-name="Trazado 101939" d="M2842.131,1217.415a3.254,3.254,0,0,1,1.478,2.559l-.005,1.874c0,.942-.668,1.321-1.487.848l-8.007-4.622a3.258,3.258,0,0,1-1.478-2.559l.006-1.874c0-.942.668-1.321,1.488-.848Z" transform="translate(-2832.632 -1212.589)" fill="#a6a6a6"/>
            </g>
            <g id="Grupo_55854" data-name="Grupo 55854" transform="translate(78.929 72.729)">
              <path id="Trazado_101940" data-name="Trazado 101940" d="M2842.221,1185.877a3.256,3.256,0,0,1,1.478,2.559l-.005,1.875c0,.94-.668,1.321-1.488.847l-8.007-4.623a3.259,3.259,0,0,1-1.478-2.559l.005-1.875c0-.94.668-1.321,1.488-.848Z" transform="translate(-2832.721 -1181.051)" fill="#a6a6a6"/>
            </g>
            <g id="Grupo_55855" data-name="Grupo 55855" transform="translate(78.959 62.336)">
              <path id="Trazado_101941" data-name="Trazado 101941" d="M2842.31,1154.338a3.257,3.257,0,0,1,1.479,2.561l-.005,1.874c0,.94-.668,1.32-1.487.847l-8.007-4.623a3.257,3.257,0,0,1-1.478-2.56l0-1.874c0-.941.668-1.322,1.487-.849Z" transform="translate(-2832.811 -1149.512)" fill="#a6a6a6"/>
            </g>
            <g id="Grupo_55856" data-name="Grupo 55856" transform="translate(7.73 42.032)">
              <path id="Trazado_101942" data-name="Trazado 101942" d="M2639.5,1100.428l-21.351-12.327c-.819-.473-1.486-.094-1.488.847l-.005,1.874a3.259,3.259,0,0,0,1.479,2.561l21.351,12.327c.818.473,1.484.094,1.487-.847l.006-1.874A3.257,3.257,0,0,0,2639.5,1100.428Z" transform="translate(-2616.658 -1087.898)" fill="#a6a6a6"/>
            </g>
            <g id="Grupo_55857" data-name="Grupo 55857" transform="translate(25.641 12.437)">
              <path id="Trazado_101943" data-name="Trazado 101943" d="M2716.091,1023.46a3.258,3.258,0,0,1,1.479,2.559c0,.942-.67,1.32-1.488.848L2672.49,1001.7a3.253,3.253,0,0,1-1.477-2.56c0-.942.668-1.321,1.487-.848Z" transform="translate(-2671.013 -998.089)" fill="#a6a6a6"/>
            </g>
            <g id="Grupo_55858" data-name="Grupo 55858" transform="translate(25.658)">
              <path id="Trazado_101944" data-name="Trazado 101944" d="M2716.161,985.718a3.257,3.257,0,0,1,1.478,2.56l-.019,6.474c0,.941-.669,1.32-1.487.848l-43.592-25.168a3.253,3.253,0,0,1-1.478-2.56l.018-6.474c0-.941.668-1.321,1.488-.848Z" transform="translate(-2671.064 -960.347)" fill="#a6a6a6"/>
            </g>
            <g id="Grupo_55859" data-name="Grupo 55859" transform="translate(0.404 8.818)">
              <path id="Trazado_101945" data-name="Trazado 101945" d="M2691.4,1043.092l0,1.021-96.969-55.985,0-1.021Z" transform="translate(-2594.428 -987.106)" fill="#a6a6a6"/>
            </g>
          </g>
          <g id="Grupo_55861" data-name="Grupo 55861" transform="translate(103.155 281.078)">
            <path id="Trazado_101946" data-name="Trazado 101946" d="M2387.454,1603.658s-8.975-4.168-8.975-19.875.381-20.814-12.192-25.528l100.977,58.983c12.573,4.714,12.191,9.821,12.191,25.529s8.975,19.875,8.975,19.875Z" transform="translate(-2366.287 -1558.255)" fill="#b5b5b5"/>
          </g>
          <g id="Grupo_55862" data-name="Grupo 55862" transform="translate(29.501 280.782)">
            <path id="Trazado_101947" data-name="Trazado 101947" d="M2142.775,1642.643c1.958,2.848,2.094,7.268,2.33,10.206.472,5.875,6.9,14,16.519,6.947,23.593-17.3,18.593-28.53,18.593-56.739s28.53-48.4,36.534-45.4l100.977,58.983c-8-3-36.534,17.194-36.534,45.4s5,39.438-18.593,56.739c-9.616,7.052-16.046-1.072-16.518-6.947-.307-3.824-.447-10.161-4.651-12.271Z" transform="translate(-2142.775 -1557.358)" fill="url(#linear-gradient-14)"/>
          </g>
          <path id="Trazado_101948" data-name="Trazado 101948" d="M2151.846,1835.723l99.276,57.989-.045.071a11.471,11.471,0,0,1-5-8.428c-.307-3.824-.447-10.161-4.651-12.271l-98.656-56.919c1.958,2.848,2.094,7.268,2.33,10.206.282,3.508,2.688,7.818,6.627,9.22Z" transform="translate(-2113.274 -1450.099)" fill="#b5b5b5"/>
          <g id="Grupo_55864" data-name="Grupo 55864" transform="translate(0 363.295)">
            <g id="Grupo_55863" data-name="Grupo 55863">
              <path id="Trazado_101949" data-name="Trazado 101949" d="M2181.086,1867.444c-2.255-1.132-5.68-1.047-10.926,1.293-15.027,6.7-17.271,28.182-15.348,45.492l-100.976-58.984c-1.923-17.31.321-38.788,15.348-45.492,7.514-3.352,11.29-2.077,13.247.771Z" transform="translate(-2053.25 -1807.753)" fill="url(#linear-gradient-15)"/>
            </g>
          </g>
          <g id="Grupo_55873" data-name="Grupo 55873" transform="translate(68.433 318.73)">
            <g id="Grupo_55865" data-name="Grupo 55865" transform="translate(7.517 15.156)">
              <path id="Trazado_101950" data-name="Trazado 101950" d="M2300.05,1727.272a3.257,3.257,0,0,1,1.478,2.559l0,1.874c0,.941-.67,1.32-1.487.848l-14.827-8.56a3.257,3.257,0,0,1-1.479-2.56l.005-1.874c0-.942.67-1.32,1.489-.847Z" transform="translate(-2283.729 -1718.508)" fill="#a6a6a6"/>
            </g>
            <g id="Grupo_55866" data-name="Grupo 55866" transform="translate(34.77 41.3)">
              <path id="Trazado_101951" data-name="Trazado 101951" d="M2374,1801.558a3.26,3.26,0,0,1,1.478,2.559l-.006,1.874c0,.942-.67,1.32-1.488.848l-6.079-3.51a3.254,3.254,0,0,1-1.478-2.56l0-1.873c0-.942.669-1.321,1.488-.848Z" transform="translate(-2366.431 -1797.844)" fill="#a6a6a6"/>
            </g>
            <g id="Grupo_55867" data-name="Grupo 55867" transform="translate(68.829 71.382)">
              <path id="Trazado_101952" data-name="Trazado 101952" d="M2489.087,1899.608a3.255,3.255,0,0,1,1.478,2.56l-.017,6.133c0,.94-.669,1.321-1.488.848l-17.792-10.272a3.259,3.259,0,0,1-1.479-2.56l.018-6.134c0-.941.67-1.319,1.489-.846Z" transform="translate(-2469.789 -1889.132)" fill="#a6a6a6"/>
            </g>
            <g id="Grupo_55868" data-name="Grupo 55868" transform="translate(0 49.409)">
              <path id="Trazado_101953" data-name="Trazado 101953" d="M2357.89,1878.44l0,1.021-96.969-55.985,0-1.021Z" transform="translate(-2260.918 -1822.455)" fill="#a6a6a6"/>
            </g>
            <g id="Grupo_55869" data-name="Grupo 55869" transform="translate(78.658 66.638)">
              <path id="Trazado_101954" data-name="Trazado 101954" d="M2509.113,1879.564a3.252,3.252,0,0,1,1.478,2.56l-.005,1.873c0,.942-.668,1.321-1.488.848l-8.006-4.623a3.253,3.253,0,0,1-1.478-2.559l.005-1.874c0-.941.668-1.321,1.488-.848Z" transform="translate(-2499.614 -1874.738)" fill="#a6a6a6"/>
            </g>
            <g id="Grupo_55870" data-name="Grupo 55870" transform="translate(71.421 52.05)">
              <path id="Trazado_101955" data-name="Trazado 101955" d="M2494.419,1839.49a3.257,3.257,0,0,1,1.478,2.56l-.006,1.874c0,.942-.668,1.321-1.487.848l-15.273-8.817a3.255,3.255,0,0,1-1.477-2.56l0-1.874c0-.941.669-1.32,1.487-.848Z" transform="translate(-2477.654 -1830.469)" fill="#a6a6a6"/>
            </g>
            <g id="Grupo_55871" data-name="Grupo 55871" transform="translate(7.446 35.942)">
              <path id="Trazado_101956" data-name="Trazado 101956" d="M2310.966,1796.77l-25.947-14.98c-.82-.473-1.486-.095-1.489.847l-.017,6.134a3.261,3.261,0,0,0,1.479,2.56l25.947,14.98c.82.474,1.485.093,1.488-.848l.017-6.133A3.254,3.254,0,0,0,2310.966,1796.77Z" transform="translate(-2283.513 -1781.586)" fill="#a6a6a6"/>
            </g>
            <g id="Grupo_55872" data-name="Grupo 55872" transform="translate(0.14 0)">
              <path id="Trazado_101957" data-name="Trazado 101957" d="M2358.315,1728.5l0,1.023-96.969-55.985,0-1.023Z" transform="translate(-2261.344 -1672.516)" fill="#a6a6a6"/>
            </g>
            <path id="Trazado_101958" data-name="Trazado 101958" d="M2306.484,1762.578a3.256,3.256,0,0,1,1.478,2.559l-.005,1.874c0,.942-.669,1.32-1.488.848l-21.35-12.326a3.259,3.259,0,0,1-1.479-2.56l.005-1.874c0-.942.669-1.32,1.489-.847Z" transform="translate(-2276.152 -1724.498)" fill="#a6a6a6"/>
            <path id="Trazado_101959" data-name="Trazado 101959" d="M2366.9,1765.864a3.256,3.256,0,0,1,1.477,2.559l-.005,1.874c0,.942-.668,1.321-1.488.848l-18.681-10.786a3.255,3.255,0,0,1-1.479-2.56l.005-1.874c0-.941.668-1.321,1.488-.847Z" transform="translate(-2318.447 -1727.735)" fill="#a6a6a6"/>
          </g>
        </g>
      </g>
      <g id="Grupo_55828" data-name="Grupo 55828" transform="translate(-5174.511 -1001.871)">
        <path id="Trazado_101856" data-name="Trazado 101856" d="M6915.34,1767.349c.76,1.786,1.03,7.127-3.093,11.167-3.875,3.812-9.479,2.986-15.06,3.726-1.216.162-8.231,3.294-9.486,3.636a21.225,21.225,0,0,0-5.087-8.29c4.013-1.108,15.19-5.258,16.01-6.394,1.6-2.226,7.979-5.653,7.807-4.2s-2.475,4.36-2.475,4.36S6914.58,1765.563,6915.34,1767.349Z" transform="translate(-546.047 -433.685)" fill="#f2ab70"/>
        <path id="Trazado_101908" data-name="Trazado 101908" d="M0,0H5.566a11.517,11.517,0,1,1,0,23.035H0Z" transform="translate(6356.354 1327.69) rotate(-10.48)" fill="#ff9800"/>
        <path id="Trazado_101857" data-name="Trazado 101857" d="M6979.462,1762.09s5.86-4.839,8-4.839-4.687,8.359-4.687,8.359Z" transform="translate(-625.479 -425.981)" fill="#f2ab70"/>
        <path id="Trazado_101858" data-name="Trazado 101858" d="M6947.393,1792.474s3.638-2.229,4.361-1.391,5.146,9.991,4.3,11.311a23.228,23.228,0,0,1-3.722,1.413Z" transform="translate(-599.177 -453.575)" fill="#fff"/>
        <path id="Trazado_101859" data-name="Trazado 101859" d="M6792.566,1983.322c-.607,1.843-6.08,6.288-11.845,6.6-3.383.016-9.957-4.042-14.638-7.168-1.021-.68-8.358-2.956-9.528-3.526a21.206,21.206,0,0,0,1.647-9.586c3.746,1.815,15.164,6.376,16.534,6.667,2.843.6,9.441.108,8.354,1.084s-4.736,1.643-4.736,1.643S6793.173,1981.478,6792.566,1983.322Z" transform="translate(-442.657 -600.181)" fill="#f2ab70"/>
        <path id="Trazado_101860" data-name="Trazado 101860" d="M6788.565,1980.329l4.51,1.572-4.993,12.8-6.344-3.219Z" transform="translate(-463.312 -608.943)" fill="#fff"/>
        <g id="Grupo_55812" data-name="Grupo 55812" transform="translate(6289.476 1565.506)">
          <path id="Trazado_101861" data-name="Trazado 101861" d="M6638.942,3074.693c-2.461-.109-9.292.056-9.456-3.721,0-.069-.007-.138,0-.213a34.233,34.233,0,0,0-.465-5.468l-.5-4.791,16.206-.692s.354,10.383.952,10.739C6646.32,3074.355,6641.69,3074.813,6638.942,3074.693Z" transform="translate(-6627.12 -3059.807)" fill="#f29651"/>
          <path id="Trazado_101862" data-name="Trazado 101862" d="M6667.357,3134.664a7.4,7.4,0,0,1-.117.947c-.5,2.939-9.591,4.428-14.694,3.771-3.616-.464-5.435-1.856-8.663-3.287l-.7-.29a29.007,29.007,0,0,0-4.061-1.373c-6.864-1.837-11.409.735-15.354-1.586-2.126-1.256-2.668-4.8-2.861-6.961a14.578,14.578,0,0,1,.077-4.854,16.025,16.025,0,0,1,.831-2.456c.311-.658.465-1.005,1.1-2.146,1.354-.193,2.592,2.127,8.991,2.842,2.089.232,4.139-.232,4.8-1.45-.329-.31-1.276-.754-1.218-1.257.579-.232,3.016-2.166,3.558-1.682a32.485,32.485,0,0,1,4.756,3.423c.58.483,1.412,1.16,2.3,1.875.116.1.251.212.387.309a2.812,2.812,0,0,0,.29.213l.406.29c.657.445,1.411.909,2.262,1.374.232.116.445.232.678.348.541.271,1.121.542,1.739.793.31.135.6.271.909.387.135.058.252.1.387.155.213.077.426.155.638.251,1.006.368,2.069.716,3.229,1.044.329.1.657.193,1,.29.233.058.465.116.735.193.406.1.793.212,1.141.329a21.57,21.57,0,0,1,2.03.754c.31.155.6.29.87.445C6666.776,3129.5,6667.531,3132.518,6667.357,3134.664Z" transform="translate(-6620.744 -3104.915)" fill="#ff9800"/>
          <path id="Trazado_101863" data-name="Trazado 101863" d="M6658.779,3203.815c-5.81.354-11.966-4.106-14.625-5.293s-6.966-1.126-10.745-1.187c-3.711-.062-8.451-2.141-8.587-2.208.034.281.064,3.224.534,3.8,1.716,2.092,7.678,2.242,10.023,1.971.353-.108.579-1.288.579-1.288a22.35,22.35,0,0,1,6.5.7c6.862,1.833,8.349,4.3,13.438,4.952s14.174-.821,14.686-3.772c.053-.307.094-.624.122-.946C6669.053,3202.017,6664.589,3203.461,6658.779,3203.815Z" transform="translate(-6624.089 -3170.792)" fill="#421853"/>
          <path id="Trazado_101864" data-name="Trazado 101864" d="M6738.728,3159.191a1.322,1.322,0,1,1-1.391-1.178A1.29,1.29,0,0,1,6738.728,3159.191Z" transform="translate(-6715.348 -3140.351)" fill="#421853"/>
          <path id="Trazado_101865" data-name="Trazado 101865" d="M6773.669,3177.982a1.321,1.321,0,1,1-1.39-1.178A1.289,1.289,0,0,1,6773.669,3177.982Z" transform="translate(-6744.006 -3155.762)" fill="#421853"/>
          <path id="Trazado_101866" data-name="Trazado 101866" d="M6810.684,3189.834a1.321,1.321,0,1,1-1.391-1.178A1.289,1.289,0,0,1,6810.684,3189.834Z" transform="translate(-6774.365 -3165.484)" fill="#421853"/>
          <g id="Grupo_55808" data-name="Grupo 55808" transform="translate(21.656 15.262)">
            <path id="Trazado_101867" data-name="Trazado 101867" d="M6745.561,3145.209a9.927,9.927,0,0,0-3.639,3.326.407.407,0,0,1-.322.181.436.436,0,0,1-.24-.056.38.38,0,0,1-.128-.535,11.162,11.162,0,0,1,3.64-3.45c.129.109.265.209.4.318C6745.365,3145.066,6745.46,3145.138,6745.561,3145.209Z" transform="translate(-6741.17 -3144.676)" fill="#421853"/>
          </g>
          <g id="Grupo_55809" data-name="Grupo 55809" transform="translate(27.919 18.6)">
            <path id="Trazado_101868" data-name="Trazado 101868" d="M6780.123,3163.618a10.607,10.607,0,0,0-3.37,3.2.43.43,0,0,1-.323.181.443.443,0,0,1-.239-.055.381.381,0,0,1-.129-.535,11.725,11.725,0,0,1,3.136-3.173h.008C6779.506,3163.367,6779.807,3163.5,6780.123,3163.618Z" transform="translate(-6776 -3163.237)" fill="#421853"/>
          </g>
          <g id="Grupo_55810" data-name="Grupo 55810" transform="translate(34.595 20.911)">
            <path id="Trazado_101869" data-name="Trazado 101869" d="M6817.7,3176.409c-2.034.691-3.808,3.366-3.83,3.4a.41.41,0,0,1-.323.182.448.448,0,0,1-.239-.056.381.381,0,0,1-.129-.535,11.55,11.55,0,0,1,3.372-3.31C6816.959,3176.188,6817.34,3176.3,6817.7,3176.409Z" transform="translate(-6813.122 -3176.088)" fill="#421853"/>
          </g>
          <g id="Grupo_55811" data-name="Grupo 55811" transform="translate(10.811 21.741)">
            <path id="Trazado_101870" data-name="Trazado 101870" d="M6712.122,3181.4c-.87,2.263-2.262,4.931-4.254,5.782a4.057,4.057,0,0,1-1.644.271c-3.21,0-8.876-1.876-13.98-3.558-2.726-.909-5.317-1.76-6.9-2.088a2.942,2.942,0,0,0-2.765.425c-.89.851-.793,2.61-.677,3.209l-.947.174c-.02-.1-.483-2.687.947-4.08a3.833,3.833,0,0,1,3.655-.677c1.624.348,4.117,1.161,7,2.108,5.415,1.8,12.82,4.235,14.928,3.326,1.721-.735,2.979-3.229,3.771-5.337C6711.562,3181.114,6711.852,3181.25,6712.122,3181.4Z" transform="translate(-6680.865 -3180.705)" fill="#421853"/>
          </g>
        </g>
        <g id="Grupo_55817" data-name="Grupo 55817" transform="translate(6216.843 1551.897)">
          <path id="Trazado_101871" data-name="Trazado 101871" d="M6272.912,3001.589c-2.1-1.282-8.167-4.431-6.49-7.82.031-.062.063-.124.1-.188a34.26,34.26,0,0,0,2.229-5.016l1.872-4.438,14.532,7.209s-4.7,9.267-4.345,9.867C6279.538,3004.851,6275.261,3003.019,6272.912,3001.589Z" transform="translate(-6257.269 -2984.127)" fill="#f29651"/>
          <path id="Trazado_101872" data-name="Trazado 101872" d="M6260.865,3076.343a7.522,7.522,0,0,1-.558.774c-1.858,2.333-10.538-.746-14.693-3.783-2.943-2.15-3.864-4.246-6-7.057l-.471-.589a29.208,29.208,0,0,0-2.895-3.161c-5.128-4.919-10.35-4.857-12.686-8.792-1.258-2.126-.026-5.487.849-7.478a14.606,14.606,0,0,1,2.408-4.214,15.989,15.989,0,0,1,1.912-1.751c.589-.426.893-.657,2-1.349,1.279.483,1.245,3.113,6.507,6.826,1.718,1.21,3.737,1.792,4.9,1.042-.139-.43-.755-1.276-.462-1.688.62.076,3.688-.443,3.929.242a32.5,32.5,0,0,1,2.517,5.292c.275.7.678,1.7,1.111,2.753.056.141.118.307.189.457a2.7,2.7,0,0,0,.152.327l.216.45c.361.707.8,1.477,1.319,2.294.147.213.277.417.425.631.344.5.722,1.015,1.143,1.534.206.268.4.526.609.777.091.116.175.206.265.322.149.17.3.341.438.528.7.807,1.468,1.624,2.326,2.472.241.243.482.486.74.739.176.163.351.326.551.524.309.28.592.568.841.838.549.567,1.011,1.13,1.415,1.64.2.285.386.543.548.81C6262.847,3071.541,6262.053,3074.547,6260.865,3076.343Z" transform="translate(-6221.912 -3029.085)" fill="#ff9800"/>
          <path id="Trazado_101873" data-name="Trazado 101873" d="M6243.772,3121.51c-5.26-2.491-8.5-9.368-10.259-11.689s-5.561-4.346-8.841-6.222c-3.222-1.844-6.372-5.951-6.458-6.076-.105.263-1.5,2.856-1.362,3.583.494,2.661,5.645,5.667,7.831,6.561.36.075,1.127-.849,1.127-.849a22.346,22.346,0,0,1,5.36,3.752c5.127,4.915,5.242,7.79,9.385,10.819s12.813,6.114,14.684,3.775c.2-.243.384-.5.563-.769C6253.641,3124.888,6249.033,3124,6243.772,3121.51Z" transform="translate(-6216.843 -3077.13)" fill="#421853"/>
          <path id="Trazado_101874" data-name="Trazado 101874" d="M6338.124,3123.1a1.321,1.321,0,1,1-.649-1.7A1.289,1.289,0,0,1,6338.124,3123.1Z" transform="translate(-6314.264 -3096.605)" fill="#421853"/>
          <path id="Trazado_101875" data-name="Trazado 101875" d="M6359.676,3156.416a1.322,1.322,0,1,1-.65-1.7A1.289,1.289,0,0,1,6359.676,3156.416Z" transform="translate(-6331.941 -3123.927)" fill="#421853"/>
          <path id="Trazado_101876" data-name="Trazado 101876" d="M6386.387,3184.648a1.321,1.321,0,1,1-.649-1.7A1.29,1.29,0,0,1,6386.387,3184.648Z" transform="translate(-6353.847 -3147.082)" fill="#421853"/>
          <g id="Grupo_55813" data-name="Grupo 55813" transform="translate(22.267 24.313)">
            <path id="Trazado_101877" data-name="Trazado 101877" d="M6346.066,3120.132a9.942,9.942,0,0,0-4.792,1.159.407.407,0,0,1-.37,0,.441.441,0,0,1-.183-.165.38.38,0,0,1,.146-.531,11.169,11.169,0,0,1,4.852-1.267c.061.157.131.311.2.472C6345.965,3119.912,6346.012,3120.021,6346.066,3120.132Z" transform="translate(-6340.668 -3119.328)" fill="#421853"/>
          </g>
          <g id="Grupo_55814" data-name="Grupo 55814" transform="translate(26.278 30.019)">
            <path id="Trazado_101878" data-name="Trazado 101878" d="M6368.077,3151.839a10.605,10.605,0,0,0-4.5,1.18.426.426,0,0,1-.554-.161.381.381,0,0,1,.146-.531,11.7,11.7,0,0,1,4.276-1.267l.008,0C6367.657,3151.321,6367.858,3151.58,6368.077,3151.839Z" transform="translate(-6362.974 -3151.06)" fill="#421853"/>
          </g>
          <g id="Grupo_55815" data-name="Grupo 55815" transform="translate(30.946 35.376)">
            <path id="Trazado_101879" data-name="Trazado 101879" d="M6394.53,3181.685c-2.116-.375-4.959,1.113-4.994,1.13a.412.412,0,0,1-.371,0,.442.442,0,0,1-.183-.165.38.38,0,0,1,.146-.53,11.532,11.532,0,0,1,4.55-1.274C6393.983,3181.132,6394.265,3181.412,6394.53,3181.685Z" transform="translate(-6388.929 -3180.849)" fill="#421853"/>
          </g>
          <g id="Grupo_55816" data-name="Grupo 55816" transform="translate(9.158 24.11)">
            <path id="Trazado_101880" data-name="Trazado 101880" d="M6297.107,3132.754c-1.854,1.562-4.36,3.229-6.515,3.013a4.06,4.06,0,0,1-1.57-.555c-2.812-1.548-6.871-5.923-10.532-9.858-1.95-2.11-3.81-4.105-5.04-5.158a2.943,2.943,0,0,0-2.628-.96c-1.189.316-1.953,1.9-2.141,2.485l-.914-.3c.03-.094.873-2.588,2.8-3.118a3.834,3.834,0,0,1,3.528,1.169c1.255,1.088,3.049,3,5.115,5.222,3.876,4.186,9.189,9.892,11.475,10.111,1.861.187,4.165-1.393,5.876-2.857C6296.756,3132.229,6296.945,3132.488,6297.107,3132.754Z" transform="translate(-6267.768 -3118.199)" fill="#421853"/>
          </g>
        </g>
        <path id="Trazado_101881" data-name="Trazado 101881" d="M6455.711,1651.684s29.553,41.319,38.256,43.57,51.368-17.207,52.745-18.118,4.151-1.469,4.142-2.944-4-13.112-7.12-12.841-35.589,7.012-42.761,8.759c0,0-14.819-29.722-24.341-35.608S6453.183,1637.087,6455.711,1651.684Z" transform="translate(-195.666 -323.757)" fill="#ffe9c6"/>
        <path id="Trazado_101882" data-name="Trazado 101882" d="M6620.654,2337.881c-.295,2.462-.455,3.854-.455,3.854s-15.45,1.891-19.518-1.231c-2.007-5.459.553-38.91-1.445-58.089-1.275-12.1-1.517-51.684-1.525-79.221-.009-16.065.071-28.036.071-28.036l28.447,1.2s4.058,50.979,4.559,61.238C6631.225,2246.6,6622.724,2320.1,6620.654,2337.881Z" transform="translate(-312.377 -768.736)" fill="#f7e3c4"/>
        <path id="Trazado_101883" data-name="Trazado 101883" d="M6620.647,2452.646h.009c-.294,2.462-.454,3.854-.454,3.854s-15.45,1.891-19.519-1.231c-2.007-5.459.554-38.911-1.444-58.089-1.276-12.1-1.517-51.684-1.525-79.221l4.309-.615s8.983-1.071,11.176-2.258c3.015,17.181,2.768,34.991,1.7,43.082C6613.106,2371.764,6591.318,2431.523,6620.647,2452.646Z" transform="translate(-312.38 -883.502)" opacity="0.26" style="mix-blend-mode: overlay;isolation: isolate"/>
        <path id="Trazado_101884" data-name="Trazado 101884" d="M6349.315,2101.324s-8.918,61.336-10.871,67.8c-1.771,5.849-41.92,77.147-49.558,90.684-.807,1.426-1.248,2.211-1.248,2.211s-14.049-5.031-16.207-10.462,28.745-83.189,29.455-90.725-10.989-63.355-10.1-72.813c.772-8.186,44.067,7.766,55.682,12.206C6348.278,2100.913,6349.315,2101.324,6349.315,2101.324Z" transform="translate(-44.683 -695.385)" fill="#ffd494"/>
        <path id="Trazado_101885" data-name="Trazado 101885" d="M6346.123,2105.053c-8.8,7.316-35.877,2.017-42.462.968s-3.583,13.871-.8,26.964,4.725,35.611-.181,43.826-23.6,56.578-25.335,69.35c-1.285,9.459,7.105,12.645,11.544,13.652-.807,1.426-1.248,2.211-1.248,2.211s-14.049-5.031-16.207-10.462,28.745-83.189,29.455-90.725-10.989-63.355-10.1-72.813c.772-8.186,44.067,7.766,55.682,12.206C6347.492,2102.227,6347.5,2103.9,6346.123,2105.053Z" transform="translate(-44.683 -695.385)" opacity="0.26" style="mix-blend-mode: overlay;isolation: isolate"/>
        <path id="Trazado_101886" data-name="Trazado 101886" d="M6384.922,2120.6s-2.367,6.01,4.211,10.136,23.026,7.972,35.459,7.694c16.5-.37,22.747-2.007,25.423-4.126,1.679-1.329,2.118-3.01-.224-4.794C6446.906,2127.314,6384.922,2120.6,6384.922,2120.6Z" transform="translate(-137.514 -723.992)" fill="#fff"/>
        <path id="Trazado_101887" data-name="Trazado 101887" d="M6442.065,1478.153c-.143,6.654-.534,14.763-.99,22.791-.508,8.956-1.079,17.823-1.444,24.459-.34,6.182-.5,10.446-.241,11.07.776,1.891,1.008,6.012-.776,8.358,0,0-42.041,12.31-63.449-7.02-4.79-5.138-2.463-8.591-1.115-9.6-7.745-3.995.446-59.65,5.8-74.146s9.59-20.293,15.058-24.977c3.9-3.345,8.483-5.156,12.533-6.931l.82-.366c.571-.259,1.124-.508,1.668-.776.705-.339,1.392-.7,2.034-1.07,1.864-1.079,5.575-5.932,6.689-12.221l14.272,7.538s-5.084,10.169-3.2,20.481a22.075,22.075,0,0,0,1.009,3.738c.115.312.241.633.374.946.1.232.205.473.313.7C6436.937,1452.953,6442.512,1457.19,6442.065,1478.153Z" transform="translate(-126.331 -139.311)" fill="#ffd69a"/>
        <path id="Trazado_101888" data-name="Trazado 101888" d="M6607.835,1435.746c-11.971-3.461-19.794-14.727-19.794-14.727.7-.339,1.392-.7,2.034-1.07a14.819,14.819,0,0,0,4.406-5.558,23.046,23.046,0,0,0,2.283-6.663l14.272,7.538a40.148,40.148,0,0,0-3.452,12.479A28.606,28.606,0,0,0,6607.835,1435.746Z" transform="translate(-304.447 -139.311)" fill="#f4b47a"/>
        <path id="Trazado_101889" data-name="Trazado 101889" d="M6640.412,1415.265a40.148,40.148,0,0,0-3.452,12.479c-4.531-3.434-10.053-9.723-13.1-13.354a23.076,23.076,0,0,0,2.284-6.663Z" transform="translate(-333.821 -139.311)" opacity="0.32" style="mix-blend-mode: overlay;isolation: isolate"/>
        <path id="Trazado_101890" data-name="Trazado 101890" d="M6682.705,1320.386s-.481,16.176-8.155,21.457c-1.916,1.318-4.545.42-6.566-.132-3.53-.964-7.262-2.49-9.708-5.32-.647-.748-2.238-2.448-1.936-3.629l10.925-20.741Z" transform="translate(-360.432 -60.816)" fill="#f4b47a"/>
        <path id="Trazado_101891" data-name="Trazado 101891" d="M6629.814,1251.574c-.126,4.166-3.346,6.387-5.13,7.654s-11.6-.446-11.6-.446-5.067-.589-8.35,1.24c-.071.027-.134.072-.206.107h-.008a1.426,1.426,0,0,1-.144.1,5.274,5.274,0,0,0-1.552,1.463c-1.2,1.766-1.642,4.406-2.069,6.717v.009c-.5,2.667-.99,4.888-2.659,4.808-10.338-.5-9.776-6.744-9.776-6.744-7.591-5.459-1.623-13.791-1.623-13.791a8.261,8.261,0,0,1,1.677-9.741c4.309-4.317,10.705-1.561,10.705-1.561,1.409-1.784,4.825-3.969,14.156-3.434,9.366.535,10.553,7.671,10.553,7.671,2.676.464,4.228,1.142,5.085,2.168A5.324,5.324,0,0,1,6629.814,1251.574Z" transform="translate(-301.519 0)" fill="#111e61"/>
        <path id="Trazado_101892" data-name="Trazado 101892" d="M6667.422,1354.322s-.588-3.51-2.973-3.761-7.769,9.524-.618,10.278Z" transform="translate(-363.675 -92.421)" fill="#f4b47a"/>
        <path id="Trazado_101893" data-name="Trazado 101893" d="M6722.246,1296.824c-.125,4.166-3.345,6.387-5.129,7.654s-11.6-.446-11.6-.446-5.066-.589-8.35,1.24c.232-1.534,1.615-4.871,9.527-3.211,9.91,2.078,15.4-4.772,14.611-9.019A5.325,5.325,0,0,1,6722.246,1296.824Z" transform="translate(-393.952 -45.25)" opacity="0.5" style="mix-blend-mode: overlay;isolation: isolate"/>
        <path id="Trazado_101894" data-name="Trazado 101894" d="M6600.761,1280.5c-.5,2.667-.99,4.888-2.659,4.808-10.338-.5-9.776-6.744-9.776-6.744-7.591-5.459-1.623-13.791-1.623-13.791a8.262,8.262,0,0,1,1.677-9.741c4.309-4.317,10.705-1.561,10.705-1.561s-12.489-1.106-9.813,10.151c0,0-2.346,8.938,2.115,13.22,0,0,1.347,8.055,9.366,3.657Z" transform="translate(-301.519 -12.085)" opacity="0.26" style="mix-blend-mode: overlay;isolation: isolate"/>
        <path id="Trazado_101895" data-name="Trazado 101895" d="M6511.864,1640.932c-.509,8.956-1.08,17.823-1.445,24.459-12.426-2.8-47.527-14.272-51.756-20.49-5.058-7.43,4.461-58.133,4.461-58.133,7.733-12.631,23.79-9.812,27.055.892s.224,38.286.224,38.286C6494.246,1627.953,6504.015,1634.6,6511.864,1640.932Z" transform="translate(-197.12 -279.299)" opacity="0.21" style="mix-blend-mode: overlay;isolation: isolate"/>
        <path id="Trazado_101896" data-name="Trazado 101896" d="M6479.975,1571.892s-5.055,50.548,0,57.982,49.954,20.963,51.589,21.186,4.089,1.635,5.055.52,5.65-12.489,3.122-14.347-31.369-18.212-37.911-21.632c0,0,8.475-32.113,5.2-42.817S6487.706,1559.255,6479.975,1571.892Z" transform="translate(-213.971 -267.097)" fill="#ffdead"/>
        <g id="Grupo_55818" data-name="Grupo 55818" transform="translate(6237.237 1421.956)" opacity="0.26" style="mix-blend-mode: overlay;isolation: isolate">
          <path id="Trazado_101897" data-name="Trazado 101897" d="M6332.025,2391.264l-1.774-.768c.31-.713,30.81-71.308,31.731-81.093.928-9.829-4.392-47.213-4.446-47.592l1.914-.269c.22,1.545,5.4,37.987,4.456,48.041C6362.954,2319.677,6333.287,2388.348,6332.025,2391.264Z" transform="translate(-6330.251 -2261.543)"/>
        </g>
        <g id="Grupo_55824" data-name="Grupo 55824" transform="translate(6359.716 1330.501)">
          <g id="Grupo_55819" data-name="Grupo 55819" transform="translate(0 0)">
            <path id="Trazado_101898" data-name="Trazado 101898" d="M7018.18,1766.654a6.84,6.84,0,1,1,6.729-8.085h0a6.844,6.844,0,0,1-6.729,8.085Zm0-13.548a6.708,6.708,0,1,0,6.595,5.488h0A6.721,6.721,0,0,0,7018.185,1753.106Z" transform="translate(-7011.341 -1752.974)" fill="#fff"/>
          </g>
          <g id="Grupo_55820" data-name="Grupo 55820" transform="translate(3.38 0.087)">
            <path id="Trazado_101899" data-name="Trazado 101899" d="M7034.553,1766.964c-1.7,0-3.529-2.649-4.183-6.156-.687-3.706.2-6.99,1.984-7.322a1.607,1.607,0,0,1,.288-.027c1.7,0,3.529,2.649,4.183,6.156h0c.683,3.711-.2,7-1.983,7.322A1.618,1.618,0,0,1,7034.553,1766.964Zm-1.9-13.374a1.521,1.521,0,0,0-.279.025c-1.71.317-2.547,3.534-1.874,7.168.638,3.445,2.408,6.049,4.042,6.049a1.521,1.521,0,0,0,.279-.025c1.705-.314,2.547-3.529,1.875-7.168h0C7036.058,1756.2,7034.288,1753.591,7032.653,1753.591Z" transform="translate(-7030.138 -1753.459)" fill="#fff"/>
          </g>
          <g id="Grupo_55821" data-name="Grupo 55821" transform="translate(0.087 3.383)">
            <path id="Trazado_101900" data-name="Trazado 101900" d="M7016.722,1778.7c-2.606,0-4.615-.842-4.87-2.213-.16-.872.394-1.817,1.565-2.662a11.528,11.528,0,0,1,4.565-1.809c3.684-.683,6.993.2,7.322,1.981s-2.423,3.786-6.131,4.471A13.531,13.531,0,0,1,7016.722,1778.7Zm3.732-6.787a13.6,13.6,0,0,0-2.452.232,11.421,11.421,0,0,0-4.511,1.784c-1.126.815-1.66,1.715-1.51,2.532.319,1.707,3.519,2.542,7.173,1.877,3.634-.673,6.335-2.61,6.021-4.317C7024.931,1772.714,7022.986,1771.914,7020.454,1771.914Z" transform="translate(-7011.825 -1771.785)" fill="#fff"/>
          </g>
          <g id="Grupo_55822" data-name="Grupo 55822" transform="translate(5.542 0.167)">
            <path id="Trazado_101901" data-name="Trazado 101901" d="M7044.627,1767.248l-2.468-13.321.13-.025,2.468,13.321Z" transform="translate(-7042.159 -1753.902)" fill="#fff"/>
          </g>
          <g id="Grupo_55823" data-name="Grupo 55823" transform="translate(0.169 5.55)">
            <path id="Trazado_101902" data-name="Trazado 101902" d="M7012.3,1786.425l-.021-.129c3.6-.628,13-2.293,13.3-2.457l.061.115C7025.269,1784.16,7012.827,1786.333,7012.3,1786.425Z" transform="translate(-7012.278 -1783.838)" fill="#fff"/>
          </g>
        </g>
        <path id="Trazado_101903" data-name="Trazado 101903" d="M6573.977,1484.768l-.058-.039c-10.384-5.433-26.123-18.988-26.123-18.988,5.473-7.676,12.221-7.464,12.221-7.464s.7.831,1.76,2.127c3.712,4.467,12.027,14.6,13.052,16.8C6576.162,1480.05,6573.977,1484.768,6573.977,1484.768Z" transform="translate(-271.438 -180.771)" fill="#fff"/>
        <path id="Trazado_101904" data-name="Trazado 101904" d="M6698.628,1540.521s-.87-1.837-1.817-3.848c-.542-1.121-.715-3.848-.773-6.052-.058-1.721-.02-3.094-.02-3.094C6700.968,1531.278,6698.628,1540.521,6698.628,1540.521Z" transform="translate(-392.996 -237.568)" fill="#fff"/>
        <g id="Grupo_55825" data-name="Grupo 55825" transform="translate(6251.414 1391.117)" opacity="0.21" style="mix-blend-mode: overlay;isolation: isolate">
          <path id="Trazado_101905" data-name="Trazado 101905" d="M6409.088,2090.053a50.569,50.569,0,0,0,13.287,6.064,74.915,74.915,0,0,0,14.276,2.863,99.652,99.652,0,0,0,14.6.6c4.895-.1,9.771-.58,14.7-1.018-2.395.59-4.817,1.078-7.242,1.6-2.453.3-4.9.7-7.376.907a83.439,83.439,0,0,1-14.9-.167,65.981,65.981,0,0,1-14.537-3.38A38.453,38.453,0,0,1,6409.088,2090.053Z" transform="translate(-6409.088 -2090.053)"/>
        </g>
        <g id="Grupo_55826" data-name="Grupo 55826" transform="translate(6271.73 1383.437)" opacity="0.21" style="mix-blend-mode: overlay;isolation: isolate">
          <path id="Trazado_101906" data-name="Trazado 101906" d="M6522.064,2047.343a33.233,33.233,0,0,0,8.2,5.218,49.88,49.88,0,0,0,9.152,3.2,88.613,88.613,0,0,0,19.358,2.414l-4.922.387c-1.646-.025-3.3.012-4.947-.078A55.585,55.585,0,0,1,6539.1,2057C6532.771,2055.278,6526.352,2052.447,6522.064,2047.343Z" transform="translate(-6522.064 -2047.343)"/>
        </g>
        <g id="Grupo_55827" data-name="Grupo 55827" transform="translate(6288.677 1380.634)" opacity="0.21" style="mix-blend-mode: overlay;isolation: isolate">
          <path id="Trazado_101907" data-name="Trazado 101907" d="M6616.3,2031.757a20.054,20.054,0,0,0,3.675,3.975,25.714,25.714,0,0,0,4.514,2.962,45.16,45.16,0,0,0,10.1,3.979,29.456,29.456,0,0,1-5.349-1.234,33.639,33.639,0,0,1-5.094-2.118C6621.027,2037.445,6617.9,2035.113,6616.3,2031.757Z" transform="translate(-6616.305 -2031.757)"/>
        </g>
      </g>
    </g>
  </g>
</svg>
