<svg xmlns="http://www.w3.org/2000/svg" width="150.39" height="150.395" viewBox="0 0 150.39 150.395">
  <g id="Page-1" transform="translate(-0.003 -0.001)">
    <g id="_053---Searcing-For-Money" data-name="053---Searcing-For-Money" transform="translate(0.003 0.001)">
      <path id="Rectangle-path" d="M0,0H15.549V16.394H0Z" transform="translate(87.052 98.07) rotate(-45)" fill="#bdc3c7"/>
      <path id="Shape" d="M87.6,80.243l-7.339,7.339a7.78,7.78,0,0,1-11,0L41.826,60.146H41.8A12.966,12.966,0,0,1,49.138,38.13,14.644,14.644,0,0,1,50.98,38a12.914,12.914,0,0,1,9.18,3.786v.026L87.6,69.248a7.78,7.78,0,0,1,0,11Z" transform="translate(60.519 60.538)" fill="#e64c3c"/>
      <path id="Shape-2" data-name="Shape" d="M98.069,87.077a54.457,54.457,0,1,1-5.109-71.131A54.457,54.457,0,0,1,98.069,87.077Z" transform="translate(-0.003 -0.001)" fill="#3b97d3"/>
      <circle id="Oval" cx="44.5" cy="44.5" r="44.5" transform="translate(10 10)" fill="#f0c419"/>
      <path id="Shape-3" data-name="Shape" d="M86.03,25.634a44.113,44.113,0,0,0-60.4,60.4,44.084,44.084,0,1,1,60.4-60.4Z" transform="translate(6.383 6.388)" fill="#f3d55b"/>
      <path id="Shape-4" data-name="Shape" d="M13.484,77.429a2.593,2.593,0,0,1-2.129-1.107A46.677,46.677,0,0,1,76.32,11.354,2.593,2.593,0,1,1,73.35,15.6,41.491,41.491,0,0,0,15.608,73.35a2.593,2.593,0,0,1-2.124,4.079Z" transform="translate(4.79 4.795)" fill="#fff"/>
      <path id="Shape-5" data-name="Shape" d="M38.088,84.773a46.418,46.418,0,0,1-26.65-8.407,2.593,2.593,0,1,1,2.969-4.25A41.491,41.491,0,0,0,72.139,14.371,2.594,2.594,0,0,1,76.392,11.4a46.709,46.709,0,0,1-38.3,73.374Z" transform="translate(16.361 16.391)" fill="#fff"/>
      <path id="Shape-6" data-name="Shape" d="M36.339,39.253V18.536C43.6,19.387,49.3,23.723,49.3,28.746a2.593,2.593,0,1,0,5.186,0c0-7.92-7.935-14.462-18.152-15.424V10.593a2.593,2.593,0,0,0-5.186,0v2.728C20.935,14.283,13,20.826,13,28.746S20.935,43.208,31.152,44.17V64.887c-7.261-.851-12.966-5.186-12.966-10.209a2.593,2.593,0,0,0-5.186,0C13,62.6,20.935,69.14,31.152,70.1V72.83a2.593,2.593,0,0,0,5.186,0V70.1c10.217-.962,18.152-7.5,18.152-15.424S46.556,40.215,36.339,39.253ZM18.186,28.746c0-5.033,5.705-9.359,12.966-10.209V38.955C23.891,38.1,18.186,33.779,18.186,28.746ZM36.339,64.887V44.468C43.6,45.319,49.3,49.654,49.3,54.677S43.6,64.036,36.339,64.887Z" transform="translate(20.703 12.742)" fill="#b19046"/>
      <path id="Rectangle-path-2" data-name="Rectangle-path" d="M0,0H25.929V5.171H0Z" transform="translate(102.324 120.682) rotate(-45)" fill="#c03a2b"/>
    </g>
  </g>
</svg>
