<svg xmlns="http://www.w3.org/2000/svg" width="160.77" height="152.879" viewBox="0 0 160.77 152.879">
  <g id="ley" transform="translate(0 -12.565)">
    <g id="Grupo_56281" data-name="Grupo 56281" transform="translate(33.554 110.781)">
      <g id="Grupo_56272" data-name="Grupo 56272" transform="translate(0 8.821)">
        <path id="Trazado_102526" data-name="Trazado 102526" d="M121.275,371.938c0,12.486,5.929,18.49,5.929,18.49H114.336a3.211,3.211,0,0,1-2.623-1.342c-1.711-2.4-4.852-8.058-4.852-17.148s3.141-14.747,4.852-17.151a3.211,3.211,0,0,1,2.623-1.342H127.2S121.275,359.449,121.275,371.938Z" transform="translate(-106.86 -353.444)" fill="#fb3a82"/>
        <path id="Trazado_102527" data-name="Trazado 102527" d="M127.2,353.445s-5.761,5.832-5.926,17.963l-12.072,13.075a32.47,32.47,0,0,1-2.345-12.544c0-9.093,3.141-14.747,4.852-17.151a3.211,3.211,0,0,1,2.623-1.342H127.2Z" transform="translate(-106.861 -353.444)" fill="#fb1466"/>
        <path id="Trazado_102528" data-name="Trazado 102528" d="M244.811,371.935a28.08,28.08,0,0,0,6.741,18.492H148.394s-5.93-6-5.93-18.492,5.93-18.492,5.93-18.492H251.552A28.08,28.08,0,0,0,244.811,371.935Z" transform="translate(-131.284 -353.443)" fill="#e0d3ce"/>
        <g id="Grupo_56271" data-name="Grupo 56271" transform="translate(11.18 0.001)">
          <path id="Trazado_102529" data-name="Trazado 102529" d="M162.284,353.445,142.571,374.8c-.068-.912-.107-1.866-.107-2.86,0-12.489,5.929-18.493,5.929-18.493Z" transform="translate(-142.464 -353.445)" fill="#cdbfbb"/>
          <path id="Trazado_102530" data-name="Trazado 102530" d="M441.7,371.942a28.076,28.076,0,0,0,6.741,18.491H436.222a28.731,28.731,0,0,1,0-36.983h12.224A28.067,28.067,0,0,0,441.7,371.942Z" transform="translate(-339.357 -353.449)" fill="#cdbfbb"/>
        </g>
      </g>
      <g id="Grupo_56276" data-name="Grupo 56276" transform="translate(13.918)">
        <g id="Grupo_56274" data-name="Grupo 56274" transform="translate(0.001)">
          <path id="Trazado_102531" data-name="Trazado 102531" d="M264.482,330.722a5.368,5.368,0,0,1-5.367,5.367H156.556a5.368,5.368,0,0,1,0-10.736H259.115A5.368,5.368,0,0,1,264.482,330.722Z" transform="translate(-151.189 -325.352)" fill="#fb3a82"/>
          <g id="Grupo_56273" data-name="Grupo 56273">
            <path id="Trazado_102532" data-name="Trazado 102532" d="M176.411,325.352,166.5,336.088h-9.947a5.368,5.368,0,0,1,0-10.736Z" transform="translate(-151.189 -325.352)" fill="#fb1466"/>
            <path id="Trazado_102533" data-name="Trazado 102533" d="M477.522,330.722a5.373,5.373,0,0,1-5.371,5.371H461.74a5.369,5.369,0,0,0,0-10.737h10.411A5.369,5.369,0,0,1,477.522,330.722Z" transform="translate(-364.226 -325.355)" fill="#fb1466"/>
          </g>
        </g>
        <g id="Grupo_56275" data-name="Grupo 56275" transform="translate(0 43.889)">
          <path id="Trazado_102534" data-name="Trazado 102534" d="M259.113,475.861H156.554a5.368,5.368,0,0,1,0-10.736H259.113a5.368,5.368,0,1,1,0,10.736Z" transform="translate(-151.186 -465.125)" fill="#fb3a82"/>
          <path id="Trazado_102535" data-name="Trazado 102535" d="M477.522,470.5a5.366,5.366,0,0,1-5.371,5.366H461.74a5.366,5.366,0,1,0,0-10.732h10.411A5.369,5.369,0,0,1,477.522,470.5Z" transform="translate(-364.225 -465.128)" fill="#fb1466"/>
        </g>
      </g>
      <g id="Grupo_56280" data-name="Grupo 56280" transform="translate(11.309 19.337)">
        <g id="Grupo_56277" data-name="Grupo 56277">
          <path id="Trazado_102536" data-name="Trazado 102536" d="M194.219,389.361a2.425,2.425,0,0,1-2.426,2.426H142.876a33.453,33.453,0,0,1,.754-4.852h48.163A2.425,2.425,0,0,1,194.219,389.361Z" transform="translate(-142.876 -386.935)" fill="#cdbfbb"/>
        </g>
        <g id="Grupo_56278" data-name="Grupo 56278" transform="translate(66.482 0)">
          <path id="Trazado_102537" data-name="Trazado 102537" d="M391.433,386.936a28.658,28.658,0,0,0-.935,4.852H357.025a2.426,2.426,0,0,1,0-4.852h34.408Z" transform="translate(-354.599 -386.936)" fill="#cdbfbb"/>
        </g>
        <g id="Grupo_56279" data-name="Grupo 56279" transform="translate(18.159 11.021)">
          <path id="Trazado_102538" data-name="Trazado 102538" d="M259.655,426.886H203.134a2.426,2.426,0,1,1,0-4.852h56.521a2.426,2.426,0,1,1,0,4.852Z" transform="translate(-200.708 -422.034)" fill="#cdbfbb"/>
        </g>
      </g>
    </g>
    <g id="Grupo_56290" data-name="Grupo 56290" transform="translate(0 12.565)">
      <g id="Grupo_56284" data-name="Grupo 56284" transform="translate(0 61.684)">
        <g id="Grupo_56282" data-name="Grupo 56282" transform="translate(0 20.533)">
          <path id="Trazado_102539" data-name="Trazado 102539" d="M70.662,283.065,62,274.4,3,328.856a9.341,9.341,0,1,0,13.2,13.2Z" transform="translate(0 -274.399)" fill="#873f30"/>
          <path id="Trazado_102540" data-name="Trazado 102540" d="M16.947,348.151a9.345,9.345,0,0,1-13.207,0,9.249,9.249,0,0,1-2.278-3.722,9.328,9.328,0,0,0,9.479-2.27c.089-.089.179-.185.266-.277l54.458-58.992,6,6L17.208,347.879c-.087.092-.174.185-.26.272Z" transform="translate(-1.003 -280.222)" fill="#6c3328"/>
        </g>
        <path id="Trazado_102541" data-name="Trazado 102541" d="M208.618,209.008l-19.955,23.8,8.152,8.152,23.8-19.955Z" transform="translate(-129.422 -209.008)" fill="#873f30"/>
        <path id="Trazado_102542" data-name="Trazado 102542" d="M215.633,209.008l-6.448,7.691,1.935,1.935a3.647,3.647,0,0,1,0,5.157l-12.23,12.23,4.941,4.941,23.8-19.955Z" transform="translate(-136.437 -209.008)" fill="#6c3328"/>
        <g id="Grupo_56283" data-name="Grupo 56283" transform="translate(52.637 18.929)">
          <path id="Trazado_102543" data-name="Trazado 102543" d="M177.262,287.205l-7.913-7.913a5.858,5.858,0,1,1,8.284-8.284l7.913,7.913a5.858,5.858,0,1,1-8.284,8.284Z" transform="translate(-167.633 -269.292)" fill="#ba5d4f"/>
          <path id="Trazado_102544" data-name="Trazado 102544" d="M193.471,295.136a5.858,5.858,0,0,1-8.284,0l-6-6a5.858,5.858,0,1,0,8.284-8.284l6,6A5.855,5.855,0,0,1,193.471,295.136Z" transform="translate(-175.56 -277.224)" fill="#a34f41"/>
        </g>
      </g>
      <g id="Grupo_56287" data-name="Grupo 56287" transform="translate(61.95 7.281)">
        <g id="Grupo_56285" data-name="Grupo 56285" transform="translate(0 0)">
          <path id="Trazado_102545" data-name="Trazado 102545" d="M0,0H24.851V39.016H0Z" transform="translate(27.584 0) rotate(45)" fill="#ba5d4f"/>
        </g>
        <g id="Grupo_56286" data-name="Grupo 56286" transform="translate(38.486 38.509)">
          <path id="Trazado_102546" data-name="Trazado 102546" d="M0,0H24.851V39.015H0Z" transform="translate(17.57 45.154) rotate(-135)" fill="#a34f41"/>
        </g>
      </g>
      <g id="Grupo_56289" data-name="Grupo 56289" transform="translate(54.662 0)">
        <path id="Trazado_102547" data-name="Trazado 102547" d="M176.427,53.485l-.61-.61a5.927,5.927,0,0,1,0-8.381L206.008,14.3a5.927,5.927,0,0,1,8.381,0l.61.61a5.927,5.927,0,0,1,0,8.381L184.808,53.485A5.927,5.927,0,0,1,176.427,53.485Z" transform="translate(-174.08 -12.565)" fill="#873f30"/>
        <path id="Trazado_102548" data-name="Trazado 102548" d="M352.763,229.822l.61.61a5.927,5.927,0,0,0,8.381,0l30.192-30.192a5.927,5.927,0,0,0,0-8.381l-.61-.61a5.927,5.927,0,0,0-8.381,0L352.763,221.44A5.927,5.927,0,0,0,352.763,229.822Z" transform="translate(-295.466 -133.951)" fill="#6c3328"/>
        <g id="Grupo_56288" data-name="Grupo 56288" transform="translate(15.259 15.259)">
          <path id="Trazado_102549" data-name="Trazado 102549" d="M0,0H27.908V58.925H0Z" transform="translate(44.809 3.137) rotate(45)" fill="#fcc16d"/>
          <path id="Trazado_102550" data-name="Trazado 102550" d="M0,0H58.925V14.125H0Z" transform="translate(12.881 54.565) rotate(-45)" fill="#fca62f"/>
          <path id="Trazado_102551" data-name="Trazado 102551" d="M267.58,63.468l-4.834-1.976a4.445,4.445,0,0,0-4.825.971L223.978,96.407a4.444,4.444,0,0,0-.971,4.825l1.976,4.834a2.963,2.963,0,0,0,4.838.974l38.734-38.734A2.963,2.963,0,0,0,267.58,63.468Z" transform="translate(-222.676 -61.161)" fill="#873f30"/>
          <path id="Trazado_102552" data-name="Trazado 102552" d="M333.839,129.727l1.976,4.834a4.445,4.445,0,0,1-.971,4.825L300.9,173.33a4.444,4.444,0,0,1-4.825.971l-4.834-1.976a2.963,2.963,0,0,1-.974-4.838L329,128.753A2.964,2.964,0,0,1,333.839,129.727Z" transform="translate(-268.448 -106.933)" fill="#6c3328"/>
        </g>
      </g>
    </g>
  </g>
</svg>
