<svg id="juridico" xmlns="http://www.w3.org/2000/svg" width="159.469" height="159.468" viewBox="0 0 159.469 159.468">
  <rect id="Rectángulo_5917" data-name="Rectángulo 5917" width="82.226" height="21.179" transform="translate(74.128 39.886)" fill="#a0aeff"/>
  <rect id="Rectángulo_5918" data-name="Rectángulo 5918" width="21.179" height="21.179" transform="translate(74.128 39.886)" fill="#6a80ff"/>
  <rect id="Rectángulo_5919" data-name="Rectángulo 5919" width="62.292" height="69.767" transform="translate(11.836 15.592)" fill="#fedc75"/>
  <g id="Grupo_56913" data-name="Grupo 56913" transform="translate(3.131 3.115)">
    <path id="Trazado_104122" data-name="Trazado 104122" d="M83.722,274.063H16.29a6.239,6.239,0,0,0-6.239,6.239h0a6.239,6.239,0,0,0,6.239,6.239H83.722a6.239,6.239,0,0,0,6.239-6.239h0A6.239,6.239,0,0,0,83.722,274.063Z" transform="translate(-10.051 -191.817)" fill="#fee28c"/>
    <path id="Trazado_104123" data-name="Trazado 104123" d="M83.722,10H16.29a6.239,6.239,0,0,0-6.239,6.239h0a6.239,6.239,0,0,0,6.239,6.239H83.722a6.239,6.239,0,0,0,6.239-6.239h0A6.239,6.239,0,0,0,83.722,10Z" transform="translate(-10.051 -10)" fill="#fee28c"/>
  </g>
  <rect id="Rectángulo_5920" data-name="Rectángulo 5920" width="80.628" height="16.399" transform="translate(2.733 139.39)" fill="#8b9cff"/>
  <path id="Trazado_104124" data-name="Trazado 104124" d="M91.8,400H38.229A6.229,6.229,0,0,0,32,406.229v8.721H98.03v-8.721A6.229,6.229,0,0,0,91.8,400Z" transform="translate(-22.033 -275.415)" fill="#fee28c"/>
  <path id="Trazado_104125" data-name="Trazado 104125" d="M113.159,109.226,92.64,91.667,72.122,109.226H76.43V131.4h32.421V109.226Z" transform="translate(-49.659 -63.116)" fill="#fff"/>
  <path id="Trazado_104126" data-name="Trazado 104126" d="M82.849,404.95H79.111v-5.606A9.354,9.354,0,0,0,69.767,390H56.53a3.115,3.115,0,1,0,0,6.229H69.767a3.118,3.118,0,0,1,3.115,3.115v5.606h-59.8v-5.606a3.118,3.118,0,0,1,3.115-3.115H29.745a3.115,3.115,0,1,0,0-6.229H16.2a9.354,9.354,0,0,0-9.344,9.344v5.606H3.115A3.115,3.115,0,0,0,0,408.065v16.819A3.115,3.115,0,0,0,3.115,428H82.849a3.115,3.115,0,0,0,3.115-3.115V408.065A3.115,3.115,0,0,0,82.849,404.95Zm-3.115,16.819H6.229v-10.59H79.734Z" transform="translate(0 -268.53)"/>
  <path id="Trazado_104127" data-name="Trazado 104127" d="M156.389,36.772H77.278V18.7A9.353,9.353,0,0,0,76.837,0H9.4a9.352,9.352,0,0,0-.648,18.682V82.27A9.352,9.352,0,0,0,9.4,100.953H76.837a9.353,9.353,0,0,0,.441-18.7V64.181h33.534a3.115,3.115,0,1,0,0-6.229H77.278V43h14.95V48.42a3.115,3.115,0,1,0,6.229,0V43h54.817v14.95H137.6a3.115,3.115,0,1,0,0,6.229h18.791a3.115,3.115,0,0,0,3.115-3.115V39.887A3.115,3.115,0,0,0,156.389,36.772ZM14.985,82.246V18.707H71.048V82.246ZM6.28,9.354A3.128,3.128,0,0,1,9.4,6.229H76.837a3.124,3.124,0,0,1,0,6.249H9.4A3.127,3.127,0,0,1,6.28,9.354ZM79.961,91.6a3.128,3.128,0,0,1-3.124,3.124H9.4a3.124,3.124,0,0,1,0-6.249H76.837A3.128,3.128,0,0,1,79.961,91.6Z" transform="translate(-0.035 0)"/>
  <path id="Trazado_104128" data-name="Trazado 104128" d="M392.594,186.06a3.116,3.116,0,1,0,2.2.913A3.144,3.144,0,0,0,392.594,186.06Z" transform="translate(-268.171 -128.109)"/>
  <path id="Trazado_104129" data-name="Trazado 104129" d="M133.646,395.316a3.112,3.112,0,1,0-2.2.913A3.137,3.137,0,0,0,133.646,395.316Z" transform="translate(-88.36 -268.53)"/>
  <path id="Trazado_104130" data-name="Trazado 104130" d="M108.3,99.974,87.78,82.415a3.115,3.115,0,0,0-4.05,0L63.211,99.974a3.115,3.115,0,0,0,2.025,5.481h1.193v19.064a3.115,3.115,0,0,0,3.115,3.115h32.422a3.115,3.115,0,0,0,3.115-3.115V105.455h1.193a3.115,3.115,0,0,0,2.025-5.481ZM85.755,88.881,97.843,99.226H73.666ZM88.869,121.4v-6.623a3.115,3.115,0,1,0-6.229,0V121.4H72.658V105.455H98.851V121.4Z" transform="translate(-42.773 -56.231)"/>
</svg>
