<svg xmlns="http://www.w3.org/2000/svg" width="66.87" height="90.579" viewBox="0 0 66.87 90.579">
  <g id="empujar" transform="translate(-66.82)">
    <g id="Grupo_56578" data-name="Grupo 56578" transform="translate(83.133 6.661)">
      <circle id="Elipse_421" data-name="Elipse 421" cx="12.055" cy="12.055" r="12.055" transform="translate(6.062)" fill="#ade194"/>
      <path id="Trazado_103191" data-name="Trazado 103191" d="M199.446,49.607A12.058,12.058,0,0,1,208.253,38a12.056,12.056,0,1,0,0,23.218,12.058,12.058,0,0,1-8.808-11.609Z" transform="translate(-186.888 -37.552)" fill="#97da7b"/>
      <g id="Grupo_56577" data-name="Grupo 56577" transform="translate(0 11.182)">
        <g id="XMLID_559_">
          <g id="Grupo_56576" data-name="Grupo 56576">
            <path id="Trazado_103192" data-name="Trazado 103192" d="M199.129,120.466a4.438,4.438,0,0,1,8.875,0v35.65a5.164,5.164,0,0,1-.7,2.6l-2.137,3.673v7.886a1.547,1.547,0,0,1-1.536,1.547l-21.9.157a1.547,1.547,0,0,1-1.558-1.547v-6.659l-9.04-8.407a5.921,5.921,0,0,1-1.224-1.616L159.2,132.918a3.519,3.519,0,0,1,5.5-4.243l7.806,7.273V105.021a4.437,4.437,0,0,1,4.523-4.436,4.5,4.5,0,0,1,4.352,4.536v15.344a4.439,4.439,0,0,1,8.877,0,4.438,4.438,0,0,1,8.875,0Z" transform="translate(-158.778 -100.584)" fill="#ffcebf"/>
            <g id="Grupo_56575" data-name="Grupo 56575">
              <path id="Trazado_103193" data-name="Trazado 103193" d="M184.708,296.311v-6.659l-9.04-8.407a5.921,5.921,0,0,1-1.224-1.616L163.728,258.8a3.518,3.518,0,0,1,.831-4.359A3.517,3.517,0,0,0,159.2,258.8l10.715,20.83a5.921,5.921,0,0,0,1.224,1.616l9.04,8.407v6.659a1.547,1.547,0,0,0,1.558,1.547l4.215-.03A1.547,1.547,0,0,1,184.708,296.311Z" transform="translate(-158.777 -226.465)" fill="#ffb09e"/>
              <path id="Trazado_103194" data-name="Trazado 103194" d="M238.093,135.947a2.576,2.576,0,0,0,2.576-2.576V105.02a4.442,4.442,0,0,1,2.157-3.807,4.314,4.314,0,0,0-2.165-.629,4.437,4.437,0,0,0-4.523,4.436v30.926Z" transform="translate(-222.414 -100.584)" fill="#ffb09e"/>
            </g>
          </g>
        </g>
      </g>
    </g>
    <g id="Grupo_56579" data-name="Grupo 56579" transform="translate(66.82 0)">
      <path id="Trazado_103195" data-name="Trazado 103195" d="M207.295,374.876a4.539,4.539,0,0,1-.947-1.25l-2.2-4.283a1.331,1.331,0,0,0-2.366,1.217l2.2,4.283a7.193,7.193,0,0,0,1.5,1.981l8.615,8.014v7.637a1.33,1.33,0,1,0,2.661,0v-8.217a1.33,1.33,0,0,0-.424-.974Z" transform="translate(-177.715 -303.228)"/>
      <path id="Trazado_103196" data-name="Trazado 103196" d="M160.138,222.381,154.23,210.9l-.012-.022a2.189,2.189,0,0,1,3.42-2.638l7.806,7.273a1.331,1.331,0,0,0,2.238-.973V197.452a1.331,1.331,0,1,0-2.661,0v14.026l-5.568-5.188a4.85,4.85,0,0,0-7.584,5.835l5.9,11.474a1.33,1.33,0,1,0,2.366-1.217Z" transform="translate(-136.314 -161.329)"/>
      <path id="Trazado_103197" data-name="Trazado 103197" d="M261.033,108.524a5.759,5.759,0,0,0-4.438,2.088,5.76,5.76,0,0,0-8.876,0,5.756,5.756,0,0,0-7.545-1.175V98.847a5.768,5.768,0,1,0-11.537,0v8.172a1.331,1.331,0,1,0,2.661,0V98.847a3.107,3.107,0,1,1,6.215,0v23.632a1.331,1.331,0,1,0,2.661,0v-8.187a3.107,3.107,0,0,1,6.215,0v8.18a1.33,1.33,0,1,0,2.661,0v-8.18a3.107,3.107,0,0,1,6.215,0v8.18a1.331,1.331,0,1,0,2.661,0v-8.18a3.107,3.107,0,0,1,6.215,0v35.65a3.844,3.844,0,0,1-.521,1.931l-2.136,3.671a1.332,1.332,0,0,0-.181.669v9.421a1.331,1.331,0,0,0,2.661,0v-9.061l1.956-3.361a6.507,6.507,0,0,0,.882-3.269v-35.65A5.775,5.775,0,0,0,261.033,108.524Z" transform="translate(-199.931 -76.567)"/>
      <path id="Trazado_103198" data-name="Trazado 103198" d="M311.224,74.229a10.92,10.92,0,0,1-2.278,6.708,1.331,1.331,0,1,0,2.111,1.621A13.687,13.687,0,0,0,312.5,68.231a1.33,1.33,0,0,0-2.391,1.168A10.916,10.916,0,0,1,311.224,74.229Z" transform="translate(-265.767 -55.512)"/>
      <path id="Trazado_103199" data-name="Trazado 103199" d="M186.674,50.492a1.33,1.33,0,0,0,2.092-1.645,10.912,10.912,0,0,1-2.357-6.809,11.039,11.039,0,0,1,11.027-11.027,10.922,10.922,0,0,1,6.7,2.274,1.331,1.331,0,1,0,1.62-2.111,13.559,13.559,0,0,0-8.323-2.824,13.7,13.7,0,0,0-13.688,13.688,13.548,13.548,0,0,0,2.926,8.454Z" transform="translate(-163.005 -23.321)"/>
      <path id="Trazado_103200" data-name="Trazado 103200" d="M142.706,37.189a1.33,1.33,0,1,0,1.544-2.167,20,20,0,0,1,0-32.605A1.33,1.33,0,0,0,142.706.248a22.663,22.663,0,0,0,0,36.94Z" transform="translate(-121.404 -0.001)"/>
      <path id="Trazado_103201" data-name="Trazado 103201" d="M323.621,2.414a20.022,20.022,0,0,1,6.976,23.76,1.33,1.33,0,1,0,2.469.993,22.683,22.683,0,0,0-7.9-26.921,1.331,1.331,0,1,0-1.544,2.168Z" transform="translate(-277.605 0)"/>
      <path id="Trazado_103202" data-name="Trazado 103202" d="M73.694,33.694a1.331,1.331,0,0,0,1.948-1.813l-2.894-3.108A1.331,1.331,0,1,0,70.8,30.586Z" transform="translate(-69.801 -23.32)"/>
      <path id="Trazado_103203" data-name="Trazado 103203" d="M73.695,130.867,70.8,133.975a1.33,1.33,0,1,0,1.948,1.813l2.894-3.108a1.33,1.33,0,1,0-1.947-1.813Z" transform="translate(-69.801 -107.303)"/>
      <path id="Trazado_103204" data-name="Trazado 103204" d="M71.687,85.135H68.15a1.331,1.331,0,0,0,0,2.661h3.537a1.331,1.331,0,1,0,0-2.661Z" transform="translate(-66.82 -70.032)"/>
    </g>
  </g>
</svg>
