<svg xmlns="http://www.w3.org/2000/svg" width="85.388" height="76.092" viewBox="0 0 85.388 76.092">
  <g id="online-shopping" transform="translate(0 -27.87)">
    <g id="Grupo_56580" data-name="Grupo 56580" transform="translate(33.254 88.171)">
      <path id="Trazado_103205" data-name="Trazado 103205" d="M199.4,389.443h18.574v14.541H199.4Z" transform="translate(-199.397 -389.443)" fill="#dae7ef"/>
    </g>
    <g id="Grupo_56581" data-name="Grupo 56581" transform="translate(46.459 88.171)">
      <path id="Trazado_103206" data-name="Trazado 103206" d="M278.574,389.443h5.37v14.541h-5.37Z" transform="translate(-278.574 -389.443)" fill="#c1d5e4"/>
    </g>
    <g id="Grupo_56582" data-name="Grupo 56582" transform="translate(1.251 75.678)">
      <path id="Trazado_103207" data-name="Trazado 103207" d="M9.168,314.536l-1.668,3.6v7.82a3.335,3.335,0,0,0,3.335,3.335H87.051a3.335,3.335,0,0,0,3.335-3.335v-7.82l-1.668-3.6Z" transform="translate(-7.5 -314.536)" fill="#dae7ef"/>
    </g>
    <g id="Grupo_56583" data-name="Grupo 56583" transform="translate(1.251 75.678)">
      <path id="Trazado_103208" data-name="Trazado 103208" d="M88.719,314.536H82.857v3.892a3.335,3.335,0,0,1-3.335,3.335H7.5v4.194a3.335,3.335,0,0,0,3.335,3.335H87.051a3.335,3.335,0,0,0,3.335-3.335v-7.819Z" transform="translate(-7.5 -314.536)" fill="#c1d5e4"/>
    </g>
    <g id="Grupo_56584" data-name="Grupo 56584" transform="translate(1.251 35.325)">
      <path id="Trazado_103209" data-name="Trazado 103209" d="M87.051,72.574H10.835A3.335,3.335,0,0,0,7.5,75.909v40.618H90.387V75.909A3.335,3.335,0,0,0,87.051,72.574Z" transform="translate(-7.5 -72.574)" fill="#61a2f9"/>
    </g>
    <g id="Grupo_56585" data-name="Grupo 56585" transform="translate(76.608 35.325)">
      <path id="Trazado_103210" data-name="Trazado 103210" d="M463.548,72.574h-4.194v43.954h7.529V75.909A3.335,3.335,0,0,0,463.548,72.574Z" transform="translate(-459.354 -72.574)" fill="#4a81f6"/>
    </g>
    <g id="Grupo_56586" data-name="Grupo 56586" transform="translate(20.856 29.121)">
      <circle id="Elipse_422" data-name="Elipse 422" cx="21.686" cy="21.686" r="21.686" fill="#86f1a7"/>
    </g>
    <g id="Grupo_56587" data-name="Grupo 56587" transform="translate(24.472 32.737)">
      <path id="Trazado_103211" data-name="Trazado 103211" d="M176.795,57.053a21.684,21.684,0,0,1-30.058,30.058,21.685,21.685,0,1,0,30.058-30.058Z" transform="translate(-146.737 -57.053)" fill="#78d090"/>
    </g>
    <g id="Grupo_56588" data-name="Grupo 56588" transform="translate(0 27.87)">
      <path id="Trazado_103212" data-name="Trazado 103212" d="M80.8,34.075H58.3c-.024,0-.047,0-.07,0a23.01,23.01,0,0,0-2.655-2.146,1.251,1.251,0,1,0-1.424,2.057,20.332,20.332,0,1,1-5.078-2.551,1.251,1.251,0,1,0,.8-2.37,22.966,22.966,0,1,0,10.652,7.509H80.8a2.087,2.087,0,0,1,2.085,2.085V78.029H72.993a1.251,1.251,0,1,0,0,2.5h9.893V87.1A2.087,2.087,0,0,1,80.8,89.184H4.586A2.087,2.087,0,0,1,2.5,87.1V80.53H66.694a1.251,1.251,0,0,0,0-2.5H2.5V38.661a2.087,2.087,0,0,1,2.085-2.085H19.5a1.251,1.251,0,0,0,0-2.5H4.586A4.591,4.591,0,0,0,0,38.661V87.1a4.591,4.591,0,0,0,4.586,4.586H32v9.775H28.227a1.251,1.251,0,1,0,0,2.5H56.855a1.251,1.251,0,0,0,0-2.5H53.079V91.685H80.8A4.591,4.591,0,0,0,85.388,87.1V38.661A4.591,4.591,0,0,0,80.8,34.075ZM50.578,101.461H34.5V91.685H50.578Z" transform="translate(0 -27.87)"/>
      <path id="Trazado_103213" data-name="Trazado 103213" d="M174,93.3a3,3,0,0,0-2.944-2.441h-1.338a1.251,1.251,0,1,0,0,2.5h1.338a.5.5,0,0,1,.486.4l3.7,19.607a1.251,1.251,0,0,0,1.229,1.019h.844a2.334,2.334,0,1,0,3.477,0h5.146a2.334,2.334,0,1,0,3.477,0h1.126a1.251,1.251,0,1,0,0-2.5H177.511l-.51-2.7H190.98a1.251,1.251,0,0,0,1.229-1.018l2.22-11.712,0-.023a1.5,1.5,0,0,0-1.482-1.757H174.262Zm1.866,9.881h3.413l.256,3.5H176.53Zm8.932,0-.256,3.5h-2.5l-.256-3.5Zm-3.194-2.5-.256-3.5h3.889l-.256,3.5Zm5.447,6,.256-3.5h3.3l-.664,3.5Zm4.03-6h-3.591l.256-3.5h4Zm-12.241-3.5.256,3.5h-3.7l-.661-3.5Z" transform="translate(-140.374 -80.351)"/>
      <path id="Trazado_103214" data-name="Trazado 103214" d="M42.6,262.6H50a1.251,1.251,0,0,0,0-2.5H42.6a1.251,1.251,0,0,0,0,2.5Z" transform="translate(-34.455 -221.371)"/>
      <path id="Trazado_103215" data-name="Trazado 103215" d="M42.6,296.432h13.8a1.251,1.251,0,1,0,0-2.5H42.6a1.251,1.251,0,1,0,0,2.5Z" transform="translate(-34.455 -249.558)"/>
      <path id="Trazado_103216" data-name="Trazado 103216" d="M416.788,108.37a1.251,1.251,0,0,0-1.251,1.251v3.131h-3.131a1.251,1.251,0,0,0,0,2.5h3.131v3.131a1.251,1.251,0,1,0,2.5,0v-3.131h3.13a1.251,1.251,0,0,0,0-2.5h-3.13v-3.131a1.251,1.251,0,0,0-1.251-1.251Z" transform="translate(-342.586 -94.945)"/>
    </g>
  </g>
</svg>
