<svg xmlns="http://www.w3.org/2000/svg" width="161.563" height="161.563" viewBox="0 0 161.563 161.563">
  <g id="Filled_outline" data-name="Filled outline" transform="translate(-16 -16)">
    <path id="Trazado_103217" data-name="Trazado 103217" d="M98.771,72H206.479A10.771,10.771,0,0,1,217.25,82.771v83.474a8.078,8.078,0,0,1-8.078,8.078H96.078A8.078,8.078,0,0,1,88,166.245V82.771A10.771,10.771,0,0,1,98.771,72Z" transform="translate(-47.766 -37.151)" fill="#4db7e5"/>
    <path id="Trazado_103218" data-name="Trazado 103218" d="M434.693,72H432V174.323h5.385V72.339A10.793,10.793,0,0,0,434.693,72Z" transform="translate(-275.979 -37.151)" fill="#48add9"/>
    <path id="Trazado_103219" data-name="Trazado 103219" d="M219.552,24H138.771A10.771,10.771,0,0,0,128,34.771V147.865H230.323V34.771A10.771,10.771,0,0,0,219.552,24Z" transform="translate(-74.302 -5.307)" fill="#348fd9"/>
    <path id="Trazado_103220" data-name="Trazado 103220" d="M238.284,100,140,198.284h98.284Z" transform="translate(-82.263 -55.727)" fill="#3086cd"/>
    <path id="Trazado_103221" data-name="Trazado 103221" d="M246.01,155.005q0,1.358-.1,2.693a34.96,34.96,0,0,1-30.03,31.973c-.72.1-1.447.182-2.181.239q-1.333.1-2.693.1t-2.693-.1c-.734-.057-1.461-.135-2.181-.239a34.56,34.56,0,0,1-8.152-2.164A35,35,0,0,1,176.1,157.7q-.1-1.333-.1-2.693t.1-2.693a34.964,34.964,0,0,1,29.65-31.919q1.267-.192,2.561-.293,1.333-.1,2.693-.1t2.693.1c.734.057,1.461.135,2.181.239a34.543,34.543,0,0,1,8.145,2.161,35.124,35.124,0,0,1,18.041,16.348,34.725,34.725,0,0,1,3.844,13.464Q246.01,153.645,246.01,155.005Z" transform="translate(-106.146 -68.995)" fill="#4db7e5"/>
    <path id="Trazado_103222" data-name="Trazado 103222" d="M245.909,157.7q.1-1.333.1-2.693t-.1-2.693H232.5a68.487,68.487,0,0,0-1.845-13.464h11.414a34.8,34.8,0,0,0-3.467-5.385h-9.505a55.376,55.376,0,0,0-5.069-10.963,34.542,34.542,0,0,0-8.145-2.161l1.878,2.423a47.168,47.168,0,0,1,5.618,10.7H213.7V120.1q-1.333-.1-2.693-.1t-2.693.1v13.363h-9.677a46.994,46.994,0,0,1,5.648-10.741c.034-.044.061-.091.091-.135l1.377-2.195a34.665,34.665,0,0,0-7.765,2.107,55.2,55.2,0,0,0-5.069,10.963h-9.505a34.8,34.8,0,0,0-3.467,5.385h11.414a68.419,68.419,0,0,0-1.845,13.464H176.1q-.1,1.333-.1,2.693t.1,2.693h13.416a67.477,67.477,0,0,0,2.572,16.156H181.5a35.143,35.143,0,0,0,4.248,5.385h8.166a52.387,52.387,0,0,0,4.066,8.267,34.559,34.559,0,0,0,8.152,2.164l-1.878-2.427a44.59,44.59,0,0,1-4.514-8h8.573v10.67q1.333.1,2.693.1t2.693-.1V179.24h8.573a44.414,44.414,0,0,1-4.514,8l-1.878,2.427a34.559,34.559,0,0,0,8.152-2.164,52.091,52.091,0,0,0,4.066-8.267h8.166a35.144,35.144,0,0,0,4.248-5.385H229.921a67.584,67.584,0,0,0,2.572-16.156Zm-37.6,16.156H197.72a61.562,61.562,0,0,1-2.814-16.156h13.406Zm0-21.542H194.9a62.574,62.574,0,0,1,2.009-13.464h11.4Zm15.978,21.542H213.7V157.7H227.1A61.684,61.684,0,0,1,224.29,173.854ZM213.7,152.313V138.849h11.4a62.667,62.667,0,0,1,2.009,13.464Z" transform="translate(-106.146 -68.995)" fill="#60d1e0"/>
    <path id="Trazado_103223" data-name="Trazado 103223" d="M159.744,362.693a9.193,9.193,0,0,1-6.5,2.693h-22a9.194,9.194,0,0,1-6.5-2.692,9.193,9.193,0,0,0-6.5-2.693H72v8.078a8.078,8.078,0,0,0,8.078,8.078H203.943a8.078,8.078,0,0,0,8.078-8.078V360H166.245a9.2,9.2,0,0,0-6.5,2.692Z" transform="translate(-37.151 -228.214)" fill="#e0e0de"/>
    <path id="Trazado_103224" data-name="Trazado 103224" d="M440.078,360v8.078A8.078,8.078,0,0,1,432,376.156h10.771a8.078,8.078,0,0,0,8.078-8.078V360Z" transform="translate(-275.979 -228.214)" fill="#d6d6d4"/>
    <path id="Trazado_103225" data-name="Trazado 103225" d="M99.4,358.059v33.659a5.984,5.984,0,0,1-.828,3.053,6.047,6.047,0,0,1-5.231,3.006H30.059a6.047,6.047,0,0,1-5.231-3.006A5.984,5.984,0,0,1,24,391.717V358.059a5.984,5.984,0,0,1,.828-3.053A6.048,6.048,0,0,1,30.059,352H93.337a6.047,6.047,0,0,1,5.231,3.006,5.984,5.984,0,0,1,.828,3.053Z" transform="translate(-5.307 -222.906)" fill="#ffb531"/>
    <path id="Trazado_103226" data-name="Trazado 103226" d="M100.2,355.006c-8.337,4.642-21.747,7.654-36.87,7.654s-28.533-3.012-36.87-7.654A6.048,6.048,0,0,1,31.691,352H94.969a6.047,6.047,0,0,1,5.231,3.006Z" transform="translate(-6.939 -222.906)" fill="#ffcb73"/>
    <path id="Trazado_103227" data-name="Trazado 103227" d="M100.2,463.984a6.047,6.047,0,0,1-5.231,3.006H31.691a6.047,6.047,0,0,1-5.231-3.006c8.337-4.642,21.747-7.654,36.87-7.654s28.533,3.012,36.87,7.654Z" transform="translate(-6.939 -292.12)" fill="#ffa912"/>
    <path id="Trazado_103228" data-name="Trazado 103228" d="M77.62,216A29.62,29.62,0,0,0,48,245.62v16.156H58.771V245.62a18.849,18.849,0,0,1,37.7,0v16.156H107.24V245.62A29.62,29.62,0,0,0,77.62,216Z" transform="translate(-21.229 -132.682)" fill="#e0e0de"/>
    <path id="Trazado_103229" data-name="Trazado 103229" d="M128.154,400.009a8.078,8.078,0,1,0-10.771,7.582v5.882h5.385v-5.882A8.065,8.065,0,0,0,128.154,400.009Z" transform="translate(-63.685 -249.374)" fill="#95573a"/>
    <path id="Trazado_103230" data-name="Trazado 103230" d="M217.328,129.094h-2.693V45.62a13.479,13.479,0,0,0-13.464-13.464V29.464A13.479,13.479,0,0,0,187.708,16H106.927A13.479,13.479,0,0,0,93.464,29.464v2.693A13.479,13.479,0,0,0,80,45.62V77.932h5.385V45.62a8.087,8.087,0,0,1,8.078-8.078v37.7h5.385V29.464a8.087,8.087,0,0,1,8.078-8.078h80.781a8.087,8.087,0,0,1,8.078,8.078v91.552h5.385V37.542a8.087,8.087,0,0,1,8.078,8.078v83.474h-37.7a11.793,11.793,0,0,0-8.394,3.481,6.476,6.476,0,0,1-4.612,1.9H144.625v5.385h13.921a11.827,11.827,0,0,0,8.42-3.481,6.445,6.445,0,0,1,4.585-1.9h43.083v5.385a5.392,5.392,0,0,1-5.385,5.385H144.625v5.385H209.25a10.783,10.783,0,0,0,10.771-10.771v-8.078a2.693,2.693,0,0,0-2.693-2.693Z" transform="translate(-42.458)"/>
    <path id="Trazado_103231" data-name="Trazado 103231" d="M120,272h5.385v18.849H120Z" transform="translate(-68.995 -169.833)"/>
    <path id="Trazado_103232" data-name="Trazado 103232" d="M159.995,48h5.385v5.385h-5.385Z" transform="translate(-95.528 -21.229)"/>
    <path id="Trazado_103233" data-name="Trazado 103233" d="M191.995,48h5.385v5.385h-5.385Z" transform="translate(-116.757 -21.229)"/>
    <path id="Trazado_103234" data-name="Trazado 103234" d="M223.995,48h5.385v5.385h-5.385Z" transform="translate(-137.986 -21.229)"/>
    <path id="Trazado_103235" data-name="Trazado 103235" d="M160,80h80.781v5.385H160Z" transform="translate(-95.531 -42.458)"/>
    <path id="Trazado_103236" data-name="Trazado 103236" d="M199.447,180.939c-.569-.147-1.144-.313-1.707-.494l-1.647,5.128c.663.213,1.339.408,1.994.577a37.694,37.694,0,1,0-22.149-56.757A37.224,37.224,0,0,0,171,141l5.241,1.24a31.824,31.824,0,0,1,3.473-8.7h8.329a68.792,68.792,0,0,0-1.9,16.156c0,1.865.075,3.749.223,5.6l5.368-.43c-.066-.821-.115-1.649-.149-2.478H205v16.156h-8.078v5.385H205v7.958a32.246,32.246,0,0,1-5.548-.952Zm29.587-7.005a32.439,32.439,0,0,1-6.129,4.257c.677-1.378,1.306-2.794,1.873-4.257Zm4.885-5.385H226.6a67.72,67.72,0,0,0,2.575-16.156h10.716A31.744,31.744,0,0,1,233.919,168.549Zm-33.5-50.329a32.164,32.164,0,0,1,4.574-.712v10.65h-9.669a47.616,47.616,0,0,1,5.095-9.939Zm9.96-.711a32.224,32.224,0,0,1,4.574.712,47.61,47.61,0,0,1,5.1,9.938h-9.67Zm11.4,16.035a62.628,62.628,0,0,1,2.009,13.464H210.381V133.543Zm18.108,13.464H229.18a68.328,68.328,0,0,0-1.844-13.464h8.327a32.006,32.006,0,0,1,4.223,13.464Zm-8.127-18.849h-5.987a57.856,57.856,0,0,0-2.891-6.989,32.013,32.013,0,0,1,8.877,6.989Zm-39.265-6.988a57.856,57.856,0,0,0-2.891,6.988h-5.987A32.01,32.01,0,0,1,192.495,121.17Zm-.906,25.837a62.606,62.606,0,0,1,2.009-13.464H205v13.464Zm18.792,5.385h13.407a61.678,61.678,0,0,1-2.818,16.156H210.381Zm8.567,21.542a44.9,44.9,0,0,1-3.986,7.244,32.118,32.118,0,0,1-4.581.714v-7.958Z" transform="translate(-102.829 -63.689)"/>
    <path id="Trazado_103237" data-name="Trazado 103237" d="M88.7,253.83V240.313a32.312,32.312,0,1,0-64.625,0V253.83a9.067,9.067,0,0,0-8.078,9v33.053a9.065,9.065,0,0,0,9.054,9.054H87.727a9.065,9.065,0,0,0,9.054-9.054V262.83a9.067,9.067,0,0,0-8.078-9ZM56.391,213.385a26.958,26.958,0,0,1,26.927,26.927v13.464H77.932V240.313a21.542,21.542,0,0,0-43.083,0v13.464H29.464V240.313A26.958,26.958,0,0,1,56.391,213.385Zm16.156,40.391H40.234V240.313a16.156,16.156,0,1,1,32.312,0ZM91.4,295.883a3.673,3.673,0,0,1-3.669,3.669H25.054a3.673,3.673,0,0,1-3.669-3.669V262.83a3.673,3.673,0,0,1,3.669-3.669H87.727A3.673,3.673,0,0,1,91.4,262.83Z" transform="translate(0 -127.375)"/>
    <path id="Trazado_103238" data-name="Trazado 103238" d="M120.083,392a8.078,8.078,0,0,0-2.693,15.693v5.849h5.385v-5.849A8.078,8.078,0,0,0,120.083,392Zm0,10.771a2.693,2.693,0,1,1,2.693-2.693A2.693,2.693,0,0,1,120.083,402.771Z" transform="translate(-63.692 -249.443)"/>
  </g>
</svg>
