<svg xmlns="http://www.w3.org/2000/svg" width="157" height="157" viewBox="0 0 157 157">
  <g id="Grupo_56639" data-name="Grupo 56639" transform="translate(-1028 -26811)">
    <g id="Grupo_56637" data-name="Grupo 56637" transform="translate(728 26123)">
      <rect id="Rectángulo_5634" data-name="Rectángulo 5634" width="157" height="157" rx="17" transform="translate(300 688)" fill="#eff2ff"/>
    </g>
    <g id="XMLID_2603_" transform="translate(1060.941 26837.137)">
      <g id="XMLID_1212_" transform="translate(39.697 28.427)">
        <path id="XMLID_1221_" d="M222.729,293.974V296.4l-10.1,2.216a9.48,9.48,0,0,0-7.449,9.26v18.6h45.66V307.878a9.48,9.48,0,0,0-7.455-9.261l-10.153-2.22v-2.44" transform="translate(-205.179 -265.511)" fill="#5ddef5"/>
        <path id="XMLID_2604_" d="M306.391,306.568,301.14,320.61l-5.251-14.042Z" transform="translate(-278.339 -275.682)" fill="#fff"/>
        <path id="XMLID_1217_" d="M276.814,146.929h0a11.122,11.122,0,0,0-11.122,11.122v2.677h5.438a12.221,12.221,0,0,0,9.366-4.371h0l7.44,4.371v-2.677A11.122,11.122,0,0,0,276.814,146.929Z" transform="translate(-253.984 -146.929)" fill="#afabb0"/>
        <path id="XMLID_1216_" d="M278.1,197.847a12.218,12.218,0,0,1-6.97,2.186h-5.438v4.724a11.122,11.122,0,0,0,11.122,11.122h0a11.122,11.122,0,0,0,11.122-11.122v-4.724l-3.72-2.186-3.72-2.186Z" transform="translate(-253.985 -186.233)" fill="#fed2a4"/>
      </g>
      <rect id="XMLID_2502_" width="94.963" height="7.721" transform="translate(2.316 89.559)" fill="#ffbe52"/>
      <circle id="XMLID_2195_" cx="15.97" cy="15.97" r="15.97" transform="translate(1.935 1.935)" fill="#93e7f8"/>
      <rect id="XMLID_2533_" width="41.691" height="30.882" transform="translate(2.316 44.007)" fill="#c7c4c8"/>
      <path id="XMLID_1029_" d="M105.739,330.023H98V310.869A3.869,3.869,0,0,1,101.869,307h0a3.869,3.869,0,0,1,3.869,3.869Z" transform="translate(-79.04 -247.604)" fill="#5ddef5"/>
      <path id="XMLID_1028_" d="M86.121,432.965H66v-2.9A4.063,4.063,0,0,1,70.063,426h12a4.063,4.063,0,0,1,4.063,4.063Z" transform="translate(-53.231 -343.58)" fill="#5ddef5"/>
      <rect id="XMLID_1222_" width="24.706" height="7.721" transform="translate(72.573 81.838)" fill="#fff"/>
      <rect id="XMLID_1227_" width="24.706" height="7.721" transform="translate(72.573 74.118)" fill="#e8e7e9"/>
      <rect id="XMLID_1229_" width="24.706" height="7.721" transform="translate(72.573 66.397)" fill="#fff"/>
      <g id="XMLID_636_">
        <path id="XMLID_1699_" d="M17.905,35.81A17.905,17.905,0,1,0,0,17.905,17.925,17.925,0,0,0,17.905,35.81Zm0-31.941A14.036,14.036,0,1,1,3.869,17.905,14.052,14.052,0,0,1,17.905,3.869Z"/>
        <path id="XMLID_1701_" d="M86.074,49.58a1.935,1.935,0,1,0,2.732-2.741l-2.323-2.315V35.935a1.935,1.935,0,0,0-3.869,0v9.392a1.936,1.936,0,0,0,.569,1.37Z" transform="translate(-66.63 -27.422)"/>
        <path id="XMLID_1706_" d="M97.124,174.67H85.216a11.426,11.426,0,0,0-6.9-4.591l-8.506-1.86a13.054,13.054,0,0,0,5.775-10.832v-7.4a13.057,13.057,0,1,0-26.114,0v7.4a13.054,13.054,0,0,0,5.761,10.824l-8.5,1.865c-.363.08-.72.177-1.071.291V154.355a1.935,1.935,0,0,0-1.935-1.935H30.569a1.935,1.935,0,1,0,0,3.869H41.79v27.086H28.634V173.7a5.8,5.8,0,0,0-11.608,0v9.674H3.869V156.29H15.091a1.935,1.935,0,0,0,0-3.869H1.935A1.935,1.935,0,0,0,0,154.355v30.956a1.935,1.935,0,0,0,1.935,1.935H17.026v3.676h-.193a6,6,0,0,0-6,6v.967h-8.9A1.935,1.935,0,0,0,0,199.822v7.739A1.935,1.935,0,0,0,1.935,209.5H97.124a1.935,1.935,0,0,0,1.935-1.935V176.6A1.935,1.935,0,0,0,97.124,174.67ZM85.357,197.887H74.294v-3.869h20.9v3.869Zm9.833-7.739h-20.9v-3.869h20.9Zm0-7.739h-20.9V178.54h20.9Zm-41.85-32.423a9.187,9.187,0,0,1,18.347-.72l-4.5-2.642a1.935,1.935,0,0,0-2.463.425,10.26,10.26,0,0,1-7.883,3.679h-3.5v-.743Zm0,4.612h3.5a14.115,14.115,0,0,0,9.713-3.858l5.158,3.03v3.617a9.187,9.187,0,1,1-18.375,0V154.6Zm12.218,15.487-3.06,8.183-3.065-8.2a12.99,12.99,0,0,0,6.125.015ZM43.725,187.246a1.935,1.935,0,0,0,1.935-1.935V174.55a7.525,7.525,0,0,1,1.9-.694L56.022,172l4.663,12.471a1.935,1.935,0,0,0,3.624,0L68.973,172l8.515,1.862a7.531,7.531,0,0,1,2.109.81H72.359a1.935,1.935,0,0,0-1.935,1.935v21.282H41.632V187.246h2.094Zm-5.963,0v10.641H34.825v-.967a6,6,0,0,0-6-6h-.193v-3.676ZM20.9,173.7a1.935,1.935,0,0,1,3.869,0v17.219H20.9ZM14.7,196.92a2.131,2.131,0,0,1,2.128-2.128h12a2.131,2.131,0,0,1,2.128,2.128v.967H14.7Zm80.485,8.706H3.869v-3.869h91.32Z" transform="translate(0 -110.437)"/>
        <path id="XMLID_1768_" d="M108.567,217.567a1.933,1.933,0,1,0,1.368-.567A1.949,1.949,0,0,0,108.567,217.567Z" transform="translate(-87.105 -175.016)"/>
      </g>
    </g>
  </g>
</svg>
