<svg xmlns="http://www.w3.org/2000/svg" width="144.555" height="51.947" viewBox="0 0 144.555 51.947">
  <g id="Grupo_56123" data-name="Grupo 56123" transform="translate(-755.445 -2801.953)">
    <g id="atras" transform="translate(848.053 2801.953)">
      <path id="Trazado_102278" data-name="Trazado 102278" d="M26.524,52.5A25.974,25.974,0,1,0,.55,26.524,25.974,25.974,0,0,0,26.524,52.5Zm0-47.637A21.664,21.664,0,1,1,4.86,26.524,21.664,21.664,0,0,1,26.524,4.86Z" transform="translate(-0.55 -0.55)" fill="#ff9800"/>
      <path id="Trazado_102279" data-name="Trazado 102279" d="M18.569,27.94H35.877V23.607H18.569a6.51,6.51,0,1,1,0-13H35.877V6.276H18.569a10.843,10.843,0,1,0,0,21.664Z" transform="translate(0.917 6.699)" fill="#ff9800"/>
      <path id="Trazado_102280" data-name="Trazado 102280" d="M8.942,30.763,19.128,20.555,8.942,10.37,5.88,13.432,13,20.555,5.88,27.7Z" transform="translate(20.729 11.906)" fill="#ff9800"/>
    </g>
    <path id="Trazado_104132" data-name="Trazado 104132" d="M9.639-6.006H3.916V0H1.445V-14.219h9.033v1.992H3.916V-8H9.639ZM17.48-8.4a5.872,5.872,0,0,0-.967-.078,2.177,2.177,0,0,0-2.2,1.25V0H11.943V-10.566h2.266l.059,1.182a2.674,2.674,0,0,1,2.383-1.377,2.222,2.222,0,0,1,.84.137ZM23.447.2A4.91,4.91,0,0,1,19.79-1.226a5.154,5.154,0,0,1-1.4-3.784V-5.3A6.34,6.34,0,0,1,19-8.13a4.645,4.645,0,0,1,1.714-1.938,4.531,4.531,0,0,1,2.461-.693,4.147,4.147,0,0,1,3.335,1.377,5.823,5.823,0,0,1,1.177,3.9v.957h-6.9a3.173,3.173,0,0,0,.874,2.07,2.624,2.624,0,0,0,1.929.762A3.213,3.213,0,0,0,26.24-3.018L27.52-1.8a4.272,4.272,0,0,1-1.694,1.47A5.3,5.3,0,0,1,23.447.2Zm-.283-9.053a2,2,0,0,0-1.577.684,3.543,3.543,0,0,0-.767,1.9h4.521v-.176a2.884,2.884,0,0,0-.635-1.8A1.983,1.983,0,0,0,23.164-8.857Zm8.564-1.709L31.8-9.346a3.8,3.8,0,0,1,3.076-1.416q3.3,0,3.359,3.779V0H35.859V-6.846a2.176,2.176,0,0,0-.435-1.489A1.828,1.828,0,0,0,34-8.818a2.287,2.287,0,0,0-2.139,1.3V0H29.492V-10.566Zm11.895-2.568v2.568h1.865v1.758H43.623v5.9a1.3,1.3,0,0,0,.239.874,1.109,1.109,0,0,0,.854.269,3.656,3.656,0,0,0,.83-.1V-.029A5.845,5.845,0,0,1,43.984.2Q41.25.2,41.25-2.822V-8.809H39.512v-1.758H41.25v-2.568ZM51.953.2A4.91,4.91,0,0,1,48.3-1.226a5.154,5.154,0,0,1-1.4-3.784V-5.3A6.34,6.34,0,0,1,47.5-8.13a4.646,4.646,0,0,1,1.714-1.938,4.531,4.531,0,0,1,2.461-.693,4.147,4.147,0,0,1,3.335,1.377,5.823,5.823,0,0,1,1.177,3.9v.957h-6.9a3.173,3.173,0,0,0,.874,2.07A2.624,2.624,0,0,0,52.09-1.7a3.213,3.213,0,0,0,2.656-1.318L56.025-1.8a4.272,4.272,0,0,1-1.694,1.47A5.3,5.3,0,0,1,51.953.2ZM51.67-8.857a2,2,0,0,0-1.577.684,3.543,3.543,0,0,0-.767,1.9h4.521v-.176a2.884,2.884,0,0,0-.635-1.8A1.983,1.983,0,0,0,51.67-8.857Z" transform="translate(754 2835)" fill="#12263f"/>
  </g>
</svg>
