<svg xmlns="http://www.w3.org/2000/svg" width="231" height="231.001" viewBox="0 0 231 231.001">
  <g id="el-precio-de-venta-promedio" transform="translate(-0.843 -0.487)">
    <path id="Trazado_102446" data-name="Trazado 102446" d="M24.974,101.48A3.974,3.974,0,0,1,21,97.506V25.974a3.974,3.974,0,1,1,7.948,0V97.506A3.974,3.974,0,0,1,24.974,101.48Z" transform="translate(59.476 62.45)" fill="#b9bfcc"/>
    <path id="Trazado_102447" data-name="Trazado 102447" d="M40.974,101.48A3.974,3.974,0,0,1,37,97.506V25.974a3.974,3.974,0,1,1,7.948,0V97.506A3.974,3.974,0,0,1,40.974,101.48Z" transform="translate(107.06 62.45)" fill="#b9bfcc"/>
    <path id="Trazado_102448" data-name="Trazado 102448" d="M178.881,51.948H11.974a3.974,3.974,0,0,1,0-7.948H178.881a3.974,3.974,0,0,1,0,7.948Z" transform="translate(20.814 127.878)" fill="#90cf4a"/>
    <path id="Trazado_102449" data-name="Trazado 102449" d="M128.092,107.534a3.974,3.974,0,0,1-3.577-2.2L96.3,48.862,68.085,105.337a4.141,4.141,0,0,1-7.113,0L31.628,46.685,14.5,63.821a3.982,3.982,0,1,1-5.631-5.631L29.9,37.167a3.918,3.918,0,0,1,3.445-1.113A3.974,3.974,0,0,1,36.261,38.2L64.509,94.675,92.744,38.2a4.141,4.141,0,0,1,7.113,0l28.235,56.474L156.308,38.2a3.974,3.974,0,0,1,6.358-1.033l21.062,21.022a3.982,3.982,0,0,1-5.631,5.631L160.973,46.7l-29.3,58.64a3.974,3.974,0,0,1-3.577,2.2Z" transform="translate(19.942 104.083)" fill="#346d92"/>
    <circle id="Elipse_416" data-name="Elipse 416" cx="51.5" cy="51.5" r="51.5" transform="translate(64.843 0.488)" fill="#e2af40"/>
    <circle id="Elipse_417" data-name="Elipse 417" cx="35.5" cy="35.5" r="35.5" transform="translate(80.843 16.488)" fill="#fccb55"/>
    <rect id="Rectángulo_5713" data-name="Rectángulo 5713" width="31" height="24" rx="1" transform="translate(0.843 163.488)" fill="#295474"/>
    <rect id="Rectángulo_5714" data-name="Rectángulo 5714" width="32" height="24" rx="1" transform="translate(199.843 163.488)" fill="#295474"/>
    <rect id="Rectángulo_5715" data-name="Rectángulo 5715" width="34" height="25" rx="1" transform="translate(162.843 119.488)" fill="#295474"/>
    <rect id="Rectángulo_5716" data-name="Rectángulo 5716" width="32" height="25" rx="1" transform="translate(100.843 119.488)" fill="#295474"/>
    <rect id="Rectángulo_5717" data-name="Rectángulo 5717" width="30" height="23" rx="1" transform="translate(132.843 208.488)" fill="#295474"/>
    <rect id="Rectángulo_5718" data-name="Rectángulo 5718" width="33" height="25" rx="1" transform="translate(35.843 119.488)" fill="#295474"/>
    <rect id="Rectángulo_5719" data-name="Rectángulo 5719" width="32" height="23" rx="1" transform="translate(68.843 208.488)" fill="#295474"/>
    <path id="Trazado_102450" data-name="Trazado 102450" d="M50.841,39.792A11.922,11.922,0,0,0,38.919,27.87a3.974,3.974,0,1,1,3.445-5.961,3.974,3.974,0,0,0,6.879-3.974,11.894,11.894,0,0,0-6.35-5.166v-.795a3.974,3.974,0,1,0-7.948,0v.731a11.894,11.894,0,0,0,3.974,23.113,3.974,3.974,0,1,1-3.445,5.961,3.974,3.974,0,0,0-6.879,3.974,11.894,11.894,0,0,0,6.358,5.166v.795a3.974,3.974,0,1,0,7.948,0v-.731A11.922,11.922,0,0,0,50.841,39.792Z" transform="translate(77.323 20.814)" fill="#e2af40"/>
    <g id="Grupo_56234" data-name="Grupo 56234" transform="translate(64.578 0.997)">
      <path id="Trazado_102451" data-name="Trazado 102451" d="M36.948,1.2V17.134a33.235,33.235,0,0,0-7.948,0V1.2a39.839,39.839,0,0,1,7.948,0Z" transform="translate(18.69 -1)" fill="#cc9a37"/>
      <path id="Trazado_102452" data-name="Trazado 102452" d="M29.542,2.285l7.984,13.8a32.34,32.34,0,0,0-3.577,1.78,32.886,32.886,0,0,0-3.322,2.194l-7.968-13.8A32.9,32.9,0,0,1,26,4.1a32.372,32.372,0,0,1,3.541-1.816Z" transform="translate(-0.168 2.822)" fill="#cc9a37"/>
      <path id="Trazado_102453" data-name="Trazado 102453" d="M22.259,6.659l13.8,7.968a32.886,32.886,0,0,0-2.194,3.322,32.339,32.339,0,0,0-1.78,3.577l-13.8-7.984A32.372,32.372,0,0,1,20.1,10a32.9,32.9,0,0,1,2.158-3.342Z" transform="translate(-13.177 15.83)" fill="#cc9a37"/>
      <path id="Trazado_102454" data-name="Trazado 102454" d="M17.2,13H33.136a33.234,33.234,0,0,0,0,7.948H17.2a32.862,32.862,0,0,1-.2-3.974A32.862,32.862,0,0,1,17.2,13Z" transform="translate(-17 34.688)" fill="#cc9a37"/>
      <path id="Trazado_102455" data-name="Trazado 102455" d="M18.285,25.584l13.8-7.984a32.34,32.34,0,0,0,1.78,3.577A32.886,32.886,0,0,0,36.061,24.5l-13.8,7.968A32.9,32.9,0,0,1,20.1,29.125a32.373,32.373,0,0,1-1.816-3.541Z" transform="translate(-13.177 48.368)" fill="#cc9a37"/>
      <path id="Trazado_102456" data-name="Trazado 102456" d="M22.659,35.044l7.968-13.8a32.886,32.886,0,0,0,3.322,2.194,32.337,32.337,0,0,0,3.577,1.78l-7.968,13.8A32.373,32.373,0,0,1,26.017,37.2a32.9,32.9,0,0,1-3.358-2.158Z" transform="translate(-0.168 59.199)" fill="#cc9a37"/>
      <path id="Trazado_102457" data-name="Trazado 102457" d="M29,38.876V22.94a33.234,33.234,0,0,0,7.948,0V38.876A39.837,39.837,0,0,1,29,38.876Z" transform="translate(18.69 64.249)" fill="#cc9a37"/>
      <path id="Trazado_102458" data-name="Trazado 102458" d="M41.584,39.018,33.6,25.216a32.34,32.34,0,0,0,3.577-1.78A32.882,32.882,0,0,0,40.5,21.242l7.968,13.8A32.9,32.9,0,0,1,45.125,37.2a32.374,32.374,0,0,1-3.541,1.816Z" transform="translate(32.37 59.199)" fill="#cc9a37"/>
      <path id="Trazado_102459" data-name="Trazado 102459" d="M51.044,32.467,37.242,24.5a32.887,32.887,0,0,0,2.194-3.322,32.342,32.342,0,0,0,1.78-3.577l13.8,7.968A32.374,32.374,0,0,1,53.2,29.109,32.9,32.9,0,0,1,51.044,32.467Z" transform="translate(43.201 48.368)" fill="#cc9a37"/>
      <path id="Trazado_102460" data-name="Trazado 102460" d="M54.876,20.948H38.94a33.234,33.234,0,0,0,0-7.948H54.876a32.855,32.855,0,0,1,.2,3.974,32.859,32.859,0,0,1-.2,3.974Z" transform="translate(48.251 34.688)" fill="#cc9a37"/>
      <path id="Trazado_102461" data-name="Trazado 102461" d="M55.018,13.527l-13.8,7.984a32.34,32.34,0,0,0-1.78-3.577,32.886,32.886,0,0,0-2.194-3.322l13.8-7.948A32.9,32.9,0,0,1,53.2,10.006a32.373,32.373,0,0,1,1.816,3.521Z" transform="translate(43.201 15.845)" fill="#cc9a37"/>
      <path id="Trazado_102462" data-name="Trazado 102462" d="M48.467,6.259,40.5,20.061a32.884,32.884,0,0,0-3.322-2.194,32.34,32.34,0,0,0-3.577-1.78l7.968-13.8A32.371,32.371,0,0,1,45.109,4.1a32.9,32.9,0,0,1,3.358,2.158Z" transform="translate(32.37 2.822)" fill="#cc9a37"/>
    </g>
  </g>
</svg>
