<svg xmlns="http://www.w3.org/2000/svg" width="200" height="200" viewBox="0 0 200 200">
  <g id="el-tiempo-es-dinero" transform="translate(42.437 42.382)">
    <g id="Grupo_56231" data-name="Grupo 56231" transform="translate(-42.437 -42.382)">
      <g id="Grupo_56223" data-name="Grupo 56223" transform="translate(14.222 14.204)">
        <path id="Trazado_102428" data-name="Trazado 102428" d="M85.8,171.592A85.8,85.8,0,0,1,25.129,25.129,85.8,85.8,0,0,1,146.463,146.463,85.237,85.237,0,0,1,85.8,171.592Z" transform="translate(0 0)" fill="#4e638b"/>
        <path id="Trazado_102429" data-name="Trazado 102429" d="M316.667,25.129A85.237,85.237,0,0,0,256,0V171.592A85.8,85.8,0,0,0,316.667,25.129Z" transform="translate(-170.204 0)" fill="#293e65"/>
      </g>
      <g id="Grupo_56230" data-name="Grupo 56230">
        <g id="Grupo_56224" data-name="Grupo 56224">
          <ellipse id="Elipse_415" data-name="Elipse 415" cx="70.722" cy="70.721" rx="70.722" ry="70.721" transform="translate(0 100) rotate(-45)" fill="#293e65"/>
          <path id="Trazado_102430" data-name="Trazado 102430" d="M256,44.98V186.423A70.722,70.722,0,1,0,256,44.98Z" transform="translate(-155.982 -15.702)" fill="#0f134c"/>
        </g>
        <g id="Grupo_56229" data-name="Grupo 56229" transform="translate(39.351 39.333)">
          <g id="Grupo_56225" data-name="Grupo 56225" transform="translate(0.192 0.202)">
            <path id="Trazado_102431" data-name="Trazado 102431" d="M136.028,193.364c-1.692,0-3.368,3.282-5.025,3.145a60.408,60.408,0,0,1-34.221-14.233c-1.334-1.134.733-5.677-.5-6.92-1.129-1.141-5.564,1.026-6.6-.2a60.4,60.4,0,0,1-14.126-34.209c-.13-1.616,3.155-3.25,3.155-4.9,0-1.736-3.278-3.456-3.135-5.155A60.41,60.41,0,0,1,89.8,96.8c1.087-1.279,5.578.84,6.765-.345s-.927-5.671.355-6.755A60.406,60.406,0,0,1,131,75.588c1.658-.137,3.335,3.145,5.027,3.145s3.37-3.282,5.027-3.145A60.4,60.4,0,0,1,175.135,89.7c1.2,1.016-.988,5.429.132,6.533,1.182,1.166,5.668-.971,6.751.289a60.415,60.415,0,0,1,14.46,34.368c.144,1.7-3.135,3.419-3.135,5.155,0,1.649,3.285,3.283,3.155,4.9a60.4,60.4,0,0,1-14.126,34.209c-1.011,1.2-5.419-1-6.518.117-1.256,1.274.783,5.844-.581,7a60.408,60.408,0,0,1-34.221,14.233C139.4,196.646,137.72,193.364,136.028,193.364Z" transform="translate(-75.553 -75.583)" fill="#fff5f5"/>
            <path id="Trazado_102432" data-name="Trazado 102432" d="M313.317,136.048l3.135-5.155a60.416,60.416,0,0,0-14.46-34.368c-1.084-1.259-5.569.878-6.751-.289-1.119-1.1,1.07-5.518-.132-6.534a60.406,60.406,0,0,0-34.08-14.115c-1.658-.137-3.335,3.145-5.027,3.145V193.364c1.692,0,3.368,3.282,5.025,3.145a60.408,60.408,0,0,0,34.221-14.233c1.364-1.16-.676-5.73.581-7,1.1-1.115,5.507,1.08,6.518-.117a60.4,60.4,0,0,0,14.126-34.209Z" transform="translate(-195.525 -75.583)" fill="#ece6f2"/>
          </g>
          <g id="Grupo_56228" data-name="Grupo 56228" transform="translate(0 0)">
            <path id="Trazado_102433" data-name="Trazado 102433" d="M118.064,124.813l7.273,7.272a5.027,5.027,0,1,0,7.109-7.109l-7.262-7.262a61.234,61.234,0,0,0-7.12,7.1Z" transform="translate(-103.625 -103.392)" fill="#4e638b"/>
            <path id="Trazado_102434" data-name="Trazado 102434" d="M362.606,355.116l-7.387-7.387a5.027,5.027,0,0,0-7.109,7.109l7.4,7.4A61.23,61.23,0,0,0,362.606,355.116Z" transform="translate(-255.594 -255.341)" fill="#293e65"/>
            <path id="Trazado_102435" data-name="Trazado 102435" d="M75.176,250.672H85.583a5.027,5.027,0,1,0,0-10.054H75.2q-.216,2.55-.217,5.155Q74.98,248.246,75.176,250.672Z" transform="translate(-74.98 -185.105)" fill="#4e638b"/>
            <path id="Trazado_102436" data-name="Trazado 102436" d="M405.8,240.618H395.419a5.027,5.027,0,1,0,0,10.054h10.405q.195-2.425.2-4.9C406.023,244.036,405.945,242.318,405.8,240.618Z" transform="translate(-284.684 -185.106)" fill="#293e65"/>
            <path id="Trazado_102437" data-name="Trazado 102437" d="M125.1,347.72l-7.39,7.39a61.189,61.189,0,0,0,7.1,7.12l7.4-7.4a5.027,5.027,0,0,0-7.11-7.11Z" transform="translate(-103.393 -255.335)" fill="#4e638b"/>
            <path id="Trazado_102438" data-name="Trazado 102438" d="M355.36,117.723l-7.259,7.259a5.027,5.027,0,1,0,7.109,7.109l7.27-7.27A61.206,61.206,0,0,0,355.36,117.723Z" transform="translate(-255.588 -103.398)" fill="#293e65"/>
            <g id="Grupo_56226" data-name="Grupo 56226" transform="translate(55.64 105.836)">
              <path id="Trazado_102439" data-name="Trazado 102439" d="M246.026,406.277c1.693,0,3.369-.073,5.027-.21V395.8a5.027,5.027,0,0,0-10.055,0v10.265C242.658,406.2,244.334,406.277,246.026,406.277Z" transform="translate(-240.999 -390.775)" fill="#293e65"/>
              <path id="Trazado_102440" data-name="Trazado 102440" d="M246.026,406.276v-15.5A5.027,5.027,0,0,0,241,395.8v10.265C242.657,406.2,244.333,406.276,246.026,406.276Z" transform="translate(-240.999 -390.774)" fill="#4e638b"/>
            </g>
            <g id="Grupo_56227" data-name="Grupo 56227" transform="translate(55.64)">
              <path id="Trazado_102441" data-name="Trazado 102441" d="M246.026,74.98q-2.539,0-5.027.206V85.455a5.027,5.027,0,0,0,10.055,0V75.19C249.4,75.053,247.719,74.98,246.026,74.98Z" transform="translate(-240.999 -74.98)" fill="#4e638b"/>
              <path id="Trazado_102442" data-name="Trazado 102442" d="M256,74.98v15.5a5.027,5.027,0,0,0,5.027-5.027V75.186q-2.487-.205-5.027-.206Z" transform="translate(-250.973 -74.98)" fill="#293e65"/>
            </g>
          </g>
        </g>
      </g>
    </g>
    <g id="Grupo_56233" data-name="Grupo 56233" transform="translate(36.657 19.156)">
      <path id="Trazado_102443" data-name="Trazado 102443" d="M221.646,175.207c-6.19-2.283-11.94-4.774-13.514-5.464a4.462,4.462,0,0,1-1.72-4.289c.154-1.071.916-3.686,4.661-4.814,7.5-2.257,14.328,3.191,14.482,3.317A5.027,5.027,0,0,0,232,156.242a29.868,29.868,0,0,0-12.487-5.756v-4.222a5.027,5.027,0,0,0-10.054,0v4.4c-.427.1-.857.216-1.29.346a16.141,16.141,0,0,0-11.713,13.013,14.477,14.477,0,0,0,6.456,14.333,5.013,5.013,0,0,0,.7.38c.282.126,6.992,3.113,14.552,5.9,5.083,1.875,7.677,4.748,7.117,7.883-.567,3.179-4.324,6.468-9.629,6.468a18.155,18.155,0,0,1-13.337-5.606,5.027,5.027,0,0,0-7.45,6.752,27.715,27.715,0,0,0,14.6,8.236v4.761a5.027,5.027,0,0,0,10.054,0V208.7a20.777,20.777,0,0,0,9-3.88,17.171,17.171,0,0,0,6.66-10.534c1.142-6.39-1.815-14.76-13.535-19.083Z" transform="translate(-193.566 -141.236)" fill="#fee05b"/>
      <g id="Grupo_56232" data-name="Grupo 56232" transform="translate(20.924)">
        <path id="Trazado_102444" data-name="Trazado 102444" d="M256,160.1c6.038-.153,10.936,3.753,11.067,3.859a5.027,5.027,0,0,0,6.448-7.714,29.868,29.868,0,0,0-12.487-5.756v-4.222A5.027,5.027,0,0,0,256,141.236h0Z" transform="translate(-256 -141.236)" fill="#feb36d"/>
        <path id="Trazado_102445" data-name="Trazado 102445" d="M263.157,237.077c-2.547-.939-5.019-1.914-7.157-2.784v10.822c1.185.461,2.419.93,3.677,1.395,5.083,1.875,7.677,4.748,7.117,7.883-.567,3.179-4.324,6.468-9.629,6.468-.39,0-.778-.016-1.166-.04V280.03h0A5.027,5.027,0,0,0,261.028,275v-4.429a20.778,20.778,0,0,0,9-3.88,17.171,17.171,0,0,0,6.66-10.534c1.141-6.391-1.815-14.761-13.535-19.084Z" transform="translate(-256 -203.106)" fill="#feb36d"/>
      </g>
    </g>
  </g>
</svg>
