<svg xmlns="http://www.w3.org/2000/svg" width="172" height="154" viewBox="0 0 172 154">
  <g id="Grupo_55877" data-name="Grupo 55877" transform="translate(-259 -458)">
    <g id="Right" transform="translate(259.273 457.992)">
      <rect id="BG" width="172" height="154" transform="translate(-0.273 0.008)" fill="#fff" opacity="0.949"/>
    </g>
    <g id="check-out_1_" data-name="check-out (1)" transform="translate(283.714 484.423)">
      <g id="Grupo_55876" data-name="Grupo 55876" transform="translate(2.246 2.745)">
        <path id="Trazado_101960" data-name="Trazado 101960" d="M123.344,21.811A11.232,11.232,0,1,0,112.1,33.04h.044A11.227,11.227,0,0,0,123.344,21.811Zm0,0" transform="translate(-80.661 -10.582)" fill="#ffddcf" fill-rule="evenodd"/>
        <path id="Trazado_101961" data-name="Trazado 101961" d="M88.236,111.434h-.007Zm18,15.494a15.54,15.54,0,0,0-15.5-15.494H88.224c-.852.007-1.71,0-2.563,0A15.484,15.484,0,0,0,70.435,129.8h35.532A15.5,15.5,0,0,0,106.238,126.927Zm0,0" transform="translate(-56.786 -88.976)" fill="#52cbf0" fill-rule="evenodd"/>
        <path id="Trazado_101962" data-name="Trazado 101962" d="M59.267,193.93H16.081c-3.3,0-5.995,2.359-5.995,5.248s2.695,5.249,5.995,5.249H78.9l6.462-7.311a8.753,8.753,0,0,1,1.672-3.185Zm0,0" transform="translate(-10.086 -153.102)" fill="#b0e7f8" fill-rule="evenodd"/>
        <path id="Trazado_101963" data-name="Trazado 101963" d="M109.148,241.066H48.992v29.139h64.775l1.407-7.129V249.325l-6.556,8.105a5.348,5.348,0,0,1-7.326,1.111c-2.253-1.66-3.067-5.109-1.117-7.324Zm0,0" transform="translate(-40.329 -189.742)" fill="#ffbd5a" fill-rule="evenodd"/>
        <path id="Trazado_101964" data-name="Trazado 101964" d="M364.174,93.246a76.4,76.4,0,0,1-12.778.991,77.463,77.463,0,0,1-12.425-.927,13.291,13.291,0,1,0,25.2-.063Zm0,0" transform="translate(-265.205 -74.838)" fill="#ffddcf" fill-rule="evenodd"/>
        <path id="Trazado_101965" data-name="Trazado 101965" d="M312.243,53.3c-7.459.82-12.634,2.617-12.634,4.706,0,1.76,3.679,3.312,9.3,4.252a77.471,77.471,0,0,0,12.425.927,76.379,76.379,0,0,0,12.778-.991c5.42-.939,8.948-2.466,8.948-4.188,0-2.057-5.029-3.835-12.312-4.675a8.185,8.185,0,0,1,.057.972,8.592,8.592,0,0,1-.089,1.211c-.454.063-.927.126-1.407.183a69.414,69.414,0,0,1-15.642.044c-.486-.07-.953-.145-1.388-.227a7.667,7.667,0,0,1-.095-1.211A8.635,8.635,0,0,1,312.243,53.3Zm0,0" transform="translate(-235.138 -43.791)" fill="#ffd89e" fill-rule="evenodd"/>
        <path id="Trazado_101966" data-name="Trazado 101966" d="M374.623,26.227a9.389,9.389,0,0,0-18.5-.031,8.635,8.635,0,0,0-.063,1,7.667,7.667,0,0,0,.095,1.211c.435.082.9.157,1.388.227a69.414,69.414,0,0,0,15.642-.044c.479-.057.953-.12,1.407-.183a8.591,8.591,0,0,0,.089-1.211A8.2,8.2,0,0,0,374.623,26.227Zm0,0" transform="translate(-279.017 -16.682)" fill="#ffbd5a" fill-rule="evenodd"/>
        <path id="Trazado_101967" data-name="Trazado 101967" d="M357.591,176.859c-4.214.177-7.376,1.5-9.288,3.791a8.763,8.763,0,0,0-1.672,3.186,11.65,11.65,0,0,0-.436,3.268v20.634h23.1V187.1C369.291,181.615,364.722,176.562,357.591,176.859Zm0,0" transform="translate(-271.35 -139.823)" fill="#ffd89e" fill-rule="evenodd"/>
        <path id="Trazado_101968" data-name="Trazado 101968" d="M290.437,208.234l-6.462,7.311L275,225.7a5.055,5.055,0,0,0,.725,7,4.064,4.064,0,0,0,.391.322,5.349,5.349,0,0,0,7.327-1.111L290,223.8V211.5A11.65,11.65,0,0,1,290.437,208.234Zm0,0" transform="translate(-215.156 -164.221)" fill="#ffd89e" fill-rule="evenodd"/>
        <path id="Trazado_101969" data-name="Trazado 101969" d="M355.74,315.574h-23.1v5.418l-1.407,7.129-2.278,11.563c-1.956,9.955,11.238,11.91,12.993,2.8l2.8-14.5L351,344.245c4.619,7.646,15.245,2.687,11.679-6.106l-6.934-17.114v-5.45Zm0,0" transform="translate(-257.799 -247.658)" fill="#52cbf0" fill-rule="evenodd"/>
      </g>
      <path id="Trazado_101970" data-name="Trazado 101970" d="M362.52,337.917l-6.931-17.1v-5.439a.057.057,0,0,0-.057-.057h-23.1a.058.058,0,0,0-.057.057l0,5.408-3.686,18.691a7.37,7.37,0,0,0,1.288,6.388,6.552,6.552,0,0,0,5.1,2.34A6.782,6.782,0,0,0,341.8,342.3l2.757-14.3,6.18,16.078a7.226,7.226,0,0,0,6.138,3.8,6.335,6.335,0,0,0,5.27-2.784A7.5,7.5,0,0,0,362.52,337.917Zm-.47,7.11a6.221,6.221,0,0,1-5.175,2.733,7.113,7.113,0,0,1-6.035-3.736l-6.247-16.257a.059.059,0,0,0-.059-.037.057.057,0,0,0-.05.047l-2.8,14.5a6.672,6.672,0,0,1-6.6,5.812,6.438,6.438,0,0,1-5.013-2.3,7.26,7.26,0,0,1-1.265-6.293l3.686-18.7v-5.361h22.981v5.393a.046.046,0,0,0,0,.021l6.934,17.114A7.389,7.389,0,0,1,362.05,345.027Zm0,0" transform="translate(-255.345 -244.713)" fill="#221f20"/>
      <path id="Trazado_101971" data-name="Trazado 101971" d="M402.852,217.76a5.082,5.082,0,0,0-7.181.157c-.031.031-.064.063-.095.1a5.228,5.228,0,0,0,.095,7.1c.057.057.107.119.164.177l5.881,5.986,7.882,8.043a5.088,5.088,0,0,0,7.276-.265,5.239,5.239,0,0,0-.259-7.267l-8.772-8.939Zm0,0" transform="translate(-306.445 -167.784)" fill="#ffd89e" fill-rule="evenodd"/>
      <path id="Trazado_101972" data-name="Trazado 101972" d="M88.787,312.349l20.836-21.839a4.482,4.482,0,0,1,6.329-.152l12.394,11.816a4.484,4.484,0,0,1,.151,6.321L107.661,330.34a4.5,4.5,0,0,1-6.329.151L88.938,318.676A4.485,4.485,0,0,1,88.787,312.349Zm0,0" transform="translate(-68.058 -224.353)" fill="#b0e7f8" fill-rule="evenodd"/>
      <path id="Trazado_101973" data-name="Trazado 101973" d="M109.623,290.512,93.355,307.563l-4.568,4.788a4.486,4.486,0,0,0,.151,6.327l2.341,2.233,12.735-13.348,14.279-14.97-2.341-2.233A4.482,4.482,0,0,0,109.623,290.512Zm0,0" transform="translate(-68.058 -224.355)" fill="#52cbf0" fill-rule="evenodd"/>
      <path id="Trazado_101974" data-name="Trazado 101974" d="M111.773,62.432l-9.34-9.521V50.026a12.168,12.168,0,0,0-3.677-8.73,12.645,12.645,0,0,0-2.908-2.13,15.614,15.614,0,0,0,3.586-2.6,2.222,2.222,0,0,0,.338-.338,15.481,15.481,0,0,0,4.39-10.806,15.642,15.642,0,0,0-.2-2.525c.121-.028.244-.054.363-.083,5.443-1.3,8.09-3.21,8.09-5.845,0-3.285-4.269-5.537-12.694-6.7a11.719,11.719,0,0,0-22.223-.042c-8.641,1.144-13.022,3.41-13.022,6.743,0,2.636,2.645,4.548,8.087,5.845.235.057.477.11.72.164a15.532,15.532,0,0,0,8.087,16.177,11.837,11.837,0,0,0-3.145,2.176H53.93c.008-.211.015-.421.015-.631A17.766,17.766,0,0,0,42.537,24.131a13.477,13.477,0,1,0-17.7-.018A17.766,17.766,0,0,0,13.377,40.7c0,.21.008.42.015.631H8.241C3.7,41.327,0,44.689,0,48.821s3.7,7.495,8.241,7.495h.423V83.208a2.246,2.246,0,0,0,2.246,2.245h9.14l-.947.992a6.731,6.731,0,0,0,.227,9.5l2.327,2.218a.112.112,0,0,0,.014.015l.016.014,10.037,9.569a6.682,6.682,0,0,0,4.633,1.849,6.773,6.773,0,0,0,4.871-2.076L62.064,85.692c.074-.077.145-.157.216-.238H72.954L71.2,94.338a9.7,9.7,0,0,0,1.746,8.2,8.733,8.733,0,0,0,6.791,3.139h0A9,9,0,0,0,88.6,98l1.309-6.79,3.432,8.93a2.245,2.245,0,0,0,.174.356,9.363,9.363,0,0,0,8.011,4.857,8.522,8.522,0,0,0,7.085-3.749,9.614,9.614,0,0,0,.588-9.219l-6.771-16.709v-1.8a7.017,7.017,0,0,0,4.139,1.321,7.42,7.42,0,0,0,5.2-12.758ZM81.587,12.464a7.155,7.155,0,0,1,14.025.021,73.324,73.324,0,0,1-7.643.394,54.538,54.538,0,0,1-6.392-.34C81.58,12.513,81.585,12.489,81.587,12.464Zm-5.31,6.515q-.741-.124-1.438-.265a18.5,18.5,0,0,1-5.424-1.752c.991-.583,3.314-1.49,7.746-2.156l0,.019a2.245,2.245,0,0,0,1.8,1.854,51.407,51.407,0,0,0,9.009.692h0A74.355,74.355,0,0,0,98.139,16.7a2.244,2.244,0,0,0,1.894-1.845c4.23.664,6.466,1.543,7.432,2.111a18.536,18.536,0,0,1-5.427,1.752,71.556,71.556,0,0,1-13.6,1.185,75.381,75.381,0,0,1-12.117-.912Zm1.3,6.439a11.1,11.1,0,0,1,.13-1.685,83.752,83.752,0,0,0,10.731.657,82.968,82.968,0,0,0,11.1-.706,11.169,11.169,0,0,1,.137,1.734,10.988,10.988,0,0,1-2.443,6.916,10.36,10.36,0,0,1-4.133-2.425A2.246,2.246,0,0,0,89.8,32.965a14.108,14.108,0,0,0,3.372,2.511,11.039,11.039,0,0,1-15.6-10.059Zm1.761,36.888V50.026c0-6.3,5.027-7.826,9.244-8,.169-.008.336-.01.5-.01,4.8,0,7.757,2.872,8.605,6.079-.036-.032-.073-.063-.11-.094a7.269,7.269,0,0,0-4.6-1.68A7.516,7.516,0,0,0,87.489,48.7c-.084.09-.166.182-.244.276a7.233,7.233,0,0,0-1.7,4.549A7.731,7.731,0,0,0,87.527,58.8c.084.095.17.188.261.279l5.878,5.985,3.282,3.349H79.337V62.306Zm-4.492-.773-6.057,7.489a3.127,3.127,0,0,1-4.248.714c-.075-.055-.145-.116-.215-.177l-.009-.009-.037-.03A3.259,3.259,0,0,1,63.255,67.5a2.283,2.283,0,0,1,.519-1.79L74.846,53.182v8.351ZM24.71,13.974A8.986,8.986,0,1,1,33.7,22.958,8.995,8.995,0,0,1,24.71,13.974Zm6.412,13.475h.323l-.019,7.2a2.246,2.246,0,0,0,2.24,2.252h.006a2.246,2.246,0,0,0,2.245-2.24l.02-7.21H36.2A13.264,13.264,0,0,1,49.452,40.7c0,.21,0,.42-.015.631H17.885q-.016-.316-.016-.631A13.265,13.265,0,0,1,31.121,27.449ZM22.427,92.695a2.24,2.24,0,0,1-.074-3.149l4.212-4.414a2.252,2.252,0,0,0,.827-.867L43.192,67.7a2.236,2.236,0,0,1,3.152-.073l.716.682L23.147,93.381Zm36.387-10.1L37.98,104.434a2.25,2.25,0,0,1-3.158.08L26.4,96.48,50.311,71.412l8.426,8.034a2.238,2.238,0,0,1,.077,3.146Zm-.025-14.618a7.693,7.693,0,0,0,1.079,3.176l-1.531,1.708L49.444,64.38a6.729,6.729,0,0,0-9.5.226L24.335,80.962H13.156V56.315H35.292a2.246,2.246,0,1,0,0-4.491H8.241c-2.033,0-3.749-1.375-3.749-3s1.716-3,3.749-3h67.12l-5.309,6.005H53.257a2.246,2.246,0,0,0,0,4.491H66.082l-5.673,6.418A6.729,6.729,0,0,0,58.789,67.974ZM74.845,75.86l-1.006,5.1H63.912c0-.023,0-.044,0-.066a6.67,6.67,0,0,0-2.075-4.7l-.249-.237,1.637-1.826a7.326,7.326,0,0,0,3,.645,7.8,7.8,0,0,0,6.052-2.931l2.565-3.171V75.86ZM105.04,94.069a5.285,5.285,0,0,1-.15,5.022,4.035,4.035,0,0,1-3.359,1.768,4.861,4.861,0,0,1-4.068-2.53L91.29,82.27a2.246,2.246,0,0,0-4.3.38l-2.8,14.5a4.5,4.5,0,0,1-4.454,4.038,4.319,4.319,0,0,1-3.324-1.5,5.265,5.265,0,0,1-.807-4.479l3.686-18.691a2.282,2.282,0,0,0,.042-.435V72.906h18.6v3.205a2.241,2.241,0,0,0,.164.843Zm3.746-24.329a3.076,3.076,0,0,1-2.215.958,2.492,2.492,0,0,1-1.814-.732l-2.951-3.011-.014-.017-4.918-5.017L91,55.938a3.025,3.025,0,0,1-.219-4.175,3.059,3.059,0,0,1,2.2-.951,2.848,2.848,0,0,1,.413.03c.085.012.175.031.266.054a2.4,2.4,0,0,1,1.144.652l.017.017L98.583,55.4l.013.013,9.97,10.163A3.013,3.013,0,0,1,108.786,69.741Zm0,0"/>
      <path id="Trazado_101975" data-name="Trazado 101975" d="M191.017,230.98h-.044a2.246,2.246,0,0,0,0,4.492h.044a2.246,2.246,0,0,0,0-4.492Zm0,0" transform="translate(-146.701 -179.157)"/>
    </g>
  </g>
</svg>
