<svg xmlns="http://www.w3.org/2000/svg" width="157" height="157" viewBox="0 0 157 157">
  <g id="Grupo_56636" data-name="Grupo 56636" transform="translate(-716 -688)">
    <rect id="Rectángulo_5635" data-name="Rectángulo 5635" width="157" height="157" rx="17" transform="translate(716 688)" fill="#ffddac"/>
    <g id="llave-del-hotel" transform="translate(741.103 695.591)">
      <path id="Trazado_102105" data-name="Trazado 102105" d="M202.647,60.553l-18.5-18.5a27.953,27.953,0,0,0-37.467-1.869L136,59.763V74l27.489,27.489a27.688,27.688,0,0,0,47.267-19.579v-1.78A27.689,27.689,0,0,0,202.647,60.553ZM152.019,56.2a5.34,5.34,0,1,1,5.34-5.34A5.34,5.34,0,0,1,152.019,56.2Z" transform="translate(-105.742 -6.319)" fill="#0378a3"/>
      <path id="Trazado_102106" data-name="Trazado 102106" d="M56,198.265v46.277l3.56,3.56,3.038,3.038,2.3,2.3,8.9-8.9v-1.78l-5.34-5.34,5.34-5.34v-5.34l-5.34-5.34v-5.34l5.34-5.34V198.265H56Z" transform="translate(-43.541 -134.142)" fill="#f4e09c"/>
      <path id="Trazado_102107" data-name="Trazado 102107" d="M43.6,38.265H11.56A3.56,3.56,0,0,0,8,41.825V70.3a3.56,3.56,0,0,0,3.56,3.56H43.6a3.56,3.56,0,0,0,3.56-3.56V41.825A3.56,3.56,0,0,0,43.6,38.265Zm-8.9,17.8H20.459a5.34,5.34,0,1,1,0-10.679H34.7a5.34,5.34,0,1,1,0,10.679Z" transform="translate(-6.22 -9.74)" fill="#29485a"/>
      <path id="Trazado_102108" data-name="Trazado 102108" d="M79.663,34.475a29.616,29.616,0,0,0-37.2-3.916,5.34,5.34,0,0,0-5.085-3.814H5.34A5.34,5.34,0,0,0,0,32.085V60.563A5.34,5.34,0,0,0,5.34,65.9h5.34v44.5a1.78,1.78,0,0,0,.522,1.258l5.34,5.34,3.56,3.56a1.78,1.78,0,0,0,2.517,0l8.9-8.9a1.78,1.78,0,0,0,.522-1.258v-1.78a1.78,1.78,0,0,0-.522-1.258l-4.081-4.081L31.517,99.2a1.78,1.78,0,0,0,.522-1.258V92.6a1.78,1.78,0,0,0-.522-1.258L26.7,86.525V82.659l4.818-4.818a1.78,1.78,0,0,0,.522-1.258v-4.6L56.487,96.43a29.47,29.47,0,0,0,50.307-20.837v-1.78a29.272,29.272,0,0,0-8.633-20.837ZM28.478,75.846,23.66,80.664a1.78,1.78,0,0,0-.522,1.258v5.34a1.78,1.78,0,0,0,.522,1.258l4.818,4.818V97.2l-4.818,4.818a1.78,1.78,0,0,0,0,2.517l4.818,4.818v.306l-7.12,7.12L19.579,115V69.463a1.78,1.78,0,0,0-3.56,0v41.981l-1.78-1.78V65.9H28.478Zm1.78-13.5H5.34a1.78,1.78,0,0,1-1.78-1.78V32.085a1.78,1.78,0,0,1,1.78-1.78H37.378a1.78,1.78,0,0,1,1.78,1.78v9.054l-3.626-.806a7.1,7.1,0,0,0-7.054-6.468H14.239a7.12,7.12,0,1,0,0,14.239H28.478a7.12,7.12,0,0,0,6.5-4.247l4.176.927V60.563a1.78,1.78,0,0,1-1.78,1.78Zm-.386-19.622,1.492.331a3.56,3.56,0,0,1-2.885,1.492H14.239a3.56,3.56,0,1,1,0-7.12H28.478a3.56,3.56,0,0,1,3.215,2.056l-1.048-.233a1.78,1.78,0,1,0-.836,3.46l.064.014Zm73.362,32.871A25.91,25.91,0,0,1,59,93.913L32.038,66.946V65.9h5.34a5.34,5.34,0,0,0,5.34-5.34h0V50.674a7.047,7.047,0,0,0,3.56.99,7.12,7.12,0,0,0,0-14.239,7.047,7.047,0,0,0-3.56.99V34.755A26.072,26.072,0,0,1,77.146,36.99l18.5,18.5a25.735,25.735,0,0,1,7.589,18.321ZM46.664,42.807l-3-.666a3.56,3.56,0,1,1-.772,3.471l2.99.664a1.814,1.814,0,0,0,.392.048,1.78,1.78,0,0,0,.384-3.517h0Z"/>
      <path id="Trazado_102109" data-name="Trazado 102109" d="M244.914,126.863a1.78,1.78,0,0,0-2.517,2.517l8.531,8.531-15.282,15.282-8.531-8.531a1.78,1.78,0,0,0-2.517,2.517l19.579,19.579a1.78,1.78,0,0,0,2.517-2.517l-8.531-8.531,15.282-15.282,8.531,8.531a1.78,1.78,0,0,0,2.517-2.517Z" transform="translate(-174.239 -78.237)"/>
    </g>
  </g>
</svg>
