<svg xmlns="http://www.w3.org/2000/svg" width="157" height="157" viewBox="0 0 157 157">
  <g id="Grupo_55927" data-name="Grupo 55927" transform="translate(-716 -1804)">
    <rect id="Rectángulo_5644" data-name="Rectángulo 5644" width="157" height="157" rx="17" transform="translate(716 1804)" fill="#ffddac"/>
    <g id="maletas" transform="translate(743.438 1832.343)">
      <g id="Grupo_55926" data-name="Grupo 55926" transform="translate(12.589 89.461)">
        <path id="Trazado_102222" data-name="Trazado 102222" d="M317.471,469.348a2.78,2.78,0,0,1-2.78-2.78v-5.76h5.559v5.76A2.78,2.78,0,0,1,317.471,469.348Zm0,0" transform="translate(-265.222 -459.984)" fill="#1a414c"/>
        <path id="Trazado_102223" data-name="Trazado 102223" d="M437.561,469.348a2.78,2.78,0,0,1-2.78-2.78v-5.76h5.56v5.76A2.78,2.78,0,0,1,437.561,469.348Zm0,0" transform="translate(-361.783 -459.984)" fill="#1a414c"/>
        <path id="Trazado_102224" data-name="Trazado 102224" d="M65.892,465.965a3.689,3.689,0,0,1-3.689-3.688V456.6h7.378v5.676A3.689,3.689,0,0,1,65.892,465.965Zm0,0" transform="translate(-62.203 -456.602)" fill="#1a414c"/>
        <path id="Trazado_102225" data-name="Trazado 102225" d="M225.244,465.965a3.689,3.689,0,0,1-3.689-3.688V456.6h7.378v5.676A3.689,3.689,0,0,1,225.244,465.965Zm0,0" transform="translate(-190.333 -456.602)" fill="#1a414c"/>
      </g>
      <path id="Trazado_102226" data-name="Trazado 102226" d="M67.9,96.99v53.322a10.6,10.6,0,0,1-10.6,10.6H18.7a10.6,10.6,0,0,1-10.6-10.6V96.99a10.6,10.6,0,0,1,10.6-10.6H57.3A10.6,10.6,0,0,1,67.9,96.99Zm0,0" transform="translate(-6.115 -69.464)" fill="#f2a755"/>
      <path id="Trazado_102227" data-name="Trazado 102227" d="M100.569,96.99v53.322a10.6,10.6,0,0,1-10.6,10.6H59.33a10.6,10.6,0,0,1-10.6-10.6V96.99a10.6,10.6,0,0,1,10.6-10.6H89.969A10.6,10.6,0,0,1,100.569,96.99Zm0,0" transform="translate(-38.781 -69.464)" fill="#ffe785"/>
      <path id="Trazado_102228" data-name="Trazado 102228" d="M318.984,197.366v40.186a7.989,7.989,0,0,1-7.989,7.987h-29.09a7.988,7.988,0,0,1-7.987-7.987V197.366a7.988,7.988,0,0,1,7.987-7.987h29.09A7.989,7.989,0,0,1,318.984,197.366Zm0,0" transform="translate(-219.848 -152.274)" fill="#ce1b6d"/>
      <path id="Trazado_102229" data-name="Trazado 102229" d="M342.048,197.366v40.186a7.989,7.989,0,0,1-7.989,7.987H310.591a7.988,7.988,0,0,1-7.989-7.987V197.366a7.988,7.988,0,0,1,7.989-7.987h23.468A7.989,7.989,0,0,1,342.048,197.366Zm0,0" transform="translate(-242.912 -152.274)" fill="#f45395"/>
      <path id="Trazado_102230" data-name="Trazado 102230" d="M75.318,225.141a1.49,1.49,0,0,0-1.49,1.489v34.407a1.49,1.49,0,0,0,2.98,0V226.63A1.49,1.49,0,0,0,75.318,225.141Zm0,0" transform="translate(-58.961 -181.029)"/>
      <path id="Trazado_102231" data-name="Trazado 102231" d="M75.318,137.168a1.49,1.49,0,0,0-1.49,1.489v11.277a1.49,1.49,0,0,0,2.98,0V138.657A1.49,1.49,0,0,0,75.318,137.168Zm0,0" transform="translate(-58.961 -110.293)"/>
      <path id="Trazado_102232" data-name="Trazado 102232" d="M154.592,137.168a1.49,1.49,0,0,0-1.49,1.489V190.3a1.49,1.49,0,0,0,2.98,0V138.657A1.49,1.49,0,0,0,154.592,137.168Zm0,0" transform="translate(-122.703 -110.293)"/>
      <path id="Trazado_102233" data-name="Trazado 102233" d="M233.868,137.168a1.489,1.489,0,0,0-1.489,1.489V190.3a1.49,1.49,0,1,0,2.979,0V138.657A1.49,1.49,0,0,0,233.868,137.168Zm0,0" transform="translate(-186.447 -110.293)"/>
      <path id="Trazado_102234" data-name="Trazado 102234" d="M99.136,71.089a1.49,1.49,0,0,0,1.489-1.49V45.092a9.489,9.489,0,0,0-9.477-9.478H86.725V26.961h1.364a1.49,1.49,0,0,0,0-2.979H65.117a1.49,1.49,0,0,0,0,2.979h1.364v8.653h-3.2V27.525A12.1,12.1,0,0,0,51.188,15.436H44.834V2.979h2.3A1.49,1.49,0,0,0,47.13,0H16.648a1.49,1.49,0,0,0,0,2.979h2.3V15.436H12.589A12.1,12.1,0,0,0,.5,27.525V80.848A12.105,12.105,0,0,0,11.1,92.842v2.294a5.179,5.179,0,0,0,10.357,0v-2.2H42.321v2.2a5.178,5.178,0,1,0,10.357,0V92.844a11.916,11.916,0,0,0,2.845-.713,9.458,9.458,0,0,0,5.045,2.5v1.408a4.27,4.27,0,1,0,8.54,0v-1.29H84.1v1.29a4.27,4.27,0,1,0,8.54,0V94.637a9.492,9.492,0,0,0,7.988-9.359V75.558a1.49,1.49,0,1,0-2.979,0v9.719a6.506,6.506,0,0,1-6.5,6.5H62.058a6.506,6.506,0,0,1-6.5-6.5V45.092a6.505,6.505,0,0,1,6.5-6.5H91.147a6.505,6.505,0,0,1,6.5,6.5V69.6A1.49,1.49,0,0,0,99.136,71.089ZM41.854,2.979V15.435H21.924V2.979Zm47.8,91.775v1.29a1.29,1.29,0,1,1-2.58,0v-1.29Zm-23.529,0v1.29a1.29,1.29,0,1,1-2.581,0v-1.29Zm-47.652.382a2.2,2.2,0,1,1-4.4,0v-2.2h4.4Zm31.221,0a2.2,2.2,0,1,1-4.4,0v-2.2h4.4v2.2Zm2.882-50.045V85.277a9.417,9.417,0,0,0,1.059,4.345,9.081,9.081,0,0,1-2.452.335h-38.6a9.12,9.12,0,0,1-9.11-9.11V27.526a9.12,9.12,0,0,1,9.11-9.11h38.6a9.12,9.12,0,0,1,9.11,9.11V35.78A9.492,9.492,0,0,0,52.581,45.092Zm16.88-9.478V26.961H83.745v8.653Zm0,0" transform="translate(0)"/>
      <path id="Trazado_102235" data-name="Trazado 102235" d="M321.578,227.26v38.92a1.49,1.49,0,0,0,2.979,0V227.26a1.49,1.49,0,1,0-2.979,0Zm0,0" transform="translate(-258.17 -181.535)"/>
      <path id="Trazado_102236" data-name="Trazado 102236" d="M381.32,227.26v38.92a1.49,1.49,0,0,0,2.979,0V227.26a1.49,1.49,0,1,0-2.979,0Zm0,0" transform="translate(-306.207 -181.535)"/>
      <path id="Trazado_102237" data-name="Trazado 102237" d="M441.063,227.26v38.92a1.49,1.49,0,0,0,2.979,0V227.26a1.49,1.49,0,1,0-2.979,0Zm0,0" transform="translate(-354.244 -181.535)"/>
    </g>
  </g>
</svg>
