<svg xmlns="http://www.w3.org/2000/svg" width="158.711" height="87.295" viewBox="0 0 158.711 87.295">
  <g id="Grupo_56883" data-name="Grupo 56883" transform="matrix(0.966, -0.259, 0.259, 0.966, 0, 39.063)">
    <path id="Trazado_102380" data-name="Trazado 102380" d="M.479,9.27c15.049,19.885,37.279,32.43,62.6,35.325a97.869,97.869,0,0,0,11.078.632,97.788,97.788,0,0,0,28.92-4.383,100.871,100.871,0,0,0,24.843-11.611l7.021,16.158,1.974,4.542,1.479-4.726,11.76-37.58.777-2.484-2.6.09L108.958,6.588l-5.174.178L107.9,9.9l12.03,9.147a86.157,86.157,0,0,1-45.79,13.3,84.934,84.934,0,0,1-9.6-.548A77.739,77.739,0,0,1,10.728,1.472L9.615,0,8.144,1.113.823,6.649l-.629.466L.1,7.9,0,8.686Z" transform="translate(0 0)" fill="#ff9800"/>
  </g>
</svg>
