<svg xmlns="http://www.w3.org/2000/svg" width="212" height="190" viewBox="0 0 212 190">
  <g id="Grupo_56892" data-name="Grupo 56892" transform="translate(-219 -2180)">
    <g id="Grupo_56891" data-name="Grupo 56891" transform="translate(-40.021 1722)">
      <g id="Right" transform="translate(259 458)">
        <rect id="BG" width="212" height="190" transform="translate(0.021)" fill="#fff" opacity="0.949"/>
      </g>
    </g>
    <g id="produccion" transform="translate(231.32 2202)">
      <path id="Trazado_103898" data-name="Trazado 103898" d="M51.673,38.437v4.146L42,34.292,51.673,26v4.146H69.639v8.292Z" transform="translate(-40.618 1.638)" fill="#bf7975"/>
      <ellipse id="Elipse_462" data-name="Elipse 462" cx="4.069" cy="4.36" rx="4.069" ry="4.36" transform="translate(49.995 1.162)" fill="#8ab0e6"/>
      <ellipse id="Elipse_463" data-name="Elipse 463" cx="4.069" cy="4.069" rx="4.069" ry="4.069" transform="translate(62.203 59.295)" fill="#679ce6"/>
      <ellipse id="Elipse_464" data-name="Elipse 464" cx="12.208" cy="12.499" rx="12.208" ry="12.499" transform="translate(43.019 23.253)" fill="#e6e6e6"/>
      <path id="Trazado_103899" data-name="Trazado 103899" d="M24.719,27,22.8,31.095l-4.3.656,3.109,3.187-.734,4.5,3.843-2.124,3.843,2.124-.734-4.5,3.109-3.187-4.3-.656Z" transform="translate(30.558 2.02)" fill="#ffe38f"/>
      <path id="Trazado_103900" data-name="Trazado 103900" d="M8.392,33.738H9.739A2,2,0,0,0,11.623,32.3a17.813,17.813,0,0,1,1.17-2.818,2,2,0,0,0-.314-2.356l-.957-.957a20.844,20.844,0,0,1,5.644-5.644l.957.957a2,2,0,0,0,2.355.313,17.813,17.813,0,0,1,2.818-1.17,2,2,0,0,0,1.441-1.885V17.393a20.48,20.48,0,0,1,7.981,0v1.346a2,2,0,0,0,1.441,1.885,17.813,17.813,0,0,1,2.818,1.17,2,2,0,0,0,2.355-.313l.957-.957a20.844,20.844,0,0,1,5.644,5.644l-.957.957a2,2,0,0,0-.314,2.356,17.812,17.812,0,0,1,1.17,2.818,2,2,0,0,0,1.885,1.441h1.346a20.478,20.478,0,0,1,0,7.981H47.719a2,2,0,0,0-1.885,1.441,17.812,17.812,0,0,1-1.17,2.818,2,2,0,0,0,.314,2.356l.957.957a20.839,20.839,0,0,1-5.644,5.644l-.957-.957a2,2,0,0,0-2.355-.314,17.8,17.8,0,0,1-2.818,1.171,2,2,0,0,0-1.441,1.885v1.346a20.475,20.475,0,0,1-7.981,0V56.719A2,2,0,0,0,23.3,54.834a17.8,17.8,0,0,1-2.818-1.171,2,2,0,0,0-2.355.314l-.957.957a20.839,20.839,0,0,1-5.644-5.644l.957-.957a2,2,0,0,0,.314-2.356,17.813,17.813,0,0,1-1.17-2.818A2,2,0,0,0,9.739,41.72H8.393a20.479,20.479,0,0,1,0-7.981ZM28.729,50.166A12.437,12.437,0,1,0,16.291,37.729,12.437,12.437,0,0,0,28.729,50.166Z" transform="translate(26.548 -1.799)" fill="#526273"/>
      <path id="Trazado_103901" data-name="Trazado 103901" d="M13,35.767A13.819,13.819,0,1,1,26.819,49.586,13.819,13.819,0,0,1,13,35.767Zm24.875,0A11.055,11.055,0,1,0,26.819,46.822,11.055,11.055,0,0,0,37.875,35.767Z" transform="translate(28.458 0.09)"/>
      <path id="Trazado_103902" data-name="Trazado 103902" d="M24.855,59.75a1.382,1.382,0,0,1-1.117-1.356V57.047a.63.63,0,0,0-.478-.567,19.36,19.36,0,0,1-3.034-1.262.635.635,0,0,0-.742.065l-.957.957a1.377,1.377,0,0,1-1.749.169,22.1,22.1,0,0,1-6.018-6.018,1.382,1.382,0,0,1,.169-1.749l.956-.957a.631.631,0,0,0,.065-.741,19.248,19.248,0,0,1-1.262-3.036.629.629,0,0,0-.567-.478H8.775a1.382,1.382,0,0,1-1.356-1.117,21.849,21.849,0,0,1,0-8.51,1.382,1.382,0,0,1,1.356-1.117h1.346a.631.631,0,0,0,.567-.478,19.2,19.2,0,0,1,1.261-3.036.63.63,0,0,0-.065-.741l-.957-.958a1.383,1.383,0,0,1-.169-1.749,22.11,22.11,0,0,1,6.018-6.018,1.379,1.379,0,0,1,1.75.169l.956.958a.634.634,0,0,0,.742.065,19.137,19.137,0,0,1,3.036-1.262.63.63,0,0,0,.478-.568V17.722a1.382,1.382,0,0,1,1.117-1.356,21.925,21.925,0,0,1,8.511,0,1.382,1.382,0,0,1,1.117,1.356v1.345a.631.631,0,0,0,.476.568A19.1,19.1,0,0,1,38,20.9a.632.632,0,0,0,.74-.065l.957-.958a1.379,1.379,0,0,1,1.75-.169,22.11,22.11,0,0,1,6.018,6.018,1.383,1.383,0,0,1-.169,1.749l-.958.958a.631.631,0,0,0-.064.74,19.211,19.211,0,0,1,1.262,3.038.631.631,0,0,0,.567.478h1.346A1.382,1.382,0,0,1,50.8,33.8a21.849,21.849,0,0,1,0,8.51,1.382,1.382,0,0,1-1.356,1.117H48.1a.629.629,0,0,0-.567.476,19.2,19.2,0,0,1-1.261,3.036.633.633,0,0,0,.064.742l.957.957a1.382,1.382,0,0,1,.169,1.749,22.1,22.1,0,0,1-6.018,6.018A1.377,1.377,0,0,1,39.7,56.24l-.958-.957a.632.632,0,0,0-.74-.066,19.286,19.286,0,0,1-3.036,1.263.63.63,0,0,0-.478.567v1.347a1.382,1.382,0,0,1-1.117,1.356A21.855,21.855,0,0,1,24.855,59.75Zm9.267-5.9a16.441,16.441,0,0,0,2.6-1.081,3.381,3.381,0,0,1,3.969.564l.129.128a19.3,19.3,0,0,0,3.69-3.69l-.13-.128a3.385,3.385,0,0,1-.562-3.972,16.334,16.334,0,0,0,1.08-2.6,3.38,3.38,0,0,1,3.2-2.4h.176a18.836,18.836,0,0,0,0-5.217H48.1a3.38,3.38,0,0,1-3.2-2.4,16.38,16.38,0,0,0-1.08-2.6,3.38,3.38,0,0,1,.563-3.969l.13-.13a19.337,19.337,0,0,0-3.689-3.69l-.13.13a3.378,3.378,0,0,1-3.97.561,16.487,16.487,0,0,0-2.6-1.078,3.382,3.382,0,0,1-2.4-3.2v-.176a18.977,18.977,0,0,0-5.217,0v.176a3.381,3.381,0,0,1-2.4,3.2,16.526,16.526,0,0,0-2.6,1.078,3.378,3.378,0,0,1-3.971-.561l-.129-.13a19.337,19.337,0,0,0-3.689,3.69l.128.13a3.379,3.379,0,0,1,.563,3.97,16.372,16.372,0,0,0-1.08,2.6,3.381,3.381,0,0,1-3.2,2.4H9.945a18.836,18.836,0,0,0,0,5.217h.176a3.379,3.379,0,0,1,3.2,2.4,16.38,16.38,0,0,0,1.08,2.6,3.383,3.383,0,0,1-.563,3.97l-.129.128a19.3,19.3,0,0,0,3.69,3.69l.128-.128a3.383,3.383,0,0,1,3.971-.563,16.514,16.514,0,0,0,2.6,1.08,3.38,3.38,0,0,1,2.4,3.2v.177a18.977,18.977,0,0,0,5.217,0v-.177a3.381,3.381,0,0,1,2.4-3.2Z" transform="translate(26.166 -2.201)"/>
      <path id="Trazado_103903" data-name="Trazado 103903" d="M51.156,25.333a1.382,1.382,0,0,1,2.281,1.049v2.764H70.02A1.382,1.382,0,0,1,71.4,30.528v8.292A1.382,1.382,0,0,1,70.02,40.2H53.437v2.764a1.381,1.381,0,0,1-2.281,1.049l-9.673-8.292a1.381,1.381,0,0,1,0-2.1Zm-.482,14.628V38.819a1.382,1.382,0,0,1,1.382-1.382H68.639V31.91H52.055a1.382,1.382,0,0,1-1.382-1.382V29.386l-6.168,5.288Z" transform="translate(-41 1.256)"/>
      <path id="Trazado_103904" data-name="Trazado 103904" d="M21.926,40.976a1.382,1.382,0,0,1-2.032-1.432l.621-3.812-2.622-2.687a1.382,1.382,0,0,1,.78-2.331l3.568-.547,1.609-3.425a1.382,1.382,0,0,1,2.5,0l1.609,3.425,3.568.547a1.382,1.382,0,0,1,.78,2.331l-2.622,2.687.621,3.812a1.382,1.382,0,0,1-2.032,1.432L25.1,39.22Zm5.2-3.8-.276-1.691a1.38,1.38,0,0,1,.374-1.188l1.231-1.262-1.639-.251a1.38,1.38,0,0,1-1.042-.779L25.1,30.58l-.671,1.429a1.38,1.38,0,0,1-1.042.779l-1.639.251L22.981,34.3a1.38,1.38,0,0,1,.375,1.188l-.276,1.691,1.353-.748a1.381,1.381,0,0,1,1.337,0Z" transform="translate(30.176 1.618)"/>
      <path id="Trazado_103905" data-name="Trazado 103905" d="M51.006,58.469a29.336,29.336,0,0,0,3.957-.268l.376,2.739a32.24,32.24,0,0,1-4.333.293A31.753,31.753,0,0,1,20.865,39.562l2.621-.88a28.992,28.992,0,0,0,27.52,19.787Z" transform="translate(2.889 6.482)"/>
      <path id="Trazado_103906" data-name="Trazado 103906" d="M32.348,31.22l-2.621-.88A31.755,31.755,0,0,1,51.2,9.866l.753,2.659a28.992,28.992,0,0,0-19.605,18.7Z" transform="translate(-5.974 -4.524)"/>
      <path id="Trazado_103907" data-name="Trazado 103907" d="M22.1,40.454A29.124,29.124,0,0,0,1,12.525l.752-2.659a31.792,31.792,0,0,1,22.44,24.059A31.792,31.792,0,0,1,13.31,64.974l-1.76-2.132A28.946,28.946,0,0,0,22.1,40.454Z" transform="translate(60.812 -4.524)"/>
      <path id="Trazado_103908" data-name="Trazado 103908" d="M16.528,48A5.528,5.528,0,1,1,11,53.528,5.528,5.528,0,0,1,16.528,48Zm0,8.292a2.764,2.764,0,1,0-2.764-2.764A2.764,2.764,0,0,0,16.528,56.292Z" transform="translate(49.805 10.041)"/>
      <path id="Trazado_103909" data-name="Trazado 103909" d="M20,11.528a5.528,5.528,0,1,1,5.528,5.528A5.528,5.528,0,0,1,20,11.528Zm8.292,0a2.764,2.764,0,1,0-2.764,2.764,2.764,2.764,0,0,0,2.764-2.764Z" transform="translate(28.367 -6)"/>
    </g>
    <g id="turista" transform="translate(317 2221.096)">
      <g id="Grupo_56890" data-name="Grupo 56890" transform="translate(1.859 1.859)">
        <g id="Grupo_56886" data-name="Grupo 56886" transform="translate(50.812 86.751)">
          <g id="Grupo_56885" data-name="Grupo 56885">
            <path id="Trazado_103910" data-name="Trazado 103910" d="M325.765,393.935H310a5.5,5.5,0,0,1-5.5-5.5V363a5.5,5.5,0,0,1,5.5-5.5h15.761a5.5,5.5,0,0,1,5.5,5.5v25.428A5.5,5.5,0,0,1,325.765,393.935Z" transform="translate(-304.5 -357.5)" fill="#c59191"/>
            <path id="Trazado_103911" data-name="Trazado 103911" d="M367.73,357.5h-7.436a5.5,5.5,0,0,1,5.5,5.5v25.428a5.5,5.5,0,0,1-5.5,5.5h7.436a5.5,5.5,0,0,0,5.5-5.5V363A5.5,5.5,0,0,0,367.73,357.5Z" transform="translate(-346.465 -357.5)" fill="#b98080"/>
          </g>
        </g>
        <g id="Grupo_56889" data-name="Grupo 56889">
          <path id="Trazado_103912" data-name="Trazado 103912" d="M133.3,163.776l-23.323-8.033L109.7,159.1a5.107,5.107,0,0,1-10.192-.658l1.472-32.892a9.915,9.915,0,0,1,6.222-8.762l9.537-3.815a4.957,4.957,0,0,0,3.116-4.6v-4.08h13.092v3.863a4.958,4.958,0,0,0,3.389,4.7l4.145,1.382a9.915,9.915,0,0,1,5.5,4.527L161.9,146.946a4.926,4.926,0,0,1-8.468,5.032l-11.2-17.945v14.6Z" transform="translate(-99.499 -80.3)" fill="#b0e6a0"/>
          <g id="Grupo_56887" data-name="Grupo 56887" transform="translate(27.574 23.99)">
            <path id="Trazado_103913" data-name="Trazado 103913" d="M245.578,146.945l-15.929-28.182a9.913,9.913,0,0,0-5.5-4.527l-4.145-1.382a4.957,4.957,0,0,1-3.389-4.7v-3.863h-5.871v7.581a4.958,4.958,0,0,0,3.389,4.7l4.145,1.382a9.914,9.914,0,0,1,5.5,4.527l15.929,28.182a4.858,4.858,0,0,1,.518,3.514,4.92,4.92,0,0,0,5.353-7.232Z" transform="translate(-210.747 -104.289)" fill="#8ddaa7"/>
          </g>
          <path id="Trazado_103914" data-name="Trazado 103914" d="M189.034,112.668c-1.763-.794-6.639-2.552-6.639-4.517l3.718-3.863H173.021v4.08a4.956,4.956,0,0,1-2.831,4.476,10.568,10.568,0,0,0,18.844-.176Z" transform="translate(-152.668 -80.299)" fill="#ffcebf"/>
          <path id="Trazado_103915" data-name="Trazado 103915" d="M214.135,116.573l1.37.457a10.617,10.617,0,0,0,4.033-4.361,4.961,4.961,0,0,1-2.921-4.517v-3.863h-5.871v7.581a4.957,4.957,0,0,0,3.389,4.7Z" transform="translate(-183.172 -80.299)" fill="#ffb09e"/>
          <path id="Trazado_103916" data-name="Trazado 103916" d="M308.663,266.992l2.094,3.356a4.927,4.927,0,0,0,3.114,2.2c.346.077,1.065-3.6,1.065-3.6,3.772,0,2.427-.348.571-3.632l1.656-3.648Z" transform="translate(-256.82 -198.669)" fill="#ffcebf"/>
          <path id="Trazado_103917" data-name="Trazado 103917" d="M327.15,265.315l-2.062-3.648-5.888,3.689,2.079,3.678a4.858,4.858,0,0,1,.518,3.514h0a5.018,5.018,0,0,0,1.064.119A4.926,4.926,0,0,0,327.15,265.315Z" transform="translate(-264.745 -198.669)" fill="#ffb09e"/>
          <path id="Trazado_103918" data-name="Trazado 103918" d="M110.02,310H99.646l-.142,3.163a5.107,5.107,0,0,0,10.192.658l.284-3.355.136.047Z" transform="translate(-99.499 -235.022)" fill="#ffcebf"/>
          <path id="Trazado_103919" data-name="Trazado 103919" d="M175.794,299.289l-3.718,47.146H147.83l-3.718-47.146Z" transform="translate(-133.054 -226.966)" fill="#ffcebf"/>
          <path id="Trazado_103920" data-name="Trazado 103920" d="M144.112,224.289h31.682v14.872H144.112Z" transform="translate(-133.054 -170.556)" fill="#b0e6a0"/>
          <g id="Grupo_56888" data-name="Grupo 56888" transform="translate(15.554)">
            <path id="Trazado_103921" data-name="Trazado 103921" d="M173.6,37.064a11.345,11.345,0,0,1-11.345-11.345V14.159A6.659,6.659,0,0,1,168.911,7.5h9.372a6.659,6.659,0,0,1,6.659,6.659v11.56A11.344,11.344,0,0,1,173.6,37.064Z" transform="translate(-162.252 -7.5)" fill="#ffcebf"/>
            <path id="Trazado_103922" data-name="Trazado 103922" d="M162.252,19.332V14.159A6.659,6.659,0,0,1,168.911,7.5h9.372a6.659,6.659,0,0,1,6.659,6.659v5.173Z" transform="translate(-162.252 -7.5)" fill="#c59191"/>
            <path id="Trazado_103923" data-name="Trazado 103923" d="M211.024,19.332V14.159A6.659,6.659,0,0,0,204.365,7.5h-7.436a6.659,6.659,0,0,1,6.659,6.659v5.173Z" transform="translate(-188.334 -7.5)" fill="#b98080"/>
            <path id="Trazado_103924" data-name="Trazado 103924" d="M192.067,55.236v6.387a8.932,8.932,0,0,1-2.149,6.643c-3.221,3.563-8.062,2.669-8.306,2.62a11.648,11.648,0,0,0,4.788,1.945,11.188,11.188,0,0,0,1.758.137A11.345,11.345,0,0,0,199.5,61.623V55.236" transform="translate(-176.813 -43.404)" fill="#ffb09e"/>
          </g>
          <path id="Trazado_103925" data-name="Trazado 103925" d="M138.921,284.289H170.6l1.7,20.143a2.479,2.479,0,0,1-2.47,2.687H139.69a2.479,2.479,0,0,1-2.47-2.687Z" transform="translate(-127.864 -215.684)" fill="#ffe180"/>
          <path id="Trazado_103926" data-name="Trazado 103926" d="M248.739,304.432l-1.7-20.143H239.6l1.7,20.143a2.479,2.479,0,0,1-2.47,2.687h7.436A2.478,2.478,0,0,0,248.739,304.432Z" transform="translate(-204.298 -215.684)" fill="#fbd270"/>
          <path id="Trazado_103927" data-name="Trazado 103927" d="M221.874,481.936H210.013a1.99,1.99,0,0,1-1.99-1.99,5.446,5.446,0,0,1,5.446-5.446h4.95a5.446,5.446,0,0,1,5.446,5.446A1.99,1.99,0,0,1,221.874,481.936Z" transform="translate(-181.124 -358.749)" fill="#554e56"/>
          <path id="Trazado_103928" data-name="Trazado 103928" d="M231.172,474.5h-4.95a5.462,5.462,0,0,0-1.243.144,5.447,5.447,0,0,1,4.2,5.3,1.99,1.99,0,0,1-1.99,1.99h7.436a1.99,1.99,0,0,0,1.99-1.99A5.446,5.446,0,0,0,231.172,474.5Z" transform="translate(-193.877 -358.749)" fill="#433f43"/>
          <path id="Trazado_103929" data-name="Trazado 103929" d="M157.964,481.936H146.1a1.99,1.99,0,0,1-1.99-1.99,5.446,5.446,0,0,1,5.446-5.446h4.95a5.446,5.446,0,0,1,5.446,5.446,1.991,1.991,0,0,1-1.99,1.99Z" transform="translate(-133.055 -358.749)" fill="#554e56"/>
          <path id="Trazado_103930" data-name="Trazado 103930" d="M167.261,474.5h-4.95a5.462,5.462,0,0,0-1.243.144,5.447,5.447,0,0,1,4.2,5.3,1.99,1.99,0,0,1-1.99,1.99h7.436a1.99,1.99,0,0,0,1.99-1.99A5.446,5.446,0,0,0,167.261,474.5Z" transform="translate(-145.807 -358.749)" fill="#433f43"/>
        </g>
      </g>
      <path id="Trazado_103931" data-name="Trazado 103931" d="M156.2,115.479V96.634a1.859,1.859,0,1,0-3.718,0v18.845a1.859,1.859,0,0,0,3.718,0Zm7.436,0V96.634a1.859,1.859,0,1,0-3.718,0v18.845a1.859,1.859,0,0,0,3.718,0Zm2.538-28.722V73.52a4.343,4.343,0,0,0-4.338-4.338h-3.3a6.891,6.891,0,0,0-.652-1.591l-15.93-28.182a11.755,11.755,0,0,0-6.528-5.377c-.261-.087-4.152-1.359-4.373-1.468a3.164,3.164,0,0,1-1.849-2.346,13.18,13.18,0,0,0,4.758-10.14V15.3h3.233a1.859,1.859,0,0,0,0-3.718h-3.233V8.518A8.528,8.528,0,0,0,125.444,0h-9.372a8.527,8.527,0,0,0-8.518,8.518v3.069h-3.233a1.859,1.859,0,0,0,0,3.718h3.233v4.774a13.181,13.181,0,0,0,4.781,10.16,3.082,3.082,0,0,1-1.93,2.568l-9.537,3.815a11.793,11.793,0,0,0-7.388,10.4l-.38,8.484a1.859,1.859,0,0,0,3.714.166l.38-8.484a8.068,8.068,0,0,1,5.055-7.119l8.375-3.35a12.428,12.428,0,0,0,20.428-.229l3.2,1.066a8.042,8.042,0,0,1,4.466,3.679l12.993,22.985-5.417,3.393-8.118-13.009c-.645-1.325-3.512-1.069-3.436.984V68.6H106.775V55.592a1.859,1.859,0,0,0-3.718,0V70.385l-.388,4.593h-6.72L96.428,64.3a1.859,1.859,0,1,0-3.714-.166C92.7,64.44,92,79.944,92,80.23a6.974,6.974,0,0,0,6.967,6.965,6.867,6.867,0,0,0,2.718-.563l-.322,3.819a4.327,4.327,0,0,0,3.333,4.583l1.726,21.876a7.3,7.3,0,0,0-3.364,6.145,3.853,3.853,0,0,0,3.849,3.849h11.861a3.818,3.818,0,0,0,1.99-.561,3.819,3.819,0,0,0,1.99.561h11.861a3.853,3.853,0,0,0,3.849-3.849,7.3,7.3,0,0,0-3.365-6.146l1.726-21.874a4.327,4.327,0,0,0,3.334-4.584l-1.695-20.066v-8.3l7.76,12.435a6.8,6.8,0,0,0,3.723,2.88v9.357a7.371,7.371,0,0,0-7.129,7.357v9.464a1.859,1.859,0,1,0,3.718,0V94.114a3.649,3.649,0,0,1,3.645-3.645h15.761a3.649,3.649,0,0,1,3.645,3.645v25.427a3.649,3.649,0,0,1-3.645,3.645H150.174a3.649,3.649,0,0,1-3.645-3.645v-7.288a1.859,1.859,0,1,0-3.718,0v7.288a7.371,7.371,0,0,0,7.363,7.363h15.761a7.371,7.371,0,0,0,7.363-7.363V94.114a7.37,7.37,0,0,0-7.128-7.357Zm-54.9-78.239a4.805,4.805,0,0,1,4.8-4.8h9.372a4.805,4.805,0,0,1,4.8,4.8v3.069H111.272Zm0,11.56V15.3h18.972v4.774a9.486,9.486,0,1,1-18.972,0Zm9.486,18.162a8.677,8.677,0,0,1-6.844-3.331,6.759,6.759,0,0,0,1.747-2.652,13.194,13.194,0,0,0,10.266-.03A6.8,6.8,0,0,0,127.7,34.78a8.651,8.651,0,0,1-6.946,3.46ZM102.2,80.511a3.248,3.248,0,0,1-6.481-.429l.062-1.387h6.573Zm16.565,42.675H106.907a.131.131,0,0,1-.131-.131,3.591,3.591,0,0,1,3.587-3.587h4.95a3.591,3.591,0,0,1,3.587,3.587.131.131,0,0,1-.131.131Zm.131-6.491a7.258,7.258,0,0,0-3.587-.945c-.321,0-4.961,0-5.252.008l-1.626-20.605H118.9Zm15.71,6.491H122.748a.131.131,0,0,1-.131-.131,3.591,3.591,0,0,1,3.587-3.587h4.95a3.591,3.591,0,0,1,3.587,3.587.131.131,0,0,1-.131.131ZM122.616,116.7V95.153h10.463l-1.626,20.605c-.265-.015-4.962-.008-5.25-.008A7.256,7.256,0,0,0,122.616,116.7Zm13.214-25.26H122.616V82.989a1.859,1.859,0,0,0-3.718,0v8.446H105.685a.585.585,0,0,1-.617-.672c.01-.006,1.159-13.723,1.163-13.775l.394-4.666H134.89l1.558,18.441A.58.58,0,0,1,135.83,91.435Zm13.543-18.882-1.112-1.781,5.28-3.308,1.105,1.956A3.068,3.068,0,0,1,151.974,74a3.086,3.086,0,0,1-2.6-1.443Zm13.079,14.2h-8.794V77.505a6.713,6.713,0,0,0,4.177-3.155,6.9,6.9,0,0,0,.634-1.449h3.363a.621.621,0,0,1,.62.62Z" transform="translate(-92 0)"/>
    </g>
  </g>
</svg>
