<svg xmlns="http://www.w3.org/2000/svg" width="157" height="157" viewBox="0 0 157 157">
  <g id="Grupo_56633" data-name="Grupo 56633" transform="translate(-300 -688)">
    <rect id="Rectángulo_5634" data-name="Rectángulo 5634" width="157" height="157" rx="17" transform="translate(300 688)" fill="#eff2ff"/>
    <g id="campana-del-hotel" transform="translate(326 673.452)">
      <g id="Grupo_55908" data-name="Grupo 55908" transform="translate(1.526 122.686)">
        <path id="Trazado_102094" data-name="Trazado 102094" d="M106.595,401.676H9.556A2.056,2.056,0,0,1,7.5,399.621V391.4a2.056,2.056,0,0,1,2.056-2.056h97.039a2.056,2.056,0,0,1,2.056,2.056v8.224A2.056,2.056,0,0,1,106.595,401.676Z" transform="translate(-7.5 -389.341)" fill="#b78b7a"/>
      </g>
      <g id="Grupo_55909" data-name="Grupo 55909" transform="translate(91.986 122.686)">
        <path id="Trazado_102095" data-name="Trazado 102095" d="M460.606,389.341h-8.635a2.056,2.056,0,0,1,2.056,2.056v8.224a2.056,2.056,0,0,1-2.056,2.056h8.635a2.056,2.056,0,0,0,2.056-2.056V391.4A2.056,2.056,0,0,0,460.606,389.341Z" transform="translate(-451.971 -389.341)" fill="#aa7a63"/>
      </g>
      <g id="Grupo_55910" data-name="Grupo 55910" transform="translate(13.039 115.696)">
        <path id="Trazado_102096" data-name="Trazado 102096" d="M64.069,355h78.124v6.99H64.069Z" transform="translate(-64.069 -354.996)" fill="#ffe07d"/>
      </g>
      <g id="Grupo_55911" data-name="Grupo 55911" transform="translate(81.707 115.696)">
        <path id="Trazado_102097" data-name="Trazado 102097" d="M401.463,355h9.457v6.99h-9.457Z" transform="translate(-401.463 -354.996)" fill="#ffd064"/>
      </g>
      <g id="Grupo_55912" data-name="Grupo 55912" transform="translate(21.263 108.706)">
        <path id="Trazado_102098" data-name="Trazado 102098" d="M104.476,320.65h61.677v6.99H104.476Z" transform="translate(-104.476 -320.65)" fill="#595959"/>
      </g>
      <g id="Grupo_55913" data-name="Grupo 55913" transform="translate(47.99 63.27)">
        <path id="Trazado_102099" data-name="Trazado 102099" d="M235.8,97.4h8.224v6.784H235.8Z" transform="translate(-235.797 -97.404)" fill="#c6c1c8"/>
      </g>
      <g id="Grupo_55914" data-name="Grupo 55914" transform="translate(41.822 56.074)">
        <path id="Trazado_102100" data-name="Trazado 102100" d="M222.453,69.244H209.09a3.6,3.6,0,1,1,0-7.2h13.363a3.6,3.6,0,1,1,0,7.2Z" transform="translate(-205.492 -62.048)" fill="#ffe07d"/>
      </g>
      <g id="Grupo_55915" data-name="Grupo 55915" transform="translate(53.438 56.075)">
        <path id="Trazado_102101" data-name="Trazado 102101" d="M267.911,62.049h-5.345a3.6,3.6,0,1,1,0,7.2h5.345a3.6,3.6,0,1,0,0-7.2Z" transform="translate(-262.566 -62.049)" fill="#ffd064"/>
      </g>
      <g id="Grupo_55916" data-name="Grupo 55916" transform="translate(13.039 69.644)">
        <path id="Trazado_102102" data-name="Trazado 102102" d="M64.069,167.782a39.062,39.062,0,0,1,78.124,0H64.069Z" transform="translate(-64.069 -128.72)" fill="#ffe07d"/>
      </g>
      <g id="Grupo_55917" data-name="Grupo 55917" transform="translate(47.167 69.644)">
        <path id="Trazado_102103" data-name="Trazado 102103" d="M236.69,128.72a39.443,39.443,0,0,0-4.934.309,39.069,39.069,0,0,1,34.128,38.753h9.868A39.062,39.062,0,0,0,236.69,128.72Z" transform="translate(-231.756 -128.72)" fill="#ffd064"/>
      </g>
      <path id="Trazado_102104" data-name="Trazado 102104" d="M100.621,121.159H92.69V115.7a1.526,1.526,0,0,0-1.526-1.526h-6.7v-3.937h6.7a1.526,1.526,0,0,0,1.526-1.526A40.649,40.649,0,0,0,57.74,68.511V64.8h1.043a5.124,5.124,0,1,0,0-10.249H45.42a5.124,5.124,0,1,0,0,10.249h1.043v3.714a40.649,40.649,0,0,0-34.95,40.195,1.526,1.526,0,0,0,1.526,1.526h6.7v3.937h-6.7a1.526,1.526,0,0,0-1.526,1.526v5.464H3.582A3.586,3.586,0,0,0,0,124.742v8.224a3.586,3.586,0,0,0,3.582,3.582h97.039a3.587,3.587,0,0,0,3.582-3.582v-8.224a3.587,3.587,0,0,0-3.583-3.582ZM43.349,59.672A2.074,2.074,0,0,1,45.42,57.6H58.783a2.071,2.071,0,1,1,0,4.143H45.42a2.074,2.074,0,0,1-2.071-2.071ZM49.516,64.8h5.171V68.2c-.855-.054-1.717-.085-2.585-.085s-1.73.031-2.585.085Zm-34.95,52.426h12.91a1.526,1.526,0,1,0,0-3.053H22.79v-3.937H71.822a1.526,1.526,0,1,0,0-3.053H14.6a37.536,37.536,0,0,1,75.01,0H78.952a1.526,1.526,0,0,0,0,3.053h2.462v3.937H34.6a1.526,1.526,0,1,0,0,3.053H89.637v3.937H14.566Zm86.585,15.743a.53.53,0,0,1-.53.53H3.582a.53.53,0,0,1-.53-.53v-8.224a.53.53,0,0,1,.53-.53h97.039a.53.53,0,0,1,.53.53v8.224Z" transform="translate(0 0)"/>
    </g>
  </g>
</svg>
