<svg xmlns="http://www.w3.org/2000/svg" width="172" height="154" viewBox="0 0 172 154">
  <g id="Grupo_56915" data-name="Grupo 56915" transform="translate(-259 -455)">
    <g id="Grupo_55930" data-name="Grupo 55930" transform="translate(0 -3)">
      <g id="Right" transform="translate(259.273 457.992)">
        <rect id="BG" width="172" height="154" transform="translate(-0.273 0.008)" fill="#fff" opacity="0.949"/>
      </g>
    </g>
    <g id="metodo-de-pago_1_" data-name="metodo-de-pago (1)" transform="translate(283.04 470.375)">
      <g id="Grupo_55945" data-name="Grupo 55945" transform="translate(0 0.004)">
        <g id="Grupo_55937" data-name="Grupo 55937" transform="translate(14.28 21.782)">
          <g id="XMLID_35_" transform="translate(1.103 0.441)">
            <path id="Trazado_102248" data-name="Trazado 102248" d="M60.056,86.763h93.213v54.829H60.056Z" transform="translate(-60.056 -86.763)" fill="#4cddbf"/>
          </g>
          <g id="Grupo_55933" data-name="Grupo 55933">
            <path id="Trazado_102249" data-name="Trazado 102249" d="M82.965,85.043a19.723,19.723,0,0,1-25.826,18.769l-1.389,4.267a24.219,24.219,0,0,0,31.7-23.036H82.965Z" transform="translate(-55.75 -85.043)" fill="#3ebfa1"/>
          </g>
          <g id="Grupo_55934" data-name="Grupo 55934" transform="translate(26.062 44.391)">
            <path id="Trazado_102250" data-name="Trazado 102250" d="M167.105,262.835h58.656v-4.482H167.105a9.616,9.616,0,0,0-9.605,9.605v1.284h4.482v-1.284A5.123,5.123,0,0,1,167.105,262.835Z" transform="translate(-157.5 -258.353)" fill="#3ebfa1"/>
          </g>
          <g id="XMLID_34_" transform="translate(35.234 15.161)">
            <path id="Trazado_102251" data-name="Trazado 102251" d="M221.554,163.125c0,6.013-4.529,10.887-10.12,10.885s-10.124-4.877-10.125-10.891,4.529-10.887,10.12-10.885S221.552,157.111,221.554,163.125Z" transform="translate(-199.26 -150.185)" fill="#fff"/>
            <path id="Trazado_102252" data-name="Trazado 102252" d="M205.486,170.108h0c-6.711,0-12.172-5.806-12.174-12.939,0-6.724,5.218-12.935,12.169-12.935,6.711,0,12.172,5.806,12.174,12.939,0,6.722-5.216,12.935-12.166,12.935Zm-.011-21.776c-4.708,0-8.069,4.356-8.068,8.836,0,4.874,3.625,8.841,8.077,8.842,4.709,0,8.071-4.355,8.07-8.836,0-4.874-3.625-8.841-8.077-8.842Z" transform="translate(-193.309 -144.234)" fill="#333"/>
          </g>
          <g id="Grupo_55935" data-name="Grupo 55935" transform="translate(19.151 22.018)">
            <ellipse id="Elipse_399" data-name="Elipse 399" cx="3.842" cy="3.845" rx="3.842" ry="3.845" transform="translate(2.049 2.049)" fill="#fff"/>
            <path id="Trazado_102253" data-name="Trazado 102253" d="M136.409,182.791A5.894,5.894,0,1,1,142.3,176.9,5.9,5.9,0,0,1,136.409,182.791Zm0-7.69a1.8,1.8,0,1,0,1.793,1.8A1.8,1.8,0,0,0,136.409,175.1Z" transform="translate(-130.518 -171.003)" fill="#333"/>
          </g>
          <g id="Grupo_55936" data-name="Grupo 55936" transform="translate(64.259 21.967)">
            <ellipse id="Elipse_400" data-name="Elipse 400" cx="3.842" cy="3.845" rx="3.842" ry="3.845" transform="translate(2.049 2.049)" fill="#fff"/>
            <path id="Trazado_102254" data-name="Trazado 102254" d="M312.518,182.592a5.894,5.894,0,1,1,5.891-5.894A5.9,5.9,0,0,1,312.518,182.592Zm0-7.69a1.8,1.8,0,1,0,1.793,1.8A1.8,1.8,0,0,0,312.518,174.9Z" transform="translate(-306.627 -170.804)" fill="#333"/>
          </g>
        </g>
        <g id="Grupo_55940" data-name="Grupo 55940" transform="translate(44.824 70.656)">
          <path id="Trazado_102255" data-name="Trazado 102255" d="M242.877,323.017H180.123A5.123,5.123,0,0,1,175,317.894V280.976a5.123,5.123,0,0,1,5.123-5.123h62.754A5.123,5.123,0,0,1,248,280.976v36.919a5.123,5.123,0,0,1-5.123,5.123Z" transform="translate(-175 -275.853)" fill="#eee"/>
          <g id="Grupo_55938" data-name="Grupo 55938" transform="translate(29.2 22.046)">
            <path id="Trazado_102256" data-name="Trazado 102256" d="M321.263,366.02H291.049a2.049,2.049,0,0,1,0-4.1h30.214a2.049,2.049,0,1,1,0,4.1Z" transform="translate(-289 -361.922)" fill="#333"/>
          </g>
          <g id="Grupo_55939" data-name="Grupo 55939" transform="translate(29.2 33.324)">
            <path id="Trazado_102257" data-name="Trazado 102257" d="M321.263,410.052H291.049a2.049,2.049,0,1,1,0-4.1h30.214a2.049,2.049,0,1,1,0,4.1Z" transform="translate(-289 -405.954)" fill="#333"/>
          </g>
        </g>
        <g id="Grupo_55944" data-name="Grupo 55944" transform="translate(0 0)">
          <g id="Grupo_55941" data-name="Grupo 55941" transform="translate(2.049 2.045)">
            <ellipse id="Elipse_401" data-name="Elipse 401" cx="19.723" cy="19.737" rx="19.723" ry="19.737" fill="#fccd57"/>
          </g>
          <g id="Grupo_55942" data-name="Grupo 55942" transform="translate(2.049 2.045)">
            <path id="Trazado_102258" data-name="Trazado 102258" d="M13.635,27.725A19.734,19.734,0,0,1,30.54,8.192a19.737,19.737,0,1,0,0,39.067A19.734,19.734,0,0,1,13.635,27.725Z" transform="translate(-8 -7.988)" fill="#fab951"/>
          </g>
          <g id="Grupo_55943" data-name="Grupo 55943" transform="translate(14.711 7.56)">
            <path id="Trazado_102259" data-name="Trazado 102259" d="M65.847,41.474c-2.746-1.139-3.541-1.807-3.541-2.975,0-.966.695-2,2.645-2a9.477,9.477,0,0,1,4.526,1.475l1.392-3.684a10.468,10.468,0,0,0-4.425-1.55v-3.22H62.807V32.97a6.013,6.013,0,0,0-4.92,5.921c0,3.6,2.827,5.2,5.881,6.4,2.257.917,3.177,1.826,3.177,3.136,0,1.43-1.233,2.391-3.068,2.391a9.289,9.289,0,0,1-5.1-1.845L57.435,52.72a9.373,9.373,0,0,0,5.144,1.9v3.343h3.67V54.415A6.39,6.39,0,0,0,71.4,48.2c0-3.125-1.66-5.137-5.55-6.728Z" transform="translate(-57.435 -29.521)" fill="#333"/>
          </g>
          <path id="Trazado_102260" data-name="Trazado 102260" d="M112.7,68.647H110.65l-.013-46.389a2.056,2.056,0,0,0-2.049-2.057l-65.111-.022A21.769,21.769,0,1,0,13.332,41.87l.009,35.175a2.049,2.049,0,0,0,2.049,2.048l27.386.008v33.6a7.18,7.18,0,0,0,7.172,7.172H112.7a7.18,7.18,0,0,0,7.172-7.172V75.785A7.151,7.151,0,0,0,112.7,68.647Zm3.074,7.137V81.2h-68.9V75.785a3.048,3.048,0,0,1,3.074-3.039H112.7A3.048,3.048,0,0,1,115.775,75.785ZM106.543,37.3A19.252,19.252,0,0,1,93.859,24.286l12.681,0ZM4.1,21.788A17.674,17.674,0,1,1,21.772,39.476,17.7,17.7,0,0,1,4.1,21.788ZM21.772,43.574A21.805,21.805,0,0,0,43.4,24.273l46.249.013c1.829,8.533,8.608,14.983,16.9,17.322l.007,27.04h-56.6a7.167,7.167,0,0,0-7.129,6.373L34.2,75.009A22.692,22.692,0,0,0,17.434,57.385l0-14.246a21.776,21.776,0,0,0,4.342.435ZM17.435,61.612A18.561,18.561,0,0,1,30.006,75L17.439,75ZM112.7,115.777H49.947a3.077,3.077,0,0,1-3.074-3.074V85.3h68.9V112.7A3.077,3.077,0,0,1,112.7,115.777Z" transform="translate(0 -0.004)" fill="#333"/>
        </g>
      </g>
      <g id="Grupo_55950" data-name="Grupo 55950" transform="translate(5.754 90.14)">
        <g id="Grupo_55946" data-name="Grupo 55946" transform="translate(8.225)">
          <path id="Trazado_102261" data-name="Trazado 102261" d="M56.627,359.092a2.049,2.049,0,0,1-2.049-2.049v-3.086a2.049,2.049,0,0,1,4.1,0v3.086a2.049,2.049,0,0,1-2.049,2.049Z" transform="translate(-54.578 -351.908)" fill="#333"/>
        </g>
        <g id="Grupo_55947" data-name="Grupo 55947" transform="translate(8.225 13.319)">
          <path id="Trazado_102262" data-name="Trazado 102262" d="M56.627,411.09a2.049,2.049,0,0,1-2.049-2.049v-3.086a2.049,2.049,0,0,1,4.1,0v3.086a2.049,2.049,0,0,1-2.049,2.049Z" transform="translate(-54.578 -403.906)" fill="#333"/>
        </g>
        <g id="Grupo_55948" data-name="Grupo 55948" transform="translate(13.356 8.202)">
          <path id="Trazado_102263" data-name="Trazado 102263" d="M79.753,388.029H76.658a2.049,2.049,0,1,1,0-4.1h3.094a2.049,2.049,0,1,1,0,4.1Z" transform="translate(-74.609 -383.931)" fill="#333"/>
        </g>
        <g id="Grupo_55949" data-name="Grupo 55949" transform="translate(0 8.202)">
          <path id="Trazado_102264" data-name="Trazado 102264" d="M27.609,388.029H24.515a2.049,2.049,0,1,1,0-4.1H27.61a2.049,2.049,0,1,1,0,4.1Z" transform="translate(-22.466 -383.931)" fill="#333"/>
        </g>
      </g>
    </g>
  </g>
</svg>
