<svg xmlns="http://www.w3.org/2000/svg" width="140.82" height="140.787" viewBox="0 0 140.82 140.787">
  <g id="banco" transform="translate(-2 -2.026)">
    <path id="Trazado_102497" data-name="Trazado 102497" d="M5,12H131.738V58.94H5Z" transform="translate(4.041 13.463)" fill="#c0dafc"/>
    <path id="Trazado_102498" data-name="Trazado 102498" d="M19,16H33.082V44.164H19Z" transform="translate(22.899 18.851)" fill="#f2f2f2"/>
    <path id="Trazado_102499" data-name="Trazado 102499" d="M2,32H142.82V55.47H2Z" transform="translate(0 40.403)" fill="#5e87ca"/>
    <path id="Trazado_102500" data-name="Trazado 102500" d="M135.779,43.735V32H2V48.429H131.085A4.694,4.694,0,0,0,135.779,43.735Z" transform="translate(0 40.403)" fill="#78a0d4"/>
    <path id="Trazado_102501" data-name="Trazado 102501" d="M2,6H142.82V20.082H2Z" transform="translate(0 5.381)" fill="#5e87ca"/>
    <path id="Trazado_102502" data-name="Trazado 102502" d="M135.779,10.694V6H2v7.041H133.432A2.347,2.347,0,0,0,135.779,10.694Z" transform="translate(0 5.381)" fill="#78a0d4"/>
    <path id="Trazado_102503" data-name="Trazado 102503" d="M29,16H43.082V44.164H29Z" transform="translate(36.369 18.851)" fill="#f2f2f2"/>
    <path id="Trazado_102504" data-name="Trazado 102504" d="M39,16H53.082V44.164H39Z" transform="translate(49.839 18.851)" fill="#f2f2f2"/>
    <path id="Trazado_102505" data-name="Trazado 102505" d="M49,16H63.082V44.164H49Z" transform="translate(63.309 18.851)" fill="#f2f2f2"/>
    <g id="Grupo_56270" data-name="Grupo 56270" transform="translate(41.899 34.851)">
      <path id="Trazado_102506" data-name="Trazado 102506" d="M49,16h9.388V39.47H49Z" transform="translate(21.41 -16)" fill="#fff"/>
      <path id="Trazado_102507" data-name="Trazado 102507" d="M39,16h9.388V39.47H39Z" transform="translate(7.94 -16)" fill="#fff"/>
      <path id="Trazado_102508" data-name="Trazado 102508" d="M29,16h9.388V39.47H29Z" transform="translate(-5.53 -16)" fill="#fff"/>
      <path id="Trazado_102509" data-name="Trazado 102509" d="M19,16h9.388V39.47H19Z" transform="translate(-19 -16)" fill="#fff"/>
    </g>
    <path id="Trazado_102510" data-name="Trazado 102510" d="M4,42V88.94H135.432V42" transform="translate(2.694 53.873)" fill="#c0dafc"/>
    <path id="Trazado_102511" data-name="Trazado 102511" d="M20,79.552V45.687L25.163,42h4.225V79.552Z" transform="translate(24.246 53.873)" fill="#5e87ca"/>
    <path id="Trazado_102512" data-name="Trazado 102512" d="M49.388,79.552V45.687L44.225,42H40V79.552Z" transform="translate(51.186 53.873)" fill="#5e87ca"/>
    <path id="Trazado_102513" data-name="Trazado 102513" d="M68.2,51.429h-46L45.2,35Z" transform="translate(27.209 44.444)" fill="#3b5892"/>
    <path id="Trazado_102514" data-name="Trazado 102514" d="M54.9,41.735l32.858,23.47L94.8,58.164,54.9,30,15,58.164l7.041,7.041Z" transform="translate(17.511 37.709)" fill="#4c6cb5"/>
    <ellipse id="Elipse_418" data-name="Elipse 418" cx="21.372" cy="20.897" rx="21.372" ry="20.897" transform="translate(51.393 2.234)" fill="#f0ae42"/>
    <path id="Trazado_102515" data-name="Trazado 102515" d="M60.524,20.757A21.1,21.1,0,0,0,51.19,3.227,21.123,21.123,0,0,0,32.306,40.633,21.078,21.078,0,0,0,60.524,20.757Z" transform="translate(28.315 0.012)" fill="#f9d266"/>
    <path id="Trazado_102516" data-name="Trazado 102516" d="M46.776,15.735V13.388a7.041,7.041,0,0,0-7.041-7.041V4H35.041V6.347A7.041,7.041,0,0,0,28,13.388v2.347a7.041,7.041,0,0,0,7.041,7.041v7.041a2.347,2.347,0,0,1-2.347-2.347V25.123H28V27.47a7.041,7.041,0,0,0,7.041,7.041v2.347h4.694V34.511a7.041,7.041,0,0,0,7.041-7.041V25.123a7.041,7.041,0,0,0-7.041-7.041V11.041a2.347,2.347,0,0,1,2.347,2.347v2.347Zm-4.694,9.388V27.47a2.347,2.347,0,0,1-2.347,2.347V22.776A2.347,2.347,0,0,1,42.082,25.123Zm-7.041-7.041a2.347,2.347,0,0,1-2.347-2.347V13.388a2.347,2.347,0,0,1,2.347-2.347Z" transform="translate(35.022 2.687)" fill="#d5883e"/>
    <path id="Trazado_102517" data-name="Trazado 102517" d="M9,16H23.082V44.164H9Z" transform="translate(9.429 18.851)" fill="#f2f2f2"/>
    <path id="Trazado_102518" data-name="Trazado 102518" d="M18,67.388V58H36.776v9.388" transform="translate(21.552 75.425)" fill="#4c6cb5"/>
    <path id="Trazado_102519" data-name="Trazado 102519" d="M38,67.388V58H56.776v9.388" transform="translate(48.492 75.425)" fill="#4c6cb5"/>
    <path id="Trazado_102520" data-name="Trazado 102520" d="M29,79.511V56.041a7.041,7.041,0,1,1,14.082,0v23.47" transform="translate(36.369 63.302)" fill="#4c6cb5"/>
    <path id="Trazado_102521" data-name="Trazado 102521" d="M48,47H66.776V68.123H48Z" transform="translate(61.962 60.608)" fill="#f2f2f2"/>
    <path id="Trazado_102522" data-name="Trazado 102522" d="M48,47H62.082V63.429H48Z" transform="translate(61.962 60.608)" fill="#fff"/>
    <path id="Trazado_102523" data-name="Trazado 102523" d="M8,47H26.776V68.123H8Z" transform="translate(8.082 60.608)" fill="#f2f2f2"/>
    <path id="Trazado_102524" data-name="Trazado 102524" d="M8,47H22.082V63.429H8Z" transform="translate(8.082 60.608)" fill="#fff"/>
    <path id="Trazado_102525" data-name="Trazado 102525" d="M9,16h9.388V39.47H9Z" transform="translate(9.429 18.851)" fill="#fff"/>
  </g>
</svg>
