<svg xmlns="http://www.w3.org/2000/svg" width="70.452" height="156.41" viewBox="0 0 70.452 156.41">
  <g id="Grupo_56292" data-name="Grupo 56292" transform="translate(70.452 6.949) rotate(98)">
    <path id="Trazado_102380" data-name="Trazado 102380" d="M401.32,151.12c15.049-19.885,37.279-32.43,62.6-35.325a97.545,97.545,0,0,1,40,3.751,100.872,100.872,0,0,1,24.843,11.611L535.782,115l1.974-4.542,1.479,4.726,11.76,37.58.777,2.484-2.6-.09L509.8,153.8l-5.174-.178,4.121-3.134,12.03-9.147a86.157,86.157,0,0,0-45.791-13.3,84.932,84.932,0,0,0-9.6.548,77.739,77.739,0,0,0-53.813,30.328l-1.112,1.472-1.471-1.113-7.321-5.536-.629-.466-.1-.786-.1-.785Z" transform="translate(-400.842 -110.457)" fill="#ff9800"/>
  </g>
</svg>
