<svg xmlns="http://www.w3.org/2000/svg" width="500" height="166.76" viewBox="0 0 500 166.76">
  <g id="Grupo_56300" data-name="Grupo 56300" transform="translate(-176.149 -412.262)">
    <rect id="Rectángulo_5741" data-name="Rectángulo 5741" width="169.116" height="123.577" transform="translate(507.033 450.658)" fill="#ff9800"/>
    <rect id="Rectángulo_5742" data-name="Rectángulo 5742" width="20.788" height="22.327" transform="translate(525.12 537.252)" fill="#f2f2f2"/>
    <path id="Trazado_102564" data-name="Trazado 102564" d="M493.2,467.988H463.559l-89.523-55.726-84.582,20.263,101.768,94.707,29.609,29.29H493.2Z" transform="translate(11.137)" fill="#f4c496" fill-rule="evenodd"/>
    <rect id="Rectángulo_5743" data-name="Rectángulo 5743" width="16.17" height="104.708" transform="translate(490.863 461.052)" fill="#f2f2f2"/>
    <g id="Grupo_56299" data-name="Grupo 56299" transform="translate(176.149 432.526)">
      <path id="Trazado_102565" data-name="Trazado 102565" d="M382.159,430.712H194.46a18.364,18.364,0,0,0-18.311,18.31V558.891a18.369,18.369,0,0,0,18.311,18.316h187.7a18.369,18.369,0,0,0,18.313-18.316V449.022A18.364,18.364,0,0,0,382.159,430.712Z" transform="translate(-176.149 -430.712)" fill="#29d2cb" fill-rule="evenodd"/>
      <rect id="Rectángulo_5744" data-name="Rectángulo 5744" width="224.323" height="29.566" transform="translate(0 29.947)" fill="#1a1a1a"/>
      <rect id="Rectángulo_5745" data-name="Rectángulo 5745" width="142.791" height="18.599" transform="translate(81.532 73.248)" fill="#fff"/>
      <rect id="Rectángulo_5746" data-name="Rectángulo 5746" width="55.727" height="18.599" transform="translate(17.722 73.248)" fill="#fff"/>
      <path id="Trazado_102566" data-name="Trazado 102566" d="M332.918,577.207H194.46a18.369,18.369,0,0,1-18.311-18.316V449.022a18.36,18.36,0,0,1,18.311-18.31h56.058Z" transform="translate(-176.149 -430.712)" fill="#fff" fill-rule="evenodd" opacity="0.23"/>
    </g>
    <path id="Trazado_102567" data-name="Trazado 102567" d="M425.525,474.914H326.4A26.056,26.056,0,0,0,300.417,500.9v.007A26.054,26.054,0,0,0,326.4,526.879h99.126Z" transform="translate(12.215 6.158)" fill="#f4c496" fill-rule="evenodd"/>
    <path id="Trazado_102568" data-name="Trazado 102568" d="M338.853,483.324H323.841a15.059,15.059,0,0,0-15.014,15.01v3.471a15.054,15.054,0,0,0,15.014,15.01h15.013Z" transform="translate(13.042 6.985)" fill="#fff" fill-rule="evenodd"/>
  </g>
</svg>
