<svg xmlns="http://www.w3.org/2000/svg" width="144.555" height="51.947" viewBox="0 0 144.555 51.947">
  <g id="Grupo_56122" data-name="Grupo 56122" transform="translate(-528.945 -2801.953)">
    <g id="atras" transform="translate(621.002 2801.403)">
      <path id="Trazado_102278" data-name="Trazado 102278" d="M26.524,52.5A25.974,25.974,0,1,1,52.5,26.524,25.974,25.974,0,0,1,26.524,52.5Zm0-47.637A21.664,21.664,0,1,0,48.187,26.524,21.664,21.664,0,0,0,26.524,4.86Z" fill="#ff9800"/>
      <path id="Trazado_102279" data-name="Trazado 102279" d="M24.538,27.94H7.23V23.607H24.538a6.51,6.51,0,1,0,0-13H7.23V6.276H24.538a10.843,10.843,0,1,1,0,21.664Z" transform="translate(8.473 7.249)" fill="#ff9800"/>
      <path id="Trazado_102280" data-name="Trazado 102280" d="M16.065,30.763,5.88,20.555,16.065,10.37l3.062,3.062L12,20.555,19.128,27.7Z" transform="translate(6.761 12.456)" fill="#ff9800"/>
    </g>
    <path id="Trazado_104132" data-name="Trazado 104132" d="M6.67-5.469H3.916V0H1.445V-14.219h5a5.816,5.816,0,0,1,3.8,1.1,3.907,3.907,0,0,1,1.338,3.2,4,4,0,0,1-.688,2.39A4.381,4.381,0,0,1,8.975-6.048L12.168-.127V0H9.521ZM3.916-7.461H6.455a2.824,2.824,0,0,0,1.953-.63,2.2,2.2,0,0,0,.7-1.724,2.338,2.338,0,0,0-.649-1.768,2.759,2.759,0,0,0-1.938-.645H3.916ZM18.35.2a4.91,4.91,0,0,1-3.657-1.421,5.154,5.154,0,0,1-1.4-3.784V-5.3A6.34,6.34,0,0,1,13.9-8.13a4.645,4.645,0,0,1,1.714-1.938,4.531,4.531,0,0,1,2.461-.693,4.147,4.147,0,0,1,3.335,1.377,5.823,5.823,0,0,1,1.177,3.9v.957h-6.9a3.173,3.173,0,0,0,.874,2.07,2.624,2.624,0,0,0,1.929.762,3.213,3.213,0,0,0,2.656-1.318L22.422-1.8a4.272,4.272,0,0,1-1.694,1.47A5.3,5.3,0,0,1,18.35.2Zm-.283-9.053a2,2,0,0,0-1.577.684,3.543,3.543,0,0,0-.767,1.9h4.521v-.176a2.884,2.884,0,0,0-.635-1.8A1.983,1.983,0,0,0,18.066-8.857Zm9.961,5.85,2.236-7.559h2.451L29.053,0H26.992L23.3-10.566h2.461ZM38.721.2a4.91,4.91,0,0,1-3.657-1.421,5.154,5.154,0,0,1-1.4-3.784V-5.3a6.34,6.34,0,0,1,.61-2.827,4.646,4.646,0,0,1,1.714-1.938,4.531,4.531,0,0,1,2.461-.693,4.147,4.147,0,0,1,3.335,1.377,5.823,5.823,0,0,1,1.177,3.9v.957h-6.9a3.173,3.173,0,0,0,.874,2.07,2.624,2.624,0,0,0,1.929.762,3.213,3.213,0,0,0,2.656-1.318L42.793-1.8A4.272,4.272,0,0,1,41.1-.327,5.3,5.3,0,0,1,38.721.2Zm-.283-9.053a2,2,0,0,0-1.577.684,3.543,3.543,0,0,0-.767,1.9h4.521v-.176a2.884,2.884,0,0,0-.635-1.8A1.983,1.983,0,0,0,38.438-8.857ZM50.332-8.4a5.872,5.872,0,0,0-.967-.078,2.177,2.177,0,0,0-2.2,1.25V0H44.795V-10.566h2.266l.059,1.182A2.674,2.674,0,0,1,49.5-10.762a2.222,2.222,0,0,1,.84.137Zm7.422,5.527a1.076,1.076,0,0,0-.522-.967A5.557,5.557,0,0,0,55.5-4.424a8.911,8.911,0,0,1-2.021-.645A2.7,2.7,0,0,1,51.7-7.559a2.813,2.813,0,0,1,1.152-2.285,4.556,4.556,0,0,1,2.93-.918,4.74,4.74,0,0,1,3.062.938A2.975,2.975,0,0,1,60.01-7.393H57.637a1.462,1.462,0,0,0-.508-1.138,1.946,1.946,0,0,0-1.348-.454,2.1,2.1,0,0,0-1.274.361,1.139,1.139,0,0,0-.493.967.962.962,0,0,0,.459.85,6.312,6.312,0,0,0,1.855.61,8.783,8.783,0,0,1,2.192.732A3.1,3.1,0,0,1,59.7-4.443,2.6,2.6,0,0,1,60.088-3a2.753,2.753,0,0,1-1.182,2.31,5.039,5.039,0,0,1-3.1.884A5.464,5.464,0,0,1,53.5-.273a3.809,3.809,0,0,1-1.582-1.289,3.051,3.051,0,0,1-.566-1.768h2.3a1.672,1.672,0,0,0,.635,1.294,2.467,2.467,0,0,0,1.553.454,2.4,2.4,0,0,0,1.426-.356A1.1,1.1,0,0,0,57.754-2.871Zm3.955-2.51a6.231,6.231,0,0,1,.615-2.8,4.493,4.493,0,0,1,1.729-1.914,4.87,4.87,0,0,1,2.559-.669,4.615,4.615,0,0,1,3.472,1.377,5.416,5.416,0,0,1,1.44,3.652l.01.557a6.286,6.286,0,0,1-.6,2.793,4.439,4.439,0,0,1-1.719,1.9A4.906,4.906,0,0,1,66.631.2a4.584,4.584,0,0,1-3.579-1.489,5.7,5.7,0,0,1-1.343-3.97Zm2.373.205a4.258,4.258,0,0,0,.674,2.554,2.191,2.191,0,0,0,1.875.923,2.167,2.167,0,0,0,1.87-.937,4.7,4.7,0,0,0,.669-2.744,4.2,4.2,0,0,0-.688-2.539,2.2,2.2,0,0,0-1.87-.937,2.178,2.178,0,0,0-1.846.923A4.614,4.614,0,0,0,64.082-5.176Z" transform="translate(527.5 2835)" fill="#12263f"/>
  </g>
</svg>
