<svg xmlns="http://www.w3.org/2000/svg" width="306.484" height="460.473" viewBox="0 0 306.484 460.473">
  <g id="Grupo_56318" data-name="Grupo 56318" transform="translate(-234.843 -4.887)">
    <g id="Grupo_56311" data-name="Grupo 56311">
      <path id="Trazado_102571" data-name="Trazado 102571" d="M262.573,28.481a13.41,13.41,0,0,1,16.2-9.825A2.351,2.351,0,1,0,279.9,14.09a18.123,18.123,0,0,0-21.889,13.272,2.351,2.351,0,1,0,4.566,1.119Zm0,0" fill="gray"/>
      <path id="Trazado_102572" data-name="Trazado 102572" d="M251.283,28.135a2.342,2.342,0,0,0,2.843-1.724,22.092,22.092,0,0,1,26.693-16.186,2.351,2.351,0,1,0,1.119-4.566,26.808,26.808,0,0,0-32.379,19.633,2.359,2.359,0,0,0,1.724,2.843Zm0,0" fill="gray"/>
    </g>
    <g id="Grupo_56317" data-name="Grupo 56317">
      <path id="Trazado_102573" data-name="Trazado 102573" d="M437.409,274.119s14.608-18.26,3.636-39.406-27.3-41.7-27.3-41.7l-57.608,31.91,54.769,50.22Z" fill="#f7c78f"/>
      <path id="Trazado_102574" data-name="Trazado 102574" d="M424.033,207.014c-5.825-8.381-10.29-14-10.29-14l-57.608,31.91,47.449,43.508A62.717,62.717,0,0,1,424.033,207.014Z" fill="#f7c78f" opacity="0.4" style="mix-blend-mode: multiply;isolation: isolate"/>
      <g id="Grupo_56316" data-name="Grupo 56316">
        <path id="Trazado_102575" data-name="Trazado 102575" d="M429.215,157.172l-77.069,44.5a14.93,14.93,0,0,1-20.334-5.448L264.965,80.437A14.93,14.93,0,0,1,270.414,60.1l77.069-44.5c7.09-4.093,9.436,2.287,13.53,9.377L427.86,140.766C431.954,147.857,436.3,153.079,429.215,157.172Z" fill="#1a1a1a"/>
        <path id="Trazado_102576" data-name="Trazado 102576" d="M346.408,16.227,270.414,60.1a14.93,14.93,0,0,0-5.449,20.334l66.847,115.782a14.929,14.929,0,0,0,20.334,5.449l75.995-43.876Z" fill="#333"/>
        <path id="Trazado_102577" data-name="Trazado 102577" d="M435.351,153.629h0a4.09,4.09,0,0,1-5.571-1.492l-77.654-134.5a4.091,4.091,0,0,1,1.493-5.572h0a4.091,4.091,0,0,1,5.571,1.493l77.654,134.5A4.089,4.089,0,0,1,435.351,153.629Z" fill="#4d4d4d"/>
        <path id="Trazado_102578" data-name="Trazado 102578" d="M430.273,140.666a13.536,13.536,0,0,1-3.582,6.12l3.089,5.351a4.079,4.079,0,0,0,7.064-4.079L431,137.94Z" fill="#4d4d4d" opacity="0.3" style="mix-blend-mode: multiply;isolation: isolate"/>
        <path id="Trazado_102579" data-name="Trazado 102579" d="M429.625,199.686c-1.81,7.917-71.6,47.722-79.133,45.688-6.653-1.8-20.693-5.234-112.941-165.012-5.526-9.572-2.532-25.045,8.4-31.358l65.879-38.036c10.935-6.313,24.476-3.518,31.359,8.4C435.439,179.149,431.283,192.436,429.625,199.686Z" fill="#4d4d4d"/>
        <path id="Trazado_102580" data-name="Trazado 102580" d="M429.625,199.686c-1.81,7.917-71.6,47.722-79.133,45.688-6.653-1.8,59.352-42.121,59.352-42.121s18.621-7.315,8.4-31.358c0,0-81.937-164.445-75.054-152.524C435.439,179.149,431.283,192.436,429.625,199.686Z" fill="#4d4d4d" opacity="0.3" style="mix-blend-mode: multiply;isolation: isolate"/>
        <rect id="Rectángulo_5753" data-name="Rectángulo 5753" width="105.158" height="66.003" rx="15.304" transform="translate(238.225 64.704) rotate(-30)" fill="#29e2a1"/>
        <path id="Trazado_102581" data-name="Trazado 102581" d="M316.041,19.777,251.479,57.052a15.35,15.35,0,0,0-5.6,20.906L248,81.639a15.348,15.348,0,0,1,5.6-20.9l64.562-37.275a15.349,15.349,0,0,1,20.906,5.6l-2.126-3.681A15.348,15.348,0,0,0,316.041,19.777Z" fill="#29e2a1" opacity="0.5" style="mix-blend-mode: multiply;isolation: isolate"/>
        <path id="Trazado_102582" data-name="Trazado 102582" d="M302.283,121.311l-19.051,11a5.189,5.189,0,0,1-7.068-1.893h0a5.19,5.19,0,0,1,1.894-7.068l19.051-11a5.189,5.189,0,0,1,7.068,1.894h0A5.19,5.19,0,0,1,302.283,121.311Z" fill="#8cc63f"/>
        <path id="Trazado_102583" data-name="Trazado 102583" d="M301.433,119.839l-19.051,11a5.189,5.189,0,0,1-6.577-1.2,5.255,5.255,0,0,0,.359.775,5.189,5.189,0,0,0,7.068,1.893l19.051-11a5.19,5.19,0,0,0,1.894-7.067,5.075,5.075,0,0,0-.492-.7A5.188,5.188,0,0,1,301.433,119.839Z" fill="#8cc63f" opacity="0.3" style="mix-blend-mode: multiply;isolation: isolate"/>
        <path id="Trazado_102584" data-name="Trazado 102584" d="M333.811,103.108l-19.051,11a5.188,5.188,0,0,1-7.067-1.893h0a5.189,5.189,0,0,1,1.893-7.068l19.051-11a5.189,5.189,0,0,1,7.068,1.894h0A5.188,5.188,0,0,1,333.811,103.108Z" fill="#f7931e"/>
        <path id="Trazado_102585" data-name="Trazado 102585" d="M365.34,84.9l-19.051,11a5.189,5.189,0,0,1-7.068-1.893h0a5.19,5.19,0,0,1,1.894-7.068l19.051-11a5.189,5.189,0,0,1,7.068,1.894h0A5.189,5.189,0,0,1,365.34,84.9Z" fill="#c1272d"/>
        <path id="Trazado_102586" data-name="Trazado 102586" d="M325.025,125.895,290.9,145.6a5.188,5.188,0,0,1-7.067-1.894h0a5.19,5.19,0,0,1,1.893-7.068l34.123-19.7a5.188,5.188,0,0,1,7.067,1.894h0A5.188,5.188,0,0,1,325.025,125.895Z" fill="#ccc"/>
        <path id="Trazado_102587" data-name="Trazado 102587" d="M324.174,124.423l-34.122,19.7a5.188,5.188,0,0,1-6.576-1.2,5.063,5.063,0,0,0,.359.775A5.188,5.188,0,0,0,290.9,145.6l34.123-19.7a5.188,5.188,0,0,0,1.893-7.067,5.082,5.082,0,0,0-.491-.7A5.189,5.189,0,0,1,324.174,124.423Z" fill="#ccc" style="mix-blend-mode: multiply;isolation: isolate"/>
        <path id="Trazado_102588" data-name="Trazado 102588" d="M373.01,98.191l-34.122,19.7A5.189,5.189,0,0,1,331.82,116h0a5.189,5.189,0,0,1,1.894-7.068l34.122-19.7a5.191,5.191,0,0,1,7.068,1.894h0A5.19,5.19,0,0,1,373.01,98.191Z" fill="#ccc"/>
        <rect id="Rectángulo_5754" data-name="Rectángulo 5754" width="21.093" height="21.093" rx="2.781" transform="matrix(0.866, -0.5, 0.5, 0.866, 302.267, 146.972)" fill="#e6e6e6"/>
        <path id="Trazado_102589" data-name="Trazado 102589" d="M327.4,153.874l-13.45,7.766a2.789,2.789,0,0,1-3.8-1.018l1.275,2.209a2.789,2.789,0,0,0,3.8,1.018l13.45-7.766a2.789,2.789,0,0,0,1.018-3.8l-1.275-2.209A2.789,2.789,0,0,1,327.4,153.874Z" fill="#e6e6e6" style="mix-blend-mode: multiply;isolation: isolate"/>
        <rect id="Rectángulo_5755" data-name="Rectángulo 5755" width="21.093" height="21.093" rx="2.781" transform="translate(326.26 133.12) rotate(-30)" fill="#e6e6e6"/>
        <rect id="Rectángulo_5756" data-name="Rectángulo 5756" width="21.093" height="21.093" rx="2.781" transform="translate(350.252 119.268) rotate(-30)" fill="#e6e6e6"/>
        <rect id="Rectángulo_5757" data-name="Rectángulo 5757" width="21.093" height="21.093" rx="2.781" transform="translate(315.084 169.172) rotate(-30)" fill="#e6e6e6"/>
        <rect id="Rectángulo_5758" data-name="Rectángulo 5758" width="21.093" height="21.093" rx="2.781" transform="translate(339.077 155.32) rotate(-30)" fill="#e6e6e6"/>
        <rect id="Rectángulo_5759" data-name="Rectángulo 5759" width="21.093" height="21.093" rx="2.781" transform="matrix(0.866, -0.5, 0.5, 0.866, 363.069, 141.468)" fill="#e6e6e6"/>
        <rect id="Rectángulo_5760" data-name="Rectángulo 5760" width="21.093" height="21.093" rx="2.781" transform="matrix(0.866, -0.5, 0.5, 0.866, 327.901, 191.372)" fill="#e6e6e6"/>
        <rect id="Rectángulo_5761" data-name="Rectángulo 5761" width="21.093" height="21.093" rx="2.781" transform="matrix(0.866, -0.5, 0.5, 0.866, 351.894, 177.52)" fill="#e6e6e6"/>
        <rect id="Rectángulo_5762" data-name="Rectángulo 5762" width="21.093" height="21.093" rx="2.781" transform="translate(375.887 163.668) rotate(-30)" fill="#e6e6e6"/>
        <rect id="Rectángulo_5763" data-name="Rectángulo 5763" width="21.093" height="21.093" rx="2.781" transform="translate(340.718 213.572) rotate(-30)" fill="#e6e6e6"/>
        <rect id="Rectángulo_5764" data-name="Rectángulo 5764" width="21.093" height="21.093" rx="2.781" transform="translate(364.711 199.72) rotate(-30)" fill="#e6e6e6"/>
        <rect id="Rectángulo_5765" data-name="Rectángulo 5765" width="21.093" height="21.093" rx="2.781" transform="translate(388.704 185.868) rotate(-30)" fill="#e6e6e6"/>
        <g id="Grupo_56312" data-name="Grupo 56312">
          <text id="_1" data-name="1" transform="translate(319.59 155.911) rotate(-30)" fill="#333" font-size="17.854" font-family="Arvo-Bold, Arvo" font-weight="700"><tspan x="-3.553" y="0">1</tspan></text>
          <text id="_2" data-name="2" transform="translate(343.582 142.059) rotate(-30)" fill="#333" font-size="17.854" font-family="Arvo-Bold, Arvo" font-weight="700"><tspan x="-5.135" y="0">2</tspan></text>
          <text id="_3" data-name="3" transform="translate(367.575 128.208) rotate(-30)" fill="#333" font-size="17.854" font-family="Arvo-Bold, Arvo" font-weight="700"><tspan x="-4.738" y="0">3</tspan></text>
          <text id="_4" data-name="4" transform="translate(332.35 178.012) rotate(-30)" fill="#333" font-size="17.854" font-family="Arvo-Bold, Arvo" font-weight="700"><tspan x="-5.366" y="0">4</tspan></text>
          <text id="_5" data-name="5" transform="translate(356.342 164.16) rotate(-30)" fill="#333" font-size="17.854" font-family="Arvo-Bold, Arvo" font-weight="700"><tspan x="-5.257" y="0">5</tspan></text>
          <text id="_6" data-name="6" transform="translate(380.334 150.308) rotate(-30)" fill="#333" font-size="17.854" font-family="Arvo-Bold, Arvo" font-weight="700"><tspan x="-5.07" y="0">6</tspan></text>
          <text id="_7" data-name="7" transform="translate(345.108 200.111) rotate(-30)" fill="#333" font-size="17.854" font-family="Arvo-Bold, Arvo" font-weight="700"><tspan x="-5.187" y="0">7</tspan></text>
          <text id="_8" data-name="8" transform="translate(369.1 186.257) rotate(-30)" fill="#333" font-size="17.854" font-family="Arvo-Bold, Arvo" font-weight="700"><tspan x="-5.144" y="0">8</tspan></text>
          <text id="_9" data-name="9" transform="translate(393.093 172.407) rotate(-30)" fill="#333" font-size="17.854" font-family="Arvo-Bold, Arvo" font-weight="700"><tspan x="-5.017" y="0">9</tspan></text>
          <text id="_" data-name="#" transform="translate(357.868 222.212) rotate(-30)" fill="#333" font-size="17.854" font-family="Arvo-Bold, Arvo" font-weight="700"><tspan x="-6.704" y="0">#</tspan></text>
          <text id="_0" data-name="0" transform="translate(381.86 208.36) rotate(-30)" fill="#333" font-size="17.854" font-family="Arvo-Bold, Arvo" font-weight="700"><tspan x="-5.649" y="0">0</tspan></text>
          <text id="_2-2" data-name="*" transform="translate(405.853 194.508) rotate(-30)" fill="#333" font-size="17.854" font-family="Arvo-Bold, Arvo" font-weight="700"><tspan x="-4.394" y="0">*</tspan></text>
        </g>
        <g id="Grupo_56313" data-name="Grupo 56313">
          <path id="Trazado_102590" data-name="Trazado 102590" d="M294.584,66.039a4.09,4.09,0,1,1-5.587-1.5,4.09,4.09,0,0,1,5.587,1.5Zm0,0" fill="#333"/>
          <path id="Trazado_102591" data-name="Trazado 102591" d="M300.356,65.114a2.045,2.045,0,1,0,3.542-2.045,15.767,15.767,0,0,0-21.51-5.763,2.045,2.045,0,1,0,2.045,3.542,11.664,11.664,0,0,1,15.923,4.266Zm0,0" fill="#333"/>
          <path id="Trazado_102592" data-name="Trazado 102592" d="M309.7,62.08a2.05,2.05,0,0,0,.748-2.794,23.319,23.319,0,0,0-31.818-8.525,2.045,2.045,0,1,0,2.045,3.542,19.217,19.217,0,0,1,26.231,7.028,2.038,2.038,0,0,0,2.794.749Zm0,0" fill="#333"/>
        </g>
        <g id="Grupo_56314" data-name="Grupo 56314">
          <path id="Trazado_102593" data-name="Trazado 102593" d="M283.534,103.8l-2.6,1.5-1.3-.291.012-.042-1-.315-2.541-4.4.27-1.3.021.006.3-1,2.6-1.5,1.024.228.274-.978,2.46-1.42-2.4-4.155-2.461,1.42-1.025-.228-.274.978-2.6,1.5-1.3-.29.374-1.309,2.6-1.5,1.025.23.273-.979,2.6-1.5,1.3.291,0,.021.979.31,2.565,4.441-.268,1.3-.043-.012-.279,1-2.6,1.5-1.033-.242-.265.992-2.46,1.42,2.391,4.142,2.46-1.421,1.024.229.275-.978,2.6-1.5,1.3.29-.373,1.31-2.6,1.5-1.026-.229Z" fill="#333"/>
          <path id="Trazado_102594" data-name="Trazado 102594" d="M294.468,97.489l-2.6,1.5-1.3-.291.012-.042-1-.315-2.541-4.4.22-1.038-.986-.288L283.728,88.2,284,86.9l.021,0,.292-1.007,2.6-1.5,1.025.23.274-.98,2.6-1.5,1.3.291-.006.02.981.311,2.564,4.441-.22,1.039.986.287,2.541,4.4-.252,1.33-.044-.013-.287.987-2.6,1.5-1.025-.23Zm-2.79-.521,1.872-1.08,1.023.229.273-.978L297.3,93.72l-2.47-4.279.207-1.03-.973-.3-1.389-2.4-.285,3.609-.875.5-.84-1.454.317-4.2-1.87,1.08-1.025-.229-.273.978-2.457,1.419,2.478,4.292-.207,1.031.973.295L290,95.424l.285-3.609.875-.505.84,1.454Z" fill="#333"/>
          <path id="Trazado_102595" data-name="Trazado 102595" d="M306.853,90.467q.1.9-.32,1.15t-1.125-.244a2.942,2.942,0,0,1-.883-.929,1.206,1.206,0,0,1-.146-.9,1.081,1.081,0,0,1,.544-.715,1.053,1.053,0,0,1,.881-.1,1.219,1.219,0,0,1,.7.57A3.079,3.079,0,0,1,306.853,90.467Z" fill="#333"/>
          <path id="Trazado_102596" data-name="Trazado 102596" d="M316.339,84.863l-2.6,1.5-1.3-.291.012-.042-1-.314-2.541-4.4.221-1.039-.987-.287L305.6,75.572l.27-1.3.021,0,.292-1.007,2.6-1.5L309.8,72l.274-.979,2.6-1.5,1.3.291,0,.02.979.31,2.564,4.441-.22,1.039.986.287,2.541,4.4-.252,1.331-.043-.013-.287.987-2.6,1.5-1.025-.229Zm-2.79-.522,1.871-1.08,1.023.229.274-.978,2.457-1.419-2.47-4.278.207-1.031-.973-.295-1.388-2.406-.287,3.609-.875.5-.838-1.454.316-4.2L311,72.62l-1.025-.229-.273.978-2.457,1.419,2.477,4.292-.207,1.03.973.3,1.381,2.391.286-3.609.875-.505.839,1.454Z" fill="#333"/>
          <path id="Trazado_102597" data-name="Trazado 102597" d="M327.273,78.55l-2.6,1.5-1.3-.291.011-.042-1-.315L319.847,75l.221-1.039-.986-.287-2.549-4.415.268-1.3.022,0,.292-1.007,2.6-1.5,1.025.23.273-.979,2.6-1.5,1.3.291-.006.021.981.31,2.564,4.441-.221,1.039.987.287,2.541,4.4-.252,1.33-.044-.013-.287.988-2.6,1.5-1.025-.229Zm-2.79-.522,1.871-1.08,1.024.229.273-.978,2.458-1.419L327.638,70.5l.207-1.031-.972-.295-1.389-2.406-.285,3.609-.875.505-.84-1.454.317-4.2-1.871,1.08-1.024-.229-.273.978-2.457,1.418,2.478,4.292-.207,1.031.973.3,1.381,2.392.285-3.609.875-.5.84,1.454Z" fill="#333"/>
          <path id="Trazado_102598" data-name="Trazado 102598" d="M338.209,72.236l-2.6,1.5-1.3-.291.374-1.308,2.447-1.413-2.391-4.142L332.3,68l-1.306-.3.019-.029-.994-.3-2.549-4.415.269-1.3.022,0,.293-1.007,2.6-1.5,1.025.23.273-.98,2.6-1.5,1.3.291-.374,1.308L333.019,59.9l2.4,4.156,2.446-1.414,1.3.3-.012.044.994.3,2.535,4.392-.253,1.329L342.39,69l-.287.987-2.6,1.5-1.026-.23Zm-6.7-5.92,2.311-1.334-2.4-4.155-2.31,1.334Zm7.225,3.485,2.31-1.334-2.392-4.142-2.31,1.334Z" fill="#333"/>
        </g>
        <g id="Grupo_56315" data-name="Grupo 56315" opacity="0.3" style="mix-blend-mode: screen;isolation: isolate">
          <path id="Trazado_102599" data-name="Trazado 102599" d="M270.609,46.008l-5.983,64.167a15.315,15.315,0,0,0,10.246,5.929l7.149-76.686Z" fill="#fff"/>
          <path id="Trazado_102600" data-name="Trazado 102600" d="M291.727,33.815,285.862,37.2,278.5,116.155a15.136,15.136,0,0,0,5.718-1.809Z" fill="#fff"/>
          <path id="Trazado_102601" data-name="Trazado 102601" d="M318.519,94.56l7.149-76.672a15.277,15.277,0,0,0-5.576.281l-7.438,79.778Z" fill="#fff"/>
        </g>
        <path id="Trazado_102602" data-name="Trazado 102602" d="M351.389,140.022l-13.45,7.766a2.789,2.789,0,0,1-3.8-1.018l1.275,2.209a2.79,2.79,0,0,0,3.8,1.018l13.45-7.766a2.79,2.79,0,0,0,1.018-3.8l-1.276-2.209A2.789,2.789,0,0,1,351.389,140.022Z" fill="#e6e6e6" style="mix-blend-mode: multiply;isolation: isolate"/>
        <path id="Trazado_102603" data-name="Trazado 102603" d="M375.382,126.17l-13.45,7.766a2.789,2.789,0,0,1-3.8-1.018l1.275,2.209a2.789,2.789,0,0,0,3.8,1.018l13.45-7.766a2.788,2.788,0,0,0,1.018-3.8l-1.275-2.209A2.789,2.789,0,0,1,375.382,126.17Z" fill="#e6e6e6" style="mix-blend-mode: multiply;isolation: isolate"/>
        <path id="Trazado_102604" data-name="Trazado 102604" d="M340.214,176.074l-13.45,7.766a2.789,2.789,0,0,1-3.8-1.018l1.275,2.209a2.789,2.789,0,0,0,3.8,1.018l13.45-7.766a2.789,2.789,0,0,0,1.018-3.8l-1.275-2.209A2.788,2.788,0,0,1,340.214,176.074Z" fill="#e6e6e6" style="mix-blend-mode: multiply;isolation: isolate"/>
        <path id="Trazado_102605" data-name="Trazado 102605" d="M364.207,162.222l-13.451,7.766a2.789,2.789,0,0,1-3.8-1.018l1.276,2.209a2.789,2.789,0,0,0,3.8,1.018l13.45-7.766a2.788,2.788,0,0,0,1.018-3.8l-1.276-2.209A2.789,2.789,0,0,1,364.207,162.222Z" fill="#e6e6e6" style="mix-blend-mode: multiply;isolation: isolate"/>
        <path id="Trazado_102606" data-name="Trazado 102606" d="M388.2,148.37l-13.45,7.766a2.788,2.788,0,0,1-3.8-1.018l1.275,2.209a2.79,2.79,0,0,0,3.8,1.018l13.45-7.766a2.789,2.789,0,0,0,1.018-3.8l-1.275-2.209A2.789,2.789,0,0,1,388.2,148.37Z" fill="#e6e6e6" style="mix-blend-mode: multiply;isolation: isolate"/>
        <path id="Trazado_102607" data-name="Trazado 102607" d="M353.031,198.274l-13.45,7.766a2.789,2.789,0,0,1-3.8-1.018l1.275,2.209a2.79,2.79,0,0,0,3.8,1.018l13.451-7.766a2.791,2.791,0,0,0,1.018-3.8l-1.276-2.209A2.789,2.789,0,0,1,353.031,198.274Z" fill="#e6e6e6" style="mix-blend-mode: multiply;isolation: isolate"/>
        <path id="Trazado_102608" data-name="Trazado 102608" d="M377.024,184.422l-13.45,7.766a2.79,2.79,0,0,1-3.8-1.018l1.276,2.209a2.79,2.79,0,0,0,3.8,1.018l13.45-7.766a2.789,2.789,0,0,0,1.018-3.8l-1.275-2.209A2.79,2.79,0,0,1,377.024,184.422Z" fill="#e6e6e6" style="mix-blend-mode: multiply;isolation: isolate"/>
        <path id="Trazado_102609" data-name="Trazado 102609" d="M401.016,170.57l-13.45,7.766a2.789,2.789,0,0,1-3.8-1.018l1.275,2.209a2.79,2.79,0,0,0,3.8,1.018l13.45-7.766a2.789,2.789,0,0,0,1.018-3.8l-1.275-2.209A2.788,2.788,0,0,1,401.016,170.57Z" fill="#e6e6e6" style="mix-blend-mode: multiply;isolation: isolate"/>
        <path id="Trazado_102610" data-name="Trazado 102610" d="M365.848,220.474,352.4,228.24a2.79,2.79,0,0,1-3.8-1.018l1.276,2.209a2.79,2.79,0,0,0,3.8,1.018l13.45-7.766a2.79,2.79,0,0,0,1.018-3.8l-1.276-2.209A2.788,2.788,0,0,1,365.848,220.474Z" fill="#e6e6e6" style="mix-blend-mode: multiply;isolation: isolate"/>
        <path id="Trazado_102611" data-name="Trazado 102611" d="M389.841,206.622l-13.45,7.766a2.789,2.789,0,0,1-3.8-1.018l1.275,2.209a2.79,2.79,0,0,0,3.8,1.018l13.45-7.766a2.789,2.789,0,0,0,1.018-3.8l-1.275-2.209A2.789,2.789,0,0,1,389.841,206.622Z" fill="#e6e6e6" style="mix-blend-mode: multiply;isolation: isolate"/>
        <path id="Trazado_102612" data-name="Trazado 102612" d="M413.833,192.77l-13.45,7.766a2.79,2.79,0,0,1-3.8-1.018l1.275,2.209a2.791,2.791,0,0,0,3.8,1.018l13.451-7.766a2.789,2.789,0,0,0,1.017-3.8l-1.275-2.209A2.789,2.789,0,0,1,413.833,192.77Z" fill="#e6e6e6" style="mix-blend-mode: multiply;isolation: isolate"/>
        <path id="Trazado_102613" data-name="Trazado 102613" d="M332.962,101.635l-19.051,11a5.191,5.191,0,0,1-6.577-1.2,5.142,5.142,0,0,0,7.427,2.668l19.051-11A5.189,5.189,0,0,0,335.7,96.04a5.131,5.131,0,0,0-.491-.7A5.188,5.188,0,0,1,332.962,101.635Z" fill="#f7931e" opacity="0.3" style="mix-blend-mode: multiply;isolation: isolate"/>
        <path id="Trazado_102614" data-name="Trazado 102614" d="M364.49,83.432l-19.05,11a5.19,5.19,0,0,1-6.577-1.195A5.142,5.142,0,0,0,346.29,95.9l19.051-11a5.189,5.189,0,0,0,1.893-7.068,5.137,5.137,0,0,0-.491-.7A5.189,5.189,0,0,1,364.49,83.432Z" fill="#c1272d" opacity="0.6" style="mix-blend-mode: multiply;isolation: isolate"/>
        <path id="Trazado_102615" data-name="Trazado 102615" d="M372.16,96.718l-34.123,19.7a5.188,5.188,0,0,1-6.576-1.2,5.251,5.251,0,0,0,.359.775,5.189,5.189,0,0,0,7.068,1.893l34.122-19.7a5.19,5.19,0,0,0,1.894-7.068,5.137,5.137,0,0,0-.492-.7A5.188,5.188,0,0,1,372.16,96.718Z" fill="#ccc" style="mix-blend-mode: multiply;isolation: isolate"/>
      </g>
      <path id="Trazado_102616" data-name="Trazado 102616" d="M464.969,281.476s-9.787-12.883-52.735,11.913S375.55,333.1,375.55,333.1L451.908,465.36l89.419-51.627Z" fill="#0071bc"/>
      <path id="Trazado_102617" data-name="Trazado 102617" d="M472.607,441.649a80.165,80.165,0,0,1-28.679,9.889l7.98,13.822,89.419-51.627-28.106-48.681C515.045,395.261,500.3,425.659,472.607,441.649Z" fill="#0071bc" opacity="0.3" style="mix-blend-mode: multiply;isolation: isolate"/>
      <path id="Trazado_102618" data-name="Trazado 102618" d="M279.923,151.934s2.76,43.3,4.438,55.3,12.264,21.678,15.948,37.1,15.255,32.379,23.318,35.338,39.048,2.554,62.179,54.2c0,0,53.014-11.216,70.718-46.051l-5.37-9.3s-34.614-62.347-70.837-50.936c0,0-1.824-24.86-16.946-45.64s-29.208-29.155-40.248-20.514-10.123,17.5,2.942,39.088-1.286,19.8-1.286,19.8Z" fill="#f7c78f"/>
      <path id="Trazado_102619" data-name="Trazado 102619" d="M420.514,311.5a61.23,61.23,0,0,1-36.877,17.729q1.1,2.25,2.169,4.644s53.014-11.216,70.718-46.051l-5.37-9.3a171.58,171.58,0,0,0-13.976-20.551A61.923,61.923,0,0,1,420.514,311.5Z" fill="#f7c78f" opacity="0.4" style="mix-blend-mode: multiply;isolation: isolate"/>
      <path id="Trazado_102620" data-name="Trazado 102620" d="M345.1,183.145c.057-4.923-3.412-8.157-6.258-11.769-.551-.7-2.521-4.724-3.93-3.721-1.157.822-2.061,1.867-3.146,2.764a29.391,29.391,0,0,1-16.137,6.326c.629,5.59,3.782,12.583,9.484,22.175C334.173,198.734,344.99,192.364,345.1,183.145Z" fill="#fbddae"/>
      <path id="Trazado_102621" data-name="Trazado 102621" d="M321.035,180.578a36.915,36.915,0,0,0,7.446-3.158c3.066-1.644,7.407-3.736,9.908-6.736-.825-1.344-2.338-3.843-3.482-3.029s-2.061,1.867-3.146,2.764a29.391,29.391,0,0,1-16.137,6.326,25.454,25.454,0,0,0,.8,3.9A9.484,9.484,0,0,0,321.035,180.578Z" fill="#fbebd2"/>
    </g>
  </g>
</svg>
