<svg xmlns="http://www.w3.org/2000/svg" width="92" height="83" viewBox="0 0 92 83">
  <g id="Grupo_56327" data-name="Grupo 56327" transform="translate(-335 -20278.996)">
    <g id="Grupo_56320" data-name="Grupo 56320" transform="translate(0 10054)">
      <g id="Right" transform="translate(335 10224.995)">
        <rect id="BG" width="92" height="83" rx="7" fill="#fff" opacity="0.949"/>
      </g>
    </g>
    <g id="datafono" transform="translate(295.002 20289.174)">
      <g id="Grupo_56325" data-name="Grupo 56325" transform="translate(63.217 0.918)">
        <g id="XMLID_284_" transform="translate(38.082 14.247)">
          <g id="Grupo_56321" data-name="Grupo 56321">
            <path id="Trazado_102623" data-name="Trazado 102623" d="M386.9,123.937h-2.864l-2.992,4.3v32.178l2.992,4.29H386.9a1.622,1.622,0,0,0,1.622-1.622V125.559A1.623,1.623,0,0,0,386.9,123.937Z" transform="translate(-381.042 -123.937)" fill="#fbe88c"/>
          </g>
        </g>
        <path id="Trazado_102624" data-name="Trazado 102624" d="M315.629,123.936h11v40.771h-11Z" transform="translate(-285.551 -109.69)" fill="#fcf0b6"/>
        <g id="Grupo_56324" data-name="Grupo 56324" transform="translate(0)">
          <g id="XMLID_283_" transform="translate(0 7.091)">
            <g id="Grupo_56322" data-name="Grupo 56322">
              <path id="Trazado_102625" data-name="Trazado 102625" d="M107.15,70.75V92.806a2.316,2.316,0,0,1-.262,1.068L104.839,97.8v18.535A2.834,2.834,0,0,1,102,119.171H74.944a2.834,2.834,0,0,1-2.834-2.835V97.8l-2.049-3.926a2.316,2.316,0,0,1-.262-1.068V70.75a5.294,5.294,0,0,1,5.294-5.294h26.762a5.294,5.294,0,0,1,5.294,5.294Z" transform="translate(-69.799 -65.456)" fill="#b3adb5"/>
            </g>
          </g>
          <path id="Trazado_102626" data-name="Trazado 102626" d="M80.139,115.73a2.8,2.8,0,0,1-2.834-2.755V96.38a5.636,5.636,0,0,0-.671-2.667l-1.379-2.566a2.2,2.2,0,0,1-.262-1.038V68.676a5.033,5.033,0,0,1,1.165-3.219H75.092A5.294,5.294,0,0,0,69.8,70.751V92.807a2.316,2.316,0,0,0,.262,1.068L72.109,97.8v18.535a2.834,2.834,0,0,0,2.834,2.835H102a2.834,2.834,0,0,0,2.834-2.835v-.607Z" transform="translate(-69.798 -58.366)" fill="#a59ca6"/>
          <path id="Trazado_102627" data-name="Trazado 102627" d="M129.33,113.725a1.3,1.3,0,0,1,1.3,1.3v2.038a1.3,1.3,0,0,1-1.3,1.3H102.192a1.3,1.3,0,0,1-1.3-1.3v-2.038a1.3,1.3,0,0,1,1.3-1.3Z" transform="translate(-97.086 -100.728)" fill="#a59ca6"/>
          <path id="Trazado_102628" data-name="Trazado 102628" d="M102.283,113.725h-.089a1.3,1.3,0,0,0-1.3,1.3v2.038a1.3,1.3,0,0,0,1.3,1.3h.089Z" transform="translate(-97.087 -100.728)" fill="#8f8390"/>
          <path id="Trazado_102629" data-name="Trazado 102629" d="M145.732,190.065H123.819a1.264,1.264,0,0,1-1.264-1.264v-9.777a1.264,1.264,0,0,1,1.264-1.264h21.914A1.264,1.264,0,0,1,147,179.025V188.8A1.264,1.264,0,0,1,145.732,190.065Z" transform="translate(-116.1 -156.929)" fill="#86d7e5"/>
          <g id="Grupo_56323" data-name="Grupo 56323" transform="translate(6.455 38.126)">
            <path id="Trazado_102630" data-name="Trazado 102630" d="M127.589,322.724H125.3a.665.665,0,0,1-.665-.665v-2.291a.665.665,0,0,1,.665-.665h2.291a.665.665,0,0,1,.665.665v2.291A.665.665,0,0,1,127.589,322.724Z" transform="translate(-124.379 -319.102)" fill="#efedee"/>
            <path id="Trazado_102631" data-name="Trazado 102631" d="M182.923,322.724h-2.291a.665.665,0,0,1-.665-.665v-2.291a.665.665,0,0,1,.665-.665h2.291a.665.665,0,0,1,.665.665v2.291A.665.665,0,0,1,182.923,322.724Z" transform="translate(-172.942 -319.102)" fill="#efedee"/>
            <path id="Trazado_102632" data-name="Trazado 102632" d="M238.257,322.724h-2.291a.665.665,0,0,1-.665-.665v-2.291a.665.665,0,0,1,.665-.665h2.291a.665.665,0,0,1,.665.665v2.291A.666.666,0,0,1,238.257,322.724Z" transform="translate(-221.506 -319.102)" fill="#efedee"/>
            <path id="Trazado_102633" data-name="Trazado 102633" d="M293.591,322.724H291.3a.665.665,0,0,1-.665-.665v-2.291a.665.665,0,0,1,.665-.665h2.291a.665.665,0,0,1,.665.665v2.291A.666.666,0,0,1,293.591,322.724Z" transform="translate(-270.07 -319.102)" fill="#efedee"/>
            <path id="Trazado_102634" data-name="Trazado 102634" d="M127.589,378.944H125.3a.665.665,0,0,1-.665-.665v-2.291a.665.665,0,0,1,.665-.665h2.291a.665.665,0,0,1,.665.665v2.291A.665.665,0,0,1,127.589,378.944Z" transform="translate(-124.379 -368.443)" fill="#efedee"/>
            <path id="Trazado_102635" data-name="Trazado 102635" d="M182.923,378.944h-2.291a.665.665,0,0,1-.665-.665v-2.291a.665.665,0,0,1,.665-.665h2.291a.665.665,0,0,1,.665.665v2.291A.665.665,0,0,1,182.923,378.944Z" transform="translate(-172.942 -368.443)" fill="#efedee"/>
            <path id="Trazado_102636" data-name="Trazado 102636" d="M238.257,378.944h-2.291a.665.665,0,0,1-.665-.665v-2.291a.665.665,0,0,1,.665-.665h2.291a.665.665,0,0,1,.665.665v2.291A.666.666,0,0,1,238.257,378.944Z" transform="translate(-221.506 -368.443)" fill="#efedee"/>
            <path id="Trazado_102637" data-name="Trazado 102637" d="M293.591,378.944H291.3a.665.665,0,0,1-.665-.665v-2.291a.665.665,0,0,1,.665-.665h2.291a.665.665,0,0,1,.665.665v2.291A.666.666,0,0,1,293.591,378.944Z" transform="translate(-270.07 -368.443)" fill="#efedee"/>
            <path id="Trazado_102638" data-name="Trazado 102638" d="M146.265,445.452H123.286a.731.731,0,0,1-.731-.731v-2.33a.731.731,0,0,1,.731-.731h22.979a.731.731,0,0,1,.731.731v2.33A.731.731,0,0,1,146.265,445.452Z" transform="translate(-122.555 -426.665)" fill="#efedee"/>
          </g>
          <path id="Trazado_102639" data-name="Trazado 102639" d="M123.286,441.661a.731.731,0,0,0-.731.731v2.33a.731.731,0,0,0,.731.731h1.6a2.733,2.733,0,0,1-1.281-2.3v-1.488Z" transform="translate(-116.1 -388.54)" fill="#e4e1e5"/>
          <path id="Trazado_102640" data-name="Trazado 102640" d="M154.82,25.14H132.914V8.63a1.13,1.13,0,0,1,1.13-1.13H153.69a1.13,1.13,0,0,1,1.13,1.13Z" transform="translate(-125.192 -7.5)" fill="#f8f7f8"/>
          <path id="Trazado_102641" data-name="Trazado 102641" d="M135.721,20.806V7.5h-1.677a1.13,1.13,0,0,0-1.13,1.13V25.14H154.82V22.72H137.635A1.913,1.913,0,0,1,135.721,20.806Z" transform="translate(-125.191 -7.5)" fill="#efedee"/>
        </g>
      </g>
      <g id="Grupo_56326" data-name="Grupo 56326" transform="translate(62.3 0)">
        <path id="Trazado_102642" data-name="Trazado 102642" d="M141.331,172.443a2.184,2.184,0,0,0-2.181-2.181H117.236a2.184,2.184,0,0,0-2.181,2.181v9.777a2.184,2.184,0,0,0,2.181,2.181H139.15a2.184,2.184,0,0,0,2.181-2.181ZM139.5,182.22a.346.346,0,0,1-.346.346H117.236a.346.346,0,0,1-.346-.346v-9.777a.346.346,0,0,1,.346-.346H139.15a.346.346,0,0,1,.346.346Z" transform="translate(-108.6 -149.43)"/>
        <path id="Trazado_102643" data-name="Trazado 102643" d="M122.59,313.186a1.585,1.585,0,0,0-1.583-1.583h-2.291a1.585,1.585,0,0,0-1.583,1.583v2.291a1.585,1.585,0,0,0,1.583,1.583h2.291a1.585,1.585,0,0,0,1.583-1.583Zm-1.835,2.039h-1.786v-1.786h1.786Z" transform="translate(-110.424 -273.477)"/>
        <path id="Trazado_102644" data-name="Trazado 102644" d="M177.924,313.186a1.585,1.585,0,0,0-1.583-1.583H174.05a1.585,1.585,0,0,0-1.583,1.583v2.291a1.585,1.585,0,0,0,1.583,1.583h2.291a1.585,1.585,0,0,0,1.583-1.583Zm-1.835,2.039H174.3v-1.786h1.786Z" transform="translate(-158.988 -273.477)"/>
        <path id="Trazado_102645" data-name="Trazado 102645" d="M233.259,313.186a1.585,1.585,0,0,0-1.583-1.583h-2.291a1.585,1.585,0,0,0-1.583,1.583v2.291a1.585,1.585,0,0,0,1.583,1.583h2.291a1.585,1.585,0,0,0,1.583-1.583v-2.291Zm-1.835,2.039h-1.786v-1.786h1.786Z" transform="translate(-207.552 -273.477)"/>
        <path id="Trazado_102646" data-name="Trazado 102646" d="M288.591,313.186a1.585,1.585,0,0,0-1.583-1.583h-2.291a1.585,1.585,0,0,0-1.583,1.583v2.291a1.585,1.585,0,0,0,1.583,1.583h2.291a1.585,1.585,0,0,0,1.583-1.583Zm-1.835,2.039h-1.786v-1.786h1.786Z" transform="translate(-256.114 -273.477)"/>
        <path id="Trazado_102647" data-name="Trazado 102647" d="M121.007,367.822h-2.291a1.585,1.585,0,0,0-1.583,1.583V371.7a1.585,1.585,0,0,0,1.583,1.583h2.291a1.585,1.585,0,0,0,1.583-1.583v-2.291A1.585,1.585,0,0,0,121.007,367.822Zm-.252,3.622h-1.786v-1.786h1.786Z" transform="translate(-110.424 -322.818)"/>
        <path id="Trazado_102648" data-name="Trazado 102648" d="M176.341,367.822H174.05a1.585,1.585,0,0,0-1.583,1.583V371.7a1.585,1.585,0,0,0,1.583,1.583h2.291a1.585,1.585,0,0,0,1.583-1.583v-2.291A1.585,1.585,0,0,0,176.341,367.822Zm-.252,3.622H174.3v-1.786h1.786Z" transform="translate(-158.988 -322.818)"/>
        <path id="Trazado_102649" data-name="Trazado 102649" d="M231.676,367.822h-2.291a1.585,1.585,0,0,0-1.583,1.583V371.7a1.585,1.585,0,0,0,1.583,1.583h2.291a1.585,1.585,0,0,0,1.583-1.583v-2.291a1.585,1.585,0,0,0-1.583-1.583Zm-.252,3.622h-1.786v-1.786h1.786Z" transform="translate(-207.552 -322.818)"/>
        <path id="Trazado_102650" data-name="Trazado 102650" d="M287.008,367.822h-2.291a1.585,1.585,0,0,0-1.583,1.583V371.7a1.585,1.585,0,0,0,1.583,1.583h2.291a1.585,1.585,0,0,0,1.583-1.583v-2.291A1.585,1.585,0,0,0,287.008,367.822Zm-.252,3.622h-1.786v-1.786h1.786Z" transform="translate(-256.114 -322.818)"/>
        <path id="Trazado_102651" data-name="Trazado 102651" d="M115.055,438.14a1.65,1.65,0,0,0,1.649,1.649h22.979a1.65,1.65,0,0,0,1.649-1.649v-2.33a1.65,1.65,0,0,0-1.649-1.649H116.7a1.65,1.65,0,0,0-1.649,1.649v2.33ZM116.89,436H139.5v1.957H116.89Z" transform="translate(-108.6 -381.04)"/>
        <path id="Trazado_102652" data-name="Trazado 102652" d="M108.778,21.567a.918.918,0,0,0,.918-.918V16.786a2.543,2.543,0,0,0-2.54-2.54h-5.67V13.3a6.219,6.219,0,0,0-6.212-6.212h-1.51V2.048A2.05,2.05,0,0,0,91.716,0H79.935a.918.918,0,0,0,0,1.835H91.716a.212.212,0,0,1,.212.212V17.64H71.857V2.048a.212.212,0,0,1,.212-.212h3.955a.918.918,0,1,0,0-1.835H72.07a2.05,2.05,0,0,0-2.048,2.048V7.091h-1.51A6.219,6.219,0,0,0,62.3,13.3v6.492a.918.918,0,1,0,1.835,0V13.3a4.381,4.381,0,0,1,4.376-4.376h1.51V13h-1.7a2.223,2.223,0,0,0-2.22,2.22v2.038a2.223,2.223,0,0,0,2.22,2.22H95.462a2.223,2.223,0,0,0,2.22-2.22V15.217A2.223,2.223,0,0,0,95.462,13h-1.7V8.926h1.51A4.381,4.381,0,0,1,99.65,13.3V35.359a1.4,1.4,0,0,1-.158.644l-2.048,3.926a.917.917,0,0,0-.1.424V58.889a1.919,1.919,0,0,1-1.917,1.917H68.363a1.919,1.919,0,0,1-1.917-1.917V40.353a.917.917,0,0,0-.1-.424L64.293,36a1.4,1.4,0,0,1-.158-.644V23.705a.918.918,0,1,0-1.835,0V35.359a3.241,3.241,0,0,0,.366,1.493l1.944,3.727V58.889a3.757,3.757,0,0,0,3.752,3.752h27.06a3.757,3.757,0,0,0,3.752-3.752V56.852h7.981a2.543,2.543,0,0,0,2.54-2.54V24.56a.918.918,0,0,0-1.835,0V54.313a.705.705,0,0,1-.7.7h-1.947V16.082h1.947a.705.705,0,0,1,.7.7v3.863a.918.918,0,0,0,.918.918ZM67.939,17.255V15.217a.385.385,0,0,1,.385-.385h1.7V17.64h-1.7A.385.385,0,0,1,67.939,17.255Zm27.523-2.423a.385.385,0,0,1,.385.385v2.038a.385.385,0,0,1-.385.385h-1.7V14.833h1.7Zm7.912,40.185h-4.2V40.578l1.944-3.727a3.24,3.24,0,0,0,.366-1.493V16.082h1.888V55.017Z" transform="translate(-62.3 0)"/>
        <path id="Trazado_102653" data-name="Trazado 102653" d="M172.549,33.746H158.52a.918.918,0,1,0,0,1.835h14.03a.918.918,0,0,0,0-1.835Z" transform="translate(-145.941 -29.617)"/>
        <path id="Trazado_102654" data-name="Trazado 102654" d="M172.549,67.766H158.52a.918.918,0,1,0,0,1.835h14.03a.918.918,0,0,0,0-1.835Z" transform="translate(-145.941 -59.475)"/>
        <path id="Trazado_102655" data-name="Trazado 102655" d="M172.549,101.786H158.52a.918.918,0,1,0,0,1.835h14.03a.918.918,0,0,0,0-1.835Z" transform="translate(-145.941 -89.332)"/>
      </g>
    </g>
  </g>
</svg>
