<svg xmlns="http://www.w3.org/2000/svg" width="372.115" height="360.795" viewBox="0 0 372.115 360.795">
  <g id="Grupo_56350" data-name="Grupo 56350" transform="translate(-1284.704 -229.051)">
    <path id="Trazado_102657" data-name="Trazado 102657" d="M1292.06,824.593h96.987l8.045-21.661a30.638,30.638,0,0,1,16.139-17.216,77.134,77.134,0,0,0,25.642-19.234,178.148,178.148,0,0,0,27.3-41.49l-60.106-.294s5.41-33.622-24.464-78.276a25.276,25.276,0,0,1-4.154-16.244l2.832-32.567s20.3-22.686,7.845-50.831c0,0-11.91-16.49-16.635-10.453,0,0-35.976,85.67-39.252,98.408s-7.643,20.745-3.275,60.779a242.713,242.713,0,0,1,1.557,26.7,94.769,94.769,0,0,1-9.11,40.334Z" transform="translate(-5.644 -234.747)" fill="#f6c19d"/>
    <path id="Trazado_102658" data-name="Trazado 102658" d="M1382.519,1374.418c-9-9.995-21.508-8.417-34.659-12.976s-17.37-37.428-17.37-37.428v0c.021,1.24.031,2.445.029,3.605a94.769,94.769,0,0,1-9.11,40.334l-29.348,62.042h96.987l8.045-21.661a30.638,30.638,0,0,1,16.139-17.215,75.49,75.49,0,0,0,21.537-14.934C1408.056,1387.408,1391.521,1384.412,1382.519,1374.418Z" transform="translate(-5.644 -840.145)" fill="#f6c19d" opacity="0.2" style="mix-blend-mode: multiply;isolation: isolate"/>
    <g id="Grupo_56333" data-name="Grupo 56333" transform="translate(1519.544 254.043)">
      <g id="Grupo_56330" data-name="Grupo 56330" transform="translate(44.932 0)">
        <path id="Trazado_102659" data-name="Trazado 102659" d="M2487.261,338.394a16.722,16.722,0,0,1,3.688-.969l-.1-.981a17.48,17.48,0,0,0-3.931,1.026Z" transform="translate(-2486.914 -336.445)" fill="#141414"/>
      </g>
      <g id="Grupo_56331" data-name="Grupo 56331" transform="translate(10.468 5.02)">
        <path id="Trazado_102660" data-name="Trazado 102660" d="M2338.817,442.946a62.177,62.177,0,0,0,6.4-3.712l.547.821a63.19,63.19,0,0,1-6.5,3.77Zm12.217-8.24a40.1,40.1,0,0,0,4.964-5.428l.787.594a41.068,41.068,0,0,1-5.086,5.562ZM2359.811,423c.483-1.015.928-2.073,1.323-3.145.446-1.213.841-2.481,1.174-3.77l.955.247c-.341,1.32-.746,2.619-1.2,3.864-.4,1.1-.862,2.186-1.358,3.229Zm3.984-21.574.986-.022a63.921,63.921,0,0,1-.243,7.509l-.982-.093A62.809,62.809,0,0,0,2363.794,401.425Zm-1.4-14.787.976-.14c.413,2.887.708,5.245.928,7.423l-.982.1C2363.1,391.857,2362.8,389.511,2362.391,386.638Zm-1.1-7.428a36.308,36.308,0,0,1-.373-7.488l.984.061a35.333,35.333,0,0,0,.364,7.281l.009.057-.977.135Zm1.24-14.9a17.913,17.913,0,0,1,4.282-6.292l.678.717a16.939,16.939,0,0,0-4.047,5.948Z" transform="translate(-2338.817 -358.018)" fill="#141414"/>
      </g>
      <g id="Grupo_56332" data-name="Grupo 56332" transform="translate(0 92.978)">
        <path id="Trazado_102661" data-name="Trazado 102661" d="M2294.16,738.273c1.269-.441,2.521-.9,3.719-1.376l-.362-.918c-1.186.467-2.424.925-3.681,1.362Z" transform="translate(-2293.836 -735.979)" fill="#141414"/>
      </g>
    </g>
    <g id="Grupo_56334" data-name="Grupo 56334" transform="translate(1513.297 236.678)">
      <path id="Trazado_102662" data-name="Trazado 102662" d="M2268.445,269.606s20.543-13.749,25.234-4.691-26.69,41.112-26.69,41.112Z" transform="translate(-2266.989 -261.827)" fill="#f19a5e"/>
      <path id="Trazado_102663" data-name="Trazado 102663" d="M2268.445,527.031s20.543-13.749,25.234-4.691-26.69,41.112-26.69,41.112Z" transform="translate(-2266.989 -459.345)" fill="#f19a5e"/>
      <path id="Trazado_102664" data-name="Trazado 102664" d="M2268.445,702.419s20.543-13.749,25.234-4.691-26.69,41.112-26.69,41.112Z" transform="translate(-2266.989 -593.917)" fill="#f19a5e"/>
    </g>
    <path id="Trazado_102665" data-name="Trazado 102665" d="M1790.3,229.051H1677.522a15.207,15.207,0,0,0-15.207,15.207V474.743a15.21,15.21,0,0,0,15.207,15.207H1790.3a15.207,15.207,0,0,0,15.207-15.207V244.258A15.21,15.21,0,0,0,1790.3,229.051Z" transform="translate(-289.735)" fill="#141414"/>
    <path id="Trazado_102666" data-name="Trazado 102666" d="M1645.287,959.325s-20.4,49.934-18.419,59.376,14.357,22.067,44.728,17.859a466.477,466.477,0,0,0,51.363-9.836s1.269-67.39,0-70.807-55.876-27.674-58.024-27.674S1645.287,959.325,1645.287,959.325Z" transform="translate(-262.434 -536.479)" fill="#f6c19d" opacity="0.2" style="mix-blend-mode: multiply;isolation: isolate"/>
    <rect id="Rectángulo_5802" data-name="Rectángulo 5802" width="128.448" height="219.447" transform="translate(1379.952 249.777)" fill="#fff"/>
    <g id="Grupo_56336" data-name="Grupo 56336" transform="translate(1404.606 299.835)">
      <path id="Rectángulo_5803" data-name="Rectángulo 5803" d="M34.275,0H44.863A34.276,34.276,0,0,1,79.139,34.276V65.361A34.275,34.275,0,0,1,44.864,99.636H34.275A34.275,34.275,0,0,1,0,65.361V34.275A34.275,34.275,0,0,1,34.275,0Z" transform="translate(0 0)" fill="#dae7f7"/>
      <g id="Grupo_56335" data-name="Grupo 56335" transform="translate(9.234 26.948)">
        <path id="Trazado_102667" data-name="Trazado 102667" d="M1851.741,706.607l6.272,30.092a2.778,2.778,0,0,0,2.7,2.245H1897.8a2.778,2.778,0,0,0,2.7-2.245l6.272-30.092Zm11.061,29.421a1.519,1.519,0,0,1-1.519-1.519l-2.106-21.329a1.519,1.519,0,1,1,3.038,0l2.106,21.329A1.519,1.519,0,0,1,1862.8,736.028Zm7.639,0h0a1.519,1.519,0,0,1-1.519-1.519l-.843-21.329a1.519,1.519,0,1,1,3.038,0l.843,21.329A1.519,1.519,0,0,1,1870.441,736.028Zm10.332-1.519a1.519,1.519,0,0,1-3.038,0V713.181a1.519,1.519,0,1,1,3.038,0Zm8.813,0a1.519,1.519,0,0,1-3.038,0l.843-21.329a1.519,1.519,0,1,1,3.038,0Zm7.639,0a1.519,1.519,0,0,1-3.038,0l2.106-21.329a1.519,1.519,0,1,1,3.038,0Z" transform="translate(-1848.919 -693.205)" fill="#92cc5c"/>
        <path id="Trazado_102668" data-name="Trazado 102668" d="M1897.855,701.023h-55.81a2.431,2.431,0,0,1-2.43-2.431h0a2.431,2.431,0,0,1,2.43-2.431h55.81a2.431,2.431,0,0,1,2.431,2.431h0A2.431,2.431,0,0,1,1897.855,701.023Z" transform="translate(-1839.615 -685.191)" fill="#5cb30b"/>
        <path id="Trazado_102669" data-name="Trazado 102669" d="M1891.447,660.172v-2.1a6.333,6.333,0,0,1,6.333-6.333h19.7a6.333,6.333,0,0,1,6.333,6.333v2.1a1.361,1.361,0,0,0,1.361,1.361h0a1.361,1.361,0,0,0,1.361-1.361v-2.1a9.055,9.055,0,0,0-9.055-9.055h-19.7a9.054,9.054,0,0,0-9.054,9.055v2.1a1.361,1.361,0,0,0,1.361,1.361h0A1.361,1.361,0,0,0,1891.447,660.172Z" transform="translate(-1877.296 -649.017)" fill="#92cc5c"/>
      </g>
    </g>
    <rect id="Rectángulo_5804" data-name="Rectángulo 5804" width="54.964" height="2.75" rx="1.375" transform="translate(1416.798 240.131)" fill="#fff"/>
    <path id="Trazado_102670" data-name="Trazado 102670" d="M1543.229,617.263a9.587,9.587,0,0,0,2.527,4.3l2.083-23.952s14.933-16.688,11.326-39.2a33.63,33.63,0,0,0-10.929-19.949c-3.346-2.941-7.021-4.906-9.186-2.139,0,0-16.918,40.287-28.607,69.715Z" transform="translate(-173.206 -234.747)" fill="#f6c19d"/>
    <g id="Grupo_56338" data-name="Grupo 56338" transform="translate(1437.793 473.489)">
      <path id="Trazado_102671" data-name="Trazado 102671" d="M1955.161,1285.732a6.308,6.308,0,1,1-6.308-6.308A6.308,6.308,0,0,1,1955.161,1285.732Z" transform="translate(-1942.544 -1279.424)" fill="#dae7f7" opacity="0.3"/>
      <g id="Grupo_56337" data-name="Grupo 56337" transform="translate(3.68 3.68)">
        <path id="Trazado_102672" data-name="Trazado 102672" d="M1962.868,1300.494h-3.762a.747.747,0,0,1-.747-.747v-3.762a.747.747,0,0,1,.747-.747h3.762a.748.748,0,0,1,.747.747v3.762A.748.748,0,0,1,1962.868,1300.494Zm-3.762-5.053a.545.545,0,0,0-.544.544v3.762a.545.545,0,0,0,.544.544h3.762a.545.545,0,0,0,.544-.544v-3.762a.545.545,0,0,0-.544-.544Z" transform="translate(-1958.359 -1295.238)" fill="#dae7f7"/>
      </g>
    </g>
    <rect id="Rectángulo_5805" data-name="Rectángulo 5805" width="128.448" height="12.98" transform="translate(1379.952 456.244)" fill="#d0e1f5"/>
    <rect id="Rectángulo_5806" data-name="Rectángulo 5806" width="128.448" height="11.646" transform="translate(1379.952 249.777)" fill="#d0e1f5"/>
    <path id="Trazado_102673" data-name="Trazado 102673" d="M1607.108,559.987c4.674-2.15,7.115-14.313,7.989-19.78-3.751-3.774-8.457-7.17-11.031-3.882,0,0-3.725,8.871-8.887,21.328C1598.708,559.617,1603.613,561.594,1607.108,559.987Z" transform="translate(-238.223 -234.747)" fill="#f19a5e"/>
    <path id="Trazado_102674" data-name="Trazado 102674" d="M1377.127,1531.717c10.262,6.3,43.3,25.158,77.463,29.177,2,.235,3.409,2.069,2.817,3.655l-5.968,15.985a2.654,2.654,0,0,1-2.919,1.513c-10.068-1.223-51.609-7.475-80.836-30.086a2.618,2.618,0,0,1-1.043-2.933l6.091-16.313C1373.306,1531.178,1375.457,1530.691,1377.127,1531.717Z" transform="translate(-62.767 -999.101)" fill="#141414"/>
    <path id="Trazado_102675" data-name="Trazado 102675" d="M1396.4,1575.426l-.113-.042a1.158,1.158,0,0,1-.68-1.49l1.837-4.921a1.158,1.158,0,0,1,1.49-.68l.113.042a1.158,1.158,0,0,1,.68,1.49l-1.837,4.921A1.158,1.158,0,0,1,1396.4,1575.426Z" transform="translate(-85.039 -1027.524)"/>
    <path id="Trazado_102676" data-name="Trazado 102676" d="M1422.806,1591.7l-.113-.042a1.158,1.158,0,0,1-.68-1.49l1.837-4.921a1.158,1.158,0,0,1,1.49-.68l.113.042a1.158,1.158,0,0,1,.68,1.49l-1.837,4.921A1.158,1.158,0,0,1,1422.806,1591.7Z" transform="translate(-105.299 -1040.01)"/>
    <path id="Trazado_102677" data-name="Trazado 102677" d="M1449.254,1607.863l-.113-.042a1.158,1.158,0,0,1-.68-1.49l1.837-4.921a1.158,1.158,0,0,1,1.49-.68l.113.042a1.158,1.158,0,0,1,.68,1.49l-1.837,4.921A1.159,1.159,0,0,1,1449.254,1607.863Z" transform="translate(-125.592 -1052.412)"/>
    <path id="Trazado_102678" data-name="Trazado 102678" d="M1476.472,1621.008l-.113-.042a1.158,1.158,0,0,1-.68-1.49l1.837-4.921a1.158,1.158,0,0,1,1.49-.68l.113.042a1.158,1.158,0,0,1,.68,1.49l-1.837,4.921A1.158,1.158,0,0,1,1476.472,1621.008Z" transform="translate(-146.476 -1062.498)"/>
    <path id="Trazado_102679" data-name="Trazado 102679" d="M1503.249,1636.288l-.113-.042a1.158,1.158,0,0,1-.68-1.49l1.837-4.921a1.158,1.158,0,0,1,1.49-.68l.113.042a1.158,1.158,0,0,1,.68,1.49l-1.837,4.922A1.158,1.158,0,0,1,1503.249,1636.288Z" transform="translate(-167.021 -1074.222)"/>
    <path id="Trazado_102680" data-name="Trazado 102680" d="M1531.207,1648.4l-.113-.042a1.158,1.158,0,0,1-.68-1.49l1.837-4.921a1.158,1.158,0,0,1,1.49-.68l.113.042a1.158,1.158,0,0,1,.68,1.49l-1.837,4.921A1.158,1.158,0,0,1,1531.207,1648.4Z" transform="translate(-188.474 -1083.519)"/>
    <path id="Trazado_102681" data-name="Trazado 102681" d="M1559.715,1659.048l-.113-.042a1.159,1.159,0,0,1-.68-1.49l1.838-4.921a1.158,1.158,0,0,1,1.49-.68l.113.042a1.158,1.158,0,0,1,.68,1.49l-1.837,4.921A1.158,1.158,0,0,1,1559.715,1659.048Z" transform="translate(-210.347 -1091.685)"/>
    <path id="Trazado_102682" data-name="Trazado 102682" d="M1588.773,1668.219l-.113-.042a1.158,1.158,0,0,1-.68-1.49l1.837-4.921a1.158,1.158,0,0,1,1.49-.68l.113.042a1.158,1.158,0,0,1,.68,1.49l-1.837,4.921A1.158,1.158,0,0,1,1588.773,1668.219Z" transform="translate(-232.643 -1098.722)"/>
    <path id="Trazado_102683" data-name="Trazado 102683" d="M1619.013,1674.225l-.113-.042a1.158,1.158,0,0,1-.68-1.49l1.837-4.921a1.158,1.158,0,0,1,1.49-.68l.113.042a1.158,1.158,0,0,1,.68,1.49l-1.837,4.921A1.158,1.158,0,0,1,1619.013,1674.225Z" transform="translate(-255.845 -1103.33)"/>
    <path id="Trazado_102684" data-name="Trazado 102684" d="M1648.455,1682.366l-.113-.042a1.158,1.158,0,0,1-.68-1.49l1.837-4.922a1.158,1.158,0,0,1,1.49-.68l.113.042a1.158,1.158,0,0,1,.68,1.49l-1.837,4.922A1.158,1.158,0,0,1,1648.455,1682.366Z" transform="translate(-278.436 -1109.577)"/>
    <path id="Trazado_102685" data-name="Trazado 102685" d="M1679.024,1687.489l-.113-.042a1.158,1.158,0,0,1-.68-1.49l1.837-4.921a1.158,1.158,0,0,1,1.49-.68l.113.042a1.158,1.158,0,0,1,.68,1.49l-1.837,4.921A1.158,1.158,0,0,1,1679.024,1687.489Z" transform="translate(-301.891 -1113.508)"/>
    <path id="Trazado_102686" data-name="Trazado 102686" d="M1709.634,1692.5l-.113-.042a1.158,1.158,0,0,1-.68-1.49l1.838-4.921a1.158,1.158,0,0,1,1.49-.68l.113.042a1.158,1.158,0,0,1,.68,1.49l-1.837,4.921A1.158,1.158,0,0,1,1709.634,1692.5Z" transform="translate(-325.377 -1117.354)"/>
    <path id="Trazado_102687" data-name="Trazado 102687" d="M1462.152,1600.453l.028-.075a1.445,1.445,0,0,1-.323-.078l-8.085-3.018a1.613,1.613,0,0,1-.864-2.1l7.29-19.526a1.613,1.613,0,0,1,2.031-1.023l8.085,3.018a1.509,1.509,0,0,1,.923,1.061q.952.416,1.921.83a3.5,3.5,0,0,0-2.131-3.8l-8.085-3.018a3.58,3.58,0,0,0-4.509,2.272l-7.29,19.526a3.58,3.58,0,0,0,1.917,4.672l8.085,3.018a3.4,3.4,0,0,0,3.49-.752Q1463.4,1600.966,1462.152,1600.453Z" transform="translate(-127.513 -1030.822)" fill="#ac8cce"/>
    <path id="Trazado_102688" data-name="Trazado 102688" d="M1474.484,1621.409l-3.517-1.313a1.32,1.32,0,0,0-.921,2.466l3.517,1.313Z" transform="translate(-141.619 -1067.273)" fill="#fff"/>
    <g id="Grupo_56339" data-name="Grupo 56339" transform="translate(1456.364 342.483)">
      <path id="Trazado_102689" data-name="Trazado 102689" d="M2093.015,939.173s-17.349,1.455-17.955,6.066.728,12.738,17.106,14.315h16.964s-5.075-14.073-4.833-14.558S2093.015,939.173,2093.015,939.173Z" transform="translate(-2062.706 -887.349)" fill="#f3a875"/>
      <path id="Trazado_102690" data-name="Trazado 102690" d="M2024.82,837.076a4.707,4.707,0,0,0-1.833,6.518c7.983,13.768,39.727,68.486,42.588,72.937,3.276,5.1,11.283,17.106,37.851,23.293s37.487,24.021,37.487,24.021H2222.8s-19.29-30.572-35.3-109.913c0,0-12.375-65.875-35.667-63.691,0,0-14.194-14.922-28.024-12.01,0,0-26.2-15.65-41.126-15.65l-35.843-42.359a10.372,10.372,0,0,0-14.162-1.677,6.789,6.789,0,0,0-2.769,4.366c-1.092,6.915,8.007,24.385,22.565,45.494s50.589,88.076,34.939,117.555a158.307,158.307,0,0,1-29.844-31.3C2045.986,838.506,2032.363,833.072,2024.82,837.076Z" transform="translate(-2022.346 -716.482)" fill="#f6c19d"/>
      <path id="Trazado_102691" data-name="Trazado 102691" d="M2281.933,914.64a149.26,149.26,0,0,1,13.423,13.127,154.918,154.918,0,0,1,17.079,22.444c5.315,8.76,8.823,16.44,10.481,26.086l-.107.022c-1.91-9.061-6.9-18.821-11.244-25.563a189.252,189.252,0,0,0-16.859-22.424c-3.812-4.4-8.646-9.59-12.849-13.612Z" transform="translate(-2221.466 -868.526)" fill="#f19a5e"/>
      <path id="Trazado_102692" data-name="Trazado 102692" d="M2457.147,981.332a40.447,40.447,0,0,1,10.371,7.864,50.19,50.19,0,0,1,7.858,10.483,51.208,51.208,0,0,1,4.919,12.141,49.49,49.49,0,0,1,1.646,12.908l-.108.009a63.562,63.562,0,0,0-2.361-12.673,57.47,57.47,0,0,0-5.047-11.848,56.149,56.149,0,0,0-7.542-10.437,48.443,48.443,0,0,0-9.79-8.351Z" transform="translate(-2355.921 -919.697)" fill="#f19a5e"/>
      <path id="Trazado_102693" data-name="Trazado 102693" d="M2577.3,1032.115a36.069,36.069,0,0,1,8.567,10.266,46.254,46.254,0,0,1,4.892,12.478,38.832,38.832,0,0,1,1.142,8.832l-.108.015a65.77,65.77,0,0,0-1.859-8.612,60.193,60.193,0,0,0-4.97-12.22,48.846,48.846,0,0,0-7.712-10.677Z" transform="translate(-2448.115 -958.662)" fill="#f19a5e"/>
      <path id="Trazado_102694" data-name="Trazado 102694" d="M2041.353,1251.336c.726-3.684-3.567-9.527-7.464-13.937a9.061,9.061,0,0,0-9.651-2.63,4.713,4.713,0,0,0-1.247,6.142c2.145,3.7,6.007,10.358,10.562,18.2C2036.963,1257.376,2040.681,1254.747,2041.353,1251.336Z" transform="translate(-2022.351 -1113.8)" fill="#f19a5e"/>
      <path id="Trazado_102695" data-name="Trazado 102695" d="M2082.538,738.33c2.071-.415,11.464-3.538,10.889-5.25h0l-9.265-10.95a10.551,10.551,0,0,0-7.062-3.69h0l-.044,0c-.075-.007-.245-.019-.482-.019a4.693,4.693,0,0,0-4.974,3.719c-.665,3.322,4.834,11.4,7.259,14.753A3.652,3.652,0,0,0,2082.538,738.33Z" transform="translate(-2060.094 -717.966)" fill="#f19a5e"/>
      <path id="Trazado_102696" data-name="Trazado 102696" d="M2285.007,1549.3H2366.9s-12.646-20.045-25.961-69.794c-5.843,36.631-38.079,34.519-50.871,36.551-14.729,2.34-71.907-9.581-79.919-13.337,3.563,5.437,12.01,16.652,37.375,22.56C2274.089,1531.471,2285.007,1549.3,2285.007,1549.3Z" transform="translate(-2166.441 -1301.943)" fill="#f6c19d" opacity="0.2" style="mix-blend-mode: multiply;isolation: isolate"/>
      <path id="Trazado_102697" data-name="Trazado 102697" d="M2170.405,968.132c16.056,25.8,44.862,85.059,30.61,110.914l9.459,9.337s23.9-26.477-14.132-84.868A389.23,389.23,0,0,0,2170.405,968.132Z" transform="translate(-2135.95 -909.569)" fill="#f6c19d" opacity="0.2" style="mix-blend-mode: multiply;isolation: isolate"/>
    </g>
    <g id="Grupo_56343" data-name="Grupo 56343" transform="translate(1284.704 383.896)">
      <g id="Grupo_56340" data-name="Grupo 56340" transform="translate(8.544)">
        <path id="Trazado_102698" data-name="Trazado 102698" d="M1324.544,897.5a16.711,16.711,0,0,0-3.126-2.182l.436-.885a17.483,17.483,0,0,1,3.335,2.32Z" transform="translate(-1321.418 -894.435)" fill="#141414"/>
      </g>
      <g id="Grupo_56341" data-name="Grupo 56341" transform="translate(0 8.304)">
        <path id="Trazado_102699" data-name="Trazado 102699" d="M1297.939,1020.158a63.225,63.225,0,0,1-4.8-5.782l.8-.581a62.191,62.191,0,0,0,4.721,5.691Zm-8.774-12.17a41.058,41.058,0,0,1-2.853-6.977l.944-.285a40.089,40.089,0,0,0,2.785,6.808Zm-4.3-14.38c-.106-1.149-.16-2.327-.16-3.5,0-1.325.069-2.685.2-4.041l.981.1c-.132,1.324-.2,2.65-.2,3.943,0,1.142.052,2.289.156,3.409Zm2.363-14.692-.953-.252a63.686,63.686,0,0,1,2.365-7.131l.918.361A62.748,62.748,0,0,0,1287.227,978.917Zm5.337-13.805-.887-.432c.958-1.968,2.049-4.079,3.434-6.645l.868.468C1294.6,961.057,1293.516,963.157,1292.564,965.111Zm6.994-13.159-.871-.463.028-.051a35.364,35.364,0,0,0,2.855-6.707l.945.283a36.313,36.313,0,0,1-2.936,6.9Zm3.017-14.417a16.933,16.933,0,0,0-1.744-6.979l.884-.439a17.912,17.912,0,0,1,1.846,7.383Z" transform="translate(-1284.704 -930.117)" fill="#141414"/>
      </g>
      <g id="Grupo_56342" data-name="Grupo 56342" transform="translate(18.624 102.86)">
        <path id="Trazado_102700" data-name="Trazado 102700" d="M1367.749,1339.745c-1.039-.852-2.053-1.719-3.015-2.575l.656-.737c.952.848,1.956,1.705,2.984,2.549Z" transform="translate(-1364.734 -1336.433)" fill="#141414"/>
      </g>
    </g>
    <g id="Grupo_56347" data-name="Grupo 56347" transform="translate(1351.994 249.777)">
      <g id="Grupo_56346" data-name="Grupo 56346" transform="translate(0 0)">
        <g id="Grupo_56344" data-name="Grupo 56344" transform="translate(0 25.917)">
          <path id="Rectángulo_5807" data-name="Rectángulo 5807" d="M0,0H20.49a0,0,0,0,1,0,0V7.592A10.245,10.245,0,0,1,10.245,17.837h0A10.245,10.245,0,0,1,0,7.592V0A0,0,0,0,1,0,0Z" transform="translate(102.45)" fill="#085fcc"/>
          <path id="Rectángulo_5808" data-name="Rectángulo 5808" d="M0,0H20.49a0,0,0,0,1,0,0V7.592A10.245,10.245,0,0,1,10.245,17.837h0A10.245,10.245,0,0,1,0,7.592V0A0,0,0,0,1,0,0Z" transform="translate(81.96)" fill="#88b2e7"/>
          <path id="Rectángulo_5809" data-name="Rectángulo 5809" d="M0,0H20.49a0,0,0,0,1,0,0V7.592A10.245,10.245,0,0,1,10.245,17.837h0A10.245,10.245,0,0,1,0,7.592V0A0,0,0,0,1,0,0Z" transform="translate(61.47)" fill="#085fcc"/>
          <path id="Rectángulo_5810" data-name="Rectángulo 5810" d="M0,0H20.49a0,0,0,0,1,0,0V7.592A10.245,10.245,0,0,1,10.245,17.837h0A10.245,10.245,0,0,1,0,7.592V0A0,0,0,0,1,0,0Z" transform="translate(40.98)" fill="#88b2e7"/>
          <path id="Rectángulo_5811" data-name="Rectángulo 5811" d="M0,0H20.49a0,0,0,0,1,0,0V7.592A10.245,10.245,0,0,1,10.245,17.837h0A10.245,10.245,0,0,1,0,7.592V0A0,0,0,0,1,0,0Z" transform="translate(20.49)" fill="#085fcc"/>
          <path id="Rectángulo_5812" data-name="Rectángulo 5812" d="M0,0H20.49a0,0,0,0,1,0,0V7.592A10.245,10.245,0,0,1,10.245,17.837h0A10.245,10.245,0,0,1,0,7.592V0A0,0,0,0,1,0,0Z" transform="translate(163.873)" fill="#88b2e7"/>
          <path id="Rectángulo_5813" data-name="Rectángulo 5813" d="M0,0H20.49a0,0,0,0,1,0,0V7.592A10.245,10.245,0,0,1,10.245,17.837h0A10.245,10.245,0,0,1,0,7.592V0A0,0,0,0,1,0,0Z" transform="translate(143.383)" fill="#085fcc"/>
          <path id="Rectángulo_5814" data-name="Rectángulo 5814" d="M0,0H20.49a0,0,0,0,1,0,0V7.592A10.245,10.245,0,0,1,10.245,17.837h0A10.245,10.245,0,0,1,0,7.592V0A0,0,0,0,1,0,0Z" transform="translate(122.94)" fill="#88b2e7"/>
          <path id="Rectángulo_5815" data-name="Rectángulo 5815" d="M0,0H20.49a0,0,0,0,1,0,0V7.592A10.245,10.245,0,0,1,10.245,17.837h0A10.245,10.245,0,0,1,0,7.592V0A0,0,0,0,1,0,0Z" fill="#88b2e7"/>
        </g>
        <g id="Grupo_56345" data-name="Grupo 56345">
          <path id="Trazado_102701" data-name="Trazado 102701" d="M1943.576,318.114h-14.568l-2.961,25.917h20.49Z" transform="translate(-1844.087 -318.114)" fill="#dae7f7"/>
          <path id="Trazado_102702" data-name="Trazado 102702" d="M1861.45,318.114h-14.568L1838,344.03h20.49Z" transform="translate(-1776.529 -318.114)" fill="#669cdf"/>
          <path id="Trazado_102703" data-name="Trazado 102703" d="M1779.325,318.114h-14.568l-14.8,25.917h20.49Z" transform="translate(-1708.972 -318.114)" fill="#dae7f7"/>
          <path id="Trazado_102704" data-name="Trazado 102704" d="M1697.2,318.114h-14.568L1661.9,344.03h20.49Z" transform="translate(-1641.414 -318.114)" fill="#669cdf"/>
          <path id="Trazado_102705" data-name="Trazado 102705" d="M1615.073,318.114H1600.5l-26.648,25.917h20.49Z" transform="translate(-1573.856 -318.114)" fill="#dae7f7"/>
          <path id="Trazado_102706" data-name="Trazado 102706" d="M2203.327,318.114h-14.568l20.776,25.917h20.49Z" transform="translate(-2045.662 -318.114)" fill="#dae7f7"/>
          <path id="Trazado_102707" data-name="Trazado 102707" d="M2141.037,318.114h-14.568l14.781,25.917h20.49Z" transform="translate(-1997.868 -318.114)" fill="#669cdf"/>
          <path id="Trazado_102708" data-name="Trazado 102708" d="M2078.437,318.114h-14.568l8.907,25.917h20.49Z" transform="translate(-1949.835 -318.114)" fill="#dae7f7"/>
          <path id="Trazado_102709" data-name="Trazado 102709" d="M2015.836,318.114h-14.568l2.985,25.917h20.49Z" transform="translate(-1901.803 -318.114)" fill="#669cdf"/>
        </g>
      </g>
    </g>
    <g id="Grupo_56349" data-name="Grupo 56349" transform="translate(1396.712 412.827)">
      <path id="Rectángulo_5816" data-name="Rectángulo 5816" d="M8.971,0H85.956a8.971,8.971,0,0,1,8.971,8.971v0a8.97,8.97,0,0,1-8.97,8.97H8.97A8.97,8.97,0,0,1,0,8.971v0A8.971,8.971,0,0,1,8.971,0Z" transform="translate(0)" fill="#4385d8"/>
      <g id="Grupo_56348" data-name="Grupo 56348" transform="translate(23.206 4.754)">
        <path id="Trazado_102710" data-name="Trazado 102710" d="M1870.819,1045.174a2.322,2.322,0,0,1-.093.671,1.978,1.978,0,0,1-.26.551,1.908,1.908,0,0,1-.4.429,2.33,2.33,0,0,1-.531.31,2.99,2.99,0,0,1-.632.188,4.205,4.205,0,0,1-.772.063h-2.016a.42.42,0,0,1-.259-.093.382.382,0,0,1-.122-.325v-6.883a.384.384,0,0,1,.122-.325.422.422,0,0,1,.259-.092h1.754a4.057,4.057,0,0,1,1.133.131,2.007,2.007,0,0,1,.737.381,1.581,1.581,0,0,1,.444.614,2.154,2.154,0,0,1,.149.823,2.051,2.051,0,0,1-.065.525,1.735,1.735,0,0,1-.194.462,1.575,1.575,0,0,1-.322.379,1.706,1.706,0,0,1-.444.275,1.872,1.872,0,0,1,.591.217,1.8,1.8,0,0,1,.48.4,1.878,1.878,0,0,1,.325.572A2.1,2.1,0,0,1,1870.819,1045.174Zm-1.545-3.453a1.568,1.568,0,0,0-.077-.507.939.939,0,0,0-.244-.385,1.1,1.1,0,0,0-.434-.241,2.461,2.461,0,0,0-.708-.083h-1.059v2.5h1.166a1.659,1.659,0,0,0,.643-.1,1.148,1.148,0,0,0,.4-.28,1.085,1.085,0,0,0,.235-.411A1.6,1.6,0,0,0,1869.274,1041.721Zm.465,3.513a1.559,1.559,0,0,0-.11-.608,1.156,1.156,0,0,0-.321-.442,1.413,1.413,0,0,0-.53-.271,2.888,2.888,0,0,0-.8-.093h-1.226v2.72h1.488a2.032,2.032,0,0,0,.613-.084,1.365,1.365,0,0,0,.461-.248,1.135,1.135,0,0,0,.313-.409A1.338,1.338,0,0,0,1869.74,1045.233Z" transform="translate(-1865.732 -1039.555)" fill="#fff"/>
        <path id="Trazado_102711" data-name="Trazado 102711" d="M1900.046,1044.417a3.574,3.574,0,0,1-.206,1.255,2.578,2.578,0,0,1-.587.934,2.472,2.472,0,0,1-.93.578,3.671,3.671,0,0,1-1.247.2,3.493,3.493,0,0,1-1.163-.185,2.464,2.464,0,0,1-.9-.546,2.4,2.4,0,0,1-.578-.9,3.567,3.567,0,0,1-.2-1.252v-4.79a.147.147,0,0,1,.024-.083.159.159,0,0,1,.084-.057.986.986,0,0,1,.155-.035,1.709,1.709,0,0,1,.25-.015,1.735,1.735,0,0,1,.244.015.9.9,0,0,1,.158.035.158.158,0,0,1,.081.057.149.149,0,0,1,.024.083v4.664a3.008,3.008,0,0,0,.131.936,1.759,1.759,0,0,0,.379.665,1.572,1.572,0,0,0,.6.4,2.162,2.162,0,0,0,.784.134,2.247,2.247,0,0,0,.8-.131,1.513,1.513,0,0,0,.591-.394,1.765,1.765,0,0,0,.369-.651,2.89,2.89,0,0,0,.128-.906v-4.718a.147.147,0,0,1,.024-.083.16.16,0,0,1,.084-.057.982.982,0,0,1,.158-.035,1.722,1.722,0,0,1,.248-.015,1.662,1.662,0,0,1,.241.015.9.9,0,0,1,.156.035.177.177,0,0,1,.083.057.136.136,0,0,1,.027.083Z" transform="translate(-1887.599 -1039.437)" fill="#fff"/>
        <path id="Trazado_102712" data-name="Trazado 102712" d="M1932.252,1046.963a1.319,1.319,0,0,1-.012.188.4.4,0,0,1-.042.134.2.2,0,0,1-.069.077.157.157,0,0,1-.086.024h-3.7a.418.418,0,0,1-.259-.093.381.381,0,0,1-.123-.325v-6.883a.383.383,0,0,1,.123-.325.421.421,0,0,1,.259-.092H1932a.16.16,0,0,1,.086.024.169.169,0,0,1,.063.078.629.629,0,0,1,.039.134,1.144,1.144,0,0,1,.015.2,1.061,1.061,0,0,1-.015.188.562.562,0,0,1-.039.131.171.171,0,0,1-.063.075.163.163,0,0,1-.086.024h-3.018v2.422h2.588a.147.147,0,0,1,.086.027.215.215,0,0,1,.065.074.38.38,0,0,1,.039.131,1.4,1.4,0,0,1,.012.2,1.216,1.216,0,0,1-.012.185.377.377,0,0,1-.039.125.169.169,0,0,1-.065.068.178.178,0,0,1-.086.021h-2.588v2.761h3.06a.164.164,0,0,1,.086.024.22.22,0,0,1,.069.075.36.36,0,0,1,.042.131A1.418,1.418,0,0,1,1932.252,1046.963Z" transform="translate(-1913.477 -1039.555)" fill="#fff"/>
        <path id="Trazado_102713" data-name="Trazado 102713" d="M1971.286,1046.9a.47.47,0,0,1-.04.2.4.4,0,0,1-.25.214.556.556,0,0,1-.161.024h-.339a1.056,1.056,0,0,1-.281-.033.621.621,0,0,1-.229-.119,1.211,1.211,0,0,1-.216-.236,3.065,3.065,0,0,1-.229-.381l-2.354-4.39c-.123-.227-.247-.464-.373-.713s-.241-.49-.349-.724h-.012q.012.429.018.877t.006.889v4.658a.147.147,0,0,1-.025.081.157.157,0,0,1-.085.059.931.931,0,0,1-.157.036,2.1,2.1,0,0,1-.5,0,.825.825,0,0,1-.154-.036.154.154,0,0,1-.082-.059.147.147,0,0,1-.025-.081v-7.121a.4.4,0,0,1,.135-.34.482.482,0,0,1,.3-.1h.5a1.251,1.251,0,0,1,.3.03.631.631,0,0,1,.216.1.845.845,0,0,1,.185.192,2.565,2.565,0,0,1,.188.307l1.81,3.388q.167.309.323.6t.3.582q.144.286.285.563c.094.185.187.371.279.558h.006c-.008-.314-.013-.642-.015-.981s0-.667,0-.981v-4.187a.132.132,0,0,1,.025-.077.2.2,0,0,1,.085-.063.565.565,0,0,1,.158-.039,2.2,2.2,0,0,1,.255-.012,2.077,2.077,0,0,1,.239.012.523.523,0,0,1,.157.039.2.2,0,0,1,.082.063.131.131,0,0,1,.025.077Z" transform="translate(-1942.247 -1039.496)" fill="#fff"/>
        <path id="Trazado_102714" data-name="Trazado 102714" d="M2004.363,1043.064a6,6,0,0,1-.221,1.688,3.537,3.537,0,0,1-.658,1.278,2.88,2.88,0,0,1-1.1.812,3.9,3.9,0,0,1-1.545.283,3.971,3.971,0,0,1-1.507-.26,2.634,2.634,0,0,1-1.049-.754,3.21,3.21,0,0,1-.617-1.229,6.349,6.349,0,0,1-.2-1.688,5.835,5.835,0,0,1,.221-1.658,3.449,3.449,0,0,1,.662-1.267,2.924,2.924,0,0,1,1.1-.805,3.9,3.9,0,0,1,1.545-.284,3.937,3.937,0,0,1,1.485.257,2.69,2.69,0,0,1,1.053.749,3.188,3.188,0,0,1,.626,1.217A6.1,6.1,0,0,1,2004.363,1043.064Zm-1.086.072a6.046,6.046,0,0,0-.116-1.22,2.822,2.822,0,0,0-.387-.979,1.87,1.87,0,0,0-.724-.647,2.429,2.429,0,0,0-1.119-.233,2.288,2.288,0,0,0-1.12.25,2.1,2.1,0,0,0-.736.668,2.788,2.788,0,0,0-.406.975,5.489,5.489,0,0,0-.122,1.172,6.45,6.45,0,0,0,.113,1.252,2.778,2.778,0,0,0,.381.987,1.829,1.829,0,0,0,.717.644,2.475,2.475,0,0,0,1.129.23,2.342,2.342,0,0,0,1.132-.251,2.031,2.031,0,0,0,.738-.677,2.855,2.855,0,0,0,.4-.987A5.7,5.7,0,0,0,2003.277,1043.136Z" transform="translate(-1966.807 -1039.181)" fill="#fff"/>
        <path id="Trazado_102715" data-name="Trazado 102715" d="M2038.738,1047.042a.314.314,0,0,1-.071.134.3.3,0,0,1-.131.078,1.039,1.039,0,0,1-.206.039c-.082.008-.182.012-.3.012s-.228,0-.313-.012a1.043,1.043,0,0,1-.212-.039.259.259,0,0,1-.125-.078.37.37,0,0,1-.065-.134l-1.616-5.827h-.012l-1.491,5.827a.306.306,0,0,1-.06.134.26.26,0,0,1-.119.078.928.928,0,0,1-.2.039c-.082.008-.186.012-.313.012s-.24,0-.328-.012a1.053,1.053,0,0,1-.215-.039.275.275,0,0,1-.128-.078.286.286,0,0,1-.063-.134l-2.039-7.127a1.055,1.055,0,0,1-.039-.214.138.138,0,0,1,.048-.119.309.309,0,0,1,.164-.054c.076-.008.177-.012.3-.012s.221,0,.292.009a.574.574,0,0,1,.164.032.144.144,0,0,1,.078.066.4.4,0,0,1,.032.107l1.736,6.465h.006l1.646-6.453a.452.452,0,0,1,.044-.111.168.168,0,0,1,.086-.068.679.679,0,0,1,.17-.036,2.826,2.826,0,0,1,.29-.012,2.32,2.32,0,0,1,.265.012.657.657,0,0,1,.158.036.169.169,0,0,1,.086.068.452.452,0,0,1,.045.111l1.771,6.453h.012l1.7-6.458c.011-.04.023-.075.035-.105a.129.129,0,0,1,.075-.068.613.613,0,0,1,.161-.036,2.555,2.555,0,0,1,.277-.012,2.146,2.146,0,0,1,.284.015.3.3,0,0,1,.152.057.141.141,0,0,1,.045.119,1.32,1.32,0,0,1-.032.215Z" transform="translate(-1992.301 -1039.437)" fill="#fff"/>
      </g>
    </g>
  </g>
</svg>
