<svg xmlns="http://www.w3.org/2000/svg" width="90.648" height="86.986" viewBox="0 0 90.648 86.986">
  <g id="Grupo_56589" data-name="Grupo 56589" transform="translate(-368.113 -24131.508)">
    <g id="moneda-dolar" transform="translate(367.613 24131.008)">
      <g id="Grupo_56567" data-name="Grupo 56567" transform="translate(0.5 0.5)">
        <path id="Trazado_103156" data-name="Trazado 103156" d="M30.443,60.387A29.943,29.943,0,1,1,60.387,30.443,29.951,29.951,0,0,1,30.443,60.387ZM30.443,3A27.448,27.448,0,1,0,57.891,30.443,27.449,27.449,0,0,0,30.443,3Z" transform="translate(-0.5 -0.5)" fill="#292d34"/>
      </g>
      <g id="Grupo_56568" data-name="Grupo 56568" transform="translate(7.986 7.986)">
        <path id="Trazado_103157" data-name="Trazado 103157" d="M34.958,57.415A22.458,22.458,0,1,1,57.415,34.958,22.443,22.443,0,0,1,34.958,57.415Z" transform="translate(-12.5 -12.5)" fill="#f7c44c"/>
      </g>
      <g id="Grupo_56571" data-name="Grupo 56571" transform="translate(17.156 12.789)">
        <g id="Grupo_56569" data-name="Grupo 56569" transform="translate(1.747 1.185)">
          <path id="Trazado_103158" data-name="Trazado 103158" d="M39.482,54.975V52.168a17.358,17.358,0,0,1-8.546-4.117L30,47.178l4.242-5.115.936.811a13.284,13.284,0,0,0,4.242,2.558V40.877a15.2,15.2,0,0,1-5.614-2.62,7.119,7.119,0,0,1-2.371-5.739,8.021,8.021,0,0,1,2.62-6.113,9.421,9.421,0,0,1,5.365-2.371V22.1h4.928v2A16.778,16.778,0,0,1,51.4,26.9l1.06.686-3.805,5.427-1-.749a9.729,9.729,0,0,0-3.244-1.56v4.429a14.676,14.676,0,0,1,5.864,2.745,7.183,7.183,0,0,1,2.433,5.8A7.689,7.689,0,0,1,50.025,49.8a9.8,9.8,0,0,1-5.552,2.371v2.745H39.482Zm4.866-9.357a2.95,2.95,0,0,0,.749-.437,1.417,1.417,0,0,0,.561-1.123,1.353,1.353,0,0,0-.437-1.123,3.427,3.427,0,0,0-.873-.561ZM39.482,30.771a1.358,1.358,0,0,0-.5.312,1.282,1.282,0,0,0-.5,1.123,1.306,1.306,0,0,0,.374,1.06,2.591,2.591,0,0,0,.686.437V30.771Z" transform="translate(-30 -22.1)" fill="#2dcb73"/>
        </g>
        <g id="Grupo_56570" data-name="Grupo 56570">
          <path id="Trazado_103159" data-name="Trazado 103159" d="M42.047,22.7v1.871a15.472,15.472,0,0,1,7.611,2.745L47.225,30.68a11.962,11.962,0,0,0-5.24-2.121v6.862h.125A15.081,15.081,0,0,1,48.285,38.1a6.075,6.075,0,0,1,2,4.866,6.575,6.575,0,0,1-2.246,5.178,9.544,9.544,0,0,1-5.989,2.183v2.62H39.739V50.268a15.889,15.889,0,0,1-8.983-3.992l2.682-3.181a13.44,13.44,0,0,0,6.3,3.181V39.289a14.865,14.865,0,0,1-6.051-2.62,5.968,5.968,0,0,1-1.934-4.741,6.826,6.826,0,0,1,2.183-5.178,9.108,9.108,0,0,1,5.739-2.183V22.758h2.371M39.676,34.8V28.434a4.353,4.353,0,0,0-2.558,1,2.665,2.665,0,0,0-.936,2.059,2.585,2.585,0,0,0,.749,1.934A7.273,7.273,0,0,0,39.676,34.8m2.371,11.665a4.792,4.792,0,0,0,2.745-1,2.571,2.571,0,0,0,1-2.121,2.46,2.46,0,0,0-.811-2,8.31,8.31,0,0,0-2.994-1.435v6.55M44.542,20.2h-7.3v2.121a10.589,10.589,0,0,0-4.928,2.5A9.061,9.061,0,0,0,29.321,31.8a8.228,8.228,0,0,0,2.807,6.675,14.316,14.316,0,0,0,5.178,2.558V42.72A7.5,7.5,0,0,1,35,41.285L33.064,39.6l-1.622,1.934L28.76,44.716,27.2,46.588l1.871,1.622a18.856,18.856,0,0,0,8.11,4.242v3.057h7.361V52.576a11.48,11.48,0,0,0,5.178-2.5,9.091,9.091,0,0,0,3.119-7.049,8.423,8.423,0,0,0-2.87-6.8,14.7,14.7,0,0,0-5.427-2.682V31.928c.437.25.873.5,1.248.749l2.059,1.435,1.435-2.059,2.371-3.369,1.435-2.059-2.121-1.435a17,17,0,0,0-6.488-2.807V20.2Z" transform="translate(-27.2 -20.2)" fill="#292d34"/>
        </g>
      </g>
    </g>
    <g id="enlace" transform="translate(390.773 24150.504)">
      <g id="Grupo_56566" data-name="Grupo 56566" transform="translate(0.995 0.999)">
        <path id="Trazado_103146" data-name="Trazado 103146" d="M52.345,170.721A18.294,18.294,0,0,0,24.7,161.889a18.478,18.478,0,0,0-2.5,2.091l-9.36,9.359A18.284,18.284,0,0,0,38.705,199.2l9.36-9.359a18.3,18.3,0,0,0,4.28-19.118Zm-19.6,22.514A9.851,9.851,0,0,1,18.812,179.3l6.294-6.3,3.065-3.065A9.851,9.851,0,0,1,42.1,183.875l-1.175,1.175Z" transform="translate(-7.493 -138.558)" fill="#f8e95c"/>
        <path id="Trazado_103147" data-name="Trazado 103147" d="M132.7,161.889a18.329,18.329,0,0,0,.4,11.12l3.065-3.065a9.793,9.793,0,0,1,4.316-2.519,9.826,9.826,0,0,1,2.862-7.569l1.178-1.178A18.26,18.26,0,0,0,132.7,161.889Z" transform="translate(-115.486 -138.557)" fill="#f4d757"/>
        <path id="Trazado_103148" data-name="Trazado 103148" d="M15.223,175.708l9.36-9.36A18.285,18.285,0,0,1,49.2,165.221q-.531-.637-1.128-1.236a18.284,18.284,0,0,0-25.858,0l-9.36,9.36a18.284,18.284,0,0,0,0,25.857q.6.6,1.236,1.128a18.285,18.285,0,0,1,1.126-24.621Z" transform="translate(-7.503 -138.561)" fill="#f4d757"/>
        <path id="Trazado_103149" data-name="Trazado 103149" d="M199.2,12.858a18.284,18.284,0,0,0-25.858,0l-9.36,9.359a18.284,18.284,0,1,0,25.858,25.858l9.36-9.359a18.284,18.284,0,0,0,0-25.858Zm-5.963,19.895-9.359,9.36a9.851,9.851,0,0,1-13.931-13.931l9.359-9.36a9.851,9.851,0,1,1,13.931,13.931Z" transform="translate(-138.554 -7.503)" fill="#a6eddf"/>
        <path id="Trazado_103150" data-name="Trazado 103150" d="M258.825,284.267a18.264,18.264,0,0,1-1.54,7.353,18.344,18.344,0,0,1-9.27-.934,9.85,9.85,0,0,0,2.2-8.221,9.9,9.9,0,0,0,8.512-.042A17.851,17.851,0,0,1,258.825,284.267Z" transform="translate(-216.076 -245.916)" fill="#7bd9c5"/>
        <path id="Trazado_103151" data-name="Trazado 103151" d="M268.549,126.782l9.36-9.36a9.841,9.841,0,0,0-1.284-15.011,9.865,9.865,0,0,1-1.08,12.648l-9.36,9.36a9.864,9.864,0,0,1-12.647,1.078,9.842,9.842,0,0,0,15.01,1.285Z" transform="translate(-220.866 -89.808)" fill="#7bd9c5"/>
        <path id="Trazado_103152" data-name="Trazado 103152" d="M255.415,242.035a11.017,11.017,0,0,0-9.778-.352,9.862,9.862,0,0,1-.513,13.374l-3.522,3.522a11.107,11.107,0,0,0,.8.891,10.947,10.947,0,0,0,7.044,3.193l1.643-1.643a18.3,18.3,0,0,0,4.328-18.985Z" transform="translate(-210.514 -209.739)" fill="#f8e95c"/>
        <path id="Trazado_103153" data-name="Trazado 103153" d="M117.423,277.908l9.36-9.36a9.841,9.841,0,0,0-1.284-15.011,9.865,9.865,0,0,1-1.08,12.648l-9.36,9.36a9.864,9.864,0,0,1-12.647,1.078,9.842,9.842,0,0,0,15.01,1.285Z" transform="translate(-89.808 -220.866)" fill="#f4d757"/>
        <path id="Trazado_103154" data-name="Trazado 103154" d="M166.349,24.582l9.36-9.36a18.285,18.285,0,0,1,24.622-1.127q-.531-.637-1.128-1.236a18.284,18.284,0,0,0-25.858,0l-9.36,9.36a18.284,18.284,0,0,0,0,25.857q.6.6,1.236,1.128a18.284,18.284,0,0,1,1.126-24.621Z" transform="translate(-138.561 -7.503)" fill="#7bd9c5"/>
      </g>
      <path id="Trazado_103155" data-name="Trazado 103155" d="M62.34,5.649A19.151,19.151,0,0,0,48.708,0h0A19.155,19.155,0,0,0,35.074,5.65L25.715,15.01a19.137,19.137,0,0,0-4.262,6.447,19.132,19.132,0,0,0-6.446,4.262l-9.359,9.36A19.28,19.28,0,0,0,19.28,67.99h0a19.152,19.152,0,0,0,13.632-5.647l9.359-9.36a19.13,19.13,0,0,0,4.262-6.445,19.154,19.154,0,0,0,6.447-4.264l9.359-9.359a19.206,19.206,0,0,0,3.674-5.13,1,1,0,0,0-1.788-.877,17.216,17.216,0,0,1-3.295,4.6l-9.359,9.359a17.233,17.233,0,0,1-4.21,3.1,19.34,19.34,0,0,0,.219-8.217l8.8-8.8A10.847,10.847,0,0,0,41.037,11.613l-9.359,9.36a10.838,10.838,0,0,0,5.807,18.35A8.808,8.808,0,0,1,35.1,45.4a17.281,17.281,0,0,1-7.976-28.984l9.359-9.359A17.176,17.176,0,0,1,48.707,1.995h0a17.3,17.3,0,0,1,16.8,21.377,1,1,0,0,0,1.936.471,19.295,19.295,0,0,0-5.1-18.193ZM42.446,13.022A8.855,8.855,0,0,1,54.968,25.544L47.011,33.5A19.286,19.286,0,0,0,34.489,20.978ZM30.755,30.759a8.81,8.81,0,0,1,6.476,6.476,8.812,8.812,0,0,1-6.476-6.476ZM25.714,42.275a19.216,19.216,0,0,0,7.784,4.74l-7.957,7.957a8.793,8.793,0,0,1-6.26,2.588h0a8.841,8.841,0,0,1-8.819-9.587,1,1,0,0,0-1.985-.165,10.833,10.833,0,0,0,10.8,11.744h0A10.772,10.772,0,0,0,26.95,56.38l9.359-9.359A10.839,10.839,0,0,0,30.5,28.671a8.822,8.822,0,0,1,2.388-6.08,17.282,17.282,0,0,1,7.975,28.985l-9.36,9.36A17.288,17.288,0,1,1,7.055,36.487l9.359-9.36a17.217,17.217,0,0,1,4.211-3.1,19.29,19.29,0,0,0-.22,8.217l-8.8,8.8a10.815,10.815,0,0,0-1.922,2.6,1,1,0,1,0,1.762.929,8.822,8.822,0,0,1,1.568-2.124l7.956-7.956a19.233,19.233,0,0,0,4.739,7.782Z"/>
    </g>
  </g>
</svg>
