<svg id="Layer_2" data-name="Layer 2" xmlns="http://www.w3.org/2000/svg" width="82.828" height="82.828" viewBox="0 0 82.828 82.828">
  <path id="Trazado_103160" data-name="Trazado 103160" d="M77.667,19.75h19.79V39.54H77.667Z" transform="translate(-27.409 -6.97)" fill="#d7fc7e"/>
  <path id="Trazado_103161" data-name="Trazado 103161" d="M19.75,19.75H39.54V39.54H19.75Z" transform="translate(-6.97 -6.97)" fill="#d7fc7e"/>
  <path id="Trazado_103162" data-name="Trazado 103162" d="M19.75,77.123H39.54v19.79H19.75Z" transform="translate(-6.97 -27.217)" fill="#d7fc7e"/>
  <path id="Trazado_103163" data-name="Trazado 103163" d="M20.672,1.75H1.75V20.672H6.927V6.927H20.672Z" transform="translate(-0.618 -0.618)" fill="#a7adf0"/>
  <path id="Trazado_103164" data-name="Trazado 103164" d="M20.672,115.931H1.75V97.009H6.927v13.745H20.672Z" transform="translate(-0.618 -34.235)" fill="#a7adf0"/>
  <path id="Trazado_103165" data-name="Trazado 103165" d="M97.009,1.75h18.922V20.672h-5.177V6.927H97.009Z" transform="translate(-34.235 -0.618)" fill="#a7adf0"/>
  <path id="Trazado_103166" data-name="Trazado 103166" d="M97.009,115.931h18.922V97.009h-5.177v13.745H97.009Z" transform="translate(-34.235 -34.235)" fill="#a7adf0"/>
  <path id="Trazado_103167" data-name="Trazado 103167" d="M87.666,29.75h6.849V36.6H87.666Z" transform="translate(-30.938 -10.499)" fill="#57a4ff"/>
  <path id="Trazado_103168" data-name="Trazado 103168" d="M29.75,29.75H36.6V36.6H29.75Z" transform="translate(-10.499 -10.499)" fill="#57a4ff"/>
  <path id="Trazado_103169" data-name="Trazado 103169" d="M29.75,87.123H36.6v6.848H29.75Z" transform="translate(-10.499 -30.746)" fill="#57a4ff"/>
  <path id="Trazado_103170" data-name="Trazado 103170" d="M60,19.75h5.177v5.986H60Z" transform="translate(-21.174 -6.97)" fill="#d7fc7e"/>
  <path id="Trazado_103171" data-name="Trazado 103171" d="M78.008,60H97.577v5.177H78.008Z" transform="translate(-27.529 -21.174)" fill="#d7fc7e"/>
  <path id="Trazado_103172" data-name="Trazado 103172" d="M19.921,60h7.917v5.177H19.921Z" transform="translate(-7.03 -21.174)" fill="#d7fc7e"/>
  <path id="Trazado_103173" data-name="Trazado 103173" d="M71.653,62.945v9.437H76.83v-4.26h9.216V78.5H65.177V39.008H60V83.673H91.222V62.945Z" transform="translate(-21.174 -13.766)" fill="#d7fc7e"/>
  <path id="Trazado_103174" data-name="Trazado 103174" d="M42.163,60H47.34v5.177H42.163Z" transform="translate(-14.88 -21.174)" fill="#d7fc7e"/>
  <g id="Grupo_56574" data-name="Grupo 56574" transform="translate(0 0)">
    <path id="Trazado_103175" data-name="Trazado 103175" d="M1.132,21.186H6.309a1.132,1.132,0,0,0,1.132-1.132V7.442H20.054a1.132,1.132,0,0,0,1.132-1.132V1.132A1.132,1.132,0,0,0,20.054,0H1.132A1.132,1.132,0,0,0,0,1.132V20.053a1.132,1.132,0,0,0,1.132,1.132ZM2.265,2.265H18.922V5.177H6.309A1.132,1.132,0,0,0,5.177,6.309V18.921H2.265Z" transform="translate(0 0)" fill="#231f20"/>
    <path id="Trazado_103176" data-name="Trazado 103176" d="M20.054,109H7.442V96.392A1.132,1.132,0,0,0,6.309,95.26H1.132A1.132,1.132,0,0,0,0,96.392v18.921a1.132,1.132,0,0,0,1.132,1.132H20.054a1.132,1.132,0,0,0,1.132-1.132v-5.177A1.132,1.132,0,0,0,20.054,109Zm-1.132,5.177H2.265V97.525H5.177v12.612a1.132,1.132,0,0,0,1.132,1.132H18.922Z" transform="translate(0 -33.618)" fill="#231f20"/>
    <path id="Trazado_103177" data-name="Trazado 103177" d="M115.313,0H96.391a1.132,1.132,0,0,0-1.132,1.132V6.309a1.132,1.132,0,0,0,1.132,1.132H109V20.053a1.132,1.132,0,0,0,1.132,1.132h5.177a1.132,1.132,0,0,0,1.132-1.132V1.132A1.132,1.132,0,0,0,115.313,0Zm-1.132,18.921h-2.912V6.309a1.132,1.132,0,0,0-1.132-1.132H97.524V2.265h16.657Z" transform="translate(-33.617 0)" fill="#231f20"/>
    <path id="Trazado_103178" data-name="Trazado 103178" d="M115.313,95.26h-5.177A1.132,1.132,0,0,0,109,96.392V109H96.391a1.132,1.132,0,0,0-1.132,1.132v5.177a1.132,1.132,0,0,0,1.132,1.132h14.635a1.132,1.132,0,1,0,0-2.265h-13.5v-2.912h12.613a1.132,1.132,0,0,0,1.132-1.132V97.525h2.912V110.7a1.132,1.132,0,1,0,2.265,0V96.392a1.132,1.132,0,0,0-1.132-1.132Z" transform="translate(-33.617 -33.618)" fill="#231f20"/>
    <path id="Trazado_103179" data-name="Trazado 103179" d="M77.049,40.055H96.84a1.132,1.132,0,0,0,1.132-1.132V19.132A1.132,1.132,0,0,0,96.84,18H77.049a1.132,1.132,0,0,0-1.132,1.132v19.79a1.132,1.132,0,0,0,1.132,1.132Zm1.132-19.79H95.707V37.79H78.182Z" transform="translate(-26.792 -6.352)" fill="#231f20"/>
    <path id="Trazado_103180" data-name="Trazado 103180" d="M93.9,28H87.049a1.132,1.132,0,0,0-1.132,1.132v6.848a1.132,1.132,0,0,0,1.132,1.132H93.9a1.132,1.132,0,0,0,1.132-1.132V29.132A1.132,1.132,0,0,0,93.9,28Zm-1.132,6.848H88.182V30.265h4.583Z" transform="translate(-30.321 -9.881)" fill="#231f20"/>
    <path id="Trazado_103181" data-name="Trazado 103181" d="M29.132,37.113h6.848a1.132,1.132,0,0,0,1.132-1.132V29.132A1.132,1.132,0,0,0,35.981,28H29.132A1.132,1.132,0,0,0,28,29.132v6.848a1.132,1.132,0,0,0,1.132,1.132Zm1.132-6.848h4.583v4.583H30.265Z" transform="translate(-9.881 -9.881)" fill="#231f20"/>
    <path id="Trazado_103182" data-name="Trazado 103182" d="M29.132,94.486h6.848a1.132,1.132,0,0,0,1.132-1.132V86.505a1.132,1.132,0,0,0-1.132-1.132H29.132A1.132,1.132,0,0,0,28,86.505v6.848a1.132,1.132,0,0,0,1.132,1.132Zm1.132-6.848h4.583v4.583H30.265Z" transform="translate(-9.881 -30.129)" fill="#231f20"/>
    <path id="Trazado_103183" data-name="Trazado 103183" d="M38.923,18H19.132A1.132,1.132,0,0,0,18,19.132v19.79a1.132,1.132,0,0,0,1.132,1.132h19.79a1.132,1.132,0,0,0,1.132-1.132V19.132A1.132,1.132,0,0,0,38.923,18ZM37.79,37.79H20.265V20.265H37.79Z" transform="translate(-6.352 -6.352)" fill="#231f20"/>
    <path id="Trazado_103184" data-name="Trazado 103184" d="M38.923,75.373H19.132A1.132,1.132,0,0,0,18,76.505V96.3a1.132,1.132,0,0,0,1.132,1.132h19.79A1.132,1.132,0,0,0,40.055,96.3V76.505a1.132,1.132,0,0,0-1.132-1.132ZM37.79,95.163H20.265V77.638H37.79Z" transform="translate(-6.352 -26.6)" fill="#231f20"/>
    <path id="Trazado_103185" data-name="Trazado 103185" d="M59.382,26.25h5.177a1.132,1.132,0,0,0,1.132-1.132V19.132A1.132,1.132,0,0,0,64.559,18H59.382a1.132,1.132,0,0,0-1.132,1.132v5.986a1.132,1.132,0,0,0,1.132,1.132Zm1.132-5.986h2.912v3.721H60.515Z" transform="translate(-20.557 -6.352)" fill="#231f20"/>
    <path id="Trazado_103186" data-name="Trazado 103186" d="M96.96,58.25H77.39a1.132,1.132,0,0,0-1.132,1.132v5.177a1.132,1.132,0,0,0,1.132,1.132H96.96a1.132,1.132,0,0,0,1.132-1.132V59.382A1.132,1.132,0,0,0,96.96,58.25Zm-1.132,5.177h-17.3V60.515h17.3Z" transform="translate(-26.912 -20.557)" fill="#231f20"/>
    <path id="Trazado_103187" data-name="Trazado 103187" d="M19.3,65.692H27.22a1.132,1.132,0,0,0,1.132-1.132V59.382A1.132,1.132,0,0,0,27.22,58.25H19.3a1.132,1.132,0,0,0-1.132,1.132v5.177A1.132,1.132,0,0,0,19.3,65.692Zm1.132-5.177h5.652v2.912H20.436Z" transform="translate(-6.413 -20.557)" fill="#231f20"/>
    <path id="Trazado_103188" data-name="Trazado 103188" d="M91.737,83.055V62.328A1.132,1.132,0,0,0,90.6,61.2H71.035A1.132,1.132,0,0,0,69.9,62.328v9.437A1.132,1.132,0,0,0,71.035,72.9h5.177a1.132,1.132,0,0,0,1.132-1.132V68.637H84.3v8.109h-18.6V38.39a1.132,1.132,0,0,0-1.132-1.132H59.382A1.132,1.132,0,0,0,58.25,38.39V52.7a1.132,1.132,0,0,0,2.265,0V39.523h2.912V77.879a1.132,1.132,0,0,0,1.132,1.132H85.428a1.132,1.132,0,0,0,1.132-1.132V67.5a1.132,1.132,0,0,0-1.132-1.132H76.212A1.132,1.132,0,0,0,75.08,67.5v3.127H72.168V63.46h17.3V81.923H60.515V73.989a1.132,1.132,0,1,0-2.265,0v9.066a1.132,1.132,0,0,0,1.132,1.132H90.6a1.132,1.132,0,0,0,1.132-1.132Z" transform="translate(-20.557 -13.149)" fill="#231f20"/>
    <path id="Trazado_103189" data-name="Trazado 103189" d="M59.382,78.881a1.133,1.133,0,0,0,1.132-1.132v-3.49a1.132,1.132,0,1,0-2.265,0v3.49a1.133,1.133,0,0,0,1.132,1.132Z" transform="translate(-20.557 -25.807)" fill="#231f20"/>
    <path id="Trazado_103190" data-name="Trazado 103190" d="M46.722,65.692a1.132,1.132,0,0,0,1.132-1.132V59.382a1.132,1.132,0,0,0-1.132-1.132H41.545a1.132,1.132,0,0,0-1.132,1.132v5.177a1.132,1.132,0,0,0,1.132,1.132Zm-4.044-5.177H45.59v2.912H42.678Z" transform="translate(-14.262 -20.557)" fill="#231f20"/>
  </g>
</svg>
