<svg id="garantia" xmlns="http://www.w3.org/2000/svg" width="125.557" height="121.373" viewBox="0 0 125.557 121.373">
  <path id="Trazado_103284" data-name="Trazado 103284" d="M151.52,112.631H72V16.37A8.371,8.371,0,0,1,80.37,8h87.89a8.371,8.371,0,0,0-8.37,8.37v87.89A8.371,8.371,0,0,1,151.52,112.631Zm0,0" transform="translate(-53.166 -5.907)" fill="#87ced9"/>
  <path id="Trazado_103285" data-name="Trazado 103285" d="M80,165.8h77.427a8.371,8.371,0,0,0,8.37-8.37V80Zm0,0" transform="translate(-59.074 -59.074)" fill="#71c4d1"/>
  <path id="Trazado_103286" data-name="Trazado 103286" d="M424.741,20.556H408V16.37a8.37,8.37,0,1,1,16.741,0Zm0,0" transform="translate(-301.276 -5.907)" fill="#4ba5c4"/>
  <path id="Trazado_103287" data-name="Trazado 103287" d="M8,360v4.185a8.371,8.371,0,0,0,8.37,8.37h87.89a8.371,8.371,0,0,1-8.37-8.37V360Zm0,0" transform="translate(-5.907 -265.832)" fill="#a2e0e8"/>
  <path id="Trazado_103288" data-name="Trazado 103288" d="M296.2,336v31.389l8.37-6.278,8.37,6.278V336Zm0,0" transform="translate(-218.72 -248.11)" fill="#e3584b"/>
  <path id="Trazado_103289" data-name="Trazado 103289" d="M296.2,336v5.131a4.156,4.156,0,0,0,4.327.4,4.261,4.261,0,0,0,8.034,0,4.158,4.158,0,0,0,4.379-.435V336Zm0,0" transform="translate(-218.72 -248.11)" fill="#d64740"/>
  <path id="Trazado_103290" data-name="Trazado 103290" d="M302.419,264.541a4.269,4.269,0,0,0-5.681-5.692,4.261,4.261,0,0,0-8.032,0,4.267,4.267,0,0,0-5.679,5.692,4.273,4.273,0,0,0,0,8.048,4.267,4.267,0,0,0,5.679,5.692,4.261,4.261,0,0,0,8.032,0,4.269,4.269,0,0,0,5.681-5.692,4.275,4.275,0,0,0,0-8.048Zm0,0" transform="translate(-206.9 -189.045)" fill="#ffc24f"/>
  <path id="Trazado_103291" data-name="Trazado 103291" d="M317.277,276.595a4.186,4.186,0,0,0-.347-4.259,26.94,26.94,0,0,1-16.617,18.179,4.154,4.154,0,0,0,3.251-.18,4.261,4.261,0,0,0,8.034,0,4.267,4.267,0,0,0,5.679-5.692,4.275,4.275,0,0,0,0-8.048Zm0,0" transform="translate(-221.758 -201.099)" fill="#ffba38"/>
  <g id="Grupo_56632" data-name="Grupo 56632" transform="translate(31.389 16.741)">
    <path id="Trazado_103292" data-name="Trazado 103292" d="M264,64h8.37v4.185H264Zm0,0" transform="translate(-226.333 -64)" fill="#5eb3d1"/>
    <path id="Trazado_103293" data-name="Trazado 103293" d="M184,64h16.741v4.185H184Zm0,0" transform="translate(-167.259 -64)" fill="#5eb3d1"/>
    <path id="Trazado_103294" data-name="Trazado 103294" d="M160,104h41.852v4.185H160Zm0,0" transform="translate(-149.537 -93.537)" fill="#5eb3d1"/>
    <path id="Trazado_103295" data-name="Trazado 103295" d="M120,152h10.463v4.185H120Zm0,0" transform="translate(-120 -128.981)" fill="#5eb3d1"/>
    <path id="Trazado_103296" data-name="Trazado 103296" d="M120,192h23.019v4.185H120Zm0,0" transform="translate(-120 -158.518)" fill="#5eb3d1"/>
    <path id="Trazado_103297" data-name="Trazado 103297" d="M176,152h48.13v4.185H176Zm0,0" transform="translate(-161.352 -128.981)" fill="#5eb3d1"/>
    <path id="Trazado_103298" data-name="Trazado 103298" d="M224,192h35.575v4.185H224Zm0,0" transform="translate(-196.796 -158.518)" fill="#5eb3d1"/>
    <path id="Trazado_103299" data-name="Trazado 103299" d="M120,232h41.852v4.185H120Zm0,0" transform="translate(-120 -188.055)" fill="#5eb3d1"/>
    <path id="Trazado_103300" data-name="Trazado 103300" d="M120,272h35.575v4.185H120Zm0,0" transform="translate(-120 -217.592)" fill="#5eb3d1"/>
  </g>
  <path id="Trazado_103301" data-name="Trazado 103301" d="M115.094,0H27.2A10.475,10.475,0,0,0,16.741,10.463V92.075H2.093A2.093,2.093,0,0,0,0,94.168v4.185a10.475,10.475,0,0,0,10.463,10.463H75.384v10.463a2.092,2.092,0,0,0,3.348,1.674l7.115-5.336,7.115,5.336a2.079,2.079,0,0,0,1.256.419,2.061,2.061,0,0,0,2.093-2.093V108.816h2.043a10.475,10.475,0,0,0,10.463-10.463V16.741h14.648a2.093,2.093,0,0,0,2.093-2.093V10.463A10.475,10.475,0,0,0,115.094,0ZM75.384,104.631H10.463a6.278,6.278,0,0,1-6.278-6.278V96.26h71.2Zm16.741,10.463L87.1,111.328a2.091,2.091,0,0,0-2.512,0l-5.022,3.766V91.722a6.178,6.178,0,0,0,1.214-.024,6.375,6.375,0,0,0,10.078,0,6.216,6.216,0,0,0,1.256.024ZM94.817,81.57a2.093,2.093,0,0,0-1.188,2.871,2.175,2.175,0,0,1-2.889,2.9,2.092,2.092,0,0,0-2.873,1.188,2.167,2.167,0,0,1-4.088,0,2.091,2.091,0,0,0-2.873-1.188,2.174,2.174,0,0,1-2.888-2.9A2.094,2.094,0,0,0,76.83,81.57a2.176,2.176,0,0,1,0-4.1A2.094,2.094,0,0,0,78.017,74.6a2.174,2.174,0,0,1,2.888-2.907A2.091,2.091,0,0,0,83.778,70.5a2.167,2.167,0,0,1,4.088,0,2.092,2.092,0,0,0,2.873,1.188,2.175,2.175,0,0,1,2.889,2.9,2.093,2.093,0,0,0,1.188,2.871,2.178,2.178,0,0,1,0,4.1ZM106.562,4.447c-.119.168-.224.345-.332.521a10.475,10.475,0,0,0-.6,1.109c-.094.209-.182.4-.264.607a10.618,10.618,0,0,0-.389,1.256c-.048.2-.109.383-.146.581a10.429,10.429,0,0,0-.2,1.942v87.89a6.172,6.172,0,0,1-8.32,5.893V89.689a6.276,6.276,0,0,0,1.675-5.126,6.393,6.393,0,0,0,0-10.087,6.382,6.382,0,0,0-7.116-7.135,6.375,6.375,0,0,0-10.078,0,6.383,6.383,0,0,0-7.115,7.135,6.391,6.391,0,0,0,0,10.087,6.292,6.292,0,0,0,1.72,5.188v2.325H20.926V10.463A6.278,6.278,0,0,1,27.2,4.185h79.52C106.665,4.267,106.621,4.361,106.562,4.447Zm14.81,8.109H108.816V10.463a6.278,6.278,0,0,1,12.556,0Zm0,0"/>
  <path id="Trazado_103302" data-name="Trazado 103302" d="M264,64h8.37v4.185H264Zm0,0" transform="translate(-194.944 -47.259)"/>
  <path id="Trazado_103303" data-name="Trazado 103303" d="M184,64h16.741v4.185H184Zm0,0" transform="translate(-135.87 -47.259)"/>
  <path id="Trazado_103304" data-name="Trazado 103304" d="M160,104h41.852v4.185H160Zm0,0" transform="translate(-118.148 -76.796)"/>
  <path id="Trazado_103305" data-name="Trazado 103305" d="M120,152h10.463v4.185H120Zm0,0" transform="translate(-88.611 -112.24)"/>
  <path id="Trazado_103306" data-name="Trazado 103306" d="M120,192h23.019v4.185H120Zm0,0" transform="translate(-88.611 -141.777)"/>
  <path id="Trazado_103307" data-name="Trazado 103307" d="M176,152h48.13v4.185H176Zm0,0" transform="translate(-129.962 -112.24)"/>
  <path id="Trazado_103308" data-name="Trazado 103308" d="M224,192h35.575v4.185H224Zm0,0" transform="translate(-165.407 -141.777)"/>
  <path id="Trazado_103309" data-name="Trazado 103309" d="M120,232h41.852v4.185H120Zm0,0" transform="translate(-88.611 -171.314)"/>
  <path id="Trazado_103310" data-name="Trazado 103310" d="M120,272h35.575v4.185H120Zm0,0" transform="translate(-88.611 -200.851)"/>
</svg>
