<svg xmlns="http://www.w3.org/2000/svg" width="157" height="157" viewBox="0 0 157 157">
  <g id="Grupo_56921" data-name="Grupo 56921" transform="translate(-404 -27882)">
    <rect id="Rectángulo_5634" data-name="Rectángulo 5634" width="157" height="157" rx="17" transform="translate(404 27882)" fill="#ffddac"/>
    <g id="_FILLED_OUTLINE" data-name="/ FILLED_OUTLINE" transform="translate(419.293 27892.137)">
      <rect id="Rectángulo_5854" data-name="Rectángulo 5854" width="48.303" height="82.805" rx="16" transform="translate(27.089 17.725)" fill="#46c89d"/>
      <path id="Trazado_103312" data-name="Trazado 103312" d="M136,152h39.678A36.227,36.227,0,0,1,211.9,188.227h0a36.227,36.227,0,0,1-36.227,36.227h-3.45A36.227,36.227,0,0,1,136,188.227Z" transform="translate(-98.56 -106.673)" fill="#f9d6b4"/>
      <path id="Trazado_103313" data-name="Trazado 103313" d="M241.421,299.451a36.125,36.125,0,0,0,13.495,2.6h3.45a36.227,36.227,0,0,0,36.227-36.227h0a36.1,36.1,0,0,0-3.194-14.895A72.6,72.6,0,0,1,241.421,299.451Z" transform="translate(-181.248 -184.268)" fill="#d4b699"/>
      <path id="Trazado_103314" data-name="Trazado 103314" d="M136,24l1.072,4.287a3.45,3.45,0,0,0,3.347,2.613h18.764a3.45,3.45,0,0,0,3.347-2.613L163.6,24Z" transform="translate(-98.56 -6.275)" fill="#00b378"/>
      <g id="Grupo_56635" data-name="Grupo 56635" transform="translate(33.99 17.725)">
        <rect id="Rectángulo_5855" data-name="Rectángulo 5855" width="6.9" height="6.9" rx="3.45" transform="translate(0 13.801)" fill="#bdecdc"/>
        <rect id="Rectángulo_5856" data-name="Rectángulo 5856" width="6.9" height="6.9" rx="3.45" transform="translate(13.801 13.801)" fill="#bdecdc"/>
        <rect id="Rectángulo_5857" data-name="Rectángulo 5857" width="6.9" height="6.9" rx="3.45" transform="translate(27.602 13.801)" fill="#bdecdc"/>
        <path id="Trazado_103315" data-name="Trazado 103315" d="M376,24h3.45v5.175H376Z" transform="translate(-320.796 -24)" fill="#bdecdc"/>
        <path id="Trazado_103316" data-name="Trazado 103316" d="M352,48h5.175v3.45H352Z" transform="translate(-301.972 -42.825)" fill="#bdecdc"/>
        <path id="Trazado_103317" data-name="Trazado 103317" d="M376,64h3.45v5.175H376Z" transform="translate(-320.796 -55.374)" fill="#bdecdc"/>
        <path id="Trazado_103318" data-name="Trazado 103318" d="M392,48h5.175v3.45H392Z" transform="translate(-333.346 -42.825)" fill="#bdecdc"/>
        <path id="Trazado_103319" data-name="Trazado 103319" d="M448,88h3.45v5.175H448Z" transform="translate(-377.27 -74.199)" fill="#bdecdc"/>
        <path id="Trazado_103320" data-name="Trazado 103320" d="M424,112h5.175v3.45H424Z" transform="translate(-358.446 -93.024)" fill="#bdecdc"/>
        <path id="Trazado_103321" data-name="Trazado 103321" d="M464,112h5.175v3.45H464Z" transform="translate(-389.82 -93.024)" fill="#bdecdc"/>
      </g>
      <path id="Trazado_103322" data-name="Trazado 103322" d="M34.976,257.4a3.45,3.45,0,0,1-3.45-3.45V232.659a3.45,3.45,0,0,1,1.011-2.44l5.89-5.89a4.879,4.879,0,0,0,0-6.9h0a4.879,4.879,0,0,0-6.9,0l-9.34,9.34a3.45,3.45,0,0,0-1.011,2.44V243.9a6.9,6.9,0,0,1-2.021,4.879L16,251.931l5.175,24.448L31.23,266.324a6.9,6.9,0,0,1,4.879-2.021h2.909a6.9,6.9,0,0,0,4.879-2.021l4.879-4.879Z" transform="translate(-4.437 -156.872)" fill="#e8bb85"/>
      <path id="Trazado_103323" data-name="Trazado 103323" d="M448,128h3.45v5.175H448Z" transform="translate(-343.281 -87.848)" fill="#bdecdc"/>
      <path id="Trazado_103324" data-name="Trazado 103324" d="M236.853,216h-41.4a3.45,3.45,0,0,0-3.45,3.45V250.5h48.3V219.45A3.45,3.45,0,0,0,236.853,216Z" transform="translate(-142.484 -156.872)" fill="#00b378"/>
      <path id="Trazado_103325" data-name="Trazado 103325" d="M236.853,296h-41.4a3.45,3.45,0,0,0-3.45,3.45v13.8h48.3v-13.8A3.45,3.45,0,0,0,236.853,296Z" transform="translate(-142.484 -219.621)" fill="#31c292"/>
      <path id="Trazado_103326" data-name="Trazado 103326" d="M234.351,248h-6.9a3.45,3.45,0,0,0-3.45,3.45v6.9h13.8v-6.9A3.45,3.45,0,0,0,234.351,248Z" transform="translate(-167.584 -181.972)" fill="#59cea7"/>
      <path id="Trazado_103327" data-name="Trazado 103327" d="M330.351,248h-6.9a3.45,3.45,0,0,0-3.45,3.45v6.9h13.8v-6.9A3.45,3.45,0,0,0,330.351,248Z" transform="translate(-242.883 -181.972)" fill="#59cea7"/>
      <circle id="Elipse_425" data-name="Elipse 425" cx="13.801" cy="13.801" r="13.801" transform="translate(59.866 83.279)" fill="#00a16c"/>
      <path id="Trazado_103328" data-name="Trazado 103328" d="M297.93,421.5a13.8,13.8,0,0,0,13.109-9.484,72.506,72.506,0,0,1-14.777,9.38A13.918,13.918,0,0,0,297.93,421.5Z" transform="translate(-224.262 -310.62)" fill="#00895c"/>
      <path id="Trazado_103329" data-name="Trazado 103329" d="M280.738,374.09l-6.4-6.395,2.44-2.44,3.955,3.956,9.753-9.753,2.318,2.561Z" transform="translate(-207.071 -269.395)" fill="#bdecdc"/>
      <path id="Trazado_103330" data-name="Trazado 103330" d="M118.9,90.351a3.454,3.454,0,0,0,3.45-3.45V83.45A3.454,3.454,0,0,0,118.9,80h-3.45A3.454,3.454,0,0,0,112,83.45V86.9a3.454,3.454,0,0,0,3.45,3.45Zm-3.45-6.9h3.45l0,3.45H115.45Z" transform="translate(-79.736 -50.199)"/>
      <path id="Trazado_103331" data-name="Trazado 103331" d="M179.45,90.351h3.45a3.454,3.454,0,0,0,3.45-3.45V83.45A3.454,3.454,0,0,0,182.9,80h-3.45A3.454,3.454,0,0,0,176,83.45V86.9a3.454,3.454,0,0,0,3.45,3.45Zm0-6.9h3.45l0,3.45H179.45Z" transform="translate(-129.935 -50.199)"/>
      <path id="Trazado_103332" data-name="Trazado 103332" d="M243.45,90.351h3.45a3.454,3.454,0,0,0,3.45-3.45V83.45A3.454,3.454,0,0,0,246.9,80h-3.45A3.454,3.454,0,0,0,240,83.45V86.9A3.454,3.454,0,0,0,243.45,90.351Zm0-6.9h3.45l0,3.45H243.45Z" transform="translate(-180.134 -50.199)"/>
      <path id="Trazado_103333" data-name="Trazado 103333" d="M77.117,43.6V21.175A5.181,5.181,0,0,0,71.942,16h-41.4a5.181,5.181,0,0,0-5.175,5.175V59.842l-8.835,8.835a5.142,5.142,0,0,0-1.516,3.66V87.026a5.142,5.142,0,0,1-1.516,3.66l-3.154,3.154,2.44,2.44,3.154-3.154a8.569,8.569,0,0,0,2.526-6.1V72.337a1.714,1.714,0,0,1,.505-1.22l9.34-9.34a3.154,3.154,0,1,1,4.461,4.461l-5.89,5.89a5.141,5.141,0,0,0-1.516,3.66V97.08a5.181,5.181,0,0,0,5.175,5.175h9.636l-1.934,1.934a5.142,5.142,0,0,1-3.66,1.516H31.672a8.569,8.569,0,0,0-6.1,2.526L15.519,118.287l2.44,2.44,10.055-10.055a5.142,5.142,0,0,1,3.66-1.516h2.909a8.569,8.569,0,0,0,6.1-2.526l2.5-2.5a37.921,37.921,0,0,0,30.488,15.376h3.45a37.952,37.952,0,0,0,0-75.9ZM62.832,19.45,62.3,21.594A1.723,1.723,0,0,1,60.623,22.9H41.859a1.723,1.723,0,0,1-1.674-1.307l-.536-2.143ZM30.539,57.4a6.637,6.637,0,0,0-1.725.228V21.175a1.727,1.727,0,0,1,1.725-1.725h5.554l.745,2.98a5.168,5.168,0,0,0,5.021,3.92H60.623a5.168,5.168,0,0,0,5.021-3.92l.745-2.98h5.553a1.727,1.727,0,0,1,1.725,1.725V43.6H35.715v16.3a6.71,6.71,0,0,0-.505-.568,6.561,6.561,0,0,0-4.67-1.934Zm0,41.4a1.727,1.727,0,0,1-1.725-1.725V75.787a1.714,1.714,0,0,1,.505-1.22l5.89-5.89a6.709,6.709,0,0,0,.505-.568V81.554a37.721,37.721,0,0,0,4.152,17.251Zm46.578,17.251h-3.45a34.541,34.541,0,0,1-34.5-34.5v-34.5H77.117a34.5,34.5,0,1,1,0,69Z"/>
      <path id="Trazado_103334" data-name="Trazado 103334" d="M376,24h3.45v5.175H376Z" transform="translate(-286.807 -6.275)"/>
      <path id="Trazado_103335" data-name="Trazado 103335" d="M352,48h5.175v3.45H352Z" transform="translate(-267.982 -25.1)"/>
      <path id="Trazado_103336" data-name="Trazado 103336" d="M376,64h3.45v5.175H376Z" transform="translate(-286.807 -37.649)"/>
      <path id="Trazado_103337" data-name="Trazado 103337" d="M392,48h5.175v3.45H392Z" transform="translate(-299.357 -25.1)"/>
      <path id="Trazado_103338" data-name="Trazado 103338" d="M448,88h3.45v5.175H448Z" transform="translate(-343.281 -56.474)"/>
      <path id="Trazado_103339" data-name="Trazado 103339" d="M424,112h5.175v3.45H424Z" transform="translate(-324.456 -75.299)"/>
      <path id="Trazado_103340" data-name="Trazado 103340" d="M448,128h3.45v5.175H448Z" transform="translate(-343.281 -87.848)"/>
      <path id="Trazado_103341" data-name="Trazado 103341" d="M464,112h5.175v3.45H464Z" transform="translate(-355.831 -75.299)"/>
      <path id="Trazado_103342" data-name="Trazado 103342" d="M230.578,208h-41.4A5.181,5.181,0,0,0,184,213.175v37.952h3.45v-5.175h7a15.526,15.526,0,1,0,30.856,0h7v5.175h3.45V213.175A5.181,5.181,0,0,0,230.578,208Zm1.725,29.327V242.5h-7.788a15.4,15.4,0,0,0-1.14-2.5l-1.12-1.965-12.378,12.378-3.956-3.956-2.44,2.44,6.4,6.4,11.452-11.452a12.07,12.07,0,1,1-5.415-6.624l1.728-2.987a15.528,15.528,0,0,0-22.4,8.273H187.45V230.426a1.727,1.727,0,0,1,1.725-1.725h41.4a1.727,1.727,0,0,1,1.725,1.725Zm-37.952-12.076v-5.175a1.727,1.727,0,0,1,1.725-1.725h6.9a1.727,1.727,0,0,1,1.725,1.725v5.175Zm20.7,0v-5.175a1.727,1.727,0,0,1,1.725-1.725h6.9a1.727,1.727,0,0,1,1.725,1.725v5.175Zm17.251.3a5.15,5.15,0,0,0-1.725-.3h-1.725v-5.175a5.181,5.181,0,0,0-5.175-5.175h-6.9a5.181,5.181,0,0,0-5.175,5.175v5.175h-3.45v-5.175a5.181,5.181,0,0,0-5.175-5.175h-6.9a5.181,5.181,0,0,0-5.175,5.175v5.175h-1.725a5.15,5.15,0,0,0-1.725.3V213.175a1.727,1.727,0,0,1,1.725-1.725h41.4a1.727,1.727,0,0,1,1.725,1.725Z" transform="translate(-136.21 -150.597)"/>
    </g>
  </g>
</svg>
