<svg xmlns="http://www.w3.org/2000/svg" width="708.001" height="583.963" viewBox="0 0 708.001 583.963">
  <g id="Grupo_55894" data-name="Grupo 55894" transform="translate(-730 -848)">
    <g id="Grupo_55892" data-name="Grupo 55892" transform="translate(806.855 848)">
      <rect id="Rectángulo_5600" data-name="Rectángulo 5600" width="631" height="525" transform="translate(0.145 0)" fill="#ffc671"/>
      <path id="Trazado_101976" data-name="Trazado 101976" d="M1182.032,860.341h78.656l3.14-272.279-81.8,1.906Z" transform="translate(-933.16 -464.502)" fill="#071a44"/>
      <path id="Trazado_101977" data-name="Trazado 101977" d="M2116.9,1101.384c-.99-.389-3.5-3.776-3.5-3.776s1.224,4.116.854,5.055c-.45,1.146-4.133,3.285-4.133,3.285s3.922-.816,4.864-.445c1.143.449,3.476,3.723,3.476,3.723s-.889-3.735-.439-4.877c.371-.943,3.717-3.462,3.717-3.462S2118,1101.814,2116.9,1101.384Z" transform="translate(-1666.098 -866.903)" fill="#fff"/>
      <path id="Trazado_101978" data-name="Trazado 101978" d="M1827.7,593.438c-.99-.389-3.5-3.776-3.5-3.776s1.224,4.116.854,5.055c-.45,1.146-4.133,3.285-4.133,3.285s3.921-.815,4.864-.445c1.142.449,3.476,3.723,3.476,3.723s-.888-3.735-.44-4.877c.371-.943,3.718-3.463,3.718-3.463S1828.8,593.868,1827.7,593.438Z" transform="translate(-1437.712 -465.766)" fill="#fff"/>
      <path id="Trazado_101979" data-name="Trazado 101979" d="M551.406,879.179s-6.373,3.136-8.007,2.794c-1.993-.417-6.5-5.828-6.5-5.828s2.416,6.168,2.073,7.808c-.415,1.987-5.107,6.7-5.107,6.7s5.844-2.484,7.831-2.068c1.64.343,6.677,5.1,6.677,5.1s-2.551-5.851-2.153-7.756C546.58,884.208,551.406,879.179,551.406,879.179Z" transform="translate(-421.286 -692.008)" fill="#fff"/>
      <path id="Trazado_101980" data-name="Trazado 101980" d="M1854.721,837.7s-6.373,3.136-8.007,2.794c-1.993-.417-6.5-5.829-6.5-5.829s2.416,6.168,2.073,7.808c-.416,1.987-5.108,6.7-5.108,6.7s5.845-2.484,7.832-2.068c1.64.343,6.676,5.1,6.676,5.1s-2.551-5.852-2.153-7.756C1849.895,842.725,1854.721,837.7,1854.721,837.7Z" transform="translate(-1450.546 -659.247)" fill="#fff"/>
      <path id="Trazado_101981" data-name="Trazado 101981" d="M2468.586,1331.764s-6.373,3.136-8.007,2.794c-1.993-.417-6.5-5.829-6.5-5.829s2.416,6.169,2.073,7.808c-.416,1.987-5.108,6.7-5.108,6.7s5.844-2.484,7.832-2.068c1.64.343,6.677,5.1,6.677,5.1s-2.551-5.852-2.152-7.756C2463.76,1336.793,2468.586,1331.764,2468.586,1331.764Z" transform="translate(-1935.331 -1049.426)" fill="#fff"/>
      <path id="Trazado_101982" data-name="Trazado 101982" d="M624.729,497.334s-2.7,1.33-3.4,1.185c-.845-.177-2.757-2.472-2.757-2.472s1.025,2.616.879,3.312c-.176.843-2.167,2.841-2.167,2.841s2.479-1.054,3.322-.877c.7.145,2.832,2.164,2.832,2.164s-1.082-2.482-.913-3.29C622.682,499.467,624.729,497.334,624.729,497.334Z" transform="translate(-487.168 -391.835)" fill="#fff"/>
      <path id="Trazado_101983" data-name="Trazado 101983" d="M1190.311,320.9s-2.7,1.33-3.4,1.185c-.845-.177-2.757-2.472-2.757-2.472s1.025,2.616.879,3.312c-.176.843-2.166,2.842-2.166,2.842s2.479-1.054,3.322-.877c.7.145,2.832,2.164,2.832,2.164s-1.082-2.482-.913-3.29C1188.264,323.036,1190.311,320.9,1190.311,320.9Z" transform="translate(-933.823 -252.503)" fill="#fff"/>
      <path id="Trazado_101984" data-name="Trazado 101984" d="M565.324,1431.273s-2.7,1.33-3.4,1.185c-.846-.177-2.758-2.472-2.758-2.472s1.025,2.616.879,3.312c-.176.843-2.166,2.842-2.166,2.842s2.479-1.054,3.322-.877c.7.145,2.832,2.164,2.832,2.164s-1.082-2.482-.913-3.29C563.277,1433.406,565.324,1431.273,565.324,1431.273Z" transform="translate(-440.255 -1129.391)" fill="#fff"/>
      <path id="Trazado_101985" data-name="Trazado 101985" d="M2106.2,686.314s-2.7,1.33-3.4,1.185c-.845-.177-2.757-2.472-2.757-2.472s1.025,2.616.879,3.312c-.176.843-2.167,2.842-2.167,2.842s2.479-1.054,3.322-.877c.7.145,2.832,2.164,2.832,2.164s-1.082-2.482-.913-3.29C2104.154,688.447,2106.2,686.314,2106.2,686.314Z" transform="translate(-1657.123 -541.078)" fill="#fff"/>
      <path id="Trazado_101986" data-name="Trazado 101986" d="M607.037,1161.7s-2.7,1.33-3.4,1.185c-.845-.177-2.757-2.472-2.757-2.472s1.025,2.616.879,3.312c-.176.843-2.166,2.842-2.166,2.842s2.479-1.054,3.321-.877c.7.146,2.832,2.164,2.832,2.164s-1.082-2.482-.913-3.29C604.99,1163.832,607.037,1161.7,607.037,1161.7Z" transform="translate(-473.197 -916.501)" fill="#fff"/>
      <path id="Trazado_101987" data-name="Trazado 101987" d="M799.011,1046.693a21.4,21.4,0,0,0,21.394,21.14H926.936a21.4,21.4,0,0,0,21.394-21.14L951.341,794.6H796Z" transform="translate(-628.301 -627.61)" fill="#0d266d"/>
      <rect id="Rectángulo_5601" data-name="Rectángulo 5601" width="132.497" height="90.724" transform="translate(179.121 199.379)" fill="#b6b6ff"/>
      <path id="Trazado_101988" data-name="Trazado 101988" d="M1545.244,588.009l-3.916-.057a1.964,1.964,0,0,0-1.986,1.929l-3.928,268.343a1.964,1.964,0,0,0,1.929,1.987l3.916.057a1.964,1.964,0,0,0,1.987-1.929L1547.173,590A1.964,1.964,0,0,0,1545.244,588.009Z" transform="translate(-1212.234 -464.414)" fill="#14357f"/>
      <rect id="Rectángulo_5602" data-name="Rectángulo 5602" width="29.045" height="9.79" rx="4.895" transform="translate(191.196 386.049)" fill="#4564e5"/>
      <path id="Trazado_101989" data-name="Trazado 101989" d="M982.381,811.249c4.042,105.221,1.074,123.666-6.309,143.211-4.972,13.165-25.237,66.816-82.015,94a152.6,152.6,0,0,1-49.446,13.992,21.316,21.316,0,0,0,14.183,5.378H965.326a21.4,21.4,0,0,0,21.394-21.14L989.73,794.6h-8.02Q982.053,802.72,982.381,811.249Z" transform="translate(-666.69 -627.61)" fill="#0c085b"/>
      <g id="Grupo_55878" data-name="Grupo 55878" transform="translate(191.196 329.917)">
        <rect id="Rectángulo_5603" data-name="Rectángulo 5603" width="29.045" height="9.79" rx="4.895" fill="#7c71cc"/>
        <rect id="Rectángulo_5604" data-name="Rectángulo 5604" width="29.045" height="9.79" rx="4.895" transform="translate(81.26)" fill="#7c71cc"/>
        <rect id="Rectángulo_5605" data-name="Rectángulo 5605" width="29.045" height="9.79" rx="4.895" transform="translate(40.63)" fill="#7c71cc"/>
        <rect id="Rectángulo_5606" data-name="Rectángulo 5606" width="29.045" height="9.79" rx="4.895" transform="translate(0 19.254)" fill="#7c71cc"/>
        <rect id="Rectángulo_5607" data-name="Rectángulo 5607" width="29.045" height="9.79" rx="4.895" transform="translate(81.26 19.254)" fill="#afafe8"/>
        <rect id="Rectángulo_5608" data-name="Rectángulo 5608" width="29.045" height="9.79" rx="4.895" transform="translate(40.63 19.254)" fill="#afafe8"/>
        <rect id="Rectángulo_5609" data-name="Rectángulo 5609" width="29.045" height="9.79" rx="4.895" transform="translate(0 37.856)" fill="#afafe8"/>
        <rect id="Rectángulo_5610" data-name="Rectángulo 5610" width="29.045" height="9.79" rx="4.895" transform="translate(81.26 37.856)" fill="#afafe8"/>
        <rect id="Rectángulo_5611" data-name="Rectángulo 5611" width="29.045" height="9.79" rx="4.895" transform="translate(40.63 37.856)" fill="#afafe8"/>
        <rect id="Rectángulo_5612" data-name="Rectángulo 5612" width="29.045" height="9.79" rx="4.895" transform="translate(40.63 56.132)" fill="#afafe8"/>
      </g>
      <rect id="Rectángulo_5613" data-name="Rectángulo 5613" width="29.045" height="9.79" rx="4.895" transform="translate(191.196 404.324)" fill="#ff6c3c"/>
      <rect id="Rectángulo_5614" data-name="Rectángulo 5614" width="29.045" height="9.79" rx="4.895" transform="translate(272.456 404.324)" fill="#4fb25b"/>
      <g id="Grupo_55879" data-name="Grupo 55879" transform="translate(231.826 386.049)">
        <rect id="Rectángulo_5615" data-name="Rectángulo 5615" width="29.045" height="9.79" rx="4.895" transform="translate(40.63)" fill="#ffc71f"/>
        <rect id="Rectángulo_5616" data-name="Rectángulo 5616" width="29.045" height="9.79" rx="4.895" transform="translate(0 18.275)" fill="#ffc71f"/>
      </g>
      <g id="Grupo_55880" data-name="Grupo 55880" transform="translate(192.501 303.606)">
        <rect id="Rectángulo_5617" data-name="Rectángulo 5617" width="17.623" height="6.73" rx="3.365" fill="#1775e5"/>
        <rect id="Rectángulo_5618" data-name="Rectángulo 5618" width="17.623" height="6.73" rx="3.365" transform="translate(30.513)" fill="#1775e5"/>
        <rect id="Rectángulo_5619" data-name="Rectángulo 5619" width="17.623" height="6.73" rx="3.365" transform="translate(59.558)" fill="#1775e5"/>
        <rect id="Rectángulo_5620" data-name="Rectángulo 5620" width="17.623" height="6.73" rx="3.365" transform="translate(90.561)" fill="#1775e5"/>
      </g>
      <path id="Trazado_101990" data-name="Trazado 101990" d="M934.831,1836.374H933.32V1842a1.964,1.964,0,0,1-1.958,1.958H907.744v.25a1.964,1.964,0,0,0,1.958,1.958h25.129a1.964,1.964,0,0,0,1.958-1.958v-5.875A1.964,1.964,0,0,0,934.831,1836.374Z" transform="translate(-716.548 -1450.325)" fill="#375dd3"/>
      <path id="Trazado_101991" data-name="Trazado 101991" d="M934.831,1569.43H933.32v5.625a1.964,1.964,0,0,1-1.958,1.958H907.744v.25a1.964,1.964,0,0,0,1.958,1.958h25.129a1.964,1.964,0,0,0,1.958-1.958v-5.875A1.964,1.964,0,0,0,934.831,1569.43Z" transform="translate(-716.548 -1239.513)" fill="#7365c4"/>
      <path id="Trazado_101992" data-name="Trazado 101992" d="M1321.279,1569.43h-1.511v5.625a1.964,1.964,0,0,1-1.958,1.958h-23.617v.25a1.964,1.964,0,0,0,1.958,1.958h25.129a1.964,1.964,0,0,0,1.958-1.958v-5.875A1.964,1.964,0,0,0,1321.279,1569.43Z" transform="translate(-1021.736 -1239.513)" fill="#6962c4"/>
      <path id="Trazado_101993" data-name="Trazado 101993" d="M1128.055,1569.43h-1.511v5.625a1.964,1.964,0,0,1-1.958,1.958h-23.618v.25a1.964,1.964,0,0,0,1.958,1.958h25.129a1.964,1.964,0,0,0,1.958-1.958v-5.875A1.964,1.964,0,0,0,1128.055,1569.43Z" transform="translate(-869.142 -1239.513)" fill="#7165c9"/>
      <path id="Trazado_101994" data-name="Trazado 101994" d="M934.831,1661H933.32v5.625a1.964,1.964,0,0,1-1.958,1.958H907.744v.25a1.964,1.964,0,0,0,1.958,1.958h25.129a1.964,1.964,0,0,0,1.958-1.958v-5.874A1.964,1.964,0,0,0,934.831,1661Z" transform="translate(-716.548 -1311.827)" fill="#6962c4"/>
      <path id="Trazado_101995" data-name="Trazado 101995" d="M1321.279,1661h-1.511v5.625a1.963,1.963,0,0,1-1.958,1.958h-23.617v.25a1.964,1.964,0,0,0,1.958,1.958h25.129a1.964,1.964,0,0,0,1.958-1.958v-5.874A1.964,1.964,0,0,0,1321.279,1661Z" transform="translate(-1021.736 -1311.827)" fill="#9e9edd"/>
      <path id="Trazado_101996" data-name="Trazado 101996" d="M1128.055,1661h-1.511v5.625a1.964,1.964,0,0,1-1.958,1.958h-23.618v.25a1.964,1.964,0,0,0,1.958,1.958h25.129a1.964,1.964,0,0,0,1.958-1.958v-5.874A1.964,1.964,0,0,0,1128.055,1661Z" transform="translate(-869.142 -1311.827)" fill="#99d"/>
      <path id="Trazado_101997" data-name="Trazado 101997" d="M934.831,1749.462H933.32v5.625a1.964,1.964,0,0,1-1.958,1.958H907.744v.25a1.964,1.964,0,0,0,1.958,1.958h25.129a1.964,1.964,0,0,0,1.958-1.958v-5.875A1.964,1.964,0,0,0,934.831,1749.462Z" transform="translate(-716.548 -1381.689)" fill="#9797dd"/>
      <path id="Trazado_101998" data-name="Trazado 101998" d="M1321.279,1749.462h-1.511v5.625a1.964,1.964,0,0,1-1.958,1.958h-23.617v.25a1.964,1.964,0,0,0,1.958,1.958h25.129a1.964,1.964,0,0,0,1.958-1.958v-5.875A1.964,1.964,0,0,0,1321.279,1749.462Z" transform="translate(-1021.736 -1381.689)" fill="#9797dd"/>
      <path id="Trazado_101999" data-name="Trazado 101999" d="M1128.055,1749.462h-1.511v5.625a1.964,1.964,0,0,1-1.958,1.958h-23.618v.25a1.964,1.964,0,0,0,1.958,1.958h25.129a1.964,1.964,0,0,0,1.958-1.958v-5.875A1.964,1.964,0,0,0,1128.055,1749.462Z" transform="translate(-869.142 -1381.689)" fill="#9797db"/>
      <path id="Trazado_102000" data-name="Trazado 102000" d="M1128.055,1836.374h-1.511V1842a1.964,1.964,0,0,1-1.958,1.958h-23.618v.25a1.964,1.964,0,0,0,1.958,1.958h25.129a1.964,1.964,0,0,0,1.958-1.958v-5.875A1.964,1.964,0,0,0,1128.055,1836.374Z" transform="translate(-869.142 -1450.325)" fill="#9797db"/>
      <path id="Trazado_102001" data-name="Trazado 102001" d="M934.831,1923.286H933.32v5.625a1.964,1.964,0,0,1-1.958,1.958H907.744v.25a1.964,1.964,0,0,0,1.958,1.958h25.129a1.964,1.964,0,0,0,1.958-1.958v-5.874A1.964,1.964,0,0,0,934.831,1923.286Z" transform="translate(-716.548 -1518.962)" fill="#f45a31"/>
      <path id="Trazado_102002" data-name="Trazado 102002" d="M1321.279,1923.286h-1.511v5.625a1.964,1.964,0,0,1-1.958,1.958h-23.617v.25a1.964,1.964,0,0,0,1.958,1.958h25.129a1.964,1.964,0,0,0,1.958-1.958v-5.874A1.964,1.964,0,0,0,1321.279,1923.286Z" transform="translate(-1021.736 -1518.962)" fill="#3d9941"/>
      <path id="Trazado_102003" data-name="Trazado 102003" d="M1321.279,1836.374h-1.511V1842a1.964,1.964,0,0,1-1.958,1.958h-23.617v.25a1.964,1.964,0,0,0,1.958,1.958h25.129a1.964,1.964,0,0,0,1.958-1.958v-5.875A1.964,1.964,0,0,0,1321.279,1836.374Z" transform="translate(-1021.736 -1450.325)" fill="#f7b614"/>
      <path id="Trazado_102004" data-name="Trazado 102004" d="M1128.055,1923.286h-1.511v5.625a1.964,1.964,0,0,1-1.958,1.958h-23.618v.25a1.964,1.964,0,0,0,1.958,1.958h25.129a1.964,1.964,0,0,0,1.958-1.958v-5.874A1.964,1.964,0,0,0,1128.055,1923.286Z" transform="translate(-869.142 -1518.962)" fill="#efa90c"/>
      <path id="Trazado_102005" data-name="Trazado 102005" d="M929.617,1444.3h-1.511v2.564a1.964,1.964,0,0,1-1.958,1.958h-12.2v.25a1.964,1.964,0,0,0,1.958,1.958h13.707a1.964,1.964,0,0,0,1.958-1.958v-2.814A1.964,1.964,0,0,0,929.617,1444.3Z" transform="translate(-721.451 -1140.697)" fill="#1264db"/>
      <path id="Trazado_102006" data-name="Trazado 102006" d="M1074.729,1444.3h-1.511v2.564a1.964,1.964,0,0,1-1.958,1.958h-12.2v.25a1.964,1.964,0,0,0,1.958,1.958h13.707a1.964,1.964,0,0,0,1.958-1.958v-2.814A1.964,1.964,0,0,0,1074.729,1444.3Z" transform="translate(-836.049 -1140.697)" fill="#1a4ee2"/>
      <path id="Trazado_102007" data-name="Trazado 102007" d="M1212.857,1444.3h-1.511v2.564a1.964,1.964,0,0,1-1.958,1.958h-12.2v.25a1.964,1.964,0,0,0,1.958,1.958h13.707a1.964,1.964,0,0,0,1.958-1.958v-2.814A1.964,1.964,0,0,0,1212.857,1444.3Z" transform="translate(-945.132 -1140.697)" fill="#1a4ee2"/>
      <path id="Trazado_102008" data-name="Trazado 102008" d="M1360.3,1444.3h-1.511v2.564a1.964,1.964,0,0,1-1.958,1.958h-12.2v.25a1.964,1.964,0,0,0,1.958,1.958H1360.3a1.964,1.964,0,0,0,1.958-1.958v-2.814A1.964,1.964,0,0,0,1360.3,1444.3Z" transform="translate(-1061.57 -1140.697)" fill="#1a4ee2"/>
      <path id="Trazado_102009" data-name="Trazado 102009" d="M933.554,437.073H813.919a15.168,15.168,0,0,0-15.152,14.477L796,512.252H951.341l-2.634-60.669A15.168,15.168,0,0,0,933.554,437.073Z" transform="translate(-628.301 -345.262)" fill="#49a6f2"/>
      <path id="Trazado_102010" data-name="Trazado 102010" d="M956.064,1003.294c-15.284,17.858-34.874,24.43-42.263,26.809-9.4,3.028-17.137,3.935-27.755,4.731-9.761.732-21.733,1.353-35.726,1.482v3.039h132.5V948.63h-6.969C975.586,961.466,972.563,984.016,956.064,1003.294Z" transform="translate(-671.199 -749.252)" fill="#a5a5f9"/>
      <path id="Trazado_102011" data-name="Trazado 102011" d="M850.32,989.989v27.555l45.942-68.913h-18.37Z" transform="translate(-671.199 -749.252)" fill="#d4d4ff"/>
      <path id="Trazado_102012" data-name="Trazado 102012" d="M850.32,953.677H978.085v85.678h4.732V948.63H850.32Z" transform="translate(-671.199 -749.252)" fill="#8c8cf4"/>
      <path id="Trazado_102013" data-name="Trazado 102013" d="M937.817,439.976a59.914,59.914,0,0,1-2.026,24.974c-.546,1.8-8.782,27.5-32.175,36.591a47.377,47.377,0,0,1-17.034,3.154c-17.974.225-48.8,1.877-90.341,4.58l-.24,5.269H951.341l-2.634-60.669A15.172,15.172,0,0,0,937.817,439.976Z" transform="translate(-628.301 -347.555)" fill="#2a8bea"/>
      <path id="Trazado_102014" data-name="Trazado 102014" d="M865.185,507.967a4.64,4.64,0,0,0-4.946,4.283L857.69,547.7a4.64,4.64,0,0,0,4.283,4.946h0a4.64,4.64,0,0,0,4.946-4.283l2.548-35.448A4.64,4.64,0,0,0,865.185,507.967Z" transform="translate(-677.01 -401.24)" fill="#6ec1f9"/>
      <rect id="Rectángulo_5621" data-name="Rectángulo 5621" width="92.686" height="6.309" rx="3.154" transform="translate(198.793 101.623)" fill="#6952cc"/>
      <rect id="Rectángulo_5622" data-name="Rectángulo 5622" width="92.686" height="6.309" rx="3.154" transform="translate(198.793 101.623)" fill="#4965db"/>
      <path id="Trazado_102015" data-name="Trazado 102015" d="M1034.035,483.736H946.4a2.531,2.531,0,0,0-2.523,2.523v1.262a2.531,2.531,0,0,0,2.176,2.5v-.658a2.477,2.477,0,0,1,2.47-2.47h83.861a2.477,2.477,0,0,1,2.47,2.47v.546a2.531,2.531,0,0,0,1.709-2.385v-1.262A2.531,2.531,0,0,0,1034.035,483.736Z" transform="translate(-745.079 -382.113)" fill="#2d84e2"/>
      <g id="Grupo_55881" data-name="Grupo 55881" transform="translate(201.584 216.476)">
        <circle id="Elipse_389" data-name="Elipse 389" cx="7.358" cy="7.358" r="7.358" transform="translate(34.975 60.531) rotate(-76.717)" fill="#1a4ee2"/>
        <path id="Trazado_102016" data-name="Trazado 102016" d="M1108.881,1184.758a29.107,29.107,0,0,0-37.045,0,4.193,4.193,0,0,0-.049,6.393h0a4.2,4.2,0,0,0,5.42.075,20.712,20.712,0,0,1,26.3,0,4.2,4.2,0,0,0,5.419-.075h0A4.193,4.193,0,0,0,1108.881,1184.758Z" transform="translate(-1046.532 -1146.949)" fill="#1a4ee2"/>
        <path id="Trazado_102017" data-name="Trazado 102017" d="M1074.334,1115.386a45.13,45.13,0,0,0-63.824,0l-.023.022a2.964,2.964,0,0,0,.173,4.327l1.884,1.634a2.971,2.971,0,0,0,4.042-.139,36.659,36.659,0,0,1,51.674,0,2.972,2.972,0,0,0,4.042.139l1.883-1.634a2.964,2.964,0,0,0,.172-4.327Z" transform="translate(-998.595 -1086.98)" fill="#1a4ee2"/>
        <path id="Trazado_102018" data-name="Trazado 102018" d="M1043.623,1047.609a60.317,60.317,0,0,0-85.3,0l-.031.03a3.957,3.957,0,0,0,.226,5.778l.383.333a3.952,3.952,0,0,0,5.38-.169,51.82,51.82,0,0,1,73.385,0,3.952,3.952,0,0,0,5.38.169l.383-.333a3.957,3.957,0,0,0,.225-5.778Z" transform="translate(-957.146 -1029.942)" fill="#1a4ee2"/>
      </g>
      <g id="Grupo_55891" data-name="Grupo 55891" transform="translate(251.195 182.132)">
        <path id="Trazado_102019" data-name="Trazado 102019" d="M1833.372,1407.682c-7.52-4.491-18.872-3.85-34.205-2.986a39.807,39.807,0,0,0-11.144,2.075,40.4,40.4,0,0,0-10.868,5.82c-3.88,2.806-6.516,5.764-11.788,11.682-1.3,1.461-3.352,3.957-7.452,8.948-4.2,5.115-5.655,7-7.189,9.895a57.7,57.7,0,0,0-2.642,6.084c-1.322,3.328-2.244,6.289-4.035,12.076-1.824,5.893-2.093,7.089-1.854,8.923.178,1.365.563,4.32,2.956,6.058,2.487,1.806,5.95,1.432,8.226.264,2.594-1.331,3.157-3.441,5.9-9.027a118.354,118.354,0,0,1,7.176-12.693,52.032,52.032,0,0,1,8.74-9.815c8.541-7.582,18.306-11.255,18.726-10.551.313.523-4.754,3.11-12.182,10.262a77.307,77.307,0,0,0-10.409,12.062c-1.059,1.565-2.585,4.368-5.638,9.973a97.269,97.269,0,0,0-6.611,13.81c-2.682,7.312-2,9.085-1.591,9.869a8.154,8.154,0,0,0,8.673,3.707c2.283-.576,3.577-2.3,7.964-9.855,5.033-8.662,4.344-8.135,5.809-10.276,3.647-5.33,7.64-8.2,14.666-13.245,6.012-4.318,11.237-8.071,12.629-6.819,1.67,1.5-2.958,9.51-5.494,13.245a56.369,56.369,0,0,1-5.309,6.57c-4.384,4.813-5.375,4.676-8.661,8.265-4.295,4.691-6.28,8.945-8.293,13.259-3.125,6.7-2.612,8.581-2.2,9.527a7.279,7.279,0,0,0,6.478,4.061c3.519-.048,6-3.234,8.24-6.11,2.523-3.239,2.24-4.51,4.534-6.609a15.116,15.116,0,0,1,6.7-3.39c5.979-1.578,23.675-6.611,27.951-8.526C1849.569,1475.979,1854.51,1420.306,1833.372,1407.682Z" transform="translate(-1626.672 -1291.061)" fill="#ef8c78"/>
        <path id="Trazado_102020" data-name="Trazado 102020" d="M2463.518,1892.842c-5.5-3.108-20.987,13.885-34.594,37.957s-20.445,45.135-14.948,48.243,21.25-12.916,34.858-36.988S2469.016,1895.95,2463.518,1892.842Z" transform="translate(-2155.748 -1676.761)" fill="#101e2b"/>
        <path id="Trazado_102021" data-name="Trazado 102021" d="M2396.562,1858.738a3.775,3.775,0,0,0-3.8.308c-8.5,5.724-18.62,25.554-18.62,25.554-4.85,9.02-9.033,18.39-13.924,27.389-1.746,3.213-4.5,8.2-2.612,10.693,1.589,2.093,5.712,1.437,7.115,1.214,19.074-3.033,41.014-49.638,35.641-59.734C2399.752,1863.017,2398.868,1860.041,2396.562,1858.738Z" transform="translate(-2112.232 -1649.823)" fill="#3366c1"/>
        <path id="Trazado_102022" data-name="Trazado 102022" d="M1804.082,1498.035c-18.212-.7-36.854,13.615-49.909,42.227-1.924,4.217-4.45,4.983-6.21,4.914-2.005-.078-3.923-1.914-5.357-4.819a9.364,9.364,0,0,0-.411,4.024c.178,1.365.563,4.32,2.956,6.058,2.487,1.806,5.95,1.432,8.226.263,2.594-1.331,3.157-3.441,5.9-9.027a118.427,118.427,0,0,1,7.176-12.693,52.024,52.024,0,0,1,8.74-9.815,58.2,58.2,0,0,1,8.745-6.374,81.237,81.237,0,0,1,10.13-8.329C1800.759,1499.826,1805.406,1498.086,1804.082,1498.035Z" transform="translate(-1626.672 -1365.242)" fill="#e87b69"/>
        <path id="Trazado_102023" data-name="Trazado 102023" d="M1923.777,1785.921c-.595,1.167-2.224,4.965-6.067,6.868-1.027.509-4.017,1.989-6.837.5a5.775,5.775,0,0,1-2.111-1.935c-1.326,3.71-.943,5.018-.619,5.755a7.279,7.279,0,0,0,6.478,4.061c3.519-.048,6-3.234,8.24-6.11,2.522-3.239,2.24-4.51,4.534-6.609a15.114,15.114,0,0,1,6.7-3.39c5.064-1.336,18.533-5.152,25.135-7.451a1.921,1.921,0,0,0-.054-1.323C1957,1771.531,1929.254,1775.17,1923.777,1785.921Z" transform="translate(-1757.536 -1583.386)" fill="#e87b69"/>
        <path id="Trazado_102024" data-name="Trazado 102024" d="M1837.111,1627.251c-7.076,9.653-11.852,21.149-13.913,22.4a6.061,6.061,0,0,1-5.593-.041,6.927,6.927,0,0,1-3.35-3.833c-1.376,4.641-.848,5.981-.508,6.633a8.154,8.154,0,0,0,8.673,3.706c2.284-.576,3.577-2.3,7.964-9.855,5.033-8.663,4.344-8.136,5.809-10.276,3.647-5.33,7.64-8.2,14.666-13.245,5.439-3.907,10.234-7.351,12.129-7.044,3.032-3.733,3.623-5.417,3.119-6.069C1864.309,1607.3,1846.141,1614.934,1837.111,1627.251Z" transform="translate(-1682.928 -1453.063)" fill="#e87b69"/>
        <path id="Trazado_102025" data-name="Trazado 102025" d="M1993.17,1441.023l-3.049-1.328c-30.893-13.45-28.711-14.5-56.792-26.522-10.46-4.479-20.42-10.1-30.985-14.326-6.56-2.623-12.98-4.93-19.342-10.935-4.378-4.132-7.044-9.125-10.143-14.508a126.857,126.857,0,0,1-7.13-14.666c-4.993-11.676-7.734-18.086-9.6-27.229-1.288-6.313-2.04-13.35-5.254-18.923-.224-.387-1.641-2.816-3.417-6.185a56.692,56.692,0,0,1-3.188-6.588c-1.732-4.68-.731-5.354-2.1-7.569-.892-1.442-2.015-2.286-8.638-5.415-5.832-2.755-6.819-2.978-9.724-4.433-4.79-2.4-4.706-3.094-10.25-6.326-7.994-4.661-7.859-3.035-14.559-7.167a95.327,95.327,0,0,0-11.108-5.748,9.729,9.729,0,0,0-5.344-.894,10.026,10.026,0,0,0-4.24,1.857c-2.729,1.774-5.758,3.048-8.533,4.747-2.1,1.283-1.178.633-13,7.008-10.97,5.914-9.012,4.993-11.512,6.254-3.128,1.578-7.912,3.888-13.86,7.585-3.157,1.963-4.537,3.008-5.432,4.906a9.41,9.41,0,0,0,.963,9.584,9.582,9.582,0,0,0,7.078,3.47c3.865.132,6.8-2.208,8.253-3.311,9.659-7.347,20.62-11,29.734-14.032,3.6-1.2,7.571-4.279,11.757-2.925.418.135,1.962.953,5.05,2.589,5.317,2.817,5.4,3.074,6.82,3.457,3.347.9,5.123.077,5.992,1.394.537.813.252,1.722-.2,3.876-.478,2.294-.631,4.649-1.131,6.938-1.431,6.555,1.408,9.4.734,19.159a49.225,49.225,0,0,1-1.17,7.713c-1.559,6.978-3.905,11.107-5.4,14.494-1.031,2.333-6.8,15.946-2.92,29.856,1.707,6.121,4.739,10.347,7.515,14.219,4.147,5.782,8.271,9.322,14.191,14.4,7.84,6.729,11.76,10.094,14.953,11.644a14,14,0,0,1,4.8,3.509c1.694,1.96,1.868,3.393,3,5.283.985,1.651,2.474,3.276,7,5.953,7.4,4.377,11.532,4.827,19.158,8.438,2.733,1.294,5.146,2.742,9.974,5.638,0,0,10.316,6.19,19.7,13.129,17.045,12.609,46.255,41.824,51.548,47.088,6.072,6.038,11.526,11.461,16.448,16.275h33.362Z" transform="translate(-1613.22 -1178.997)" fill="#fba78d"/>
        <path id="Trazado_102026" data-name="Trazado 102026" d="M1802.364,1363.776c-1.23-1.074-2.951.656-7.451-.224-4.228-.827-8.075-3.4-9.645-4.456-2.347-1.572-2.6-2.151-3.995-2.457-2.874-.632-5.3,1.057-7.74,2.4-2.519,1.392-.164-.279-12.037,4.362-14.414,5.634-15.927,7.332-22.826,8.632-4.758.9-10.254,1.869-12.083-.849a3.818,3.818,0,0,1-.6-2.12c-.007.015-.015.027-.022.041a9.411,9.411,0,0,0,.963,9.584,9.583,9.583,0,0,0,7.078,3.47c3.865.132,6.8-2.208,8.253-3.311,9.659-7.347,20.62-11,29.734-14.032,3.6-1.2,7.571-4.279,11.757-2.925.418.135,1.962.953,5.05,2.589,5.317,2.817,5.4,3.074,6.82,3.457,3.347.9,5.123.077,5.992,1.393a2.246,2.246,0,0,1,.239,1.666C1803.535,1366.434,1803.238,1364.538,1802.364,1363.776Z" transform="translate(-1613.22 -1253.49)" fill="#f79c84"/>
        <path id="Trazado_102027" data-name="Trazado 102027" d="M2088.993,1416.5c-.709-1.839-1.482-3.532-2.155-5.007-1.57-3.441-1.628-3.213-1.893-4.061-1.283-4.112-.606-5.535-.994-5.7-.23-.1-1.515,6.553-1.647,7.2-.471,2.3-.631,4.649-1.131,6.938-1.431,6.555,1.408,9.4.734,19.159a47.148,47.148,0,0,1-.846,6.2c1.759-2.815,3.416,2.558,4.6.757,3.771-5.722,5.745-16.26,5.139-19.876A34.477,34.477,0,0,0,2088.993,1416.5Z" transform="translate(-1894.107 -1289.206)" fill="#f79c84"/>
        <g id="Grupo_55890" data-name="Grupo 55890">
          <path id="Trazado_102028" data-name="Trazado 102028" d="M1272.157,870.189a10.224,10.224,0,0,0-14.414-1.126l-61.085,52.231a10.223,10.223,0,0,0-1.126,14.414l89.9,105.144a10.223,10.223,0,0,0,14.414,1.126l61.084-52.232a10.223,10.223,0,0,0,1.126-14.414Z" transform="translate(-1193.079 -866.61)" fill="#ff6c3c"/>
          <path id="Trazado_102029" data-name="Trazado 102029" d="M1516.951,919.886a2.319,2.319,0,0,0-3.27-.255L1507,925.34a2.318,2.318,0,0,0-.256,3.269l15.5,18.129a2.319,2.319,0,0,0,3.269.255l6.677-5.709a2.319,2.319,0,0,0,.255-3.27Z" transform="translate(-1440.353 -908.042)" fill="#fff"/>
          <path id="Trazado_102030" data-name="Trazado 102030" d="M1351.534,977.188l-8.891,7.6,82.137,13.083-8.927-10.44Z" transform="translate(-1311.193 -953.936)" fill="#ff8352"/>
          <path id="Trazado_102031" data-name="Trazado 102031" d="M1426.839,1346.261c-30.473,11.341-58.3,1.646-72.822-3.412a140.185,140.185,0,0,1-46.981-28l68.547,80.166a9.991,9.991,0,0,0,14.087,1.1l62.6-53.526a8.464,8.464,0,0,0,.932-11.934A87.9,87.9,0,0,1,1426.839,1346.261Z" transform="translate(-1283.074 -1220.595)" fill="#f24c25"/>
          <g id="Grupo_55882" data-name="Grupo 55882" transform="translate(22.963 47.908)">
            <path id="Trazado_102032" data-name="Trazado 102032" d="M1308.257,1095.259a2.328,2.328,0,0,0-3.283-.256l-1.874,1.6a2.328,2.328,0,0,0-.257,3.283l26.348,30.814a2.328,2.328,0,0,0,3.283.257l1.874-1.6a2.329,2.329,0,0,0,.256-3.283Z" transform="translate(-1302.285 -1094.443)" fill="#fff"/>
            <rect id="Rectángulo_5623" data-name="Rectángulo 5623" width="7.122" height="27.394" rx="3.561" transform="matrix(0.76, -0.65, 0.65, 0.76, 33.049, 43.442)" fill="#fff"/>
            <rect id="Rectángulo_5624" data-name="Rectángulo 5624" width="7.122" height="27.394" rx="3.561" transform="matrix(0.76, -0.65, 0.65, 0.76, 54.591, 68.634)" fill="#fff"/>
            <rect id="Rectángulo_5625" data-name="Rectángulo 5625" width="7.122" height="18.915" rx="3.561" transform="translate(76.667 94.452) rotate(-40.533)" fill="#fff"/>
          </g>
          <g id="Grupo_55887" data-name="Grupo 55887" transform="translate(90.911 43.58)">
            <g id="Grupo_55883" data-name="Grupo 55883">
              <path id="Trazado_102033" data-name="Trazado 102033" d="M1631.75,1073.926h0a.874.874,0,0,0-1.1.392,6.865,6.865,0,0,1-1.211,1.626,7.167,7.167,0,0,1-3.345,1.847.877.877,0,0,0-.66.971v0a.876.876,0,0,0,1.077.733,8.929,8.929,0,0,0,4.166-2.308,8.626,8.626,0,0,0,1.521-2.041A.875.875,0,0,0,1631.75,1073.926Z" transform="translate(-1625.424 -1073.86)" fill="#fff"/>
            </g>
            <g id="Grupo_55884" data-name="Grupo 55884" transform="translate(2.451 1.124)">
              <path id="Trazado_102034" data-name="Trazado 102034" d="M1644.7,1079.218h0a.875.875,0,0,0-.985.643,8.3,8.3,0,0,1-5.977,6,.879.879,0,0,0-.646.99v0a.876.876,0,0,0,1.087.708,10.055,10.055,0,0,0,7.235-7.26A.877.877,0,0,0,1644.7,1079.218Z" transform="translate(-1637.081 -1079.207)" fill="#fff"/>
            </g>
            <g id="Grupo_55885" data-name="Grupo 55885" transform="translate(3.476 2.673)">
              <path id="Trazado_102035" data-name="Trazado 102035" d="M1652.738,1086.589h0a.88.88,0,0,0-1.011.654,12.327,12.327,0,0,1-2.563,4.985,12.5,12.5,0,0,1-6.541,3.978.875.875,0,0,0-.65,1v0a.878.878,0,0,0,1.077.7,14.253,14.253,0,0,0,7.449-4.541,14.083,14.083,0,0,0,2.933-5.705A.877.877,0,0,0,1652.738,1086.589Z" transform="translate(-1641.957 -1086.574)" fill="#fff"/>
            </g>
            <g id="Grupo_55886" data-name="Grupo 55886" transform="translate(4.334 4.992)">
              <path id="Trazado_102036" data-name="Trazado 102036" d="M1660.532,1097.644h0a.875.875,0,0,0-1.089.523,18.3,18.3,0,0,1-12.746,11.4.876.876,0,0,0-.641,1.027v0a.875.875,0,0,0,1.071.674,20.057,20.057,0,0,0,13.959-12.477A.879.879,0,0,0,1660.532,1097.644Z" transform="translate(-1646.034 -1097.601)" fill="#fff"/>
            </g>
          </g>
          <g id="Grupo_55889" data-name="Grupo 55889" transform="translate(42.72 27.254)">
            <rect id="Rectángulo_5626" data-name="Rectángulo 5626" width="19.137" height="25.4" rx="9.568" transform="translate(0 12.437) rotate(-40.533)" fill="#ffc71f"/>
            <g id="Grupo_55888" data-name="Grupo 55888" transform="translate(10.006 10.754)">
              <path id="Trazado_102037" data-name="Trazado 102037" d="M1443.826,1051.734l5.5,6.434,5.112-4.371-5.5-6.434Zm5.566,5.617-4.748-5.553,4.231-3.617,4.749,5.552Z" transform="translate(-1443.826 -1047.362)" fill="#fff"/>
            </g>
            <path id="Trazado_102038" data-name="Trazado 102038" d="M1468.534,1015.155l1.106-4.249-5.444-6.8a4.021,4.021,0,0,0-.812-.086l5.622,7.017-1.244,4.779,5.157-.551,5.675,6.783a4.045,4.045,0,0,0,.082-.806l-5.511-6.587Z" transform="translate(-1449.265 -1002.384)" fill="#fff"/>
            <path id="Trazado_102039" data-name="Trazado 102039" d="M1416.321,1059.656l-4.915.487-6.059-6.644a4.026,4.026,0,0,0-.041.816l5.867,6.434,4.369-.432-1.207,4.5,5.651,6.466a4.038,4.038,0,0,0,.809.044l-5.82-6.66Z" transform="translate(-1403.396 -1041.455)" fill="#fff"/>
            <path id="Trazado_102040" data-name="Trazado 102040" d="M1449.658,1017.731l-4.589-5.535-.441.377,4.471,5.392a11.588,11.588,0,0,1,.095,2.5l.568-.032a11.381,11.381,0,0,0-.095-2.614Z" transform="translate(-1434.453 -1008.836)" fill="#fff"/>
            <path id="Trazado_102041" data-name="Trazado 102041" d="M1412.851,1039.745l-.441.377,4.755,5.393.085.022a9.588,9.588,0,0,0,2.488.567l.2-.623a11.639,11.639,0,0,1-2.458-.482Z" transform="translate(-1409.01 -1030.593)" fill="#fff"/>
            <rect id="Rectángulo_5627" data-name="Rectángulo 5627" width="0.58" height="8.807" transform="translate(7.052 6.407) rotate(-40.533)" fill="#fff"/>
            <path id="Trazado_102042" data-name="Trazado 102042" d="M1493.152,1076.656c-.108-.029-1.621-.419-2.542-.577l.212.629a19.88,19.88,0,0,0,2.1.487l4.528,5.135.441-.377-4.65-5.274Z" transform="translate(-1470.766 -1059.286)" fill="#fff"/>
            <path id="Trazado_102043" data-name="Trazado 102043" d="M1469.451,1094.315l-.583-.362a12.975,12.975,0,0,0,.1,2.782l.009.087,4.488,5.412.441-.377-4.37-5.27A9.569,9.569,0,0,1,1469.451,1094.315Z" transform="translate(-1453.557 -1073.402)" fill="#fff"/>
            <rect id="Rectángulo_5628" data-name="Rectángulo 5628" width="0.58" height="8.736" transform="translate(17.882 19.072) rotate(-40.533)" fill="#fff"/>
          </g>
          <path id="Trazado_102044" data-name="Trazado 102044" d="M1517.937,958.721a34.513,34.513,0,0,1-11.054-9.286,2.317,2.317,0,0,0-.131,3.151l15.5,18.129a2.319,2.319,0,0,0,3.269.255l6.677-5.709a2.319,2.319,0,0,0,.623-2.68A33.9,33.9,0,0,1,1517.937,958.721Z" transform="translate(-1440.356 -932.019)" fill="#f2f6f9"/>
        </g>
        <path id="Trazado_102045" data-name="Trazado 102045" d="M1866.267,1392.056c-6.607-3.746-11.976-6.324-19.907-12.052-7.334-5.3-10.08-8.391-12.023-11.184-2.113-3.036-4.74-7.818-5.729-9.619-2.7-4.91-2.59-5.318-4.125-7.517-2.417-3.46-12.169-14.367-14.717-16.3-1.8-1.363-7.64-5.784-13.193-3.47-4.811,2-6.782,7.97-6.532,12.26.054.919.273,2.859,3.311,8.253,2.906,5.159,30.979,50.773,32.585,53.118,1.963,2.865,3.526,4.8,4.073,5.493,5.37,6.842,8.254,16.442,9,18.648,4.4,12.993,27.948,37.335,40.655,38.138,15.283.965,23.523-44.682,9.02-61.1C1885.218,1402.8,1878.9,1399.217,1866.267,1392.056Z" transform="translate(-1664.498 -1233.555)" fill="#fba78d"/>
        <path id="Trazado_102046" data-name="Trazado 102046" d="M1795.39,1325.254c-3.017-3.187-4.525-4.781-7.174-5.651a8.373,8.373,0,0,0-5.27-.32,7.812,7.812,0,0,0-4.263,3.307,9.328,9.328,0,0,0-1.034,6.062,17.258,17.258,0,0,0,5.374,10.482,8.117,8.117,0,0,0,3.167,1.923,7.579,7.579,0,0,0,3.618.184c1-.2,1.663-.552,5.467-3.556,2.827-2.233,3.194-2.617,3.487-3.346a6.479,6.479,0,0,0-.135-4.463C1798.346,1329.014,1797.811,1327.812,1795.39,1325.254Z" transform="translate(-1654.66 -1223.86)" fill="#ffdad4"/>
        <path id="Trazado_102047" data-name="Trazado 102047" d="M1834.356,1388.424a7.833,7.833,0,0,0-4.349,3,7.749,7.749,0,0,0-1.33,4.576,7.223,7.223,0,0,0,1.5-.133c1-.2,1.663-.552,5.467-3.556,2.827-2.233,3.194-2.617,3.487-3.346.04-.1.075-.2.107-.3A8.1,8.1,0,0,0,1834.356,1388.424Z" transform="translate(-1695.026 -1278.488)" fill="#ffebd9"/>
        <path id="Trazado_102048" data-name="Trazado 102048" d="M1782.946,1319.283a7.812,7.812,0,0,0-4.263,3.307,9.328,9.328,0,0,0-1.034,6.062,11.872,11.872,0,0,0,.252,1.516,11.288,11.288,0,0,1,6.652-8.1,10.864,10.864,0,0,1,7.937.228,10.932,10.932,0,0,0-4.274-2.689A8.373,8.373,0,0,0,1782.946,1319.283Z" transform="translate(-1654.66 -1223.859)" fill="#ffebd9"/>
        <path id="Trazado_102049" data-name="Trazado 102049" d="M2371.2,2106.7c-8.9-9.3-19.49-21.86-38.831-36.461-16.7-12.605-28.151-21.254-45.355-26.576-6.364-1.969-15.548-4.112-29.056-9.873-4.47-1.906-8.406-3.78-11.717-5.453a28.34,28.34,0,0,0,1.307,2.659c.985,1.652,2.474,3.276,7,5.953,7.4,4.376,11.531,4.826,19.158,8.438,2.733,1.294,5.147,2.742,9.974,5.638,0,0,10.316,6.189,19.7,13.129,17.045,12.609,46.255,41.825,51.548,47.088,6.071,6.038,11.526,11.461,16.447,16.275h22.416A248.082,248.082,0,0,1,2371.2,2106.7Z" transform="translate(-2024.79 -1784.05)" fill="#f79c84"/>
        <path id="Trazado_102050" data-name="Trazado 102050" d="M2390.889,1893.945c-14,22.782-22.982,33-28.706,30.7-1.451-.582,27.42,19.234,29.205,17.73,32.579-27.458,37.3-65.975,37.3-65.975l-28.046-16.26S2407.719,1866.555,2390.889,1893.945Z" transform="translate(-2116.308 -1651.225)" fill="#6ba3db"/>
        <path id="Trazado_102051" data-name="Trazado 102051" d="M2375.941,2124.824c-5.937,7.242-10.407,10.192-13.758,8.848-1.451-.582,27.42,19.234,29.205,17.73a103.683,103.683,0,0,0,10.1-9.768c-4.044-2.325-8.167-4.837-12.351-7.571C2384.465,2131.009,2380.075,2127.914,2375.941,2124.824Z" transform="translate(-2116.308 -1860.253)" fill="#5b8ed8"/>
        <path id="Trazado_102052" data-name="Trazado 102052" d="M2542.934,1933.087c-42.516-22.8-72.181-38.868-72.181-38.868s6.786,5.708-13.708,42.27c-26.854,47.909-35.334,44.2-35.812,43.943l70.549,41.168h51.152Z" transform="translate(-2162.983 -1678.139)" fill="#0d266d"/>
        <path id="Trazado_102053" data-name="Trazado 102053" d="M2421.151,2304.17l-.022-.013Z" transform="translate(-2162.901 -2001.877)" fill="#364353"/>
        <path id="Trazado_102054" data-name="Trazado 102054" d="M2421.149,2304.169l-.02-.011Z" transform="translate(-2162.901 -2001.877)" fill="#364353"/>
        <path id="Trazado_102055" data-name="Trazado 102055" d="M2439.543,2228.373c-13.284,18.255-17.989,16.13-18.319,15.947l70.55,41.169h49C2503.654,2265.705,2461.874,2242.706,2439.543,2228.373Z" transform="translate(-2162.976 -1942.028)" fill="#081c5e"/>
      </g>
    </g>
    <g id="Grupo_55765" data-name="Grupo 55765" transform="translate(1229.999 886.973)">
      <circle id="Elipse_384" data-name="Elipse 384" cx="84.231" cy="84.231" r="84.231" fill="#ff9800"/>
      <path id="Trazado_101743" data-name="Trazado 101743" d="M6254.781,1034.053a76.18,76.18,0,0,1-144.287,34.2,71.6,71.6,0,0,1-4.771-11.793,74.771,74.771,0,0,1-2.578-11.588,76.157,76.157,0,0,1,69.046-86.737q3.155-.267,6.4-.267a75.621,75.621,0,0,1,30.017,6.164,75.1,75.1,0,0,1,20.656,13.158,75.811,75.811,0,0,1,25.515,56.867Z" transform="translate(-6094.348 -949.834)" fill="#f2edf4"/>
      <rect id="Rectángulo_5564" data-name="Rectángulo 5564" width="4.569" height="25.189" transform="translate(82.019 14.372)" fill="#d1c6c1"/>
      <rect id="Rectángulo_5565" data-name="Rectángulo 5565" width="4.569" height="25.189" transform="translate(82.019 127.35)" fill="#d1c6c1"/>
      <rect id="Rectángulo_5566" data-name="Rectángulo 5566" width="4.569" height="25.189" transform="translate(15.22 85.74) rotate(-90)" fill="#d1c6c1"/>
      <rect id="Rectángulo_5567" data-name="Rectángulo 5567" width="4.569" height="25.189" transform="translate(128.198 85.74) rotate(-90)" fill="#d1c6c1"/>
      <rect id="Rectángulo_5568" data-name="Rectángulo 5568" width="4.569" height="13.889" transform="matrix(-0.838, -0.546, 0.546, -0.838, 51.607, 137.862)" fill="#d1c6c1"/>
      <rect id="Rectángulo_5569" data-name="Rectángulo 5569" width="4.569" height="13.889" transform="matrix(-0.838, -0.546, 0.546, -0.838, 114.466, 41.313)" fill="#d1c6c1"/>
      <rect id="Rectángulo_5570" data-name="Rectángulo 5570" width="4.569" height="13.889" transform="translate(27.2 111.524) rotate(-114.655)" fill="#d1c6c1"/>
      <rect id="Rectángulo_5571" data-name="Rectángulo 5571" width="4.569" height="13.889" transform="translate(131.906 63.464) rotate(-114.656)" fill="#d1c6c1"/>
      <rect id="Rectángulo_5572" data-name="Rectángulo 5572" width="4.569" height="13.889" transform="matrix(0.398, -0.918, 0.918, 0.398, 24.779, 58.945)" fill="#d1c6c1"/>
      <rect id="Rectángulo_5573" data-name="Rectángulo 5573" width="4.569" height="13.889" transform="translate(130.484 104.765) rotate(-66.566)" fill="#d1c6c1"/>
      <rect id="Rectángulo_5574" data-name="Rectángulo 5574" width="4.568" height="13.889" transform="translate(49.737 28.35) rotate(-30.97)" fill="#d1c6c1"/>
      <rect id="Rectángulo_5575" data-name="Rectángulo 5575" width="4.569" height="13.889" transform="translate(109.022 127.134) rotate(-30.971)" fill="#d1c6c1"/>
      <circle id="Elipse_385" data-name="Elipse 385" cx="12.37" cy="12.37" r="12.37" transform="translate(71.861 71.861)" fill="#111e61"/>
      <path id="Trazado_101744" data-name="Trazado 101744" d="M6208.61,964.029l-105.465,80.84a76.355,76.355,0,0,1,3.732-36.657l65.314-50.08q3.155-.267,6.4-.267A75.621,75.621,0,0,1,6208.61,964.029Z" transform="translate(-6094.348 -949.834)" fill="#fff" opacity="0.53"/>
      <path id="Trazado_101745" data-name="Trazado 101745" d="M6230.94,983.025l-118.772,91.064a71.81,71.81,0,0,1-4.769-11.793l113.407-86.916A71.038,71.038,0,0,1,6230.94,983.025Z" transform="translate(-6096.022 -955.673)" fill="#fff" opacity="0.53"/>
      <path id="Trazado_101746" data-name="Trazado 101746" d="M6274.25,1060.059a76.221,76.221,0,0,1-113.466,66.5c39.145-5.394,98.114-24.566,109.556-90.679A75.894,75.894,0,0,1,6274.25,1060.059Z" transform="translate(-6113.819 -975.84)" opacity="0.07" style="mix-blend-mode: multiply;isolation: isolate"/>
      <g id="Grupo_55764" data-name="Grupo 55764" transform="translate(79.616 30.485)">
        <path id="Trazado_101747" data-name="Trazado 101747" d="M6248.471,1047.565h-.072l-38.639-1.036,3.713-52.237a3.131,3.131,0,0,1,3.161-2.744,2.97,2.97,0,0,1,2.754,3.169l-3.271,46.048,32.428.868a2.966,2.966,0,0,1-.073,5.932Z" transform="translate(-6209.76 -991.548)" fill="#111e61"/>
      </g>
    </g>
    <circle id="Elipse_390" data-name="Elipse 390" cx="100" cy="100" r="100" transform="translate(730 1200)" fill="#ff9800"/>
    <g id="seguro-de-equipaje" transform="translate(752.974 1237.504)">
      <path id="Trazado_102056" data-name="Trazado 102056" d="M168.975,46.4A49.451,49.451,0,1,1,207.468,126.9q-1.471,0-2.916-.083a49.455,49.455,0,0,1-46.532-49.37,50.259,50.259,0,0,1,.471-6.861A49.221,49.221,0,0,1,168.975,46.4Zm38.493,33.26a8.073,8.073,0,0,1,8.178-8.178,8.233,8.233,0,0,1,5.81,2.364,8.4,8.4,0,0,1,2.364,5.814,8.067,8.067,0,0,1,8.173-8.178,8.244,8.244,0,0,1,5.814,2.364,10.144,10.144,0,0,1,1.728,3.079,19.887,19.887,0,0,1,.631,1.918,32.7,32.7,0,0,0-65.4,0s.909-3.451,2.364-5a8.4,8.4,0,0,1,5.81-2.364,8.241,8.241,0,0,1,5.814,2.364,8.394,8.394,0,0,1,2.364,5.814,8.067,8.067,0,0,1,8.173-8.178,8.244,8.244,0,0,1,5.814,2.364A8.415,8.415,0,0,1,207.468,79.664Zm0,0" transform="translate(-95.761 -16.928)" fill="#00efd1"/>
      <path id="Trazado_102057" data-name="Trazado 102057" d="M233.1,107.446a8.415,8.415,0,0,0-2.359-5.814,8.244,8.244,0,0,0-5.814-2.364,8.068,8.068,0,0,0-8.173,8.178,8.394,8.394,0,0,0-2.364-5.814,8.241,8.241,0,0,0-5.814-2.364,8.4,8.4,0,0,0-5.81,2.364c-1.454,1.545-2.364,5-2.364,5a32.7,32.7,0,1,1,65.4,0,19.887,19.887,0,0,0-.631-1.918,10.144,10.144,0,0,0-1.728-3.079,8.244,8.244,0,0,0-5.814-2.364,8.067,8.067,0,0,0-8.173,8.178,8.4,8.4,0,0,0-2.364-5.814,8.233,8.233,0,0,0-5.81-2.364,8.073,8.073,0,0,0-8.178,8.178Zm0,0" transform="translate(-121.39 -44.71)" fill="#00acea"/>
      <path id="Trazado_102058" data-name="Trazado 102058" d="M44.322,135.75h23.9a50.259,50.259,0,0,0-.471,6.861,49.455,49.455,0,0,0,46.532,49.37l0,.083v69.368a11.856,11.856,0,0,1-11.857,11.857H90.56V192.076h-58.1v81.213H20.607A11.856,11.856,0,0,1,8.75,261.432V147.607A11.856,11.856,0,0,1,20.607,135.75Zm0,0" transform="translate(-5.489 -82.096)" fill="#fedb41"/>
      <path id="Trazado_102059" data-name="Trazado 102059" d="M68.75,378.262h58.1V419.95H68.75Zm0,0" transform="translate(-41.775 -228.757)" fill="#00acea"/>
      <path id="Trazado_102060" data-name="Trazado 102060" d="M68.75,328.262h58.1v19.762H68.75Zm0,0" transform="translate(-41.775 -198.519)" fill="#f4b844"/>
      <path id="Trazado_102061" data-name="Trazado 102061" d="M68.75,278.262h58.1v19.762H68.75Zm0,0" transform="translate(-41.775 -168.281)" fill="#00acea"/>
      <g id="Grupo_55893" data-name="Grupo 55893" transform="translate(0)">
        <path id="Trazado_102062" data-name="Trazado 102062" d="M195.154,104.928a3.163,3.163,0,0,0,3.465-2.331,12.031,12.031,0,0,1,1.556-3.577,5.255,5.255,0,0,1,3.557-1.427,5.086,5.086,0,0,1,3.546,1.4,5.292,5.292,0,0,1,1.47,3.611,3.162,3.162,0,1,0,6.324,0,5.085,5.085,0,1,1,10.17,0v24.536a1.4,1.4,0,0,1-1.453,1.38,1.466,1.466,0,0,1-1.021-.384,1.379,1.379,0,0,1-.414-1,3.169,3.169,0,0,0-6.338,0,7.672,7.672,0,0,0,2.24,5.461,7.828,7.828,0,0,0,5.533,2.243,7.681,7.681,0,0,0,7.777-7.7V102.611a5.251,5.251,0,0,1,1.368-3.579,5.16,5.16,0,0,1,3.539-1.437,5.017,5.017,0,0,1,3.52,1.4,5.282,5.282,0,0,1,1.464,3.613,3.158,3.158,0,1,0,6.316,0,4.909,4.909,0,0,1,5.01-5.016,5.089,5.089,0,0,1,3.534,1.394,7.2,7.2,0,0,1,1.058,2.024c.332.86.522,1.578.523,1.581a3.162,3.162,0,0,0,6.22-.8,35.86,35.86,0,0,0-71.721,0A3.163,3.163,0,0,0,195.154,104.928ZM207.37,80.9a29.546,29.546,0,0,1,48.662,10.837,11.5,11.5,0,0,0-11.23,2.756c-.048.045-.094.091-.137.139l-.054.06-.059-.063c-.022-.022-.043-.043-.063-.065a11.425,11.425,0,0,0-8.05-3.293,11.613,11.613,0,0,0-7.984,3.225c-.046.043-.09.088-.133.133l-.059.063-.057-.06c-.022-.025-.045-.048-.069-.071a11.493,11.493,0,0,0-16.03-.066c-.046.043-.091.088-.136.134l-.059.063-.059-.063c-.022-.023-.045-.046-.066-.068a11.451,11.451,0,0,0-11.325-2.807A29.4,29.4,0,0,1,207.37,80.9Zm0,0" transform="translate(-116.552 -39.874)" fill="#083863"/>
        <path id="Trazado_102063" data-name="Trazado 102063" d="M15.618,194.458h81.81a15.045,15.045,0,0,0,14.925-15.123V113.127A52.611,52.611,0,1,0,76.781,21.533V6.324h8.789a3.162,3.162,0,0,0,0-6.324h-58.1a3.162,3.162,0,1,0,0,6.324h8.6V50.591H15.618A15.039,15.039,0,0,0,.5,65.511V179.336A15.209,15.209,0,0,0,15.618,194.458Zm66.7-6.324H30.538V152.563H82.315Zm0-41.9H30.538V132.8H82.315Zm0-19.762H30.538V113.039H82.315Zm-6.14-95.015a46.288,46.288,0,1,1,36.032,75.344c-.916,0-1.837-.026-2.733-.079A46.308,46.308,0,0,1,65.92,60.515a47.583,47.583,0,0,1,.44-6.426,46.123,46.123,0,0,1,9.815-22.626ZM42.4,6.324H70.458V28.391a54.712,54.712,0,0,0-9.9,22.2H42.4ZM6.824,65.511a8.705,8.705,0,0,1,8.794-8.6H59.727c-.086,1.186-.178,2.422-.178,3.65a52.751,52.751,0,0,0,46.479,52.215v66.56a8.713,8.713,0,0,1-8.6,8.8H88.639V109.98a3.173,3.173,0,0,0-3.068-3.265h-58.1a3.337,3.337,0,0,0-3.261,3.265v78.154h-8.6a8.879,8.879,0,0,1-8.794-8.8Zm0,0" transform="translate(-0.5)" fill="#083863"/>
      </g>
    </g>
  </g>
</svg>
