<svg xmlns="http://www.w3.org/2000/svg" width="543.788" height="490.402" viewBox="0 0 543.788 490.402">
  <g id="Grupo_57190" data-name="Grupo 57190" transform="translate(-197.944 -1008)">
    <g id="Grupo_57189" data-name="Grupo 57189" transform="translate(2 -39)">
      <g id="Grupo_57188" data-name="Grupo 57188" transform="translate(173.498 1009.904)">
        <g id="Grupo_56965" data-name="Grupo 56965" transform="translate(410.965 222.962)">
          <g id="Grupo_56933" data-name="Grupo 56933" transform="translate(19.714 0.611)">
            <g id="Grupo_56922" data-name="Grupo 56922" transform="translate(0 99.644)">
              <g id="Grupo_56921" data-name="Grupo 56921">
                <path id="Trazado_104132" data-name="Trazado 104132" d="M491.051,272.321H356.927a.611.611,0,1,1,0-1.223H491.051a.611.611,0,1,1,0,1.223Z" transform="translate(-356.316 -271.098)" fill="#c4c4c4"/>
              </g>
            </g>
            <g id="Grupo_56924" data-name="Grupo 56924" transform="translate(0 79.717)">
              <g id="Grupo_56923" data-name="Grupo 56923">
                <path id="Trazado_104133" data-name="Trazado 104133" d="M491.051,256.024H356.927a.611.611,0,1,1,0-1.223H491.051a.611.611,0,1,1,0,1.223Z" transform="translate(-356.316 -254.801)" fill="#c4c4c4"/>
              </g>
            </g>
            <g id="Grupo_56926" data-name="Grupo 56926" transform="translate(0 59.788)">
              <g id="Grupo_56925" data-name="Grupo 56925">
                <path id="Trazado_104134" data-name="Trazado 104134" d="M491.051,239.725H356.927a.611.611,0,1,1,0-1.223H491.051a.611.611,0,1,1,0,1.223Z" transform="translate(-356.316 -238.502)" fill="#c4c4c4"/>
              </g>
            </g>
            <g id="Grupo_56928" data-name="Grupo 56928" transform="translate(0 39.859)">
              <g id="Grupo_56927" data-name="Grupo 56927">
                <path id="Trazado_104135" data-name="Trazado 104135" d="M491.051,223.426H356.927a.611.611,0,1,1,0-1.223H491.051a.611.611,0,1,1,0,1.223Z" transform="translate(-356.316 -222.203)" fill="#c4c4c4"/>
              </g>
            </g>
            <g id="Grupo_56930" data-name="Grupo 56930" transform="translate(0 19.929)">
              <g id="Grupo_56929" data-name="Grupo 56929">
                <path id="Trazado_104136" data-name="Trazado 104136" d="M491.051,207.127H356.927a.611.611,0,1,1,0-1.223H491.051a.611.611,0,1,1,0,1.223Z" transform="translate(-356.316 -205.904)" fill="#c4c4c4"/>
              </g>
            </g>
            <g id="Grupo_56932" data-name="Grupo 56932">
              <g id="Grupo_56931" data-name="Grupo 56931">
                <path id="Trazado_104137" data-name="Trazado 104137" d="M491.051,190.828H356.927a.611.611,0,1,1,0-1.223H491.051a.611.611,0,1,1,0,1.223Z" transform="translate(-356.316 -189.605)" fill="#c4c4c4"/>
              </g>
            </g>
          </g>
          <g id="Grupo_56934" data-name="Grupo 56934" transform="translate(13.281 0)">
            <path id="Trazado_104138" data-name="Trazado 104138" d="M491.82,311.123H352.278a1.222,1.222,0,0,1-1.223-1.223V190.328a1.223,1.223,0,0,1,2.445,0V308.677H491.82a1.223,1.223,0,1,1,0,2.445Z" transform="translate(-351.055 -189.105)" fill="#c4c4c4"/>
          </g>
          <g id="Grupo_56939" data-name="Grupo 56939" transform="translate(1.321 107.415)">
            <g id="Grupo_56938" data-name="Grupo 56938">
              <g id="Grupo_56937" data-name="Grupo 56937">
                <g id="Grupo_56935" data-name="Grupo 56935" transform="translate(0 0.09)">
                  <path id="Trazado_104139" data-name="Trazado 104139" d="M343.874,283.067h-.83v-5.156l-1.41.857-.361-.584,1.871-1.157h.73Z" transform="translate(-341.273 -277.027)" fill="#c4c4c4"/>
                </g>
                <g id="Grupo_56936" data-name="Grupo 56936" transform="translate(4.091)">
                  <path id="Trazado_104140" data-name="Trazado 104140" d="M348.665,280.067c0,2.007-.666,3.127-2.024,3.127s-2.022-1.12-2.022-3.127.669-3.114,2.022-3.114S348.665,278.073,348.665,280.067Zm-3.179,0c0,1.779.4,2.466,1.155,2.466s1.157-.687,1.157-2.466-.406-2.455-1.157-2.455S345.486,278.3,345.486,280.067Z" transform="translate(-344.619 -276.953)" fill="#c4c4c4"/>
                </g>
              </g>
            </g>
          </g>
          <g id="Grupo_56944" data-name="Grupo 56944" transform="translate(0.108 87.457)">
            <g id="Grupo_56943" data-name="Grupo 56943">
              <g id="Grupo_56942" data-name="Grupo 56942">
                <g id="Grupo_56940" data-name="Grupo 56940">
                  <path id="Trazado_104141" data-name="Trazado 104141" d="M343.931,262.283c0,1.13-.724,1.933-2.575,3.783h2.718l-.1.695h-3.568V266.1c2.13-2.221,2.656-2.8,2.656-3.782a.932.932,0,0,0-.994-1,1.485,1.485,0,0,0-1.228.659l-.561-.432a2.231,2.231,0,0,1,1.834-.912A1.661,1.661,0,0,1,343.931,262.283Z" transform="translate(-340.281 -260.631)" fill="#c4c4c4"/>
                </g>
                <g id="Grupo_56941" data-name="Grupo 56941" transform="translate(4.743)">
                  <path id="Trazado_104142" data-name="Trazado 104142" d="M348.206,263.745c0,2.005-.669,3.125-2.024,3.125s-2.022-1.12-2.022-3.125.666-3.114,2.022-3.114S348.206,261.751,348.206,263.745Zm-3.179,0c0,1.779.4,2.466,1.155,2.466s1.157-.687,1.157-2.466-.408-2.455-1.157-2.455S345.027,261.975,345.027,263.745Z" transform="translate(-344.16 -260.631)" fill="#c4c4c4"/>
                </g>
              </g>
            </g>
          </g>
          <g id="Grupo_56949" data-name="Grupo 56949" transform="translate(0 67.501)">
            <g id="Grupo_56948" data-name="Grupo 56948">
              <g id="Grupo_56947" data-name="Grupo 56947">
                <g id="Grupo_56945" data-name="Grupo 56945">
                  <path id="Trazado_104143" data-name="Trazado 104143" d="M343.876,245.846a1.389,1.389,0,0,1-1.173,1.393,1.392,1.392,0,0,1,1.363,1.461,1.873,1.873,0,0,1-2.058,1.851,2.27,2.27,0,0,1-1.816-.812l.5-.461a1.693,1.693,0,0,0,1.289.6,1.121,1.121,0,0,0,1.22-1.185c0-.83-.47-1.081-1.2-1.081h-.451l.1-.643h.308a1.014,1.014,0,0,0,1.091-1.065.9.9,0,0,0-1-.922,1.7,1.7,0,0,0-1.247.543l-.434-.5a2.454,2.454,0,0,1,1.726-.714A1.6,1.6,0,0,1,343.876,245.846Z" transform="translate(-340.193 -244.31)" fill="#c4c4c4"/>
                </g>
                <g id="Grupo_56946" data-name="Grupo 56946" transform="translate(4.868)">
                  <path id="Trazado_104144" data-name="Trazado 104144" d="M348.219,247.427c0,2-.668,3.124-2.022,3.124s-2.022-1.12-2.022-3.124.669-3.117,2.022-3.117S348.219,245.43,348.219,247.427Zm-3.178,0c0,1.779.4,2.465,1.155,2.465s1.155-.686,1.155-2.465-.406-2.456-1.155-2.456S345.041,245.657,345.041,247.427Z" transform="translate(-344.174 -244.31)" fill="#c4c4c4"/>
                </g>
              </g>
            </g>
          </g>
          <g id="Grupo_56954" data-name="Grupo 56954" transform="translate(0.077 47.546)">
            <g id="Grupo_56953" data-name="Grupo 56953">
              <g id="Grupo_56952" data-name="Grupo 56952">
                <g id="Grupo_56950" data-name="Grupo 56950">
                  <path id="Trazado_104145" data-name="Trazado 104145" d="M344.428,232.633h-.786v1.491h-.8v-1.491h-2.581v-.6l1.815-4.046.7.289-1.634,3.7h1.714l.072-1.626h.723v1.626h.786Z" transform="translate(-340.256 -227.99)" fill="#c4c4c4"/>
                </g>
                <g id="Grupo_56951" data-name="Grupo 56951" transform="translate(4.941)">
                  <path id="Trazado_104146" data-name="Trazado 104146" d="M348.342,231.107c0,2-.668,3.124-2.022,3.124s-2.022-1.12-2.022-3.124.666-3.117,2.022-3.117S348.342,229.11,348.342,231.107Zm-3.178,0c0,1.779.4,2.465,1.155,2.465s1.156-.686,1.156-2.465-.408-2.458-1.156-2.458S345.164,229.337,345.164,231.107Z" transform="translate(-344.297 -227.99)" fill="#c4c4c4"/>
                </g>
              </g>
            </g>
          </g>
          <g id="Grupo_56959" data-name="Grupo 56959" transform="translate(0.089 27.593)">
            <g id="Grupo_56958" data-name="Grupo 56958">
              <g id="Grupo_56957" data-name="Grupo 56957">
                <g id="Grupo_56955" data-name="Grupo 56955" transform="translate(0 0.09)">
                  <path id="Trazado_104147" data-name="Trazado 104147" d="M343.824,212.4h-2.357v1.779a2.109,2.109,0,0,1,.967-.234,1.7,1.7,0,0,1,1.714,1.912,1.966,1.966,0,0,1-2.093,2.042,2.364,2.364,0,0,1-1.789-.769l.506-.487a1.626,1.626,0,0,0,1.273.578c.759,0,1.236-.5,1.236-1.38,0-.932-.477-1.257-1.1-1.257a1.872,1.872,0,0,0-.857.208h-.649v-3.042h3.266Z" transform="translate(-340.266 -211.746)" fill="#c4c4c4"/>
                </g>
                <g id="Grupo_56956" data-name="Grupo 56956" transform="translate(4.788)">
                  <path id="Trazado_104148" data-name="Trazado 104148" d="M348.227,214.786c0,2.005-.669,3.125-2.022,3.125s-2.022-1.12-2.022-3.125.669-3.114,2.022-3.114S348.227,212.792,348.227,214.786Zm-3.178,0c0,1.779.4,2.466,1.156,2.466s1.155-.687,1.155-2.466-.406-2.455-1.155-2.455S345.049,213.016,345.049,214.786Z" transform="translate(-344.182 -211.672)" fill="#c4c4c4"/>
                </g>
              </g>
            </g>
          </g>
          <g id="Grupo_56964" data-name="Grupo 56964" transform="translate(0.208 7.636)">
            <g id="Grupo_56963" data-name="Grupo 56963">
              <g id="Grupo_56962" data-name="Grupo 56962">
                <g id="Grupo_56960" data-name="Grupo 56960">
                  <path id="Trazado_104149" data-name="Trazado 104149" d="M344.319,199.431a1.974,1.974,0,0,1-1.926,2.158c-1.471,0-2.03-1.211-2.03-2.944,0-1.977.857-3.3,2.283-3.3a2.192,2.192,0,0,1,1.247.369l-.325.553a1.757,1.757,0,0,0-.931-.263c-.874,0-1.4.912-1.445,2.3a1.7,1.7,0,0,1,3.127,1.127Zm-.841.028c0-.957-.406-1.292-.974-1.292a1.561,1.561,0,0,0-1.3.831c.035,1.318.389,1.932,1.191,1.932C343.107,200.931,343.477,200.344,343.477,199.46Z" transform="translate(-340.363 -195.35)" fill="#c4c4c4"/>
                </g>
                <g id="Grupo_56961" data-name="Grupo 56961" transform="translate(4.813)">
                  <path id="Trazado_104150" data-name="Trazado 104150" d="M348.344,198.466c0,2-.666,3.124-2.022,3.124s-2.022-1.12-2.022-3.124.669-3.116,2.022-3.116S348.344,196.47,348.344,198.466Zm-3.178,0c0,1.78.4,2.465,1.155,2.465s1.156-.685,1.156-2.465-.406-2.456-1.156-2.456S345.166,196.7,345.166,198.466Z" transform="translate(-344.299 -195.35)" fill="#c4c4c4"/>
                </g>
              </g>
            </g>
          </g>
        </g>
        <g id="Grupo_57013" data-name="Grupo 57013" transform="translate(394.54 52.586)">
          <g id="Grupo_56978" data-name="Grupo 56978" transform="translate(19.717 0.611)">
            <g id="Grupo_56967" data-name="Grupo 56967" transform="translate(0 99.643)">
              <g id="Grupo_56966" data-name="Grupo 56966">
                <path id="Trazado_104151" data-name="Trazado 104151" d="M477.619,132.979H343.5a.611.611,0,0,1,0-1.223H477.619a.611.611,0,0,1,0,1.223Z" transform="translate(-342.885 -131.756)" fill="#c4c4c4"/>
              </g>
            </g>
            <g id="Grupo_56969" data-name="Grupo 56969" transform="translate(0 79.715)">
              <g id="Grupo_56968" data-name="Grupo 56968">
                <path id="Trazado_104152" data-name="Trazado 104152" d="M477.619,116.681H343.5a.611.611,0,0,1,0-1.223H477.619a.611.611,0,0,1,0,1.223Z" transform="translate(-342.885 -115.458)" fill="#c4c4c4"/>
              </g>
            </g>
            <g id="Grupo_56971" data-name="Grupo 56971" transform="translate(0 59.785)">
              <g id="Grupo_56970" data-name="Grupo 56970">
                <path id="Trazado_104153" data-name="Trazado 104153" d="M477.619,100.382H343.5a.611.611,0,0,1,0-1.223H477.619a.611.611,0,0,1,0,1.223Z" transform="translate(-342.885 -99.159)" fill="#c4c4c4"/>
              </g>
            </g>
            <g id="Grupo_56973" data-name="Grupo 56973" transform="translate(0 39.857)">
              <g id="Grupo_56972" data-name="Grupo 56972">
                <path id="Trazado_104154" data-name="Trazado 104154" d="M477.619,84.084H343.5a.611.611,0,0,1,0-1.223H477.619a.611.611,0,0,1,0,1.223Z" transform="translate(-342.885 -82.861)" fill="#c4c4c4"/>
              </g>
            </g>
            <g id="Grupo_56975" data-name="Grupo 56975" transform="translate(0 19.928)">
              <g id="Grupo_56974" data-name="Grupo 56974">
                <path id="Trazado_104155" data-name="Trazado 104155" d="M477.619,67.785H343.5a.611.611,0,0,1,0-1.223H477.619a.611.611,0,0,1,0,1.223Z" transform="translate(-342.885 -66.562)" fill="#c4c4c4"/>
              </g>
            </g>
            <g id="Grupo_56977" data-name="Grupo 56977">
              <g id="Grupo_56976" data-name="Grupo 56976">
                <path id="Trazado_104156" data-name="Trazado 104156" d="M477.619,51.487H343.5a.611.611,0,0,1,0-1.223H477.619a.611.611,0,0,1,0,1.223Z" transform="translate(-342.885 -50.264)" fill="#c4c4c4"/>
              </g>
            </g>
          </g>
          <g id="Grupo_56979" data-name="Grupo 56979" transform="translate(13.283)">
            <path id="Trazado_104157" data-name="Trazado 104157" d="M478.39,171.782H338.846a1.221,1.221,0,0,1-1.223-1.223V50.987a1.223,1.223,0,0,1,2.445,0V169.336H478.39a1.223,1.223,0,0,1,0,2.445Z" transform="translate(-337.623 -49.764)" fill="#c4c4c4"/>
          </g>
          <g id="Grupo_56984" data-name="Grupo 56984" transform="translate(1.325 107.413)">
            <g id="Grupo_56983" data-name="Grupo 56983">
              <g id="Grupo_56982" data-name="Grupo 56982">
                <g id="Grupo_56980" data-name="Grupo 56980" transform="translate(0 0.089)">
                  <path id="Trazado_104158" data-name="Trazado 104158" d="M330.442,143.726h-.831V138.57l-1.406.857-.361-.587,1.865-1.157h.734Z" transform="translate(-327.844 -137.684)" fill="#c4c4c4"/>
                </g>
                <g id="Grupo_56981" data-name="Grupo 56981" transform="translate(4.09)">
                  <path id="Trazado_104159" data-name="Trazado 104159" d="M335.235,140.727c0,2-.669,3.124-2.022,3.124s-2.024-1.12-2.024-3.124.666-3.116,2.024-3.116S335.235,138.731,335.235,140.727Zm-3.179,0c0,1.779.4,2.465,1.157,2.465s1.155-.686,1.155-2.465-.408-2.456-1.155-2.456S332.056,138.956,332.056,140.727Z" transform="translate(-331.189 -137.611)" fill="#c4c4c4"/>
                </g>
              </g>
            </g>
          </g>
          <g id="Grupo_56989" data-name="Grupo 56989" transform="translate(0.108 87.455)">
            <g id="Grupo_56988" data-name="Grupo 56988">
              <g id="Grupo_56987" data-name="Grupo 56987">
                <g id="Grupo_56985" data-name="Grupo 56985">
                  <path id="Trazado_104160" data-name="Trazado 104160" d="M330.5,122.941c0,1.129-.721,1.933-2.576,3.783h2.719l-.1.7h-3.568v-.659c2.135-2.222,2.658-2.8,2.658-3.784a.932.932,0,0,0-1-1,1.485,1.485,0,0,0-1.228.659l-.561-.433a2.237,2.237,0,0,1,1.834-.913A1.662,1.662,0,0,1,330.5,122.941Z" transform="translate(-326.848 -121.288)" fill="#c4c4c4"/>
                </g>
                <g id="Grupo_56986" data-name="Grupo 56986" transform="translate(4.743)">
                  <path id="Trazado_104161" data-name="Trazado 104161" d="M334.772,124.4c0,2.005-.666,3.125-2.022,3.125s-2.022-1.12-2.022-3.125.67-3.116,2.022-3.116S334.772,122.408,334.772,124.4Zm-3.178,0c0,1.779.4,2.465,1.156,2.465s1.155-.686,1.155-2.465-.406-2.455-1.155-2.455S331.594,122.634,331.594,124.4Z" transform="translate(-330.727 -121.288)" fill="#c4c4c4"/>
                </g>
              </g>
            </g>
          </g>
          <g id="Grupo_56994" data-name="Grupo 56994" transform="translate(0 67.501)">
            <g id="Grupo_56993" data-name="Grupo 56993">
              <g id="Grupo_56992" data-name="Grupo 56992">
                <g id="Grupo_56990" data-name="Grupo 56990">
                  <path id="Trazado_104162" data-name="Trazado 104162" d="M330.447,106.5a1.386,1.386,0,0,1-1.175,1.39,1.393,1.393,0,0,1,1.365,1.464,1.875,1.875,0,0,1-2.062,1.851,2.286,2.286,0,0,1-1.815-.813l.5-.461a1.7,1.7,0,0,0,1.29.6,1.118,1.118,0,0,0,1.218-1.184c0-.831-.466-1.083-1.2-1.083h-.451l.1-.641h.306a1.015,1.015,0,0,0,1.092-1.066.9.9,0,0,0-1-.921,1.708,1.708,0,0,0-1.246.542l-.433-.5a2.437,2.437,0,0,1,1.723-.714A1.6,1.6,0,0,1,330.447,106.5Z" transform="translate(-326.76 -104.969)" fill="#c4c4c4"/>
                </g>
                <g id="Grupo_56991" data-name="Grupo 56991" transform="translate(4.869)">
                  <path id="Trazado_104163" data-name="Trazado 104163" d="M334.788,108.085c0,2.005-.666,3.125-2.024,3.125s-2.022-1.12-2.022-3.125.669-3.116,2.022-3.116S334.788,106.089,334.788,108.085Zm-3.179,0c0,1.779.4,2.465,1.155,2.465s1.154-.686,1.154-2.465-.4-2.456-1.154-2.456S331.609,106.315,331.609,108.085Z" transform="translate(-330.742 -104.969)" fill="#c4c4c4"/>
                </g>
              </g>
            </g>
          </g>
          <g id="Grupo_56999" data-name="Grupo 56999" transform="translate(0.076 47.546)">
            <g id="Grupo_56998" data-name="Grupo 56998">
              <g id="Grupo_56997" data-name="Grupo 56997">
                <g id="Grupo_56995" data-name="Grupo 56995">
                  <path id="Trazado_104164" data-name="Trazado 104164" d="M330.994,93.29h-.783V94.78h-.8V93.29h-2.585v-.6l1.816-4.045.7.289L327.7,92.631h1.717l.072-1.625h.724v1.625h.783Z" transform="translate(-326.822 -88.649)" fill="#c4c4c4"/>
                </g>
                <g id="Grupo_56996" data-name="Grupo 56996" transform="translate(4.944)">
                  <path id="Trazado_104165" data-name="Trazado 104165" d="M334.909,91.765c0,2-.666,3.124-2.022,3.124s-2.021-1.12-2.021-3.124.666-3.116,2.021-3.116S334.909,89.769,334.909,91.765Zm-3.179,0c0,1.779.4,2.465,1.157,2.465s1.158-.686,1.158-2.465-.408-2.456-1.158-2.456S331.729,89.994,331.729,91.765Z" transform="translate(-330.865 -88.649)" fill="#c4c4c4"/>
                </g>
              </g>
            </g>
          </g>
          <g id="Grupo_57004" data-name="Grupo 57004" transform="translate(0.093 27.591)">
            <g id="Grupo_57003" data-name="Grupo 57003">
              <g id="Grupo_57002" data-name="Grupo 57002">
                <g id="Grupo_57000" data-name="Grupo 57000" transform="translate(0 0.09)">
                  <path id="Trazado_104166" data-name="Trazado 104166" d="M330.392,73.053h-2.355v1.779A2.092,2.092,0,0,1,329,74.6a1.7,1.7,0,0,1,1.713,1.915,1.968,1.968,0,0,1-2.095,2.041,2.357,2.357,0,0,1-1.786-.768l.506-.488a1.621,1.621,0,0,0,1.27.578,1.208,1.208,0,0,0,1.24-1.382c0-.93-.481-1.255-1.1-1.255a1.878,1.878,0,0,0-.857.207h-.652V72.4h3.267Z" transform="translate(-326.836 -72.403)" fill="#c4c4c4"/>
                </g>
                <g id="Grupo_57001" data-name="Grupo 57001" transform="translate(4.788)">
                  <path id="Trazado_104167" data-name="Trazado 104167" d="M334.8,75.445c0,2.005-.669,3.125-2.024,3.125s-2.022-1.12-2.022-3.125.666-3.116,2.022-3.116S334.8,73.45,334.8,75.445Zm-3.179,0c0,1.779.4,2.466,1.155,2.466s1.157-.687,1.157-2.466-.408-2.455-1.157-2.455S331.619,73.675,331.619,75.445Z" transform="translate(-330.752 -72.329)" fill="#c4c4c4"/>
                </g>
              </g>
            </g>
          </g>
          <g id="Grupo_57009" data-name="Grupo 57009" transform="translate(0.21 7.635)">
            <g id="Grupo_57008" data-name="Grupo 57008">
              <g id="Grupo_57007" data-name="Grupo 57007">
                <g id="Grupo_57005" data-name="Grupo 57005">
                  <path id="Trazado_104168" data-name="Trazado 104168" d="M330.884,60.089a1.971,1.971,0,0,1-1.92,2.158c-1.473,0-2.032-1.211-2.032-2.943,0-1.978.855-3.3,2.28-3.3a2.193,2.193,0,0,1,1.248.369l-.324.551a1.778,1.778,0,0,0-.929-.262c-.877,0-1.4.912-1.448,2.294a1.7,1.7,0,0,1,3.124,1.129Zm-.84.027c0-.957-.4-1.291-.972-1.291a1.559,1.559,0,0,0-1.3.831c.038,1.318.39,1.932,1.195,1.932C329.676,61.589,330.044,61,330.044,60.116Z" transform="translate(-326.932 -56.008)" fill="#c4c4c4"/>
                </g>
                <g id="Grupo_57006" data-name="Grupo 57006" transform="translate(4.814)">
                  <path id="Trazado_104169" data-name="Trazado 104169" d="M334.915,59.124c0,2-.669,3.124-2.024,3.124s-2.022-1.12-2.022-3.124.666-3.116,2.022-3.116S334.915,57.128,334.915,59.124Zm-3.182,0c0,1.779.4,2.465,1.158,2.465s1.157-.686,1.157-2.465-.408-2.456-1.157-2.456S331.733,57.353,331.733,59.124Z" transform="translate(-330.869 -56.008)" fill="#c4c4c4"/>
                </g>
              </g>
            </g>
          </g>
          <g id="Grupo_57010" data-name="Grupo 57010" transform="translate(34.709 9.78)">
            <path id="Trazado_104170" data-name="Trazado 104170" d="M373.487,77.6l-18.341,35.191v39.739l88.037-4.28,22.621.611-7.948-73.975L434.624,86.5,393.663,57.763Z" transform="translate(-355.147 -57.763)" fill="#00acc1"/>
          </g>
          <g id="Grupo_57011" data-name="Grupo 57011" transform="translate(34.709 29.613)">
            <path id="Trazado_104171" data-name="Trazado 104171" d="M470.695,73.982l-23.232,23.5-42.748-3.594-20.223,18.668-18.341,25.4-11,19.958H471.22Z" transform="translate(-355.147 -73.982)" fill="#ff9800"/>
          </g>
          <g id="Grupo_57012" data-name="Grupo 57012" transform="translate(20.328 33.723)">
            <path id="Trazado_104172" data-name="Trazado 104172" d="M473.84,157.166l-36.6-39.911L421.96,132.879l-26.9-15.625-23.843,19.954-2.445-40.474-9.782-19.39-15.6,79.821Z" transform="translate(-343.385 -77.344)" fill="#616161"/>
          </g>
        </g>
        <g id="Grupo_57064" data-name="Grupo 57064" transform="translate(193.562 405.367)">
          <g id="Grupo_57026" data-name="Grupo 57026" transform="translate(19.717 0.611)">
            <g id="Grupo_57015" data-name="Grupo 57015" transform="translate(0 99.642)">
              <g id="Grupo_57014" data-name="Grupo 57014">
                <path id="Trazado_104173" data-name="Trazado 104173" d="M313.249,421.5H179.128a.611.611,0,1,1,0-1.223h134.12a.611.611,0,1,1,0,1.223Z" transform="translate(-178.517 -420.274)" fill="#c4c4c4"/>
              </g>
            </g>
            <g id="Grupo_57017" data-name="Grupo 57017" transform="translate(0 79.715)">
              <g id="Grupo_57016" data-name="Grupo 57016">
                <path id="Trazado_104174" data-name="Trazado 104174" d="M313.249,405.2H179.128a.611.611,0,0,1,0-1.223h134.12a.611.611,0,0,1,0,1.223Z" transform="translate(-178.517 -403.977)" fill="#c4c4c4"/>
              </g>
            </g>
            <g id="Grupo_57019" data-name="Grupo 57019" transform="translate(0 59.787)">
              <g id="Grupo_57018" data-name="Grupo 57018">
                <path id="Trazado_104175" data-name="Trazado 104175" d="M313.249,388.9H179.128a.611.611,0,1,1,0-1.223h134.12a.611.611,0,1,1,0,1.223Z" transform="translate(-178.517 -387.679)" fill="#c4c4c4"/>
              </g>
            </g>
            <g id="Grupo_57021" data-name="Grupo 57021" transform="translate(0 39.857)">
              <g id="Grupo_57020" data-name="Grupo 57020">
                <path id="Trazado_104176" data-name="Trazado 104176" d="M313.249,372.6H179.128a.611.611,0,0,1,0-1.223h134.12a.611.611,0,1,1,0,1.223Z" transform="translate(-178.517 -371.38)" fill="#c4c4c4"/>
              </g>
            </g>
            <g id="Grupo_57023" data-name="Grupo 57023" transform="translate(0 19.928)">
              <g id="Grupo_57022" data-name="Grupo 57022">
                <path id="Trazado_104177" data-name="Trazado 104177" d="M313.249,356.3H179.128a.611.611,0,0,1,0-1.223h134.12a.611.611,0,1,1,0,1.223Z" transform="translate(-178.517 -355.081)" fill="#c4c4c4"/>
              </g>
            </g>
            <g id="Grupo_57025" data-name="Grupo 57025">
              <g id="Grupo_57024" data-name="Grupo 57024">
                <path id="Trazado_104178" data-name="Trazado 104178" d="M313.249,340.006H179.128a.611.611,0,0,1,0-1.223h134.12a.611.611,0,1,1,0,1.223Z" transform="translate(-178.517 -338.783)" fill="#c4c4c4"/>
              </g>
            </g>
          </g>
          <g id="Grupo_57027" data-name="Grupo 57027" transform="translate(13.281)">
            <path id="Trazado_104179" data-name="Trazado 104179" d="M314.02,460.3H174.477a1.222,1.222,0,0,1-1.223-1.223V339.506a1.223,1.223,0,1,1,2.445,0V457.854H314.02a1.223,1.223,0,0,1,0,2.445Z" transform="translate(-173.254 -338.283)" fill="#c4c4c4"/>
          </g>
          <g id="Grupo_57032" data-name="Grupo 57032" transform="translate(1.323 107.413)">
            <g id="Grupo_57031" data-name="Grupo 57031">
              <g id="Grupo_57030" data-name="Grupo 57030">
                <g id="Grupo_57028" data-name="Grupo 57028" transform="translate(0 0.09)">
                  <path id="Trazado_104180" data-name="Trazado 104180" d="M166.075,432.244h-.831v-5.156l-1.409.857-.361-.586,1.87-1.155h.731Z" transform="translate(-163.474 -426.204)" fill="#c4c4c4"/>
                </g>
                <g id="Grupo_57029" data-name="Grupo 57029" transform="translate(4.091)">
                  <path id="Trazado_104181" data-name="Trazado 104181" d="M170.866,429.244c0,2.005-.669,3.125-2.024,3.125s-2.022-1.12-2.022-3.125.669-3.114,2.022-3.114S170.866,427.25,170.866,429.244Zm-3.179,0c0,1.779.4,2.466,1.155,2.466s1.157-.687,1.157-2.466-.407-2.455-1.157-2.455S167.687,427.474,167.687,429.244Z" transform="translate(-166.82 -426.13)" fill="#c4c4c4"/>
                </g>
              </g>
            </g>
          </g>
          <g id="Grupo_57037" data-name="Grupo 57037" transform="translate(0.11 87.456)">
            <g id="Grupo_57036" data-name="Grupo 57036">
              <g id="Grupo_57035" data-name="Grupo 57035">
                <g id="Grupo_57033" data-name="Grupo 57033">
                  <path id="Trazado_104182" data-name="Trazado 104182" d="M166.129,411.46c0,1.13-.721,1.932-2.573,3.783h2.718l-.1.695h-3.565v-.659c2.13-2.22,2.653-2.8,2.653-3.783a.932.932,0,0,0-.993-1,1.487,1.487,0,0,0-1.229.659l-.559-.432a2.228,2.228,0,0,1,1.832-.912A1.66,1.66,0,0,1,166.129,411.46Z" transform="translate(-162.482 -409.808)" fill="#c4c4c4"/>
                </g>
                <g id="Grupo_57034" data-name="Grupo 57034" transform="translate(4.741)">
                  <path id="Trazado_104183" data-name="Trazado 104183" d="M170.405,412.921c0,2.006-.668,3.127-2.024,3.127s-2.022-1.12-2.022-3.127.669-3.113,2.022-3.113S170.405,410.928,170.405,412.921Zm-3.179,0c0,1.779.4,2.467,1.156,2.467s1.157-.688,1.157-2.467-.406-2.454-1.157-2.454S167.226,411.152,167.226,412.921Z" transform="translate(-166.359 -409.808)" fill="#c4c4c4"/>
                </g>
              </g>
            </g>
          </g>
          <g id="Grupo_57042" data-name="Grupo 57042" transform="translate(0 67.501)">
            <g id="Grupo_57041" data-name="Grupo 57041">
              <g id="Grupo_57040" data-name="Grupo 57040">
                <g id="Grupo_57038" data-name="Grupo 57038">
                  <path id="Trazado_104184" data-name="Trazado 104184" d="M166.077,395.023a1.44,1.44,0,0,0,.19,2.854,1.874,1.874,0,0,1-2.059,1.852,2.278,2.278,0,0,1-1.816-.813l.5-.461a1.7,1.7,0,0,0,1.292.6,1.12,1.12,0,0,0,1.219-1.184c0-.83-.47-1.083-1.2-1.083h-.451l.1-.642h.307a1.015,1.015,0,0,0,1.092-1.065.9.9,0,0,0-1-.922A1.709,1.709,0,0,0,163,394.7l-.433-.5a2.449,2.449,0,0,1,1.724-.713A1.6,1.6,0,0,1,166.077,395.023Z" transform="translate(-162.392 -393.488)" fill="#c4c4c4"/>
                </g>
                <g id="Grupo_57039" data-name="Grupo 57039" transform="translate(4.869)">
                  <path id="Trazado_104185" data-name="Trazado 104185" d="M170.419,396.6c0,2.005-.668,3.125-2.022,3.125s-2.022-1.12-2.022-3.125.668-3.116,2.022-3.116S170.419,394.608,170.419,396.6Zm-3.178,0c0,1.779.4,2.465,1.156,2.465s1.155-.686,1.155-2.465-.407-2.456-1.155-2.456S167.241,394.834,167.241,396.6Z" transform="translate(-166.374 -393.488)" fill="#c4c4c4"/>
                </g>
              </g>
            </g>
          </g>
          <g id="Grupo_57047" data-name="Grupo 57047" transform="translate(0.078 47.546)">
            <g id="Grupo_57046" data-name="Grupo 57046">
              <g id="Grupo_57045" data-name="Grupo 57045">
                <g id="Grupo_57043" data-name="Grupo 57043">
                  <path id="Trazado_104186" data-name="Trazado 104186" d="M166.628,381.81h-.786V383.3h-.8V381.81h-2.582v-.6l1.815-4.046.7.289-1.636,3.694h1.718l.071-1.625h.723v1.625h.786Z" transform="translate(-162.456 -377.168)" fill="#c4c4c4"/>
                </g>
                <g id="Grupo_57044" data-name="Grupo 57044" transform="translate(4.94)">
                  <path id="Trazado_104187" data-name="Trazado 104187" d="M170.541,380.284c0,2-.668,3.124-2.022,3.124s-2.022-1.12-2.022-3.124.669-3.116,2.022-3.116S170.541,378.288,170.541,380.284Zm-3.178,0c0,1.779.4,2.464,1.155,2.464s1.155-.685,1.155-2.464-.406-2.456-1.155-2.456S167.363,378.514,167.363,380.284Z" transform="translate(-166.496 -377.168)" fill="#c4c4c4"/>
                </g>
              </g>
            </g>
          </g>
          <g id="Grupo_57052" data-name="Grupo 57052" transform="translate(0.09 27.592)">
            <g id="Grupo_57051" data-name="Grupo 57051">
              <g id="Grupo_57050" data-name="Grupo 57050">
                <g id="Grupo_57048" data-name="Grupo 57048" transform="translate(0 0.089)">
                  <path id="Trazado_104188" data-name="Trazado 104188" d="M166.025,361.573h-2.357v1.779a2.084,2.084,0,0,1,.966-.235,1.7,1.7,0,0,1,1.715,1.915,1.967,1.967,0,0,1-2.095,2.041,2.366,2.366,0,0,1-1.789-.768l.506-.487a1.63,1.63,0,0,0,1.273.577c.759,0,1.237-.5,1.237-1.383,0-.928-.478-1.253-1.1-1.253a1.887,1.887,0,0,0-.858.207h-.652v-3.043h3.27Z" transform="translate(-162.466 -360.922)" fill="#c4c4c4"/>
                </g>
                <g id="Grupo_57049" data-name="Grupo 57049" transform="translate(4.787)">
                  <path id="Trazado_104189" data-name="Trazado 104189" d="M170.427,363.963c0,2.005-.668,3.125-2.022,3.125s-2.024-1.12-2.024-3.125.668-3.114,2.024-3.114S170.427,361.969,170.427,363.963Zm-3.179,0c0,1.78.4,2.465,1.157,2.465s1.155-.685,1.155-2.465-.407-2.455-1.155-2.455S167.248,362.194,167.248,363.963Z" transform="translate(-166.381 -360.849)" fill="#c4c4c4"/>
                </g>
              </g>
            </g>
          </g>
          <g id="Grupo_57057" data-name="Grupo 57057" transform="translate(0.208 7.635)">
            <g id="Grupo_57056" data-name="Grupo 57056">
              <g id="Grupo_57055" data-name="Grupo 57055">
                <g id="Grupo_57053" data-name="Grupo 57053">
                  <path id="Trazado_104190" data-name="Trazado 104190" d="M166.518,348.608a1.975,1.975,0,0,1-1.923,2.159c-1.471,0-2.032-1.211-2.032-2.944,0-1.978.858-3.3,2.285-3.3a2.189,2.189,0,0,1,1.247.37l-.326.55a1.778,1.778,0,0,0-.93-.262c-.875,0-1.4.913-1.444,2.293a1.7,1.7,0,0,1,3.124,1.13Zm-.839.027c0-.957-.407-1.291-.977-1.291a1.555,1.555,0,0,0-1.3.831c.035,1.318.388,1.932,1.191,1.932C165.308,350.108,165.679,349.521,165.679,348.635Z" transform="translate(-162.562 -344.527)" fill="#c4c4c4"/>
                </g>
                <g id="Grupo_57054" data-name="Grupo 57054" transform="translate(4.815)">
                  <path id="Trazado_104191" data-name="Trazado 104191" d="M170.545,347.641c0,2.007-.669,3.127-2.022,3.127s-2.022-1.12-2.022-3.127.668-3.114,2.022-3.114S170.545,345.647,170.545,347.641Zm-3.178,0c0,1.779.4,2.466,1.155,2.466s1.155-.687,1.155-2.466-.406-2.455-1.155-2.455S167.367,345.872,167.367,347.641Z" transform="translate(-166.5 -344.527)" fill="#c4c4c4"/>
                </g>
              </g>
            </g>
          </g>
          <g id="Grupo_57058" data-name="Grupo 57058" transform="translate(24.512 43.269)">
            <path id="Trazado_104192" data-name="Trazado 104192" d="M199.485,373.67c-4.261,0-12.786,68.233-17.046,68.233h34.093C212.27,441.9,203.746,373.67,199.485,373.67Z" transform="translate(-182.439 -373.67)" fill="#616161"/>
          </g>
          <g id="Grupo_57059" data-name="Grupo 57059" transform="translate(115.911 60.584)">
            <path id="Trazado_104193" data-name="Trazado 104193" d="M269.908,387.831c-3.178,0-9.539,50.918-12.719,50.918H282.63C279.449,438.749,273.089,387.831,269.908,387.831Z" transform="translate(-257.189 -387.831)" fill="#616161"/>
          </g>
          <g id="Grupo_57060" data-name="Grupo 57060" transform="translate(41.558 0.391)">
            <path id="Trazado_104194" data-name="Trazado 104194" d="M224.138,338.6c-6.938,0-20.818,111.111-27.758,111.111H251.9C244.957,449.714,231.077,338.6,224.138,338.6Z" transform="translate(-196.38 -338.603)" fill="#00acc1"/>
          </g>
          <g id="Grupo_57061" data-name="Grupo 57061" transform="translate(97.804 46.412)">
            <path id="Trazado_104195" data-name="Trazado 104195" d="M258.641,376.241c-4.064,0-12.2,65.09-16.261,65.09H274.9C270.837,441.331,262.707,376.241,258.641,376.241Z" transform="translate(-242.38 -376.241)" fill="#00acc1"/>
          </g>
          <g id="Grupo_57062" data-name="Grupo 57062" transform="translate(78.24 59.752)">
            <path id="Trazado_104196" data-name="Trazado 104196" d="M239.308,387.151c-3.232,0-9.7,51.75-12.928,51.75h25.857C249,438.9,242.541,387.151,239.308,387.151Z" transform="translate(-226.38 -387.151)" fill="#ff9800"/>
          </g>
          <g id="Grupo_57063" data-name="Grupo 57063" transform="translate(130.326 82.765)">
            <path id="Trazado_104197" data-name="Trazado 104197" d="M278.2,405.972c-2.3,0-6.912,28.737-9.218,28.737h18.436C285.109,434.709,280.5,405.972,278.2,405.972Z" transform="translate(-268.978 -405.972)" fill="#ff9800"/>
          </g>
        </g>
        <g id="Grupo_57065" data-name="Grupo 57065" transform="translate(405.363 407.268)">
          <path id="Trazado_104198" data-name="Trazado 104198" d="M396.581,339.838v59.975l-58.746-15.974a59.522,59.522,0,0,0-2.224,16.114c0,33.2,27.187,60.114,60.723,60.114.084,0,.163,0,.247,0v0c33.059-.707,59.644-27.339,59.644-60.114S429.64,340.547,396.581,339.838Z" transform="translate(-335.611 -339.838)" fill="#ff9800"/>
        </g>
        <g id="Grupo_57066" data-name="Grupo 57066" transform="translate(401.69 399.896)">
          <path id="Trazado_104199" data-name="Trazado 104199" d="M332.607,377.741l58.73,16.218v-60.15h0A60.881,60.881,0,0,0,332.607,377.741Z" transform="translate(-332.607 -333.809)" fill="#00acc1"/>
        </g>
        <g id="Grupo_57075" data-name="Grupo 57075" transform="translate(25.744 392.456)">
          <g id="Grupo_57067" data-name="Grupo 57067">
            <path id="Trazado_104200" data-name="Trazado 104200" d="M87.828,327.724a66.593,66.593,0,1,0,65.054,92.884H87.828Z" transform="translate(-25.143 -327.724)" fill="#00acc1"/>
          </g>
          <g id="Grupo_57068" data-name="Grupo 57068" transform="translate(6.273 7.148)">
            <path id="Trazado_104201" data-name="Trazado 104201" d="M150.919,392.9c0,32.763-27.008,59.323-60.322,59.323S30.273,425.66,30.273,392.9,57.281,333.57,90.6,333.57,150.919,360.133,150.919,392.9Z" transform="translate(-30.273 -333.57)" fill="#fff"/>
          </g>
          <g id="Grupo_57069" data-name="Grupo 57069" transform="translate(12.781 13.549)">
            <path id="Trazado_104202" data-name="Trazado 104202" d="M98.894,339.64a54.893,54.893,0,0,0-9.482-.835C59.69,338.8,35.6,362.5,35.6,391.731s24.094,52.923,53.816,52.923c27.344,0,49.909-20.065,53.347-46.036H98.894Z" transform="translate(-35.596 -338.805)" fill="#ff9800"/>
          </g>
          <g id="Grupo_57070" data-name="Grupo 57070" transform="translate(19.671 21.007)">
            <path id="Trazado_104203" data-name="Trazado 104203" d="M135.76,390.6c0,25.238-21.162,45.7-47.263,45.7S41.231,415.84,41.231,390.6,62.392,344.9,88.5,344.9,135.76,365.364,135.76,390.6Z" transform="translate(-41.231 -344.904)" fill="#fff"/>
          </g>
          <g id="Grupo_57071" data-name="Grupo 57071" transform="translate(26.594 32.231)">
            <path id="Trazado_104204" data-name="Trazado 104204" d="M70.354,354.084C56.506,360.265,46.893,373.8,46.893,389.51c0,21.541,18.061,39,40.343,39a40.666,40.666,0,0,0,33.692-17.56H70.354Z" transform="translate(-46.893 -354.084)" fill="#616161"/>
          </g>
          <g id="Grupo_57072" data-name="Grupo 57072" transform="translate(33.06 34.905)">
            <path id="Trazado_104205" data-name="Trazado 104205" d="M119.93,389.023c0,18.088-15.167,32.751-33.872,32.751s-33.877-14.663-33.877-32.751,15.167-32.752,33.877-32.752S119.93,370.935,119.93,389.023Z" transform="translate(-52.181 -356.271)" fill="#fff"/>
          </g>
          <g id="Grupo_57073" data-name="Grupo 57073" transform="translate(40.574 38.696)">
            <path id="Trazado_104206" data-name="Trazado 104206" d="M113.953,386.259c0,14.855-12.454,26.893-27.812,26.893s-27.815-12.038-27.815-26.893,12.452-26.888,27.815-26.888S113.953,371.41,113.953,386.259Z" transform="translate(-58.326 -359.371)" fill="#00acc1"/>
          </g>
          <g id="Grupo_57074" data-name="Grupo 57074" transform="translate(46.366 44.292)">
            <path id="Trazado_104207" data-name="Trazado 104207" d="M107.107,385.239c0,11.761-9.861,21.3-22.021,21.3S63.063,397,63.063,385.239s9.858-21.291,22.023-21.291S107.107,373.482,107.107,385.239Z" transform="translate(-63.063 -363.948)" fill="#fff"/>
          </g>
        </g>
        <g id="Grupo_57076" data-name="Grupo 57076" transform="translate(499.817 238.147)">
          <path id="Trazado_104208" data-name="Trazado 104208" d="M412.859,215.711l7.289-14.188,7.129,14.188v85.5H412.859Z" transform="translate(-412.859 -201.523)" fill="#616161"/>
        </g>
        <g id="Grupo_57077" data-name="Grupo 57077" transform="translate(516.503 284.044)">
          <path id="Trazado_104209" data-name="Trazado 104209" d="M440.923,253.248l-7.129-14.188-7.289,14.188v39.6h14.417Z" transform="translate(-426.506 -239.061)" fill="#00acc1"/>
        </g>
        <g id="Grupo_57078" data-name="Grupo 57078" transform="translate(465.251 238.147)">
          <path id="Trazado_104210" data-name="Trazado 104210" d="M384.59,215.711l7.286-14.188L399,215.711v85.5H384.59Z" transform="translate(-384.59 -201.523)" fill="#616161"/>
        </g>
        <g id="Grupo_57079" data-name="Grupo 57079" transform="translate(482.335 254.219)">
          <path id="Trazado_104211" data-name="Trazado 104211" d="M412.98,228.856l-7.129-14.188-7.289,14.188v69.428H412.98Z" transform="translate(-398.563 -214.668)" fill="#d7df23"/>
        </g>
        <g id="Grupo_57080" data-name="Grupo 57080" transform="translate(447.905 284.044)">
          <path id="Trazado_104212" data-name="Trazado 104212" d="M384.819,253.248l-7.129-14.188L370.4,253.248v39.6h14.415Z" transform="translate(-370.404 -239.061)" fill="#00acc1"/>
        </g>
        <g id="Grupo_57093" data-name="Grupo 57093" transform="translate(24.314 240.022)">
          <g id="Grupo_57082" data-name="Grupo 57082" transform="translate(0 104.13)">
            <g id="Grupo_57081" data-name="Grupo 57081">
              <path id="Trazado_104213" data-name="Trazado 104213" d="M197.244,289.442H24.6a.612.612,0,1,1,0-1.223H197.244a.612.612,0,1,1,0,1.223Z" transform="translate(-23.974 -288.219)" fill="#c4c4c4"/>
            </g>
          </g>
          <g id="Grupo_57084" data-name="Grupo 57084" transform="translate(0 83.306)">
            <g id="Grupo_57083" data-name="Grupo 57083">
              <path id="Trazado_104214" data-name="Trazado 104214" d="M197.244,272.411H24.6a.612.612,0,1,1,0-1.223H197.244a.612.612,0,1,1,0,1.223Z" transform="translate(-23.974 -271.188)" fill="#c4c4c4"/>
            </g>
          </g>
          <g id="Grupo_57086" data-name="Grupo 57086" transform="translate(0 62.479)">
            <g id="Grupo_57085" data-name="Grupo 57085">
              <path id="Trazado_104215" data-name="Trazado 104215" d="M197.244,255.378H24.6a.612.612,0,1,1,0-1.223H197.244a.612.612,0,1,1,0,1.223Z" transform="translate(-23.974 -254.155)" fill="#c4c4c4"/>
            </g>
          </g>
          <g id="Grupo_57088" data-name="Grupo 57088" transform="translate(0 41.654)">
            <g id="Grupo_57087" data-name="Grupo 57087">
              <path id="Trazado_104216" data-name="Trazado 104216" d="M197.244,238.346H24.6a.612.612,0,1,1,0-1.223H197.244a.612.612,0,1,1,0,1.223Z" transform="translate(-23.974 -237.123)" fill="#c4c4c4"/>
            </g>
          </g>
          <g id="Grupo_57090" data-name="Grupo 57090" transform="translate(0 20.827)">
            <g id="Grupo_57089" data-name="Grupo 57089">
              <path id="Trazado_104217" data-name="Trazado 104217" d="M197.244,221.313H24.6a.612.612,0,1,1,0-1.223H197.244a.612.612,0,1,1,0,1.223Z" transform="translate(-23.974 -220.09)" fill="#c4c4c4"/>
            </g>
          </g>
          <g id="Grupo_57092" data-name="Grupo 57092" transform="translate(0 0)">
            <g id="Grupo_57091" data-name="Grupo 57091">
              <path id="Trazado_104218" data-name="Trazado 104218" d="M197.244,204.28H24.6a.612.612,0,1,1,0-1.223H197.244a.612.612,0,1,1,0,1.223Z" transform="translate(-23.974 -203.057)" fill="#c4c4c4"/>
            </g>
          </g>
        </g>
        <g id="Grupo_57094" data-name="Grupo 57094" transform="translate(27.774 248.335)">
          <path id="Trazado_104219" data-name="Trazado 104219" d="M28.836,265.518l-2.032-1.43,28.822-39.069,29.365,27.017,30.461-42.179,26.19,42.33,50.481-29.367,1.281,2.1-52.617,30.609-25.5-41.207L85.375,255.747,55.988,228.71Z" transform="translate(-26.804 -209.856)" fill="#616161"/>
        </g>
        <g id="Grupo_57095" data-name="Grupo 57095" transform="translate(111.207 244.965)">
          <path id="Trazado_104220" data-name="Trazado 104220" d="M103.831,212.48a3.913,3.913,0,1,1-3.886-4.38A4.154,4.154,0,0,1,103.831,212.48Z" transform="translate(-94.81 -206.877)" fill="#fff"/>
          <path id="Trazado_104221" data-name="Trazado 104221" d="M100.173,218.3a5.622,5.622,0,1,1,5.138-5.6A5.388,5.388,0,0,1,100.173,218.3Zm0-8.757a3.208,3.208,0,1,0,2.634,3.157A2.933,2.933,0,0,0,100.173,209.545Z" transform="translate(-95.038 -207.1)" fill="#616161"/>
        </g>
        <g id="Grupo_57096" data-name="Grupo 57096" transform="translate(81.003 286.352)">
          <path id="Trazado_104222" data-name="Trazado 104222" d="M79.129,246.328a3.913,3.913,0,1,1-3.883-4.38A4.154,4.154,0,0,1,79.129,246.328Z" transform="translate(-70.108 -240.725)" fill="#fff"/>
          <path id="Trazado_104223" data-name="Trazado 104223" d="M75.474,252.151a5.622,5.622,0,1,1,5.135-5.6A5.39,5.39,0,0,1,75.474,252.151Zm0-8.757a3.208,3.208,0,1,0,2.633,3.157A2.934,2.934,0,0,0,75.474,243.393Z" transform="translate(-70.336 -240.948)" fill="#616161"/>
        </g>
        <g id="Grupo_57097" data-name="Grupo 57097" transform="translate(137.902 286.352)">
          <path id="Trazado_104224" data-name="Trazado 104224" d="M125.665,246.328a3.913,3.913,0,1,1-3.886-4.38A4.155,4.155,0,0,1,125.665,246.328Z" transform="translate(-116.643 -240.725)" fill="#fff"/>
          <path id="Trazado_104225" data-name="Trazado 104225" d="M122.008,252.151a5.622,5.622,0,1,1,5.138-5.6A5.389,5.389,0,0,1,122.008,252.151Zm0-8.757a3.208,3.208,0,1,0,2.634,3.157A2.934,2.934,0,0,0,122.008,243.393Z" transform="translate(-116.871 -240.948)" fill="#616161"/>
        </g>
        <g id="Grupo_57098" data-name="Grupo 57098" transform="translate(188.597 256.749)">
          <path id="Trazado_104226" data-name="Trazado 104226" d="M167.124,222.114a3.912,3.912,0,1,1-3.885-4.377A4.154,4.154,0,0,1,167.124,222.114Z" transform="translate(-158.103 -216.514)" fill="#fff"/>
          <path id="Trazado_104227" data-name="Trazado 104227" d="M163.468,227.94a5.622,5.622,0,1,1,5.137-5.6A5.391,5.391,0,0,1,163.468,227.94Zm0-8.757a3.208,3.208,0,1,0,2.633,3.155A2.933,2.933,0,0,0,163.468,219.182Z" transform="translate(-158.331 -216.737)" fill="#616161"/>
        </g>
        <g id="Grupo_57099" data-name="Grupo 57099" transform="translate(22.446 296.458)">
          <path id="Trazado_104228" data-name="Trazado 104228" d="M31.034,254.59a4.118,4.118,0,0,1-3.8,4.38,4.424,4.424,0,0,1,0-8.757A4.118,4.118,0,0,1,31.034,254.59Z" transform="translate(-22.223 -248.99)" fill="#fff"/>
          <path id="Trazado_104229" data-name="Trazado 104229" d="M27.462,260.416c-2.765,0-5.016-2.513-5.016-5.6s2.251-5.6,5.016-5.6,5.018,2.513,5.018,5.6S30.23,260.416,27.462,260.416Zm0-8.757a3.223,3.223,0,0,0,0,6.312,3.222,3.222,0,0,0,0-6.312Z" transform="translate(-22.446 -249.213)" fill="#616161"/>
        </g>
        <g id="Grupo_57100" data-name="Grupo 57100" transform="translate(51.569 259.247)">
          <path id="Trazado_104230" data-name="Trazado 104230" d="M55.06,224.157a4.156,4.156,0,0,1-3.886,4.38,4.41,4.41,0,0,1,0-8.757A4.155,4.155,0,0,1,55.06,224.157Z" transform="translate(-46.036 -218.557)" fill="#fff"/>
          <path id="Trazado_104231" data-name="Trazado 104231" d="M51.4,229.983a5.622,5.622,0,1,1,5.138-5.6A5.392,5.392,0,0,1,51.4,229.983Zm0-8.757a3.208,3.208,0,0,0,0,6.312,3.208,3.208,0,0,0,0-6.312Z" transform="translate(-46.264 -218.78)" fill="#616161"/>
        </g>
        <g id="Grupo_57108" data-name="Grupo 57108" transform="translate(35.109 293.27)">
          <g id="Grupo_57101" data-name="Grupo 57101" transform="translate(9.199 3.93)">
            <path id="Trazado_104232" data-name="Trazado 104232" d="M107.111,290.338,89.024,257.61l-9.676,17.574-38.874,2.241-.148-2.441L77.8,272.822l11.214-20.368L106.95,284.9l16.787-35.078,49.509,19.4-.932,2.269L125,252.951Z" transform="translate(-40.326 -249.82)" fill="#ff9800"/>
          </g>
          <g id="Grupo_57102" data-name="Grupo 57102" transform="translate(88.783)">
            <path id="Trazado_104233" data-name="Trazado 104233" d="M114.205,251.986a3.913,3.913,0,1,1-3.886-4.38A4.154,4.154,0,0,1,114.205,251.986Z" transform="translate(-105.184 -246.383)" fill="#fff"/>
            <path id="Trazado_104234" data-name="Trazado 104234" d="M110.547,257.809a5.622,5.622,0,1,1,5.138-5.6A5.389,5.389,0,0,1,110.547,257.809Zm0-8.757a3.208,3.208,0,1,0,2.634,3.157A2.933,2.933,0,0,0,110.547,249.051Z" transform="translate(-105.412 -246.606)" fill="#d7df23"/>
          </g>
          <g id="Grupo_57103" data-name="Grupo 57103" transform="translate(136.514 18.859)">
            <path id="Trazado_104235" data-name="Trazado 104235" d="M153.245,267.41a3.914,3.914,0,1,1-3.886-4.38A4.156,4.156,0,0,1,153.245,267.41Z" transform="translate(-144.221 -261.807)" fill="#fff"/>
            <path id="Trazado_104236" data-name="Trazado 104236" d="M149.587,273.233a5.622,5.622,0,1,1,5.138-5.6A5.391,5.391,0,0,1,149.587,273.233Zm0-8.757a3.208,3.208,0,1,0,2.634,3.157A2.935,2.935,0,0,0,149.587,264.475Z" transform="translate(-144.449 -262.03)" fill="#d7df23"/>
          </g>
          <g id="Grupo_57104" data-name="Grupo 57104" transform="translate(70.767 36.126)">
            <path id="Trazado_104237" data-name="Trazado 104237" d="M99.472,281.531a3.913,3.913,0,1,1-3.886-4.38A4.155,4.155,0,0,1,99.472,281.531Z" transform="translate(-90.45 -275.928)" fill="#fff"/>
            <path id="Trazado_104238" data-name="Trazado 104238" d="M95.815,287.354a5.622,5.622,0,1,1,5.138-5.6A5.389,5.389,0,0,1,95.815,287.354Zm0-8.757a3.208,3.208,0,1,0,2.634,3.157A2.934,2.934,0,0,0,95.815,278.6Z" transform="translate(-90.678 -276.151)" fill="#d7df23"/>
          </g>
          <g id="Grupo_57105" data-name="Grupo 57105" transform="translate(53.241 4.377)">
            <path id="Trazado_104239" data-name="Trazado 104239" d="M85.141,255.566a3.914,3.914,0,1,1-3.886-4.38A4.155,4.155,0,0,1,85.141,255.566Z" transform="translate(-76.117 -249.963)" fill="#fff"/>
            <path id="Trazado_104240" data-name="Trazado 104240" d="M81.483,261.389a5.622,5.622,0,1,1,5.138-5.6A5.39,5.39,0,0,1,81.483,261.389Zm0-8.757a3.208,3.208,0,1,0,2.634,3.157A2.934,2.934,0,0,0,81.483,252.631Z" transform="translate(-76.345 -250.186)" fill="#d7df23"/>
          </g>
          <g id="Grupo_57106" data-name="Grupo 57106" transform="translate(42.311 22.51)">
            <path id="Trazado_104241" data-name="Trazado 104241" d="M76.2,270.4a3.915,3.915,0,1,1-3.887-4.38A4.156,4.156,0,0,1,76.2,270.4Z" transform="translate(-67.178 -264.793)" fill="#fff"/>
            <path id="Trazado_104242" data-name="Trazado 104242" d="M72.545,276.219a5.622,5.622,0,1,1,5.139-5.6A5.391,5.391,0,0,1,72.545,276.219Zm0-8.757a3.207,3.207,0,1,0,2.635,3.157A2.935,2.935,0,0,0,72.545,267.461Z" transform="translate(-67.406 -265.016)" fill="#d7df23"/>
          </g>
          <g id="Grupo_57107" data-name="Grupo 57107" transform="translate(0 25.737)">
            <path id="Trazado_104243" data-name="Trazado 104243" d="M41.6,273.035a4.155,4.155,0,0,1-3.886,4.377,4.41,4.41,0,0,1,0-8.757A4.155,4.155,0,0,1,41.6,273.035Z" transform="translate(-32.574 -267.432)" fill="#fff"/>
            <path id="Trazado_104244" data-name="Trazado 104244" d="M37.941,278.858a5.622,5.622,0,0,1,0-11.2,5.622,5.622,0,0,1,0,11.2Zm0-8.757a3.207,3.207,0,0,0,0,6.312,3.208,3.208,0,0,0,0-6.312Z" transform="translate(-32.802 -267.655)" fill="#d7df23"/>
          </g>
        </g>
        <g id="Grupo_57119" data-name="Grupo 57119" transform="translate(213.615 45.968)">
          <g id="Grupo_57109" data-name="Grupo 57109" transform="translate(72.397 60.932)">
            <path id="Trazado_104245" data-name="Trazado 104245" d="M238,126.107a23.212,23.212,0,0,0,22.073-27.323l32.986-4.6a57.324,57.324,0,0,1,.668,8.724A56.5,56.5,0,0,1,238.21,159.4Z" transform="translate(-238.001 -94.185)" fill="#00acc1"/>
          </g>
          <g id="Grupo_57110" data-name="Grupo 57110" transform="translate(85.269 24.041)">
            <path id="Trazado_104246" data-name="Trazado 104246" d="M257.746,105.6a23.209,23.209,0,0,0-9.218-14.753l19.693-26.835a56.457,56.457,0,0,1,22.526,37.117C281.713,102.363,268.812,104.109,257.746,105.6Z" transform="translate(-248.528 -64.014)" fill="#ff9800"/>
          </g>
          <g id="Grupo_57111" data-name="Grupo 57111" transform="translate(31.232 13.157)">
            <path id="Trazado_104247" data-name="Trazado 104247" d="M244.731,55.112A56.232,56.232,0,0,1,278.065,66L258.371,92.832A23.194,23.194,0,0,0,228.625,94.9L204.334,72.117A56.318,56.318,0,0,1,244.731,55.112Z" transform="translate(-204.334 -55.112)" fill="#616161"/>
          </g>
          <g id="Grupo_57112" data-name="Grupo 57112" transform="translate(15.127 29.722)">
            <path id="Trazado_104248" data-name="Trazado 104248" d="M231.737,91.708a23.206,23.206,0,0,0-3.18,30.073l-27.005,19.466A56.5,56.5,0,0,1,207.7,68.66Z" transform="translate(-191.163 -68.66)" fill="#ff9800"/>
          </g>
          <g id="Grupo_57113" data-name="Grupo 57113" transform="translate(25.515 82.844)">
            <path id="Trazado_104249" data-name="Trazado 104249" d="M199.659,131.571l27.005-19.466a23.191,23.191,0,0,0,19.108,10.029c.258,0,.514-.011.773-.02l.214,33.291c-.328,0-.658.011-.987.011A56.423,56.423,0,0,1,199.659,131.571Z" transform="translate(-199.659 -112.105)" fill="#616161"/>
          </g>
          <g id="Grupo_57114" data-name="Grupo 57114" transform="translate(104.351 93.538)">
            <path id="Trazado_104250" data-name="Trazado 104250" d="M284.084,150.71H264.134V120.852h1.223v28.636h18.727Z" transform="translate(-264.134 -120.852)" fill="#00acc1"/>
          </g>
          <g id="Grupo_57115" data-name="Grupo 57115" transform="translate(112.668 19.94)">
            <path id="Trazado_104251" data-name="Trazado 104251" d="M272.159,90.812h-1.223V60.66h18.312v1.223h-17.09Z" transform="translate(-270.936 -60.66)" fill="#d7df23"/>
          </g>
          <g id="Grupo_57116" data-name="Grupo 57116" transform="translate(0 37.562)">
            <path id="Trazado_104252" data-name="Trazado 104252" d="M197.1,105.224h-1.223V76.294H178.792V75.072H197.1Z" transform="translate(-178.792 -75.072)" fill="#d7df23"/>
          </g>
          <g id="Grupo_57117" data-name="Grupo 57117" transform="translate(67.484)">
            <path id="Trazado_104253" data-name="Trazado 104253" d="M235.206,74.5h-1.223V44.352h18.31v1.223H235.206Z" transform="translate(-233.983 -44.352)" fill="#616161"/>
          </g>
          <g id="Grupo_57118" data-name="Grupo 57118" transform="translate(28.15 103.436)">
            <path id="Trazado_104254" data-name="Trazado 104254" d="M225.484,159.1h-23.67v-1.223h22.447V128.946h1.223Z" transform="translate(-201.814 -128.946)" fill="#616161"/>
          </g>
        </g>
        <g id="Grupo_57164" data-name="Grupo 57164" transform="translate(25.017 52.869)">
          <g id="Grupo_57132" data-name="Grupo 57132" transform="translate(19.715 0.611)">
            <g id="Grupo_57121" data-name="Grupo 57121" transform="translate(0 99.643)">
              <g id="Grupo_57120" data-name="Grupo 57120">
                <path id="Trazado_104255" data-name="Trazado 104255" d="M175.407,133.211H41.284a.611.611,0,1,1,0-1.223H175.407a.611.611,0,0,1,0,1.223Z" transform="translate(-40.673 -131.988)" fill="#c4c4c4"/>
              </g>
            </g>
            <g id="Grupo_57123" data-name="Grupo 57123" transform="translate(0 79.715)">
              <g id="Grupo_57122" data-name="Grupo 57122">
                <path id="Trazado_104256" data-name="Trazado 104256" d="M175.407,116.913H41.284a.611.611,0,1,1,0-1.223H175.407a.611.611,0,0,1,0,1.223Z" transform="translate(-40.673 -115.69)" fill="#c4c4c4"/>
              </g>
            </g>
            <g id="Grupo_57125" data-name="Grupo 57125" transform="translate(0 59.785)">
              <g id="Grupo_57124" data-name="Grupo 57124">
                <path id="Trazado_104257" data-name="Trazado 104257" d="M175.407,100.614H41.284a.611.611,0,1,1,0-1.223H175.407a.611.611,0,0,1,0,1.223Z" transform="translate(-40.673 -99.391)" fill="#c4c4c4"/>
              </g>
            </g>
            <g id="Grupo_57127" data-name="Grupo 57127" transform="translate(0 39.857)">
              <g id="Grupo_57126" data-name="Grupo 57126">
                <path id="Trazado_104258" data-name="Trazado 104258" d="M175.407,84.316H41.284a.611.611,0,1,1,0-1.223H175.407a.611.611,0,0,1,0,1.223Z" transform="translate(-40.673 -83.093)" fill="#c4c4c4"/>
              </g>
            </g>
            <g id="Grupo_57129" data-name="Grupo 57129" transform="translate(0 19.928)">
              <g id="Grupo_57128" data-name="Grupo 57128">
                <path id="Trazado_104259" data-name="Trazado 104259" d="M175.407,68.017H41.284a.611.611,0,1,1,0-1.223H175.407a.611.611,0,0,1,0,1.223Z" transform="translate(-40.673 -66.794)" fill="#c4c4c4"/>
              </g>
            </g>
            <g id="Grupo_57131" data-name="Grupo 57131">
              <g id="Grupo_57130" data-name="Grupo 57130">
                <path id="Trazado_104260" data-name="Trazado 104260" d="M175.407,51.719H41.284a.611.611,0,1,1,0-1.223H175.407a.611.611,0,0,1,0,1.223Z" transform="translate(-40.673 -50.496)" fill="#c4c4c4"/>
              </g>
            </g>
          </g>
          <g id="Grupo_57133" data-name="Grupo 57133" transform="translate(13.281)">
            <path id="Trazado_104261" data-name="Trazado 104261" d="M176.176,172.014H36.634a1.222,1.222,0,0,1-1.223-1.223V51.219a1.223,1.223,0,0,1,2.445,0V169.568H176.176a1.223,1.223,0,1,1,0,2.445Z" transform="translate(-35.411 -49.996)" fill="#c4c4c4"/>
          </g>
          <g id="Grupo_57138" data-name="Grupo 57138" transform="translate(0.099 107.413)">
            <g id="Grupo_57137" data-name="Grupo 57137">
              <g id="Grupo_57136" data-name="Grupo 57136">
                <g id="Grupo_57134" data-name="Grupo 57134" transform="translate(0 0.089)">
                  <path id="Trazado_104262" data-name="Trazado 104262" d="M27.231,143.958H26.4V138.8l-1.41.857-.362-.587,1.87-1.157h.731Z" transform="translate(-24.63 -137.916)" fill="#c4c4c4"/>
                </g>
                <g id="Grupo_57135" data-name="Grupo 57135" transform="translate(4.092)">
                  <path id="Trazado_104263" data-name="Trazado 104263" d="M32.023,140.959c0,2-.669,3.124-2.024,3.124s-2.022-1.12-2.022-3.124.668-3.116,2.022-3.116S32.023,138.963,32.023,140.959Zm-3.179,0c0,1.779.4,2.465,1.155,2.465s1.157-.686,1.157-2.465S30.749,138.5,30,138.5,28.844,139.188,28.844,140.959Z" transform="translate(-27.977 -137.843)" fill="#c4c4c4"/>
                </g>
              </g>
            </g>
          </g>
          <g id="Grupo_57143" data-name="Grupo 57143" transform="translate(0.109 87.455)">
            <g id="Grupo_57142" data-name="Grupo 57142">
              <g id="Grupo_57141" data-name="Grupo 57141">
                <g id="Grupo_57139" data-name="Grupo 57139">
                  <path id="Trazado_104264" data-name="Trazado 104264" d="M28.287,123.173c0,1.129-.721,1.933-2.574,3.783h2.719l-.1.7H24.765v-.659c2.131-2.222,2.655-2.8,2.655-3.784a.931.931,0,0,0-.994-1,1.485,1.485,0,0,0-1.228.659l-.56-.433a2.233,2.233,0,0,1,1.833-.913A1.661,1.661,0,0,1,28.287,123.173Z" transform="translate(-24.638 -121.52)" fill="#c4c4c4"/>
                </g>
                <g id="Grupo_57140" data-name="Grupo 57140" transform="translate(4.742)">
                  <path id="Trazado_104265" data-name="Trazado 104265" d="M32.562,124.636c0,2.005-.669,3.125-2.022,3.125s-2.024-1.12-2.024-3.125.669-3.116,2.024-3.116S32.562,122.64,32.562,124.636Zm-3.179,0c0,1.779.4,2.465,1.157,2.465s1.155-.686,1.155-2.465-.406-2.456-1.155-2.456S29.383,122.866,29.383,124.636Z" transform="translate(-28.516 -121.52)" fill="#c4c4c4"/>
                </g>
              </g>
            </g>
          </g>
          <g id="Grupo_57148" data-name="Grupo 57148" transform="translate(0 67.501)">
            <g id="Grupo_57147" data-name="Grupo 57147">
              <g id="Grupo_57146" data-name="Grupo 57146">
                <g id="Grupo_57144" data-name="Grupo 57144">
                  <path id="Trazado_104266" data-name="Trazado 104266" d="M28.234,106.736a1.387,1.387,0,0,1-1.175,1.391,1.392,1.392,0,0,1,1.363,1.464,1.873,1.873,0,0,1-2.058,1.851,2.28,2.28,0,0,1-1.816-.813l.5-.461a1.7,1.7,0,0,0,1.291.6,1.119,1.119,0,0,0,1.218-1.182c0-.83-.468-1.083-1.2-1.083H25.9l.1-.642h.306a1.015,1.015,0,0,0,1.093-1.065.9.9,0,0,0-1-.922,1.705,1.705,0,0,0-1.246.543l-.433-.5a2.438,2.438,0,0,1,1.724-.714A1.6,1.6,0,0,1,28.234,106.736Z" transform="translate(-24.549 -105.201)" fill="#c4c4c4"/>
                </g>
                <g id="Grupo_57145" data-name="Grupo 57145" transform="translate(4.868)">
                  <path id="Trazado_104267" data-name="Trazado 104267" d="M32.575,108.317c0,2.005-.666,3.125-2.022,3.125s-2.022-1.12-2.022-3.125.669-3.116,2.022-3.116S32.575,106.321,32.575,108.317Zm-3.178,0c0,1.779.4,2.465,1.155,2.465s1.155-.686,1.155-2.465-.406-2.456-1.155-2.456S29.4,106.547,29.4,108.317Z" transform="translate(-28.53 -105.201)" fill="#c4c4c4"/>
                </g>
              </g>
            </g>
          </g>
          <g id="Grupo_57153" data-name="Grupo 57153" transform="translate(0.077 47.546)">
            <g id="Grupo_57152" data-name="Grupo 57152">
              <g id="Grupo_57151" data-name="Grupo 57151">
                <g id="Grupo_57149" data-name="Grupo 57149">
                  <path id="Trazado_104268" data-name="Trazado 104268" d="M28.784,93.522H28v1.489h-.8V93.522H24.612v-.6l1.815-4.045.7.289-1.635,3.694H27.2l.073-1.625H28v1.625h.786Z" transform="translate(-24.612 -88.881)" fill="#c4c4c4"/>
                </g>
                <g id="Grupo_57150" data-name="Grupo 57150" transform="translate(4.941)">
                  <path id="Trazado_104269" data-name="Trazado 104269" d="M32.7,92c0,2-.669,3.124-2.024,3.124S28.653,94,28.653,92s.669-3.116,2.022-3.116S32.7,90,32.7,92ZM29.52,92c0,1.779.4,2.465,1.155,2.465s1.157-.686,1.157-2.465-.406-2.456-1.157-2.456S29.52,90.226,29.52,92Z" transform="translate(-28.653 -88.881)" fill="#c4c4c4"/>
                </g>
              </g>
            </g>
          </g>
          <g id="Grupo_57158" data-name="Grupo 57158" transform="translate(0.092 27.591)">
            <g id="Grupo_57157" data-name="Grupo 57157">
              <g id="Grupo_57156" data-name="Grupo 57156">
                <g id="Grupo_57154" data-name="Grupo 57154" transform="translate(0 0.09)">
                  <path id="Trazado_104270" data-name="Trazado 104270" d="M28.181,73.285H25.825v1.779a2.079,2.079,0,0,1,.965-.235,1.7,1.7,0,0,1,1.717,1.915,1.968,1.968,0,0,1-2.095,2.041,2.361,2.361,0,0,1-1.788-.768l.5-.488a1.628,1.628,0,0,0,1.274.578c.757,0,1.236-.5,1.236-1.382,0-.931-.479-1.256-1.1-1.256a1.888,1.888,0,0,0-.858.208H25.03V72.635H28.3Z" transform="translate(-24.624 -72.635)" fill="#c4c4c4"/>
                </g>
                <g id="Grupo_57155" data-name="Grupo 57155" transform="translate(4.786)">
                  <path id="Trazado_104271" data-name="Trazado 104271" d="M32.583,75.677c0,2.005-.668,3.125-2.022,3.125s-2.022-1.12-2.022-3.125.669-3.116,2.022-3.116S32.583,73.681,32.583,75.677Zm-3.178,0c0,1.779.4,2.465,1.155,2.465s1.155-.686,1.155-2.465S31.31,73.22,30.56,73.22,29.4,73.907,29.4,75.677Z" transform="translate(-28.538 -72.561)" fill="#c4c4c4"/>
                </g>
              </g>
            </g>
          </g>
          <g id="Grupo_57163" data-name="Grupo 57163" transform="translate(0.208 7.635)">
            <g id="Grupo_57162" data-name="Grupo 57162">
              <g id="Grupo_57161" data-name="Grupo 57161">
                <g id="Grupo_57159" data-name="Grupo 57159">
                  <path id="Trazado_104272" data-name="Trazado 104272" d="M28.675,60.321a1.973,1.973,0,0,1-1.923,2.158c-1.472,0-2.032-1.209-2.032-2.944,0-1.977.858-3.3,2.284-3.3a2.183,2.183,0,0,1,1.247.369l-.326.551A1.758,1.758,0,0,0,27,56.9c-.877,0-1.4.912-1.445,2.294a1.7,1.7,0,0,1,3.124,1.129Zm-.84.027c0-.957-.407-1.291-.976-1.291a1.555,1.555,0,0,0-1.3.831c.037,1.318.388,1.932,1.192,1.932C27.464,61.821,27.835,61.234,27.835,60.348Z" transform="translate(-24.719 -56.24)" fill="#c4c4c4"/>
                </g>
                <g id="Grupo_57160" data-name="Grupo 57160" transform="translate(4.815)">
                  <path id="Trazado_104273" data-name="Trazado 104273" d="M32.7,59.356c0,2-.668,3.124-2.022,3.124s-2.022-1.12-2.022-3.124.668-3.116,2.022-3.116S32.7,57.36,32.7,59.356Zm-3.178,0c0,1.779.4,2.465,1.155,2.465s1.155-.686,1.155-2.465S31.428,56.9,30.679,56.9,29.524,57.585,29.524,59.356Z" transform="translate(-28.657 -56.24)" fill="#c4c4c4"/>
                </g>
              </g>
            </g>
          </g>
          <path id="Trazado_104274" data-name="Trazado 104274" d="M65.461,81.8c-2.139,0-3.872,2.464-3.872,5.5v69.15h7.745V87.305C69.334,84.267,67.6,81.8,65.461,81.8Z" transform="translate(-16.299 -42.912)" fill="#00acc1"/>
          <path id="Trazado_104275" data-name="Trazado 104275" d="M55.794,63.394c-2.139,0-3.872,2.463-3.872,5.5v91.66h7.745V68.9C59.667,65.857,57.933,63.394,55.794,63.394Z" transform="translate(-18.452 -47.012)" fill="#ff9800"/>
          <path id="Trazado_104276" data-name="Trazado 104276" d="M47.461,96.41c-2.139,0-3.872,2.463-3.872,5.5V153.2h7.745v-51.29C51.334,98.873,49.6,96.41,47.461,96.41Z" transform="translate(-20.308 -39.658)" fill="#616161"/>
          <path id="Trazado_104277" data-name="Trazado 104277" d="M98.127,81.8c-2.137,0-3.871,2.464-3.871,5.5v69.15H102V87.305C102,84.267,100.266,81.8,98.127,81.8Z" transform="translate(-9.023 -42.912)" fill="#00acc1"/>
          <path id="Trazado_104278" data-name="Trazado 104278" d="M88.46,63.394c-2.137,0-3.871,2.463-3.871,5.5v91.66h7.744V68.9C92.333,65.857,90.6,63.394,88.46,63.394Z" transform="translate(-11.176 -47.012)" fill="#ff9800"/>
          <path id="Trazado_104279" data-name="Trazado 104279" d="M80.127,96.41c-2.137,0-3.871,2.463-3.871,5.5V153.2H84v-51.29C84,98.873,82.266,96.41,80.127,96.41Z" transform="translate(-13.032 -39.658)" fill="#616161"/>
          <path id="Trazado_104280" data-name="Trazado 104280" d="M130.96,81.8c-2.137,0-3.871,2.464-3.871,5.5v69.15h7.744V87.305C134.833,84.267,133.1,81.8,130.96,81.8Z" transform="translate(-1.71 -42.912)" fill="#00acc1"/>
          <path id="Trazado_104281" data-name="Trazado 104281" d="M121.293,63.394c-2.137,0-3.871,2.463-3.871,5.5v91.66h7.744V68.9C125.166,65.857,123.432,63.394,121.293,63.394Z" transform="translate(-3.863 -47.012)" fill="#ff9800"/>
          <path id="Trazado_104282" data-name="Trazado 104282" d="M112.96,96.41c-2.137,0-3.871,2.463-3.871,5.5V153.2h7.744v-51.29C116.833,98.873,115.1,96.41,112.96,96.41Z" transform="translate(-5.719 -39.658)" fill="#616161"/>
          <path id="Trazado_104283" data-name="Trazado 104283" d="M140.294,96.41c-2.137,0-3.871,2.463-3.871,5.5V153.2h7.744v-51.29C144.167,98.873,142.433,96.41,140.294,96.41Z" transform="translate(0.369 -39.658)" fill="#616161"/>
        </g>
        <g id="Grupo_57165" data-name="Grupo 57165" transform="translate(281.246 37.096)">
          <path id="Trazado_104284" data-name="Trazado 104284" d="M238.092,39.014a1.5,1.5,0,0,1-1.27,1.506A1.508,1.508,0,0,1,238.3,42.1a2.028,2.028,0,0,1-2.229,2,2.466,2.466,0,0,1-1.965-.879l.538-.5a1.837,1.837,0,0,0,1.4.644,1.211,1.211,0,0,0,1.319-1.28c0-.9-.507-1.174-1.3-1.174h-.489l.108-.693h.333a1.1,1.1,0,0,0,1.182-1.154.974.974,0,0,0-1.085-1,1.841,1.841,0,0,0-1.349.587l-.47-.538a2.642,2.642,0,0,1,1.867-.773A1.73,1.73,0,0,1,238.092,39.014Z" transform="translate(-234.103 -37.039)" fill="#616161"/>
          <path id="Trazado_104285" data-name="Trazado 104285" d="M242.795,40.726c0,2.17-.724,3.382-2.19,3.382s-2.19-1.212-2.19-3.382.723-3.374,2.19-3.374S242.795,38.565,242.795,40.726Zm-3.441,0c0,1.926.429,2.668,1.251,2.668s1.252-.742,1.252-2.668-.44-2.659-1.252-2.659S239.354,38.808,239.354,40.726Z" transform="translate(-233.143 -37.039)" fill="#616161"/>
          <path id="Trazado_104286" data-name="Trazado 104286" d="M245.977,39.062a1.59,1.59,0,1,1-1.594-1.653A1.541,1.541,0,0,1,245.977,39.062Zm-2.387,0c0,.507.167,1.045.792,1.045s.792-.518.792-1.045c0-.509-.157-1.047-.792-1.047S243.59,38.533,243.59,39.062Zm5.387-1.555-4.527,6.844-.626-.411,4.527-6.844Zm1.017,5.006a1.59,1.59,0,1,1-1.585-1.652A1.533,1.533,0,0,1,249.995,42.513Zm-2.376,0c0,.509.166,1.045.791,1.045s.792-.518.792-1.045c0-.509-.157-1.037-.792-1.037S247.619,41.984,247.619,42.513Z" transform="translate(-232.166 -37.096)" fill="#616161"/>
        </g>
        <g id="Grupo_57166" data-name="Grupo 57166" transform="translate(327.06 57.611)">
          <path id="Trazado_104287" data-name="Trazado 104287" d="M274.388,60.75h-.9V55.169l-1.525.929-.391-.636L273.6,54.21h.792Z" transform="translate(-271.572 -53.799)" fill="#d7df23"/>
          <path id="Trazado_104288" data-name="Trazado 104288" d="M279.576,57.5c0,2.17-.724,3.382-2.19,3.382s-2.19-1.212-2.19-3.382.723-3.374,2.19-3.374S279.576,55.343,279.576,57.5Zm-3.442,0c0,1.926.43,2.669,1.252,2.669s1.251-.743,1.251-2.669-.44-2.659-1.251-2.659S276.134,55.587,276.134,57.5Z" transform="translate(-270.765 -53.817)" fill="#d7df23"/>
          <path id="Trazado_104289" data-name="Trazado 104289" d="M282.757,55.84a1.59,1.59,0,1,1-1.593-1.653A1.54,1.54,0,0,1,282.757,55.84Zm-2.386,0c0,.507.166,1.045.792,1.045s.792-.518.792-1.045c0-.509-.157-1.047-.792-1.047S280.371,55.312,280.371,55.84Zm5.387-1.555-4.527,6.845-.626-.411,4.527-6.845Zm1.016,5.006a1.59,1.59,0,1,1-1.583-1.652A1.532,1.532,0,0,1,286.775,59.291Zm-2.375,0c0,.509.165,1.047.791,1.047s.792-.518.792-1.047c0-.507-.156-1.037-.792-1.037S284.4,58.762,284.4,59.291Z" transform="translate(-269.788 -53.874)" fill="#d7df23"/>
        </g>
        <g id="Grupo_57167" data-name="Grupo 57167" transform="translate(320.995 159.178)">
          <path id="Trazado_104290" data-name="Trazado 104290" d="M271.129,142.221h-.851v1.613h-.869v-1.613h-2.8v-.646l1.965-4.38.753.313-1.771,4h1.859l.078-1.761h.781v1.761h.851Z" transform="translate(-266.612 -136.883)" fill="#00acc1"/>
          <path id="Trazado_104291" data-name="Trazado 104291" d="M275.368,140.57c0,2.17-.724,3.382-2.19,3.382s-2.19-1.212-2.19-3.382.723-3.374,2.19-3.374S275.368,138.409,275.368,140.57Zm-3.442,0c0,1.926.43,2.669,1.252,2.669s1.251-.743,1.251-2.669-.44-2.659-1.251-2.659S271.926,138.654,271.926,140.57Z" transform="translate(-265.637 -136.883)" fill="#00acc1"/>
          <path id="Trazado_104292" data-name="Trazado 104292" d="M278.549,138.906a1.59,1.59,0,1,1-1.593-1.653A1.54,1.54,0,0,1,278.549,138.906Zm-2.386,0c0,.507.166,1.045.792,1.045s.792-.518.792-1.045c0-.509-.156-1.047-.792-1.047S276.163,138.378,276.163,138.906Zm5.387-1.555-4.527,6.844-.626-.41,4.527-6.845Zm1.016,5.006a1.59,1.59,0,1,1-1.583-1.652A1.532,1.532,0,0,1,282.567,142.357Zm-2.375,0c0,.509.165,1.045.791,1.045s.791-.517.791-1.045c0-.509-.155-1.037-.791-1.037S280.192,141.828,280.192,142.357Z" transform="translate(-264.661 -136.94)" fill="#00acc1"/>
        </g>
        <g id="Grupo_57168" data-name="Grupo 57168" transform="translate(243.33 169.158)">
          <path id="Trazado_104293" data-name="Trazado 104293" d="M205.91,151.978h-.9V146.4l-1.525.928-.391-.636,2.024-1.251h.792Z" transform="translate(-203.094 -145.027)" fill="#616161"/>
          <path id="Trazado_104294" data-name="Trazado 104294" d="M210.338,146.142h-2.552v1.926a2.262,2.262,0,0,1,1.047-.254,1.841,1.841,0,0,1,1.857,2.073,2.13,2.13,0,0,1-2.268,2.209,2.562,2.562,0,0,1-1.936-.83l.548-.529a1.761,1.761,0,0,0,1.378.626c.822,0,1.339-.537,1.339-1.5,0-1.008-.517-1.358-1.192-1.358a2.036,2.036,0,0,0-.929.225h-.7v-3.3h3.539Z" transform="translate(-202.339 -145.027)" fill="#616161"/>
          <path id="Trazado_104295" data-name="Trazado 104295" d="M213.823,147.067a1.59,1.59,0,1,1-1.593-1.652A1.54,1.54,0,0,1,213.823,147.067Zm-2.386,0c0,.509.166,1.047.792,1.047s.791-.518.791-1.047c0-.509-.155-1.045-.791-1.045S211.437,146.539,211.437,147.067Zm5.387-1.554-4.527,6.844-.626-.411L216.2,145.1Zm1.016,5.006a1.59,1.59,0,1,1-1.583-1.652A1.533,1.533,0,0,1,217.841,150.519Zm-2.376,0c0,.509.166,1.045.792,1.045s.791-.518.791-1.045c0-.509-.157-1.037-.791-1.037S215.465,149.99,215.465,150.519Z" transform="translate(-201.412 -145.102)" fill="#616161"/>
        </g>
        <g id="Grupo_57169" data-name="Grupo 57169" transform="translate(212.782 74.448)">
          <path id="Trazado_104296" data-name="Trazado 104296" d="M182.628,72.925h-.85v1.613h-.871V72.925h-2.8V72.28l1.965-4.38.753.313-1.769,4h1.857L181,70.452h.783v1.761h.85Z" transform="translate(-178.111 -67.587)" fill="#d7df23"/>
          <path id="Trazado_104297" data-name="Trazado 104297" d="M186.867,71.274c0,2.17-.723,3.382-2.19,3.382s-2.19-1.212-2.19-3.382.724-3.374,2.19-3.374S186.867,69.113,186.867,71.274Zm-3.441,0c0,1.926.43,2.669,1.251,2.669s1.252-.743,1.252-2.669-.44-2.659-1.252-2.659S183.426,69.357,183.426,71.274Z" transform="translate(-177.136 -67.587)" fill="#d7df23"/>
          <path id="Trazado_104298" data-name="Trazado 104298" d="M190.049,69.61a1.59,1.59,0,1,1-1.593-1.653A1.54,1.54,0,0,1,190.049,69.61Zm-2.386,0c0,.507.166,1.045.792,1.045s.791-.517.791-1.045c0-.509-.156-1.047-.791-1.047S187.663,69.082,187.663,69.61Zm5.386-1.555L188.523,74.9l-.625-.411,4.527-6.845Zm1.017,5.006a1.59,1.59,0,1,1-1.583-1.652A1.532,1.532,0,0,1,194.067,73.061Zm-2.376,0c0,.509.166,1.047.792,1.047s.791-.518.791-1.047c0-.507-.157-1.037-.791-1.037S191.691,72.532,191.691,73.061Z" transform="translate(-176.16 -67.644)" fill="#d7df23"/>
        </g>
        <g id="Grupo_57170" data-name="Grupo 57170" transform="translate(483.908 474.276)">
          <path id="Trazado_104299" data-name="Trazado 104299" d="M404.356,399.785c0,1.094-.938,1.866-2.268,1.866-1.35,0-2.239-.772-2.239-1.846a1.8,1.8,0,0,1,1.29-1.7,1.6,1.6,0,0,1-1.017-1.524,2.015,2.015,0,0,1,3.969-.029c0,.665-.37,1.1-1.114,1.476A1.861,1.861,0,0,1,404.356,399.785Zm-.938.009c0-.7-.373-1.016-1.428-1.379l-.245-.087a1.5,1.5,0,0,0-.959,1.477c0,.713.5,1.133,1.31,1.133S403.418,400.478,403.418,399.793ZM401,396.587c0,.674.46.919,1.212,1.163l.168.059a1.315,1.315,0,0,0,.831-1.231,1.11,1.11,0,0,0-2.211.01Z" transform="translate(-399.849 -394.583)" fill="#fff"/>
          <path id="Trazado_104300" data-name="Trazado 104300" d="M408.717,398.268c0,2.172-.724,3.382-2.19,3.382s-2.19-1.211-2.19-3.382.723-3.372,2.19-3.372S408.717,396.108,408.717,398.268Zm-3.442,0c0,1.926.43,2.669,1.252,2.669s1.251-.743,1.251-2.669-.44-2.659-1.251-2.659S405.275,396.352,405.275,398.268Z" transform="translate(-398.849 -394.583)" fill="#fff"/>
          <path id="Trazado_104301" data-name="Trazado 104301" d="M411.9,396.6a1.59,1.59,0,1,1-1.593-1.652A1.54,1.54,0,0,1,411.9,396.6Zm-2.386,0c0,.507.166,1.045.792,1.045s.792-.517.792-1.045c0-.509-.158-1.045-.792-1.045S409.512,396.076,409.512,396.6Zm5.386-1.554-4.525,6.842-.625-.411,4.525-6.842Zm1.017,5a1.59,1.59,0,1,1-1.582-1.651A1.532,1.532,0,0,1,415.916,400.056Zm-2.376,0c0,.509.168,1.047.794,1.047s.79-.518.79-1.047c0-.507-.155-1.036-.79-1.036S413.54,399.529,413.54,400.056Z" transform="translate(-397.873 -394.64)" fill="#fff"/>
        </g>
        <g id="Grupo_57171" data-name="Grupo 57171" transform="translate(428.994 428.424)">
          <path id="Trazado_104302" data-name="Trazado 104302" d="M358.889,359.185c0,1.222-.783,2.092-2.785,4.1h2.942l-.108.752h-3.861v-.713c2.306-2.406,2.873-3.031,2.873-4.1a1.008,1.008,0,0,0-1.076-1.085,1.607,1.607,0,0,0-1.328.713l-.608-.47a2.425,2.425,0,0,1,1.986-.987A1.8,1.8,0,0,1,358.889,359.185Z" transform="translate(-354.938 -357.083)" fill="#fff"/>
          <path id="Trazado_104303" data-name="Trazado 104303" d="M363.519,360.768c0,2.172-.724,3.382-2.19,3.382s-2.19-1.211-2.19-3.382.723-3.372,2.19-3.372S363.519,358.608,363.519,360.768Zm-3.442,0c0,1.926.43,2.669,1.252,2.669s1.251-.743,1.251-2.669-.439-2.659-1.251-2.659S360.077,358.852,360.077,360.768Z" transform="translate(-354.002 -357.083)" fill="#fff"/>
          <path id="Trazado_104304" data-name="Trazado 104304" d="M366.7,359.1a1.59,1.59,0,1,1-1.593-1.652A1.54,1.54,0,0,1,366.7,359.1Zm-2.385,0c0,.507.167,1.045.792,1.045s.791-.517.791-1.045c0-.509-.155-1.045-.791-1.045S364.314,358.576,364.314,359.1Zm5.387-1.554-4.528,6.842-.626-.411,4.528-6.842Zm1.016,5a1.59,1.59,0,1,1-1.585-1.651A1.533,1.533,0,0,1,370.718,362.555Zm-2.375,0c0,.509.165,1.047.79,1.047s.794-.518.794-1.047c0-.507-.158-1.036-.794-1.036S368.343,362.029,368.343,362.555Z" transform="translate(-353.026 -357.14)" fill="#fff"/>
        </g>
        <g id="Grupo_57187" data-name="Grupo 57187" transform="translate(222.026 235.54)">
          <g id="Grupo_57172" data-name="Grupo 57172" transform="translate(16.043 17.198)">
            <rect id="Rectngulo_5925" data-name="Rectngulo 5925" width="3.821" height="87.434" fill="#00acc1"/>
          </g>
          <g id="Grupo_57173" data-name="Grupo 57173" transform="translate(46.612 17.198)">
            <rect id="Rectngulo_5926" data-name="Rectngulo 5926" width="3.821" height="87.434" fill="#ff9800"/>
          </g>
          <g id="Grupo_57174" data-name="Grupo 57174" transform="translate(79.625 17.198)">
            <rect id="Rectngulo_5927" data-name="Rectngulo 5927" width="3.821" height="87.434" fill="#616161"/>
          </g>
          <g id="Grupo_57175" data-name="Grupo 57175" transform="translate(107.748 17.198)">
            <rect id="Rectngulo_5928" data-name="Rectngulo 5928" width="3.821" height="87.434" fill="#00acc1"/>
          </g>
          <g id="Grupo_57176" data-name="Grupo 57176" transform="translate(140.762 17.198)">
            <rect id="Rectngulo_5929" data-name="Rectngulo 5929" width="3.821" height="87.434" fill="#d7df23"/>
          </g>
          <g id="Grupo_57177" data-name="Grupo 57177" transform="translate(128.625 12.531)">
            <path id="Trazado_104305" data-name="Trazado 104305" d="M290.866,302.982h32.157V209.64a303.923,303.923,0,0,1-32.157,33.744v59.6Z" transform="translate(-290.866 -209.64)" fill="#ff9800"/>
          </g>
          <g id="Grupo_57178" data-name="Grupo 57178" transform="translate(96.469 46.274)">
            <path id="Trazado_104306" data-name="Trazado 104306" d="M296.724,296.833v-59.6a263.755,263.755,0,0,1-32.157,24.72v34.876Z" transform="translate(-264.567 -237.237)" fill="#00acc1"/>
          </g>
          <g id="Grupo_57179" data-name="Grupo 57179" transform="translate(64.311 70.994)">
            <path id="Trazado_104307" data-name="Trazado 104307" d="M270.425,292.332V257.454a237.041,237.041,0,0,1-32.158,17.61v17.269Z" transform="translate(-238.267 -257.454)" fill="#616161"/>
          </g>
          <g id="Grupo_57180" data-name="Grupo 57180" transform="translate(32.157 88.604)">
            <path id="Trazado_104308" data-name="Trazado 104308" d="M244.124,289.125V271.856a213.948,213.948,0,0,1-32.154,11.523v5.746Z" transform="translate(-211.97 -271.856)" fill="#ff9800"/>
          </g>
          <g id="Grupo_57181" data-name="Grupo 57181" transform="translate(0 100.127)">
            <path id="Trazado_104309" data-name="Trazado 104309" d="M217.828,287.026V281.28c-14.355,2.873-6.8.463-32.157,5.57v.176Z" transform="translate(-185.671 -281.28)" fill="#00acc1"/>
          </g>
          <path id="Trazado_104310" data-name="Trazado 104310" d="M185.671,287.026v-.9s29.741-4.445,32.157-4.846v5.746Z" transform="translate(-185.671 -181.153)" fill="#00acc1"/>
          <path id="Trazado_104311" data-name="Trazado 104311" d="M205.2,214.2a4.1,4.1,0,1,1-4.1-4.1A4.1,4.1,0,0,1,205.2,214.2Z" transform="translate(-183.147 -197.006)" fill="#00acc1"/>
          <path id="Trazado_104312" data-name="Trazado 104312" d="M230.2,214.2a4.1,4.1,0,1,1-4.1-4.1A4.1,4.1,0,0,1,230.2,214.2Z" transform="translate(-177.579 -197.006)" fill="#d7df23"/>
          <path id="Trazado_104313" data-name="Trazado 104313" d="M257.2,214.2a4.1,4.1,0,1,1-4.1-4.1A4.1,4.1,0,0,1,257.2,214.2Z" transform="translate(-171.565 -197.006)" fill="#616161"/>
          <path id="Trazado_104314" data-name="Trazado 104314" d="M280.2,214.2a4.1,4.1,0,1,1-4.1-4.1A4.1,4.1,0,0,1,280.2,214.2Z" transform="translate(-166.442 -197.006)" fill="#00acc1"/>
          <path id="Trazado_104315" data-name="Trazado 104315" d="M307.2,214.2a4.1,4.1,0,1,1-4.1-4.1A4.1,4.1,0,0,1,307.2,214.2Z" transform="translate(-160.428 -197.006)" fill="#d7df23"/>
          <g id="Grupo_57182" data-name="Grupo 57182" transform="translate(40.468 0.001)">
            <path id="Trazado_104316" data-name="Trazado 104316" d="M223.284,204.674h-.85v1.613h-.871v-1.613h-2.8v-.646l1.965-4.38.753.313-1.769,4h1.857l.078-1.76h.783v1.76h.85Z" transform="translate(-218.767 -199.336)" fill="#616161"/>
            <path id="Trazado_104317" data-name="Trazado 104317" d="M227.523,203.023c0,2.17-.724,3.382-2.19,3.382s-2.19-1.212-2.19-3.382.723-3.374,2.19-3.374S227.523,200.862,227.523,203.023Zm-3.441,0c0,1.926.429,2.668,1.251,2.668s1.252-.742,1.252-2.668-.44-2.659-1.252-2.659S224.082,201.105,224.082,203.023Z" transform="translate(-217.792 -199.336)" fill="#616161"/>
            <path id="Trazado_104318" data-name="Trazado 104318" d="M230.7,201.358a1.59,1.59,0,1,1-1.594-1.652A1.54,1.54,0,0,1,230.7,201.358Zm-2.387,0c0,.509.168,1.047.792,1.047s.792-.518.792-1.047c0-.509-.157-1.045-.792-1.045S228.318,200.83,228.318,201.358Zm5.387-1.554-4.527,6.844-.626-.411,4.527-6.844Zm1.017,5.006a1.59,1.59,0,1,1-1.585-1.652A1.533,1.533,0,0,1,234.723,204.81Zm-2.376,0c0,.509.166,1.045.791,1.045s.792-.518.792-1.045c0-.509-.157-1.037-.792-1.037S232.347,204.281,232.347,204.81Z" transform="translate(-216.816 -199.393)" fill="#616161"/>
          </g>
          <g id="Grupo_57183" data-name="Grupo 57183" transform="translate(11.42 0.002)">
            <path id="Trazado_104319" data-name="Trazado 104319" d="M198.962,201.439c0,1.221-.783,2.092-2.787,4.1h2.943l-.108.753h-3.861v-.714c2.306-2.405,2.873-3.031,2.873-4.1a1.009,1.009,0,0,0-1.075-1.086,1.609,1.609,0,0,0-1.33.714l-.606-.47a2.42,2.42,0,0,1,1.986-.988A1.8,1.8,0,0,1,198.962,201.439Z" transform="translate(-195.011 -199.337)" fill="#616161"/>
            <path id="Trazado_104320" data-name="Trazado 104320" d="M203.592,203.023c0,2.17-.724,3.382-2.19,3.382s-2.19-1.212-2.19-3.382.723-3.374,2.19-3.374S203.592,200.862,203.592,203.023Zm-3.442,0c0,1.926.43,2.669,1.252,2.669s1.251-.743,1.251-2.669-.44-2.659-1.251-2.659S200.15,201.107,200.15,203.023Z" transform="translate(-194.075 -199.337)" fill="#616161"/>
            <path id="Trazado_104321" data-name="Trazado 104321" d="M206.773,201.359a1.59,1.59,0,1,1-1.593-1.653A1.54,1.54,0,0,1,206.773,201.359Zm-2.386,0c0,.507.166,1.045.792,1.045s.791-.517.791-1.045c0-.509-.156-1.047-.791-1.047S204.387,200.831,204.387,201.359Zm5.387-1.555-4.528,6.845-.625-.411,4.527-6.844Zm1.016,5.006a1.59,1.59,0,1,1-1.583-1.652A1.532,1.532,0,0,1,210.791,204.809Zm-2.376,0c0,.509.166,1.047.792,1.047s.791-.518.791-1.047c0-.507-.157-1.037-.791-1.037S208.415,204.282,208.415,204.809Z" transform="translate(-193.099 -199.394)" fill="#616161"/>
          </g>
          <g id="Grupo_57184" data-name="Grupo 57184" transform="translate(71.834)">
            <path id="Trazado_104322" data-name="Trazado 104322" d="M248.272,200.432H245.72v1.926a2.262,2.262,0,0,1,1.047-.254,1.841,1.841,0,0,1,1.857,2.074,2.13,2.13,0,0,1-2.268,2.208,2.564,2.564,0,0,1-1.936-.83l.548-.528a1.761,1.761,0,0,0,1.378.626c.822,0,1.339-.538,1.339-1.5,0-1.006-.517-1.358-1.192-1.358a2.027,2.027,0,0,0-.928.225h-.7v-3.294H248.4Z" transform="translate(-244.42 -199.317)" fill="#616161"/>
            <path id="Trazado_104323" data-name="Trazado 104323" d="M253.04,203.022c0,2.17-.724,3.382-2.19,3.382s-2.19-1.212-2.19-3.382.723-3.374,2.19-3.374S253.04,200.861,253.04,203.022Zm-3.442,0c0,1.926.43,2.669,1.252,2.669s1.251-.743,1.251-2.669-.44-2.659-1.251-2.659S249.6,201.105,249.6,203.022Z" transform="translate(-243.476 -199.335)" fill="#616161"/>
            <path id="Trazado_104324" data-name="Trazado 104324" d="M256.221,201.358a1.59,1.59,0,1,1-1.593-1.653A1.54,1.54,0,0,1,256.221,201.358Zm-2.386,0c0,.509.166,1.045.792,1.045s.791-.517.791-1.045c0-.509-.156-1.047-.791-1.047S253.835,200.83,253.835,201.358Zm5.387-1.554-4.527,6.844-.626-.411,4.527-6.845Zm1.016,5a1.59,1.59,0,1,1-1.583-1.652A1.532,1.532,0,0,1,260.239,204.809Zm-2.376,0c0,.509.166,1.047.792,1.047s.791-.518.791-1.047c0-.507-.156-1.036-.791-1.036S257.863,204.282,257.863,204.809Z" transform="translate(-242.499 -199.392)" fill="#616161"/>
          </g>
          <g id="Grupo_57185" data-name="Grupo 57185" transform="translate(100.331)">
            <path id="Trazado_104325" data-name="Trazado 104325" d="M272.233,204.536c0,1.1-.938,1.867-2.268,1.867-1.349,0-2.239-.772-2.239-1.846a1.8,1.8,0,0,1,1.29-1.7A1.6,1.6,0,0,1,268,201.331a1.8,1.8,0,0,1,1.984-1.682,1.778,1.778,0,0,1,1.985,1.653c0,.664-.372,1.1-1.114,1.476A1.861,1.861,0,0,1,272.233,204.536Zm-.938.01c0-.7-.372-1.016-1.428-1.378l-.245-.088a1.5,1.5,0,0,0-.957,1.477c0,.713.5,1.133,1.31,1.133S271.3,205.231,271.3,204.546Zm-2.415-3.206c0,.674.46.919,1.212,1.163l.166.059a1.314,1.314,0,0,0,.831-1.231,1.109,1.109,0,0,0-2.209.01Z" transform="translate(-267.726 -199.335)" fill="#616161"/>
            <path id="Trazado_104326" data-name="Trazado 104326" d="M276.594,203.022c0,2.17-.723,3.382-2.19,3.382s-2.19-1.212-2.19-3.382.724-3.374,2.19-3.374S276.594,200.861,276.594,203.022Zm-3.441,0c0,1.926.43,2.669,1.251,2.669s1.252-.743,1.252-2.669-.44-2.659-1.252-2.659S273.153,201.105,273.153,203.022Z" transform="translate(-266.726 -199.335)" fill="#616161"/>
            <path id="Trazado_104327" data-name="Trazado 104327" d="M279.776,201.358a1.59,1.59,0,1,1-1.593-1.653A1.54,1.54,0,0,1,279.776,201.358Zm-2.386,0c0,.509.166,1.045.792,1.045s.791-.517.791-1.045c0-.509-.156-1.047-.791-1.047S277.39,200.83,277.39,201.358Zm5.386-1.554-4.527,6.844-.625-.411,4.527-6.845Zm1.017,5a1.59,1.59,0,1,1-1.583-1.652A1.532,1.532,0,0,1,283.794,204.809Zm-2.376,0c0,.509.166,1.047.792,1.047s.791-.518.791-1.047c0-.507-.156-1.036-.791-1.036S281.418,204.282,281.418,204.809Z" transform="translate(-265.75 -199.392)" fill="#616161"/>
          </g>
          <g id="Grupo_57186" data-name="Grupo 57186" transform="translate(134.161)">
            <path id="Trazado_104328" data-name="Trazado 104328" d="M299.9,204.536c0,1.1-.938,1.867-2.268,1.867-1.349,0-2.239-.772-2.239-1.846a1.8,1.8,0,0,1,1.29-1.7,1.6,1.6,0,0,1-1.016-1.525,1.8,1.8,0,0,1,1.984-1.682,1.778,1.778,0,0,1,1.985,1.653c0,.664-.372,1.1-1.114,1.476A1.861,1.861,0,0,1,299.9,204.536Zm-.938.01c0-.7-.372-1.016-1.428-1.378l-.245-.088a1.5,1.5,0,0,0-.957,1.477c0,.713.5,1.133,1.31,1.133S298.962,205.231,298.962,204.546Zm-2.415-3.206c0,.674.459.919,1.212,1.163l.166.059a1.314,1.314,0,0,0,.831-1.231,1.109,1.109,0,0,0-2.209.01Z" transform="translate(-295.393 -199.335)" fill="#616161"/>
            <path id="Trazado_104329" data-name="Trazado 104329" d="M304.261,203.022c0,2.17-.723,3.382-2.19,3.382s-2.19-1.212-2.19-3.382.724-3.374,2.19-3.374S304.261,200.861,304.261,203.022Zm-3.441,0c0,1.926.43,2.669,1.251,2.669s1.252-.743,1.252-2.669-.44-2.659-1.252-2.659S300.82,201.105,300.82,203.022Z" transform="translate(-294.393 -199.335)" fill="#616161"/>
            <path id="Trazado_104330" data-name="Trazado 104330" d="M307.443,201.358a1.59,1.59,0,1,1-1.593-1.653A1.54,1.54,0,0,1,307.443,201.358Zm-2.386,0c0,.509.166,1.045.792,1.045s.791-.517.791-1.045c0-.509-.157-1.047-.791-1.047S305.057,200.83,305.057,201.358Zm5.386-1.554-4.527,6.844-.625-.411,4.527-6.845Zm1.017,5a1.59,1.59,0,1,1-1.583-1.652A1.532,1.532,0,0,1,311.461,204.809Zm-2.376,0c0,.509.166,1.047.792,1.047s.791-.518.791-1.047c0-.507-.157-1.036-.791-1.036S309.085,204.282,309.085,204.809Z" transform="translate(-293.417 -199.392)" fill="#616161"/>
          </g>
        </g>
      </g>
    </g>
  </g>
</svg>
