<svg xmlns="http://www.w3.org/2000/svg" width="157" height="157" viewBox="0 0 157 157">
  <g id="Grupo_56916" data-name="Grupo 56916" transform="translate(-1132 -688)">
    <rect id="Rectángulo_5636" data-name="Rectángulo 5636" width="157" height="157" rx="17" transform="translate(1132 688)" fill="#eff2ff"/>
    <g id="cama" transform="translate(1159.654 721.329)">
      <path id="Trazado_102110" data-name="Trazado 102110" d="M477.481,336.406a2.989,2.989,0,0,1-2.989-2.989v-18.98h5.979v18.98A2.989,2.989,0,0,1,477.481,336.406Zm0,0" transform="translate(-379.644 -251.583)" fill="#af6c6c"/>
      <path id="Trazado_102111" data-name="Trazado 102111" d="M96.226,215.568H63.059v-7.5a11.176,11.176,0,0,1,11.176-11.176H85.051a11.176,11.176,0,0,1,11.176,11.176v7.5Zm0,0" transform="translate(-50.454 -157.536)" fill="#ffdcbe"/>
      <path id="Trazado_102112" data-name="Trazado 102112" d="M148.577,196.895h-6.116a11.18,11.18,0,0,1,11.179,11.18v7.493h6.116v-7.493A11.18,11.18,0,0,0,148.577,196.895Zm0,0" transform="translate(-113.984 -157.536)" fill="#ffcb9d"/>
      <path id="Trazado_102113" data-name="Trazado 102113" d="M482.831,314.438v18.98a2.983,2.983,0,0,1-1.39,2.522,2.986,2.986,0,0,0,4.59-2.522v-18.98Zm0,0" transform="translate(-385.204 -251.583)" fill="#9c5e5e"/>
      <path id="Trazado_102114" data-name="Trazado 102114" d="M106.85,284.37H7.5V268.244a3.9,3.9,0,0,1,3.9-3.9H97.717a9.132,9.132,0,0,1,9.133,9.133Zm0,0" transform="translate(-6.004 -211.503)" fill="#ffcb9d"/>
      <path id="Trazado_102115" data-name="Trazado 102115" d="M97.717,264.344H96.192a9.086,9.086,0,0,1,1.08,4.309v7.4a3.493,3.493,0,0,1-3.493,3.493H7.5v4.823H106.85V273.476A9.132,9.132,0,0,0,97.717,264.344Zm0,0" transform="translate(-6.004 -211.503)" fill="#ffba7e"/>
      <g id="Grupo_55918" data-name="Grupo 55918" transform="translate(21.304 1.5)">
        <path id="Trazado_102116" data-name="Trazado 102116" d="M217.792,8.608l1.281,2.6a1.981,1.981,0,0,0,1.492,1.085l2.865.416a1.982,1.982,0,0,1,1.1,3.381l-2.073,2.021a1.98,1.98,0,0,0-.57,1.754l.489,2.853A1.982,1.982,0,0,1,219.5,24.8l-2.562-1.347a1.982,1.982,0,0,0-1.845,0L212.53,24.8a1.982,1.982,0,0,1-2.876-2.09l.49-2.853a1.98,1.98,0,0,0-.571-1.754L207.5,16.085a1.982,1.982,0,0,1,1.1-3.381l2.864-.416a1.981,1.981,0,0,0,1.492-1.085l1.281-2.6A1.982,1.982,0,0,1,217.792,8.608Zm0,0" transform="translate(-186.845 -7.503)" fill="#ffd500"/>
        <path id="Trazado_102117" data-name="Trazado 102117" d="M116.38,42.492l1.153,2.336a1.785,1.785,0,0,0,1.344.976l2.578.374a1.785,1.785,0,0,1,.989,3.044l-1.865,1.818a1.786,1.786,0,0,0-.513,1.58l.44,2.567a1.784,1.784,0,0,1-2.588,1.88l-2.306-1.212a1.783,1.783,0,0,0-1.66,0l-2.307,1.212a1.784,1.784,0,0,1-2.588-1.88l.44-2.567a1.782,1.782,0,0,0-.513-1.58l-1.865-1.818a1.785,1.785,0,0,1,.989-3.044l2.578-.374a1.785,1.785,0,0,0,1.343-.976l1.153-2.336A1.784,1.784,0,0,1,116.38,42.492Zm0,0" transform="translate(-106.576 -34.703)" fill="#ffd500"/>
        <path id="Trazado_102118" data-name="Trazado 102118" d="M326.142,42.492l1.153,2.336a1.783,1.783,0,0,0,1.343.976l2.578.374a1.785,1.785,0,0,1,.989,3.044L330.34,51.04a1.784,1.784,0,0,0-.514,1.58l.44,2.567a1.784,1.784,0,0,1-2.588,1.88l-2.306-1.212a1.783,1.783,0,0,0-1.66,0l-2.306,1.212a1.784,1.784,0,0,1-2.589-1.88l.44-2.567a1.786,1.786,0,0,0-.513-1.58l-1.866-1.818a1.785,1.785,0,0,1,.989-3.044l2.578-.374a1.783,1.783,0,0,0,1.343-.976l1.153-2.336A1.784,1.784,0,0,1,326.142,42.492Zm0,0" transform="translate(-274.408 -34.703)" fill="#ffd500"/>
      </g>
      <path id="Trazado_102119" data-name="Trazado 102119" d="M415.876,110.947l.885,1.794a1.371,1.371,0,0,0,1.031.75l1.98.287a1.37,1.37,0,0,1,.759,2.337l-1.433,1.4a1.37,1.37,0,0,0-.393,1.213l.338,1.972a1.37,1.37,0,0,1-1.988,1.445l-1.771-.931a1.367,1.367,0,0,0-1.274,0l-1.771.931a1.37,1.37,0,0,1-1.988-1.445l.338-1.972a1.37,1.37,0,0,0-.394-1.213l-1.433-1.4a1.37,1.37,0,0,1,.759-2.337l1.98-.287a1.368,1.368,0,0,0,1.031-.75l.885-1.794A1.371,1.371,0,0,1,415.876,110.947Zm0,0" transform="translate(-326.721 -88.158)" fill="#ffe02f"/>
      <path id="Trazado_102120" data-name="Trazado 102120" d="M42.007,110.947l.885,1.794a1.368,1.368,0,0,0,1.031.75l1.979.287a1.37,1.37,0,0,1,.76,2.337l-1.433,1.4a1.371,1.371,0,0,0-.394,1.213l.338,1.972a1.37,1.37,0,0,1-1.987,1.445l-1.771-.931a1.369,1.369,0,0,0-1.275,0l-1.771.931a1.37,1.37,0,0,1-1.987-1.445l.338-1.972a1.371,1.371,0,0,0-.394-1.213l-1.433-1.4a1.37,1.37,0,0,1,.76-2.337l1.979-.287a1.37,1.37,0,0,0,1.031-.75l.885-1.794A1.37,1.37,0,0,1,42.007,110.947Zm0,0" transform="translate(-27.587 -88.158)" fill="#ffd500"/>
      <path id="Trazado_102121" data-name="Trazado 102121" d="M268.476,32.583l-1.616-.235a1.981,1.981,0,0,1-.086,2.752L264.7,37.12a1.983,1.983,0,0,0-.57,1.755l.49,2.853a1.979,1.979,0,0,1-1.422,2.246l1.345.707a1.982,1.982,0,0,0,2.876-2.09l-.489-2.854a1.98,1.98,0,0,1,.57-1.754l2.073-2.021A1.982,1.982,0,0,0,268.476,32.583Zm0,0" transform="translate(-210.587 -25.882)" fill="#fbc700"/>
      <path id="Trazado_102122" data-name="Trazado 102122" d="M161.154,63.933l-1.688-.245a1.783,1.783,0,0,1-.123,2.424l-1.865,1.818a1.786,1.786,0,0,0-.513,1.58l.44,2.567a1.777,1.777,0,0,1-1.21,2l1.421.747a1.784,1.784,0,0,0,2.588-1.88l-.44-2.568a1.785,1.785,0,0,1,.513-1.579l1.866-1.819A1.784,1.784,0,0,0,161.154,63.933Zm0,0" transform="translate(-124.973 -50.957)" fill="#fbc700"/>
      <path id="Trazado_102123" data-name="Trazado 102123" d="M370.917,63.933l-1.689-.245a1.782,1.782,0,0,1-.122,2.424L367.24,67.93a1.786,1.786,0,0,0-.513,1.58l.44,2.567a1.777,1.777,0,0,1-1.21,2l1.422.747a1.784,1.784,0,0,0,2.588-1.88l-.44-2.568a1.781,1.781,0,0,1,.513-1.579l1.865-1.819A1.784,1.784,0,0,0,370.917,63.933Zm0,0" transform="translate(-292.804 -50.957)" fill="#fbc700"/>
      <path id="Trazado_102124" data-name="Trazado 102124" d="M448.27,127.087l-1.857-.27a1.366,1.366,0,0,1-.184,1.743l-1.433,1.4a1.37,1.37,0,0,0-.394,1.213l.338,1.972a1.36,1.36,0,0,1-.777,1.473l1.589.835A1.369,1.369,0,0,0,447.541,134l-.338-1.972a1.37,1.37,0,0,1,.394-1.213l1.433-1.4A1.37,1.37,0,0,0,448.27,127.087Zm0,0" transform="translate(-355.219 -101.466)" fill="#ffd500"/>
      <path id="Trazado_102125" data-name="Trazado 102125" d="M74.4,127.087l-1.858-.27a1.365,1.365,0,0,1-.183,1.743l-1.433,1.4a1.371,1.371,0,0,0-.394,1.213l.338,1.972a1.36,1.36,0,0,1-.776,1.473l1.588.835A1.37,1.37,0,0,0,73.674,134l-.338-1.972a1.37,1.37,0,0,1,.394-1.213l1.433-1.4A1.37,1.37,0,0,0,74.4,127.087Zm0,0" transform="translate(-56.086 -101.466)" fill="#fbc700"/>
      <path id="Trazado_102126" data-name="Trazado 102126" d="M10.493,242.36A2.989,2.989,0,0,1,7.5,239.371V199.884a2.989,2.989,0,1,1,5.979,0v39.486A2.989,2.989,0,0,1,10.493,242.36Zm0,0" transform="translate(-6.004 -157.536)" fill="#af6c6c"/>
      <path id="Trazado_102127" data-name="Trazado 102127" d="M16.053,196.895a2.973,2.973,0,0,0-1.6.468,2.983,2.983,0,0,1,1.39,2.522v39.486a2.983,2.983,0,0,1-1.39,2.522,2.986,2.986,0,0,0,4.59-2.522V199.884A2.99,2.99,0,0,0,16.053,196.895Zm0,0" transform="translate(-11.564 -157.536)" fill="#9c5e5e"/>
      <path id="Trazado_102128" data-name="Trazado 102128" d="M102.346,213.508a10.644,10.644,0,0,0-10.633-10.632H47.273v-.8a12.694,12.694,0,0,0-12.679-12.679H23.785a12.694,12.694,0,0,0-12.679,12.679v.8H8.978v-8.993a4.489,4.489,0,1,0-8.978,0v22.307a1.5,1.5,0,1,0,3,0V193.884a1.489,1.489,0,1,1,2.979,0V233.37a1.489,1.489,0,0,1-2.979,0v-10.58a1.5,1.5,0,1,0-3,0v10.58a4.489,4.489,0,0,0,8.978,0V225.9h84.37v7.467a4.489,4.489,0,0,0,8.979,0ZM8.978,205.876H32.132a1.5,1.5,0,1,0,0-3H14.105v-.8a9.691,9.691,0,0,1,9.68-9.68H34.593a9.691,9.691,0,0,1,9.68,9.68v.8H39.2a1.5,1.5,0,1,0,0,3H91.713a7.641,7.641,0,0,1,7.633,7.632v9.4H8.978ZM97.837,234.86a1.491,1.491,0,0,1-1.489-1.49V225.9h2.979v7.467A1.492,1.492,0,0,1,97.837,234.86Zm0,0" transform="translate(0 -151.536)"/>
      <path id="Trazado_102129" data-name="Trazado 102129" d="M202.522,13.177a.482.482,0,0,1,.138.427l-.489,2.852a3.477,3.477,0,0,0,5.052,3.671l2.562-1.347a.483.483,0,0,1,.449,0l2.562,1.347a3.482,3.482,0,0,0,5.053-3.671l-.49-2.852a.482.482,0,0,1,.139-.427l2.072-2.021a3.46,3.46,0,0,0,.882-3.569,1.5,1.5,0,0,0-2.852.927.464.464,0,0,1-.123.494L215.4,11.029a3.482,3.482,0,0,0-1,3.082l.489,2.853a.482.482,0,0,1-.7.508l-2.562-1.347a3.479,3.479,0,0,0-3.24,0l-2.563,1.347a.482.482,0,0,1-.7-.508l.489-2.853a3.482,3.482,0,0,0-1-3.082l-2.073-2.021a.482.482,0,0,1,.267-.822l2.865-.416A3.483,3.483,0,0,0,208.3,5.864l1.281-2.6a.483.483,0,0,1,.865,0l1.281,2.6a3.468,3.468,0,0,0,.465.709,1.5,1.5,0,0,0,2.289-1.939.479.479,0,0,1-.064-.1l-1.281-2.6a3.481,3.481,0,0,0-6.244,0l-1.281,2.6a.483.483,0,0,1-.363.264l-2.865.416a3.482,3.482,0,0,0-1.929,5.939Zm0,0" transform="translate(-159.537)"/>
      <path id="Trazado_102130" data-name="Trazado 102130" d="M101.933,46.109a.281.281,0,0,1,.081.251l-.44,2.567a3.283,3.283,0,0,0,4.765,3.461l2.305-1.212a.283.283,0,0,1,.265,0l2.306,1.212a3.284,3.284,0,0,0,4.765-3.461l-.44-2.568a.285.285,0,0,1,.082-.251l1.865-1.818a3.284,3.284,0,0,0-1.819-5.6l-2.579-.375a.284.284,0,0,1-.213-.155l-1.153-2.336a3.283,3.283,0,0,0-5.889,0l-1.153,2.336a.286.286,0,0,1-.214.155l-2.578.375a3.284,3.284,0,0,0-1.82,5.6Zm.156-4.258a.265.265,0,0,1,.23-.193l2.578-.375a3.282,3.282,0,0,0,2.473-1.8l1.153-2.336a.284.284,0,0,1,.509,0l1.153,2.336a3.284,3.284,0,0,0,2.472,1.8l2.578.375a.264.264,0,0,1,.23.193.267.267,0,0,1-.072.291l-1.865,1.819a3.282,3.282,0,0,0-.945,2.906l.44,2.568a.284.284,0,0,1-.412.3L110.3,48.523a3.284,3.284,0,0,0-3.056,0l-2.306,1.212a.283.283,0,0,1-.412-.3l.44-2.568a3.285,3.285,0,0,0-.945-2.906l-1.865-1.819A.267.267,0,0,1,102.089,41.851Zm0,0" transform="translate(-79.269 -27.197)"/>
      <path id="Trazado_102131" data-name="Trazado 102131" d="M311.7,46.109a.284.284,0,0,1,.082.251l-.44,2.567A3.284,3.284,0,0,0,316.1,52.39l2.306-1.212a.283.283,0,0,1,.265,0l2.306,1.212a3.284,3.284,0,0,0,4.765-3.461l-.44-2.567a.288.288,0,0,1,.081-.252l1.865-1.818a3.283,3.283,0,0,0-1.819-5.6l-2.578-.375a.284.284,0,0,1-.214-.155l-1.153-2.336a3.283,3.283,0,0,0-5.889,0l-1.153,2.336a.287.287,0,0,1-.214.155l-2.578.375a3.284,3.284,0,0,0-1.82,5.6Zm.156-4.258a.265.265,0,0,1,.23-.193l2.578-.375a3.282,3.282,0,0,0,2.472-1.8l1.153-2.336a.284.284,0,0,1,.509,0l1.153,2.336a3.282,3.282,0,0,0,2.472,1.8l2.579.375a.264.264,0,0,1,.229.193.267.267,0,0,1-.072.291l-1.865,1.819a3.287,3.287,0,0,0-.945,2.906l.44,2.568a.283.283,0,0,1-.412.3l-2.306-1.212a3.284,3.284,0,0,0-3.056,0l-2.306,1.212a.284.284,0,0,1-.412-.3l.44-2.567a3.285,3.285,0,0,0-.944-2.907l-1.866-1.819A.267.267,0,0,1,311.852,41.851Zm0,0" transform="translate(-247.102 -27.197)"/>
      <path id="Trazado_102132" data-name="Trazado 102132" d="M400.985,108.247a2.852,2.852,0,0,0,.726,2.941l1.384,1.349-.327,1.905a2.87,2.87,0,0,0,4.164,3.025l1.71-.9,1.711.9a2.87,2.87,0,0,0,4.163-3.025l-.326-1.9,1.384-1.349a2.87,2.87,0,0,0-1.591-4.9l-1.912-.278-.855-1.733a2.871,2.871,0,0,0-5.147,0l-.855,1.733-1.912.278A2.853,2.853,0,0,0,400.985,108.247Zm4.728.727a2.868,2.868,0,0,0,2.161-1.569l.769-1.559.769,1.559a2.869,2.869,0,0,0,2.161,1.569l1.719.25-1.244,1.213a2.871,2.871,0,0,0-.825,2.54l.294,1.712-1.537-.808a2.869,2.869,0,0,0-2.671,0l-1.538.809.294-1.712a2.869,2.869,0,0,0-.826-2.54l-1.244-1.213Zm0,0" transform="translate(-320.716 -82.158)"/>
      <path id="Trazado_102133" data-name="Trazado 102133" d="M29.227,112.537l-.326,1.905a2.869,2.869,0,0,0,4.163,3.025l1.711-.9,1.71.9a2.87,2.87,0,0,0,4.164-3.025l-.327-1.905,1.384-1.349a2.87,2.87,0,0,0-1.591-4.9l-1.912-.278-.856-1.733a2.87,2.87,0,0,0-5.147,0l-.855,1.733-1.912.278a2.87,2.87,0,0,0-1.591,4.9Zm2.618-3.563a2.87,2.87,0,0,0,2.161-1.569l.769-1.559.769,1.559a2.868,2.868,0,0,0,2.16,1.569l1.72.25-1.245,1.213a2.871,2.871,0,0,0-.825,2.54l.294,1.712-1.537-.808a2.869,2.869,0,0,0-2.671,0l-1.537.809.294-1.712a2.871,2.871,0,0,0-.825-2.54l-1.244-1.213Zm0,0" transform="translate(-21.583 -82.158)"/>
    </g>
  </g>
</svg>
