<svg xmlns="http://www.w3.org/2000/svg" width="179" height="179" viewBox="0 0 179 179">
  <g id="Grupo_55898" data-name="Grupo 55898" transform="translate(-180 -1987)">
    <circle id="Elipse_391" data-name="Elipse 391" cx="89.5" cy="89.5" r="89.5" transform="translate(180 1987)" fill="#ffd494"/>
    <g id="check-out_2_" data-name="check-out (2)" transform="translate(219.94 2011.324)">
      <path id="Trazado_102064" data-name="Trazado 102064" d="M202.034,282.318a3.927,3.927,0,1,1-3.927-3.927A3.927,3.927,0,0,1,202.034,282.318Zm0,0" transform="translate(-143.199 -205.508)" fill="#f8ec7d"/>
      <path id="Trazado_102065" data-name="Trazado 102065" d="M198.109,18.471a10.474,10.474,0,1,1-2.858-7.189A10.475,10.475,0,0,1,198.109,18.471Zm0,0" transform="translate(-130.635 -5.904)" fill="#f8ec7d"/>
      <path id="Trazado_102066" data-name="Trazado 102066" d="M204.331,123.391v80.247l-38.018,11.383V134.774ZM181.462,167.9a3.927,3.927,0,1,0-3.927,3.927A3.927,3.927,0,0,0,181.462,167.9Zm0,0" transform="translate(-122.628 -91.087)" fill="#ff9800"/>
      <g id="Grupo_55897" data-name="Grupo 55897" transform="translate(0.195)">
        <path id="Trazado_102067" data-name="Trazado 102067" d="M160.538,116.417q-.014-.1-.034-.19c-.006-.026-.013-.049-.019-.075-.015-.059-.033-.119-.052-.177-.008-.025-.017-.048-.027-.072-.022-.058-.047-.115-.074-.171-.01-.023-.02-.044-.032-.065-.031-.06-.064-.119-.1-.175-.01-.015-.018-.032-.029-.047a2.452,2.452,0,0,0-.151-.2l-.035-.037q-.066-.077-.138-.147c-.02-.02-.043-.039-.064-.058-.043-.039-.087-.077-.133-.112l-.035-.029c-.012-.009-.025-.015-.036-.024-.05-.036-.1-.07-.154-.1-.02-.012-.04-.027-.061-.038-.073-.041-.146-.078-.223-.111h0a2.447,2.447,0,0,0-.251-.091l-.033-.008a2.162,2.162,0,0,0-.214-.051l-.079-.011c-.057-.009-.115-.016-.174-.02-.033,0-.065,0-.1-.005s-.054,0-.083,0H106.188a2.355,2.355,0,0,0-2.356,2.356v21.423a2.356,2.356,0,0,0,4.712,0V119.1h33.579l-22.61,6.769a2.358,2.358,0,0,0-1.68,2.258v66.507h-9.289V176.406a2.356,2.356,0,1,0-4.712,0v20.588a2.356,2.356,0,0,0,2.356,2.356h11.645v9.027a2.356,2.356,0,0,0,3.031,2.257l38.019-11.383a2.356,2.356,0,0,0,1.68-2.257V116.747a2.238,2.238,0,0,0-.015-.262C160.545,116.462,160.541,116.439,160.538,116.417Zm-4.687,78.823-33.306,9.972V129.884l33.306-9.972Zm0,0" transform="translate(-76.7 -84.443)" fill="#111e61"/>
        <path id="Trazado_102068" data-name="Trazado 102068" d="M191.463,281.957a6.283,6.283,0,1,0-6.283-6.283A6.283,6.283,0,0,0,191.463,281.957Zm0-7.854a1.571,1.571,0,1,1-1.571,1.571A1.571,1.571,0,0,1,191.463,274.1Zm0,0" transform="translate(-136.751 -198.864)" fill="#111e61"/>
        <path id="Trazado_102069" data-name="Trazado 102069" d="M181.746,25.133a12.5,12.5,0,1,0-8.906-3.66A12.566,12.566,0,0,0,181.746,25.133Zm0-20.944a8.378,8.378,0,1,1-8.378,8.378A8.377,8.377,0,0,1,181.746,4.189Zm0,0" transform="translate(-124.939 0)" fill="#111e61"/>
        <path id="Trazado_102070" data-name="Trazado 102070" d="M202.577,33.209l1.95,1.249v4.66a2.094,2.094,0,1,0,4.189,0V33.311a2.1,2.1,0,0,0-.965-1.764l-2.916-1.866a2.094,2.094,0,1,0-2.258,3.528Zm0,0" transform="translate(-148.88 -21.666)" fill="#111e61"/>
        <path id="Trazado_102071" data-name="Trazado 102071" d="M8.236,241.828H36.323a2.356,2.356,0,1,0,0-4.712H8.237L14.95,230.4a2.356,2.356,0,1,0-3.333-3.332L.951,237.741c-.018.016-.034.035-.051.052l-.039.04c-.042.044-.083.088-.122.135L.717,238a2.35,2.35,0,0,0-.345.576c-.01.025-.015.05-.026.076-.022.062-.044.126-.062.19-.012.043-.024.085-.033.128-.014.063-.025.128-.033.193a2.046,2.046,0,0,0-.018.21c0,.035-.005.07-.005.1,0,.014,0,.028,0,.042a1.53,1.53,0,0,0,.008.154c0,.054.011.107.019.161s.019.117.033.174a1.945,1.945,0,0,0,.056.2c.013.041.029.081.044.121.022.058.048.115.075.171.019.04.039.08.06.119.04.071.082.138.128.2q.037.052.077.1c.044.056.09.11.139.163.016.017.03.037.046.052l10.737,10.737a2.356,2.356,0,0,0,3.332-3.333Zm0,0" transform="translate(-0.195 -167.113)" fill="#111e61"/>
      </g>
    </g>
  </g>
</svg>
