<svg xmlns="http://www.w3.org/2000/svg" width="157" height="157" viewBox="0 0 157 157">
  <g id="Grupo_56917" data-name="Grupo 56917" transform="translate(-300 -1245)">
    <rect id="Rectángulo_5640" data-name="Rectángulo 5640" width="157" height="157" rx="17" transform="translate(300 1245)" fill="#eff2ff"/>
    <g id="hotel" transform="translate(332 1274)">
      <path id="Trazado_102134" data-name="Trazado 102134" d="M7.5,110.537H98.746v6.306H7.5Z" transform="translate(-6.123 -90.243)" fill="#8f818f"/>
      <path id="Trazado_102135" data-name="Trazado 102135" d="M470.154,110.537h6.306v6.306h-6.306Z" transform="translate(-383.837 -90.243)" fill="#786e79"/>
      <path id="Trazado_102136" data-name="Trazado 102136" d="M23.663,144.882h85.311v66.024H23.663Z" transform="translate(-19.319 -118.283)" fill="#eaeaea"/>
      <path id="Trazado_102137" data-name="Trazado 102137" d="M201.451,395.4h20.03v19.844h-20.03Z" transform="translate(-164.466 -322.809)" fill="#97e4f9"/>
      <path id="Trazado_102138" data-name="Trazado 102138" d="M23.663,144.882v3.338h80.118a1.855,1.855,0,0,1,1.855,1.855v60.831h3.338V144.882Z" transform="translate(-19.319 -118.283)" fill="#cbcbcb"/>
      <path id="Trazado_102139" data-name="Trazado 102139" d="M86.293,7.5h62.314V26.417H86.293Z" transform="translate(-70.45 -6.123)" fill="#fcb143"/>
      <g id="Grupo_55919" data-name="Grupo 55919" transform="translate(10.65 34.018)">
        <path id="Trazado_102140" data-name="Trazado 102140" d="M58.008,185.289h5.564v11.128H58.008Z" transform="translate(-58.008 -185.289)" fill="#97e4f9"/>
        <path id="Trazado_102141" data-name="Trazado 102141" d="M240.848,185.289h5.564v11.128h-5.564Z" transform="translate(-207.28 -185.289)" fill="#97e4f9"/>
        <path id="Trazado_102142" data-name="Trazado 102142" d="M179.9,185.289h5.564v11.128H179.9Z" transform="translate(-157.522 -185.289)" fill="#97e4f9"/>
        <path id="Trazado_102143" data-name="Trazado 102143" d="M118.955,185.289h5.564v11.128h-5.564Z" transform="translate(-107.766 -185.289)" fill="#97e4f9"/>
        <path id="Trazado_102144" data-name="Trazado 102144" d="M423.687,185.289h5.564v11.128h-5.564Z" transform="translate(-356.551 -185.289)" fill="#97e4f9"/>
        <path id="Trazado_102145" data-name="Trazado 102145" d="M301.794,185.289h5.564v11.128h-5.564Z" transform="translate(-257.036 -185.289)" fill="#97e4f9"/>
        <path id="Trazado_102146" data-name="Trazado 102146" d="M362.741,185.289H368.3v11.128h-5.564Z" transform="translate(-306.794 -185.289)" fill="#97e4f9"/>
        <path id="Trazado_102147" data-name="Trazado 102147" d="M58.008,290.346h5.564v11.128H58.008Z" transform="translate(-58.008 -271.058)" fill="#97e4f9"/>
        <path id="Trazado_102148" data-name="Trazado 102148" d="M240.848,290.346h5.564v11.128h-5.564Z" transform="translate(-207.28 -271.058)" fill="#97e4f9"/>
        <path id="Trazado_102149" data-name="Trazado 102149" d="M179.9,290.346h5.564v11.128H179.9Z" transform="translate(-157.522 -271.058)" fill="#97e4f9"/>
        <path id="Trazado_102150" data-name="Trazado 102150" d="M118.955,290.346h5.564v11.128h-5.564Z" transform="translate(-107.766 -271.058)" fill="#97e4f9"/>
        <path id="Trazado_102151" data-name="Trazado 102151" d="M423.687,290.346h5.564v11.128h-5.564Z" transform="translate(-356.551 -271.058)" fill="#97e4f9"/>
        <path id="Trazado_102152" data-name="Trazado 102152" d="M301.794,290.346h5.564v11.128h-5.564Z" transform="translate(-257.036 -271.058)" fill="#97e4f9"/>
        <path id="Trazado_102153" data-name="Trazado 102153" d="M362.741,290.346H368.3v11.128h-5.564Z" transform="translate(-306.794 -271.058)" fill="#97e4f9"/>
        <path id="Trazado_102154" data-name="Trazado 102154" d="M58.008,395.4h5.564V406.53H58.008Z" transform="translate(-58.008 -356.827)" fill="#97e4f9"/>
        <path id="Trazado_102155" data-name="Trazado 102155" d="M118.955,395.4h5.564V406.53h-5.564Z" transform="translate(-107.766 -356.827)" fill="#97e4f9"/>
        <path id="Trazado_102156" data-name="Trazado 102156" d="M423.687,395.4h5.564V406.53h-5.564Z" transform="translate(-356.551 -356.827)" fill="#97e4f9"/>
        <path id="Trazado_102157" data-name="Trazado 102157" d="M362.741,395.4H368.3V406.53h-5.564Z" transform="translate(-306.794 -356.827)" fill="#97e4f9"/>
      </g>
      <path id="Trazado_102158" data-name="Trazado 102158" d="M92.623,18.917H79.534V1.377A1.377,1.377,0,0,0,78.157,0h-7a1.377,1.377,0,0,0,0,2.754H76.78V18.917H17.22V2.754h47.5a1.377,1.377,0,0,0,0-2.754H15.843a1.377,1.377,0,0,0-1.377,1.377v17.54H1.377A1.377,1.377,0,0,0,0,20.294V26.6a1.377,1.377,0,0,0,1.377,1.377h1.59V92.623A1.377,1.377,0,0,0,4.344,94h8.966a1.377,1.377,0,0,0,0-2.754H5.721V27.976H77.76a1.377,1.377,0,0,0,0-2.754H2.754V21.671H91.246v3.552H84.178a1.377,1.377,0,0,0,0,2.754h4.1v63.27H58.392V72.593a1.377,1.377,0,0,0-1.377-1.377H36.985a1.377,1.377,0,0,0-1.377,1.377V91.246H19.748a1.377,1.377,0,1,0,0,2.754H89.656a1.377,1.377,0,0,0,1.377-1.377V27.976h1.59A1.377,1.377,0,0,0,94,26.6V20.294a1.377,1.377,0,0,0-1.377-1.377ZM55.638,91.246H48.377V73.97h7.261ZM38.362,73.97h7.261V91.246H38.362Z"/>
      <path id="Trazado_102159" data-name="Trazado 102159" d="M113.111,38.291a1.377,1.377,0,0,0,1.377-1.377V27.641a1.377,1.377,0,1,0-2.754,0V30.9h-3.923v-3.26a1.377,1.377,0,0,0-2.754,0v9.273a1.377,1.377,0,0,0,2.754,0v-3.26h3.923v3.26A1.377,1.377,0,0,0,113.111,38.291Z" transform="translate(-85.769 -21.442)"/>
      <path id="Trazado_102160" data-name="Trazado 102160" d="M169.064,26.264a1.377,1.377,0,0,0-1.377,1.377v9.273a1.377,1.377,0,0,0,1.377,1.377h6.677a1.377,1.377,0,0,0,1.377-1.377V27.641a1.377,1.377,0,0,0-1.377-1.377Zm5.3,9.273h-3.923V29.018h3.923Z" transform="translate(-136.901 -21.442)"/>
      <path id="Trazado_102161" data-name="Trazado 102161" d="M301,29.018a1.377,1.377,0,0,0,0-2.754h-6.677a1.377,1.377,0,0,0-1.377,1.377v9.273a1.377,1.377,0,0,0,1.377,1.377H301a1.377,1.377,0,0,0,0-2.754h-5.3V33.654h3.074a1.377,1.377,0,0,0,0-2.754H295.7V29.018Z" transform="translate(-239.164 -21.442)"/>
      <path id="Trazado_102162" data-name="Trazado 102162" d="M355.577,27.641v9.273a1.377,1.377,0,0,0,1.377,1.377h6.677a1.377,1.377,0,0,0,0-2.754h-5.3v-7.9a1.377,1.377,0,1,0-2.754,0Z" transform="translate(-290.295 -21.442)"/>
      <path id="Trazado_102163" data-name="Trazado 102163" d="M235.032,38.291a1.377,1.377,0,0,0,1.377-1.377v-7.9h1.961a1.377,1.377,0,0,0,0-2.754h-6.677a1.377,1.377,0,0,0,0,2.754h1.961v7.9A1.377,1.377,0,0,0,235.032,38.291Z" transform="translate(-188.032 -21.442)"/>
      <path id="Trazado_102164" data-name="Trazado 102164" d="M57.449,177.789H51.885a1.377,1.377,0,0,0-1.377,1.377v11.128a1.377,1.377,0,0,0,1.377,1.377h5.564a1.377,1.377,0,0,0,1.377-1.377V179.166A1.377,1.377,0,0,0,57.449,177.789Zm-1.377,11.127h-2.81v-8.374h2.81Z" transform="translate(-41.235 -145.148)"/>
      <path id="Trazado_102165" data-name="Trazado 102165" d="M234.725,191.67h5.564a1.377,1.377,0,0,0,1.377-1.377V179.165a1.377,1.377,0,0,0-1.377-1.377h-5.564a1.377,1.377,0,0,0-1.377,1.377v11.128A1.377,1.377,0,0,0,234.725,191.67Zm1.377-11.127h2.81v8.374H236.1Z" transform="translate(-190.507 -145.147)"/>
      <path id="Trazado_102166" data-name="Trazado 102166" d="M173.778,191.67h5.564a1.377,1.377,0,0,0,1.377-1.377V179.165a1.377,1.377,0,0,0-1.377-1.377h-5.564a1.377,1.377,0,0,0-1.377,1.377v11.128A1.377,1.377,0,0,0,173.778,191.67Zm1.377-11.127h2.81v8.374h-2.81Z" transform="translate(-140.749 -145.147)"/>
      <path id="Trazado_102167" data-name="Trazado 102167" d="M112.832,191.67H118.4a1.377,1.377,0,0,0,1.377-1.377V179.165a1.377,1.377,0,0,0-1.377-1.377h-5.564a1.377,1.377,0,0,0-1.377,1.377v11.128A1.377,1.377,0,0,0,112.832,191.67Zm1.377-11.127h2.81v8.374h-2.81Z" transform="translate(-90.993 -145.147)"/>
      <path id="Trazado_102168" data-name="Trazado 102168" d="M417.564,191.67h5.564a1.377,1.377,0,0,0,1.377-1.377V179.165a1.377,1.377,0,0,0-1.377-1.377h-5.564a1.377,1.377,0,0,0-1.377,1.377v11.128A1.377,1.377,0,0,0,417.564,191.67Zm1.377-11.127h2.81v8.374h-2.81Z" transform="translate(-339.778 -145.147)"/>
      <path id="Trazado_102169" data-name="Trazado 102169" d="M295.671,191.67h5.564a1.377,1.377,0,0,0,1.377-1.377V179.165a1.377,1.377,0,0,0-1.377-1.377h-5.564a1.377,1.377,0,0,0-1.377,1.377v11.128A1.377,1.377,0,0,0,295.671,191.67Zm1.377-11.127h2.81v8.374h-2.81Z" transform="translate(-240.263 -145.147)"/>
      <path id="Trazado_102170" data-name="Trazado 102170" d="M356.618,191.67h5.564a1.377,1.377,0,0,0,1.377-1.377V179.165a1.377,1.377,0,0,0-1.377-1.377h-5.564a1.377,1.377,0,0,0-1.377,1.377v11.128A1.377,1.377,0,0,0,356.618,191.67Zm1.377-11.127h2.81v8.374h-2.81Z" transform="translate(-290.021 -145.147)"/>
      <path id="Trazado_102171" data-name="Trazado 102171" d="M57.449,282.846H51.885a1.377,1.377,0,0,0-1.377,1.377V295.35a1.377,1.377,0,0,0,1.377,1.377h5.564a1.377,1.377,0,0,0,1.377-1.377V284.223A1.377,1.377,0,0,0,57.449,282.846Zm-1.377,11.127h-2.81V285.6h2.81Z" transform="translate(-41.235 -230.917)"/>
      <path id="Trazado_102172" data-name="Trazado 102172" d="M233.348,295.35a1.377,1.377,0,0,0,1.377,1.377h5.564a1.377,1.377,0,0,0,1.377-1.377V284.223a1.377,1.377,0,0,0-1.377-1.377h-5.564a1.377,1.377,0,0,0-1.377,1.377Zm2.754-9.75h2.81v8.374H236.1Z" transform="translate(-190.507 -230.917)"/>
      <path id="Trazado_102173" data-name="Trazado 102173" d="M172.4,295.35a1.377,1.377,0,0,0,1.377,1.377h5.564a1.377,1.377,0,0,0,1.377-1.377V284.223a1.377,1.377,0,0,0-1.377-1.377h-5.564a1.377,1.377,0,0,0-1.377,1.377Zm2.754-9.75h2.81v8.374h-2.81Z" transform="translate(-140.749 -230.917)"/>
      <path id="Trazado_102174" data-name="Trazado 102174" d="M111.455,295.35a1.377,1.377,0,0,0,1.377,1.377H118.4a1.377,1.377,0,0,0,1.377-1.377V284.223a1.377,1.377,0,0,0-1.377-1.377h-5.564a1.377,1.377,0,0,0-1.377,1.377Zm2.754-9.75h2.81v8.374h-2.81Z" transform="translate(-90.993 -230.917)"/>
      <path id="Trazado_102175" data-name="Trazado 102175" d="M416.187,295.35a1.377,1.377,0,0,0,1.377,1.377h5.564a1.377,1.377,0,0,0,1.377-1.377V284.223a1.377,1.377,0,0,0-1.377-1.377h-5.564a1.377,1.377,0,0,0-1.377,1.377Zm2.754-9.75h2.81v8.374h-2.81Z" transform="translate(-339.778 -230.917)"/>
      <path id="Trazado_102176" data-name="Trazado 102176" d="M294.294,295.35a1.377,1.377,0,0,0,1.377,1.377h5.564a1.377,1.377,0,0,0,1.377-1.377V284.223a1.377,1.377,0,0,0-1.377-1.377h-5.564a1.377,1.377,0,0,0-1.377,1.377Zm2.754-9.75h2.81v8.374h-2.81Z" transform="translate(-240.263 -230.917)"/>
      <path id="Trazado_102177" data-name="Trazado 102177" d="M355.241,295.35a1.377,1.377,0,0,0,1.377,1.377h5.564a1.377,1.377,0,0,0,1.377-1.377V284.223a1.377,1.377,0,0,0-1.377-1.377h-5.564a1.377,1.377,0,0,0-1.377,1.377Zm2.754-9.75h2.81v8.374h-2.81Z" transform="translate(-290.021 -230.917)"/>
      <path id="Trazado_102178" data-name="Trazado 102178" d="M57.449,387.9H51.885a1.377,1.377,0,0,0-1.377,1.377v11.128a1.377,1.377,0,0,0,1.377,1.377h5.564a1.377,1.377,0,0,0,1.377-1.377V389.279A1.377,1.377,0,0,0,57.449,387.9ZM56.072,399.03h-2.81v-8.374h2.81Z" transform="translate(-41.235 -316.686)"/>
      <path id="Trazado_102179" data-name="Trazado 102179" d="M111.455,400.407a1.377,1.377,0,0,0,1.377,1.377H118.4a1.377,1.377,0,0,0,1.377-1.377V389.279A1.377,1.377,0,0,0,118.4,387.9h-5.564a1.377,1.377,0,0,0-1.377,1.377Zm2.754-9.751h2.81v8.374h-2.81Z" transform="translate(-90.993 -316.686)"/>
      <path id="Trazado_102180" data-name="Trazado 102180" d="M416.187,400.407a1.377,1.377,0,0,0,1.377,1.377h5.564a1.377,1.377,0,0,0,1.377-1.377V389.279a1.377,1.377,0,0,0-1.377-1.377h-5.564a1.377,1.377,0,0,0-1.377,1.377Zm2.754-9.751h2.81v8.374h-2.81Z" transform="translate(-339.778 -316.686)"/>
      <path id="Trazado_102181" data-name="Trazado 102181" d="M355.241,400.407a1.377,1.377,0,0,0,1.377,1.377h5.564a1.377,1.377,0,0,0,1.377-1.377V389.279a1.377,1.377,0,0,0-1.377-1.377h-5.564a1.377,1.377,0,0,0-1.377,1.377Zm2.754-9.751h2.81v8.374h-2.81Z" transform="translate(-290.021 -316.686)"/>
    </g>
  </g>
</svg>
