<svg xmlns="http://www.w3.org/2000/svg" width="121.799" height="149.528" viewBox="0 0 121.799 149.528">
  <g id="correccion-de-pruebas" transform="translate(-47.474)">
    <g id="Grupo_56906" data-name="Grupo 56906" transform="translate(49.674 1.929)">
      <path id="Trazado_104031" data-name="Trazado 104031" d="M160.623,150.383l-90.379-.6a5.841,5.841,0,0,1-5.841-5.841L64.13,15.122c0-3.226-.049-8.516,3.177-8.516h96.255a5.841,5.841,0,0,1,5.841,5.841V145.888C169.4,149.114,163.849,150.383,160.623,150.383Z" transform="translate(-61.466 -6.606)" fill="#faf8f8"/>
      <path id="Trazado_104032" data-name="Trazado 104032" d="M162.945,145.89a5.841,5.841,0,0,1-5.841,5.841H60.849a5.841,5.841,0,0,1-5.841-5.841V12.451A5.839,5.839,0,0,1,60.849,6.61V142.385a3.5,3.5,0,0,0,3.5,3.5Z" transform="translate(-55.008 -6.609)" fill="#f0e9e6"/>
      <path id="Trazado_104033" data-name="Trazado 104033" d="M122.23,44.592l1.536-.8H188.5a2.92,2.92,0,0,1,2.92,2.92v2.862l-.977,1.344c0,1.613-1.743,1.417-3.355,1.417l-62.35.46a2.92,2.92,0,0,1-2.92-2.92L120.8,47.71c0-1.613-.18-3.118,1.433-3.118Z" transform="translate(-101.579 -32.931)" fill="#b7e546"/>
      <path id="Trazado_104034" data-name="Trazado 104034" d="M188.716,49.573v1.168a2.918,2.918,0,0,1-2.92,2.92H119.9a2.92,2.92,0,0,1-2.92-2.92V46.71a2.922,2.922,0,0,1,2.92-2.92h1.168v3.738a2.045,2.045,0,0,0,2.044,2.044Z" transform="translate(-98.88 -32.931)" fill="#abd641"/>
      <g id="Grupo_56904" data-name="Grupo 56904" transform="translate(21.15 30.78)">
        <path id="Trazado_104035" data-name="Trazado 104035" d="M356.921,330.407l21.089,18.809a7.9,7.9,0,0,1-1.506,12.837c-3.128,1.689-7.062-.864-9.557-3.661l-17.972-20.041Z" transform="translate(-284.274 -266.622)" fill="#5d748a"/>
        <path id="Trazado_104036" data-name="Trazado 104036" d="M326.545,306.413l-7.355-5.976-8.553-3.941-4.394,4.394,7.809,4.577,3.767,9.672Z" transform="translate(-254.021 -242.615)" fill="#5d748a"/>
        <path id="Trazado_104037" data-name="Trazado 104037" d="M374.28,375.1a7.9,7.9,0,0,1-9.638-1.7l-18.809-21.087,3.48-3.48,21.508,23.4a13.844,13.844,0,0,0,3.459,2.864Z" transform="translate(-282.049 -279.671)" fill="#3f597d"/>
        <path id="Trazado_104038" data-name="Trazado 104038" d="M316.168,299.911a39.032,39.032,0,0,0,3.02-3.5l-6.893-5.6-2.573,2.573-3.48,3.48L317.8,311.239l3.479-3.479-5.179-6.438a1.068,1.068,0,0,1,.063-1.412Z" transform="translate(-254.019 -238.592)" fill="#3f597d"/>
        <circle id="Elipse_473" data-name="Elipse 473" cx="28.871" cy="28.871" r="28.871" transform="translate(5.306 5.306)" fill="#faf8f8"/>
        <path id="Trazado_104039" data-name="Trazado 104039" d="M348.574,323.319l-5.294,5.294-3.439,2.281c-1.483,1.483-3.327,1.743-4.809.261l-1.044-1.267c-1.483-1.483-1.259-2.693.224-4.176l2.93-4.253,4.787-4.787a3.8,3.8,0,0,1,5.369,0l1.277,1.277A3.8,3.8,0,0,1,348.574,323.319Z" transform="translate(-272.95 -256.111)" fill="#ffbf54"/>
        <path id="Trazado_104040" data-name="Trazado 104040" d="M341.593,342.912l-3.328,3.328a2.342,2.342,0,0,1-.211.19,3.475,3.475,0,0,1-4.712-.19l-1.724-1.724a3.477,3.477,0,0,1,0-4.92l3.836-3.836,3.073,3.82Z" transform="translate(-271.263 -270.411)" fill="#ffa442"/>
        <path id="Trazado_104041" data-name="Trazado 104041" d="M167.165,112a34.083,34.083,0,0,0-24.623,10.5c-5.915,6.147-7.263,14.5-7.263,23.681,0,18.844,13.514,32.705,32.361,32.705,7.771,0,13.975-1.3,19.722-5.683a38.261,38.261,0,0,0,4.533-3.457A34.161,34.161,0,0,0,167.165,112Zm0,60.625a26.447,26.447,0,1,1,26.447-26.447,26.447,26.447,0,0,1-26.447,26.447Z" transform="translate(-132.986 -112)" fill="#5d748a"/>
        <path id="Trazado_104042" data-name="Trazado 104042" d="M186.455,187.841a34.163,34.163,0,1,1-46.209-50.1,34.159,34.159,0,0,0,46.209,50.1Z" transform="translate(-127.428 -130.222)" fill="#3f597d"/>
      </g>
      <path id="Trazado_104043" data-name="Trazado 104043" d="M197.456,215.943a4.366,4.366,0,0,1-3.1-1.283l-8.365-9c-1.76-1.76-1.277-6.049-1.277-6.049a4.463,4.463,0,0,1,6.13.234l6.11,6.11a.873.873,0,0,0,.619.257,46.557,46.557,0,0,0,4.922-.353l8.5-10.887c1.668-1.668,5.125-4.382,6.87-2.795a4.381,4.381,0,0,1,.153,6.341l-17.348,17.348a4.421,4.421,0,0,1-.5.43c-.77.569-1.8-.356-2.717-.356Z" transform="translate(-146.792 -137.643)" fill="#b7e546"/>
      <g id="Grupo_56905" data-name="Grupo 56905" transform="translate(36.487 53.429)">
        <path id="Trazado_104044" data-name="Trazado 104044" d="M248.707,190.683a4.481,4.481,0,0,0-.6.505l-16.156,16a.876.876,0,0,1-1.238,0l-2.523-2.523a.88.88,0,0,0,.826-.231L242.557,190.9a4.462,4.462,0,0,1,6.13-.234A.135.135,0,0,1,248.707,190.683Z" transform="translate(-214.099 -189.554)" fill="#abd641"/>
        <path id="Trazado_104045" data-name="Trazado 104045" d="M196.837,234.9a4.382,4.382,0,0,1-5.695-.429l-9.915-9.915a4.381,4.381,0,0,1,.152-6.34c.093-.085.19-.166.292-.242a4.365,4.365,0,0,0,1.282,3.23l13.738,13.56C196.738,234.806,196.788,234.853,196.837,234.9Z" transform="translate(-179.944 -209.671)" fill="#abd641"/>
      </g>
    </g>
    <g id="Grupo_56907" data-name="Grupo 56907" transform="translate(47.474 0)">
      <path id="Trazado_104046" data-name="Trazado 104046" d="M114.569,41.571h44.383a2.19,2.19,0,0,0,0-4.381H114.569a5.117,5.117,0,0,0-5.111,5.111v4.032a5.117,5.117,0,0,0,5.111,5.111h65.909a5.117,5.117,0,0,0,5.111-5.111V42.3a5.117,5.117,0,0,0-5.111-5.111h-11.3a2.19,2.19,0,1,0,0,4.381h11.3a.731.731,0,0,1,.731.731v4.032a.731.731,0,0,1-.731.731H114.569a.731.731,0,0,1-.731-.731V42.3A.732.732,0,0,1,114.569,41.571Z" transform="translate(-91.356 -26.329)"/>
      <path id="Trazado_104047" data-name="Trazado 104047" d="M139.257,398.47H97.7a2.19,2.19,0,1,0,0,4.381h41.555a2.19,2.19,0,0,0,0-4.381Z" transform="translate(-81.483 -282.098)"/>
      <path id="Trazado_104048" data-name="Trazado 104048" d="M190.6,449.6a2.19,2.19,0,0,0,2.19,2.19h24.355a2.19,2.19,0,1,0,0-4.381H192.791a2.19,2.19,0,0,0-2.19,2.19Z" transform="translate(-148.801 -316.748)"/>
      <path id="Trazado_104049" data-name="Trazado 104049" d="M169.268,121.363a9.967,9.967,0,0,0-3.36-7.221l-6.1-5.439V8.032A8.041,8.041,0,0,0,151.777,0H55.506a8.041,8.041,0,0,0-8.032,8.032V118.943a2.19,2.19,0,0,0,4.381,0V8.032a3.656,3.656,0,0,1,3.652-3.651h96.271a3.656,3.656,0,0,1,3.652,3.651V104.8l-5.993-5.345a6.012,6.012,0,0,0,.245-1.7,5.948,5.948,0,0,0-1.753-4.234l-1.26-1.26a6,6,0,0,0-7.057-1.044L135.2,87.635a36.23,36.23,0,0,0,4.025-32.306h4.363a2.19,2.19,0,1,0,0-4.381h-6.259a36.36,36.36,0,0,0-3.085-4.966h9.345a2.19,2.19,0,0,0,0-4.381H130.437a36.529,36.529,0,0,0-6.325-4.966h19.479a2.19,2.19,0,1,0,0-4.381H114.035a48.341,48.341,0,0,0-8.986-1.044A68.548,68.548,0,0,0,96.4,32.255H70.276a2.19,2.19,0,0,0,0,4.381H85.987A36.531,36.531,0,0,0,79.661,41.6H63.693a2.19,2.19,0,0,0,0,4.381H75.852a36.361,36.361,0,0,0-3.086,4.966H63.693a2.19,2.19,0,0,0,0,4.381H70.87a35.967,35.967,0,0,0-1.381,4.966h-5.8a2.19,2.19,0,0,0,0,4.381H68.88q-.107,1.393-.108,2.813c0,.723.024,1.44.066,2.152H63.694a2.19,2.19,0,1,0,0,4.381h5.669a35.991,35.991,0,0,0,1.278,4.966H63.694a2.19,2.19,0,0,0,0,4.381h8.743a36.3,36.3,0,0,0,2.939,4.966h-5.1a2.19,2.19,0,0,0,0,4.381H79a36.544,36.544,0,0,0,5.955,4.966H63.694a2.19,2.19,0,0,0,0,4.381h30.1a43.233,43.233,0,0,0,11.258,1.705A36.067,36.067,0,0,0,125.2,97.642l3.585,4.414a6.015,6.015,0,0,0-.284,4.97h-64.8a2.19,2.19,0,1,0,0,4.381h68.831a6,6,0,0,0,4.477.458l14.7,16.483a10.014,10.014,0,0,0,3.726,2.635V141.5a3.656,3.656,0,0,1-3.652,3.651H55.506a3.656,3.656,0,0,1-3.652-3.651V129.2a2.19,2.19,0,0,0-4.381,0v12.3a8.041,8.041,0,0,0,8.032,8.032h96.271a8.041,8.041,0,0,0,8.032-8.032v-9.8a10.059,10.059,0,0,0,9.458-10.33ZM142.434,94.888a1.6,1.6,0,0,1,1.136.47l1.26,1.26a1.593,1.593,0,0,1,.236,1.963c-.047.048-.042.073-.236.309h0l-8.362,8.363a1.689,1.689,0,0,1-2.354-.083l-1.177-1.177a1.606,1.606,0,0,1-.022-2.244c.366-.381,7.933-7.933,8.385-8.39a1.6,1.6,0,0,1,1.136-.47Zm-69.282-27.4a31.9,31.9,0,1,1,31.9,31.9A31.933,31.933,0,0,1,73.152,67.488Zm59.4,23.634,3.747,3.044-4.568,4.568-3.044-3.747a36.609,36.609,0,0,0,3.865-3.865Zm30.68,34.545a5.794,5.794,0,0,1-8.256-.236L140.6,109.315l6.278-6.278,16.116,14.373A5.792,5.792,0,0,1,163.228,125.667Z" transform="translate(-47.474 0)"/>
      <path id="Trazado_104050" data-name="Trazado 104050" d="M175.367,133.269a28.567,28.567,0,0,0-21.291,47.614,2.19,2.19,0,1,0,3.264-2.922,24.125,24.125,0,1,1,7.506,5.659,2.19,2.19,0,0,0-1.908,3.943,28.3,28.3,0,0,0,12.43,2.839,28.567,28.567,0,0,0,0-57.134Z" transform="translate(-117.792 -94.348)"/>
      <path id="Trazado_104051" data-name="Trazado 104051" d="M203.245,195.691a2.19,2.19,0,0,0,3.1,3.1l4.684-4.684a6.687,6.687,0,0,0,0-9.294,6.58,6.58,0,0,0-9.294,0l-12.7,12.7-5.269-5.269a6.58,6.58,0,0,0-9.294,0,6.687,6.687,0,0,0,0,9.294l9.916,9.916a6.572,6.572,0,0,0,9.294,0l5.42-5.421a2.19,2.19,0,0,0-3.1-3.1l-5.42,5.42a2.192,2.192,0,0,1-3.1,0l-9.916-9.916a2.265,2.265,0,0,1,0-3.1,2.193,2.193,0,0,1,3.1,0l6.818,6.818a2.191,2.191,0,0,0,3.1,0l14.253-14.253a2.193,2.193,0,0,1,3.1,0,2.265,2.265,0,0,1,0,3.1Z" transform="translate(-136.048 -129.477)"/>
    </g>
  </g>
</svg>
