<svg xmlns="http://www.w3.org/2000/svg" width="179" height="179" viewBox="0 0 179 179">
  <g id="Grupo_56920" data-name="Grupo 56920" transform="translate(-180 -2410)">
    <circle id="Elipse_392" data-name="Elipse 392" cx="89.5" cy="89.5" r="89.5" transform="translate(180 2410)" fill="#ffd494"/>
    <g id="el-tiempo-es-dinero" transform="translate(214.578 2439)">
      <g id="Grupo_55902" data-name="Grupo 55902" transform="translate(1.609 38.885)">
        <g id="Grupo_55899" data-name="Grupo 55899">
          <circle id="Elipse_393" data-name="Elipse 393" cx="34.675" cy="34.675" r="34.675" fill="#ff9800"/>
        </g>
        <g id="Grupo_55900" data-name="Grupo 55900" transform="translate(5.109 5.109)">
          <path id="Trazado_102072" data-name="Trazado 102072" d="M79,205.063a34.68,34.68,0,0,1-47.689,47.689A34.677,34.677,0,1,0,79,205.063Z" transform="translate(-31.315 -205.063)" fill="#ff9800"/>
        </g>
        <g id="Grupo_55901" data-name="Grupo 55901" transform="translate(6.502 6.502)">
          <circle id="Elipse_394" data-name="Elipse 394" cx="28.173" cy="28.173" r="28.173" fill="#eff3f5"/>
        </g>
      </g>
      <g id="Grupo_55903" data-name="Grupo 55903" transform="translate(64.891 1.609)">
        <path id="Trazado_102073" data-name="Trazado 102073" d="M324.14,7.5a21.675,21.675,0,0,0-18.3,33.287l-2.506,9.19,9.19-2.506A21.673,21.673,0,1,0,324.14,7.5Z" transform="translate(-302.468 -7.5)" fill="#eff3f5"/>
      </g>
      <g id="Grupo_55904" data-name="Grupo 55904" transform="translate(65.758 5.936)">
        <path id="Trazado_102074" data-name="Trazado 102074" d="M340.309,27.671a21.293,21.293,0,0,1-32.573,26.641,21.641,21.641,0,0,0,1.279,2.319l-2.506,9.19,9.19-2.506a21.673,21.673,0,0,0,24.61-35.643Z" transform="translate(-306.509 -27.671)" fill="#daeaef"/>
      </g>
      <g id="Grupo_55905" data-name="Grupo 55905" transform="translate(71.393 8.111)">
        <circle id="Elipse_395" data-name="Elipse 395" cx="15.17" cy="15.17" r="15.17" fill="#fce25c"/>
      </g>
      <g id="Grupo_55906" data-name="Grupo 55906" transform="translate(74.427 11.145)">
        <path id="Trazado_102075" data-name="Trazado 102075" d="M368.153,51.947a15.17,15.17,0,0,1-21.238,21.238,15.17,15.17,0,1,0,21.238-21.238Z" transform="translate(-346.915 -51.947)" fill="#fbd307"/>
      </g>
      <g id="Grupo_55907" data-name="Grupo 55907" transform="translate(0 0)">
        <path id="Trazado_102076" data-name="Trazado 102076" d="M40.228,174.7a1.609,1.609,0,1,0-.346,3.2,33.066,33.066,0,1,1-7.195,0,1.609,1.609,0,1,0-.346-3.2,36.279,36.279,0,1,0,7.888,0Z" transform="translate(0 -137.213)"/>
        <path id="Trazado_102077" data-name="Trazado 102077" d="M30.305,233.835a29.782,29.782,0,1,0,29.782-29.782,29.816,29.816,0,0,0-29.782,29.782Zm29.782-26.564a26.564,26.564,0,1,1-26.564,26.564A26.594,26.594,0,0,1,60.087,207.271Z" transform="translate(-23.803 -160.276)"/>
        <path id="Trazado_102078" data-name="Trazado 102078" d="M159.231,287.187l5.048,8.744a1.609,1.609,0,1,0,2.787-1.609l-5.047-8.742a2.592,2.592,0,0,0-.805-3V270.313a1.609,1.609,0,1,0-3.218,0v12.263a2.6,2.6,0,0,0,1.235,4.611Z" transform="translate(-123.321 -211.057)"/>
        <path id="Trazado_102079" data-name="Trazado 102079" d="M163.235,233.918a1.609,1.609,0,0,0,1.609-1.609v-1.393a1.609,1.609,0,0,0-3.218,0v1.393A1.609,1.609,0,0,0,163.235,233.918Z" transform="translate(-126.951 -180.112)"/>
        <path id="Trazado_102080" data-name="Trazado 102080" d="M109.5,247.136a1.609,1.609,0,0,0,2.787-1.609l-.7-1.207a1.609,1.609,0,0,0-2.787,1.609Z" transform="translate(-85.295 -191.272)"/>
        <path id="Trazado_102081" data-name="Trazado 102081" d="M70.573,285.341l1.207.7a1.609,1.609,0,0,0,1.609-2.787l-1.207-.7a1.609,1.609,0,1,0-1.609,2.787Z" transform="translate(-54.8 -221.766)"/>
        <path id="Trazado_102082" data-name="Trazado 102082" d="M57.168,338.592h1.393a1.609,1.609,0,0,0,0-3.218H57.168a1.609,1.609,0,1,0,0,3.218Z" transform="translate(-43.639 -263.423)"/>
        <path id="Trazado_102083" data-name="Trazado 102083" d="M71.78,385.375l-1.207.7a1.609,1.609,0,1,0,1.609,2.787l1.207-.7a1.609,1.609,0,1,0-1.609-2.787Z" transform="translate(-54.801 -302.528)"/>
        <path id="Trazado_102084" data-name="Trazado 102084" d="M109.4,425.815a1.608,1.608,0,0,0,2.2-.589l.7-1.207a1.609,1.609,0,0,0-2.787-1.609l-.7,1.207A1.609,1.609,0,0,0,109.4,425.815Z" transform="translate(-85.294 -331.155)"/>
        <path id="Trazado_102085" data-name="Trazado 102085" d="M163.235,434.947a1.609,1.609,0,0,0-1.609,1.609v1.393a1.609,1.609,0,1,0,3.218,0v-1.393A1.609,1.609,0,0,0,163.235,434.947Z" transform="translate(-126.951 -341.634)"/>
        <path id="Trazado_102086" data-name="Trazado 102086" d="M212.324,425.225a1.609,1.609,0,0,0,2.787-1.609l-.7-1.207a1.609,1.609,0,0,0-2.787,1.609Z" transform="translate(-166.056 -331.154)"/>
        <path id="Trazado_102087" data-name="Trazado 102087" d="M248.662,388.162l1.206.7a1.609,1.609,0,0,0,1.609-2.787l-1.206-.7a1.609,1.609,0,0,0-1.609,2.787Z" transform="translate(-194.683 -302.527)"/>
        <path id="Trazado_102088" data-name="Trazado 102088" d="M261.2,336.983a1.609,1.609,0,0,0,1.609,1.609H264.2a1.609,1.609,0,0,0,0-3.218h-1.393A1.609,1.609,0,0,0,261.2,336.983Z" transform="translate(-205.162 -263.423)"/>
        <path id="Trazado_102089" data-name="Trazado 102089" d="M249.468,286.255a1.6,1.6,0,0,0,.8-.216l1.206-.7a1.609,1.609,0,0,0-1.609-2.787l-1.206.7a1.609,1.609,0,0,0,.806,3Z" transform="translate(-194.683 -221.767)"/>
        <path id="Trazado_102090" data-name="Trazado 102090" d="M212.217,247.726a1.608,1.608,0,0,0,2.2-.589l.7-1.207a1.609,1.609,0,0,0-2.787-1.609l-.7,1.207A1.609,1.609,0,0,0,212.217,247.726Z" transform="translate(-166.056 -191.273)"/>
        <path id="Trazado_102091" data-name="Trazado 102091" d="M318.249,0a23.144,23.144,0,0,0-13.276,4.154A1.609,1.609,0,1,0,306.81,6.8a20.063,20.063,0,1,1,.688,33.426,1.61,1.61,0,0,0-1.287-.195l-6.473,1.765L301.5,35.32a1.608,1.608,0,0,0-.195-1.287,20.074,20.074,0,0,1,.422-22.141,1.609,1.609,0,0,0-2.648-1.829,23.3,23.3,0,0,0-.868,25.083l-2.323,8.518a1.609,1.609,0,0,0,1.976,1.976l8.518-2.323A23.282,23.282,0,1,0,318.249,0Z" transform="translate(-231.686 0)"/>
        <path id="Trazado_102092" data-name="Trazado 102092" d="M342.051,63.865a16.779,16.779,0,1,0-16.779-16.779A16.8,16.8,0,0,0,342.051,63.865Zm0-30.341A13.561,13.561,0,1,1,328.49,47.085,13.577,13.577,0,0,1,342.051,33.524Z" transform="translate(-255.489 -23.804)"/>
        <path id="Trazado_102093" data-name="Trazado 102093" d="M382.807,72.607h-5.418a1.609,1.609,0,0,0,0,3.218h2.725V77.25a1.609,1.609,0,0,0,3.218,0V75.8a4.86,4.86,0,0,0-.525-9.691H380.64a1.642,1.642,0,1,1,0-3.283h5.418a1.609,1.609,0,1,0,0-3.218h-2.725V58.179a1.609,1.609,0,0,0-3.218,0v1.454a4.86,4.86,0,0,0,.525,9.691h2.167a1.642,1.642,0,0,1,0,3.283Z" transform="translate(-295.161 -44.434)"/>
      </g>
    </g>
  </g>
</svg>
