<svg xmlns="http://www.w3.org/2000/svg" width="157" height="157" viewBox="0 0 157 157">
  <g id="Grupo_56918" data-name="Grupo 56918" transform="translate(-716 -1245)">
    <rect id="Rectángulo_5641" data-name="Rectángulo 5641" width="157" height="157" rx="17" transform="translate(716 1245)" fill="#eff2ff"/>
    <g id="recibo" transform="translate(744 1272)">
      <g id="Grupo_55920" data-name="Grupo 55920" transform="translate(2.605 2.605)">
        <path id="Trazado_102182" data-name="Trazado 102182" d="M26.012,2V19.656l-.032.225.032.006v44.48l-.032.006.032.225V96.7l3.21-3.21,3.21,4.815,3.21-4.815,3.21,4.815,3.21-4.815,3.21,4.815,3.21-4.815,3.21,4.815,3.21-4.815,3.21,4.815,3.21-4.815,3.21,4.815,3.21-4.815,3.21,4.815,3.21-4.815,3.21,3.21V2Z" transform="translate(12.509 -2)" fill="#e6e9ed"/>
        <path id="Trazado_102183" data-name="Trazado 102183" d="M28.42,2v9.63H23.605A1.61,1.61,0,0,1,22,10.025V3.605A1.61,1.61,0,0,1,23.605,2Z" transform="translate(10.101 -2)" fill="#aab2bd"/>
        <path id="Trazado_102184" data-name="Trazado 102184" d="M64.42,3.605v6.42a1.61,1.61,0,0,1-1.605,1.605H58V2h4.815A1.61,1.61,0,0,1,64.42,3.605Z" transform="translate(31.884 -2)" fill="#aab2bd"/>
        <path id="Trazado_102185" data-name="Trazado 102185" d="M74.1,36.815v8.025a25.259,25.259,0,0,1-6.581,17.511,25.848,25.848,0,0,1-9.47,6.565A25.986,25.986,0,0,1,47.008,60.49,25.63,25.63,0,0,1,42,44.841V36.815l1.011.337c5.281,1.766,11.107-1.22,15.039-5.152a19.346,19.346,0,0,0,9.518,5.441,10.6,10.6,0,0,0,5.521-.289Z" transform="translate(22.203 16.152)" fill="#b4dd7f"/>
        <path id="Trazado_102186" data-name="Trazado 102186" d="M30,6H68.522v6.42H30Z" transform="translate(14.942 0.42)" fill="#ff826e"/>
        <path id="Trazado_102187" data-name="Trazado 102187" d="M21.261,46.025l-9.566,9.566a5.675,5.675,0,1,1-8.025-8.025L13.235,38Z" transform="translate(-2 19.782)" fill="#969faa"/>
        <path id="Trazado_102188" data-name="Trazado 102188" d="M22.755,42.219l-5.73,5.73L9,39.924l4.815-4.815.626-.289A22.369,22.369,0,0,0,22.755,42.219Z" transform="translate(2.235 17.858)" fill="#fcd770"/>
        <path id="Trazado_102189" data-name="Trazado 102189" d="M22.15,55.422A22.465,22.465,0,0,1,32.471,13a23.144,23.144,0,0,1,3.178.225,22.472,22.472,0,0,1,0,44.492,23.144,23.144,0,0,1-3.178.225A22.345,22.345,0,0,1,22.15,55.422Z" transform="translate(2.841 4.656)" fill="#ffeaa7"/>
        <circle id="Elipse_396" data-name="Elipse 396" cx="16" cy="16" r="16" transform="translate(19.395 24.395)" fill="#69d6f4"/>
      </g>
      <g id="Grupo_55921" data-name="Grupo 55921" transform="translate(1 1)">
        <path id="Trazado_102190" data-name="Trazado 102190" d="M27.42,20H24.21v3.21H21v9.63h6.42v3.21H21v3.21h3.21v3.21h3.21v-3.21h3.21V29.63H24.21V26.42h6.42V23.21H27.42Z" transform="translate(11.101 10.496)"/>
        <path id="Trazado_102191" data-name="Trazado 102191" d="M30.656,16A17.656,17.656,0,1,0,48.311,33.656,17.677,17.677,0,0,0,30.656,16Zm0,32.1A14.446,14.446,0,1,1,45.1,33.656,14.462,14.462,0,0,1,30.656,48.1Z" transform="translate(6.261 8.076)"/>
        <path id="Trazado_102192" data-name="Trazado 102192" d="M48.563,46.318l-2.27,2.27,5.95,5.95L66.218,40.563l-2.27-2.27L52.243,50Z" transform="translate(26.405 21.565)"/>
        <path id="Trazado_102193" data-name="Trazado 102193" d="M97.3,13.841a3.213,3.213,0,0,0,3.21-3.21V4.21A3.213,3.213,0,0,0,97.3,1H36.311A3.213,3.213,0,0,0,33.1,4.21v6.42a3.213,3.213,0,0,0,3.21,3.21h3.21v4.9c-.533-.035-1.063-.082-1.605-.082a24.03,24.03,0,0,0-20.784,36.17l-14,14A7.28,7.28,0,1,0,13.426,79.12L27.935,64.614a23.9,23.9,0,0,0,9.982,2.194c.543,0,1.072-.047,1.605-.082v34.453l4.566-4.565,3.459,5.189,3.21-4.815,3.21,4.815,3.21-4.815,3.21,4.815,3.21-4.815,3.21,4.815,3.21-4.815,3.21,4.815,3.21-4.815,3.21,4.815,3.21-4.815,3.21,4.815,3.459-5.189,4.566,4.565V81.523a26.921,26.921,0,0,0,6.42-17.925V53.346l-3.13,1.042a8.769,8.769,0,0,1-3.29.414V13.841Zm0-9.63v6.42h-3.21V4.21ZM36.311,10.63V4.21h3.21v6.42ZM11.157,76.851A4.07,4.07,0,0,1,5.4,71.095l8.439-8.438L19.6,68.413ZM21.866,66.143,16.11,60.387l2.855-2.855a24.227,24.227,0,0,0,6.029,5.481ZM17.051,42.732A20.866,20.866,0,1,1,37.917,63.6,20.89,20.89,0,0,1,17.051,42.732ZM97.3,57.741V63.6A23.792,23.792,0,0,1,82.858,85.935,23.792,23.792,0,0,1,68.413,63.6V57.741c5.273,1.2,10.664-1.461,14.446-4.785C86.64,56.278,92.023,58.941,97.3,57.741ZM83.993,49.622l-1.135-1.136-1.135,1.136c-3.347,3.345-8.619,6.353-13.393,4.765L65.2,53.346V63.6a26.967,26.967,0,0,0,17.06,25.567l.6.238.6-.238a27.718,27.718,0,0,0,7.43-4.464v8.728L89.03,91.574l-2.961,4.441L82.858,91.2l-3.21,4.815L76.438,91.2l-3.21,4.815L70.018,91.2l-3.21,4.815L63.6,91.2l-3.21,4.815L57.177,91.2l-3.21,4.815L50.757,91.2l-3.21,4.815-2.961-4.441-1.854,1.855V66.323a24.078,24.078,0,0,0,0-47.183V4.21H90.884V54.134a19.219,19.219,0,0,1-6.891-4.512Z" transform="translate(-1 -1)"/>
        <path id="Trazado_102194" data-name="Trazado 102194" d="M29,5v9.63H70.732V5Zm38.522,6.42H32.21V8.21H67.522Z" transform="translate(15.942 1.42)"/>
        <path id="Trazado_102195" data-name="Trazado 102195" d="M41,14H63.471v3.21H41Z" transform="translate(23.203 6.866)"/>
        <path id="Trazado_102196" data-name="Trazado 102196" d="M41,18h9.63v3.21H41Z" transform="translate(23.203 9.286)"/>
        <path id="Trazado_102197" data-name="Trazado 102197" d="M41,22h9.63v3.21H41Z" transform="translate(23.203 11.706)"/>
        <path id="Trazado_102198" data-name="Trazado 102198" d="M49,18h9.63v3.21H49Z" transform="translate(28.043 9.286)"/>
        <path id="Trazado_102199" data-name="Trazado 102199" d="M49,22h9.63v3.21H49Z" transform="translate(28.043 11.706)"/>
        <path id="Trazado_102200" data-name="Trazado 102200" d="M41,26H63.471v3.21H41Z" transform="translate(23.203 14.127)"/>
        <path id="Trazado_102201" data-name="Trazado 102201" d="M29,43h6.42v3.21H29Z" transform="translate(15.942 24.413)"/>
        <path id="Trazado_102202" data-name="Trazado 102202" d="M35,43h6.42v3.21H35Z" transform="translate(19.572 24.413)"/>
        <path id="Trazado_102203" data-name="Trazado 102203" d="M29,47h6.42v3.21H29Z" transform="translate(15.942 26.833)"/>
        <path id="Trazado_102204" data-name="Trazado 102204" d="M35,47h6.42v3.21H35Z" transform="translate(19.572 26.833)"/>
        <path id="Trazado_102205" data-name="Trazado 102205" d="M29,51H45.051v3.21H29Z" transform="translate(15.942 29.253)"/>
      </g>
    </g>
  </g>
</svg>
