<svg xmlns="http://www.w3.org/2000/svg" width="157" height="157" viewBox="0 0 157 157">
  <g id="Grupo_56919" data-name="Grupo 56919" transform="translate(-1132 -1245)">
    <rect id="Rectángulo_5642" data-name="Rectángulo 5642" width="157" height="157" rx="17" transform="translate(1132 1245)" fill="#ffddac"/>
    <g id="cuenta" transform="translate(1099.976 1270.524)">
      <g id="Grupo_55922" data-name="Grupo 55922" transform="translate(78.421 1.651)">
        <path id="Trazado_102206" data-name="Trazado 102206" d="M84.272,111.15l6.863-8.427L98,111.15l6.863-8.427,6.863,8.427,6.863-8.427,6.863,8.427,6.863-8.427,6.863,8.427,6.863-8.427,6.863,8.427V7.5H84.272Z" transform="translate(-84.272 -7.5)" fill="#b3e59f"/>
      </g>
      <g id="Grupo_55923" data-name="Grupo 55923" transform="translate(141.711 1.651)">
        <path id="Trazado_102207" data-name="Trazado 102207" d="M403.483,7.5v97.7l5.337,5.948V7.5Z" transform="translate(-403.483 -7.5)" fill="#95d6a4"/>
      </g>
      <g id="Grupo_55924" data-name="Grupo 55924" transform="translate(92.722 8.767)">
        <path id="Trazado_102208" data-name="Trazado 102208" d="M165.085,39.825H205.11v7.116H165.085Z" transform="translate(-165.085 -39.825)" fill="#ffe07d"/>
      </g>
      <g id="Grupo_55925" data-name="Grupo 55925" transform="translate(76.77)">
        <path id="Trazado_102209" data-name="Trazado 102209" d="M142.771,329.6a1.651,1.651,0,0,0,1.651-1.651v-1.082a6.157,6.157,0,0,0,4.631-4.684,5.852,5.852,0,0,0-3.651-6.639l-.981-.437V310.08a5.747,5.747,0,0,1,.965.48,1.651,1.651,0,0,0,1.877-2.716,9.392,9.392,0,0,0-2.842-1.226v-.909a1.651,1.651,0,0,0-3.3,0v.7c-.25.033-.5.077-.761.137a5.08,5.08,0,0,0-3.835,4.078,5.022,5.022,0,0,0,1.926,5.109,19.8,19.8,0,0,0,2.671,1.481v6.476a4.846,4.846,0,0,1-2.017-.885,1.651,1.651,0,1,0-1.808,2.763,7.8,7.8,0,0,0,3.824,1.443v.933A1.651,1.651,0,0,0,142.771,329.6Zm3.05-8.091a2.794,2.794,0,0,1-1.4,1.852v-4.616a2.507,2.507,0,0,1,1.4,2.764Zm-5.478-8.477a1.755,1.755,0,0,1-.578-1.774,1.841,1.841,0,0,1,1.337-1.49l.019,0v3.745c-.3-.167-.565-.328-.777-.477Z" transform="translate(-124.676 -241.544)"/>
        <path id="Trazado_102210" data-name="Trazado 102210" d="M147.194,0H78.275a1.583,1.583,0,0,0-1.5,1.651v71.6a1.511,1.511,0,1,0,3.01,0V3.3h65.909V17.388a1.511,1.511,0,1,0,3.01,0V1.651A1.583,1.583,0,0,0,147.194,0Z" transform="translate(-76.77)"/>
        <path id="Trazado_102211" data-name="Trazado 102211" d="M147.194,106.59a1.525,1.525,0,0,0-1.5,1.545v76.2l-4.241-5.121a1.48,1.48,0,0,0-2.294,0l-5.744,6.937-5.746-6.937a1.48,1.48,0,0,0-2.294,0l-5.744,6.937-5.746-6.937a1.48,1.48,0,0,0-2.293,0l-5.746,6.937-5.744-6.937a1.48,1.48,0,0,0-2.293,0l-5.746,6.937-5.744-6.937a1.48,1.48,0,0,0-2.293,0l-4.241,5.121V160.4a1.505,1.505,0,1,0-3.01,0v28.133a1.543,1.543,0,0,0,.986,1.45,1.481,1.481,0,0,0,1.666-.449l5.746-6.937,5.744,6.937a1.48,1.48,0,0,0,2.293,0l5.746-6.937,5.744,6.937a1.48,1.48,0,0,0,2.293,0l5.746-6.938,5.746,6.937a1.48,1.48,0,0,0,2.294,0l5.744-6.937,5.746,6.937a1.48,1.48,0,0,0,2.294,0L140.3,182.6l5.746,6.937a1.49,1.49,0,0,0,1.147.544,1.468,1.468,0,0,0,.519-.095,1.543,1.543,0,0,0,.986-1.45v-80.4a1.526,1.526,0,0,0-1.505-1.545Z" transform="translate(-76.77 -83.127)"/>
        <path id="Trazado_102212" data-name="Trazado 102212" d="M192.55,32.325H158.97a1.536,1.536,0,0,0-1.385,1.651v7.116a1.536,1.536,0,0,0,1.385,1.651h33.58a1.536,1.536,0,0,0,1.385-1.651V33.976A1.535,1.535,0,0,0,192.55,32.325Zm-1.385,7.116h-30.81V35.627h30.81v3.814Z" transform="translate(-139.796 -25.209)"/>
        <path id="Trazado_102213" data-name="Trazado 102213" d="M116.81,181.09h35.578a1.651,1.651,0,1,0,0-3.3H116.81a1.651,1.651,0,0,0,0,3.3Z" transform="translate(-106.709 -140.71)"/>
        <path id="Trazado_102214" data-name="Trazado 102214" d="M115.159,139.033a1.651,1.651,0,0,0,1.651,1.651h35.578a1.651,1.651,0,1,0,0-3.3H116.81A1.651,1.651,0,0,0,115.159,139.033Z" transform="translate(-106.709 -108.731)"/>
        <path id="Trazado_102215" data-name="Trazado 102215" d="M116.81,221.5h35.578a1.651,1.651,0,1,0,0-3.3H116.81a1.651,1.651,0,0,0,0,3.3Z" transform="translate(-106.709 -172.69)"/>
        <path id="Trazado_102216" data-name="Trazado 102216" d="M116.81,261.9h35.578a1.651,1.651,0,1,0,0-3.3H116.81a1.651,1.651,0,0,0,0,3.3Z" transform="translate(-106.709 -204.67)"/>
        <path id="Trazado_102217" data-name="Trazado 102217" d="M356.706,177.788h-7.56a1.651,1.651,0,1,0,0,3.3h7.56a1.651,1.651,0,1,0,0-3.3Z" transform="translate(-294.879 -140.71)"/>
        <path id="Trazado_102218" data-name="Trazado 102218" d="M356.706,137.382h-7.56a1.651,1.651,0,0,0,0,3.3h7.56a1.651,1.651,0,1,0,0-3.3Z" transform="translate(-294.879 -108.731)"/>
        <path id="Trazado_102219" data-name="Trazado 102219" d="M356.706,218.2h-7.56a1.651,1.651,0,1,0,0,3.3h7.56a1.651,1.651,0,1,0,0-3.3Z" transform="translate(-294.879 -172.69)"/>
        <path id="Trazado_102220" data-name="Trazado 102220" d="M356.706,258.6h-7.56a1.651,1.651,0,1,0,0,3.3h7.56a1.651,1.651,0,1,0,0-3.3Z" transform="translate(-294.879 -204.67)"/>
        <path id="Trazado_102221" data-name="Trazado 102221" d="M356.706,299.008h-7.56a1.651,1.651,0,1,0,0,3.3h7.56a1.651,1.651,0,1,0,0-3.3Z" transform="translate(-294.879 -236.65)"/>
      </g>
    </g>
  </g>
</svg>
