<svg xmlns="http://www.w3.org/2000/svg" width="139.126" height="131.083" viewBox="0 0 139.126 131.083">
  <g id="advertencia" transform="translate(0 -14.8)">
    <path id="Trazado_103960" data-name="Trazado 103960" d="M136.263,115.069,87.09,24.746a20.416,20.416,0,0,0-35.054,0L2.864,115.069A20.356,20.356,0,0,0,2.7,135.612a20.113,20.113,0,0,0,17.689,10.271h98.345a20.113,20.113,0,0,0,17.689-10.271A20.356,20.356,0,0,0,136.263,115.069Z" transform="translate(0 0)" fill="#495a79"/>
    <path id="Trazado_103961" data-name="Trazado 103961" d="M322.862,135.612a20.113,20.113,0,0,1-17.689,10.271H256V14.8a20.352,20.352,0,0,1,17.527,9.946L322.7,115.069A20.356,20.356,0,0,1,322.862,135.612Z" transform="translate(-186.437 0)" fill="#42516d"/>
    <path id="Trazado_103962" data-name="Trazado 103962" d="M151.1,141.074,101.929,50.751a12.267,12.267,0,0,0-21.031,0L31.724,141.074a12.28,12.28,0,0,0,10.517,18.5h98.345a12.28,12.28,0,0,0,10.516-18.5Z" transform="translate(-21.849 -21.848)" fill="#ffde33"/>
    <path id="Trazado_103963" data-name="Trazado 103963" d="M315.77,153.384a12.031,12.031,0,0,1-10.6,6.2H256V44.8a12.105,12.105,0,0,1,10.516,5.951l49.173,90.324A12.107,12.107,0,0,1,315.77,153.384Z" transform="translate(-186.437 -21.848)" fill="#ffbc33"/>
    <g id="Grupo_56896" data-name="Grupo 56896" transform="translate(61.411 48.06)">
      <path id="Trazado_103964" data-name="Trazado 103964" d="M234.152,393.5a8.152,8.152,0,1,1,8.152-8.152A8.163,8.163,0,0,1,234.152,393.5Z" transform="translate(-226 -311.984)" fill="#495a79"/>
      <path id="Trazado_103965" data-name="Trazado 103965" d="M242.3,186.112a8.152,8.152,0,0,1-16.3,0v-40.76a8.152,8.152,0,0,1,16.3,0Z" transform="translate(-226 -137.2)" fill="#495a79"/>
    </g>
    <g id="Grupo_56897" data-name="Grupo 56897" transform="translate(69.563 48.06)">
      <path id="Trazado_103966" data-name="Trazado 103966" d="M264.152,385.352A8.163,8.163,0,0,0,256,377.2v16.3A8.163,8.163,0,0,0,264.152,385.352Z" transform="translate(-256 -311.984)" fill="#42516d"/>
      <path id="Trazado_103967" data-name="Trazado 103967" d="M264.152,186.112v-40.76A8.163,8.163,0,0,0,256,137.2v57.064A8.163,8.163,0,0,0,264.152,186.112Z" transform="translate(-256 -137.2)" fill="#42516d"/>
    </g>
  </g>
</svg>
