<svg xmlns="http://www.w3.org/2000/svg" width="92" height="83" viewBox="0 0 92 83">
  <g id="Grupo_55877" data-name="Grupo 55877" transform="translate(-259 -458)">
    <g id="Right" transform="translate(259 458)">
      <rect id="BG" width="92" height="83" rx="7" fill="#fff" opacity="0.949"/>
    </g>
    <g id="check-out_1_" data-name="check-out (1)" transform="translate(272.249 472.433)">
      <g id="Grupo_55876" data-name="Grupo 55876" transform="translate(1.204 1.204)">
        <path id="Trazado_101960" data-name="Trazado 101960" d="M112.922,16.6a6.021,6.021,0,1,0-6.025,6.02h.024A6.018,6.018,0,0,0,112.922,16.6Zm0,0" transform="translate(-90.04 -10.582)" fill="#ffddcf" fill-rule="evenodd"/>
        <path id="Trazado_101961" data-name="Trazado 101961" d="M79.852,111.434h0Zm9.651,8.306a8.33,8.33,0,0,0-8.308-8.306h-1.35c-.457,0-.917,0-1.374,0a8.3,8.3,0,0,0-8.162,9.848H89.358A8.31,8.31,0,0,0,89.5,119.739Zm0,0" transform="translate(-62.992 -99.394)" fill="#52cbf0" fill-rule="evenodd"/>
        <path id="Trazado_101962" data-name="Trazado 101962" d="M36.451,193.93H13.3a2.838,2.838,0,1,0,0,5.627H46.978l3.464-3.919a4.692,4.692,0,0,1,.9-1.708Zm0,0" transform="translate(-10.086 -172.043)" fill="#b0e7f8" fill-rule="evenodd"/>
        <path id="Trazado_101963" data-name="Trazado 101963" d="M81.241,241.066H48.992v15.621H83.717l.754-3.822v-7.372l-3.515,4.345a2.867,2.867,0,0,1-3.927.6,2.74,2.74,0,0,1-.6-3.926Zm0,0" transform="translate(-44.348 -213.552)" fill="#ffbd5a" fill-rule="evenodd"/>
        <path id="Trazado_101964" data-name="Trazado 101964" d="M352.165,93.246a40.953,40.953,0,0,1-6.85.531,41.526,41.526,0,0,1-6.661-.5,7.125,7.125,0,1,0,13.511-.034Zm0,0" transform="translate(-299.11 -83.378)" fill="#ffddcf" fill-rule="evenodd"/>
        <path id="Trazado_101965" data-name="Trazado 101965" d="M306.382,53.3c-4,.44-6.773,1.4-6.773,2.523,0,.943,1.972,1.775,4.983,2.279a41.53,41.53,0,0,0,6.661.5,40.945,40.945,0,0,0,6.85-.531c2.906-.5,4.8-1.322,4.8-2.245,0-1.1-2.7-2.056-6.6-2.506a4.383,4.383,0,0,1,.031.521,4.6,4.6,0,0,1-.048.649c-.243.034-.5.068-.754.1a37.211,37.211,0,0,1-8.386.024c-.261-.037-.511-.078-.744-.122a4.114,4.114,0,0,1-.051-.649A4.631,4.631,0,0,1,306.382,53.3Zm0,0" transform="translate(-265.048 -48.205)" fill="#ffd89e" fill-rule="evenodd"/>
        <path id="Trazado_101966" data-name="Trazado 101966" d="M366.011,22.61a5.033,5.033,0,0,0-9.918-.017,4.624,4.624,0,0,0-.034.538,4.107,4.107,0,0,0,.051.649c.233.044.484.084.744.122a37.212,37.212,0,0,0,8.386-.024c.257-.03.511-.064.754-.1a4.6,4.6,0,0,0,.048-.649A4.4,4.4,0,0,0,366.011,22.61Zm0,0" transform="translate(-314.758 -17.493)" fill="#ffbd5a" fill-rule="evenodd"/>
        <path id="Trazado_101967" data-name="Trazado 101967" d="M352.3,176.853a6.578,6.578,0,0,0-4.979,2.032,4.7,4.7,0,0,0-.9,1.708,6.245,6.245,0,0,0-.234,1.752v11.062h12.381V182.345C358.576,179.4,356.127,176.694,352.3,176.853Zm0,0" transform="translate(-306.072 -156.999)" fill="#ffd89e" fill-rule="evenodd"/>
        <path id="Trazado_101968" data-name="Trazado 101968" d="M282.766,208.234l-3.464,3.919-4.81,5.441a2.71,2.71,0,0,0,.389,3.754,2.177,2.177,0,0,0,.209.173,2.867,2.867,0,0,0,3.928-.6l3.515-4.345v-6.595A6.246,6.246,0,0,1,282.766,208.234Zm0,0" transform="translate(-242.41 -184.64)" fill="#ffd89e" fill-rule="evenodd"/>
        <path id="Trazado_101969" data-name="Trazado 101969" d="M343.224,315.574H330.844v2.9l-.754,3.822-1.221,6.2c-1.049,5.336,6.025,6.385,6.965,1.5l1.5-7.772,3.349,8.715c2.476,4.1,8.173,1.44,6.261-3.273l-3.717-9.175v-2.922Zm0,0" transform="translate(-290.72 -279.166)" fill="#52cbf0" fill-rule="evenodd"/>
      </g>
      <path id="Trazado_101970" data-name="Trazado 101970" d="M346.735,327.432l-3.716-9.169v-2.916a.031.031,0,0,0-.031-.031H330.608a.031.031,0,0,0-.031.031v2.9l-1.976,10.02a3.951,3.951,0,0,0,.691,3.425,3.512,3.512,0,0,0,2.734,1.254,3.636,3.636,0,0,0,3.6-3.166l1.478-7.666,3.313,8.619a3.874,3.874,0,0,0,3.29,2.037,3.4,3.4,0,0,0,2.825-1.492A4.019,4.019,0,0,0,346.735,327.432Zm-.252,3.812a3.335,3.335,0,0,1-2.774,1.465,3.813,3.813,0,0,1-3.235-2l-3.349-8.715a.032.032,0,0,0-.032-.02.031.031,0,0,0-.027.025l-1.5,7.771a3.577,3.577,0,0,1-3.54,3.116,3.451,3.451,0,0,1-2.687-1.232,3.892,3.892,0,0,1-.678-3.374l1.976-10.026v-2.874h12.32v2.891a.024.024,0,0,0,0,.011l3.717,9.175A3.961,3.961,0,0,1,346.483,331.244Zm0,0" transform="translate(-289.281 -277.735)" fill="#221f20"/>
      <path id="Trazado_101971" data-name="Trazado 101971" d="M398.854,217.106a2.725,2.725,0,0,0-3.849.084c-.017.017-.034.034-.051.054a2.8,2.8,0,0,0,.051,3.8c.03.03.057.064.088.095l3.153,3.209,4.225,4.312a2.728,2.728,0,0,0,3.9-.142,2.809,2.809,0,0,0-.139-3.9l-4.7-4.792Zm0,0" transform="translate(-347.172 -190.583)" fill="#ffd89e" fill-rule="evenodd"/>
      <path id="Trazado_101972" data-name="Trazado 101972" d="M88.215,301.575l11.17-11.708a2.4,2.4,0,0,1,3.393-.082l6.644,6.334a2.4,2.4,0,0,1,.081,3.389L98.333,311.22a2.409,2.409,0,0,1-3.393.081L88.3,304.966A2.4,2.4,0,0,1,88.215,301.575Zm0,0" transform="translate(-77.103 -254.67)" fill="#b0e7f8" fill-rule="evenodd"/>
      <path id="Trazado_101973" data-name="Trazado 101973" d="M99.385,289.869l-8.721,9.141-2.449,2.567a2.4,2.4,0,0,0,.081,3.392l1.255,1.2,6.827-7.156,7.655-8.025-1.255-1.2A2.4,2.4,0,0,0,99.385,289.869Zm0,0" transform="translate(-77.103 -254.672)" fill="#52cbf0" fill-rule="evenodd"/>
      <path id="Trazado_101974" data-name="Trazado 101974" d="M59.919,33.7l-5.007-5.1V27.05a6.523,6.523,0,0,0-1.971-4.68,6.779,6.779,0,0,0-1.559-1.142,8.37,8.37,0,0,0,1.922-1.4,1.192,1.192,0,0,0,.181-.181,8.3,8.3,0,0,0,2.353-5.793,8.385,8.385,0,0,0-.11-1.354l.194-.044c2.918-.7,4.337-1.721,4.337-3.134,0-1.761-2.289-2.969-6.8-3.592a6.282,6.282,0,0,0-11.913-.022c-4.632.613-6.981,1.828-6.981,3.615,0,1.413,1.418,2.438,4.335,3.134.126.03.256.059.386.088a8.326,8.326,0,0,0,4.335,8.672,6.345,6.345,0,0,0-1.686,1.167H28.911c0-.113.008-.226.008-.338a9.524,9.524,0,0,0-6.115-8.88,7.225,7.225,0,1,0-9.491-.01,9.524,9.524,0,0,0-6.141,8.89c0,.112,0,.225.008.338H4.418A4.237,4.237,0,0,0,0,26.4a4.237,4.237,0,0,0,4.418,4.018h.227V44.838a1.2,1.2,0,0,0,1.2,1.2h4.9l-.508.532a3.608,3.608,0,0,0,.122,5.094l1.247,1.189.007.008.008.007L17.006,58a3.582,3.582,0,0,0,2.484.991A3.631,3.631,0,0,0,22.1,57.881L33.271,46.17c.04-.042.078-.084.116-.128h5.723L38.17,50.8a5.2,5.2,0,0,0,.936,4.4,4.681,4.681,0,0,0,3.64,1.683h0A4.826,4.826,0,0,0,47.5,52.767l.7-3.64,1.84,4.787a1.2,1.2,0,0,0,.093.191,5.019,5.019,0,0,0,4.295,2.6,4.569,4.569,0,0,0,3.8-2.01,5.154,5.154,0,0,0,.315-4.942L54.912,40.8v-.968a3.762,3.762,0,0,0,2.219.708A3.978,3.978,0,0,0,59.919,33.7ZM43.737,6.914a3.836,3.836,0,0,1,7.519.011,39.308,39.308,0,0,1-4.1.211,29.237,29.237,0,0,1-3.427-.182C43.734,6.94,43.736,6.927,43.737,6.914Zm-2.846,3.493q-.4-.066-.771-.142a9.916,9.916,0,0,1-2.908-.939,12.487,12.487,0,0,1,4.152-1.156v.01a1.2,1.2,0,0,0,.963.994,27.558,27.558,0,0,0,4.83.371h0a39.86,39.86,0,0,0,5.451-.361,1.2,1.2,0,0,0,1.015-.989A12.175,12.175,0,0,1,57.61,9.325a9.937,9.937,0,0,1-2.909.939,38.36,38.36,0,0,1-7.291.635,40.41,40.41,0,0,1-6.5-.489Zm.7,3.452a5.952,5.952,0,0,1,.069-.9,44.9,44.9,0,0,0,5.753.352,44.478,44.478,0,0,0,5.949-.379,5.988,5.988,0,0,1,.073.93,5.89,5.89,0,0,1-1.31,3.708,5.554,5.554,0,0,1-2.215-1.3A1.2,1.2,0,0,0,48.142,17.9,7.563,7.563,0,0,0,49.95,19.25a5.918,5.918,0,0,1-8.363-5.392Zm.944,19.775V27.05c0-3.375,2.695-4.2,4.955-4.289.09,0,.18-.006.269-.006a4.51,4.51,0,0,1,4.613,3.259l-.059-.05a3.9,3.9,0,0,0-2.464-.9A4.029,4.029,0,0,0,46.9,26.34c-.045.048-.089.1-.131.148a3.878,3.878,0,0,0-.909,2.439,4.144,4.144,0,0,0,1.06,2.828c.045.051.091.1.14.15l3.151,3.208,1.759,1.8H42.531V33.634Zm-2.408-.415-3.247,4.014a1.676,1.676,0,0,1-2.277.383c-.04-.029-.078-.062-.115-.1l0,0-.02-.016a1.747,1.747,0,0,1-.549-1.084,1.224,1.224,0,0,1,.278-.96l5.935-6.714v4.477ZM13.246,7.723a4.817,4.817,0,1,1,4.817,4.816A4.822,4.822,0,0,1,13.246,7.723Zm3.437,7.224h.173l-.01,3.858a1.2,1.2,0,0,0,1.2,1.207h0a1.2,1.2,0,0,0,1.2-1.2l.011-3.865h.142a7.111,7.111,0,0,1,7.1,7.1c0,.112,0,.225-.008.338H9.588q-.008-.169-.008-.338A7.111,7.111,0,0,1,16.684,14.947ZM12.023,49.924a1.2,1.2,0,0,1-.04-1.688l2.258-2.367a1.207,1.207,0,0,0,.443-.465l8.47-8.878a1.2,1.2,0,0,1,1.69-.039l.384.366L12.408,50.292Zm19.506-5.416L20.36,56.217a1.206,1.206,0,0,1-1.693.043l-4.517-4.307,12.82-13.439,4.517,4.307a1.2,1.2,0,0,1,.041,1.687Zm-.014-7.836a4.124,4.124,0,0,0,.578,1.7l-.821.915-4.767-4.545a3.607,3.607,0,0,0-5.095.121l-8.366,8.768H7.052V30.422H18.92a1.2,1.2,0,1,0,0-2.408H4.418a1.869,1.869,0,0,1-2.01-1.61,1.868,1.868,0,0,1,2.01-1.61H40.4l-2.846,3.219h-9a1.2,1.2,0,0,0,0,2.408h6.875l-3.041,3.44A3.607,3.607,0,0,0,31.515,36.672ZM40.123,40.9l-.539,2.735H34.262c0-.012,0-.024,0-.035a3.576,3.576,0,0,0-1.113-2.52l-.133-.127.878-.979a3.927,3.927,0,0,0,1.61.346,4.179,4.179,0,0,0,3.245-1.571l1.375-1.7V40.9ZM56.31,50.661a2.833,2.833,0,0,1-.081,2.692,2.163,2.163,0,0,1-1.8.948,2.606,2.606,0,0,1-2.181-1.356l-3.308-8.609a1.2,1.2,0,0,0-2.306.2l-1.5,7.772a2.415,2.415,0,0,1-2.388,2.165,2.316,2.316,0,0,1-1.782-.8,2.822,2.822,0,0,1-.433-2.4l1.976-10.02a1.223,1.223,0,0,0,.022-.233v-1.7H52.5v1.718a1.2,1.2,0,0,0,.088.452Zm2.008-13.042a1.649,1.649,0,0,1-1.188.513,1.336,1.336,0,0,1-.972-.393l-1.582-1.614-.007-.009-2.637-2.69-3.151-3.207a1.622,1.622,0,0,1-.118-2.238,1.64,1.64,0,0,1,1.182-.51,1.527,1.527,0,0,1,.221.016c.046.007.094.017.143.029a1.287,1.287,0,0,1,.613.35l.009.009,2.017,2.057.007.007L58.2,35.387A1.615,1.615,0,0,1,58.318,37.619Zm0,0" transform="translate(0 -0.5)"/>
      <path id="Trazado_101975" data-name="Trazado 101975" d="M189.954,230.98h-.024a1.2,1.2,0,0,0,0,2.408h.024a1.2,1.2,0,0,0,0-2.408Zm0,0" transform="translate(-166.197 -203.467)"/>
    </g>
  </g>
</svg>
