<svg xmlns="http://www.w3.org/2000/svg" width="230" height="230" viewBox="0 0 230 230">
  <g id="Grupo_56139" data-name="Grupo 56139" transform="translate(-1026 -7142)">
    <rect id="Rectángulo_5699" data-name="Rectángulo 5699" width="230" height="230" transform="translate(1026 7142)" fill="#fff1db"/>
    <g id="cambio-de-divisas" transform="translate(1066.208 7183.729)">
      <g id="Grupo_56137" data-name="Grupo 56137" transform="translate(2.364 2.364)">
        <g id="Grupo_56129" data-name="Grupo 56129" transform="translate(0 0)">
          <path id="Trazado_102282" data-name="Trazado 102282" d="M87.584,11.454a32.967,32.967,0,0,0-9.62,18.908h-47.6v5.862a3.591,3.591,0,0,1-3.593,3.593,3.709,3.709,0,0,1-2.056-.638L3.938,24.619a4.521,4.521,0,0,1,0-7.422L24.714,2.638A3.709,3.709,0,0,1,26.77,2a3.591,3.591,0,0,1,3.593,3.593v5.862Z" transform="translate(-2 -2)" fill="#ff9800"/>
        </g>
        <g id="Grupo_56130" data-name="Grupo 56130" transform="translate(58.592 103.996)">
          <path id="Trazado_102283" data-name="Trazado 102283" d="M108.073,61.2a4.521,4.521,0,0,1,0,7.422L87.3,83.179a3.709,3.709,0,0,1-2.056.638,3.591,3.591,0,0,1-3.593-3.593V74.363H26.79a32.967,32.967,0,0,0,9.62-18.908H81.648V49.593A3.591,3.591,0,0,1,85.241,46a3.709,3.709,0,0,1,2.056.638Z" transform="translate(-26.79 -46)" fill="#b4dd7f"/>
        </g>
        <g id="Grupo_56131" data-name="Grupo 56131" transform="translate(2.364 75.634)">
          <path id="Trazado_102284" data-name="Trazado 102284" d="M68.849,71.817A33.094,33.094,0,1,1,36.09,34c.9,0,1.82.071,2.718.142a33.385,33.385,0,0,0,3.214,10.092,23.622,23.622,0,1,0,17.7,22.856,23.331,23.331,0,0,0-1.205-7.4,33.029,33.029,0,0,0,10.258,2.553,32.681,32.681,0,0,1,.4,4.845A34.507,34.507,0,0,1,68.849,71.817Z" transform="translate(-3 -34)" fill="#ffc729"/>
        </g>
        <g id="Grupo_56132" data-name="Grupo 56132" transform="translate(37.817 37.817)">
          <path id="Trazado_102285" data-name="Trazado 102285" d="M21.569,66.051a33.385,33.385,0,0,1-3.214-10.092A33.125,33.125,0,0,1,51.09,18a33.367,33.367,0,0,1,5.129.449,33.225,33.225,0,0,0,3.664,10.707A23.653,23.653,0,1,0,73.023,42.3,33.225,33.225,0,0,0,83.73,45.961,32.8,32.8,0,0,1,51.09,84.179c-.922,0-1.844-.047-2.765-.118A33.011,33.011,0,0,1,26.391,73.094a33.5,33.5,0,0,1-4.822-7.043Z" transform="translate(-18 -18)" fill="#ffc729"/>
        </g>
        <g id="Grupo_56133" data-name="Grupo 56133" transform="translate(75.634)">
          <path id="Trazado_102286" data-name="Trazado 102286" d="M61.914,67.778A33.144,33.144,0,0,1,34.4,40.266,33.99,33.99,0,0,1,34,35.09a34.507,34.507,0,0,1,.331-4.727A33.094,33.094,0,1,1,67.09,68.179a33.99,33.99,0,0,1-5.176-.4Z" transform="translate(-34 -2)" fill="#ffc729"/>
        </g>
        <g id="Grupo_56134" data-name="Grupo 56134" transform="translate(11.818 85.088)">
          <path id="Trazado_102287" data-name="Trazado 102287" d="M41.39,45.823a32.734,32.734,0,0,0,11.676,8.414,23.331,23.331,0,0,1,1.205,7.4,23.739,23.739,0,1,1-17.7-22.856,33.5,33.5,0,0,0,4.822,7.043Z" transform="translate(-7 -38)" fill="#fcd770"/>
        </g>
        <g id="Grupo_56135" data-name="Grupo 56135" transform="translate(47.271 47.271)">
          <path id="Trazado_102288" data-name="Trazado 102288" d="M67.569,36.843A23.653,23.653,0,1,1,54.428,23.7,33.158,33.158,0,0,0,67.569,36.843Z" transform="translate(-22 -22)" fill="#fcd770"/>
        </g>
        <g id="Grupo_56136" data-name="Grupo 56136" transform="translate(84.824 9.843)">
          <ellipse id="Elipse_404" data-name="Elipse 404" cx="23.977" cy="23.541" rx="23.977" ry="23.541" transform="translate(0 0)" fill="#fcd770"/>
        </g>
      </g>
      <g id="Grupo_56138" data-name="Grupo 56138" transform="translate(0 0)">
        <path id="Trazado_102289" data-name="Trazado 102289" d="M49.727,37.02v5.07h4.727V37.02a6.721,6.721,0,0,0,1-12.437l-4.607-2.3a2.018,2.018,0,0,1,.9-3.824h.688a2.022,2.022,0,0,1,2.021,2.018v2.709h4.727V20.473a6.734,6.734,0,0,0-4.727-6.4V9H49.727v5.07a6.721,6.721,0,0,0-1,12.437l4.607,2.3a2.018,2.018,0,0,1-.9,3.824h-.688a2.022,2.022,0,0,1-2.021-2.018V27.908H45v2.709A6.733,6.733,0,0,0,49.727,37.02Z" transform="translate(58.996 9.908)"/>
        <path id="Trazado_102290" data-name="Trazado 102290" d="M63,57A26,26,0,1,0,37,31,26.03,26.03,0,0,0,63,57ZM63,9.727A21.272,21.272,0,1,1,41.727,31,21.3,21.3,0,0,1,63,9.727Z" transform="translate(48.088 4.454)"/>
        <path id="Trazado_102291" data-name="Trazado 102291" d="M41.181,25a9.464,9.464,0,0,0-9.454,9.454H27v4.727h4.727v4.727H27v4.727h4.727a9.454,9.454,0,0,0,18.908,0V46.272H45.908v2.364a4.727,4.727,0,1,1-9.454,0h4.727V43.908H36.454V39.181h4.727V34.454H36.454a4.727,4.727,0,1,1,9.454,0v2.364h4.727V34.454A9.464,9.464,0,0,0,41.181,25Z" transform="translate(34.452 31.725)"/>
        <path id="Trazado_102292" data-name="Trazado 102292" d="M144.6,120.612l-20.773-14.541a5.957,5.957,0,0,0-9.371,4.883v3.5H74.15c.052-.785.121-1.565.121-2.364,0-.768-.035-1.55-.1-2.368.033,0,.066,0,.1,0A35.493,35.493,0,0,0,109.723,74.27c0-.8-.04-1.631-.109-2.489.82.057,1.638.125,2.472.125A35.453,35.453,0,1,0,88.064,10.454H34.09v-3.5a5.957,5.957,0,0,0-9.374-4.881L3.945,16.616a6.9,6.9,0,0,0,0,11.312L24.718,42.469a5.957,5.957,0,0,0,9.371-4.883v-3.5H76.754c-.052.785-.121,1.565-.121,2.364,0,.834.069,1.652.125,2.475-.858-.071-1.688-.111-2.489-.111A35.494,35.494,0,0,0,38.817,74.27c0,.8.069,1.584.121,2.371-.04,0-.08-.007-.121-.007A35.453,35.453,0,1,0,62.84,138.086H114.45v3.5a5.957,5.957,0,0,0,9.374,4.881L144.6,131.922a6.9,6.9,0,0,0,0-11.31ZM112.087,5.727A30.726,30.726,0,1,1,81.361,36.453,30.762,30.762,0,0,1,112.087,5.727ZM95.542,74.27A21.387,21.387,0,1,1,81.5,54.3,35.666,35.666,0,0,0,94.242,67.035,21.149,21.149,0,0,1,95.542,74.27ZM29.363,29.363v8.223a1.269,1.269,0,0,1-1.936,1.007L6.656,24.052a2.172,2.172,0,0,1,0-3.562L27.424,5.952a1.268,1.268,0,0,1,1.938,1.007v8.223H83.79a35.236,35.236,0,0,0-6.443,14.181ZM74.27,43.544a28.124,28.124,0,0,1,3.127.208A34.822,34.822,0,0,0,78.858,48.7a25.664,25.664,0,0,0-4.588-.425,26,26,0,1,0,26,26,25.662,25.662,0,0,0-.425-4.588,34.824,34.824,0,0,0,4.945,1.461A28.668,28.668,0,0,1,105,74.27,30.726,30.726,0,1,1,74.27,43.544ZM60.089,112.087A21.272,21.272,0,1,1,38.817,90.815a20.977,20.977,0,0,1,4.4.522,35.82,35.82,0,0,0,3.323,4.954l-7.719,9.648-7.608-9.509-3.694,2.952,8.272,10.341H31.726v4.727h4.727v4.727H31.726V123.9h4.727v4.727H41.18V123.9h4.727v-4.727H41.18V114.45h4.727v-4.727H41.845l7.918-9.9a35.529,35.529,0,0,0,9.513,6.523A21.164,21.164,0,0,1,60.089,112.087ZM38.817,142.813a30.726,30.726,0,1,1,0-61.452c.243,0,.48.028.721.038a34.892,34.892,0,0,0,1.4,4.831c-.709-.061-1.423-.142-2.12-.142a26,26,0,1,0,26,26,25.669,25.669,0,0,0-.288-3.758,35.488,35.488,0,0,0,4.852,1.016,27.053,27.053,0,0,1,.163,2.742A30.762,30.762,0,0,1,38.817,142.813ZM141.884,128.05l-20.769,14.538a1.268,1.268,0,0,1-1.938-1.007v-8.223H67.113a35.236,35.236,0,0,0,6.443-14.181h45.621v-8.223a1.269,1.269,0,0,1,1.936-1.007l20.771,14.541a2.172,2.172,0,0,1,0,3.562Z" transform="translate(-1 -1)"/>
        <path id="Trazado_102293" data-name="Trazado 102293" d="M25,9h4.727v4.727H25Z" transform="translate(31.725 9.908)"/>
        <path id="Trazado_102294" data-name="Trazado 102294" d="M21,9h4.727v4.727H21Z" transform="translate(26.271 9.908)"/>
        <path id="Trazado_102295" data-name="Trazado 102295" d="M17,9h4.727v4.727H17Z" transform="translate(20.817 9.908)"/>
        <path id="Trazado_102296" data-name="Trazado 102296" d="M13,9h4.727v4.727H13Z" transform="translate(15.363 9.908)"/>
        <path id="Trazado_102297" data-name="Trazado 102297" d="M49,53h4.727v4.727H49Z" transform="translate(64.45 69.905)"/>
        <path id="Trazado_102298" data-name="Trazado 102298" d="M45,53h4.727v4.727H45Z" transform="translate(58.996 69.905)"/>
        <path id="Trazado_102299" data-name="Trazado 102299" d="M41,53h4.727v4.727H41Z" transform="translate(53.542 69.905)"/>
        <path id="Trazado_102300" data-name="Trazado 102300" d="M37,53h4.727v4.727H37Z" transform="translate(48.088 69.905)"/>
      </g>
    </g>
  </g>
</svg>
