<svg xmlns="http://www.w3.org/2000/svg" width="92" height="83" viewBox="0 0 92 83">
  <g id="Grupo_56141" data-name="Grupo 56141" transform="translate(-335 -8735.995)">
    <g id="Right" transform="translate(335 8735.995)">
      <rect id="BG" width="92" height="83" rx="7" fill="#fff" opacity="0.949"/>
    </g>
    <g id="seguro" transform="translate(296.667 8747.995)">
      <path id="Trazado_102301" data-name="Trazado 102301" d="M240.394,131.751h3.545v19.5h-3.545Z" transform="translate(-157.85 -116.713)" fill="#d8ecfe"/>
      <path id="Trazado_102302" data-name="Trazado 102302" d="M240.394,131.751h1.712v19.5h-1.712Z" transform="translate(-157.85 -116.713)" fill="#c7e4f9"/>
      <circle id="Elipse_405" data-name="Elipse 405" cx="12.427" cy="12.427" r="12.427" transform="translate(71.907 32.748)" fill="#fee97d"/>
      <circle id="Elipse_406" data-name="Elipse 406" cx="8.864" cy="8.864" r="8.864" transform="translate(75.453 36.318)" fill="#fece85"/>
      <path id="Trazado_102303" data-name="Trazado 102303" d="M150.75,299.343a8.865,8.865,0,0,1,5.093-8.024,12.425,12.425,0,0,1,6.642-4.081,12.427,12.427,0,1,0,0,24.195,12.424,12.424,0,0,1-6.622-4.057A8.865,8.865,0,0,1,150.75,299.343Z" transform="translate(-75.297 -254.161)" fill="#fee45a"/>
      <path id="Trazado_102304" data-name="Trazado 102304" d="M183.362,325.546a8.867,8.867,0,0,0,.02,16.057,12.427,12.427,0,0,1-.02-16.057Z" transform="translate(-102.816 -288.388)" fill="#fec165"/>
      <path id="Trazado_102305" data-name="Trazado 102305" d="M90.974,7.5A21.273,21.273,0,0,0,69.7,28.776v3.545a7.091,7.091,0,0,1,14.173-.352,7.091,7.091,0,0,1,14.173.352h.017a7.091,7.091,0,1,1,14.182,0V28.776A21.273,21.273,0,0,0,90.974,7.5Z" transform="translate(-6.64 -6.647)" fill="#5680a6"/>
      <path id="Trazado_102306" data-name="Trazado 102306" d="M93.258,7.624A21.514,21.514,0,0,0,90.975,7.5,21.273,21.273,0,0,0,69.7,28.776v3.545a7.094,7.094,0,0,1,4.8-6.713A21.284,21.284,0,0,1,93.258,7.624Z" transform="translate(-6.641 -6.647)" fill="#497090"/>
      <path id="Trazado_102307" data-name="Trazado 102307" d="M402.607,162.814a7.082,7.082,0,0,0-2.283.376,7.094,7.094,0,0,1,4.808,6.715V166.36a21.449,21.449,0,0,0-.234-3.167A7.081,7.081,0,0,0,402.607,162.814Z" transform="translate(-299.526 -144.23)" fill="#497090"/>
      <g id="Grupo_56140" data-name="Grupo 56140" transform="translate(62.205 0)">
        <path id="Trazado_102308" data-name="Trazado 102308" d="M232.231,347.319h-.974a.917.917,0,1,1,0-1.833h.87a.741.741,0,0,1,.714.531.856.856,0,0,0,1.64-.492,2.44,2.44,0,0,0-1.881-1.707V342.76a.856.856,0,0,0-1.712,0V343.8a2.629,2.629,0,0,0,.369,5.232h.974a.917.917,0,0,1,0,1.833h-1.1a.741.741,0,0,1-.714-.531.856.856,0,1,0-1.64.492,2.44,2.44,0,0,0,2.109,1.74v1.025a.856.856,0,1,0,1.712,0V352.55a2.629,2.629,0,0,0-.369-5.232Z" transform="translate(-209.632 -302.879)"/>
        <path id="Trazado_102309" data-name="Trazado 102309" d="M180.489,310.687a9.72,9.72,0,1,0,9.72,9.72A9.731,9.731,0,0,0,180.489,310.687Zm0,17.727a8.008,8.008,0,1,1,8.008-8.008A8.017,8.017,0,0,1,180.489,328.414Z" transform="translate(-158.377 -275.225)"/>
        <path id="Trazado_102310" data-name="Trazado 102310" d="M101.063,7.645a.856.856,0,0,0-1.294,1.121,20.4,20.4,0,0,1,4.93,11.922A7.936,7.936,0,0,0,93.057,19.9a26.076,26.076,0,0,0-6.6-18.08A20.447,20.447,0,0,1,97.2,6.273a.856.856,0,0,0,1.08-1.329A22.128,22.128,0,0,0,62.205,22.13v3.545a.856.856,0,1,0,1.712,0,6.242,6.242,0,0,1,6.234-6.236c3.9,0,5.964,3.123,6.25,6.084a.817.817,0,0,0,.832.657.868.868,0,0,0,.856-.829,6.224,6.224,0,0,1,3.6-5.334v12.14a13.283,13.283,0,1,0,15.78,15.01.856.856,0,0,0-1.693-.255,11.57,11.57,0,1,1,0-3.475.856.856,0,0,0,1.693-.255A13.285,13.285,0,0,0,86.945,32.151V20.021a6.244,6.244,0,0,1,3.606,5.654.856.856,0,0,0,.856.856h.017a.856.856,0,0,0,.856-.856,6.339,6.339,0,0,1,6.236-6.236,6.242,6.242,0,0,1,6.234,6.236.856.856,0,0,0,1.712,0V22.13a22.119,22.119,0,0,0-5.4-14.485ZM85.233,31.923a13.368,13.368,0,0,0-1.833,0V19.506a6.3,6.3,0,0,1,1.833,0Zm-.917-14.2a7.939,7.939,0,0,0-6.87,3.943,24.308,24.308,0,0,1,.393-7.6.856.856,0,1,0-1.674-.357,25.942,25.942,0,0,0-.553,6.178,7.948,7.948,0,0,0-11.645.794A20.452,20.452,0,0,1,82.211,1.822a25.71,25.71,0,0,0-4.963,8.19.856.856,0,0,0,.5,1.1.88.88,0,0,0,1.1-.5,24.029,24.029,0,0,1,5.482-8.546,24.324,24.324,0,0,1,6.88,19.663,8.547,8.547,0,0,0-6.9-4Z" transform="translate(-62.205 0)"/>
      </g>
    </g>
  </g>
</svg>
