<svg xmlns="http://www.w3.org/2000/svg" width="92" height="83" viewBox="0 0 92 83">
  <g id="Grupo_56144" data-name="Grupo 56144" transform="translate(-335 -10224.995)">
    <g id="Right" transform="translate(335 10224.995)">
      <rect id="BG" width="92" height="83" rx="7" fill="#fff" opacity="0.949"/>
    </g>
    <g id="proteccion" transform="translate(353.953 10235.07)">
      <path id="Trazado_102311" data-name="Trazado 102311" d="M32.251,75.843a6.75,6.75,0,0,0-1.895-4.666,6.611,6.611,0,0,0-4.666-1.895,6.471,6.471,0,0,0-6.561,6.561,6.743,6.743,0,0,0-1.9-4.666,6.609,6.609,0,0,0-4.666-1.895A6.738,6.738,0,0,0,7.9,71.177a11.671,11.671,0,0,0-1.9,4.009,26.235,26.235,0,0,1,17.021-24.58h0a10.143,10.143,0,1,0,18.444,0l0,0A26.234,26.234,0,0,1,58.495,75.186a15.989,15.989,0,0,0-.511-1.539,8.058,8.058,0,0,0-1.385-2.47,6.607,6.607,0,0,0-4.664-1.895,6.472,6.472,0,0,0-6.562,6.561,6.741,6.741,0,0,0-1.9-4.666,6.609,6.609,0,0,0-4.666-1.895,6.471,6.471,0,0,0-6.561,6.561Zm0,0" transform="translate(-5.204 -43.896)" fill="#00efd1"/>
      <path id="Trazado_102312" data-name="Trazado 102312" d="M146.779,11.91a10.146,10.146,0,1,1-9.223-5.918A10.146,10.146,0,0,1,146.779,11.91Zm0,0" transform="translate(-110.51 -5.197)" fill="#fedb41"/>
      <path id="Trazado_102313" data-name="Trazado 102313" d="M140.572,364.605v7.877a5.823,5.823,0,0,1-11.647,0v-1.7h3.4v1.7a2.422,2.422,0,0,0,4.843,0v-7.877Zm0,0" transform="translate(-111.825 -316.263)" fill="#00acea"/>
      <g id="Grupo_56143" data-name="Grupo 56143" transform="translate(0.008)">
        <path id="Trazado_102314" data-name="Trazado 102314" d="M154.938,42.931a.8.8,0,0,0,.8.8h1.1a5.936,5.936,0,0,0,7.7,3.489.8.8,0,1,0-.572-1.485,4.341,4.341,0,0,1-5.392-2h4.19a.8.8,0,1,0,0-1.591h-4.68a4.424,4.424,0,0,1-.02-.663h5.363a.8.8,0,0,0,0-1.591h-4.981a4.345,4.345,0,0,1,5.52-2.258.8.8,0,1,0,.572-1.485,5.939,5.939,0,0,0-7.794,3.743h-1.007a.8.8,0,1,0,0,1.591h.734a6.018,6.018,0,0,0,.014.663h-.749A.8.8,0,0,0,154.938,42.931Zm0,0" transform="translate(-134.395 -31.002)" fill="#083863"/>
        <path id="Trazado_102315" data-name="Trazado 102315" d="M36.849,6.081a10.94,10.94,0,0,0-19.6,0A27.029,27.029,0,0,0,.008,31.29a.8.8,0,0,0,1.565.2,10.681,10.681,0,0,1,1.691-3.65,5.924,5.924,0,0,1,4.1-1.661,5.826,5.826,0,0,1,4.095,1.653,5.933,5.933,0,0,1,1.671,4.112.8.8,0,0,0,1.591,0,5.677,5.677,0,0,1,5.765-5.765,5.824,5.824,0,0,1,4.094,1.653,5.939,5.939,0,0,1,1.671,4.112V47.6h-.906a.776.776,0,0,0-.818.748V56.22a1.591,1.591,0,0,1-3.182,0v-1.7a.863.863,0,0,0-.843-.825H17.1a.82.82,0,0,0-.794.825v1.7a6.629,6.629,0,0,0,13.259,0V48.343a.776.776,0,0,0-.818-.748h-.905V31.947a5.677,5.677,0,0,1,5.765-5.765A5.826,5.826,0,0,1,37.7,27.835a5.933,5.933,0,0,1,1.67,4.112.8.8,0,1,0,1.591,0,5.679,5.679,0,0,1,5.767-5.765,5.821,5.821,0,0,1,4.093,1.653,7.175,7.175,0,0,1,1.215,2.2,15.257,15.257,0,0,1,.483,1.453.8.8,0,0,0,1.565-.2A27.027,27.027,0,0,0,36.849,6.08ZM27.975,56.22a5.038,5.038,0,0,1-10.077,0v-.935h1.856v.935a3.182,3.182,0,1,0,6.364,0V49.186h1.856ZM27.047,1.59a9.376,9.376,0,0,1,8.5,5.454h0a9.254,9.254,0,0,1,.848,3.893A9.349,9.349,0,1,1,27.047,1.59ZM51.974,26.735l-.016-.017a7.419,7.419,0,0,0-5.228-2.128A7.5,7.5,0,0,0,41.519,26.7l-.034.034A8,8,0,0,0,40.168,28.6a7.967,7.967,0,0,0-1.316-1.861l-.017-.017A7.487,7.487,0,0,0,28.4,26.7q-.018.016-.034.034A7.98,7.98,0,0,0,27.047,28.6a7.978,7.978,0,0,0-1.315-1.861l-.017-.018A7.487,7.487,0,0,0,15.275,26.7l-.034.034A7.982,7.982,0,0,0,13.925,28.6a7.967,7.967,0,0,0-1.316-1.861l-.017-.017A7.487,7.487,0,0,0,2.154,26.7l-.034.034c-.049.053-.1.107-.146.164a25.456,25.456,0,0,1,14.5-18.768,10.939,10.939,0,1,0,21.151,0A25.453,25.453,0,0,1,52.119,26.9Q52.047,26.813,51.974,26.735Zm0,0" transform="translate(-0.008)" fill="#083863"/>
      </g>
    </g>
  </g>
</svg>
