<svg xmlns="http://www.w3.org/2000/svg" width="455.997" height="305.348" viewBox="0 0 455.997 305.348">
  <g id="Grupo_56217" data-name="Grupo 56217" transform="translate(-69.765 -109.519)">
    <g id="Shadow" transform="translate(74.781 364.049)">
      <path id="Trazado_102316" data-name="Trazado 102316" d="M287.2,644.113a361.576,361.576,0,0,0-39.6,1.853c-4.971.562-9.838,1.8-14.82,2.3-9.952,1-19.725,2.854-29.712,3.71-8.043.69-16.119,1.1-24.138,1.973a83.6,83.6,0,0,1-23.3-.725c-5.523-1-11.071-1.569-16.5-3.182a66.486,66.486,0,0,0-19-3.047c-9.025.066-17.815.074-26.451,3.259-3.032,1.118-6.743,2.956-9.046,5.3-5.271,5.372-5.984,18.774-.721,24.346,8.863,9.376,27.781,13.055,40.206,13.229,13.615.19,26.84-.837,40.475-1.441,12.67-.561,25.307-1.36,38-1.332,25.919.058,51.841,0,77.713-1.76,24.307-1.653,48.675-1.086,73.036-1.086,24.981,0,49.792.2,74.593,3.574,10.806,1.47,21.815,1.985,32.674,3.015,9.726.923,19.073-.018,28.761-.87a67.78,67.78,0,0,0,23.606-6.429c5.85-2.841,16.278-11.668,18.072-18.451,5.029-19.014-70.877-18.557-82.532-18.514-13.038.048-26.179.484-39.207-.021a90.994,90.994,0,0,1-16.228-2.494c-5.327-1.188-10.695-.886-16.1-1.385-22.529-2.082-45.108-1.778-67.708-1.778C301.916,644.156,294.558,644.09,287.2,644.113Z" transform="translate(-80.3 -644.108)" fill="#f1f2f2"/>
    </g>
    <g id="Object" transform="translate(69.765 109.519)">
      <g id="Grupo_56180" data-name="Grupo 56180" transform="translate(11.647)">
        <path id="Trazado_102317" data-name="Trazado 102317" d="M264.561,340.157c-.166,4.849-.317,9.993-2.978,14.049a76.854,76.854,0,0,0,14.388-1.981c.346-10.165,2.683-20.15,3.842-30.255a192.451,192.451,0,0,0,.924-26.26,129.842,129.842,0,0,0-1.852-21.211,44.557,44.557,0,0,0-4.74-14.116,1.328,1.328,0,0,0-.532-.627,1.269,1.269,0,0,0-.711-.046c-4.218.569-3.453,1.416-3.18,4.951.22,2.858-.276,5.717-.415,8.566-.266,5.455-.64,10.906-1.064,16.351-.848,10.9-1.9,21.778-2.689,32.68C265.122,328.219,264.767,334.184,264.561,340.157Z" transform="translate(-181.901 -188.186)" fill="#fff"/>
        <g id="Grupo_56161" data-name="Grupo 56161" transform="translate(212.589 29.955)">
          <g id="Grupo_56145" data-name="Grupo 56145" transform="translate(86.91 33.073)">
            <path id="Trazado_102318" data-name="Trazado 102318" d="M725.87,241.99c.274-.036.536-.056.764-.069a17.589,17.589,0,0,1,4.835.41,2.091,2.091,0,0,1,.8.311,2.224,2.224,0,0,1,.468.539,43.425,43.425,0,0,0,4.709,5.449c1.281,1.323,3.246,3.4,2.15,5.388a5.285,5.285,0,0,1-1.185,1.621,4.39,4.39,0,0,1-1.463.7c-.406.129-1.011.437-1.4.225-.41-.223-.937-1.311-1.224-1.712l-2.459-3.437c-.8-1.123-1.845-2.378-3.121-2.34a5.8,5.8,0,0,1-.833.05,2.352,2.352,0,0,1-.9-.373,17.2,17.2,0,0,1-2.984-2.208c-.825-.779-.67-1.623-.754-2.657C723.165,242.6,724.645,242.149,725.87,241.99Z" transform="translate(-723.265 -241.896)" fill="#c9a98d"/>
            <path id="Trazado_102319" data-name="Trazado 102319" d="M764.074,285.71a22.636,22.636,0,0,1-8.013-4.75,92.965,92.965,0,0,1-17.047-19.76,25.675,25.675,0,0,1,8.507-7.115A146.1,146.1,0,0,0,763.6,268.142c2.776,2.088,5.529,3.482,8.766,2.531a135.963,135.963,0,0,0,20.931-8.077,13.707,13.707,0,0,1,4.671-1.628c3.072-.276,6.3,1.65,8.2,4.416a14.892,14.892,0,0,1,2.336,9.453,10.014,10.014,0,0,1-2.327,6.2c-1.552,1.637-3.811,2.323-6,2.878a99.669,99.669,0,0,1-30.352,2.823A22.837,22.837,0,0,1,764.074,285.71Z" transform="translate(-731.516 -248.282)" fill="#145566"/>
          </g>
          <g id="Grupo_56150" data-name="Grupo 56150" transform="translate(128.438 39.841)">
            <g id="Grupo_56147" data-name="Grupo 56147" transform="translate(6.503 95.81)">
              <g id="Grupo_56146" data-name="Grupo 56146" transform="translate(10.507 104.377)">
                <path id="Trazado_102320" data-name="Trazado 102320" d="M870.365,691.476l-3.987-.023a97.176,97.176,0,0,1-1.535-14.887c1.887.914,4.4.169,4.92,3.585C869.93,681.257,870.1,691.475,870.365,691.476Z" transform="translate(-855.974 -676.566)" fill="#e5d1bd"/>
                <path id="Trazado_102321" data-name="Trazado 102321" d="M856.563,702.958a2.4,2.4,0,0,0-1.609,1.315,7.7,7.7,0,0,1-.648,1.247,2.3,2.3,0,0,1-.985.632,21.692,21.692,0,0,0-4.518,1.984,6.32,6.32,0,0,1-1.828.844,1.19,1.19,0,0,0-.55.251.943.943,0,0,0-.21.7,2.84,2.84,0,0,0,1.721,2.372c1.1.5,2.35.517,3.477.942a7.015,7.015,0,0,0,4.068.142,27.715,27.715,0,0,0,7.685-3.56,1.271,1.271,0,0,0,.571-.539,2.364,2.364,0,0,0,.127-1.035c-.056-2.008-.106-5.069-2.127-4.989-.863.034-1.625.783-2.554.751C858.42,703.988,857.143,702.848,856.563,702.958Z" transform="translate(-846.214 -690.388)" fill="#222323"/>
              </g>
              <path id="Trazado_102322" data-name="Trazado 102322" d="M824.768,507.041a23.35,23.35,0,0,0,.457,12.383q6.751,28.076,13.5,56.152l8.865-.7c1.332-.1,3.7-1.232,4.96-1.7a22.594,22.594,0,0,0-.012-3.081c-2.335-22.571-5.971-39.645-4.908-59.616.267-5.021,3.108-8.366,5.52-12.725,8.195-14.807,9.808-27.255,13.521-37.009.235-.618-24.522-3.151-25.746-3.276-3.111-.318-5.766-.254-7.46,2.805-1.872,3.381-2.013,8.231-2.676,11.972q-1.458,8.226-2.884,16.459Q826.317,497.869,824.768,507.041Z" transform="translate(-824.146 -457.342)" fill="#145566"/>
            </g>
            <g id="Grupo_56149" data-name="Grupo 56149" transform="translate(32.217 89.628)">
              <g id="Grupo_56148" data-name="Grupo 56148" transform="translate(15.269 111.003)">
                <path id="Trazado_102323" data-name="Trazado 102323" d="M933.463,692.268l-4.267.391a96.918,96.918,0,0,1-3.131-15.16c2.11.745,4.727-.283,5.621,3.178C931.976,681.8,933.182,692.293,933.463,692.268Z" transform="translate(-918.522 -677.498)" fill="#e5d1bd"/>
                <path id="Trazado_102324" data-name="Trazado 102324" d="M920.6,704.075a2.566,2.566,0,0,0-1.59,1.521,7.9,7.9,0,0,1-.568,1.35,2.476,2.476,0,0,1-.99.752,23.776,23.776,0,0,0-4.634,2.511,6.945,6.945,0,0,1-1.871,1.058,1.3,1.3,0,0,0-.562.315.952.952,0,0,0-.155.742,2.946,2.946,0,0,0,2.077,2.262c1.224.4,2.564.288,3.813.608a7.819,7.819,0,0,0,4.365-.277c2.887-.918,5.4-2.748,7.862-4.462a1.343,1.343,0,0,0,.556-.615,2.35,2.35,0,0,0,.033-1.078c-.261-2.061-.62-5.206-2.774-4.913-.919.125-1.659.975-2.656,1.038C922.694,704.943,921.213,703.9,920.6,704.075Z" transform="translate(-910.221 -691.294)" fill="#222323"/>
              </g>
              <path id="Trazado_102325" data-name="Trazado 102325" d="M889.38,526.7c3.162,13.062,7.514,25.963,8.365,39.376a2.824,2.824,0,0,0,.52,1.778,2.625,2.625,0,0,0,1.727.641,23.687,23.687,0,0,0,11.739-1.829c.049-7.01-1.985-13.845-3.11-20.765-1.386-8.528-1.391-17.212-1.363-25.852.068-21.1,6.471-43.353,4.667-64.37-.342-3.981-6.936-6.9-8.5-10.578a54.645,54.645,0,0,1-25.274-.742c.321,4.315,1.284,8.153,1.964,12.349.9,5.525.9,11.32,1.386,16.9.987,11.4,2.2,22.781,4.057,34.071C886.608,514.061,887.858,520.412,889.38,526.7Z" transform="translate(-878.153 -444.358)" fill="#145566"/>
            </g>
            <path id="Trazado_102326" data-name="Trazado 102326" d="M859.7,257.623a14.207,14.207,0,0,1,4.937,2.849c4.173,3.89,7.608,9.357,10.34,14.375a106.118,106.118,0,0,1,11.358,33.506c3.153,19.592,1.189,39.71-1.831,59.349q-36.749-10.026-74.018-17.792c2.668.556,10.721-14.544,11.912-16.824,3.1-5.924,6.674-13.429,7.043-20.288.652-12.136-2.462-24.169-1.361-36.3.419-4.614-.011-8.722,3.1-12.374a23.065,23.065,0,0,1,13.12-7.5A31.792,31.792,0,0,1,859.7,257.623Z" transform="translate(-810.488 -256.112)" fill="#145566"/>
            <path id="Trazado_102327" data-name="Trazado 102327" d="M861.844,265.725a21.738,21.738,0,0,1,.077,3.045,51.264,51.264,0,0,1-1.346,8.032c-.56,2.285-1.268,4.535-1.731,6.841a59.874,59.874,0,0,0-.893,7.638c-1.173,16.837-1.052,33.973-5.689,50.2-1.083,3.791-2.427,7.536-2.936,11.446a2.953,2.953,0,0,0,.432,2.419,3.1,3.1,0,0,0,1.963.729q8.118,1,16.25,1.886c-.49-6.717.681-13.426,1.42-20.12a157.212,157.212,0,0,0,.367-30.687c-.69-8.022-2-15.978-2.653-24-.376-4.6-1.17-9.309-.4-13.914.369-2.2,2.386-4.422,2.646-6.317.355-2.588-2.794-1.42-4.883-.986C861.9,262.47,861.744,263.878,861.844,265.725Z" transform="translate(-830.801 -258.827)" fill="#fff"/>
          </g>
          <g id="Grupo_56156" data-name="Grupo 56156" transform="translate(0 7.022)">
            <g id="Grupo_56155" data-name="Grupo 56155" transform="translate(0 0)">
              <g id="Grupo_56151" data-name="Grupo 56151">
                <circle id="Elipse_407" data-name="Elipse 407" cx="68.416" cy="68.416" r="68.416" transform="translate(0 96.755) rotate(-45)" fill="#ffd559"/>
              </g>
              <g id="Grupo_56152" data-name="Grupo 56152" transform="translate(38.691 38.691)">
                <circle id="Elipse_408" data-name="Elipse 408" cx="58.064" cy="58.064" r="58.064" fill="#ebb044"/>
              </g>
              <g id="Grupo_56153" data-name="Grupo 56153" transform="translate(47.827 47.198)">
                <path id="Trazado_102328" data-name="Trazado 102328" d="M720.486,286.31a58.072,58.072,0,0,1-79.307,80.765,58.069,58.069,0,1,0,79.307-80.765Z" transform="translate(-641.179 -286.31)" fill="#edbd31"/>
              </g>
              <g id="Grupo_56154" data-name="Grupo 56154" transform="translate(45.047 45.114)">
                <path id="Trazado_102329" data-name="Trazado 102329" d="M639.157,338.888a51.255,51.255,0,0,1,91.885-31.245,51.259,51.259,0,1,0-85.075,56.791A51.022,51.022,0,0,1,639.157,338.888Z" transform="translate(-635.342 -281.934)" fill="#f7db5e"/>
              </g>
              <path id="Trazado_102330" data-name="Trazado 102330" d="M712.891,352.651h12.174v6.593H715.6a27.846,27.846,0,0,1,1.052,5.744,30.578,30.578,0,0,1-1.173,6.431l.607.2q1.293.446,2.366.829t1.962.708q4.934,1.982,7.2,1.982a4.3,4.3,0,0,0,3.034-1.214,12.248,12.248,0,0,0,1.517-1.82q.828-1.173,1.84-2.912l7.523,4.53q-2.71,5.785-5.905,8.13a12.839,12.839,0,0,1-7.928,2.427q-3.4,0-10.355-2.386-6.755-2.588-9.465-2.589a5.418,5.418,0,0,0-3.519,1.052,13.5,13.5,0,0,0-2.912,4.449l-8.089-4.085q3.762-6.027,5.986-7.726a13.246,13.246,0,0,1,6.917-2.548,20.107,20.107,0,0,0,.97-5.784,11.3,11.3,0,0,0-1.416-5.42H695.135v-6.593h7.321q-3.924-7.806-3.924-13.348a18.073,18.073,0,0,1,6.067-13.712,21.082,21.082,0,0,1,14.8-5.663,19.116,19.116,0,0,1,14.278,5.7q5.621,5.622,5.622,14.561l-9.262,3.438q0-6.754-1.375-9.464-2.67-5.379-9.3-5.38a10.831,10.831,0,0,0-8.049,3.2,10.953,10.953,0,0,0-3.155,8.09q0,4.125,4.287,11.811c.054.081.114.182.182.3S712.783,352.462,712.891,352.651Z" transform="translate(-620.686 -256.724)" fill="#d49a34"/>
            </g>
          </g>
          <g id="Grupo_56159" data-name="Grupo 56159" transform="translate(142.114)">
            <g id="Grupo_56158" data-name="Grupo 56158" transform="translate(2.181 8.925)">
              <g id="Grupo_56157" data-name="Grupo 56157">
                <path id="Trazado_102331" data-name="Trazado 102331" d="M858.8,227.933c.161.258,5.006-1.014,5.544-1.127,1.685-.356,2.415-1.01,2.331-2.876a15.088,15.088,0,0,1,.835-5.863c.552-1.546,1.633-2.757,2.247-4.262a21.091,21.091,0,0,0,1.194-4.124,30.4,30.4,0,0,0,.415-6.993c-.087-1.788-1-3.366-1.478-5.09a10.35,10.35,0,0,0-1.588-3.713c-1.472-1.868-4.022-2.491-6.4-2.658-6.755-.474-18.788,2.627-18.078,11.31a35.345,35.345,0,0,0,1.081,5.627c.975,3.916,1.407,11.416,6.207,12.741,1.354.374,2.875.069,4.13.7C857.453,222.712,857.489,225.83,858.8,227.933Z" transform="translate(-843.792 -191.179)" fill="#c9a98d"/>
              </g>
            </g>
            <path id="Trazado_102332" data-name="Trazado 102332" d="M879.209,178.844a14.576,14.576,0,0,1-5.045-3.145,11.317,11.317,0,0,0-5.2-2.823c-1.786-.271-3.555.293-5.349.345a40.266,40.266,0,0,1-5.654-.676,17.144,17.144,0,0,0-14.573,5.357c-2.089,2.346-5.477,7.795-3.662,11.054a2.88,2.88,0,0,0,1.906,1.4c1.056.219,2.205-.316,3.23-.032a3.679,3.679,0,0,1,1.691,1.344,12.734,12.734,0,0,0,3.921,3.388,11.07,11.07,0,0,0,5,.565,2.127,2.127,0,0,0,1.085-.24c.457-.3.611-.877.853-1.365a2.653,2.653,0,0,1,2.511-1.558,1.8,1.8,0,0,1,1.54,2.245c-.387.994-1.636,1.252-2.676,1.485-.317.071-.7.229-.715.553a.784.784,0,0,0,.315.552l4.906,4.752c1,.966,3.217,4.274,4.652,2.693,2.423-2.667,2.522-6.251,4.756-8.791a28.171,28.171,0,0,0,2.762-3.719c1.565-2.517,2.343-5.436,4.339-7.671.755-.846,1.71-1.5,2.479-2.337a7.565,7.565,0,0,0,1.981-5.169C883.509,178.8,881.131,179.379,879.209,178.844Z" transform="translate(-839.211 -172.433)" fill="#1a3151"/>
          </g>
          <path id="Trazado_102333" data-name="Trazado 102333" d="M726.941,246.755a1.574,1.574,0,0,0,.623-.518l1.4-1.65a2.515,2.515,0,0,1,1.37,1.466c.142.407.252.932.67,1.037.518.13.865-.518.982-1.038q.136-.606.225-1.222a1.7,1.7,0,0,0-.1-1.115,1.664,1.664,0,0,0-.893-.616,15.583,15.583,0,0,0-4.332-.891c-1.088-.087-2.816-.463-3.734.305a1.606,1.606,0,0,0-.218,2.327C723.529,245.513,726.033,247.08,726.941,246.755Z" transform="translate(-635.969 -208.898)" fill="#c9a98d"/>
          <path id="Trazado_102334" data-name="Trazado 102334" d="M873.913,266.481a1.974,1.974,0,0,1,1.229.8,1.722,1.722,0,0,1-.649,2.029c-.6.49-1.347.767-1.93,1.274-1.346,1.17-1.453,3.187-1.464,4.97q-.176,29.409-2.3,58.763l-4.289,1.773a31.865,31.865,0,0,1-1.9-10.409,49.277,49.277,0,0,1,.927-7.856c1.69-9.951,3.044-19.954,4.283-29.97.613-4.96,1.263-9.922,1.781-14.893.171-1.635-.342-3.582-.1-5.1C869.861,265.615,871.708,265.825,873.913,266.481Z" transform="translate(-709.355 -221.47)" fill="#3ababa"/>
          <g id="Grupo_56160" data-name="Grupo 56160" transform="translate(121.52 51.692)">
            <path id="Trazado_102335" data-name="Trazado 102335" d="M796.107,390.558q-.068-.42-.125-.842a1.3,1.3,0,0,1,0-.507,1.267,1.267,0,0,1,.249-.429,20.288,20.288,0,0,1,4.034-3.683c.555-.417.585-.484,1.288-.31.78.193,1.556.474,2.317.736,1.1-.006,2.192.032,3.284-.068,2.763-.251,8.33-3.717,10.312-.817a5.287,5.287,0,0,1,.914,1.788,4.4,4.4,0,0,1-.031,1.623c-.068.42-.065,1.1-.43,1.354a7.247,7.247,0,0,1-2.079.323l-4.176.65c-1.365.212-2.953.578-3.494,1.734a5.766,5.766,0,0,1-.33.766,2.347,2.347,0,0,1-.74.639,17.167,17.167,0,0,1-3.315,1.672c-1.067.386-1.751-.132-2.711-.522-1-.408-2.111-.213-3.132-.527s-1.355-1.155-1.57-2.166Q796.223,391.268,796.107,390.558Z" transform="translate(-795.958 -334.692)" fill="#c9a98d"/>
            <path id="Trazado_102336" data-name="Trazado 102336" d="M864.662,327.844a22.636,22.636,0,0,1-7.847,5.019A92.947,92.947,0,0,1,831.5,339.2a25.681,25.681,0,0,1-2.527-10.8,146.083,146.083,0,0,0,19.787-8.033c3.113-1.539,5.6-3.371,6.2-6.69a135.941,135.941,0,0,0,2.2-22.326,13.705,13.705,0,0,1,.648-4.9c1.136-2.867,4.307-4.882,7.631-5.332a14.894,14.894,0,0,1,9.493,2.167,10.02,10.02,0,0,1,4.488,4.867c.764,2.123.359,4.448-.132,6.657A99.677,99.677,0,0,1,868.16,323.18,22.852,22.852,0,0,1,864.662,327.844Z" transform="translate(-813.253 -281.002)" fill="#145566"/>
          </g>
        </g>
        <g id="Grupo_56162" data-name="Grupo 56162" transform="translate(151.003)">
          <path id="Trazado_102337" data-name="Trazado 102337" d="M528.571,141.194a70.494,70.494,0,0,0-48.761-27.516,75.983,75.983,0,0,0-31.156,2.922,78.574,78.574,0,0,0-19.351,9.044l-5.469-12.586-1.537-3.538-1.152,3.681-9.161,29.272-.605,1.935,2.026-.07,30.668-1.056,4.031-.139-3.21-2.441-9.37-7.125a67.109,67.109,0,0,1,35.668-10.36,66.159,66.159,0,0,1,7.481.427,60.553,60.553,0,0,1,41.917,23.624l.867,1.147,1.146-.867,5.7-4.312.489-.363.076-.612.075-.611Z" transform="translate(-411.378 -109.519)" fill="#ffd494"/>
        </g>
        <g id="Grupo_56163" data-name="Grupo 56163" transform="translate(150.543 236.915)">
          <path id="Trazado_102338" data-name="Trazado 102338" d="M410.788,614.388a71.046,71.046,0,0,0,49.143,27.732,76.574,76.574,0,0,0,31.4-2.945,79.21,79.21,0,0,0,19.5-9.114l5.512,12.685,1.549,3.565,1.161-3.71,9.232-29.5.61-1.95-2.042.07-30.908,1.064-4.062.14,3.235,2.46,9.444,7.181A67.638,67.638,0,0,1,468.617,632.5a66.531,66.531,0,0,1-7.539-.43,61.025,61.025,0,0,1-42.245-23.809l-.873-1.155-1.155.874-5.748,4.346-.494.366-.076.617-.076.616Z" transform="translate(-410.412 -607.111)" fill="#ffd494"/>
        </g>
        <g id="Grupo_56179" data-name="Grupo 56179" transform="translate(0 19.447)">
          <g id="Grupo_56164" data-name="Grupo 56164" transform="translate(75.894 41.046)">
            <path id="Trazado_102339" data-name="Trazado 102339" d="M428.226,236.814a2.905,2.905,0,0,0-.471-.165c-1.515-.381-2.549.791-3.937.836-.619.02-2.075-1.126-2.414-.155-.122.36-.637,1.535-1.08,2.746-.705.807-1.376,1.648-2.154,2.385-1.969,1.866-8.32,3.48-7.25,7.052a6.112,6.112,0,0,0,.856,1.974,5.259,5.259,0,0,0,1.327,1.153c.382.254.927.749,1.366.662.46-.091,1.217-1,1.59-1.307l3.192-2.624c1.044-.858,2.354-1.771,3.631-1.334a6.493,6.493,0,0,0,.828.31,2.308,2.308,0,0,0,.988-.086,15.843,15.843,0,0,0,3.467-1.246c1.947-1,2.345-4.421,2.707-6.317a3.236,3.236,0,0,0,.044-1.428,3.442,3.442,0,0,0-1.511-1.725A6.93,6.93,0,0,0,428.226,236.814Z" transform="translate(-335.966 -236.572)" fill="#e5d1bd"/>
            <path id="Trazado_102340" data-name="Trazado 102340" d="M306.967,276.189a19.372,19.372,0,0,0,5.173-.071,17.341,17.341,0,0,0,3.887-1.391,82.582,82.582,0,0,0,21.286-14.176,30.691,30.691,0,0,0-7.085-9.7,132.284,132.284,0,0,1-19.121,8.844,16,16,0,0,1-4.156,1.1,17.063,17.063,0,0,1-6.1-.987L277.714,253.1c-4.655-1.349-9.487-2.711-14.278-1.988-13.284,2-12.7,19.026-.5,21.872C276.645,276.179,292.9,275.122,306.967,276.189Z" transform="translate(-253.627 -244.053)" fill="#b5d6ca"/>
          </g>
          <g id="Grupo_56170" data-name="Grupo 56170">
            <g id="Grupo_56166" data-name="Grupo 56166" transform="translate(0 128.718)">
              <g id="Grupo_56165" data-name="Grupo 56165" transform="translate(0 108.349)">
                <path id="Trazado_102341" data-name="Trazado 102341" d="M104.274,657.383a36.924,36.924,0,0,0,3.308,3.328,72.454,72.454,0,0,0,11.995-10.691c-3.108-.53-3.59-3.279-7.341-.565C111.022,650.333,106.357,656.152,104.274,657.383Z" transform="translate(-99.491 -648.276)" fill="#e5d1bd"/>
                <path id="Trazado_102342" data-name="Trazado 102342" d="M104.935,666.842a2.4,2.4,0,0,1,.741,2.255,6.4,6.4,0,0,0-.142,1.536,3.611,3.611,0,0,0,.649,1.345c1.6,2.4,5.873,7.422-.05,7.749-5.379.3-9.422-7.358-11.618-11.895a1.691,1.691,0,0,1-.28-.933,2.305,2.305,0,0,1,.435-1c1.224-1.733,2.71-3.948,4.967-2.548.963.6,1.042,1.814,2.067,2.442C102.543,666.308,104.179,666.2,104.935,666.842Z" transform="translate(-94.228 -655.941)" fill="#222323"/>
              </g>
              <path id="Trazado_102343" data-name="Trazado 102343" d="M131.217,449.221c-1.206,10.434,14.412,21.345,11.258,29.742-6.6,17.566-20.055,32.343-31.149,45.965-.793.973-5.93,6.391-7.052,7.616,2.372,3.39,5.914,5.737,9.055,8.652,15.854-12,44.308-34.231,51.946-44.452,10.368-13.875,12.558-39.917,17.527-57.9.823-2.979,2.061-7.269.176-10.111-1.446-2.179-3.589-3.207-6.331-4.006-7.333-2.139-17.288-6.473-24.493-2.208C144.279,427.182,132.143,441.2,131.217,449.221Z" transform="translate(-99.491 -420.711)" fill="#1a3151"/>
            </g>
            <g id="Grupo_56168" data-name="Grupo 56168" transform="translate(45.857 123.154)">
              <g id="Grupo_56167" data-name="Grupo 56167" transform="translate(60.186 112.121)">
                <path id="Trazado_102344" data-name="Trazado 102344" d="M322.825,661.085c1.6.331,3.215.17,4.819.345a78.9,78.9,0,0,0,2.373-16.919c-2.816,1.85-4.949.112-6.032,4.874C323.634,650.926,323.716,658.675,322.825,661.085Z" transform="translate(-320.027 -644.511)" fill="#e5d1bd"/>
                <path id="Trazado_102345" data-name="Trazado 102345" d="M325.581,673.767a2.531,2.531,0,0,1,2.057,1.275,11.581,11.581,0,0,0,.854,1.319,2.825,2.825,0,0,0,1.36.592c2.815.7,9.386,1.7,5.1,5.883-3.894,3.8-11.975.688-16.652-1.276a1.8,1.8,0,0,1-.848-.522,2.311,2.311,0,0,1-.335-1.051c-.249-2.1-.589-4.876,2.043-5.322,1.123-.19,2.064.681,3.266.466C323.411,674.956,324.578,673.766,325.581,673.767Z" transform="translate(-316.949 -659.837)" fill="#222323"/>
              </g>
              <path id="Trazado_102346" data-name="Trazado 102346" d="M211.654,452.62c7.7,7.569,29.752,13.126,33.34,21.839,1.439,3.5,5.012,30.279,5.733,48.478.052,1.3-1.244,8.806-1.257,10.525,4.108,1.159,9.193-.14,13.622.166,3.235-20.97,7.05-61.689,7.05-61.689-4.382-18.34-25.533-39.372-37.27-55.895-1.944-2.737-4.217-6.485-7.707-6.946-2.676-.353-4.788.578-7.195,2.117-6.438,4.119-25.9,10.7-27.327,18.9C189.084,439.091,205.734,446.8,211.654,452.62Z" transform="translate(-190.541 -409.024)" fill="#1a3151"/>
            </g>
            <path id="Trazado_102347" data-name="Trazado 102347" d="M194.887,249.46c-6.707,5.9-16.806,11.305-20.835,19.521-9.745,19.876-15.658,41.218-18.735,63.025q-1.35,9.567-2.7,19.134c-.886,6.275-.666,7.732,4.461,8.193,10.362.948,21.579-2.455,31.532-5.128a25.308,25.308,0,0,0,7.312-2.856c3.333-2.16,5.681-5.777,9.349-7.3a19.072,19.072,0,0,1,5.5-1.094c4-.391,8.469-.647,11.556,1.922,1.807,1.5,2.716,3.887,4.557,5.3,1.283-1.759-.5-7.234-.812-9.423a84.491,84.491,0,0,1-.97-10.128,189.556,189.556,0,0,1,.891-20.648c1.054-11.972,1.6-24,2.586-35.946.7-8.555,2.479-15.254-3.343-22.481-3.169-3.935-8.98-10.768-14.235-10.675C205.424,240.971,198.845,245.975,194.887,249.46Z" transform="translate(-124.606 -197.779)" fill="#b5d6ca"/>
            <g id="Grupo_56169" data-name="Grupo 56169" transform="translate(82.216 16.452)">
              <path id="Trazado_102348" data-name="Trazado 102348" d="M285.92,208.941c-1.942,1.84-4.386,3.038-6.595,4.545a15.008,15.008,0,0,0-4.659,5.275c-.936,1.578-2.067,2.65-4.205,2.118-4.033-1-1.667-3.72-1.605-6.369.07-3.028-1.2-5.96-1.732-8.9-1.528-8.5,5.1-21.4,15.111-20.659C293.186,185.756,291.814,203.359,285.92,208.941Z" transform="translate(-266.905 -184.918)" fill="#e5d1bd"/>
            </g>
            <path id="Trazado_102349" data-name="Trazado 102349" d="M261.5,176.189a2.749,2.749,0,0,0-1.093,3.4c.326.62.929,1.049,1.3,1.642,1.1,1.737-.179,4.048-1.784,5.327s-3.618,2.163-4.7,3.909c-5.459-4.434-9.637-10.858-10.019-17.89a17.684,17.684,0,0,1,5.51-13.8c4.425-4.035,8.9-3.812,14.661-4.305a20.1,20.1,0,0,1,6.561.15c1.962.488,3.41,1.894,5.238,2.521a12.056,12.056,0,0,0,10.444-2.272c1.448-1.364,2.3-3.444,4.128-4.229a4.261,4.261,0,0,1,5.025,1.7,5.855,5.855,0,0,1,.249,5.526c-.516,1.142-1.327,2.133-1.817,3.285-1.032,2.429-.548,5.333-1.739,7.688-1.261,2.492-4.064,3.748-6.715,4.61-2.755.9-5.754,1.663-7.744,3.928.364-1.5-2.039-4.847-3.627-5.189-2.054-.442-5.308,1.9-7.413,2.4C265.946,175.078,263.3,175.03,261.5,176.189Z" transform="translate(-173.311 -150.364)" fill="#1a3151"/>
          </g>
          <path id="Trazado_102350" data-name="Trazado 102350" d="M276.436,273.969c-2.6,3.33-4.565,7.468-4.058,11.662.543,4.493,3.84,8.525,3.414,13.03-.192,2.026-1.13,3.894-1.7,5.846s-.726,4.234.5,5.86c.954,1.269,2.663,2.034,3.054,3.573,2.95-3.826,5.983-7.826,6.988-12.552a17.132,17.132,0,0,0-1.029-10.172c-1.344-3.167-3.648-6.151-3.5-9.589.14-3.2,2.331-5.76,4-8.323,1.9-2.924.019-7.462-1.325-10.424-.639-1.409-1.607-2.909-3.134-3.159a5.208,5.208,0,0,0-1.374.02,4.331,4.331,0,0,0-1.592.372,1.474,1.474,0,0,0-.854,1.3,2.07,2.07,0,0,1,2.2.839c1.109,1.449,1.525,4.584,1.264,6.365C278.978,270.661,277.672,272.385,276.436,273.969Z" transform="translate(-187.514 -207.633)" fill="#fff"/>
          <g id="Grupo_56176" data-name="Grupo 56176" transform="translate(42.719 12.931)">
            <g id="Grupo_56175" data-name="Grupo 56175" transform="translate(0 0)">
              <g id="Grupo_56171" data-name="Grupo 56171" transform="translate(0 0)">
                <circle id="Elipse_409" data-name="Elipse 409" cx="67.879" cy="67.879" r="67.879" transform="translate(0 95.996) rotate(-45)" fill="#ffd559"/>
              </g>
              <g id="Grupo_56172" data-name="Grupo 56172" transform="translate(38.387 38.387)">
                <circle id="Elipse_410" data-name="Elipse 410" cx="57.608" cy="57.608" r="57.608" fill="#ebb044"/>
              </g>
              <g id="Grupo_56173" data-name="Grupo 56173" transform="translate(45.99 48.366)">
                <path id="Trazado_102351" data-name="Trazado 102351" d="M363.066,279.105a57.617,57.617,0,0,1-82.522,76.172,57.613,57.613,0,1,0,82.522-76.172Z" transform="translate(-280.543 -279.105)" fill="#edbd31"/>
              </g>
              <g id="Grupo_56174" data-name="Grupo 56174" transform="translate(44.712 44.737)">
                <path id="Trazado_102352" data-name="Trazado 102352" d="M281.425,325.675A50.852,50.852,0,0,1,374,299.188a50.856,50.856,0,1,0-87.07,52.134A50.62,50.62,0,0,1,281.425,325.675Z" transform="translate(-277.86 -271.484)" fill="#f7db5e"/>
              </g>
              <path id="Trazado_102353" data-name="Trazado 102353" d="M370.925,301.278l-.36,7.33a15.455,15.455,0,0,1,7.075,3.272,22.372,22.372,0,0,1,5.015,7.032l-7.493,3.719q-3-6.145-8.308-6.407A7.883,7.883,0,0,0,361.3,317.9a6.266,6.266,0,0,0-2.408,4.756,5.992,5.992,0,0,0,1.541,4.5q1.635,1.8,6.756,4.418a69.749,69.749,0,0,1,7.289,4.238,19.971,19.971,0,0,1,4.279,3.715,15.677,15.677,0,0,1,3.684,11.241,17.686,17.686,0,0,1-4.367,11.032,18.478,18.478,0,0,1-10.418,6.011l-.38,7.742-6.545-.321.369-7.518q-7.272-1.558-10.934-5.6t-5.1-12.173l8.313-1.316q1.4,5.768,3.715,8.318a9.669,9.669,0,0,0,6.655,2.652,9.561,9.561,0,0,0,7.012-2.317,8.973,8.973,0,0,0,3.063-6.635,7.977,7.977,0,0,0-1.989-6.059,21.151,21.151,0,0,0-3.3-2.618,58.837,58.837,0,0,0-5.632-3.257q-7.1-3.61-9.242-6.452a14.99,14.99,0,0,1-2.042-14.909,13.721,13.721,0,0,1,2.694-4.085,15.469,15.469,0,0,1,4.181-3.075,21.655,21.655,0,0,1,5.529-1.9l.36-7.33Z" transform="translate(-268.355 -242.187)" fill="#d49a34"/>
            </g>
          </g>
          <g id="Grupo_56178" data-name="Grupo 56178" transform="translate(66.854 49.745)">
            <path id="Trazado_102354" data-name="Trazado 102354" d="M290.3,427.689a2.909,2.909,0,0,0,.129-.483c.267-1.543-.976-2.489-1.124-3.873-.066-.617.966-2.158-.026-2.425-.367-.1-1.574-.523-2.811-.876-.856-.645-1.742-1.253-2.533-1.975-2-1.83-4.08-8.058-7.554-6.724a6.086,6.086,0,0,0-1.9,1,5.269,5.269,0,0,0-1.048,1.412c-.224.4-.676.983-.557,1.414.125.453,1.086,1.143,1.418,1.492l2.848,3c.931.98,1.936,2.221,1.6,3.53a6.611,6.611,0,0,0-.248.851,2.329,2.329,0,0,0,.159.98,15.916,15.916,0,0,0,1.5,3.373c1.144,1.872,4.573,2.016,6.486,2.236a3.21,3.21,0,0,0,1.424-.062,3.442,3.442,0,0,0,1.6-1.639A6.937,6.937,0,0,0,290.3,427.689Z" transform="translate(-254.662 -336.727)" fill="#e5d1bd"/>
            <g id="Grupo_56177" data-name="Grupo 56177">
              <path id="Trazado_102355" data-name="Trazado 102355" d="M277.85,423.112a.791.791,0,0,0,.413-.171,26.085,26.085,0,0,0,5.972-5.521l-2.371-2.5a.539.539,0,0,0-.2-.154c-.169-.058-.344.063-.482.176l-4.546,3.71c-.679.555-1.9,1.3-1.551,2.278A6.754,6.754,0,0,0,277.85,423.112Z" transform="translate(-255.795 -338.617)" fill="#f2f2f2"/>
              <path id="Trazado_102356" data-name="Trazado 102356" d="M235.659,309.269a19.521,19.521,0,0,0,.455,5.165,17.414,17.414,0,0,0,1.673,3.782,77.294,77.294,0,0,0,15.05,19.621c3.514-1.964,6.317-5.405,8.805-8.575a112.676,112.676,0,0,1-9.268-17.079,16.087,16.087,0,0,1-1.4-4.073,17.164,17.164,0,0,1,.528-6.167q2.477-11.816,4.955-23.632c1-4.753,1.993-9.685.917-14.42-2.981-13.13-19.872-11.287-21.8,1.127C233.417,278.957,235.675,295.123,235.659,309.269Z" transform="translate(-234.641 -254.843)" fill="#b5d6ca"/>
              <path id="Trazado_102357" data-name="Trazado 102357" d="M285.178,409.469c-.5-.282-1.337-.057-1.384.574a.851.851,0,0,0,.889.851c.743-.052,1.183-1.007.519-1.41Z" transform="translate(-260.39 -335.785)" fill="#f2f2f2"/>
              <path id="Trazado_102358" data-name="Trazado 102358" d="M281.531,404.54c-.5-.282-1.338-.057-1.384.574a.851.851,0,0,0,.889.851c.743-.052,1.184-1.007.52-1.41Z" transform="translate(-258.48 -333.203)" fill="#f2f2f2"/>
            </g>
          </g>
        </g>
      </g>
      <path id="Trazado_102359" data-name="Trazado 102359" d="M276.664,645.051a361.557,361.557,0,0,0-39.6,1.853c-4.971.562-9.837,1.8-14.819,2.3-9.952,1-19.725,2.854-29.712,3.71-8.042.69-16.118,1.1-24.138,1.973a83.6,83.6,0,0,1-23.3-.725c-5.523-1-11.071-1.569-16.5-3.182a66.489,66.489,0,0,0-19-3.047c-9.025.066-17.815.074-26.451,3.259-3.032,1.118-6.744,2.956-9.046,5.3-5.271,5.372-5.984,18.775-.722,24.346,8.864,9.376,27.782,13.055,40.206,13.229,13.615.19,26.84-.837,40.475-1.441,12.669-.561,25.307-1.36,38-1.332,25.919.058,51.841,0,77.713-1.76,24.308-1.653,48.676-1.086,73.037-1.086,24.981,0,49.792.2,74.593,3.574,10.806,1.47,21.815,1.985,32.675,3.015,9.726.923,19.073-.018,28.76-.87a67.786,67.786,0,0,0,23.606-6.429c5.85-2.842,16.278-11.668,18.072-18.451,5.029-19.014-70.878-18.557-82.532-18.514-13.038.048-26.179.484-39.206-.021a91.009,91.009,0,0,1-16.228-2.494c-5.327-1.188-10.695-.886-16.1-1.386-22.529-2.082-45.108-1.778-67.708-1.778C291.381,645.094,284.022,645.028,276.664,645.051Z" transform="translate(-69.765 -390.069)" fill="#ff9800"/>
      <g id="Grupo_56216" data-name="Grupo 56216" transform="translate(6.631 0.447)">
        <path id="Trazado_102360" data-name="Trazado 102360" d="M254.026,341.095c-.166,4.849-.317,9.993-2.979,14.049a76.854,76.854,0,0,0,14.389-1.981c.346-10.165,2.683-20.15,3.842-30.255a192.377,192.377,0,0,0,.923-26.26,129.791,129.791,0,0,0-1.851-21.211,44.572,44.572,0,0,0-4.74-14.116,1.328,1.328,0,0,0-.532-.627,1.268,1.268,0,0,0-.711-.046c-4.218.569-3.453,1.416-3.18,4.951.22,2.858-.276,5.717-.415,8.566-.266,5.455-.641,10.906-1.064,16.351-.848,10.9-1.9,21.778-2.689,32.68C254.586,329.157,254.231,335.122,254.026,341.095Z" transform="translate(-171.366 -189.124)" fill="#fff"/>
        <g id="Grupo_56197" data-name="Grupo 56197" transform="translate(212.589 29.955)">
          <g id="Grupo_56181" data-name="Grupo 56181" transform="translate(86.909 33.073)">
            <path id="Trazado_102361" data-name="Trazado 102361" d="M715.334,242.928c.274-.036.536-.056.764-.069a17.6,17.6,0,0,1,4.835.41,2.091,2.091,0,0,1,.8.311,2.214,2.214,0,0,1,.468.539,43.473,43.473,0,0,0,4.709,5.449c1.281,1.323,3.245,3.4,2.15,5.388a5.278,5.278,0,0,1-1.185,1.621,4.385,4.385,0,0,1-1.463.7c-.406.129-1.011.437-1.4.225-.411-.223-.937-1.311-1.225-1.712l-2.459-3.437c-.8-1.123-1.845-2.378-3.121-2.34a5.8,5.8,0,0,1-.833.049,2.351,2.351,0,0,1-.9-.373,17.207,17.207,0,0,1-2.984-2.208c-.825-.779-.67-1.623-.754-2.657C712.63,243.537,714.109,243.087,715.334,242.928Z" transform="translate(-712.729 -242.834)" fill="#c9a98d"/>
            <path id="Trazado_102362" data-name="Trazado 102362" d="M753.539,286.648a22.639,22.639,0,0,1-8.013-4.75,92.943,92.943,0,0,1-17.047-19.76,25.67,25.67,0,0,1,8.507-7.115,146.122,146.122,0,0,0,16.076,14.057c2.776,2.088,5.529,3.482,8.766,2.531a135.963,135.963,0,0,0,20.931-8.077,13.7,13.7,0,0,1,4.671-1.628c3.072-.276,6.3,1.65,8.2,4.416a14.892,14.892,0,0,1,2.336,9.453,10.016,10.016,0,0,1-2.327,6.2c-1.552,1.637-3.812,2.323-6,2.878a99.666,99.666,0,0,1-30.352,2.823A22.828,22.828,0,0,1,753.539,286.648Z" transform="translate(-720.98 -249.22)" fill="#145566"/>
          </g>
          <g id="Grupo_56186" data-name="Grupo 56186" transform="translate(128.439 39.841)">
            <g id="Grupo_56183" data-name="Grupo 56183" transform="translate(6.503 95.81)">
              <g id="Grupo_56182" data-name="Grupo 56182" transform="translate(10.507 104.377)">
                <path id="Trazado_102363" data-name="Trazado 102363" d="M859.829,692.414l-3.987-.023a97.275,97.275,0,0,1-1.535-14.887c1.887.914,4.4.169,4.921,3.585C859.395,682.195,859.567,692.413,859.829,692.414Z" transform="translate(-845.438 -677.504)" fill="#e5d1bd"/>
                <path id="Trazado_102364" data-name="Trazado 102364" d="M846.028,703.9a2.4,2.4,0,0,0-1.609,1.315,7.737,7.737,0,0,1-.647,1.247,2.3,2.3,0,0,1-.985.632,21.679,21.679,0,0,0-4.518,1.984,6.322,6.322,0,0,1-1.828.844,1.188,1.188,0,0,0-.549.251.944.944,0,0,0-.211.7,2.839,2.839,0,0,0,1.721,2.372c1.1.5,2.349.517,3.477.942a7.017,7.017,0,0,0,4.069.142,27.717,27.717,0,0,0,7.685-3.56,1.272,1.272,0,0,0,.571-.539,2.362,2.362,0,0,0,.127-1.035c-.056-2.008-.106-5.069-2.127-4.989-.862.034-1.624.783-2.554.751C847.885,704.926,846.608,703.786,846.028,703.9Z" transform="translate(-835.679 -691.326)" fill="#222323"/>
              </g>
              <path id="Trazado_102365" data-name="Trazado 102365" d="M814.232,507.978a23.337,23.337,0,0,0,.457,12.383l13.5,56.152,8.865-.7c1.332-.1,3.7-1.232,4.96-1.7a22.654,22.654,0,0,0-.012-3.081c-2.335-22.571-5.971-39.645-4.909-59.616.267-5.021,3.108-8.366,5.521-12.725,8.194-14.808,9.808-27.255,13.52-37.009.235-.617-24.522-3.151-25.747-3.276-3.11-.318-5.765-.254-7.459,2.8-1.872,3.382-2.013,8.231-2.676,11.973q-1.458,8.226-2.884,16.459Q815.782,498.807,814.232,507.978Z" transform="translate(-813.611 -458.28)" fill="#145566"/>
            </g>
            <g id="Grupo_56185" data-name="Grupo 56185" transform="translate(32.216 89.628)">
              <g id="Grupo_56184" data-name="Grupo 56184" transform="translate(15.269 111.003)">
                <path id="Trazado_102366" data-name="Trazado 102366" d="M922.928,693.206l-4.266.391a96.832,96.832,0,0,1-3.13-15.16c2.11.745,4.727-.283,5.62,3.178C921.441,682.734,922.647,693.231,922.928,693.206Z" transform="translate(-907.987 -678.436)" fill="#e5d1bd"/>
                <path id="Trazado_102367" data-name="Trazado 102367" d="M910.069,705.013a2.567,2.567,0,0,0-1.589,1.521,7.947,7.947,0,0,1-.568,1.35,2.475,2.475,0,0,1-.99.752,23.756,23.756,0,0,0-4.634,2.511,6.93,6.93,0,0,1-1.871,1.058,1.3,1.3,0,0,0-.562.315.952.952,0,0,0-.155.742,2.946,2.946,0,0,0,2.077,2.262c1.224.4,2.564.288,3.813.608a7.823,7.823,0,0,0,4.365-.277c2.887-.918,5.4-2.748,7.863-4.462a1.344,1.344,0,0,0,.557-.615,2.359,2.359,0,0,0,.032-1.078c-.261-2.061-.62-5.206-2.774-4.913-.919.125-1.659.975-2.656,1.038C912.159,705.881,910.679,704.841,910.069,705.013Z" transform="translate(-899.686 -692.232)" fill="#222323"/>
              </g>
              <path id="Trazado_102368" data-name="Trazado 102368" d="M878.844,527.637c3.162,13.062,7.514,25.963,8.365,39.376a2.824,2.824,0,0,0,.52,1.778,2.625,2.625,0,0,0,1.726.641A23.69,23.69,0,0,0,901.2,567.6c.049-7.01-1.985-13.845-3.111-20.765-1.386-8.528-1.391-17.213-1.363-25.852.068-21.1,6.471-43.353,4.667-64.37-.342-3.981-6.937-6.9-8.5-10.578a54.648,54.648,0,0,1-25.274-.742c.321,4.315,1.284,8.153,1.964,12.349.9,5.525.9,11.32,1.386,16.9.988,11.4,2.2,22.781,4.057,34.071C876.072,515,877.322,521.35,878.844,527.637Z" transform="translate(-867.617 -445.296)" fill="#145566"/>
            </g>
            <path id="Trazado_102369" data-name="Trazado 102369" d="M849.167,258.561a14.208,14.208,0,0,1,4.937,2.849c4.173,3.89,7.608,9.357,10.34,14.375A106.1,106.1,0,0,1,875.8,309.29c3.153,19.591,1.189,39.711-1.831,59.349q-36.75-10.026-74.018-17.792c2.668.556,10.72-14.544,11.912-16.824,3.1-5.924,6.674-13.429,7.043-20.288.652-12.136-2.462-24.168-1.361-36.3.419-4.614-.011-8.722,3.1-12.374a23.062,23.062,0,0,1,13.12-7.5A31.794,31.794,0,0,1,849.167,258.561Z" transform="translate(-799.953 -257.05)" fill="#145566"/>
            <path id="Trazado_102370" data-name="Trazado 102370" d="M851.309,266.663a21.739,21.739,0,0,1,.077,3.045,51.252,51.252,0,0,1-1.346,8.032c-.56,2.285-1.268,4.535-1.731,6.841a60,60,0,0,0-.893,7.638c-1.173,16.837-1.052,33.973-5.689,50.2-1.084,3.791-2.427,7.536-2.936,11.446a2.953,2.953,0,0,0,.432,2.419,3.1,3.1,0,0,0,1.964.729q8.117,1,16.25,1.886c-.489-6.717.681-13.426,1.419-20.12a157.216,157.216,0,0,0,.368-30.687c-.69-8.022-2-15.978-2.653-24-.377-4.6-1.17-9.309-.4-13.914.369-2.2,2.386-4.422,2.646-6.317.355-2.588-2.794-1.42-4.883-.986C851.369,263.408,851.209,264.816,851.309,266.663Z" transform="translate(-820.266 -259.765)" fill="#fff"/>
          </g>
          <g id="Grupo_56192" data-name="Grupo 56192" transform="translate(0 7.022)">
            <g id="Grupo_56191" data-name="Grupo 56191" transform="translate(0 0)">
              <g id="Grupo_56187" data-name="Grupo 56187">
                <circle id="Elipse_411" data-name="Elipse 411" cx="68.416" cy="68.416" r="68.416" transform="translate(0 96.755) rotate(-45)" fill="#ffd559"/>
              </g>
              <g id="Grupo_56188" data-name="Grupo 56188" transform="translate(38.691 38.691)">
                <circle id="Elipse_412" data-name="Elipse 412" cx="58.064" cy="58.064" r="58.064" fill="#ebb044"/>
              </g>
              <g id="Grupo_56189" data-name="Grupo 56189" transform="translate(47.826 47.198)">
                <path id="Trazado_102371" data-name="Trazado 102371" d="M709.95,287.248a58.073,58.073,0,0,1-79.307,80.765,58.069,58.069,0,1,0,79.307-80.765Z" transform="translate(-630.643 -287.248)" fill="#edbd31"/>
              </g>
              <g id="Grupo_56190" data-name="Grupo 56190" transform="translate(45.048 45.114)">
                <path id="Trazado_102372" data-name="Trazado 102372" d="M628.622,339.826a51.255,51.255,0,0,1,91.885-31.245,51.259,51.259,0,1,0-85.075,56.791A51.016,51.016,0,0,1,628.622,339.826Z" transform="translate(-624.807 -282.872)" fill="#f7db5e"/>
              </g>
              <path id="Trazado_102373" data-name="Trazado 102373" d="M702.355,353.588H714.53v6.593h-9.465a27.846,27.846,0,0,1,1.052,5.744,30.564,30.564,0,0,1-1.173,6.431l.607.2q1.294.446,2.366.829t1.962.708q4.934,1.982,7.2,1.982a4.3,4.3,0,0,0,3.033-1.214,12.217,12.217,0,0,0,1.517-1.82q.828-1.173,1.84-2.912l7.524,4.53q-2.711,5.785-5.905,8.13a12.838,12.838,0,0,1-7.928,2.427q-3.4,0-10.355-2.386-6.755-2.588-9.465-2.589a5.42,5.42,0,0,0-3.519,1.052,13.5,13.5,0,0,0-2.912,4.449l-8.09-4.085q3.762-6.027,5.986-7.726a13.244,13.244,0,0,1,6.917-2.548,20.092,20.092,0,0,0,.971-5.784,11.3,11.3,0,0,0-1.416-5.42H684.6v-6.593h7.321Q688,345.782,688,340.24a18.073,18.073,0,0,1,6.067-13.712,21.081,21.081,0,0,1,14.8-5.663,19.117,19.117,0,0,1,14.278,5.7q5.621,5.622,5.622,14.561l-9.262,3.438q0-6.754-1.375-9.464-2.67-5.379-9.3-5.38a10.83,10.83,0,0,0-8.049,3.2,10.951,10.951,0,0,0-3.155,8.09q0,4.125,4.288,11.811c.054.081.114.182.182.3S702.247,353.4,702.355,353.588Z" transform="translate(-610.151 -257.662)" fill="#d49a34"/>
            </g>
          </g>
          <g id="Grupo_56195" data-name="Grupo 56195" transform="translate(142.114)">
            <g id="Grupo_56194" data-name="Grupo 56194" transform="translate(2.181 8.925)">
              <g id="Grupo_56193" data-name="Grupo 56193">
                <path id="Trazado_102374" data-name="Trazado 102374" d="M848.26,228.871c.16.258,5.006-1.014,5.544-1.127,1.685-.356,2.415-1.01,2.331-2.876a15.082,15.082,0,0,1,.835-5.863c.552-1.546,1.633-2.757,2.247-4.262a21.091,21.091,0,0,0,1.194-4.124,30.388,30.388,0,0,0,.414-6.993c-.086-1.788-1-3.366-1.478-5.09a10.36,10.36,0,0,0-1.588-3.713c-1.472-1.868-4.023-2.491-6.4-2.658-6.755-.474-18.788,2.627-18.079,11.31a35.344,35.344,0,0,0,1.081,5.627c.975,3.916,1.407,11.416,6.207,12.741,1.353.374,2.875.069,4.13.7C846.917,223.65,846.953,226.768,848.26,228.871Z" transform="translate(-833.256 -192.117)" fill="#c9a98d"/>
              </g>
            </g>
            <path id="Trazado_102375" data-name="Trazado 102375" d="M868.674,179.782a14.569,14.569,0,0,1-5.045-3.145,11.317,11.317,0,0,0-5.2-2.823c-1.786-.271-3.555.293-5.349.345a40.26,40.26,0,0,1-5.653-.676,17.143,17.143,0,0,0-14.573,5.357c-2.09,2.346-5.477,7.795-3.662,11.054a2.88,2.88,0,0,0,1.905,1.4c1.056.219,2.206-.316,3.23-.032a3.68,3.68,0,0,1,1.691,1.344,12.728,12.728,0,0,0,3.921,3.388,11.069,11.069,0,0,0,5,.565,2.126,2.126,0,0,0,1.085-.24c.457-.3.611-.877.853-1.365a2.653,2.653,0,0,1,2.511-1.558,1.8,1.8,0,0,1,1.541,2.245c-.387.994-1.636,1.252-2.676,1.485-.317.071-.7.229-.715.553a.786.786,0,0,0,.315.552l4.906,4.752c1,.966,3.217,4.274,4.653,2.693,2.423-2.667,2.521-6.251,4.755-8.791a28.151,28.151,0,0,0,2.762-3.719c1.566-2.517,2.343-5.436,4.34-7.671.755-.846,1.71-1.5,2.479-2.337a7.566,7.566,0,0,0,1.982-5.169C872.974,179.741,870.6,180.317,868.674,179.782Z" transform="translate(-828.676 -173.371)" fill="#1a3151"/>
          </g>
          <path id="Trazado_102376" data-name="Trazado 102376" d="M716.405,247.693a1.575,1.575,0,0,0,.623-.518l1.4-1.65a2.516,2.516,0,0,1,1.37,1.466c.142.407.252.932.67,1.037.518.13.865-.518.982-1.038q.136-.606.225-1.222a1.706,1.706,0,0,0-.1-1.115,1.668,1.668,0,0,0-.893-.616,15.584,15.584,0,0,0-4.332-.891c-1.088-.087-2.816-.463-3.734.305a1.605,1.605,0,0,0-.218,2.327C712.993,246.451,715.5,248.018,716.405,247.693Z" transform="translate(-625.433 -209.836)" fill="#c9a98d"/>
          <path id="Trazado_102377" data-name="Trazado 102377" d="M863.377,267.419a1.973,1.973,0,0,1,1.23.8,1.722,1.722,0,0,1-.649,2.029c-.6.49-1.347.767-1.93,1.274-1.346,1.17-1.453,3.187-1.463,4.97q-.176,29.409-2.3,58.763l-4.289,1.773a31.87,31.87,0,0,1-1.9-10.409,49.292,49.292,0,0,1,.927-7.856c1.69-9.951,3.044-19.954,4.283-29.97.613-4.96,1.262-9.922,1.781-14.893.17-1.635-.342-3.582-.1-5.1C859.326,266.553,861.174,266.763,863.377,267.419Z" transform="translate(-698.82 -222.408)" fill="#3ababa"/>
          <g id="Grupo_56196" data-name="Grupo 56196" transform="translate(121.52 51.692)">
            <path id="Trazado_102378" data-name="Trazado 102378" d="M785.572,391.5q-.068-.42-.125-.842a1.284,1.284,0,0,1,0-.507,1.257,1.257,0,0,1,.249-.429,20.278,20.278,0,0,1,4.034-3.683c.555-.417.584-.484,1.288-.309.78.193,1.556.474,2.317.736,1.1-.006,2.193.032,3.284-.068,2.763-.251,8.33-3.717,10.312-.817a5.289,5.289,0,0,1,.915,1.788,4.392,4.392,0,0,1-.031,1.623c-.068.42-.064,1.1-.43,1.354a7.256,7.256,0,0,1-2.08.323l-4.175.65c-1.366.212-2.954.577-3.495,1.734a5.775,5.775,0,0,1-.33.766,2.347,2.347,0,0,1-.74.638,17.17,17.17,0,0,1-3.315,1.672c-1.067.386-1.751-.132-2.711-.522-1-.408-2.112-.213-3.133-.527s-1.354-1.155-1.569-2.166Q785.688,392.206,785.572,391.5Z" transform="translate(-785.422 -335.63)" fill="#c9a98d"/>
            <path id="Trazado_102379" data-name="Trazado 102379" d="M854.127,328.782a22.634,22.634,0,0,1-7.848,5.019,92.955,92.955,0,0,1-25.316,6.333,25.665,25.665,0,0,1-2.527-10.8,146.047,146.047,0,0,0,19.786-8.033c3.114-1.539,5.6-3.371,6.2-6.69a136.033,136.033,0,0,0,2.2-22.326,13.7,13.7,0,0,1,.648-4.9c1.136-2.867,4.307-4.882,7.631-5.332a14.893,14.893,0,0,1,9.493,2.167,10.015,10.015,0,0,1,4.488,4.867c.764,2.123.359,4.448-.131,6.657a99.681,99.681,0,0,1-11.135,28.377A22.844,22.844,0,0,1,854.127,328.782Z" transform="translate(-802.717 -281.94)" fill="#145566"/>
          </g>
        </g>
        <g id="Grupo_56198" data-name="Grupo 56198" transform="translate(151.002)">
          <path id="Trazado_102380" data-name="Trazado 102380" d="M518.035,142.132a70.5,70.5,0,0,0-48.761-27.516,75.981,75.981,0,0,0-31.156,2.922,78.574,78.574,0,0,0-19.351,9.044L413.3,114l-1.537-3.538-1.152,3.681-9.16,29.273-.606,1.935,2.026-.07,30.668-1.056,4.03-.139-3.21-2.441-9.371-7.125a67.112,67.112,0,0,1,35.668-10.36,66.158,66.158,0,0,1,7.48.427,60.555,60.555,0,0,1,41.917,23.624l.867,1.146,1.146-.867,5.7-4.312.49-.363.076-.612.075-.611Z" transform="translate(-400.842 -110.457)" fill="#ff9800"/>
        </g>
        <g id="Grupo_56199" data-name="Grupo 56199" transform="translate(150.542 236.915)">
          <path id="Trazado_102381" data-name="Trazado 102381" d="M400.252,615.326a71.045,71.045,0,0,0,49.142,27.732,76.572,76.572,0,0,0,31.4-2.945A79.2,79.2,0,0,0,500.3,631l5.512,12.685,1.549,3.565,1.161-3.71,9.232-29.5.61-1.95-2.042.07-30.908,1.064-4.062.14,3.235,2.46L494.029,623a67.635,67.635,0,0,1-35.947,10.441,66.513,66.513,0,0,1-7.539-.43A61.024,61.024,0,0,1,408.3,609.2l-.874-1.155-1.155.874-5.748,4.346-.493.366-.076.617-.076.616Z" transform="translate(-399.876 -608.049)" fill="#111e61"/>
        </g>
        <g id="Grupo_56215" data-name="Grupo 56215" transform="translate(0 19.447)">
          <g id="Grupo_56200" data-name="Grupo 56200" transform="translate(75.894 41.046)">
            <path id="Trazado_102382" data-name="Trazado 102382" d="M417.691,237.752a2.9,2.9,0,0,0-.471-.165c-1.515-.381-2.549.791-3.937.836-.618.02-2.075-1.126-2.414-.155-.122.36-.637,1.535-1.08,2.746-.705.807-1.376,1.648-2.153,2.385-1.969,1.866-8.32,3.48-7.25,7.052a6.1,6.1,0,0,0,.856,1.974,5.261,5.261,0,0,0,1.327,1.153c.382.254.927.749,1.366.662.46-.091,1.217-1,1.59-1.307l3.193-2.624c1.044-.858,2.354-1.771,3.631-1.334a6.5,6.5,0,0,0,.828.31,2.308,2.308,0,0,0,.987-.086,15.837,15.837,0,0,0,3.467-1.246c1.947-1,2.345-4.421,2.706-6.317a3.237,3.237,0,0,0,.044-1.428,3.447,3.447,0,0,0-1.511-1.725A6.949,6.949,0,0,0,417.691,237.752Z" transform="translate(-325.431 -237.51)" fill="#e5d1bd"/>
            <path id="Trazado_102383" data-name="Trazado 102383" d="M296.432,277.127a19.367,19.367,0,0,0,5.173-.071,17.336,17.336,0,0,0,3.888-1.391,82.579,82.579,0,0,0,21.286-14.176,30.69,30.69,0,0,0-7.085-9.7,132.294,132.294,0,0,1-19.121,8.844,16,16,0,0,1-4.156,1.1,17.061,17.061,0,0,1-6.1-.986l-23.143-6.708c-4.654-1.349-9.487-2.712-14.278-1.988-13.284,2-12.7,19.026-.5,21.872C266.109,277.117,282.36,276.06,296.432,277.127Z" transform="translate(-243.092 -244.991)" fill="#b5d6ca"/>
          </g>
          <g id="Grupo_56206" data-name="Grupo 56206">
            <g id="Grupo_56202" data-name="Grupo 56202" transform="translate(0 128.718)">
              <g id="Grupo_56201" data-name="Grupo 56201" transform="translate(0 108.349)">
                <path id="Trazado_102384" data-name="Trazado 102384" d="M93.739,658.321a36.862,36.862,0,0,0,3.308,3.328,72.471,72.471,0,0,0,11.995-10.691c-3.108-.53-3.59-3.279-7.341-.565C100.487,651.271,95.821,657.09,93.739,658.321Z" transform="translate(-88.956 -649.214)" fill="#e5d1bd"/>
                <path id="Trazado_102385" data-name="Trazado 102385" d="M94.4,667.78a2.4,2.4,0,0,1,.741,2.255A6.373,6.373,0,0,0,95,671.572a3.611,3.611,0,0,0,.649,1.344c1.595,2.4,5.873,7.422-.05,7.749-5.379.3-9.422-7.358-11.618-11.895a1.687,1.687,0,0,1-.28-.933,2.306,2.306,0,0,1,.435-1c1.224-1.733,2.71-3.948,4.967-2.548.963.6,1.042,1.814,2.067,2.442C92.008,667.246,93.643,667.134,94.4,667.78Z" transform="translate(-83.693 -656.879)" fill="#222323"/>
              </g>
              <path id="Trazado_102386" data-name="Trazado 102386" d="M120.681,450.159c-1.206,10.434,14.412,21.345,11.258,29.742-6.6,17.566-20.054,32.343-31.149,45.965-.793.973-5.93,6.391-7.052,7.616,2.372,3.389,5.913,5.737,9.055,8.652,15.855-12,44.308-34.231,51.946-44.452,10.368-13.875,12.558-39.917,17.528-57.9.823-2.979,2.061-7.269.176-10.111-1.445-2.179-3.59-3.207-6.331-4.006-7.333-2.139-17.288-6.473-24.494-2.208C133.744,428.12,121.608,442.142,120.681,450.159Z" transform="translate(-88.956 -421.649)" fill="#1a3151"/>
            </g>
            <g id="Grupo_56204" data-name="Grupo 56204" transform="translate(45.857 123.154)">
              <g id="Grupo_56203" data-name="Grupo 56203" transform="translate(60.186 112.121)">
                <path id="Trazado_102387" data-name="Trazado 102387" d="M312.289,662.023c1.6.331,3.215.17,4.82.345a78.9,78.9,0,0,0,2.372-16.919c-2.816,1.85-4.95.112-6.032,4.874C313.1,651.864,313.18,659.613,312.289,662.023Z" transform="translate(-309.492 -645.449)" fill="#e5d1bd"/>
                <path id="Trazado_102388" data-name="Trazado 102388" d="M315.046,674.7a2.531,2.531,0,0,1,2.057,1.275,11.583,11.583,0,0,0,.854,1.319,2.826,2.826,0,0,0,1.361.592c2.815.7,9.386,1.7,5.1,5.883-3.893,3.8-11.975.688-16.652-1.276a1.8,1.8,0,0,1-.848-.522,2.31,2.31,0,0,1-.335-1.051c-.249-2.1-.589-4.876,2.043-5.322,1.123-.19,2.064.681,3.266.466C312.876,675.894,314.043,674.7,315.046,674.7Z" transform="translate(-306.414 -660.775)" fill="#222323"/>
              </g>
              <path id="Trazado_102389" data-name="Trazado 102389" d="M201.118,453.558c7.7,7.569,29.752,13.126,33.34,21.839,1.439,3.5,5.012,30.279,5.733,48.478.051,1.3-1.244,8.806-1.257,10.525,4.109,1.159,9.193-.14,13.622.166,3.236-20.97,7.05-61.689,7.05-61.689-4.382-18.34-25.533-39.372-37.27-55.895-1.944-2.737-4.217-6.485-7.707-6.946-2.676-.353-4.789.578-7.195,2.117-6.438,4.119-25.9,10.7-27.327,18.9C178.549,440.029,195.2,447.741,201.118,453.558Z" transform="translate(-180.006 -409.962)" fill="#1a3151"/>
            </g>
            <path id="Trazado_102390" data-name="Trazado 102390" d="M184.352,250.4c-6.707,5.9-16.806,11.305-20.834,19.521-9.745,19.876-15.658,41.218-18.735,63.025q-1.35,9.567-2.7,19.134c-.886,6.275-.666,7.732,4.461,8.193,10.362.948,21.579-2.455,31.533-5.128a25.311,25.311,0,0,0,7.312-2.856c3.333-2.16,5.68-5.777,9.349-7.3a19.068,19.068,0,0,1,5.5-1.094c4-.391,8.468-.647,11.555,1.922,1.807,1.5,2.716,3.887,4.557,5.3,1.283-1.759-.5-7.234-.812-9.423a84.58,84.58,0,0,1-.969-10.128,189.549,189.549,0,0,1,.891-20.648c1.054-11.972,1.6-24,2.586-35.946.7-8.555,2.479-15.254-3.343-22.481-3.169-3.935-8.98-10.768-14.235-10.675C194.889,241.909,188.31,246.913,184.352,250.4Z" transform="translate(-114.071 -198.717)" fill="#b5d6ca"/>
            <g id="Grupo_56205" data-name="Grupo 56205" transform="translate(82.215 16.452)">
              <path id="Trazado_102391" data-name="Trazado 102391" d="M275.384,209.879c-1.942,1.84-4.386,3.038-6.595,4.545a15.014,15.014,0,0,0-4.66,5.275c-.936,1.578-2.066,2.65-4.2,2.118-4.033-1-1.667-3.72-1.605-6.369.07-3.028-1.2-5.96-1.732-8.9-1.528-8.5,5.1-21.4,15.111-20.659C282.65,186.694,281.278,204.3,275.384,209.879Z" transform="translate(-256.369 -185.856)" fill="#e5d1bd"/>
            </g>
            <path id="Trazado_102392" data-name="Trazado 102392" d="M250.969,177.127a2.749,2.749,0,0,0-1.093,3.4c.326.62.928,1.049,1.3,1.642,1.1,1.737-.179,4.048-1.784,5.327s-3.618,2.163-4.7,3.909c-5.459-4.434-9.637-10.858-10.018-17.89a17.683,17.683,0,0,1,5.51-13.8c4.425-4.035,8.9-3.812,14.66-4.305a20.1,20.1,0,0,1,6.561.15c1.963.488,3.41,1.894,5.239,2.521a12.056,12.056,0,0,0,10.444-2.272c1.448-1.364,2.3-3.444,4.128-4.229a4.261,4.261,0,0,1,5.025,1.7,5.856,5.856,0,0,1,.249,5.526c-.516,1.142-1.327,2.133-1.817,3.285-1.033,2.429-.548,5.334-1.739,7.688-1.261,2.492-4.064,3.748-6.715,4.61-2.755.9-5.754,1.663-7.744,3.928.364-1.5-2.039-4.847-3.627-5.189-2.054-.442-5.308,1.9-7.413,2.4C255.41,176.016,252.763,175.968,250.969,177.127Z" transform="translate(-162.776 -151.302)" fill="#1a3151"/>
          </g>
          <path id="Trazado_102393" data-name="Trazado 102393" d="M265.9,274.907c-2.6,3.33-4.565,7.468-4.058,11.662.542,4.493,3.84,8.524,3.414,13.03-.192,2.026-1.13,3.894-1.7,5.846s-.726,4.234.5,5.86c.954,1.269,2.664,2.034,3.055,3.573,2.95-3.826,5.983-7.826,6.988-12.552a17.129,17.129,0,0,0-1.03-10.172c-1.344-3.167-3.648-6.151-3.5-9.589.14-3.2,2.331-5.76,4-8.323,1.9-2.924.019-7.462-1.326-10.424-.639-1.409-1.606-2.909-3.133-3.159a5.209,5.209,0,0,0-1.374.02,4.334,4.334,0,0,0-1.592.372,1.473,1.473,0,0,0-.853,1.3,2.071,2.071,0,0,1,2.2.839c1.109,1.449,1.525,4.584,1.264,6.365C268.443,271.6,267.136,273.323,265.9,274.907Z" transform="translate(-176.979 -208.571)" fill="#fff"/>
          <g id="Grupo_56212" data-name="Grupo 56212" transform="translate(42.719 12.931)">
            <g id="Grupo_56211" data-name="Grupo 56211" transform="translate(0 0)">
              <g id="Grupo_56207" data-name="Grupo 56207" transform="translate(0 0)">
                <circle id="Elipse_413" data-name="Elipse 413" cx="67.879" cy="67.879" r="67.879" transform="translate(0 95.996) rotate(-45)" fill="#ffd559"/>
              </g>
              <g id="Grupo_56208" data-name="Grupo 56208" transform="translate(38.387 38.387)">
                <circle id="Elipse_414" data-name="Elipse 414" cx="57.608" cy="57.608" r="57.608" fill="#ebb044"/>
              </g>
              <g id="Grupo_56209" data-name="Grupo 56209" transform="translate(45.99 48.366)">
                <path id="Trazado_102394" data-name="Trazado 102394" d="M352.531,280.043a57.617,57.617,0,0,1-82.523,76.173,57.613,57.613,0,1,0,82.523-76.173Z" transform="translate(-270.008 -280.043)" fill="#edbd31"/>
              </g>
              <g id="Grupo_56210" data-name="Grupo 56210" transform="translate(44.712 44.737)">
                <path id="Trazado_102395" data-name="Trazado 102395" d="M270.89,326.613a50.852,50.852,0,0,1,92.575-26.488,50.857,50.857,0,1,0-87.07,52.134A50.618,50.618,0,0,1,270.89,326.613Z" transform="translate(-267.324 -272.422)" fill="#f7db5e"/>
              </g>
              <path id="Trazado_102396" data-name="Trazado 102396" d="M360.39,302.216l-.36,7.33a15.455,15.455,0,0,1,7.075,3.272,22.371,22.371,0,0,1,5.016,7.032l-7.493,3.718q-3-6.145-8.307-6.407a7.883,7.883,0,0,0-5.556,1.676,6.266,6.266,0,0,0-2.408,4.756,5.989,5.989,0,0,0,1.541,4.5q1.635,1.8,6.756,4.418a69.817,69.817,0,0,1,7.29,4.238,19.971,19.971,0,0,1,4.278,3.715,15.677,15.677,0,0,1,3.684,11.241,17.683,17.683,0,0,1-4.366,11.032,18.479,18.479,0,0,1-10.418,6.011l-.38,7.742-6.545-.321.37-7.518q-7.271-1.558-10.934-5.6t-5.1-12.173l8.312-1.316q1.4,5.768,3.716,8.318a9.669,9.669,0,0,0,6.655,2.652,9.563,9.563,0,0,0,7.012-2.317,8.973,8.973,0,0,0,3.063-6.635,7.977,7.977,0,0,0-1.989-6.059,21.205,21.205,0,0,0-3.3-2.618,58.972,58.972,0,0,0-5.632-3.257q-7.1-3.61-9.243-6.452a14.99,14.99,0,0,1-2.042-14.909,13.731,13.731,0,0,1,2.693-4.085,15.463,15.463,0,0,1,4.182-3.075,21.654,21.654,0,0,1,5.529-1.9l.36-7.33Z" transform="translate(-257.82 -243.125)" fill="#d49a34"/>
            </g>
          </g>
          <g id="Grupo_56214" data-name="Grupo 56214" transform="translate(66.854 49.745)">
            <path id="Trazado_102397" data-name="Trazado 102397" d="M279.765,428.627a2.912,2.912,0,0,0,.13-.483c.266-1.543-.977-2.489-1.124-3.873-.066-.617.966-2.158-.026-2.425-.367-.1-1.574-.523-2.811-.876-.856-.645-1.742-1.253-2.533-1.975-2-1.83-4.08-8.058-7.554-6.724a6.086,6.086,0,0,0-1.9,1,5.248,5.248,0,0,0-1.048,1.412c-.225.4-.677.983-.557,1.414.125.453,1.086,1.143,1.418,1.492l2.848,3c.931.98,1.936,2.221,1.6,3.53a6.545,6.545,0,0,0-.247.851,2.328,2.328,0,0,0,.159.98,15.926,15.926,0,0,0,1.5,3.373c1.144,1.872,4.573,2.016,6.486,2.236a3.214,3.214,0,0,0,1.425-.062,3.443,3.443,0,0,0,1.6-1.639A6.965,6.965,0,0,0,279.765,428.627Z" transform="translate(-244.126 -337.665)" fill="#e5d1bd"/>
            <g id="Grupo_56213" data-name="Grupo 56213">
              <path id="Trazado_102398" data-name="Trazado 102398" d="M267.315,424.05a.791.791,0,0,0,.412-.171,26.1,26.1,0,0,0,5.972-5.521l-2.371-2.5a.531.531,0,0,0-.2-.154c-.169-.058-.343.063-.482.176l-4.547,3.71c-.679.555-1.9,1.3-1.55,2.278A6.753,6.753,0,0,0,267.315,424.05Z" transform="translate(-245.26 -339.555)" fill="#f2f2f2"/>
              <path id="Trazado_102399" data-name="Trazado 102399" d="M225.123,310.207a19.52,19.52,0,0,0,.455,5.165,17.416,17.416,0,0,0,1.673,3.782,77.3,77.3,0,0,0,15.05,19.621c3.514-1.964,6.317-5.405,8.805-8.575a112.721,112.721,0,0,1-9.268-17.079,16.1,16.1,0,0,1-1.4-4.073,17.187,17.187,0,0,1,.529-6.167q2.478-11.816,4.955-23.632c1-4.753,1.994-9.685.918-14.42-2.981-13.13-19.872-11.287-21.8,1.127C222.881,279.9,225.14,296.061,225.123,310.207Z" transform="translate(-224.106 -255.781)" fill="#b5d6ca"/>
              <path id="Trazado_102400" data-name="Trazado 102400" d="M274.643,410.407c-.5-.282-1.338-.057-1.384.574a.851.851,0,0,0,.889.851c.743-.052,1.183-1.006.519-1.41Z" transform="translate(-249.855 -336.723)" fill="#f2f2f2"/>
              <path id="Trazado_102401" data-name="Trazado 102401" d="M271,405.478c-.5-.282-1.337-.057-1.384.574a.851.851,0,0,0,.889.851c.743-.052,1.183-1.007.519-1.41Z" transform="translate(-247.944 -334.141)" fill="#f2f2f2"/>
            </g>
          </g>
        </g>
      </g>
    </g>
  </g>
</svg>
