<svg xmlns="http://www.w3.org/2000/svg" width="182.328" height="187.822" viewBox="0 0 182.328 187.822">
  <g id="_x32_4_x2C__Coin_x2C__finance_x2C__gear_x2C__money_x2C__wealth" transform="translate(-7.489)">
    <g id="XMLID_819_" transform="translate(7.489)">
      <path id="XMLID_835_" d="M282.182,136.749V152.4h-13.6a55.953,55.953,0,0,1-2.514,9.517l11.728,6.809-7.977,13.852-11.744-6.767a63,63,0,0,1-6.908,6.913l6.777,11.749-13.816,7.972L237.351,190.7a70.679,70.679,0,0,1-9.427,2.535V206.66H211.749V193.236a70.51,70.51,0,0,1-9.339-2.53l-6.725,11.739-13.81-7.972,6.8-11.744a65.5,65.5,0,0,1-6.919-6.908L170.031,182.6l-7.982-13.831,11.744-6.85a55.516,55.516,0,0,1-2.53-9.517H157.489V136.749h13.773a55.371,55.371,0,0,1,2.53-9.517l-11.744-6.819,7.987-13.847,11.729,6.767a63.624,63.624,0,0,1,6.923-6.913L181.9,94.671,195.732,86.7l6.678,11.729a72.061,72.061,0,0,1,9.339-2.53V82.489h16.174V95.908a72.845,72.845,0,0,1,9.427,2.52L244.138,86.7l13.81,7.972-6.777,11.744a61.6,61.6,0,0,1,6.908,6.908l11.744-6.777,7.977,13.831-11.728,6.856a57.281,57.281,0,0,1,2.53,9.517h13.581Zm-26.358,7.816a35.895,35.895,0,1,0-35.895,35.9A35.894,35.894,0,0,0,255.824,144.564Z" transform="translate(-102.463 -52.229)" fill="#636c77"/>
      <path id="XMLID_834_" d="M265.747,153.885a35.89,35.89,0,1,1-35.9,35.884A35.894,35.894,0,0,1,265.747,153.885Z" transform="translate(-148.28 -97.434)" fill="#9ed26a"/>
      <path id="XMLID_833_" d="M37.624,299.107a30.127,30.127,0,1,1-30.135,30.13A30.194,30.194,0,0,1,37.624,299.107Z" transform="translate(-7.489 -189.382)" fill="#fdcd56"/>
      <path id="XMLID_832_" d="M15.095,188.359a6.564,6.564,0,1,1-6.569,6.564,6.568,6.568,0,0,1,6.569-6.564Z" transform="translate(-8.146 -119.261)" fill="#fdcd56"/>
      <path id="XMLID_831_" d="M244.05,429.555l-8.41-8.42a2.581,2.581,0,0,0-4.414,1.843v5.8a77.086,77.086,0,0,1-49.427-19,2.607,2.607,0,1,0-3.42,3.935,82.62,82.62,0,0,0,52.847,20.284v5.817a2.589,2.589,0,0,0,1.591,2.41,2.545,2.545,0,0,0,.987.2,2.6,2.6,0,0,0,1.839-.764l8.408-8.411a2.608,2.608,0,0,0,0-3.687Z" transform="translate(-115.117 -259.045)" fill="#636c77"/>
      <path id="XMLID_830_" d="M136.57,51.729a2.609,2.609,0,0,0-3.508-1.14A82.308,82.308,0,0,0,87.979,122.46H82.145a2.7,2.7,0,0,0-1.844,4.583l8.416,8.431a2.6,2.6,0,0,0,3.687.017l8.42-8.408a2.747,2.747,0,0,0,.567-2.928,2.689,2.689,0,0,0-2.41-1.7H93.2a76.907,76.907,0,0,1,42.233-67.309,2.51,2.51,0,0,0,1.141-3.422Z" transform="translate(-53.106 -31.85)" fill="#636c77"/>
      <path id="XMLID_829_" d="M83.015,353.074c-.243-1.738-1.5-4.955-7.156-6.962-4.022-1.431-5.128-3.216-5.035-3.858.071-.482,1.117-1.2,3.14-1.312.034,0,.069.034.1.034h.021a16.083,16.083,0,0,1,4.745.7,2.619,2.619,0,0,0,3.264-1.737,2.655,2.655,0,0,0-1.78-3.274,26.245,26.245,0,0,0-3.965-.86v-3.242a2.568,2.568,0,1,0-5.136,0v3.5c-2.935.8-5.187,2.786-5.576,5.432-.214,1.454-.226,6.441,8.46,9.532,2.6.922,3.643,2.067,3.74,2.767a2.05,2.05,0,0,1-1.077,1.686c-1.528,1.087-4.535,1.727-7.993-.042a2.613,2.613,0,0,0-2.4,4.645,16.431,16.431,0,0,0,4.841,1.529v3.3a2.568,2.568,0,1,0,5.136,0V361.29a12.107,12.107,0,0,0,3.378-1.555,7.1,7.1,0,0,0,3.284-6.66Z" transform="translate(-43.885 -208.914)" fill="#fff"/>
      <path id="XMLID_828_" d="M319.672,216.9c-.29-2.079-1.815-5.937-8.776-8.407-5.5-1.953-7.2-4.557-7.008-5.831.165-1.072,1.783-2.278,4.949-2.4l.127,0h.068a18.975,18.975,0,0,1,6.2.989,2.608,2.608,0,0,0,3.276-1.7,2.637,2.637,0,0,0-1.745-3.276,24.79,24.79,0,0,0-5.29-1.12v-4.809a2.568,2.568,0,1,0-5.136,0v4.96c-4.035.777-7.1,3.211-7.616,6.569-.551,3.593,1.9,8.511,10.424,11.538,3.141,1.115,5.143,2.689,5.356,4.211a3.317,3.317,0,0,1-1.708,2.909c-2.153,1.532-6.366,2.451-11.152,0a2.611,2.611,0,0,0-2.386,4.645,17.69,17.69,0,0,0,7.082,2.015v4.892a2.568,2.568,0,1,0,5.136,0v-5.35a10.956,10.956,0,0,0,4.3-1.95C318.591,222.773,320.081,219.827,319.672,216.9Z" transform="translate(-191.33 -118.864)" fill="#fff"/>
      <g id="Grupo_56236" data-name="Grupo 56236" transform="translate(22.679)">
        <path id="XMLID_827_" d="M470.386,23.706H457.343a2.609,2.609,0,1,1,0-5.217h13.043a2.609,2.609,0,1,1,0,5.217Z" transform="translate(-313.346 -11.706)" fill="#fdcd56"/>
        <path id="XMLID_826_" d="M475.832,18.261a2.609,2.609,0,0,1-2.609-2.609V2.609a2.609,2.609,0,0,1,5.217,0V15.652A2.609,2.609,0,0,1,475.832,18.261Z" transform="translate(-325.052)" fill="#fdcd56"/>
        <path id="XMLID_825_" d="M85.485,97.662H71.921a2.609,2.609,0,0,1,0-5.217H85.485a2.609,2.609,0,0,1,0,5.217Z" transform="translate(-69.312 -58.532)" fill="#fdcd56"/>
        <path id="XMLID_824_" d="M90.41,93.639A2.609,2.609,0,0,1,87.8,91.03V77.987a2.609,2.609,0,0,1,5.217,0V91.03A2.609,2.609,0,0,1,90.41,93.639Z" transform="translate(-81.018 -47.726)" fill="#fdcd56"/>
        <path id="XMLID_823_" d="M165.547,476.247a2.6,2.6,0,0,1-1.844-.763L150.56,462.352a2.609,2.609,0,0,1,3.688-3.691l13.142,13.132a2.609,2.609,0,0,1-1.844,4.454Z" transform="translate(-120.271 -289.922)" fill="#fdcd56"/>
        <path id="XMLID_822_" d="M152.4,476.248a2.609,2.609,0,0,1-1.843-4.455L163.7,458.662a2.609,2.609,0,0,1,3.689,3.69l-13.144,13.133A2.6,2.6,0,0,1,152.4,476.248Z" transform="translate(-120.271 -289.923)" fill="#fdcd56"/>
        <path id="XMLID_821_" d="M400.7,484.507H387.654a2.608,2.608,0,1,1,0-5.217H400.7a2.608,2.608,0,1,1,0,5.217Z" transform="translate(-269.221 -303.467)" fill="#fdcd56"/>
        <path id="XMLID_820_" d="M406.144,480.483a2.608,2.608,0,0,1-2.609-2.609V464.831a2.608,2.608,0,0,1,5.217,0v13.043A2.608,2.608,0,0,1,406.144,480.483Z" transform="translate(-280.928 -292.661)" fill="#fdcd56"/>
      </g>
    </g>
  </g>
</svg>
