<svg xmlns="http://www.w3.org/2000/svg" width="177.773" height="119.325" viewBox="0 0 177.773 119.325">
  <g id="calendario" transform="translate(0 -84.167)">
    <g id="Grupo_56239" data-name="Grupo 56239" transform="translate(0 94.997)">
      <path id="Trazado_102463" data-name="Trazado 102463" d="M188.808,223.861H69.231a3.629,3.629,0,0,1-3.616-3.344L57.37,115.369h3.953l24.8,89.774a3.633,3.633,0,0,0,3.5,2.665H191.473l.951,12.14A3.629,3.629,0,0,1,188.808,223.861Z" transform="translate(-37.45 -115.365)" fill="#31a7fb"/>
      <path id="Trazado_102464" data-name="Trazado 102464" d="M192.306,218.434H86.6A10.917,10.917,0,0,1,76.1,210.444l-15.745-57.02L57.37,115.358h3.953l24.8,89.777a3.633,3.633,0,0,0,3.5,2.665H191.473Z" transform="translate(-37.45 -115.358)" fill="#1c96f9"/>
      <path id="Trazado_102465" data-name="Trazado 102465" d="M21.594,133.944,16.253,215.3l-2.786-1.635-10.295-1.3A3.629,3.629,0,0,1,.082,208L19.92,115.369Z" transform="translate(0 -115.365)" fill="#1785f8"/>
      <path id="Trazado_102466" data-name="Trazado 102466" d="M45.235,115.364,54.951,223.15l-16.17-9.486Z" transform="translate(-25.316 -115.362)" fill="#1576f7"/>
      <g id="Grupo_56238" data-name="Grupo 56238" transform="translate(19.919 0.001)">
        <path id="Trazado_102467" data-name="Trazado 102467" d="M222.985,252.428h-125a3.627,3.627,0,0,1-3.5-2.661L74.821,178.55H207.346l19.137,69.282A3.631,3.631,0,0,1,222.985,252.428Z" transform="translate(-68.761 -156.61)" fill="#eaf6ff"/>
        <path id="Trazado_102468" data-name="Trazado 102468" d="M215.09,206.586,190.63,118.027a3.629,3.629,0,0,0-3.5-2.663H57.369L83.1,208.518a3.629,3.629,0,0,0,3.5,2.663h125A3.629,3.629,0,0,0,215.09,206.586Z" transform="translate(-57.369 -115.363)" fill="#eaf6ff"/>
        <path id="Trazado_102469" data-name="Trazado 102469" d="M447.146,252.428h-13.3a3.632,3.632,0,0,0,3.5-4.6L418.212,178.55h13.3l19.137,69.282A3.632,3.632,0,0,1,447.146,252.428Z" transform="translate(-292.923 -156.61)" fill="#d9ecfd"/>
        <path id="Trazado_102470" data-name="Trazado 102470" d="M196.449,139.093l-5.818-21.066a3.629,3.629,0,0,0-3.5-2.663H57.369l6.554,23.729Z" transform="translate(-57.369 -115.363)" fill="#fc5a95"/>
        <path id="Trazado_102471" data-name="Trazado 102471" d="M396.3,118.024l5.818,21.066h13.3L409.6,118.024a3.632,3.632,0,0,0-3.5-2.663h-13.3A3.632,3.632,0,0,1,396.3,118.024Z" transform="translate(-276.338 -115.361)" fill="#fb3a82"/>
      </g>
    </g>
    <g id="Grupo_56240" data-name="Grupo 56240" transform="translate(22.144 84.167)">
      <path id="Trazado_102472" data-name="Trazado 102472" d="M188.685,84.167a10.8,10.8,0,0,0-8.148,3.708,10.808,10.808,0,0,0-16.3,0,10.808,10.808,0,0,0-16.3,0,10.808,10.808,0,0,0-16.3,0,10.808,10.808,0,0,0-16.3,0,10.808,10.808,0,0,0-16.3,0,10.808,10.808,0,0,0-16.3,0A10.824,10.824,0,0,0,63.776,95a2.683,2.683,0,1,0,5.365,0,5.465,5.465,0,1,1,5.465,5.465,2.683,2.683,0,0,0,0,5.365A10.843,10.843,0,0,0,85.438,95a5.465,5.465,0,1,1,5.465,5.465,2.683,2.683,0,0,0,0,5.365A10.843,10.843,0,0,0,101.734,95a5.465,5.465,0,1,1,5.465,5.465,2.683,2.683,0,1,0,0,5.365A10.843,10.843,0,0,0,118.031,95a5.465,5.465,0,1,1,5.465,5.465,2.683,2.683,0,0,0,0,5.365A10.843,10.843,0,0,0,134.327,95a5.465,5.465,0,1,1,5.465,5.465,2.683,2.683,0,1,0,0,5.365A10.843,10.843,0,0,0,150.623,95a5.465,5.465,0,1,1,5.465,5.465,2.683,2.683,0,1,0,0,5.365A10.843,10.843,0,0,0,166.92,95a5.465,5.465,0,1,1,5.465,5.465,2.683,2.683,0,1,0,0,5.365A10.843,10.843,0,0,0,183.216,95a5.465,5.465,0,1,1,5.465,5.465,2.683,2.683,0,1,0,0,5.365,10.83,10.83,0,0,0,0-21.659Z" transform="translate(-63.776 -84.167)" fill="#d9ecfd"/>
    </g>
    <g id="Grupo_56241" data-name="Grupo 56241" transform="translate(21.043 95.001)">
      <path id="Trazado_102473" data-name="Trazado 102473" d="M68.174,115.369a3.828,3.828,0,0,1-7.569,0Z" transform="translate(-60.605 -115.369)" fill="#fc5a95"/>
    </g>
    <g id="Grupo_56242" data-name="Grupo 56242" transform="translate(46.162 131.397)">
      <path id="Trazado_102474" data-name="Trazado 102474" d="M155.292,237.116l-4.62-14.4a3.629,3.629,0,0,0-3.455-2.52H136.582a3.629,3.629,0,0,0-3.455,4.737l4.62,14.4a3.629,3.629,0,0,0,3.455,2.52h10.635A3.628,3.628,0,0,0,155.292,237.116Z" transform="translate(-132.95 -220.193)" fill="#31a7fb"/>
    </g>
    <g id="Grupo_56267" data-name="Grupo 56267" transform="translate(74.828 129.803)">
      <g id="Grupo_56248" data-name="Grupo 56248">
        <g id="Grupo_56243" data-name="Grupo 56243">
          <path id="Trazado_102475" data-name="Trazado 102475" d="M223.146,220.968h-4.952a2.683,2.683,0,0,1,0-5.365h4.952a2.683,2.683,0,1,1,0,5.365Z" transform="translate(-215.511 -215.603)" fill="#ff9800"/>
        </g>
        <g id="Grupo_56244" data-name="Grupo 56244" transform="translate(16.747)">
          <path id="Trazado_102476" data-name="Trazado 102476" d="M271.379,220.968h-4.952a2.683,2.683,0,1,1,0-5.365h4.952a2.683,2.683,0,1,1,0,5.365Z" transform="translate(-263.744 -215.603)" fill="#31a7fb"/>
        </g>
        <g id="Grupo_56245" data-name="Grupo 56245" transform="translate(33.494)">
          <path id="Trazado_102477" data-name="Trazado 102477" d="M319.611,220.968h-4.952a2.683,2.683,0,0,1,0-5.365h4.952a2.683,2.683,0,0,1,0,5.365Z" transform="translate(-311.976 -215.603)" fill="#31a7fb"/>
        </g>
        <g id="Grupo_56246" data-name="Grupo 56246" transform="translate(50.241)">
          <path id="Trazado_102478" data-name="Trazado 102478" d="M367.843,220.968h-4.952a2.683,2.683,0,1,1,0-5.365h4.952a2.683,2.683,0,0,1,0,5.365Z" transform="translate(-360.208 -215.603)" fill="#31a7fb"/>
        </g>
        <g id="Grupo_56247" data-name="Grupo 56247" transform="translate(66.987)">
          <path id="Trazado_102479" data-name="Trazado 102479" d="M416.075,220.968h-4.952a2.683,2.683,0,0,1,0-5.365h4.952a2.683,2.683,0,0,1,0,5.365Z" transform="translate(-408.44 -215.603)" fill="#ff9800"/>
        </g>
      </g>
      <g id="Grupo_56254" data-name="Grupo 56254" transform="translate(3.565 14.625)">
        <g id="Grupo_56249" data-name="Grupo 56249">
          <path id="Trazado_102480" data-name="Trazado 102480" d="M233.414,263.09h-4.952a2.683,2.683,0,1,1,0-5.365h4.952a2.683,2.683,0,1,1,0,5.365Z" transform="translate(-225.779 -257.725)" fill="#fc5a95"/>
        </g>
        <g id="Grupo_56250" data-name="Grupo 56250" transform="translate(16.746)">
          <path id="Trazado_102481" data-name="Trazado 102481" d="M281.645,263.09h-4.952a2.683,2.683,0,0,1,0-5.365h4.952a2.683,2.683,0,0,1,0,5.365Z" transform="translate(-274.01 -257.725)" fill="#ff9800"/>
        </g>
        <g id="Grupo_56251" data-name="Grupo 56251" transform="translate(33.493)">
          <path id="Trazado_102482" data-name="Trazado 102482" d="M329.877,263.09h-4.952a2.683,2.683,0,0,1,0-5.365h4.952a2.683,2.683,0,0,1,0,5.365Z" transform="translate(-322.242 -257.725)" fill="#31a7fb"/>
        </g>
        <g id="Grupo_56252" data-name="Grupo 56252" transform="translate(50.24)">
          <path id="Trazado_102483" data-name="Trazado 102483" d="M378.11,263.09h-4.952a2.683,2.683,0,0,1,0-5.365h4.952a2.683,2.683,0,0,1,0,5.365Z" transform="translate(-370.475 -257.725)" fill="#31a7fb"/>
        </g>
        <g id="Grupo_56253" data-name="Grupo 56253" transform="translate(66.987)">
          <path id="Trazado_102484" data-name="Trazado 102484" d="M426.342,263.09H421.39a2.683,2.683,0,0,1,0-5.365h4.952a2.683,2.683,0,0,1,0,5.365Z" transform="translate(-418.707 -257.725)" fill="#31a7fb"/>
        </g>
      </g>
      <g id="Grupo_56260" data-name="Grupo 56260" transform="translate(7.13 29.251)">
        <g id="Grupo_56255" data-name="Grupo 56255">
          <path id="Trazado_102485" data-name="Trazado 102485" d="M243.68,305.213h-4.952a2.683,2.683,0,0,1,0-5.365h4.952a2.683,2.683,0,1,1,0,5.365Z" transform="translate(-236.045 -299.848)" fill="#fc5a95"/>
        </g>
        <g id="Grupo_56256" data-name="Grupo 56256" transform="translate(16.747)">
          <path id="Trazado_102486" data-name="Trazado 102486" d="M291.912,305.213H286.96a2.683,2.683,0,0,1,0-5.365h4.952a2.683,2.683,0,0,1,0,5.365Z" transform="translate(-284.277 -299.848)" fill="#31a7fb"/>
        </g>
        <g id="Grupo_56257" data-name="Grupo 56257" transform="translate(33.494)">
          <path id="Trazado_102487" data-name="Trazado 102487" d="M340.144,305.213h-4.952a2.683,2.683,0,0,1,0-5.365h4.952a2.683,2.683,0,0,1,0,5.365Z" transform="translate(-332.509 -299.848)" fill="#31a7fb"/>
        </g>
        <g id="Grupo_56258" data-name="Grupo 56258" transform="translate(50.24)">
          <path id="Trazado_102488" data-name="Trazado 102488" d="M388.376,305.213h-4.952a2.683,2.683,0,0,1,0-5.365h4.952a2.683,2.683,0,0,1,0,5.365Z" transform="translate(-380.741 -299.848)" fill="#31a7fb"/>
        </g>
        <g id="Grupo_56259" data-name="Grupo 56259" transform="translate(66.988)">
          <path id="Trazado_102489" data-name="Trazado 102489" d="M436.609,305.213h-4.952a2.683,2.683,0,0,1,0-5.365h4.952a2.683,2.683,0,1,1,0,5.365Z" transform="translate(-428.974 -299.848)" fill="#31a7fb"/>
        </g>
      </g>
      <g id="Grupo_56266" data-name="Grupo 56266" transform="translate(9.606 43.876)">
        <g id="Grupo_56261" data-name="Grupo 56261">
          <path id="Trazado_102490" data-name="Trazado 102490" d="M250.811,347.335h-4.952a2.683,2.683,0,1,1,0-5.365h4.952a2.683,2.683,0,0,1,0,5.365Z" transform="translate(-243.176 -341.97)" fill="#fc5a95"/>
        </g>
        <g id="Grupo_56262" data-name="Grupo 56262" transform="translate(16.747)">
          <path id="Trazado_102491" data-name="Trazado 102491" d="M299.043,347.335h-4.952a2.683,2.683,0,0,1,0-5.365h4.952a2.683,2.683,0,0,1,0,5.365Z" transform="translate(-291.408 -341.97)" fill="#31a7fb"/>
        </g>
        <g id="Grupo_56263" data-name="Grupo 56263" transform="translate(33.494)">
          <path id="Trazado_102492" data-name="Trazado 102492" d="M347.276,347.335h-4.952a2.683,2.683,0,0,1,0-5.365h4.952a2.683,2.683,0,0,1,0,5.365Z" transform="translate(-339.641 -341.97)" fill="#31a7fb"/>
        </g>
        <g id="Grupo_56264" data-name="Grupo 56264" transform="translate(50.241)">
          <path id="Trazado_102493" data-name="Trazado 102493" d="M395.508,347.335h-4.952a2.683,2.683,0,0,1,0-5.365h4.952a2.683,2.683,0,1,1,0,5.365Z" transform="translate(-387.873 -341.97)" fill="#31a7fb"/>
        </g>
        <g id="Grupo_56265" data-name="Grupo 56265" transform="translate(66.987)">
          <path id="Trazado_102494" data-name="Trazado 102494" d="M443.74,347.335h-4.952a2.683,2.683,0,0,1,0-5.365h4.952a2.683,2.683,0,1,1,0,5.365Z" transform="translate(-436.105 -341.97)" fill="#31a7fb"/>
        </g>
      </g>
    </g>
    <g id="Grupo_56268" data-name="Grupo 56268" transform="translate(55.876 161.927)">
      <path id="Trazado_102495" data-name="Trazado 102495" d="M166.92,325.472a2.684,2.684,0,0,1-2.584-1.969l-3.31-11.983a2.683,2.683,0,0,1,5.172-1.429l3.31,11.983a2.685,2.685,0,0,1-2.588,3.4Z" transform="translate(-160.928 -308.122)" fill="#31a7fb"/>
    </g>
    <g id="Grupo_56269" data-name="Grupo 56269" transform="translate(66.66 167.918)">
      <path id="Trazado_102496" data-name="Trazado 102496" d="M196.323,336.735a2.684,2.684,0,0,1-2.584-1.969l-1.655-5.992a2.683,2.683,0,0,1,5.172-1.429l1.655,5.992a2.685,2.685,0,0,1-2.588,3.4Z" transform="translate(-191.986 -325.376)" fill="#31a7fb"/>
    </g>
  </g>
</svg>
